/* XPM */
static char *_1[] = {
/* columns rows colors chars-per-pixel */
"50 50 152 2 ",
"   c #434343",
".  c #464646",
"X  c #484848",
"o  c #494949",
"O  c gray29",
"+  c #4B4B4B",
"@  c #4C4C4C",
"#  c gray30",
"$  c #4E4E4E",
"%  c gray31",
"&  c #505050",
"*  c #515151",
"=  c gray32",
"-  c #535353",
";  c gray33",
":  c #555555",
">  c #565656",
",  c gray34",
"<  c #585858",
"1  c gray35",
"2  c #5A5A5A",
"3  c #5B5B5B",
"4  c gray36",
"5  c #5D5D5D",
"6  c gray37",
"7  c #5F5F5F",
"8  c #606060",
"9  c gray38",
"0  c gray39",
"q  c #656565",
"w  c gray40",
"e  c #676767",
"r  c #686868",
"t  c DimGray",
"y  c #6A6A6A",
"u  c gray42",
"i  c #6C6C6C",
"p  c #6D6D6D",
"a  c gray43",
"s  c #6F6F6F",
"d  c gray44",
"f  c #747474",
"g  c gray46",
"h  c #767676",
"j  c #777777",
"k  c #797979",
"l  c #7B7B7B",
"z  c #7C7C7C",
"x  c gray49",
"c  c #7E7E7E",
"v  c #808080",
"b  c gray51",
"n  c #848484",
"m  c #868686",
"M  c gray53",
"N  c #888888",
"B  c #898989",
"V  c gray54",
"C  c gray55",
"Z  c #8D8D8D",
"A  c gray56",
"S  c #909090",
"D  c #939393",
"F  c gray58",
"G  c gray59",
"H  c #979797",
"J  c #989898",
"K  c gray60",
"L  c #9A9A9A",
"P  c #9D9D9D",
"I  c gray62",
"U  c #9F9F9F",
"Y  c gray63",
"T  c #A2A2A2",
"R  c gray64",
"E  c #A4A4A4",
"W  c #A5A5A5",
"Q  c gray65",
"!  c #A9A9A9",
"~  c #AAAAAA",
"^  c gray67",
"/  c gray68",
"(  c #AEAEAE",
")  c gray69",
"_  c #B1B1B1",
"`  c #B2B2B2",
"'  c #B4B4B4",
"]  c gray71",
"[  c #B6B6B6",
"{  c #B7B7B7",
"}  c gray72",
"|  c #B9B9B9",
" . c #BBBBBB",
".. c #BCBCBC",
"X. c #C0C0C0",
"o. c gray76",
"O. c #C3C3C3",
"+. c gray77",
"@. c #C6C6C6",
"#. c #C8C8C8",
"$. c gray79",
"%. c #CACACA",
"&. c #CBCBCB",
"*. c gray80",
"=. c #CDCDCD",
"-. c gray82",
";. c #D2D2D2",
":. c gray83",
">. c #D5D5D5",
",. c gray84",
"<. c #D7D7D7",
"1. c #D8D8D8",
"2. c gray85",
"3. c #DADADA",
"4. c gray86",
"5. c #DCDCDC",
"6. c #DDDDDD",
"7. c gray87",
"8. c #DFDFDF",
"9. c gray88",
"0. c #E1E1E1",
"q. c #E2E2E2",
"w. c #E3E3E3",
"e. c #E4E4E4",
"r. c #E5E5E5",
"t. c #E6E6E6",
"y. c #E7E7E7",
"u. c gray91",
"i. c #E9E9E9",
"p. c #EAEAEA",
"a. c #EBEBEB",
"s. c #ECECEC",
"d. c gray93",
"f. c #EEEEEE",
"g. c #EFEFEF",
"h. c gray94",
"j. c #F1F1F1",
"k. c #F2F2F2",
"l. c #F3F3F3",
"z. c #F4F4F4",
"x. c gray96",
"c. c #F6F6F6",
"v. c gray97",
"b. c #F8F8F8",
"n. c #F9F9F9",
"m. c #FAFAFA",
"M. c #FBFBFB",
"N. c #FCFCFC",
"B. c #FDFDFD",
"V. c #FEFEFE",
"C. c white",
"Z. c None",
/* pixels */
"Z.Z.Z.Z.Z.Z.Z.Z.Z.Z.Z.Z.Z.Z.Z.Z.Z.Z.Z.5.5.5.5.4.5.6.8.w.s.s.f.Z.Z.Z.Z.Z.Z.Z.Z.Z.Z.Z.Z.Z.Z.Z.Z.Z.Z.Z.",
"Z.Z.Z.Z.Z.Z.Z.Z.Z.Z.Z.Z.Z.Z.Z.Z.5.4.6.6.9.8.q.e.t.d.k.c.B.C.m.b.c.c.Z.Z.Z.Z.Z.Z.Z.Z.Z.Z.Z.Z.Z.Z.Z.Z.",
"Z.Z.Z.Z.Z.Z.Z.Z.Z.Z.Z.Z.Z.Z.5.5.5.w.u.g.j.z.l.c.x.c.x.v.B.V.C.C.B.m.v.c.Z.Z.Z.Z.Z.Z.Z.Z.Z.Z.Z.Z.Z.Z.",
"Z.Z.Z.Z.Z.Z.Z.Z.Z.Z.Z.6.5.5.9.r.f.z.b.v.v.x.x.x.c.x.x.c.b.M.B.V.V.C.V.M.c.l.Z.Z.Z.Z.Z.Z.Z.Z.Z.Z.Z.Z.",
"Z.Z.Z.Z.Z.Z.Z.Z.Z.Z.5.6.9.i.j.c.c.v.c.v.Z.Z.Z.Z.Z.Z.Z.Z.k.e.l.m.B.V.V.C.V.M.l.u.Z.Z.Z.Z.Z.Z.Z.Z.Z.Z.",
"Z.Z.Z.Z.Z.Z.Z.Z.Z.5.9.i.z.n.N.v.v.Z.Z.Z.Z.Z.Z.Z.Z.Z.Z.Z.Z.Z.s.b.B.V.N.B.V.C.V.M.z.Z.Z.Z.Z.Z.Z.Z.Z.Z.",
"Z.Z.Z.Z.Z.Z.Z.Z.6.w.k.m.j.{ r.Z.Z.Z.Z.Z.Z.Z.Z.Z.Z.Z.Z.Z.Z.p.k.B.C.B.n.n.M.V.V.V.b.j.Z.Z.Z.Z.Z.Z.Z.Z.",
"Z.Z.Z.Z.Z.Z.Z.9.p.v.p.4.~ Z.Z.Z.Z.Z.Z.Z.Z.Z.Z.Z.Z.Z.Z.Z.Z.d.n.V.C.B.Z.z.c.b.m.n.v.x.s.Z.Z.Z.Z.Z.Z.Z.",
"Z.Z.Z.Z.Z.Z.7.f.x.5.A Z.Z.Z.Z.Z.Z.Z.Z.Z.Z.Z.Z.Z.Z.Z.Z.Z.Z.l.N.C.V.Z.Z.Z.Z.z.x.x.x.x.a.4.Z.Z.Z.Z.Z.Z.",
"Z.Z.Z.Z.Z.q.f.,.K 3 Z.Z.Z.Z.Z.Z.Z.Z.Z.Z.Z.Z.Z.Z.Z.Z.Z.Z.j.b.B.C.B.Z.Z.Z.Z.Z.x.x.x.x.d.7.5.Z.Z.Z.Z.Z.",
"Z.Z.Z.Z.6.a.a.f : Z.Z.Z.Z.Z.Z.Z.Z.Z.Z.Z.Z.Z.Z.Z.Z.Z.Z.Z.l.M.V.V.Z.Z.Z.Z.Z.Z.Z.Z.x.x.z.q.4.6.Z.Z.Z.Z.",
"Z.Z.Z.Z.e.j.| o Z.Z.Z.Z.Z.Z.Z.Z.Z.Z.Z.Z.Z.Z.Z.Z.Z.Z.Z.g.c.B.C.C.Z.Z.Z.Z.Z.Z.Z.Z.c.x.v.l.e.6.6.Z.Z.Z.",
"Z.Z.Z.5.y.n.n Z.Z.Z.Z.Z.Z.Z.Z.Z.Z.Z.Z.Z.Z.Z.Z.Z.Z.Z.Z.f.m.V.V.Z.Z.Z.Z.Z.Z.Z.Z.Z.Z.Z.x.c.f.8.5.Z.Z.Z.",
"Z.Z.Z.5.w.k.2 Z.Z.Z.Z.Z.Z.Z.Z.Z.Z.Z.Z.Z.Z.Z.Z.Z.Z.Z.Z.j.B.C.V.Z.Z.Z.Z.Z.Z.Z.Z.Z.Z.Z.c.c.c.i.5.Z.Z.Z.",
"Z.Z.6.4.a.a.J ; - - Z.Z.Z.Z.Z.Z.Z.Z.Z.Z.Z.Z.Z.Z.Z.Z.5.c.V.C.Z.Z.Z.Z.Z.Z.Z.Z.Z.Z.Z.Z.v.v.v.x.y.7.Z.Z.",
"Z.Z.5.5.z.n.e.P 5 + * - Z.Z.Z.Z.Z.Z.Z.Z.Z.Z.Z.Z.Z.Z.6.B.V.V.Z.Z.Z.Z.Z.Z.Z.Z.Z.Z.Z.Z.Z.c.c.c.k.8.Z.Z.",
"Z.7.4.t.b.v.M.C.w.V < = - - Z.Z.Z.Z.Z.Z.Z.Z.Z.Z.Z.+.d.C.C.C.Z.Z.Z.Z.Z.Z.Z.Z.Z.Z.Z.Z.Z.Z.c.c.x.q.6.Z.",
"Z.5.4.j.Z.Z.Z.b.j.o.j = % - = Z.Z.Z.Z.Z.Z.Z.Z., a 9.m.V.V.Z.Z.Z.Z.Z.Z.Z.Z.Z.Z.Z.Z.Z.Z.Z.l.c.c.s.6.Z.",
"Z.5.0.v.Z.Z.Z.Z.Z.Z.8./ a & ; , # % Z.Z.Z.@ * G =.x.B.C.V.p.Z.Z.Z.Z.Z.Z.Z.Z.Z.Z.Z.Z.Z.Z.t.x.c.z.0.Z.",
"5.3.s.b.Z.Z.Z.Z.Z.Z.Z.Z.i.&.U K c 8 * 0 a L ! s.k.n.V.C.C.K Z.Z.Z.Z.Z.Z.Z.Z.Z.Z.Z.Z.Z.Z.Z.h.c.x.u.6.",
"5.6.g.c.Z.Z.Z.Z.Z.Z.Z.Z.Z.0.y.6.@._ { ..2.i.m.c.c.M.V.V.x.k * Z.Z.Z.Z.Z.Z.Z.Z.Z.Z.Z.Z.Z.Z.s.c.c.f.9.",
"5.5.a.v.Z.Z.Z.Z.Z.Z.Z.Z.8.0.| A ^ >.7.0.l.c.c.v.m.B.C.M.j.W - Z.Z.Z.Z.Z.Z.Z.Z.Z.Z.Z.Z.Z.Z.y.x.c.z.0.",
"5.4.j.Z.Z.Z.Z.Z.Z.Z.Z.6.6.^ 3 Z.@ F 4.s.b.b.M.V.C.C.V.b.c.*.u Z.Z.Z.Z.Z.Z.Z.Z.Z.Z.Z.Z.Z.Z.Z.c.c.x.y.",
"5.9.v.v.Z.Z.Z.Z.Z.Z.Z.w...i % Z.= r q.x.M.V.C.C.C.C.V.m.c.f.' 3 Z.Z.Z.Z.Z.Z.Z.Z.Z.Z.Z.Z.Z.c.c.v.b.i.",
"5.w.l.v.Z.Z.Z.Z.Z.Z.6.e.l > Z.Z.@ v f.b.V.C.C.C.C.C.C.V.b.k.6.I 7 % Z.Z.Z.Z.Z.Z.Z.Z.Z.Z.Z.Z.x.c.c.a.",
"5.5.x.Z.Z.Z.Z.Z.Z.Z.0.@.- - Z.Z.% J a.M.V.C.C.C.C.C.C.C.m.c.q.0.( q * - Z.Z.Z.Z.Z.Z.Z.Z.Z.x.x.c.v.g.",
"5.8.j.b.Z.Z.Z.Z.Z.5.t.N # - Z.Z.- b n.n.C.C.C.C.C.C.C.C.N.z.r.6.6.' h $ O = - Z.Z.Z.Z.Z.Z.Z.v.c.v.s.",
"5.4.j.Z.Z.Z.Z.Z.Z.6.<.; - Z.Z.Z.@ C l.b.C.C.C.C.C.C.C.C.n.c.r.4.5.e.e.@.M : X % - Z.Z.Z.Z.Z.m.c.c.j.",
"6.6.h.v.Z.Z.Z.Z.5.r.Y o - Z.Z.Z.- i u.b.M.C.C.C.C.C.C.V.c.x.6.w.2.=.2.q.t.1.T q O + - Z.Z.Q s.c.v.g.",
"5.5.u.v.Z.Z.Z.Z.5.q.t & Z.Z.Z.Z.% w 0.v.b.V.C.C.C.V.N.n.l.f.s.y./ N ! :.5.6.r.q...z & . $ y M.c.v.w.",
"6.5.q.z.Z.Z.Z.Z.7.#.9 = Z.Z.Z.Z.Z.6 O.v.c.c.m.N.M.n.c.c.d.m.7.E p   q } 8.5.5.5.0.u.<.I Z %.C.v.k.q.",
"Z.5.6.h.v.Z.Z.x.h.6.j Z.Z.Z.Z.Z.Z.= O.r.k.v.v.c.v.c.z.v.u.o.s - Z.* 1 o.Z.Z.Z.Z.e.s.x.C.b.x.x.g.r.Z.",
"Z.6.4.t.x.Z.Z.Z.v.b.n % Z.Z.Z.Z.Z.Z.Z 6.6.t.g.c.c.x.m.e.G 6 . Z.Z.9 R 8.Z.Z.Z.Z.Z.Z.Z.c.v.z.i.6.6.Z.",
"Z.6.5.8.k.v.Z.Z.Z.N.$.4 Z.Z.Z.Z.Z.Z.Z ;.6.6.0.7.3.>./ h ; Z.Z.Z.+ H 2.0.Z.Z.Z.Z.Z.Z.Z.Z.b.g.0.4.6.Z.",
"Z.Z.6.5.a.v.Z.Z.Z.r.:.i * Z.Z.Z.Z.Z.d 8.5.5.q.P g 2 < . Z.Z.Z.- : B 2.Z.Z.Z.Z.Z.Z.Z.Z.Z.z.0.5.5.Z.Z.",
"Z.Z.6.4.0.k.v.Z.Z.Z.6.m - - Z.Z.Z.Z.I e.0.&.I - % Z.Z.Z.Z.Z.Z.& 6 Y t.Z.Z.Z.Z.Z.Z.Z.Z.b.u.4.5.5.Z.Z.",
"Z.Z.Z.5.5.f.c.Z.Z.Z.Z.) 7 + = - Z.: :.7.r.b Z.Z.Z.Z.Z.Z.Z.Z.- & x *.Z.Z.Z.Z.Z.Z.Z.Z.v.c.7.5.6.Z.Z.Z.",
"Z.Z.Z.6.5.e.x.v.Z.Z.Z.Z.' M < O t H r.7.-.: Z.Z.Z.Z.Z.Z.Z.= $ u  .9.Z.Z.Z.Z.Z.Z.Z.n.l.p.3.6.5.Z.Z.Z.",
"Z.Z.Z.Z.6.5.a.v.b.Z.Z.Z.Z.8.9.) X.<.8.0.` 2 Z.Z.Z.Z.- - - % q ] 7.Z.Z.Z.Z.Z.Z.Z.Z.v.w.6.5.6.Z.Z.Z.Z.",
"Z.Z.Z.Z.Z.5.7.g.v.c.Z.Z.x.r.6.q.6.6.6.6.*.e & - - - & % 0 v o.8.8.Z.Z.Z.Z.Z.Z.Z.c.g.3.6.6.Z.Z.Z.Z.Z.",
"Z.Z.Z.Z.Z.5.6.e.l.v.v.c.c.h.e.0.6.5.Z.5.2.S o & - O w J &.r.0.y.Z.Z.Z.Z.Z.Z.Z.v.s.0.5.6.6.Z.Z.Z.Z.Z.",
"Z.Z.Z.Z.Z.Z.5.4.0.g.c.c.c.v.l.s.Z.Z.Z.5.8.9.} D [ | 9.5.7.y.Z.Z.Z.Z.Z.Z.Z.Z.c.j.7.5.5.5.Z.Z.Z.Z.Z.Z.",
"Z.Z.Z.Z.Z.Z.Z.5.5.w.h.v.v.c.b.Z.Z.Z.Z.i.e.5.9.q.6.r.Z.Z.Z.Z.Z.Z.Z.Z.Z.Z.v.v.a.0.4.5.5.Z.Z.Z.Z.Z.Z.Z.",
"Z.Z.Z.Z.Z.Z.Z.Z.5.4.4.0.f.c.v.Z.Z.Z.Z.Z.l.d.i.9.Z.Z.Z.Z.Z.Z.Z.Z.Z.Z.c.c.j.u.5.5.5.5.Z.Z.Z.Z.Z.Z.Z.Z.",
"Z.Z.Z.Z.Z.Z.Z.Z.Z.6.6.4.7.a.x.c.c.Z.Z.Z.v.c.v.Z.Z.Z.Z.Z.Z.Z.Z.Z.b.c.g.u.9.5.5.6.5.Z.Z.Z.Z.Z.Z.Z.Z.Z.",
"Z.Z.Z.Z.Z.Z.Z.Z.Z.Z.Z.5.4.7.u.k.x.x.c.v.c.v.v.Z.Z.Z.Z.Z.v.v.v.x.g.y.6.4.5.5.6.Z.Z.Z.Z.Z.Z.Z.Z.Z.Z.Z.",
"Z.Z.Z.Z.Z.Z.Z.Z.Z.Z.Z.Z.5.5.3.5.w.a.h.j.x.c.x.c.b.v.v.c.c.x.k.e.6.4.5.6.6.6.Z.Z.Z.Z.Z.Z.Z.Z.Z.Z.Z.Z.",
"Z.Z.Z.Z.Z.Z.Z.Z.Z.Z.Z.Z.Z.Z.5.5.4.4.8.0.7.w.t.q.i.h.s.i.9.q.8.5.5.6.5.5.Z.Z.Z.Z.Z.Z.Z.Z.Z.Z.Z.Z.Z.Z.",
"Z.Z.Z.Z.Z.Z.Z.Z.Z.Z.Z.Z.Z.Z.Z.Z.5.5.5.5.5.4.4.5.3.5.7.5.5.4.5.5.5.6.Z.Z.Z.Z.Z.Z.Z.Z.Z.Z.Z.Z.Z.Z.Z.Z.",
"Z.Z.Z.Z.Z.Z.Z.Z.Z.Z.Z.Z.Z.Z.Z.Z.Z.Z.Z.6.5.6.5.5.5.5.6.6.6.5.Z.Z.Z.Z.Z.Z.Z.Z.Z.Z.Z.Z.Z.Z.Z.Z.Z.Z.Z.Z."
};
