/* XPM */
static char *_2[] = {
/* columns rows colors chars-per-pixel */
"50 50 161 2 ",
"   c #464646",
".  c gray28",
"X  c #484848",
"o  c #494949",
"O  c gray29",
"+  c #4C4C4C",
"@  c gray30",
"#  c #4E4E4E",
"$  c gray31",
"%  c #505050",
"&  c #515151",
"*  c gray32",
"=  c #535353",
"-  c gray33",
";  c #555555",
":  c #565656",
">  c gray34",
",  c #585858",
"<  c gray35",
"1  c #5A5A5A",
"2  c gray36",
"3  c #5D5D5D",
"4  c gray37",
"5  c #5F5F5F",
"6  c #606060",
"7  c gray38",
"8  c #626262",
"9  c gray39",
"0  c #646464",
"q  c #656565",
"w  c gray40",
"e  c #676767",
"r  c DimGray",
"t  c #6A6A6A",
"y  c gray42",
"u  c #6D6D6D",
"i  c gray43",
"p  c #6F6F6F",
"a  c #717171",
"s  c gray45",
"d  c #747474",
"f  c gray46",
"g  c #777777",
"h  c #797979",
"j  c gray48",
"k  c #7B7B7B",
"l  c #7C7C7C",
"z  c gray49",
"x  c #7E7E7E",
"c  c gray50",
"v  c #818181",
"b  c gray51",
"n  c #838383",
"m  c #848484",
"M  c gray52",
"N  c #868686",
"B  c gray53",
"V  c #888888",
"C  c #898989",
"Z  c gray54",
"A  c #8B8B8B",
"S  c gray55",
"D  c #8E8E8E",
"F  c gray56",
"G  c gray57",
"H  c #929292",
"J  c #939393",
"K  c #959595",
"L  c gray59",
"P  c #979797",
"I  c #989898",
"U  c #9A9A9A",
"Y  c #9B9B9B",
"T  c gray61",
"R  c #9D9D9D",
"E  c gray62",
"W  c #9F9F9F",
"Q  c #A0A0A0",
"!  c #A2A2A2",
"~  c gray64",
"^  c #A4A4A4",
"/  c #A5A5A5",
"(  c gray65",
")  c gray66",
"_  c #A9A9A9",
"`  c #ACACAC",
"'  c gray68",
"]  c #AEAEAE",
"[  c gray69",
"{  c #B1B1B1",
"}  c #B2B2B2",
"|  c #B4B4B4",
" . c gray71",
".. c #B6B6B6",
"X. c gray72",
"o. c #B9B9B9",
"O. c gray73",
"+. c #BBBBBB",
"@. c #BCBCBC",
"#. c gray74",
"$. c gray75",
"%. c #C0C0C0",
"&. c #C1C1C1",
"*. c gray76",
"=. c gray77",
"-. c #C5C5C5",
";. c #C6C6C6",
":. c gray78",
">. c #C8C8C8",
",. c #C9C9C9",
"<. c #CACACA",
"1. c #CBCBCB",
"2. c gray80",
"3. c #CDCDCD",
"4. c gray82",
"5. c #D2D2D2",
"6. c gray83",
"7. c #D5D5D5",
"8. c gray84",
"9. c #D7D7D7",
"0. c #D8D8D8",
"q. c gray85",
"w. c #DADADA",
"e. c gray86",
"r. c gainsboro",
"t. c #DDDDDD",
"y. c #DEDEDE",
"u. c #DFDFDF",
"i. c gray88",
"p. c #E1E1E1",
"a. c #E2E2E2",
"s. c gray89",
"d. c #E4E4E4",
"f. c gray90",
"g. c #E6E6E6",
"h. c #E7E7E7",
"j. c gray91",
"k. c #E9E9E9",
"l. c #EAEAEA",
"z. c gray92",
"x. c #ECECEC",
"c. c #EDEDED",
"v. c #EEEEEE",
"b. c #EFEFEF",
"n. c #F0F0F0",
"m. c #F1F1F1",
"M. c #F2F2F2",
"N. c #F3F3F3",
"B. c #F4F4F4",
"V. c #F5F5F5",
"C. c #F6F6F6",
"Z. c gray97",
"A. c #F8F8F8",
"S. c #F9F9F9",
"D. c #FAFAFA",
"F. c #FBFBFB",
"G. c gray99",
"H. c #FDFDFD",
"J. c #FEFEFE",
"K. c white",
"L. c None",
/* pixels */
"L.L.L.L.L.L.L.L.L.L.L.L.L.L.L.L.L.L.L.e.r.w.t.r.e.e.r.r.e.w.e.L.L.L.L.L.L.L.L.L.L.L.L.L.L.L.L.L.L.L.",
"L.L.L.L.L.L.L.L.L.L.L.L.L.L.L.L.t.y.i.a.s.d.f.f.f.f.f.d.a.i.t.r.r.e.L.L.L.L.L.L.L.L.L.L.L.L.L.L.L.L.",
"L.L.L.L.L.L.L.L.L.L.L.L.L.L.i.f.j.l.x.b.n.c.N.N.M.M.N.m.n.v.l.f.a.u.y.y.L.L.L.L.L.L.L.L.L.L.L.L.L.L.",
"L.L.L.L.L.L.L.L.L.L.L.e.d.d.C.M.y.y.0.q.5.2.l.V.C.V.V.V.B.B.B.M.n.v.c.z.g.j.d.L.L.L.L.L.L.L.L.L.L.L.",
"L.L.L.L.L.L.L.L.L.L.e.h.c.z.^ Z F J K L.L.L.L.L.L.L.L.L.L.L.B.B.B.N.C.C.S.H.N.c.L.L.L.L.L.L.L.L.L.L.",
"L.L.L.L.L.L.L.L.L.r.p.M.g.n   & L.L.L.L.L.L.L.L.L.L.L.L.L.L.L.L.B.V.B.V.F.K.K.A.V.L.L.L.L.L.L.L.L.L.",
"L.L.L.L.L.L.L.L.e.r.d.i.K , L.L.L.L.L.L.L.L.L.L.L.L.L.L.L.L.L.L.L.L.L.V.C.F.H.G.S.C.L.L.L.L.L.L.L.L.",
"L.L.L.L.L.L.L.e.r.a.l.-.i L.L.L.L.L.L.L.L.L.L.L.L.L.L.L.L.L.L.L.L.L.L.L.b.N.F.H.H.S.C.L.L.L.L.L.L.L.",
"L.L.L.L.L.L.t.e.u.B.A.,.f ; L.L.L.L.L.L.L.L.L.L.L.L.L.L.L.L.L.L.L.L.L.L.L.z.A.G.J.J.D.V.L.L.L.L.L.L.",
"L.L.L.L.L.w.r.a.c.V.V.d.U 1 = L.L.L.L.L.L.L.L.L.L.L.L.L.L.L.L.L.L.L.L.L.l.b.Z.F.H.H.G.Z.B.L.L.L.L.L.",
"L.L.L.L.t.e.u.B.A.L.L.V.w.V - * L.L.L.L.L.L.L.L.L.L.L.L.L.L.L.L.L.L.L.x.n.Z.G.H.J.G.J.J.A.b.L.L.L.L.",
"L.L.L.w.w.i.c.V.L.L.L.L.k.{ r * * L.L.L.L.L.L.L.L.L.L.L.L.L.L.L.L.L.m.M.Z.G.J.H.D.S.G.H.F.B.h.L.L.L.",
"L.L.L.e.t.g.N.C.L.L.L.L.L.*.z > * & L.L.L.L.L.L.L.L.L.L.L.L.L.L.L.m.N.A.G.J.H.F.L.C.A.G.H.S.m.L.L.L.",
"L.L.L.e.u.z.B.L.L.L.L.L.L.L.` y = & L.L.L.L.L.L.L.L.L.L.L.L.L.L.b.M.A.G.J.G.L.L.L.L.C.D.H.F.C.L.L.L.",
"L.L.t.r.x.S.L.L.L.L.L.L.L.L.L.*.1 $ & L.L.L.L.L.L.L.L.L.L.L.L.x.M.A.G.J.H.L.L.L.L.L.L.V.A.S.A.n.L.L.",
"L.L.r.s.B.N.L.L.L.L.L.L.L.L.L.e. .c 0 * L.L.L.L.L.L.L.L.L.L.i.v.A.G.J.H.L.L.L.L.L.L.L.B.B.V.V.m.L.L.",
"L.e.e.f.m.L.L.L.L.L.L.L.L.L.L.e.y.&.U y * L.L.L.L.L.L.L.L.8.g.C.G.J.H.L.L.L.L.L.L.L.L.L.B.B.M.k.y.L.",
"L.e.y.l.N.L.L.L.L.L.L.L.L.e.8.4.:.*.*.Y d 3 6 L.; - 6 d +.a.V.G.J.H.L.L.L.L.L.L.L.L.L.L.M.B.m.f.t.L.",
"L.e.i.b.C.L.L.L.L.L.L.L.r.6.} H k z _ r.,.! ! L g k ` $.c.G.J.H.H.L.L.L.L.L.L.L.L.L.L.L.V.B.M.f.r.L.",
"r.r.g.B.L.L.L.L.L.L.L.w.5.~ s 5 L.L.4 -.y.i.k.k.b.b.n.V.F.J.K.K.L.L.L.L.L.L.L.L.L.L.L.L.L.V.B.l.t.t.",
"w.e.g.N.L.L.L.L.L.L.w.5.T 9 > L.L.* 3 >.g.N.C.Z.C.V.Z.D.J.K.J.C.L.L.L.L.L.L.L.L.L.L.L.L.L.V.B.v.p.t.",
"r.t.j.N.L.L.L.L.L.w.5.U 5 = L.L.% : F w.m.Z.A.S.S.S.D.G.J.F.d.E L.L.L.L.L.L.L.L.L.L.L.L.L.C.B.n.s.r.",
"r.t.k.N.L.L.L.L.r.5.U 4 & L.L.L.= s *.v.S.F.G.H.H.H.H.J.F.b.[ 5 L.L.L.L.L.L.L.L.L.L.L.L.L.C.V.N.g.r.",
"e.t.k.N.L.L.L.r.7.E 4 & L.L.L.L.$ v x.F.J.K.K.K.K.K.K.H.Z.V.^ $ L.L.L.L.L.L.L.L.L.L.L.L.L.B.V.V.z.y.",
"e.t.k.B.L.L.n.f.$.s - L.L.L.L.& w ..m.S.H.K.K.K.K.K.J.F.C.h./ 5 L.L.L.L.L.L.L.L.L.L.L.L.L.N.B.B.v.p.",
"e.t.l.N.L.L.N.b.o.t L.L.L.L.L.* : 4.D.H.K.K.K.K.K.K.K.J.A.M.%.6 L.L.L.L.L.L.L.L.L.L.L.L.L.m.B.B.x.y.",
"r.t.k.B.L.L.V.x.' 6 L.L.L.L.L.> m e.B.D.J.K.K.K.K.K.K.G.V.z.=.l L.L.L.L.L.L.L.L.L.L.L.L.L.z.M.B.z.u.",
"e.t.k.N.L.L.L.a.( 6 L.L.L.L.L.< I p.B.S.H.J.K.K.K.K.J.F.V.k.w.~ 8 L.L.L.L.L.L.L.L.L.L.L.L.l.M.B.x.u.",
"w.t.k.B.L.L.L.q.I * L.L.L.L.L.1 *.v.Z.Z.H.K.K.K.K.K.K.A.B.f.w.@.u = L.L.L.L.L.L.L.L.L.L.L.x.N.B.x.y.",
"e.r.h.N.L.L.L.3.N % = L.L.L.L.L.#.u.m.Z.Z.H.H.J.J.H.A.Z.m.i.r.u.F % = L.L.L.L.L.L.L.L.L.L.z.N.B.z.u.",
"e.t.d.M.V.L.L.L.A , & L.L.L.L.B =.w.s.b.C.C.C.Z.C.C.N.b.d.u.w.w.<.C - * L.L.L.L.L.L.L.L.L.V.B.B.z.i.",
"L.e.p.n.V.L.L.L.~ y * & L.L.> P 5.r.t.s.c.B.B.N.M.m.x.l.z.9.;.,.0.,.N - * L.L.L.L.L.L.L.L.V.V.M.j.L.",
"L.e.u.x.V.V.L.L.,.) p = > 2 S 2.r.r.0.7.4.t.h.h.h.q.>.X...T V P ;.q.,.N - * L.L.L.L.L.L.N.V.C.N.h.L.",
"L.e.r.f.C.Z.L.L.j.f.:.e k G p.u.d.3...D z l W R U M a = = L.  2 X.e.y.p.b X = L.L.L.L.L.V.C.V.n.f.L.",
"L.L.r.p.m.C.C.C.b.t.f.6.6.u.y.d.;.8 L.. $ % % o - @ L.L.L.+ ; 5 +.u.r.y.p.b X = L.L.L.L.C.Z.A.v.L.L.",
"L.L.e.t.h.N.B.V.n.d.y.e.w.e.e.*.x > L.L.L.L.L.L.L.L.L.L.% y F ` 5.L.q.e.r.,.N - % L.L.b.V.C.N.l.L.L.",
"L.L.L.e.t.l.B.B.V.v.f.y.L.e.0.] q L.L.L.L.L.L.L.L.L.L.& 6 P <.9.L.L.L.L.t.i.3.C = 3 W h.C.V.m.L.L.L.",
"L.L.L.e.e.y.x.V.V.L.L.L.L.r.9.` 7 % L.L.L.L.L.L.L.L.% 2 j | 9.L.L.L.L.L.L.z.c.w.Q J <.C.C.N.v.L.L.L.",
"L.L.L.L.r.r.f.B.C.L.L.L.L.t.y.<.1 # % = = = = = & + , l | d.L.L.L.L.L.L.L.L.A.S.S.x.J.C.A.x.L.L.L.L.",
"L.L.L.L.r.r.y.n.C.C.L.L.L.b.u.d.*.h u O @ - $ @ 6 r } >.s.L.L.L.L.L.L.L.L.L.L.L.Z.N.m.m.x.a.L.L.L.L.",
"L.L.L.L.L.r.e.i.x.N.V.L.L.M.l.i.e.1.*.} O.| ;.@.*.4.i.y.L.L.L.L.L.L.L.L.L.L.L.S.M.x.y.i.u.L.L.L.L.L.",
"L.L.L.L.L.L.e.e.i.z.M.V.V.V.M.v.p.r.r.q.w.8.t.r.t.i.u.L.L.L.L.L.L.L.L.L.L.N.N.z.s.u.e.r.L.L.L.L.L.L.",
"L.L.L.L.L.L.L.r.e.u.k.n.B.V.V.B.L.L.L.L.L.L.L.L.L.L.L.L.L.L.L.L.L.L.L.L.N.N.l.y.r.e.e.L.L.L.L.L.L.L.",
"L.L.L.L.L.L.L.L.t.e.y.d.c.C.C.A.L.L.L.L.L.L.L.L.L.L.L.L.L.L.L.L.L.L.L.C.v.l.e.r.t.t.L.L.L.L.L.L.L.L.",
"L.L.L.L.L.L.L.L.L.w.r.r.y.f.z.n.V.B.L.L.L.L.L.L.L.L.L.L.L.L.L.L.V.M.c.s.y.t.r.e.e.L.L.L.L.L.L.L.L.L.",
"L.L.L.L.L.L.L.L.L.L.e.e.e.r.y.d.v.M.B.B.B.V.L.L.L.L.L.N.B.B.M.M.c.g.p.r.e.w.e.r.L.L.L.L.L.L.L.L.L.L.",
"L.L.L.L.L.L.L.L.L.L.L.L.t.r.r.w.p.k.v.c.V.V.C.B.B.B.M.M.M.n.k.g.t.r.r.r.r.r.L.L.L.L.L.L.L.L.L.L.L.L.",
"L.L.L.L.L.L.L.L.L.L.L.L.L.L.e.e.r.t.y.t.a.f.s.a.p.i.i.i.i.u.r.r.r.e.r.r.L.L.L.L.L.L.L.L.L.L.L.L.L.L.",
"L.L.L.L.L.L.L.L.L.L.L.L.L.L.L.L.e.e.e.e.e.r.e.r.e.e.r.e.r.e.e.e.w.w.L.L.L.L.L.L.L.L.L.L.L.L.L.L.L.L.",
"L.L.L.L.L.L.L.L.L.L.L.L.L.L.L.L.L.L.L.L.r.r.t.t.r.r.r.r.t.r.L.L.L.L.L.L.L.L.L.L.L.L.L.L.L.L.L.L.L.L."
};
