/* XPM */
static char *_3[] = {
/* columns rows colors chars-per-pixel */
"50 50 146 2 ",
"   c #444444",
".  c #464646",
"X  c gray28",
"o  c #484848",
"O  c gray29",
"+  c #4B4B4B",
"@  c #4C4C4C",
"#  c gray30",
"$  c #4E4E4E",
"%  c gray31",
"&  c #505050",
"*  c #515151",
"=  c gray32",
"-  c #535353",
";  c gray33",
":  c #555555",
">  c #565656",
",  c gray34",
"<  c #585858",
"1  c #5A5A5A",
"2  c gray36",
"3  c #5D5D5D",
"4  c #5F5F5F",
"5  c #606060",
"6  c gray38",
"7  c gray39",
"8  c #646464",
"9  c gray40",
"0  c #676767",
"q  c #6A6A6A",
"w  c gray42",
"e  c #6C6C6C",
"r  c #6D6D6D",
"t  c gray43",
"y  c gray44",
"u  c #727272",
"i  c #777777",
"p  c gray47",
"a  c #797979",
"s  c #7C7C7C",
"d  c #7E7E7E",
"f  c gray51",
"g  c #838383",
"h  c #868686",
"j  c gray53",
"k  c #888888",
"l  c #8B8B8B",
"z  c gray55",
"x  c #8E8E8E",
"c  c gray56",
"v  c #909090",
"b  c #929292",
"n  c #939393",
"m  c gray58",
"M  c gray59",
"N  c #979797",
"B  c #989898",
"V  c gray60",
"C  c gray61",
"Z  c #9F9F9F",
"A  c #A0A0A0",
"S  c gray63",
"D  c gray64",
"F  c #A4A4A4",
"G  c #A5A5A5",
"H  c gray65",
"J  c #A7A7A7",
"K  c gray66",
"L  c #A9A9A9",
"P  c #AAAAAA",
"I  c #ACACAC",
"U  c gray68",
"Y  c #B1B1B1",
"T  c #B2B2B2",
"R  c gray70",
"E  c #B4B4B4",
"W  c gray71",
"Q  c #B7B7B7",
"!  c gray72",
"~  c #B9B9B9",
"^  c gray73",
"/  c #BBBBBB",
"(  c #BCBCBC",
")  c gray74",
"_  c gray",
"`  c gray75",
"'  c #C0C0C0",
"]  c #C1C1C1",
"[  c #C3C3C3",
"{  c gray77",
"}  c gray79",
"|  c #CACACA",
" . c #CBCBCB",
".. c gray80",
"X. c #CDCDCD",
"o. c #CECECE",
"O. c gray81",
"+. c #D0D0D0",
"@. c gray82",
"#. c #D2D2D2",
"$. c LightGray",
"%. c gray83",
"&. c #D5D5D5",
"*. c gray84",
"=. c #D7D7D7",
"-. c #D8D8D8",
";. c gray85",
":. c #DADADA",
">. c gray86",
",. c gainsboro",
"<. c #DDDDDD",
"1. c gray87",
"2. c #DFDFDF",
"3. c gray88",
"4. c #E1E1E1",
"5. c #E2E2E2",
"6. c gray89",
"7. c #E4E4E4",
"8. c #E5E5E5",
"9. c #E6E6E6",
"0. c #E7E7E7",
"q. c #E8E8E8",
"w. c #E9E9E9",
"e. c #EAEAEA",
"r. c gray92",
"t. c #ECECEC",
"y. c gray93",
"u. c #EEEEEE",
"i. c #EFEFEF",
"p. c #F0F0F0",
"a. c #F1F1F1",
"s. c #F2F2F2",
"d. c #F3F3F3",
"f. c #F4F4F4",
"g. c gray96",
"h. c #F6F6F6",
"j. c gray97",
"k. c #F8F8F8",
"l. c #F9F9F9",
"z. c #FAFAFA",
"x. c #FBFBFB",
"c. c gray99",
"v. c #FDFDFD",
"b. c #FEFEFE",
"n. c white",
"m. c None",
/* pixels */
"m.m.m.m.m.m.m.m.m.m.m.m.m.m.m.m.m.m.m.>.2.9.4.7.9.4.2.,.<.,.<.m.m.m.m.m.m.m.m.m.m.m.m.m.m.m.m.m.m.m.",
"m.m.m.m.m.m.m.m.m.m.m.m.m.m.m.m.1.,.<.q.a.t.a.0.f.g.s.p.q.8.3.<.>.<.m.m.m.m.m.m.m.m.m.m.m.m.m.m.m.m.",
"m.m.m.m.m.m.m.m.m.m.m.m.m.m.<.,.>.>.6.x.0.F r y l / 2.r.k.x.s.e.7.,.,.<.m.m.m.m.m.m.m.m.m.m.m.m.m.m.",
"m.m.m.m.m.m.m.m.m.m.m.m.<.,.>.,.8.p.d.^ 1   m.* @ m.t m.R *.u.z.f.u.8.2.>.,.,.m.m.m.m.m.m.m.m.m.m.m.",
"m.m.m.m.m.m.m.m.m.m.,.,.>.2.e.g.k.k.0.k m.m.m.m.m.m.m.m.m.m.m.j.j.j.h.a.9.2.<.,.m.m.m.m.m.m.m.m.m.m.",
"m.m.m.m.m.m.m.m.m.<.<.2.y.j.k.m.m.h.l.u - m.m.m.m.m.m.m.m.m.m.m.m.j.j.j.g.u.7.>.,.m.m.m.m.m.m.m.m.m.",
"m.m.m.m.m.m.m.m.,.>.,.q.g.h.m.m.m.j.n.K @ m.m.m.m.m.m.m.m.m.m.m.m.m.m.j.h.h.d.5.<.,.m.m.m.m.m.m.m.m.",
"m.m.m.m.m.m.m.,.,.8.a.k.m.m.m.m.m.m.k.@.= - m.m.m.m.m.m.m.m.m.m.m.m.m.m.m.h.h.f.q.1.>.m.m.m.m.m.m.m.",
"m.m.m.m.m.m.,.>.5.s.j.m.m.m.m.m.m.m.s.~ 7 * m.m.m.m.m.m.m.m.m.m.m.m.m.m.m.m.h.g.f.u.5.<.m.m.m.m.m.m.",
"m.m.m.m.m.,.,.4.d.k.m.m.m.m.m.m.m.m.m.Q 3 = - m.m.m.m.m.m.m.m.m.m.m.m.m.m.m.m.h.g.h.d.w.7.m.m.m.m.m.",
"m.m.m.m.,.,.,.t.h.m.m.m.m.m.m.m.m.m.m.2.4 = - m.m.m.m.m.m.m.m.m.m.m.m.m.m.m.m.m.g.g.g.z.j.0.m.m.m.m.",
"m.m.m.<.,.<.y.l.m.m.m.m.m.m.m.m.m.m.m.m.c + - m.m.m.m.m.m.m.m.m.m.m.m.m.m.m.m.m.m.g.j.v.n.d.m.m.m.m.",
"m.m.m.<.,.6.g.j.m.m.m.m.m.m.m.m.m.m.m.m.+.; - m.m.m.m.m.m.m.m.m.m.m.m.m.m.m.m.m.m.f.h.v.n.c.f.m.m.m.",
"m.m.m.,.,.t.h.m.m.m.m.m.m.m.m.m.m.<.2.>.8.x 2 % m.m.m.m.m.m.m.m.m.m.m.m.m.m.m.m.m.m.0.z.b.b.k.m.m.m.",
"m.m.,.>.6.d.m.m.m.m.m.m.m.m.<.1.7.3.$.7.q.X.z % m.m.m.m.m.m.m.m.m.m.m.m.m.m.m.m.m.m.7.g.v.n.x.h.m.m.",
"m.m.,.,.q.j.m.m.m.m.m.<.,.4.9.&.H j f d V >.A 3 $ m.m.m.m.m.m.m.m.m.m.m.m.m.m.m.t.t.p.j.c.b.b.j.m.m.",
"m.<.,.3.s.j.m.m.m.,.<.7.6.] g < * > & m.m.Y ..h @ m.m.m.m.m.m.m.m.m.m.m.m.m.a.s.g.z.c.v.v.b.n.z.h.m.",
"m.<.>.0.h.m.m.m.a.3.>.L q + @ - = m.m.m.= f <.O.h 1 m.m.m.m.m.m.m.m.m.y.p.f.k.x.v.b.n.n.n.v.b.v.g.m.",
"m.,.<.y.j.m.m.j.j.;.f $ % - m.m.m.m.- # : T <.2.>.! j = + - m.m.m.>.e.f.l.c.v.b.n.n.b.v.x.x.b.b.h.m.",
",.,.8.g.k.m.m.j.h.U , = m.m.m.m.m.= * t ~ r.u.d.f.p.e.P I f C #.1.a.x.v.b.b.b.n.b.m.m.m.m.k.v.b.z.u.",
"<.,.q.j.m.m.m.e.a.y m.m.m.m.m.m.m.$ 0 ' i.h.l.k.j.j.h.l.p.t.s.j.v.n.b.n.b.b.m.m.m.m.m.m.m.h.c.n.v.t.",
",.<.u.j.m.m.m.8.H 1 m.m.m.m.m.m.- e +.x.x.v.b.b.v.z.j.h.k.z.v.b.n.n.b.n.m.m.m.m.m.m.m.m.m.g.z.b.b.d.",
"<.1.a.j.m.m.m.} 0 % m.m.m.m.m.m.# S p.j.v.n.n.n.n.n.v.x.c.b.n.n.n.n.m.m.m.m.m.m.m.m.m.m.m.m.j.x.v.j.",
",.4.d.j.m.m.m.J 1 = m.m.m.m.m.* c p.l.c.n.n.n.n.n.n.n.n.n.b.n.n.d.m.m.m.m.m.m.m.m.m.m.m.m.h.g.h.k.d.",
"<.1.f.j.m.m.m.b % - m.m.m.m.m.a $.h.j.v.n.n.n.n.n.n.n.b.c.l.u.D 3 m.m.m.m.m.m.m.m.m.m.m.m.h.g.g.g.a.",
",.4.a.j.m.m.m.Q & - m.m.m.m.m.I 0.j.j.b.n.n.n.n.n.n.n.c.j.h.' 3 m.m.m.m.m.m.m.m.m.m.m.m.m.m.g.g.d.w.",
",.2.d.h.j.j.q.2.p + m.m.m.m.M :.2.h.h.v.n.n.n.n.n.n.n.x.h.r.c % m.m.m.m.m.m.m.m.m.m.m.m.m.g.g.h.w.,.",
"<.>.p.j.h.g.0.6.) ; , X > v o.<.1.i.j.z.n.n.n.n.n.n.b.k.g.<.i m.m.m.m.m.m.m.m.m.m.m.m.m.m.h.g.f.5.,.",
"<.>.8.j.h.g.9.,.3.( N G ;.8.2.,.<.0.j.h.z.v.n.n.n.n.c.k.i.} 8 m.m.m.m.m.m.m.m.m.m.m.m.m.m.g.g.g.2.,.",
",.,.1.g.h.k.r.3.<.,.2.6.<.2.6.,.6.3.a.h.h.k.l.x.x.k.g.u.1.<.6 m.m.m.m.m.m.m.m.m.m.m.m.m.m.h.h.a.3.,.",
"<.,.5.s.j.m.m.e.,.<.<.2.7.| m A T Q 2.z.f.g.h.h.g.j.a.6.<.#.p @ m.m.m.m.m.m.m.m.m.m.m.m.m.h.h.p.1.,.",
"m.,.2.d.h.m.m.m.m.m.,.&.n - m.m.$ 5 s @.s.s.l.y.a.9.,.>.<.#.e - m.m.m.m.m.m.m.m.m.m.m.m.h.j.j.r.<.m.",
"m.<.>.i.h.m.m.m.m.<.2.{ 7 - m.m.m.$ # w h ^ [ >.q.c.p.<.,.7.s & m.m.m.m.m.m.m.m.m.m.m.m.h.h.j.e.,.m.",
"m.,.>.7.g.j.m.m.m.<.2.M - m.m.m.m.m.m.m.% - * 5 i S Z W  .8.W + - m.m.m.m.m.m.m.m.m.m.m.g.h.h.0.<.m.",
"m.m.,.,.i.g.m.m.g.8.5.L . - - m.m.m.m.m.m.m.m.m.$ * m.1 I <.2.4 & m.m.m.m.m.m.m.m.m.m.t.g.h.i.2.m.m.",
"m.m.,.>.8.d.j.j.g.t.,.>.i < * - - m.m.m.m.m.m.m.m.# * - H -.9.V o m.m.m.m.m.m.m.m.m.m.a.j.g.0.,.m.m.",
"m.m.m.,.1.e.h.j.h.g.5.4.+.B ; + - - - m.m.m.- % & r t u ` >.1.$.* - m.m.m.m.m.m.m.m.q.j.h.f.3.m.m.m.",
"m.m.m.<.,.1.y.j.j.j.m.m.3.2.@.f , > % = $ $ : 6 c %...<.9.<.,.9.d + m.m.m.m.m.m.m.m.s.h.h.w.,.m.m.m.",
"m.m.m.m.<.>.3.a.k.m.m.m.m.m.5.:.@.E s 9 w f f F O.2.m.m.m.m.,.4._ O - m.m.m.m.m.g.h.h.h.s.5.>.m.m.m.",
"m.m.m.m.m.,.>.5.a.j.m.m.m.m.m.m.7.,.=.O.,.+.:.0.m.m.m.m.m.m.m.,.5.0 % m.m.m.m.m.g.h.h.h.e.2.m.m.m.m.",
"m.m.m.m.m.<.,.>.6.h.j.m.m.m.m.m.m.m.0.8.<.3.m.m.m.m.m.m.m.m.m.5.q.D o - m.m.m.g.h.h.k.p.4.m.m.m.m.m.",
"m.m.m.m.m.m.,.,.>.y.g.j.m.m.m.m.m.m.m.m.m.m.m.m.m.m.m.m.m.m.m.m.p.6.- = m.m.z.j.h.h.a.7.m.m.m.m.m.m.",
"m.m.m.m.m.m.m.<.>.2.q.p.j.j.m.m.m.m.m.m.m.m.m.m.m.m.m.m.m.m.m.m.j.n.S 3 t -.k.h.j.h.y.m.m.m.m.m.m.m.",
"m.m.m.m.m.m.m.m.,.,.,.1.a.h.j.j.m.m.m.m.m.m.m.m.m.m.m.m.m.m.m.m.m.z.u.-.h.c.h.h.d.q.m.m.m.m.m.m.m.m.",
"m.m.m.m.m.m.m.m.m.<.,.>.3.0.t.s.h.k.m.m.m.m.m.m.m.m.m.m.m.m.m.m.m.j.g.l.j.j.k.g.i.m.m.m.m.m.m.m.m.m.",
"m.m.m.m.m.m.m.m.m.m.m.<.<.,.,.<.0.y.d.h.k.j.m.m.m.m.m.m.j.j.k.j.s.i.t.w.a.f.e.3.m.m.m.m.m.m.m.m.m.m.",
"m.m.m.m.m.m.m.m.m.m.m.m.<.<.,.,.>.<.3.w.u.f.d.j.f.f.g.p.u.d.e.2.<.2.,.>.3.5.m.m.m.m.m.m.m.m.m.m.m.m.",
"m.m.m.m.m.m.m.m.m.m.m.m.m.m.<.,.,.<.,.>.1.<.5.5.3.7.2.>.1.,.>.,.,.,.,.<.m.m.m.m.m.m.m.m.m.m.m.m.m.m.",
"m.m.m.m.m.m.m.m.m.m.m.m.m.m.m.m.<.<.,.<.,.,.<.,.,.,.,.<.,.,.,.<.,.<.m.m.m.m.m.m.m.m.m.m.m.m.m.m.m.m.",
"m.m.m.m.m.m.m.m.m.m.m.m.m.m.m.m.m.m.m.m.<.,.<.<.<.,.,.<.<.<.<.m.m.m.m.m.m.m.m.m.m.m.m.m.m.m.m.m.m.m."
};
