/* XPM */
static char *_4[] = {
/* columns rows colors chars-per-pixel */
"50 50 111 2 ",
"   c #535353",
".  c gray33",
"X  c #555555",
"o  c #565656",
"O  c gray34",
"+  c #585858",
"@  c gray35",
"#  c #5A5A5A",
"$  c #5B5B5B",
"%  c gray36",
"&  c #5D5D5D",
"*  c #5F5F5F",
"=  c #626262",
"-  c #646464",
";  c #656565",
":  c gray40",
">  c #676767",
",  c #686868",
"<  c #6D6D6D",
"1  c gray44",
"2  c #727272",
"3  c gray45",
"4  c #767676",
"5  c #777777",
"6  c #797979",
"7  c gray48",
"8  c #7B7B7B",
"9  c #7C7C7C",
"0  c gray49",
"q  c #818181",
"w  c gray51",
"e  c #838383",
"r  c #888888",
"t  c gray54",
"y  c #8B8B8B",
"u  c gray55",
"i  c #8E8E8E",
"p  c gray56",
"a  c #909090",
"s  c #939393",
"d  c #979797",
"f  c #9A9A9A",
"g  c #9B9B9B",
"h  c #9D9D9D",
"j  c #9F9F9F",
"k  c gray63",
"l  c #A4A4A4",
"z  c #A5A5A5",
"x  c gray65",
"c  c #A9A9A9",
"v  c #AAAAAA",
"b  c #ACACAC",
"n  c #AFAFAF",
"m  c gray70",
"M  c #B7B7B7",
"N  c #B9B9B9",
"B  c gray73",
"V  c #BBBBBB",
"C  c gray75",
"Z  c #C0C0C0",
"A  c #C1C1C1",
"S  c #C3C3C3",
"D  c #C6C6C6",
"F  c gray78",
"G  c #CACACA",
"H  c #CDCDCD",
"J  c #CECECE",
"K  c gray81",
"L  c #D0D0D0",
"P  c gray82",
"I  c #D2D2D2",
"U  c #D5D5D5",
"Y  c gray84",
"T  c #D7D7D7",
"R  c gainsboro",
"E  c #DDDDDD",
"W  c gray87",
"Q  c #DFDFDF",
"!  c gray88",
"~  c #E1E1E1",
"^  c #E2E2E2",
"/  c gray89",
"(  c #E4E4E4",
")  c gray90",
"_  c #E6E6E6",
"`  c #E7E7E7",
"'  c #E8E8E8",
"]  c #E9E9E9",
"[  c #EAEAEA",
"{  c gray92",
"}  c #ECECEC",
"|  c gray93",
" . c #EEEEEE",
".. c #EFEFEF",
"X. c gray94",
"o. c #F1F1F1",
"O. c gray95",
"+. c #F3F3F3",
"@. c #F4F4F4",
"#. c #F5F5F5",
"$. c #F6F6F6",
"%. c #F7F7F7",
"&. c #F8F8F8",
"*. c #F9F9F9",
"=. c gray98",
"-. c #FBFBFB",
";. c gray99",
":. c #FDFDFD",
">. c #FEFEFE",
",. c #FFFFFF",
"<. c None",
/* pixels */
"<.<.<.<.<.<.<.<.<.<.<.<.<.<.<.<.<.<.<.R R R R R R R R R R R R <.<.<.<.<.<.<.<.<.<.<.<.<.<.<.<.<.<.<.",
"<.<.<.<.<.<.<.<.<.<.<.<.<.<.<.<.R R R R R R R R R R R E ' X. ._ W R <.<.<.<.<.<.<.<.<.<.<.<.<.<.<.<.",
"<.<.<.<.<.<.<.<.<.<.<.<.<.R R R R R R ^ ..#.#.#.#.$.#.#.#._ Y _ @. .^ R R <.<.<.<.<.<.<.<.<.<.<.<.<.",
"<.<.<.<.<.<.<.<.<.<.<.<.R R R R ' @.#.$.$.$.$.<.<.$.$.A &     X u _ #.] W R <.<.<.<.<.<.<.<.<.<.<.<.",
"<.<.<.<.<.<.<.<.<.<.R R R R ( +.$.$.<.<.<.<.<.<.<.$.$.2 <.<.<.<.  < _ $.O.^ R R <.<.<.<.<.<.<.<.<.<.",
"<.<.<.<.<.<.<.<.<.R R R / @.$.$.<.<.<.<.<.<.<.<.<.$.$.*   <.<.<.<.<.1 H $.#.` R R <.<.<.<.<.<.<.<.<.",
"<.<.<.<.<.<.<.<.R R R ` #.$.<.<.<.<.<.<.<.<.<.<.<.$._ +   <.<.<.<.<.<.<.m $.$.] R R <.<.<.<.<.<.<.<.",
"<.<.<.<.<.<.<.R R R [ #.$.<.<.<.<.<.<.<.<.<.<.<.<.] n     <.<.<.<.<.<.<.<.h $.$.[ R R <.<.<.<.<.<.<.",
"<.<.<.<.<.<.R R R ` #.$.<.<.<.<.<.<.<.<.<.<.<.<.<.R 5     <.<.<.<.<.<.<.<.<.$.$.$.] R R <.<.<.<.<.<.",
"<.<.<.<.<.R R R [ #.<.<.<.<.<.<.<.<.<.<.<.<.<.<.<.R &     <.<.<.<.<.<.<.<.<.<.$.$.$.] R R <.<.<.<.<.",
"<.<.<.<.R R R ` #.$.<.<.<.<.<.<.<.<.<.<.<.<.<.<.<.R       <.<.<.<.<.<.<.<.<.<.<.$.$.$._ R R <.<.<.<.",
"<.<.<.<.R R [ #.$.<.<.<.O.R R R R R R R R R R <.<.R       <.<.<.<.<.<.<.<.<.<.<.<.$.$.@.^ R <.<.<.<.",
"<.<.<.R R ^ #.$.<.<.<.$.O.R R R R R R R R R R R R R %   <.<.<.<.<.<.<.<.<.<.<.<.<.<.$.$...R R <.<.<.",
"<.<.<.R W O.$.<.<.<.#.$.@.b ; o     X @ * 4 i G ' R 8   <.<.<.<.<.<.<.<.<.<.<.<.<.<.<.#.#.^ R R <.<.",
"<.<.R R [ $.$.<.<.<.^ O.e                     . f R j   <.<.<.<.<.<.<.<.<.<.<.<.<.<.<.#.#.O.R R <.<.",
"<.<.R W @.$.<.<.<.( L w   <.<.<.<.<.<.<.<.<.<.<.<.R a   <.<.<.<.<.<.<.<.<.<.<.<.<.<.<.<.#.#._ R <.<.",
"<.R R _ $.$.<.<.<.Z ,   <.<.<.<.<.<.<.<.<.      , R z   <.<.<.<.<.<.<.<.<.<.<.<.<.<.<.<.#.#.@.^ R <.",
"<.R R X.$.$.<.<.P 3     <.<.<.<.<.<.<.        > N R J = <.<.<.<.<.<.<.<.<.<.<.<.<.<.<.<.#.#.#.o.W <.",
"<.R R #.$.$.<.<.C     <.<.<.<.<.<.<.    : z I ) _ ! R N X <.<.<.<.<.<.<.<.<.<.<.<.<.<.<.<.#.#.*. .<.",
"<.R R #.$.$.@.^ L X   <.<.<.<.<.<.  O c X.#.$.$.$.$.+.^ l     <.<.<.<.<.<.<.<.<.<.<.<.<.<.#.*.>.:.` ",
"R R W $.$.$.} R ~     <.<.<.<.<.. t R #.$.*.;.:.;.&.$.$.[ 7     <.<.<.<.<.<.<.<.<.<.<.<.<.o.-.>.>.| ",
"R R ` $.$.$.) R W ;   <.<.<.<.* S ' #.$.;.,.,.,.,.>.*.$.#.} V >   <.<.<.<.<.<.<.<.<.<.<.<.W =.>.>.+.",
"R R X.$.<.<.` R R S 6 O . $ y J R @.$.*.,.,.,.,.,.,.>.*.#.#. .! Y U T Q [  .X.o.o.X. .} [ | =.>.>.$.",
"R R +.$.<.<.<.R R R R R R R R R W $.$.>.,.,.,.,.,.,.,.>.=.=.=.=.=.=.=.=.=.=.=.=.=.=.=.=.*.%.-.>.>.%.",
"R R +.$.<.<.<.<.<.R R R R R R R ^ $.$.>.,.,.,.,.,.,.,.,.>.>.>.>.>.>.>.>.>.>.>.>.>.>.>.>.>.>.:.>.>.%.",
"R R o.$.<.<.<.<.R R R R R R R R / $.$.>.,.,.,.,.,.,.,.>.>.>.>.>.>.>.>.>.>.>.>.>.>.>.>.>.>.>.>.>.>.%.",
"R R  .$.<.<.<.R R R d * # , M ^ W $.$.=.,.,.,.,.,.,.,.=.%.%.$.@.O.<.<.<.<.<.<.<.<.<.<.<.=.=.-.>.>.$.",
"R R | $.<.$.o.R R a     <.<.  9 L O.$.$.-.,.,.,.,.,.;.$.#.^ p   <.<.<.<.<.<.<.<.<.<.<.<.<.#.-.>.:.@.",
"R R _ $.$.$.| R R o   <.<.<.<.  0  .+.$.$.=.>.,.,.;.$.#.( p   <.<.<.<.<.<.<.<.<.<.<.<.<.<.#.-.>.:.+.",
"R R W #.$.$.o.R R #     <.<.<.<.  x o.X.#.$.$.%.$.$.+.( m X <.<.<.<.<.<.<.<.<.<.<.<.<.<.<.#.;.,.:. .",
"<.R R o.$.$.#.R R j     <.<.<.<.<.  g $...} +.#.+.[ W R - <.<.<.<.<.<.<.<.<.<.<.<.<.<.<.<.#.;.>.;.' ",
"<.R R ` $.<.<.<.R ( $     <.<.<.<.<.  - A @.] W R R R J   <.<.<.<.<.<.<.<.<.<.<.<.<.<.<.#.#.*.>.=.<.",
"<.R R W #.$.<.<.<.R K +     <.<.<.<.<.    s $...Q R R a   <.<.<.<.<.<.<.<.<.<.<.<.<.<.<.#.#.#.*.+.<.",
"<.R R R @.$.<.<.<.<.W B @     <.<.<.<.<.<.  7 b I R R -   <.<.<.<.<.<.<.<.<.<.<.<.<.<.<.#.#.#.#. .<.",
"<.<.R R  .$.$.<.<.<.<.R E *           <.<.<.<.+ c R R $   <.<.<.<.<.<.<.<.<.<.<.<.<.<.#.#.#.+. .<.<.",
"<.<.R R ^ @.$.<.<.<.<._ R D 7 o               . v R R .   <.<.<.<.<.<.<.<.<.<.<.<.<.<.#.#.+.^ R <.<.",
"<.<.<.R R / #.$.<.<.<.<.} R R J z q 7 y F l ; r G R R     <.<.<.<.<.<.<.<.<.<.<.<.<.#.#.$.^ R R <.<.",
"<.<.<.R R R o.$.$.<.<.<.<...W R R R R R R R R R R R R     <.<.<.<.<.<.<.<.<.<.<.<.$.$.$...R R <.<.<.",
"<.<.<.<.R R ^ +.$.<.<.<.<.<.<.<.<.<.<.<.<.<.<.<.R R R     <.<.<.<.<.<.<.<.<.<.<.#.$.$.@.^ R <.<.<.<.",
"<.<.<.<.<.R R W | $.<.<.<.<.<.<.<.<.<.<.<.<.<.<.R R R     <.<.<.<.<.<.<.<.<.<.<.#.$.$.] R R <.<.<.<.",
"<.<.<.<.<.R R R R } $.<.<.<.<.<.<.<.<.<.<.<.<.<.<.R R     <.<.<.<.<.<.<.<.<.) @.$.$.+.W R <.<.<.<.<.",
"<.<.<.<.<.<.R R R R [ #.$.<.<.<.<.<.<.<.<.<.<.<.<.E R     <.<.<.<.<.<.<.<.' @.$.$.#.` R <.<.<.<.<.<.",
"<.<.<.<.<.<.<.R R R R [ #.$.<.<.<.<.<.<.<.<.<.<.<.' R     <.<.<.<.<.<.<._ @.$.$.O.^ R <.<.<.<.<.<.<.",
"<.<.<.<.<.<.<.<.R R R R ` @.$.$.<.<.<.<.<.<.<.<.<.+._     <.<.<.<.<.#.#.#.$.$.@.^ R <.<.<.<.<.<.<.<.",
"<.<.<.<.<.<.<.<.<.R R R R W } #.$.$.<.<.<.<.<.<.<.$.$.    <.<.<.@.#.$.$.$.$.O.^ R <.<.<.<.<.<.<.<.<.",
"<.<.<.<.<.<.<.<.<.<.<.R R R R W ` O.#.#.$.$.<.<.<.$.$.l   k $.$.$.$.$.$.$.X.^ R <.<.<.<.<.<.<.<.<.<.",
"<.<.<.<.<.<.<.<.<.<.<.<.R R R R R R R ^ X.#.#.$.$.$.$.$.$.$.$.$.$.$.$.$.{ W <.<.<.<.<.<.<.<.<.<.<.<.",
"<.<.<.<.<.<.<.<.<.<.<.<.<.<.R R R R R R R R R W _ |  .#.$.$.$.$.$.$...^ R <.<.<.<.<.<.<.<.<.<.<.<.<.",
"<.<.<.<.<.<.<.<.<.<.<.<.<.<.<.<.R R R R R R R R R R R { $.$.$.@. ./ <.<.<.<.<.<.<.<.<.<.<.<.<.<.<.<.",
"<.<.<.<.<.<.<.<.<.<.<.<.<.<.<.<.<.<.<.<.R R R R R R R W / / Q <.<.<.<.<.<.<.<.<.<.<.<.<.<.<.<.<.<.<."
};
