/* XPM */
static char *_5[] = {
/* columns rows colors chars-per-pixel */
"50 50 152 2 ",
"   c #434343",
".  c #464646",
"X  c #484848",
"o  c #494949",
"O  c gray29",
"+  c #4B4B4B",
"@  c #4C4C4C",
"#  c gray30",
"$  c #4E4E4E",
"%  c gray31",
"&  c #505050",
"*  c #515151",
"=  c gray32",
"-  c #535353",
";  c gray33",
":  c #555555",
">  c #565656",
",  c gray34",
"<  c #585858",
"1  c gray35",
"2  c #5A5A5A",
"3  c #5B5B5B",
"4  c gray36",
"5  c #5D5D5D",
"6  c gray37",
"7  c #5F5F5F",
"8  c #606060",
"9  c gray38",
"0  c gray39",
"q  c #656565",
"w  c gray40",
"e  c #676767",
"r  c #686868",
"t  c DimGray",
"y  c #6A6A6A",
"u  c gray42",
"i  c #6C6C6C",
"p  c #6D6D6D",
"a  c gray43",
"s  c #6F6F6F",
"d  c gray44",
"f  c #747474",
"g  c gray46",
"h  c #767676",
"j  c #777777",
"k  c #797979",
"l  c #7B7B7B",
"z  c #7C7C7C",
"x  c gray49",
"c  c #7E7E7E",
"v  c #808080",
"b  c gray51",
"n  c #848484",
"m  c #868686",
"M  c gray53",
"N  c #888888",
"B  c #898989",
"V  c gray54",
"C  c gray55",
"Z  c #8D8D8D",
"A  c gray56",
"S  c #909090",
"D  c #939393",
"F  c gray58",
"G  c gray59",
"H  c #979797",
"J  c #989898",
"K  c gray60",
"L  c #9A9A9A",
"P  c #9D9D9D",
"I  c gray62",
"U  c #9F9F9F",
"Y  c gray63",
"T  c #A2A2A2",
"R  c gray64",
"E  c #A4A4A4",
"W  c #A5A5A5",
"Q  c gray65",
"!  c #A9A9A9",
"~  c #AAAAAA",
"^  c gray67",
"/  c gray68",
"(  c #AEAEAE",
")  c gray69",
"_  c #B1B1B1",
"`  c #B2B2B2",
"'  c #B4B4B4",
"]  c gray71",
"[  c #B6B6B6",
"{  c #B7B7B7",
"}  c gray72",
"|  c #B9B9B9",
" . c #BBBBBB",
".. c #BCBCBC",
"X. c #C0C0C0",
"o. c gray76",
"O. c #C3C3C3",
"+. c gray77",
"@. c #C6C6C6",
"#. c #C8C8C8",
"$. c gray79",
"%. c #CACACA",
"&. c #CBCBCB",
"*. c gray80",
"=. c #CDCDCD",
"-. c gray82",
";. c #D2D2D2",
":. c gray83",
">. c #D5D5D5",
",. c gray84",
"<. c #D7D7D7",
"1. c #D8D8D8",
"2. c gray85",
"3. c #DADADA",
"4. c gray86",
"5. c #DCDCDC",
"6. c #DDDDDD",
"7. c gray87",
"8. c #DFDFDF",
"9. c gray88",
"0. c #E1E1E1",
"q. c #E2E2E2",
"w. c #E3E3E3",
"e. c #E4E4E4",
"r. c #E5E5E5",
"t. c #E6E6E6",
"y. c #E7E7E7",
"u. c gray91",
"i. c #E9E9E9",
"p. c #EAEAEA",
"a. c #EBEBEB",
"s. c #ECECEC",
"d. c gray93",
"f. c #EEEEEE",
"g. c #EFEFEF",
"h. c gray94",
"j. c #F1F1F1",
"k. c #F2F2F2",
"l. c #F3F3F3",
"z. c #F4F4F4",
"x. c gray96",
"c. c #F6F6F6",
"v. c gray97",
"b. c #F8F8F8",
"n. c #F9F9F9",
"m. c #FAFAFA",
"M. c #FBFBFB",
"N. c #FCFCFC",
"B. c #FDFDFD",
"V. c #FEFEFE",
"C. c white",
"Z. c None",
/* pixels */
"Z.Z.Z.Z.Z.Z.Z.Z.Z.Z.Z.Z.Z.Z.Z.Z.Z.Z.Z.6.5.6.5.5.5.5.5.5.5.5.5.Z.Z.Z.Z.Z.Z.Z.Z.Z.Z.Z.Z.Z.Z.Z.Z.Z.Z.Z.",
"Z.Z.Z.Z.Z.Z.Z.Z.Z.Z.Z.Z.Z.Z.Z.Z.6.6.5.5.5.6.4.8.5.w.9.4.5.6.3.5.5.7.Z.Z.Z.Z.Z.Z.Z.Z.Z.Z.Z.Z.Z.Z.Z.Z.",
"Z.Z.Z.Z.Z.Z.Z.Z.Z.Z.Z.Z.Z.Z.6.6.5.4.6.q.u.h.j.j.x.l.v.j.a.g.s.0.4.4.5.6.Z.Z.Z.Z.Z.Z.Z.Z.Z.Z.Z.Z.Z.Z.",
"Z.Z.Z.Z.Z.Z.Z.Z.Z.Z.Z.Z.6.5.4.5.8.t.h.z.v.v.Z.b.Z.v.v.Z.v.c.b.v.j.t.5.4.5.5.Z.Z.Z.Z.Z.Z.Z.Z.Z.Z.Z.Z.",
"Z.Z.Z.Z.Z.Z.Z.Z.Z.Z.Z.6.5.5.0.a.k.x.v.Z.Z.Z.Z.Z.Z.Z.Z.Z.Z.Z.Z.Z.Z.b.z.a.w.y.e.6.Z.Z.Z.Z.Z.Z.Z.Z.Z.Z.",
"Z.Z.Z.Z.Z.Z.Z.Z.Z.5.5.5.e.f.k.v.v.Z.Z.Z.Z.Z.Z.Z.Z.Z.Z.Z.Z.Z.Z.Z.Z.v.n.a.k.n.j.a.q.Z.Z.Z.Z.Z.Z.Z.Z.Z.",
"Z.Z.Z.Z.Z.Z.Z.Z.5.6.7.a.x.c.v.Z.Z.Z.Z.Z.Z.Z.Z.Z.Z.Z.Z.Z.Z.Z.Z.Z.Z.M.e.J 2 n | a.f.7.Z.Z.Z.Z.Z.Z.Z.Z.",
"Z.Z.Z.Z.Z.Z.Z.5.4.e.g.v.v.Z.Z.Z.Z.Z.x.Z.Z.Z.Z.Z.Z.Z.Z.Z.Z.Z.Z.Z.b.C.P ; Z.Z.o f ,.f.9.Z.Z.Z.Z.Z.Z.Z.",
"Z.Z.Z.Z.Z.Z.5.5.0.l.v.b.Z.Z.Z.Z.Z.v.h.7.5.5.Z.Z.Z.Z.Z.Z.Z.Z.Z.Z.j.w.5 - Z.Z.Z.: K x.p.6.Z.Z.Z.Z.Z.Z.",
"Z.Z.Z.Z.Z.6.4.w.g.v.c.Z.Z.Z.Z.r.N.b.6.#.q.r.6.5.Z.Z.Z.Z.Z.Z.Z.Z.o.V + - Z.Z.Z.Z.3 5.v.w.5.Z.Z.Z.Z.Z.",
"Z.Z.Z.Z.Z.6.4.h.c.v.Z.Z.Z.Z.6.:.$.n j 9 t Y <.t.0.6.Z.Z.Z.Z.Z.8.j < * Z.Z.Z.Z.Z.Z.A p.k.9.5.Z.Z.Z.Z.",
"Z.Z.Z.Z.5.4.0.v.c.c.Z.Z.Z.) m i 4 % Z.= & o ; N @.e.w.6.Z.Z.Z./ = = - Z.Z.Z.Z.Z.Z.Z.4.m.i.6.6.Z.Z.Z.",
"Z.Z.Z.5.4.7.f.v.c.c.x.Z.' 7 - * Z.Z.Z.Z.Z.- - # - l ..6.8.Z.i.a % - Z.Z.Z.Z.Z.Z.Z.Z.~ j.z.9.5.Z.Z.Z.",
"Z.Z.Z.5.7.a.c.c.v.h.r.8.M + - Z.Z.Z.Z.Z.Z.Z.Z.- - > i ^ 0.0.&.& - - Z.Z.Z.Z.Z.Z.Z.Z.Z.{ n.i.5.Z.Z.Z.",
"Z.Z.5.3.u.x.v.b.l.e.6.9.< = Z.Z.Z.Z.Z.Z.Z.Z.Z.Z.Z.Z.% 3 | y.U ; = Z.Z.Z.Z.Z.Z.Z.Z.Z.Z.r.N.j.9.5.Z.Z.",
"Z.Z.5.5.k.c.Z.Z.s.0.q.) O - Z.Z.Z.Z.Z.Z.Z.Z.Z.Z.Z.Z.Z.Z.A 6.K , Z.Z.Z.Z.Z.Z.Z.Z.Z.Z.Z.Z.v.c.r.5.Z.Z.",
"Z.5.4.w.x.c.Z.Z.Z.6.6.X.t Z.Z.Z.Z.Z.Z.Z.% - @ - % @ = @ ^ @.c # Z.Z.Z.Z.Z.Z.Z.Z.Z.Z.Z.Z.v.c.f.5.5.Z.",
"Z.5.4.a.x.Z.Z.Z.Z.5.6.<.H : Z.Z.Z.Z.= 6 w i C b J v r F >._ 8 % Z.Z.Z.Z.Z.Z.Z.Z.Z.Z.Z.Z.Z.v.z.w.4.Z.",
"Z.5.8.h.c.Z.Z.Z.Z.Z.6.8.r.:.I d Z Z O.O.0.u.l.n.a.f.q.4.7.{ * Z.Z.Z.Z.Z.Z.Z.Z.Z.Z.Z.Z.Z.Z.c.b.u.6.Z.",
"6.5.0.j.v.Z.Z.i.5.5.6.0.7.7.e.8.;.6.r.v.v.b.b.n.M.b.x.s.0...0 Z.Z.Z.Z.Z.Z.Z.Z.Z.Z.Z.Z.Z.Z.v.v.g.6.5.",
"5.5.7.x.c.v.l.e.8.2.*.` -.r.0.5.6.6.k.c.b.M.C.C.V.V.M.b.l.2.a Z.Z.Z.Z.Z.Z.Z.Z.Z.Z.Z.Z.Z.Z.Z.v.j.9.5.",
"6.4.w.c.v.c.d.5.9.S e 2 : b &.5.6.t.v.c.V.C.C.C.C.C.V.b.c.i.L @ Z.Z.Z.Z.Z.Z.Z.Z.Z.Z.Z.Z.Z.Z.x.z.8.5.",
"5.4.t.x.v.v.i.9.} o & Z.Z.Z.I q.0.g.v.m.C.C.C.C.C.C.C.M.c.m.! * Z.Z.Z.Z.Z.Z.Z.Z.Z.Z.Z.Z.Z.Z.x.l.q.5.",
"5.5.q.c.Z.Z.9.q.D & - Z.Z.Z.- P 7.c.c.N.C.C.C.C.C.C.C.V.v.c.s.G , Z.Z.Z.Z.Z.Z.Z.Z.Z.Z.Z.Z.Z.x.c.e.4.",
"5.3.i.b.Z.Z.Z.6.[ - - Z.Z.Z.% g 3.c.v.M.C.C.C.C.C.C.C.C.m.c.k.=.a Z.Z.Z.Z.Z.Z.Z.Z.Z.Z.Z.Z.Z.c.x.t.5.",
"5.5.h.v.Z.Z.Z.r.| O - Z.Z.Z.Z.2 >.x.c.n.V.C.C.C.C.C.C.C.B.M.n.x.9.+.Z.Z.Z.Z.Z.Z.Z.Z.Z.Z.Z.Z.x.c.d.6.",
"6.7.s.v.Z.Z.Z.Z.9.w & - Z.Z.Z.< / m.z.c.N.C.C.C.C.C.V.V.C.V.V.B.m.d.6.5.Z.Z.Z.Z.Z.Z.Z.Z.Z.Z.x.x.k.8.",
"6.5.i.c.Z.Z.Z.Z.5.J % - Z.Z.Z.. h e.v.c.n.V.C.C.C.V.m.b.M.V.C.C.V.C.B.c.j.f.g.Z.Z.Z.Z.Z.Z.Z.c.v.c.w.",
"6.5.9.c.v.Z.Z.Z.7.&.0 - Z.Z.Z.Z.; G u.d.l.c.n.N.m.b.c.c.j.x.C.V.V.C.V.V.B.m.c.l.j.Z.Z.Z.Z.k.b.B.B.s.",
"5.4.q.x.v.Z.Z.Z.y.r.v % = Z.Z.Z.Z.6 o.m.f.x.c.z.c.k.f.*.W k K p.Z.C.V.C.C.V.B.M.b.l.d.p.Z.e.M.V.C.s.",
"Z.5.8.k.v.Z.Z.Z.Z.0.o.q $ - Z.Z.Z.. s 7.s.6.r.r.q.6.' u - * Z.Z.Z.Z.Z.Z.V.V.C.V.B.N.n.k.s.l.B.C.m.f.",
"Z.5.5.e.x.Z.Z.Z.Z.y.8.] u & & - Z.Z.- E y.w.4.6.0.I 3 Z.Z.Z.Z.Z.Z.Z.Z.Z.Z.Z.C.V.C.C.V.B.b.m.V.C.b.Z.",
"Z.5.5.6.g.b.Z.Z.Z.Z.8.7. .x 6 : + Z.Z.p / 2.5.6.( 7 Z.Z.Z.Z.Z.Z.Z.Z.Z.Z.Z.Z.Z.Z.B.V.C.C.B.B.V.B.c.Z.",
"Z.6.6.4.y.c.Z.Z.Z.Z.Z.Z.9.*.Y B H 9 *   N =.e.' q % Z.Z.Z.Z.Z.Z.Z.Z.Z.Z.Z.Z.Z.Z.Z.Z.B.B.V.V.C.m.c.Z.",
"Z.Z.5.5.6.g.c.Z.Z.Z.Z.Z.Z.Z.t.2.2.R 1 q ! 2.e.h * Z.Z.Z.Z.Z.Z.Z.Z.Z.Z.Z.Z.Z.Z.Z.Z.Z.Z.n.N.V.V.v.Z.Z.",
"Z.Z.5.6.4.u.c.Z.Z.Z.Z.Z.Z.Z.Z.Z.0.8.o.} :.q.@.$ - Z.Z.Z.Z.Z.Z.Z.Z.Z.Z.Z.Z.Z.Z.Z.Z.Z.z.n.B.C.M.c.Z.Z.",
"Z.Z.Z.6.5.9.j.v.Z.Z.Z.Z.Z.Z.Z.Z.Z.Z.Z.8.5.t.M O Z.Z.Z.Z.Z.Z.Z.Z.Z.Z.Z.Z.Z.Z.Z.Z.Z.Z.c.M.V.V.c.Z.Z.Z.",
"Z.Z.Z.6.5.5.u.v.Z.Z.Z.Z.Z.Z.Z.Z.Z.Z.Z.5.6.1.: = Z.Z.Z.Z.Z.Z.Z.Z.Z.Z.Z.Z.Z.Z.Z.Z.Z.z.b.V.C.M.l.Z.Z.Z.",
"Z.Z.Z.Z.6.5.5.a.c.Z.Z.Z.Z.Z.Z.Z.Z.Z.Z.5.r.T X - Z.Z.Z.Z.Z.Z.Z.Z.Z.Z.Z.Z.Z.Z.Z.Z.x.x.m.V.V.l.Z.Z.Z.Z.",
"Z.Z.Z.Z.Z.6.5.0.j.v.Z.Z.Z.Z.Z.Z.Z.Z.Z.5.q.q % Z.Z.Z.Z.Z.Z.Z.Z.Z.Z.Z.Z.Z.Z.Z.Z.Z.x.x.n.V.M.u.Z.Z.Z.Z.",
"Z.Z.Z.Z.Z.5.5.4.7.s.c.Z.Z.Z.Z.Z.Z.Z.e.0...O - Z.Z.Z.Z.Z.Z.Z.Z.Z.Z.Z.Z.Z.Z.Z.c.x.x.x.v.b.z.Z.Z.Z.Z.Z.",
"Z.Z.Z.Z.Z.Z.5.5.5.0.g.v.n.Z.Z.Z.Z.Z.s.u.z + Z.Z.Z.Z.Z.Z.Z.Z.Z.Z.Z.Z.Z.Z.Z.Z.x.x.x.x.x.j.Z.Z.Z.Z.Z.Z.",
"Z.Z.Z.Z.Z.Z.Z.5.5.5.3.w.l.v.Z.Z.Z.Z.x.<.& - Z.Z.Z.Z.Z.Z.Z.Z.Z.Z.Z.Z.Z.v.c.x.v.z.d.a.s.Z.Z.Z.Z.Z.Z.Z.",
"Z.Z.Z.Z.Z.Z.Z.Z.5.6.6.6.p.c.b.Z.Z.c.C.I . Z.Z.Z.Z.Z.Z.Z.Z.Z.Z.Z.Z.Z.c.v.c.c.l.q.7.4.Z.Z.Z.Z.Z.Z.Z.Z.",
"Z.Z.Z.Z.Z.Z.Z.Z.Z.6.6.5.3.7.u.z.b.v.b.Z $ Z.Z.Z.Z.Z.Z.Z.Z.Z.Z.t.l.c.c.v.c.f.e.4.5.Z.Z.Z.Z.Z.Z.Z.Z.Z.",
"Z.Z.Z.Z.Z.Z.Z.Z.Z.Z.Z.6.6.5.4.0.g.z.x.%.y Q Z.Z.x.Z.c.Z.y.s.h.x.c.c.c.x.i.8.6.6.Z.Z.Z.Z.Z.Z.Z.Z.Z.Z.",
"Z.Z.Z.Z.Z.Z.Z.Z.Z.Z.Z.Z.5.6.5.5.0.i.x.C.M.s.m.v.x.x.c.c.x.c.c.c.c.x.k.y.5.5.6.Z.Z.Z.Z.Z.Z.Z.Z.Z.Z.Z.",
"Z.Z.Z.Z.Z.Z.Z.Z.Z.Z.Z.Z.Z.Z.5.5.4.6.g.v.c.c.c.c.c.c.v.c.c.c.x.z.s.q.8.7.Z.Z.Z.Z.Z.Z.Z.Z.Z.Z.Z.Z.Z.Z.",
"Z.Z.Z.Z.Z.Z.Z.Z.Z.Z.Z.Z.Z.Z.Z.Z.6.6.r.k.v.v.c.v.v.c.b.x.z.f.u.0.6.6.Z.Z.Z.Z.Z.Z.Z.Z.Z.Z.Z.Z.Z.Z.Z.Z.",
"Z.Z.Z.Z.Z.Z.Z.Z.Z.Z.Z.Z.Z.Z.Z.Z.Z.Z.Z.q.w.g.j.s.g.a.i.y.0.9.6.Z.Z.Z.Z.Z.Z.Z.Z.Z.Z.Z.Z.Z.Z.Z.Z.Z.Z.Z."
};
