/* XPM */
static char *_6[] = {
/* columns rows colors chars-per-pixel */
"50 50 154 2 ",
"   c #484848",
".  c #494949",
"X  c gray29",
"o  c #4C4C4C",
"O  c gray30",
"+  c #4E4E4E",
"@  c gray31",
"#  c #505050",
"$  c #515151",
"%  c gray32",
"&  c #535353",
"*  c gray33",
"=  c #555555",
"-  c #565656",
";  c gray34",
":  c #585858",
">  c gray35",
",  c #5A5A5A",
"<  c #5B5B5B",
"1  c gray36",
"2  c #5D5D5D",
"3  c gray37",
"4  c #5F5F5F",
"5  c #606060",
"6  c gray38",
"7  c #626262",
"8  c gray39",
"9  c #646464",
"0  c #656565",
"q  c #676767",
"w  c DimGray",
"e  c #6A6A6A",
"r  c gray42",
"t  c #6D6D6D",
"y  c gray43",
"u  c #6F6F6F",
"i  c #717171",
"p  c gray45",
"a  c #747474",
"s  c gray46",
"d  c #7B7B7B",
"f  c #7C7C7C",
"g  c gray49",
"h  c gray50",
"j  c #808080",
"k  c gray51",
"l  c #848484",
"z  c gray52",
"x  c #868686",
"c  c gray53",
"v  c #888888",
"b  c #898989",
"n  c gray54",
"m  c #8B8B8B",
"M  c gray55",
"N  c gray56",
"B  c #909090",
"V  c #929292",
"C  c #939393",
"Z  c gray58",
"A  c #959595",
"S  c gray59",
"D  c #979797",
"F  c #989898",
"G  c #9A9A9A",
"H  c #9B9B9B",
"J  c gray61",
"K  c #9D9D9D",
"L  c gray62",
"P  c #9F9F9F",
"I  c #A0A0A0",
"U  c #A2A2A2",
"Y  c gray64",
"T  c #A5A5A5",
"R  c gray65",
"E  c gray66",
"W  c #A9A9A9",
"Q  c #AAAAAA",
"!  c gray67",
"~  c #ACACAC",
"^  c gray68",
"/  c #AEAEAE",
"(  c gray69",
")  c #B1B1B1",
"_  c #B2B2B2",
"`  c gray70",
"'  c #B4B4B4",
"]  c gray71",
"[  c #B6B6B6",
"{  c gray72",
"}  c #B9B9B9",
"|  c #BCBCBC",
" . c gray74",
".. c gray",
"X. c gray75",
"o. c #C1C1C1",
"O. c gray76",
"+. c #C3C3C3",
"@. c gray77",
"#. c #C6C6C6",
"$. c gray78",
"%. c #C8C8C8",
"&. c gray79",
"*. c #CACACA",
"=. c #CBCBCB",
"-. c gray80",
";. c #CDCDCD",
":. c gray82",
">. c #D2D2D2",
",. c gray83",
"<. c #D5D5D5",
"1. c gray84",
"2. c #D7D7D7",
"3. c #D8D8D8",
"4. c gray85",
"5. c #DADADA",
"6. c gray86",
"7. c #DCDCDC",
"8. c #DDDDDD",
"9. c gray87",
"0. c #DFDFDF",
"q. c gray88",
"w. c #E1E1E1",
"e. c #E2E2E2",
"r. c #E3E3E3",
"t. c #E4E4E4",
"y. c gray90",
"u. c #E6E6E6",
"i. c #E7E7E7",
"p. c gray91",
"a. c #E9E9E9",
"s. c #EAEAEA",
"d. c gray92",
"f. c #ECECEC",
"g. c gray93",
"h. c #EEEEEE",
"j. c #EFEFEF",
"k. c gray94",
"l. c #F1F1F1",
"z. c gray95",
"x. c #F3F3F3",
"c. c #F4F4F4",
"v. c gray96",
"b. c #F6F6F6",
"n. c #F7F7F7",
"m. c #F8F8F8",
"M. c #F9F9F9",
"N. c gray98",
"B. c #FBFBFB",
"V. c gray99",
"C. c #FDFDFD",
"Z. c #FEFEFE",
"A. c white",
"S. c None",
/* pixels */
"S.S.S.S.S.S.S.S.S.S.S.S.S.S.S.S.S.S.S.6.6.5.6.7.6.6.6.7.7.5.7.S.S.S.S.S.S.S.S.S.S.S.S.S.S.S.S.S.S.S.",
"S.S.S.S.S.S.S.S.S.S.S.S.S.S.S.S.6.6.6.8.7.8.8.8.8.8.8.8.8.6.7.7.7.7.S.S.S.S.S.S.S.S.S.S.S.S.S.S.S.S.",
"S.S.S.S.S.S.S.S.S.S.S.S.S.S.7.7.7.0.w.t.i.a.a.a.s.a.a.a.p.u.u.q.8.6.7.8.S.S.S.S.S.S.S.S.S.S.S.S.S.S.",
"S.S.S.S.S.S.S.S.S.S.S.S.8.7.6.w.y.f.k.z.x.c.x.c.x.c.x.x.x.x.c.j.s.y.r.7.7.8.8.S.S.S.S.S.S.S.S.S.S.S.",
"S.S.S.S.S.S.S.S.S.S.7.7.6.8.i.h.z.v.v.v.S.S.S.S.S.S.S.S.S.S.S.b.x.l.k.a.0.8.5.6.S.S.S.S.S.S.S.S.S.S.",
"S.S.S.S.S.S.S.S.S.7.6.7.9.s.x.c.v.v.S.S.S.S.S.S.S.S.S.S.S.S.S.S.S.S.x.z.d.u.q.6.5.S.S.S.S.S.S.S.S.S.",
"S.S.S.S.S.S.S.S.8.6.9.y.g.m.b.b.S.S.S.S.S.S.S.v.x.k.S.S.S.S.S.S.S.S.S.S.m.b.x.0.6.8.S.S.S.S.S.S.S.S.",
"S.S.S.S.S.S.S.7.6.q.d.l.v.c.v.c.S.S.S.S.;.4.e.f.j.y.7.S.S.S.S.S.S.S.S.S.S.b.v.h.e.7.6.S.S.S.S.S.S.S.",
"S.S.S.S.S.S.6.6.q.f.x.v.v.v.k.d.r.&.Y m n F R ^ } X.<.7.S.S.S.S.S.S.S.S.S.S.S.c.g.e.7.6.S.S.S.S.S.S.",
"S.S.S.S.S.5.6.0.d.x.c.S.S.h.t.9.6.E r : - 2 5 5 e p L >.5.S.S.S.S.S.S.S.S.S.S.S.v.g.e.7.5.S.S.S.S.S.",
"S.S.S.S.6.7.0.a.z.v.S.S.S.y.9.7.[ u % $ # S.S.S.S.* 3 G >.5.S.S.S.S.S.S.S.S.S.S.v.k.s.t.w.7.S.S.S.S.",
"S.S.S.S.7.7.t.x.n.S.S.S.S.9.8.,.q o & S.S.S.S.S.S.S.$ 3 G >.5.S.S.S.S.S.S.S.S.v.t.&.*.B.z.i.6.S.S.S.",
"S.S.S.5.6.9.d.c.v.S.S.S.S.S.5.%.j ; S.S.S.S.S.S.S.S.S.$ 4 J >.7.S.S.S.S.S.S.a.5.G s y A >.u.r.S.S.S.",
"S.S.S.6.7.y.l.v.v.z.a.8.7.6.6.:.S 1 S.S.S.S.S.S.S.S.S.S.& 8 Y ,.6.S.S.S.S.O.) v , = S.: M ,.t.S.S.S.",
"S.S.6.6.9.d.c.v.z.s.q.7.2.3.6.7.*.M ; S.S.S.S.S.S.S.S.S.S.; p _ 1.S.S.S.~ g w * & S.S.S.2 R r.q.S.S.",
"S.S.6.7.t.k.b.c.h.q.6.X.~ / O.7.7.-.D c S.w > ; $ $ S.S.S.S.4 V :.6.6.Q r ; % % S.S.S.S.< B 0.y.S.S.",
"S.7.6.w.c.n.S.S.q.e.O., : 1 9 #.t.9.0.%. .O.N h - : @ # & S.S.d $.9.] t & % % S.S.S.S.S.S.N 9.p.8.S.",
"S.6.8.i.z.c.S.S.7.=.x = # S.; j +.7.7.5.9.u.w.6.%.[ B p - & S.g O.o.h = $ $ S.S.S.S.S.S.S.C 9.s.9.S.",
"S.6.9.s.c.S.S.S.7.O.i $ S.S.S.S./ 3.8.r.g.c.c.c.c.l.9.O.N u s W O.G 9 % S.S.S.S.S.S.S.S.S.A 3.f.q.S.",
"S.6.8.s.c.S.S.S.4._ 3 & S.S.S.: C <.r.j.b.n.M.N.N.M.n.h.5.X. .#.H r % S.S.S.S.S.S.S.S.S.S.S.4.j.e.6.",
"5.6.e.k.c.S.S.S.5./ 3 $ S.S.S.- l :.g.b.n.B.C.Z.Z.C.V.M.l.t.3.} a % S.S.S.S.S.S.S.S.S.S.S.S.>.k.r.7.",
"7.7.t.v.m.S.S.S.9.' * & S.S.S.# f p.b.b.C.A.A.A.A.A.A.C.M.x.q.U + S.S.S.S.S.S.S.S.S.S.S.S.S.-.g.t.5.",
"7.6.r.x.S.S.S.S.8.` 6 $ S.S.S.2 L i.c.b.B.Z.A.A.A.A.Z.V.m.x.q.I 5 S.S.S.S.S.S.S.S.S.S.S.S.S.s.x.y.8.",
"8.7.w.c.S.S.S.S.q.| O & S.S.S.. K N.b.m.Z.A.A.A.A.A.A.A.M.n.a.S S.S.S.S.S.S.S.S.S.S.S.S.S.S.v.x.y.7.",
"6.6.w.j.S.S.S.S.8._ w $ S.S.S.2 J i.z.b.V.A.A.A.A.A.Z.C.M.c.6.z = S.S.S.S.S.S.S.S.S.S.S.S.S.b.z.y.6.",
"6.6.q.j.S.S.S.S.q.+.d & S.S.S.& z 4.l.b.B.Z.A.A.A.A.Z.C.M.c.8.v * S.S.S.S.S.S.S.S.S.S.S.S.S.v.z.y.6.",
"7.7.0.z.S.S.S.S.q.q._ : # S.S.S.q 6.g.x.m.A.A.A.A.A.A.A.N.n.k.~ - S.S.S.S.S.S.S.S.S.S.S.S.S.v.x.y.7.",
"5.6.q.h.x.S.S.S.S.4.o.k 1 $ S.S.0 { s.j.c.n.B.V.V.B.V.Z.V.M.k...a S.S.S.S.S.S.S.S.S.S.S.S.S.v.l.t.7.",
"8.7.8.z.m.S.S.S.S.S.r.' u - o S.& o.M.0.l.c.m.b.m.n.n.C.A.Z.B.g.{ S.S.S.S.S.S.S.S.S.S.S.S.S.c.k.e.6.",
"6.6.0.f.c.S.S.S.S.S.S.:.' D r $ 5 J 2.0.q.y.a.d.s.i.s.j.B.Z.V.v.e.1.S.S.S.S.S.S.S.S.S.S.S.S.c.h.q.5.",
"S.6.7.i.z.S.S.S.S.S.S.S.2.*.N < $ v #.5.7.5.5.@.' T Y ( t.N.C.V.v.u.q.S.S.S.S.S.S.S.S.S.S.c.c.s.8.6.",
"S.7.7.u.v.S.S.S.S.S.S.S.S.w.( 4 1 Z -.0.0.+.! 1 5 & @ X S b.A.C.V.b.h.f.S.S.S.S.S.S.S.S.S.c.z.y.7.S.",
"S.5.7.0.g.v.S.S.S.S.S.S.S.S.>.{ ) #.3.*.Z a 7 S.S.S.S.S.S.S.S.C.Z.V.m.z.j.S.S.S.S.S.S.S.c.c.k.e.7.S.",
"S.8.8.7.i.b.S.S.S.S.S.S.S.S.S.0.6.q.w.z # & S.S.S.S.S.S.S.S.S.S.C.Z.V.m.z.l.S.S.S.S.S.S.v.x.f.0.6.S.",
"S.S.7.7.w.g.S.S.S.S.S.S.S.S.4.7.6.&.x * % S.S.S.S.S.S.S.S.S.S.S.S.C.Z.V.m.x.l.S.S.S.S.S.c.x.d.9.S.S.",
"S.S.7.7.7.r.k.S.S.S.S.S.S.S.6.7.&.x * % S.S.S.S.S.S.S.S.S.S.S.S.S.S.C.Z.V.m.z.f.S.S.S.v.v.x.a.9.S.S.",
"S.S.S.7.7.8.h.n.S.S.S.S.S.9.9.w.k   & S.S.S.S.S.S.S.S.S.S.S.S.S.S.S.S.C.Z.V.n.k.s.S.j.M.B.M.u.S.S.S.",
"S.S.S.5.5.8.i.x.x.S.S.S.d.q.&.x * % S.S.S.S.S.S.S.S.S.S.S.S.S.S.S.S.S.S.V.Z.V.n.j.d.x.B.V.m.s.S.S.S.",
"S.S.S.S.7.7.6.f.m.S.S.m.x.r.k   & S.S.S.S.S.S.S.S.S.S.S.S.S.S.S.S.S.S.S.S.C.Z.V.n.m.C.Z.A.x.t.S.S.S.",
"S.S.S.S.7.6.6.9.d.v.S.v.5.b * % S.S.S.S.S.S.S.S.S.S.S.S.S.S.S.S.S.S.S.S.S.B.C.C.B.B.C.V.b.k.S.S.S.S.",
"S.S.S.S.S.6.7.7.r.k.b.p.I & # S.S.S.S.S.S.S.S.S.S.S.S.S.S.S.S.S.S.S.S.S.S.S.N.V.C.C.C.M.c.S.S.S.S.S.",
"S.S.S.S.S.S.8.7.9.f.x.f.z O S.S.S.S.S.S.S.S.S.S.S.S.S.S.S.S.S.S.S.S.S.S.S.b.N.V.Z.Z.N.b.S.S.S.S.S.S.",
"S.S.S.S.S.S.S.6.6.w.h.c.*.P S.S.S.S.S.S.S.S.S.S.S.S.S.S.S.S.S.S.S.S.S.S.b.m.V.C.V.M.b.S.S.S.S.S.S.S.",
"S.S.S.S.S.S.S.S.8.q.l.b.Z.d.B.S.S.S.S.S.S.S.S.S.S.S.S.S.S.S.S.S.S.S.c.v.N.Z.Z.Z.m.v.S.S.S.S.S.S.S.S.",
"S.S.S.S.S.S.S.S.S.q.s.x.b.b.v.v.v.x.S.S.S.S.S.S.S.S.S.S.S.S.S.v.z.c.c.n.B.C.B.b.c.S.S.S.S.S.S.S.S.S.",
"S.S.S.S.S.S.S.S.S.S.r.f.x.v.b.b.v.v.v.v.d.f.s.d.l.x.c.b.b.v.v.c.c.c.v.m.B.M.c.k.S.S.S.S.S.S.S.S.S.S.",
"S.S.S.S.S.S.S.S.S.S.S.S.h.l.x.v.v.b.v.c.x.x.z.z.c.c.v.v.c.c.c.z.l.z.c.c.b.l.i.S.S.S.S.S.S.S.S.S.S.S.",
"S.S.S.S.S.S.S.S.S.S.S.S.S.S.s.h.k.x.z.c.c.c.c.c.c.c.v.x.k.h.s.y.y.a.j.j.S.S.S.S.S.S.S.S.S.S.S.S.S.S.",
"S.S.S.S.S.S.S.S.S.S.S.S.S.S.S.S.y.i.p.d.d.f.f.d.f.h.d.u.r.w.8.7.7.6.S.S.S.S.S.S.S.S.S.S.S.S.S.S.S.S.",
"S.S.S.S.S.S.S.S.S.S.S.S.S.S.S.S.S.S.S.q.0.9.0.0.9.w.9.7.7.8.5.S.S.S.S.S.S.S.S.S.S.S.S.S.S.S.S.S.S.S."
};
