/* XPM */
static char *_7[] = {
/* columns rows colors chars-per-pixel */
"50 50 146 2 ",
"   c #444444",
".  c #464646",
"X  c gray28",
"o  c #484848",
"O  c gray29",
"+  c #4B4B4B",
"@  c #4C4C4C",
"#  c gray30",
"$  c #4E4E4E",
"%  c gray31",
"&  c #505050",
"*  c #515151",
"=  c gray32",
"-  c #535353",
";  c gray33",
":  c #555555",
">  c #565656",
",  c gray34",
"<  c #585858",
"1  c #5A5A5A",
"2  c gray36",
"3  c #5D5D5D",
"4  c #5F5F5F",
"5  c #606060",
"6  c gray38",
"7  c gray39",
"8  c #646464",
"9  c gray40",
"0  c #676767",
"q  c #6A6A6A",
"w  c gray42",
"e  c #6C6C6C",
"r  c #6D6D6D",
"t  c gray43",
"y  c gray44",
"u  c #727272",
"i  c #777777",
"p  c gray47",
"a  c #797979",
"s  c #7C7C7C",
"d  c #7E7E7E",
"f  c gray51",
"g  c #838383",
"h  c #868686",
"j  c gray53",
"k  c #888888",
"l  c #8B8B8B",
"z  c gray55",
"x  c #8E8E8E",
"c  c gray56",
"v  c #909090",
"b  c #929292",
"n  c #939393",
"m  c gray58",
"M  c gray59",
"N  c #979797",
"B  c #989898",
"V  c gray60",
"C  c gray61",
"Z  c #9F9F9F",
"A  c #A0A0A0",
"S  c gray63",
"D  c gray64",
"F  c #A4A4A4",
"G  c #A5A5A5",
"H  c gray65",
"J  c #A7A7A7",
"K  c gray66",
"L  c #A9A9A9",
"P  c #AAAAAA",
"I  c #ACACAC",
"U  c gray68",
"Y  c #B1B1B1",
"T  c #B2B2B2",
"R  c gray70",
"E  c #B4B4B4",
"W  c gray71",
"Q  c #B7B7B7",
"!  c gray72",
"~  c #B9B9B9",
"^  c gray73",
"/  c #BBBBBB",
"(  c #BCBCBC",
")  c gray74",
"_  c gray",
"`  c gray75",
"'  c #C0C0C0",
"]  c #C1C1C1",
"[  c #C3C3C3",
"{  c gray77",
"}  c gray79",
"|  c #CACACA",
" . c #CBCBCB",
".. c gray80",
"X. c #CDCDCD",
"o. c #CECECE",
"O. c gray81",
"+. c #D0D0D0",
"@. c gray82",
"#. c #D2D2D2",
"$. c LightGray",
"%. c gray83",
"&. c #D5D5D5",
"*. c gray84",
"=. c #D7D7D7",
"-. c #D8D8D8",
";. c gray85",
":. c #DADADA",
">. c gray86",
",. c gainsboro",
"<. c #DDDDDD",
"1. c gray87",
"2. c #DFDFDF",
"3. c gray88",
"4. c #E1E1E1",
"5. c #E2E2E2",
"6. c gray89",
"7. c #E4E4E4",
"8. c #E5E5E5",
"9. c #E6E6E6",
"0. c #E7E7E7",
"q. c #E8E8E8",
"w. c #E9E9E9",
"e. c #EAEAEA",
"r. c gray92",
"t. c #ECECEC",
"y. c gray93",
"u. c #EEEEEE",
"i. c #EFEFEF",
"p. c #F0F0F0",
"a. c #F1F1F1",
"s. c #F2F2F2",
"d. c #F3F3F3",
"f. c #F4F4F4",
"g. c gray96",
"h. c #F6F6F6",
"j. c gray97",
"k. c #F8F8F8",
"l. c #F9F9F9",
"z. c #FAFAFA",
"x. c #FBFBFB",
"c. c gray99",
"v. c #FDFDFD",
"b. c #FEFEFE",
"n. c white",
"m. c None",
/* pixels */
"m.m.m.m.m.m.m.m.m.m.m.m.m.m.m.m.m.m.m.<.,.<.<.,.,.<.,.<.,.<.,.m.m.m.m.m.m.m.m.m.m.m.m.m.m.m.m.m.m.m.",
"m.m.m.m.m.m.m.m.m.m.m.m.m.m.m.m.,.<.,.,.,.>.>.2.4.1.4.1.<.,.,.,.<.<.m.m.m.m.m.m.m.m.m.m.m.m.m.m.m.m.",
"m.m.m.m.m.m.m.m.m.m.m.m.m.m.,.,.>.>.2.5.1.8.p.d.a.f.d.a.u.q.8.<.>.,.,.,.m.m.m.m.m.m.m.m.m.m.m.m.m.m.",
"m.m.m.m.m.m.m.m.m.m.m.m.<.,.>.,.7.i.d.s.g.j.j.h.j.j.j.j.j.j.g.y.0.3.,.>.,.<.<.m.m.m.m.m.m.m.m.m.m.m.",
"m.m.m.m.m.m.m.m.m.m.m.<.,.1.8.i.g.h.h.j.h.h.h.j.m.m.m.m.m.m.k.j.h.s.q.6.,.,.,.,.m.m.m.m.m.m.m.m.m.m.",
"m.m.m.m.m.m.m.m.m.<.,.>.1.e.d.g.j.m.m.m.k.g.g.j.m.m.m.m.m.m.m.m.m.j.j.d.t.6.<.,.,.m.m.m.m.m.m.m.m.m.",
"m.m.m.m.m.m.m.m.,.,.>.3.y.h.j.m.m.m.m.m.r.9.0.q.m.m.m.m.m.m.m.m.m.m.m.m.h.g.y.,.,.,.m.m.m.m.m.m.m.m.",
"m.m.m.m.m.m.m.<.,.>.5.a.j.j.j.m.m.m.m.e.3.,.6.2.Q b J } 8.e.j.j.m.m.m.m.m.j.l.t.4.>.,.m.m.m.m.m.m.m.",
"m.m.m.m.m.m.,.>.>.6.a.k.j.h.g.g.m.m.m.,.<.3.) p & % 1 0 H a.h.j.a.m.m.m.m.m.m.h.d.5.,.,.m.m.m.m.m.m.",
"m.m.m.m.m.<.,.2.y.h.j.m.j.g.t.8.<.<.m.<.,.( ; + - - = % 1 y U ;.3.,.m.m.m.m.m.m.k.s.8.>.<.m.m.m.m.m.",
"m.m.m.m.m.,.,.q.g.j.m.m.m.5.,.5.2.2.,.<.2.N , m.m.m.m.m.m.m., f >.<.m.m.m.m.m.m.m.j.a.,.<.,.m.m.m.m.",
"m.m.m.m.<.>.1.p.j.m.m.m.m.4.>.L M { &.2.6.G X m.m.m.m.m.m.m.= $ L 7.<.m.m.m.m.m.m.m.k.q.2.,.m.m.m.m.",
"m.m.m.<.<.3.a.j.m.m.m.m.3.+.i . - 7 n 7.<.;.> m.m.m.m.m.m.m.m.% q 6.,.m.m.m.m.m.m.m.m.g.y.>.<.m.m.m.",
"m.m.m.<.,.0.h.j.m.m.m.m.2.B < - m.- - | 2.8.v m.m.m.m.m.m.m.m.- + ] 4.m.m.m.m.m.m.m.m.h.j.2.,.m.m.m.",
"m.m.<.,.,.t.j.m.m.m.m.5.@.; * - m.m.m.m 6.2.o.M m.m.m.m.m.m.m.m.@ g 9.<.m.m.m.m.m.m.m.m.k.e.>.<.m.m.",
"m.m.,.,.<.s.j.m.m.m.m.:.f + - m.m.m.m.A ,.,.<.:.I a * m.m.m.m.m.- < &.1.m.m.m.m.m.m.m.m.m.g.,.,.m.m.",
"m.<.,.>.0.h.m.m.m.m.7.@., - - m.m.m.$ T 6.<.1.2.0.$.c # - m.m.m.= * H 7.m.m.m.m.m.m.m.m.m.k.8.>.1.m.",
"m.<.<.<.y.k.m.m.m.m.,.E > - m.m.m.$ 5 Q 3.0.i.h.j.h.p.S e $ = m.m.> j 3.<.m.m.m.m.m.m.j.h.k.p.>.,.m.",
"m.,.,.3.d.m.m.m.m.0.=.s % - m.m.m.# s 2.a.j.j.h.j.j.l.p.+.0 * - m.& f $.2.m.m.m.m.s.k.n.l.0.d.6.<.m.",
"m.<.>.w.h.m.m.m.m.8.O.9 = m.m.m.m.w @.z.h.h.z.v.b.v.c.j.x.' t # m.m.d 7.>.m.m.2.Q ~ @.K u k ^ x.q.>.",
"<.,.1.u.k.m.m.m.m.<.,.w $ m.m.m.% h s.f.h.z.n.n.n.n.n.v.x.i.~ : = m.V q.8.+.c 4 3 7 = @ - m.1 0.a.2.",
",.,.<.f.j.m.m.m.m.3.+.f $ m.m.m.- ^ s.g.k.v.n.n.n.n.n.n.v.h.r.T f Y >.X.x ; + = = * - m.m.m.  F t.9.",
"<.<.5.d.m.m.m.m.m.m.:.f : - m.m.* [ l.h.l.n.n.n.n.n.n.n.b.l.u.<.<...A z 2 - - - - m.m.m.m.m.m.r a.4.",
"<.,.5.j.m.m.m.m.m.m.0.F 6 % m.m.5 >.y.h.x.n.n.n.n.n.n.n.b.k.d.2.O.h 3 % % m.m.m.m.m.m.m.m.m.* y 0.7.",
"<.,.3.f.m.m.m.m.m.m.m.O.c & m.$ i q.a.g.x.n.n.n.n.n.n.n.v.j.f.>.h @ $ m.m.m.m.m.m.m.m.m.m.m.@ l f.9.",
",.,.7.f.m.m.m.m.m.m.m.2.%.r # * S c.9.j.k.n.n.n.n.n.n.n.z.j.p.! 1 m.m.m.m.m.m.m.m.m.m.m.m.m.m./ g.4.",
",.,.2.g.m.m.m.m.m.m.m.m...t * m.Z p.,.a.g.c.b.n.n.n.n.v.j.h.e.j m.m.m.m.m.m.m.m.m.m.m.m.m.m.t 2.s.2.",
"<.<.>.p.m.m.m.m.m.m.m.m.<.u - 1 W <.>.6.u.k.k.x.c.b.n.x.h.l.P = m.m.m.m.m.m.m.m.m.m.m.m.m.m.m.r.p.,.",
"<.,.1.u.j.m.m.m.m.m.m.m.9.` H I  .,.<.<.1.i.g.h.j.c.n.c.k.p.I + m.m.m.m.m.m.m.m.m.m.m.m.m.m.R k.q.<.",
"<.,.,.d.j.m.m.m.m.m.m.m.<.>.-.<.8.7.#.#.<.} <.r.h.l.b.b.z.t.f - m.m.m.m.m.m.m.m.m.m.m.m.m.m.*.x.8.,.",
"<.,.>.e.k.m.m.m.m.m.m.,.,.1.9.2.W s e p 6 8 i c ' u.n.n.v.s.C m.m.m.m.m.m.m.m.m.m.m.m.m.m.m.u.s.3.<.",
"m.<.,.2.j.m.m.m.m.5.,.4.9.$.V 4 + & - @ m.m.m.% 3 D n.n.b.j.#.m.m.m.m.m.m.m.m.m.m.m.m.m.m.j.z.e.<.m.",
"m.,.,.<.s.m.m.j.p.q.5._ d * o & - m.m.m.m.m.m.m.m.3 d.n.n.v.1.m.m.m.m.m.m.m.m.m.m.m.m.m.m.j.f.7.>.m.",
"m.<.,.2.i.j.z.n.6.D 0 O + - m.m.m.m.m.m.m.m.m.m.m.m.m.n.n.n.a.>.m.m.m.m.m.m.m.m.m.m.m.m.j.j.u.,.<.m.",
"m.m.,.,.t.g.u.S - o % - m.m.m.m.m.m.m.m.m.m.m.m.m.m.m.m.b.b.x.e.m.m.m.m.m.m.m.m.m.m.m.m.j.h.8.,.m.m.",
"m.m.<.>.w.l.-.3 = - m.m.m.m.m.m.m.m.m.m.m.m.m.m.m.m.m.m.n.n.v.f.y.m.m.m.m.m.m.m.m.m.m.j.j.a.2.<.m.m.",
"m.m.m.3.a.j.h.t m.m.m.m.m.m.m.m.m.m.m.m.m.m.m.m.m.m.m.m.m.b.b.l.p.m.m.m.m.m.m.m.m.m.m.h.g.9.>.m.m.m.",
"m.m.m.5.f.j.c.-.m.m.m.m.m.m.m.m.m.m.m.m.m.m.m.m.m.m.m.m.m.b.b.c.f.m.m.m.m.m.m.m.m.m.h.h.u.2.,.m.m.m.",
"m.m.m.m.e.k.h.k.z.m.m.m.m.m.m.m.m.m.m.m.m.m.m.m.m.m.m.m.m.m.b.v.k.a.m.m.m.m.m.m.m.h.h.d.7.<.,.m.m.m.",
"m.m.m.m.3.g.h.h.j.g.m.m.m.m.m.m.m.m.m.m.m.m.m.m.m.m.m.m.m.m.n.b.x.s.m.m.m.m.m.m.h.g.f.5.>.,.m.m.m.m.",
"m.m.m.m.m.i.d.j.h.h.g.g.m.m.m.m.m.m.m.m.m.m.m.m.m.m.m.m.m.m.b.n.v.g.t.m.m.m.m.g.g.f.q.<.,.m.m.m.m.m.",
"m.m.m.m.m.m.q.h.h.h.h.h.m.m.m.m.m.m.m.m.m.m.m.m.m.m.m.m.m.m.m.n.b.z.t.m.m.f.g.g.h.u.1.,.m.m.m.m.m.m.",
"m.m.m.m.m.m.m.y.a.k.h.h.s.q.m.m.m.m.m.m.m.m.m.m.m.m.m.m.m.m.m.b.n.c.p.7.0.h.j.g.d.5.>.m.m.m.m.m.m.m.",
"m.m.m.m.m.m.m.m.7.p.h.h.h.j.a.t.m.m.m.m.m.m.m.m.m.m.m.m.m.m.m.v.n.v.j.g.z.v.v.z.w.<.m.m.m.m.m.m.m.m.",
"m.m.m.m.m.m.m.m.m.4.e.s.h.h.j.g.g.h.h.m.m.m.m.m.m.m.m.m.m.m.m.x.n.v.c.v.b.n.n.j.7.m.m.m.m.m.m.m.m.m.",
"m.m.m.m.m.m.m.m.m.m.2.5.w.f.g.h.h.h.j.h.h.g.h.g.m.h.h.m.g.h.k.x.v.b.b.n.b.c.d.0.m.m.m.m.m.m.m.m.m.m.",
"m.m.m.m.m.m.m.m.m.m.m.>.,.3.0.i.h.j.j.h.h.g.g.g.g.g.g.j.z.c.v.b.b.n.b.x.k.f.m.m.m.m.m.m.m.m.m.m.m.m.",
"m.m.m.m.m.m.m.m.m.m.m.m.m.m.,.2.0.e.r.p.a.g.f.h.g.g.h.x.b.n.b.b.v.z.j.h.m.m.m.m.m.m.m.m.m.m.m.m.m.m.",
"m.m.m.m.m.m.m.m.m.m.m.m.m.m.m.m.<.,.<.1.3.2.5.w.d.g.k.v.b.v.z.h.g.h.m.m.m.m.m.m.m.m.m.m.m.m.m.m.m.m.",
"m.m.m.m.m.m.m.m.m.m.m.m.m.m.m.m.m.m.m.,.,.,.,.,.w.a.d.j.d.t.u.m.m.m.m.m.m.m.m.m.m.m.m.m.m.m.m.m.m.m."
};
