/* XPM */
static char *_8[] = {
/* columns rows colors chars-per-pixel */
"50 50 111 2 ",
"   c #535353",
".  c gray33",
"X  c #555555",
"o  c #565656",
"O  c gray34",
"+  c #585858",
"@  c gray35",
"#  c #5A5A5A",
"$  c #5B5B5B",
"%  c gray36",
"&  c #5D5D5D",
"*  c #5F5F5F",
"=  c #626262",
"-  c #646464",
";  c #656565",
":  c gray40",
">  c #676767",
",  c #686868",
"<  c #6D6D6D",
"1  c gray44",
"2  c #727272",
"3  c gray45",
"4  c #767676",
"5  c #777777",
"6  c #797979",
"7  c gray48",
"8  c #7B7B7B",
"9  c #7C7C7C",
"0  c gray49",
"q  c #818181",
"w  c gray51",
"e  c #838383",
"r  c #888888",
"t  c gray54",
"y  c #8B8B8B",
"u  c gray55",
"i  c #8E8E8E",
"p  c gray56",
"a  c #909090",
"s  c #939393",
"d  c #979797",
"f  c #9A9A9A",
"g  c #9B9B9B",
"h  c #9D9D9D",
"j  c #9F9F9F",
"k  c gray63",
"l  c #A4A4A4",
"z  c #A5A5A5",
"x  c gray65",
"c  c #A9A9A9",
"v  c #AAAAAA",
"b  c #ACACAC",
"n  c #AFAFAF",
"m  c gray70",
"M  c #B7B7B7",
"N  c #B9B9B9",
"B  c gray73",
"V  c #BBBBBB",
"C  c gray75",
"Z  c #C0C0C0",
"A  c #C1C1C1",
"S  c #C3C3C3",
"D  c #C6C6C6",
"F  c gray78",
"G  c #CACACA",
"H  c #CDCDCD",
"J  c #CECECE",
"K  c gray81",
"L  c #D0D0D0",
"P  c gray82",
"I  c #D2D2D2",
"U  c #D5D5D5",
"Y  c gray84",
"T  c #D7D7D7",
"R  c gainsboro",
"E  c #DDDDDD",
"W  c gray87",
"Q  c #DFDFDF",
"!  c gray88",
"~  c #E1E1E1",
"^  c #E2E2E2",
"/  c gray89",
"(  c #E4E4E4",
")  c gray90",
"_  c #E6E6E6",
"`  c #E7E7E7",
"'  c #E8E8E8",
"]  c #E9E9E9",
"[  c #EAEAEA",
"{  c gray92",
"}  c #ECECEC",
"|  c gray93",
" . c #EEEEEE",
".. c #EFEFEF",
"X. c gray94",
"o. c #F1F1F1",
"O. c gray95",
"+. c #F3F3F3",
"@. c #F4F4F4",
"#. c #F5F5F5",
"$. c #F6F6F6",
"%. c #F7F7F7",
"&. c #F8F8F8",
"*. c #F9F9F9",
"=. c gray98",
"-. c #FBFBFB",
";. c gray99",
":. c #FDFDFD",
">. c #FEFEFE",
",. c #FFFFFF",
"<. c None",
/* pixels */
"<.<.<.<.<.<.<.<.<.<.<.<.<.<.<.<.<.<.<.<.R R R R R R R R R R <.<.<.<.<.<.<.<.<.<.<.<.<.<.<.<.<.<.<.<.",
"<.<.<.<.<.<.<.<.<.<.<.<.<.<.<.<.R R R R R R R R R R R R R R R R R R <.<.<.<.<.<.<.<.<.<.<.<.<.<.<.<.",
"<.<.<.<.<.<.<.<.<.<.<.<.<.<.R R R R R R W _ |  .o.+.+.X.` W R R R R R R <.<.<.<.<.<.<.<.<.<.<.<.<.<.",
"<.<.<.<.<.<.<.<.<.<.<.<.R R R R R W ` o.#.$.$.$.$.$.$.$.$.$.#.#.X._ W R R R <.<.<.<.<.<.<.<.<.<.<.<.",
"<.<.<.<.<.<.<.<.<.<.<.R R R ^  .@.#.$.$.$.$.<.<.<.<.<.<.$.$.$.$.$.$.@.[ W R R R <.<.<.<.<.<.<.<.<.<.",
"<.<.<.<.<.<.<.<.<.R R R R / @.$.$.$.<.$.$.$.$.<.<.<.<.<.$.$.$.$.$.$.$.$.O.^ R R R <.<.<.<.<.<.<.<.<.",
"<.<.<.<.<.<.<.<.R R R ^ o.#.$.$.<.<.<.#.o.| o.<.<.<.<.` ) } @.<.<.<.<.$.$.#.[ R R R <.<.<.<.<.<.<.<.",
"<.<.<.<.<.<.<.R R R W +.$.$.<.<.<.<.<.R R R R R <.<.R R R R ^ <.<.<.<.<.<.$.#.` R R R <.<.<.<.<.<.<.",
"<.<.<.<.<.<.R R R R | $.$.<.<.<.<.<.R R R R R R R <.R R W ~ L C P <.<.<.<.<.$.#.[ R R R <.<.<.<.<.<.",
"<.<.<.<.<.R R R R } $.<.<.<.<.<.<.R ( j # o a R R R R S ;   X   3 Z ( <.<.<.<.$.#.` R R R <.<.<.<.<.",
"<.<.<.<.<.R R R [ $.<.<.<.<.<.<.W K $         d R R R 6           , L ^ #.<.<.<.<.#.[ R R R <.<.<.<.",
"<.<.<.<.R R R [ #.<.<.<.<.<._ R B +       <.  * R R R O <.<.<.<.    w O.$.$.<.<.<.$.#.` R R <.<.<.<.",
"<.<.<.R R R ` #.$.<.<.<.<.} R E @     <.<.<.<.# R R R . <.<.<.<.<.<.  e @.O.O.<.<.<.$.#./ R R <.<.<.",
"<.<.<.R R W @.$.<.<.<.<...R D *     <.<.<.<.<., R R R $ <.<.<.<.<.<.<.  b R R <.<.<.<.$.@.R R R <.<.",
"<.<.R R R } $.<.<.<.<.<.W R 7     <.<.<.<.<.  M R R R y <.<.<.<.<.<.<.  ; R R <.<.<.<.<.$.( R R <.<.",
"<.<.R R W #.$.<.<.<.<.<.R J o   <.<.<.<.<.  9 ^ R R R J * <.<.<.<.<.<.  o R R <.<.<.<.<.$.+.R R <.<.",
"<.R R R ` $.<.<.<.<.<.<.R z     <.<.<.<.  0 L W / ^ W R S . <.<.<.<.<.    R R <.<.<.<.<.<.$.' R R <.",
"<.R R R O.$.<.<.<.<.<.<.R q     <.<.<.  x  .O.$.$.$.$.@.' t   <.<.<.<.    R R <.<.<.<.<.<.$.@.R R <.",
"<.R R R #.<.<.<.<.<.<.<.R 7     <.<.  g o.+.$.$.$.$.$.$.#.R O   <.<.<.  X R R <.<.<.<.<.<.<.#.R R <.",
"<.R R ^ #.<.<.<.<.<.<.<.R y   <.<.  - $.X.$.$.=.>.>.>.*.$.#.c     <.<.  @ R R <.<.<.<.<.<.<.$.^ R R ",
"R R R X.$.<.<.<.<.<.<.<.R F   <.<.  A ..#.$.-.,.,.,.,.,.;.$.X.:   <.<.  * R R <.<.<.<.<.<.<.$...R R ",
"R R R #.$.<.<.<.<.<.<.<.R l   <.  s @.} $.=.,.,.,.,.,.,.,.*.#.z     <.  4 R R <.<.<.<.<.<.<.$.#.R R ",
"R R R #.<.<.<.<.<.<.<.<.R ;   <.7 $.] +.$.>.,.,.,.,.,.,.,.;.$.I     <.  i R R <.<.<.<.<.<.<.$.#.R R ",
"R R W $.<.<.<.<.<.<.<.<.R r . + b ..W #.%.,.,.,.,.,.,.,.,.:.$.) >   <.. G R <.<.<.<.<.<.<.<.<.#.R R ",
"R R _ $.<.<.<.<.<.<.R R R G v c I Q R +.$.,.,.,.,.,.,.,.,.;.$._ N , <.f ' R <.<.<.<.<.<.<.<.<.#.R R ",
"R R | $.$.$.+.' E R R R R R R R R R R [ $.;.,.,.,.,.,.,.>.&.$.! R R R R R R R R R R ] $.$.$.$.$.R R ",
"R R  .$.$.$._ R R R R R R R R R R R R W +.$.;.,.,.,.,.>.*.$.+.R J z a j 8 %     & 5 n _ $.$.$.#.R R ",
"W { #.$.l                   . $ - a J R ( #.$.=.>.,.>.*.$.$.^ N =                     + * 2 A #.E R ",
"/ $.$.$.                              - m ( #.%.>.>.=.#.#.[ l X <.<.<.<.<.<.              <.& #.' R ",
"/ $.$.$.k <.<.<.<.<.<.<.<.<.<.<.<.<.<.<.X p ^ %.>.>.=.#.} 7   <.<.<.<.<.<.<.<.<.<.<.<.<.<.<.  _ X.R ",
"Q $.$.$.$.<.<.<.<.<.<.<.<.<.<.<.<.<.<.<.<.  p $.>.>.=. .V     <.<.<.<.<.<.<.<.<.<.<.<.<.<.<.  Y  .R ",
"<.@.$.$.$.<.<.<.<.<.<.<.<.<.<.<.<.<.<.<.<.<.  @.>.>.=.! >   <.<.<.<.<.<.<.<.<.<.<.<.<.<.<.<.X _ _ <.",
"<. .$.$.$.@.<.<.<.<.<.<.<.<.<.<.<.<.<.<.<.<.<.O.>.>.=.Y   <.<.<.<.<.<.<.<.<.<.<.<.<.<.<.<.  u @.W <.",
"<./ $.$.$.#.<.<.<.<.<.<.<.<.<.<.<.<.<.<.<.<.<.<.>.>.=.U <.<.<.<.<.<.<.<.<.<.<.<.<.<.<.<.<.< _  .R <.",
"<.<...$.$.$.#.<.<.<.<.<.<.<.<.<.<.<.<.<.<.<.<.<.>.>.=.T <.<.<.<.<.<.<.<.<.<.<.<.<.<.<.<.1 _ #.^ <.<.",
"<.<.^ $.$.$.#.<.<.<.<.<.<.<.<.<.<.<.<.<.<.<.<.<.>.>.=.Q <.<.<.<.<.<.<.<.<.<.<.<.<.<.<.<.H $.] R <.<.",
"<.<.R { $.$.#._ <.<.<.<.<.<.<.<.<.<.<.<.<.<.<.<.>.>.=.[ <.<.<.<.<.<.<.<.<.<.<.<.<.<.<.m $.O.W R <.<.",
"<.<.<.W X.$.$.@.' <.<.<.<.<.<.<.<.<.<.<.<.<.<.<.>.>.=. .<.<.<.<.<.<.<.<.<.<.<.<.<.<.h $.#.^ R <.<.<.",
"<.<.<.<.^ O.$.$.@.) <.<.<.<.<.<.<.<.<.<.<.<.<.<.>.>.=.X.<.<.<.<.<.<.<.<.<.<.<.<.<.$.$.$.` R <.<.<.<.",
"<.<.<.<.R ^ @.$.$.@.<.<.<.<.<.<.<.<.<.<.<.<.<.<.>.>.=.o.<.<.<.<.<.<.<.<.<.<.<.<.$.$.$.] R R <.<.<.<.",
"<.<.<.<.<.R ^ O.$.$.#.#.<.<.<.<.<.<.<.<.<.<.<.<.>.>.=.o.<.<.<.<.<.<.<.<.<.<.<.$.$.$.[ R R <.<.<.<.<.",
"<.<.<.<.<.<.R ^ #.$.$.$.$.<.<.<.<.<.<.<.<.<.<.<.>.>.=.X.<.<.<.<.<.<.<.<.<.<.$.$.$.] R R <.<.<.<.<.<.",
"<.<.<.<.<.<.<.R ` +.$.$.$.#.<.<.<.<.<.<.<.<.<.<.>.>.=. .<.<.<.<.<.<.<.<.<.$.$.$.] R R <.<.<.<.<.<.<.",
"<.<.<.<.<.<.<.<.R W ] @.$.#.#.#.<.<.<.<.<.<.<.<.>.>.=.} <.<.<.<.<.<.<.#.#.$.@._ R R <.<.<.<.<.<.<.<.",
"<.<.<.<.<.<.<.<.<.R R ^ ..$.#.#.#.#.#.<.<.<.<.=.>.>.*.[ <.<.<.<.#.#.#.#.#...^ R R <.<.<.<.<.<.<.<.<.",
"<.<.<.<.<.<.<.<.<.<.R R R ^ +.#.#.#.#.#.#.#.#.=.>.>.%.| W o.#.#.#.#.#.O.^ R R R <.<.<.<.<.<.<.<.<.<.",
"<.<.<.<.<.<.<.<.<.<.<.<.R R ^ +.#.#.*.;.;.-.-.-.>.:.-.=.=.-.*.#.#.@._ R R R <.<.<.<.<.<.<.<.<.<.<.<.",
"<.<.<.<.<.<.<.<.<.<.<.<.<.R R  .#.*.>.>.,.>.>.>.>.>.>.>.>.>.>.*.o.^ R R R <.<.<.<.<.<.<.<.<.<.<.<.<.",
"<.<.<.<.<.<.<.<.<.<.<.<.<.<.<.<. .+.=.;.:.:.:.>.>.>.>.>.>.>.:. .W R <.<.<.<.<.<.<.<.<.<.<.<.<.<.<.<.",
"<.<.<.<.<.<.<.<.<.<.<.<.<.<.<.<.<.<.<.'  .+.@.$.%.%.%.$.+.| ` <.<.<.<.<.<.<.<.<.<.<.<.<.<.<.<.<.<.<."
};
