/* XPM */
static char *_9[] = {
/* columns rows colors chars-per-pixel */
"50 50 152 2 ",
"   c #434343",
".  c #444444",
"X  c #484848",
"o  c #494949",
"O  c gray29",
"+  c #4B4B4B",
"@  c #4C4C4C",
"#  c gray30",
"$  c #4E4E4E",
"%  c gray31",
"&  c #505050",
"*  c #515151",
"=  c gray32",
"-  c #535353",
";  c gray33",
":  c #555555",
">  c #565656",
",  c gray34",
"<  c gray35",
"1  c #5A5A5A",
"2  c #5B5B5B",
"3  c gray36",
"4  c #5D5D5D",
"5  c gray37",
"6  c #5F5F5F",
"7  c #606060",
"8  c gray38",
"9  c #626262",
"0  c gray39",
"q  c #646464",
"w  c #656565",
"e  c #686868",
"r  c #6A6A6A",
"t  c gray42",
"y  c #6C6C6C",
"u  c #6D6D6D",
"i  c gray43",
"p  c #717171",
"a  c #727272",
"s  c gray45",
"d  c #767676",
"f  c #797979",
"g  c gray48",
"h  c #7B7B7B",
"j  c gray49",
"k  c #7E7E7E",
"l  c #808080",
"z  c #818181",
"x  c gray52",
"c  c gray53",
"v  c #888888",
"b  c #898989",
"n  c #8B8B8B",
"m  c gray55",
"M  c gray56",
"N  c #909090",
"B  c #929292",
"V  c gray58",
"C  c #959595",
"Z  c gray60",
"A  c #9A9A9A",
"S  c #9B9B9B",
"D  c #9D9D9D",
"F  c gray62",
"G  c #9F9F9F",
"H  c #A0A0A0",
"J  c gray63",
"K  c #A2A2A2",
"L  c gray64",
"P  c #A4A4A4",
"I  c #A5A5A5",
"U  c #A9A9A9",
"Y  c #AAAAAA",
"T  c gray67",
"R  c #ACACAC",
"E  c #AFAFAF",
"W  c #B1B1B1",
"Q  c #B2B2B2",
"!  c gray70",
"~  c #B4B4B4",
"^  c gray71",
"/  c #B6B6B6",
"(  c gray72",
")  c #B9B9B9",
"_  c gray73",
"`  c #BBBBBB",
"'  c #BCBCBC",
"]  c gray74",
"[  c gray75",
"{  c #C0C0C0",
"}  c #C1C1C1",
"|  c gray76",
" . c gray77",
".. c #C5C5C5",
"X. c #C6C6C6",
"o. c gray78",
"O. c #C8C8C8",
"+. c #CACACA",
"@. c #CBCBCB",
"#. c gray80",
"$. c #CDCDCD",
"%. c #CECECE",
"&. c gray81",
"*. c #D0D0D0",
"=. c gray82",
"-. c #D2D2D2",
";. c LightGray",
":. c gray83",
">. c #D5D5D5",
",. c gray84",
"<. c #D7D7D7",
"1. c #D8D8D8",
"2. c gray85",
"3. c #DADADA",
"4. c gray86",
"5. c gainsboro",
"6. c #DDDDDD",
"7. c gray87",
"8. c #DFDFDF",
"9. c #E0E0E0",
"0. c #E1E1E1",
"q. c #E2E2E2",
"w. c gray89",
"e. c #E4E4E4",
"r. c #E5E5E5",
"t. c #E6E6E6",
"y. c #E7E7E7",
"u. c gray91",
"i. c #E9E9E9",
"p. c #EAEAEA",
"a. c gray92",
"s. c #ECECEC",
"d. c gray93",
"f. c #EEEEEE",
"g. c #EFEFEF",
"h. c #F0F0F0",
"j. c #F1F1F1",
"k. c #F2F2F2",
"l. c #F3F3F3",
"z. c #F4F4F4",
"x. c #F5F5F5",
"c. c #F6F6F6",
"v. c gray97",
"b. c #F8F8F8",
"n. c #F9F9F9",
"m. c gray98",
"M. c #FBFBFB",
"N. c gray99",
"B. c #FDFDFD",
"V. c #FEFEFE",
"C. c white",
"Z. c None",
/* pixels */
"Z.Z.Z.Z.Z.Z.Z.Z.Z.Z.Z.Z.Z.Z.Z.Z.Z.Z.Z.Z.Z.6.5.6.5.6.6.5.Z.Z.Z.Z.Z.Z.Z.Z.Z.Z.Z.Z.Z.Z.Z.Z.Z.Z.Z.Z.Z.Z.",
"Z.Z.Z.Z.Z.Z.Z.Z.Z.Z.Z.Z.Z.Z.Z.Z.Z.6.5.6.5.5.5.6.4.4.5.5.5.5.5.5.5.Z.Z.Z.Z.Z.Z.Z.Z.Z.Z.Z.Z.Z.Z.Z.Z.Z.",
"Z.Z.Z.Z.Z.Z.Z.Z.Z.Z.Z.Z.Z.Z.Z.5.5.5.5.6.7.6.w.y.a.e.7.q.8.5.7.6.4.5.5.5.Z.Z.Z.Z.Z.Z.Z.Z.Z.Z.Z.Z.Z.Z.",
"Z.Z.Z.Z.Z.Z.Z.Z.Z.Z.Z.Z.Z.6.6.5.5.5.7.s.k.k.z.v.c.v.z.k.z.j.d.d.y.9.4.4.6.6.Z.Z.Z.Z.Z.Z.Z.Z.Z.Z.Z.Z.",
"Z.Z.Z.Z.Z.Z.Z.Z.Z.Z.Z.6.6.6.4.4.0.u.j.v.v.b.v.b.Z.v.Z.v.v.v.v.c.z.l.g.e.5.4.6.Z.Z.Z.Z.Z.Z.Z.Z.Z.Z.Z.",
"Z.Z.Z.Z.Z.Z.Z.Z.Z.Z.6.5.5.5.0.a.l.v.v.Z.Z.Z.Z.Z.Z.Z.Z.v.c.v.v.Z.v.c.c.x.s.8.5.5.Z.Z.Z.Z.Z.Z.Z.Z.Z.Z.",
"Z.Z.Z.Z.Z.Z.Z.Z.Z.5.5.4.w.s.l.c.Z.Z.Z.Z.Z.Z.Z.Z.Z.Z.r.f.h.l.v.Z.Z.Z.Z.v.x.p.7.3.4.5.Z.Z.Z.Z.Z.Z.Z.Z.",
"Z.Z.Z.Z.Z.Z.Z.Z.5.5.6.e.z.c.v.Z.Z.Z.Z.Z.Z.Z.Z.Z.8.5.9.6.7.u.g.Z.Z.Z.Z.Z.v.b.x.s.9.4.6.Z.Z.Z.Z.Z.Z.Z.",
"Z.Z.Z.Z.Z.Z.5.5.5.5.p.z.b.Z.Z.Z.Z.Z.Z.Z.Z.0.9.r.:.;.W %.e.7.5.Z.Z.Z.g.x.v.v.c.c.h.q.5.6.Z.Z.Z.Z.Z.Z.",
"Z.Z.Z.Z.Z.Z.5.5.6.y.c.v.Z.Z.Z.Z.Z.Z.Z.t.q.6.) v < 4 , @ B ,.5.Z.Z.8.q.r.h.v.c.v.v.h.q.5.6.Z.Z.Z.Z.Z.",
"Z.Z.Z.Z.Z.6.6.3.u.x.v.Z.Z.Z.Z.Z.Z.0.q.;.U c * @ - = - - q +.7.5.5.6.7.6.t.x.Z.Z.c.v.g.7.5.Z.Z.Z.Z.Z.",
"Z.Z.Z.Z.5.5.5.7.z.Z.Z.Z.Z.Z.Z.Z.Z.6.-.g ; = - - Z.Z.Z.Z., L 8.5.5.;.O.u.q.Z.Z.Z.Z.b.v.s.6.5.Z.Z.Z.Z.",
"Z.Z.Z.5.5.4.w.f.v.Z.Z.Z.Z.Z.Z.Z.w.$.m # * - Z.Z.Z.Z.Z.Z.# Q q.w.( z = r H [ Z.Z.Z.Z.v.z.w.5.6.Z.Z.Z.",
"Z.Z.Z.6.5.4.j.c.Z.Z.Z.Z.Z.Z.Z.Z.4.B < * Z.Z.Z.Z.Z.Z.Z.Z.0 7.5.q.u - * % O 6 Y Z.Z.Z.Z.v.g.6.5.Z.Z.Z.",
"Z.Z.Z.5.5.q.v.v.Z.Z.Z.Z.Z.Z.Z.Z.' e & Z.Z.Z.Z.Z.Z.$ + z E w.0.| X Z.Z.Z.- - v 1.Z.Z.Z.v.z.q.5.6.Z.Z.",
"Z.Z.6.5.7.g.b.Z.Z.Z.Z.Z.Z.Z.Z.0.Z 2 * Z.Z.Z.Z.- & 7 j -.4.6.w.n Z.Z.Z.Z.Z.= 7 -.w.Z.Z.Z.v.s.6.5.Z.Z.",
"Z.Z.5.7.p.v.Z.Z.Z.Z.Z.Z.Z.Z.Z.4.E & Z.Z.Z.# 8 v Q { 1.e.5.5.2.n Z.Z.Z.Z.Z.Z.1 ~ m.Z.Z.Z.c.l.8.5.6.Z.",
"Z.6.4.e.k.b.Z.Z.Z.Z.Z.Z.Z.Z.r.] g X Z.Z.: t o.j.x.c.l.a.e.6.7.I Z.Z.Z.Z.Z.Z.@ l g.v.Z.Z.Z.x.t.4.6.Z.",
"Z.0.a.j.c.m.V.c.j.Z.Z.Z.Z.Z.<.w ; Z.+ 3 A ,.C.k.x.c.c.v.c.f.q. .7 Z.Z.Z.Z.Z.Z.e 0.l.x.Z.Z.b.h.8.5.6.",
"Z.d.v.M.y.Q } i.a.9.5.6.6.8.| r X Z.k { z.s.x.x.v.n.M.b.c.v.x.>.6 Z.Z.Z.Z.Z.= 7 ) 9.r.Z.Z.Z.x.w.6.6.",
"0.x.v.C.M %   4 C =.t.0.5.5.:.K s C =.n.d.j.v.m.B.C.C.C.B.b.v.q.d $ Z.Z.Z.Z.- : =.8.Z.Z.Z.Z.v.a.5.5.",
"y.v.c.x.F Z.- * o & h ` q.r.7.:.} -.e.7.j.c.M.C.C.C.C.C.C.M.c.l.s & Z.Z.Z.Z.@ h t.6.Z.Z.Z.Z.v.h.7.5.",
"h.c.c.n.h.Z.Z.Z.Z.- + O w J 1.u.q.5.5.9.c.v.C.C.C.C.C.C.C.C.m.j.G $ Z.Z.Z.- O _ q.Z.Z.Z.Z.Z.Z.x.5.5.",
"s.c.c.v.Z.Z.Z.Z.Z.Z.Z.- % X : n o.0.6.e.l.m.C.C.C.C.C.C.C.C.m.C.S & Z.Z.Z.* w q.6.Z.Z.Z.Z.Z.v.k.9.5.",
"a.b.c.c.z.Z.Z.Z.Z.Z.Z.Z.Z.- - & 0 T 6.7.z.m.C.C.C.C.C.C.C.C.M.l.I : Z.Z.= $ P r.5.Z.Z.Z.Z.Z.Z.v.8.5.",
"s.c.c.c.Z.Z.Z.Z.Z.Z.Z.Z.Z.Z.Z.Z.= t ^ w.j.v.V.C.C.C.C.C.C.V.m.j.G O - Z.; 7 <.6.Z.Z.Z.Z.Z.Z.Z.x.e.5.",
"r.b.c.c.c.Z.Z.Z.Z.Z.Z.Z.Z.Z.Z.Z.Z.Z.- R a.c.m.V.C.C.C.C.C.N.v.f.f % Z.Z.7 F r.6.Z.Z.Z.Z.Z.Z.Z.v.t.4.",
"t.z.c.c.c.Z.Z.Z.Z.Z.Z.Z.Z.Z.Z.Z.Z.Z.Z.y @.x.b.B.C.C.C.B.m.b.j.8.F - Z.+ N &.9.Z.Z.Z.Z.Z.Z.Z.Z.x.6.5.",
"8.l.c.v.d.Z.Z.Z.Z.Z.Z.Z.Z.Z.Z.Z.Z.Z.Z.: D j.n.C.V.N.n.v.v.c.t.6.#.b p V 5.7.Z.Z.Z.Z.Z.Z.Z.Z.Z.h.6.5.",
"8.d.c.c.p.Z.Z.Z.Z.Z.Z.Z.Z.Z.Z.Z.Z.Z.Z.$ a t.V.C.N.v.x.b.k.r.*.$. .;.3.9.r.5.Z.Z.Z.Z.Z.Z.Z.Z.v.j.8.5.",
"6.y.x.v.j.Z.Z.Z.Z.Z.Z.Z.Z.Z.Z.Z.Z.Z.Z.Z.y V.V.V.M.c.b.$.` M h 1 u x R / 3.s.Z.Z.Z.Z.Z.Z.Z.Z.v.k.5.6.",
"Z.9.z.c.c.u.Z.Z.Z.Z.Z.Z.Z.Z.Z.Z.Z.Z.Z.Z.:.V.C.V.b.q.` 6 - Z.Z.Z.# & 5 2 1 c ..i.Z.Z.Z.Z.Z.Z.b.u.4.6.",
"Z.6.p.c.c.j.Z.Z.Z.Z.Z.Z.Z.Z.Z.Z.Z.Z.Z.Z.Z.V.C.B.s.N 7 o Z.Z.Z.Z.Z.Z.& = = @ - l X.h.Z.Z.Z.Z.x.6.5.Z.",
"Z.5.q.z.c.c.Z.Z.Z.Z.Z.Z.Z.Z.Z.Z.Z.Z.Z.Z.Z.C.V.v.-.: Z.Z.Z.Z.Z.Z.Z.Z.Z.Z.- - - 2 N w.C.b.c.b.d.4.5.Z.",
"Z.Z.7.j.c.c.x.Z.Z.Z.Z.Z.Z.Z.Z.Z.Z.Z.Z.Z.C.V.C.t.1.Z.Z.Z.Z.Z.Z.Z.Z.Z.Z.Z.Z.Z.- & # i ) l.m.b.0.5.Z.Z.",
"Z.Z.7.u.c.v.v.c.Z.Z.Z.Z.Z.Z.Z.Z.Z.Z.Z.Z.C.V.m.7.Z.Z.Z.Z.Z.Z.Z.Z.Z.Z.Z.Z.Z.Z.Z.Z.- & - M y.j.4.5.Z.Z.",
"Z.Z.Z.5.i.x.c.c.Z.Z.Z.Z.Z.Z.Z.Z.Z.Z.Z.V.C.B.x.e.Z.Z.Z.Z.Z.Z.Z.Z.Z.Z.Z.Z.Z.Z.Z.Z.Z.Z.Z., 7.i.4.6.Z.Z.",
"Z.Z.Z.5.8.g.c.x.Z.Z.Z.Z.Z.Z.Z.Z.Z.Z.Z.V.V.M.j.Z.Z.Z.Z.Z.Z.Z.Z.Z.Z.Z.Z.Z.Z.Z.Z.Z.Z.Z.Z.9 x.i.6.Z.Z.Z.",
"Z.Z.Z.Z.6.w.l.v.x.c.Z.Z.Z.Z.Z.Z.Z.Z.Z.C.B.n.g.Z.Z.Z.Z.Z.Z.Z.Z.Z.Z.Z.Z.Z.Z.Z.Z.Z.Z.Z.. C j.p.4.Z.Z.Z.",
"Z.Z.Z.Z.6.4.q.l.x.x.Z.Z.Z.Z.Z.Z.Z.Z.C.C.N.z.Z.Z.Z.Z.Z.Z.Z.Z.Z.Z.Z.Z.Z.Z.Z.Z.Z.Z.Z.= > <.s.0.Z.Z.Z.Z.",
"Z.Z.Z.Z.Z.6.6.f.x.x.c.c.Z.Z.Z.Z.Z.Z.C.V.m.k.Z.Z.Z.Z.Z.Z.Z.Z.Z.Z.Z.Z.Z.Z.Z.Z.Z.Z.Z.d ! x.e.Z.Z.Z.Z.Z.",
"Z.Z.Z.Z.Z.Z.4.y.x.x.x.x.Z.Z.Z.Z.Z.B.C.B.x.g.Z.Z.Z.Z.Z.Z.Z.Z.Z.Z.Z.Z.Z.Z.Z.Z.Z.p ` w.j.e.Z.Z.Z.Z.Z.Z.",
"Z.Z.Z.Z.Z.Z.Z.p.z.c.v.n.v.x.Z.Z.M.V.V.M.g.Z.Z.Z.Z.Z.Z.Z.Z.Z.Z.Z.Z.Z.Z.Z.Z.Z.$.2.M.k.w.5.Z.Z.Z.Z.Z.Z.",
"Z.Z.Z.Z.Z.Z.Z.Z.h.v.V.V.B.m.b.n.B.C.B.c.a.Z.Z.Z.Z.Z.Z.Z.Z.Z.Z.Z.Z.Z.Z.Z.F 5.k.c.p.9.6.Z.Z.Z.Z.Z.Z.Z.",
"Z.Z.Z.Z.Z.Z.Z.Z.Z.x.N.V.C.V.N.M.V.C.m.g.Z.Z.Z.Z.Z.Z.Z.Z.Z.Z.Z.Z.Z.Z.c.m.c.M.h.e.5.7.Z.Z.Z.Z.Z.Z.Z.Z.",
"Z.Z.Z.Z.Z.Z.Z.Z.Z.Z.p.x.N.V.V.V.V.B.m.k.7.g.Z.Z.Z.Z.Z.Z.Z.Z.Z.v.v.v.b.x.f.r.8.5.Z.Z.Z.Z.Z.Z.Z.Z.Z.Z.",
"Z.Z.Z.Z.Z.Z.Z.Z.Z.Z.Z.d.z.v.N.V.V.V.B.N.m.v.c.x.x.x.x.c.c.v.v.v.c.l.s.r.6.5.6.Z.Z.Z.Z.Z.Z.Z.Z.Z.Z.Z.",
"Z.Z.Z.Z.Z.Z.Z.Z.Z.Z.Z.Z.Z.Z.c.b.M.V.C.V.V.N.v.x.x.x.c.x.c.z.z.d.u.9.6.4.5.Z.Z.Z.Z.Z.Z.Z.Z.Z.Z.Z.Z.Z.",
"Z.Z.Z.Z.Z.Z.Z.Z.Z.Z.Z.Z.Z.Z.Z.Z.c.v.m.B.C.C.n.x.k.s.p.y.w.e.9.7.4.5.6.Z.Z.Z.Z.Z.Z.Z.Z.Z.Z.Z.Z.Z.Z.Z.",
"Z.Z.Z.Z.Z.Z.Z.Z.Z.Z.Z.Z.Z.Z.Z.Z.Z.Z.z.g.h.l.i.w.8.6.4.5.5.5.5.5.Z.Z.Z.Z.Z.Z.Z.Z.Z.Z.Z.Z.Z.Z.Z.Z.Z.Z."
};
