/* XPM */
static char *_0[] = {
/* columns rows colors chars-per-pixel */
"50 50 162 2 ",
"   c gray25",
".  c #4B4B4B",
"X  c #4C4C4C",
"o  c #4E4E4E",
"O  c gray31",
"+  c #505050",
"@  c #515151",
"#  c gray32",
"$  c #535353",
"%  c gray33",
"&  c #555555",
"*  c #565656",
"=  c gray34",
"-  c #585858",
";  c #595959",
":  c #5A5A5A",
">  c #5B5B5B",
",  c gray36",
"<  c #5D5D5D",
"1  c gray37",
"2  c #5F5F5F",
"3  c #606060",
"4  c gray38",
"5  c #626262",
"6  c gray39",
"7  c #646464",
"8  c #656565",
"9  c gray40",
"0  c #676767",
"q  c #686868",
"w  c DimGray",
"e  c #6A6A6A",
"r  c gray42",
"t  c #6C6C6C",
"y  c #6D6D6D",
"u  c gray43",
"i  c #6F6F6F",
"p  c gray44",
"a  c #717171",
"s  c #727272",
"d  c gray45",
"f  c gray46",
"g  c #767676",
"h  c #777777",
"j  c gray47",
"k  c #797979",
"l  c gray48",
"z  c #7B7B7B",
"x  c #7C7C7C",
"c  c gray49",
"v  c #7E7E7E",
"b  c gray50",
"n  c #808080",
"m  c #818181",
"M  c gray51",
"N  c #838383",
"B  c gray52",
"V  c #868686",
"C  c gray53",
"Z  c #898989",
"A  c gray54",
"S  c #8B8B8B",
"D  c gray55",
"F  c #8D8D8D",
"G  c #8E8E8E",
"H  c gray57",
"J  c #929292",
"K  c #939393",
"L  c gray58",
"P  c #959595",
"I  c #979797",
"U  c #989898",
"Y  c #9A9A9A",
"T  c #9B9B9B",
"R  c #9D9D9D",
"E  c #9F9F9F",
"W  c gray63",
"Q  c #A2A2A2",
"!  c gray64",
"~  c #A5A5A5",
"^  c gray65",
"/  c gray66",
"(  c #A9A9A9",
")  c #AAAAAA",
"_  c gray67",
"`  c #ACACAC",
"'  c #AFAFAF",
"]  c #B1B1B1",
"[  c #B2B2B2",
"{  c gray70",
"}  c #B4B4B4",
"|  c gray71",
" . c #B6B6B6",
".. c #B7B7B7",
"X. c #B9B9B9",
"o. c gray73",
"O. c #BBBBBB",
"+. c #BCBCBC",
"@. c gray74",
"#. c gray",
"$. c gray75",
"%. c #C0C0C0",
"&. c gray76",
"*. c #C3C3C3",
"=. c gray77",
"-. c #C6C6C6",
";. c gray78",
":. c #C8C8C8",
">. c gray79",
",. c #CACACA",
"<. c #CBCBCB",
"1. c gray80",
"2. c #CECECE",
"3. c gray81",
"4. c #D0D0D0",
"5. c gray82",
"6. c #D2D2D2",
"7. c LightGray",
"8. c #D5D5D5",
"9. c gray84",
"0. c #D7D7D7",
"q. c #D8D8D8",
"w. c gray85",
"e. c #DADADA",
"r. c gray86",
"t. c gainsboro",
"y. c #DDDDDD",
"u. c #DEDEDE",
"i. c #DFDFDF",
"p. c #E0E0E0",
"a. c #E1E1E1",
"s. c #E2E2E2",
"d. c gray89",
"f. c #E4E4E4",
"g. c gray90",
"h. c #E6E6E6",
"j. c #E7E7E7",
"k. c gray91",
"l. c #E9E9E9",
"z. c #EAEAEA",
"x. c gray92",
"c. c #ECECEC",
"v. c #EDEDED",
"b. c #EEEEEE",
"n. c #EFEFEF",
"m. c gray94",
"M. c #F1F1F1",
"N. c #F2F2F2",
"B. c #F3F3F3",
"V. c #F4F4F4",
"C. c gray96",
"Z. c #F6F6F6",
"A. c #F7F7F7",
"S. c #F8F8F8",
"D. c #F9F9F9",
"F. c gray98",
"G. c #FBFBFB",
"H. c gray99",
"J. c #FDFDFD",
"K. c #FEFEFE",
"L. c white",
"P. c None",
/* pixels */
"P.P.P.P.P.P.P.P.P.P.P.P.P.P.P.P.P.P.P.P.P.P.P.P.P.r.P.P.P.P.P.P.P.P.P.P.P.P.P.P.P.P.P.P.P.P.P.P.P.P.",
"P.P.P.P.P.P.P.P.P.P.P.P.P.P.P.P.P.P.r.t.r.t.t.r.r.t.r.t.t.e.r.r.P.P.P.P.P.P.P.P.P.P.P.P.P.P.P.P.P.P.",
"P.P.P.P.P.P.P.P.P.P.P.P.P.P.P.P.r.r.r.t.r.t.t.y.t.y.y.y.i.y.r.r.t.r.r.P.P.P.P.P.P.P.P.P.P.P.P.P.P.P.",
"P.P.P.P.P.P.P.P.P.P.P.P.P.e.r.t.r.t.u.p.f.h.j.j.j.k.z.x.v.z.f.s.a.u.t.r.r.P.P.P.P.P.P.P.P.P.P.P.P.P.",
"P.P.P.P.P.P.P.P.P.P.P.P.r.r.r.t.p.f.x.n.M.N.B.N.B.B.B.C.C.V.M.M.n.z.p.t.t.r.t.P.P.P.P.P.P.P.P.P.P.P.",
"P.P.P.P.P.P.P.P.P.P.t.t.t.t.e.k.c.M.C.Z.P.P.P.P.P.P.P.P.P.P.P.C.V.V.v.g.p.e.t.y.P.P.P.P.P.P.P.P.P.P.",
"P.P.P.P.P.P.P.P.P.t.t.r.y.f.x.S.A.P.P.P.P.P.P.P.P.P.P.P.P.P.P.P.P.C.V.N.N.g.u.t.t.y.P.P.P.P.P.P.P.P.",
"P.P.P.P.P.P.P.P.r.r.t.a.c.M.B.P.P.P.P.P.P.P.P.P.P.P.P.P.P.P.P.P.P.P.Z.Z.C.M.x.g.u.r.r.P.P.P.P.P.P.P.",
"P.P.P.P.P.P.P.t.t.y.i.M.S.V.P.P.P.P.P.P.P.P.P.P.P.f.d.P.P.P.P.P.P.P.N.V.C.V.Z.N.l.t.t.y.P.P.P.P.P.P.",
"P.P.P.P.P.P.u.r.a.k.b.C.P.P.P.P.P.P.P.P.P.P.P.e.r.3.2.8.;.>.2.r.0.t.f.v.B.B.C.V.M.z.u.t.y.P.P.P.P.P.",
"P.P.P.P.P.s.k.j.n.Z.D.P.P.P.P.P.P.P.P.P.P.P.6.<._ F B V l c m I _ -.r.s.c.P.P.P.Z.Z.c.t.t.P.P.P.P.P.",
"P.P.P.P.h.n.B.N.M.V.Z.P.P.P.P.P.P.P.P.P.P.>./ Z 8 ; $ % $ # # : 4 n =.r.p.P.P.P.P.C.M.g.t.e.P.P.P.P.",
"P.P.P.P.m.Z.Z.x.:.1.n.N.P.P.P.P.P.P.P.P.>.T u : + P.P.P.@ + @ + @ , W 8.e.P.P.P.P.C.B.z.y.r.t.P.P.P.",
"P.P.P.M.Z.Z.F. .d a ` a.f.s.P.P.P.P.P.7.] p = @ P.P.P.P.P.P.P.P.P.1 E 0.t.P.P.P.n.C.C.A.g.e.r.P.P.P.",
"P.P.h.m.C.C.v.o.P.@ 6 ! q.y.t.P.P.P.,.X.G < @ P.P.P.P.P.P.P.P.P.P.5 ^ 8.e.e.r.i.h.M.C.C.M.f.r.e.P.P.",
"P.P.l.A.Z.A.D.P.P.P.@ X ~ h.t.t.u.y.A e O P.P.P.P.P.P.P.P.P.P.P.> B ;.r.r.0.9.t.i.x.B.C.C.N.a.t.P.P.",
"P.P.b.V.Z.V.V.P.P.P.P.@ 5 Q 0.r.q.+.g * $ # * > : i h g w q t C U ;.t.t.*.) ^ -.y.h.N.Z.C.N.h.t.e.P.",
"P.g.n.Z.C.V.P.P.P.P.P.P.@ 5 Q 0.w.*.D 0 f M S T ( :.<.1.+.' X.,.5.t.t.#.m q 1 b @.9.P.P.C.C.c.i.e.P.",
"P.g.C.C.C.V.P.P.P.P.P.P.P.@ 5 Q 0.7.X._ ..S.k.V.m.Z.Z.V.C.x.a.t.t.t.*.m P.P.@ # h ) P.P.P.C.M.d.y.P.",
"P.j.N.C.V.V.P.P.P.P.P.P.P.P.@ 5 ! 0.0.8.r.g.z.n.N.V.C.C.C.B.x.a.t.3.T P.P.P.P.@ * N P.P.P.V.N.h.r.r.",
"u.k.N.V.m.P.P.P.P.P.P.P.P.P.P.$ 0 ) f.t.r.d.Z.C.D.F.G.F.D.Z.A.c.t.:.H P.P.P.P.+ * c $.P.P.P.B.l.y.t.",
"y.k.B.B.x.P.P.P.P.P.P.P.P.P.P.P.& g O.e.p.v.C.D.H.K.K.J.H.F.A.B.h.&.z P.P.P.P.P.% v :.P.P.P.C.x.u.r.",
"u.l.V.B.c.P.P.P.P.P.P.P.P.P.P.P.P.7 ! 0.d.M.D.K.K.L.L.L.K.J.D.C.c.X.u P.P.P.P.P.; G 8.P.P.P.C.c.u.e.",
"y.l.B.B.b.P.P.P.P.P.P.P.P.P.P.P.P.P.8 6.c.A.J.L.L.L.L.L.L.L.H.A.N.E = P.P.P.P.P., I g.M.P.P.C.x.u.r.",
"u.k.B.B.b.P.P.P.P.P.P.P.P.P.P.P.P.P.P.` z.A.J.L.L.L.L.L.L.L.K.D.B.x X P.P.P.P.P.; T k.B.P.P.C.c.u.r.",
"u.x.C.V.N.P.P.P.P.P.P.P.P.P.P.P.P.P., Y p.V.F.K.L.L.L.L.L.L.H.V.5.g % P.P.P.P.P.4 ) h.N.P.P.Z.v.i.t.",
"u.z.V.C.Z.P.P.P.P.P.P.P.P.P.P.P.P.P.; H i.C.F.J.K.L.L.L.L.J.D.V.o.9 @ P.P.P.@ $ d +.i.l.P.P.B.c.u.r.",
"r.g.N.C.C.P.P.P.P.P.P.P.P.P.P.P.P.P.- L d.S.H.J.K.K.K.K.K.G.A.u.K : P.P.P.# @ t ] r.r.P.P.P.B.c.i.r.",
"y.s.m.V.C.P.P.P.P.P.P.P.P.P.P.P.P.P.r o.V.H.J.H.G.G.G.G.F.A.v.+.i o P.P.$ O & @.h.w.P.P.P.P.V.x.u.t.",
"y.u.m.A.C.P.P.P.P.P.P.P.P.P.P.P.P.P.6.L.K.L.J.D.Z.A.A.A.S.M.d.k X % P.# @ ; #.h.t.P.P.P.P.P.C.x.y.t.",
"t.u.z.V.V.P.P.P.P.P.P.P.P.P.P.P.P.P.P.H.J.G.Z.N.M.b.b.b.l.i.-.l * P.# , g [ r.r.P.P.P.P.P.P.V.l.y.r.",
"P.t.f.N.V.C.P.P.P.P.P.P.P.P.P.P.P.P.L.J.G.N.p.3.#.[ #.=.;.4.:.K 3 ; e Z X.e.r.P.P.P.P.P.P.P.B.h.t.r.",
"P.r.s.m.V.Z.P.P.P.P.P.P.P.P.P.P.P.J.J.G.m.q.R x y 4 p k v J [ %.^ T { -.r.r.P.P.P.P.P.P.P.B.n.p.r.P.",
"P.y.f.m.C.Z.P.P.P.P.P.P.P.P.P.P.L.L.K.S.e.$.  P.P.P.P.P.P.o s { y.x.p.u.P.P.P.P.P.P.P.P.P.S.c.u.r.P.",
"P.P.x.C.C.C.Z.P.P.P.P.P.P.P.P.L.L.J.D.s.P.P.P.P.P.P.P.P.P.P.O g P t.p.P.P.P.P.P.P.P.P.P.P.Z.j.t.r.P.",
"P.P.v.B.Z.C.C.P.P.P.P.P.P.P.J.J.G.Z.n.P.P.P.P.P.P.P.P.P.P.P.P.= < b O.P.P.P.P.P.P.P.P.P.V.n.s.r.P.P.",
"P.P.b.B.D.D.A.C.P.P.P.P.P.J.J.G.Z.N.P.P.P.P.P.P.P.P.P.P.P.P.P.+ # $ g | P.P.P.P.P.P.P.P.M.g.r.t.P.P.",
"P.P.P.Z.J.K.J.S.C.P.P.G.L.L.J.D.N.P.P.P.P.P.P.P.P.P.P.P.P.P.P.P.$ $ O c t.P.P.P.P.P.P.A.v.y.y.P.P.P.",
"P.P.P.h.Z.L.L.H.S.S.H.L.K.J.D.N.P.P.P.P.P.P.P.P.P.P.P.P.P.P.P.P.P.$ # 6 ] n.P.P.P.P.Z.A.z.t.y.P.P.P.",
"P.P.P.P.v.D.K.K.G.H.L.L.J.D.m.P.P.P.P.P.P.P.P.P.P.P.P.P.P.P.P.P.P.P.# O I A.Z.P.P.P.S.b.t.t.P.P.P.P.",
"P.P.P.P.P.B.D.J.J.H.H.F.C.n.P.P.P.P.P.P.P.P.P.P.P.P.P.P.P.P.P.P.P.P.P.$ q } M.Z.P.C.x.i.r.r.P.P.P.P.",
"P.P.P.P.P.P.C.F.K.J.G.Z.b.h.P.P.P.P.P.P.P.P.P.P.P.P.P.P.P.P.P.P.P.P.P.P.* j ;.N.C.x.i.r.r.P.P.P.P.P.",
"P.P.P.P.P.P.P.A.H.L.K.G.m.i.P.P.P.P.P.P.P.P.P.P.P.P.P.P.P.P.P.P.P.P.P.P.P.; [ B.v.t.t.y.P.P.P.P.P.P.",
"P.P.P.P.P.P.P.P.A.H.L.K.H.Z.C.P.P.P.P.P.P.P.P.P.P.P.P.P.P.P.P.P.P.P.P.P.P.. ,.B.t.t.y.P.P.P.P.P.P.P.",
"P.P.P.P.P.P.P.P.P.Z.G.L.K.G.Z.V.V.P.P.P.P.P.P.P.P.P.P.P.P.P.P.P.P.P.P.P.o ` D.h.y.y.P.P.P.P.P.P.P.P.",
"P.P.P.P.P.P.P.P.P.P.N.D.L.J.Z.C.C.Z.P.P.P.P.P.P.P.P.P.P.P.P.P.P.P.P., 2 _ k.M.p.t.P.P.P.P.P.P.P.P.P.",
"P.P.P.P.P.P.P.P.P.P.P.z.B.N.V.V.C.Z.C.C.C.Z.A.A.Z.P.P.P.L ] ] *.|  .4.0.V.z.a.r.P.P.P.P.P.P.P.P.P.P.",
"P.P.P.P.P.P.P.P.P.P.P.P.P.s.p.a.g.z.m.V.C.A.Z.A.A.A.Z.G.z.F.M.V.A.C.M.c.y.P.P.P.P.P.P.P.P.P.P.P.P.P.",
"P.P.P.P.P.P.P.P.P.P.P.P.P.P.y.t.t.t.u.s.j.z.x.c.v.v.b.v.c.x.l.j.f.a.i.i.P.P.P.P.P.P.P.P.P.P.P.P.P.P.",
"P.P.P.P.P.P.P.P.P.P.P.P.P.P.P.P.P.r.e.r.y.u.y.u.i.i.i.p.i.u.y.u.r.P.P.P.P.P.P.P.P.P.P.P.P.P.P.P.P.P."
};
