/* XPM */
static char *_1[] = {
/* columns rows colors chars-per-pixel */
"50 50 153 2 ",
"   c #434343",
".  c gray27",
"X  c #464646",
"o  c #484848",
"O  c #494949",
"+  c gray29",
"@  c #4B4B4B",
"#  c #4C4C4C",
"$  c gray30",
"%  c #4E4E4E",
"&  c gray31",
"*  c #505050",
"=  c #515151",
"-  c gray32",
";  c #535353",
":  c gray33",
">  c #555555",
",  c #565656",
"<  c gray34",
"1  c #585858",
"2  c gray35",
"3  c #5A5A5A",
"4  c #5B5B5B",
"5  c gray36",
"6  c #5D5D5D",
"7  c gray37",
"8  c #5F5F5F",
"9  c gray38",
"0  c #626262",
"q  c gray39",
"w  c #646464",
"e  c #656565",
"r  c gray40",
"t  c #676767",
"y  c #686868",
"u  c #6A6A6A",
"i  c gray42",
"p  c #6C6C6C",
"a  c #6D6D6D",
"s  c #6F6F6F",
"d  c gray44",
"f  c #717171",
"g  c gray45",
"h  c #747474",
"j  c gray46",
"k  c #767676",
"l  c gray48",
"z  c #7C7C7C",
"x  c gray49",
"c  c #7E7E7E",
"v  c #808080",
"b  c #818181",
"n  c #848484",
"m  c gray52",
"M  c #868686",
"N  c gray53",
"B  c #898989",
"V  c gray54",
"C  c #8B8B8B",
"Z  c gray55",
"A  c #8E8E8E",
"S  c #909090",
"D  c #929292",
"F  c #939393",
"G  c gray58",
"H  c #959595",
"J  c #979797",
"K  c #989898",
"L  c #9B9B9B",
"P  c gray61",
"I  c gray62",
"U  c #9F9F9F",
"Y  c #A0A0A0",
"T  c #A2A2A2",
"R  c gray64",
"E  c #A5A5A5",
"W  c gray65",
"Q  c gray67",
"!  c gray68",
"~  c gray69",
"^  c #B1B1B1",
"/  c #B2B2B2",
"(  c gray70",
")  c #B4B4B4",
"_  c gray71",
"`  c #B6B6B6",
"'  c #B7B7B7",
"]  c gray72",
"[  c gray73",
"{  c #BBBBBB",
"}  c #BCBCBC",
"|  c gray74",
" . c gray",
".. c gray75",
"X. c #C0C0C0",
"o. c gray76",
"O. c #C3C3C3",
"+. c gray77",
"@. c #C5C5C5",
"#. c gray78",
"$. c #C8C8C8",
"%. c gray79",
"&. c #CACACA",
"*. c #CDCDCD",
"=. c #CECECE",
"-. c gray81",
";. c #D0D0D0",
":. c gray82",
">. c #D2D2D2",
",. c LightGray",
"<. c gray83",
"1. c gray84",
"2. c #D8D8D8",
"3. c gray85",
"4. c #DADADA",
"5. c #DBDBDB",
"6. c gainsboro",
"7. c #DDDDDD",
"8. c gray87",
"9. c #DFDFDF",
"0. c gray88",
"q. c #E1E1E1",
"w. c #E2E2E2",
"e. c gray89",
"r. c #E4E4E4",
"t. c #E5E5E5",
"y. c #E6E6E6",
"u. c #E7E7E7",
"i. c gray91",
"p. c #E9E9E9",
"a. c #EAEAEA",
"s. c #EBEBEB",
"d. c #ECECEC",
"f. c gray93",
"g. c #EEEEEE",
"h. c #EFEFEF",
"j. c #F0F0F0",
"k. c #F1F1F1",
"l. c #F2F2F2",
"z. c #F3F3F3",
"x. c #F4F4F4",
"c. c gray96",
"v. c #F6F6F6",
"b. c gray97",
"n. c #F8F8F8",
"m. c #F9F9F9",
"M. c gray98",
"N. c #FBFBFB",
"B. c gray99",
"V. c #FDFDFD",
"C. c #FEFEFE",
"Z. c white",
"A. c None",
/* pixels */
"A.A.A.A.A.A.A.A.A.A.A.A.A.A.A.A.A.A.A.A.A.A.A.A.A.A.A.A.A.A.A.A.A.A.A.A.A.A.A.A.A.A.A.A.A.A.A.A.A.A.",
"A.A.A.A.A.A.A.A.A.A.A.A.A.A.A.A.A.A.A.7.6.6.6.6.7.7.7.6.7.6.7.A.A.A.A.A.A.A.A.A.A.A.A.A.A.A.A.A.A.A.",
"A.A.A.A.A.A.A.A.A.A.A.A.A.A.A.A.6.7.7.7.6.6.6.6.6.6.5.6.6.6.6.6.6.7.A.A.A.A.A.A.A.A.A.A.A.A.A.A.A.A.",
"A.A.A.A.A.A.A.A.A.A.A.A.A.A.7.6.6.7.6.5.9.q.7.w.i.t.u.u.q.q.6.6.6.6.6.7.6.A.A.A.A.A.A.A.A.A.A.A.A.A.",
"A.A.A.A.A.A.A.A.A.A.A.w.r.e.7.7.w.0.r.h.c.l.z.b.v.v.n.c.b.l.g.y.0.5.5.7.6.7.A.A.A.A.A.A.A.A.A.A.A.A.",
"A.A.A.A.A.A.A.A.A.A.e.g.v.x.h.h.l.c.m.b.v.b.A.A.A.A.A.A.A.n.b.c.l.d.w.8.7.7.6.7.A.A.A.A.A.A.A.A.A.A.",
"A.A.A.A.A.A.A.A.A.j.v.n.v.M.B.v.n.A.A.A.A.A.A.A.A.A.A.A.A.A.A.A.A.b.x.l.g.r.4.6.6.A.A.A.A.A.A.A.A.A.",
"A.A.A.A.A.A.A.A.i.z.v.v.M.t.[ 6.C.A.A.A.A.A.A.A.A.A.A.A.A.A.A.A.A.A.A.b.v.c.e.8.7.6.A.A.A.A.A.A.A.A.",
"A.A.A.A.A.A.A.d.v.b.v.n.q.l # f N.v.A.A.A.A.A.A.A.A.A.A.A.A.A.A.A.A.A.A.A.b.x.g.e.5.7.A.A.A.A.A.A.A.",
"A.A.A.A.A.A.t.z.v.v.v.b.A.A.; o o.h.g.A.A.A.A.A.A.A.A.A.A.A.A.A.A.A.A.A.A.A.b.v.l.9.5.6.A.A.A.A.A.A.",
"A.A.A.A.A.9.j.b.v.v.c.A.A.A.A.@ x u.9.A.A.A.A.A.A.A.A.A.0.7.r.q.s.A.A.A.A.A.A.b.b.a.6.6.7.A.A.A.A.A.",
"A.A.A.A.9.s.v.v.b.v.A.A.A.A.A.; = >.8.7.A.A.A.A.A.A.e.;.O.-.{ &.2.u.0.A.A.A.A.A.b.c.u.7.6.7.A.A.A.A.",
"A.A.A.A.w.l.v.b.v.v.A.A.A.A.A.A.o K t.6.7.A.A.w.7.#.F h s 2 < e N ] -.q.5.A.A.A.A.b.x.y.5.6.7.A.A.A.",
"A.A.A.7.i.v.v.h.A.A.A.A.A.A.A.A.* 7 9.6.8.w.:.] #.S 5 - & = - = ; @ q ! :.u.9.p.n.b.v.z.q.6.7.A.A.A.",
"A.A.A.9.l.b.b.s.A.A.A.A.A.A.A.A.; O / e.5...d 5 6 @ * : A.A.A.A.; ; * & s } 0.7.l.b.b.b.g.q.5.6.A.A.",
"A.A.6.y.c.v.x.u.A.A.A.A.A.A.A.A.A.# g t.4.^ > & A.A.A.A.A.A.A.A.A.A.; ; = 8 o.0.y.x.b.b.x.a.5.7.A.A.",
"A.A.9.j.v.v.s.A.A.A.A.A.A.A.A.A.A.; $ &.e.{ k t 3 = X ; A.A.A.A.A.A.A.A.; O m r.0.z.A.A.v.l.0.6.A.A.",
"A.6.y.c.v.c.A.A.A.A.A.A.A.A.A.A.A.A.@ S u.1.#.' #.G l 9 6 < # A.A.A.A.A.A.& A 5.6.A.A.A.b.v.a.5.6.A.",
"A.6.y.b.v.c.A.A.A.A.A.A.A.A.A.A.A.A.; q 5.7.7.f.v.l.s.8.9.Q M ; & A.A.A.; w ..e.7.A.A.A.A.v.z.7.6.A.",
"A.6.p.v.b.v.A.A.A.A.A.A.A.A.A.A.A.A.= t X.9.5.7.i.k.f.c.j.m.a.I g 2 q @ 5 L 1.6.A.A.A.A.A.v.x.r.5.6.",
"7.7.f.b.v.v.A.A.A.A.A.A.A.A.A.A.A.A.A.t >.7.t.z.b.c.b.v.v.c.n.s.=.=.[ ~ 4.t.8.6.7.5.r.h.A.b.x.e.6.7.",
"6.9.j.v.c.A.A.A.A.A.A.A.A.A.A.A.A.A.A.* &.q.h.v.m.V.V.N.m.v.v.v.w.0.7.q.7.0.t.4.5.7.8.y.v.b.b.w.5.6.",
"6.7.z.v.c.A.A.A.A.A.A.A.A.A.A.A.A.A.A.t | f.b.B.Z.Z.Z.Z.Z.B.n.b.d.8.6.q.w.%.V z Y ,.8.r.z.b.b.d.4.7.",
"6.w.z.c.v.A.A.A.A.A.A.A.A.A.A.A.A.A.A.y 3.c.n.C.Z.Z.Z.Z.Z.Z.B.v.x.9.6.+.x @ A.- # H p.r.c.v.v.c.7.6.",
"6.i.c.c.c.A.A.A.A.A.A.A.A.A.A.A.A.A.# B t.v.M.Z.Z.Z.Z.Z.Z.Z.Z.b.b.t.3.I A.A.A.A.= 4 >.w.v.b.v.x.e.5.",
"a.x.c.c.A.A.A.A.A.A.A.A.A.A.A.A.A.A.1 ` v.b.B.Z.Z.Z.Z.Z.Z.Z.C.n.v.f.[ + A.A.A.A.; + L A.A.A.b.x.w.7.",
"j.v.c.c.v.A.A.A.A.A.A.A.A.A.A.A.A.A.{ b.N.V.C.Z.Z.Z.Z.Z.Z.Z.C.b.c.*.s A.A.A.A.A.; - x 9.A.A.v.v.q.6.",
"l.m.b.c.c.A.A.A.A.A.A.A.A.A.A.A.A.b.Z.C.Z.C.C.Z.Z.Z.Z.Z.Z.Z.B.N.j.D < A.A.A.A.A.; : W A.A.A.b.x.e.6.",
"v.V.V.n.x.A.A.A.A.A.A.A.A.A.A.A.C.Z.Z.C.V.B.M.B.C.Z.Z.Z.Z.B.n.z.R + A.A.A.A.A.A.* p %.A.A.A.b.x.8.6.",
"f.V.C.B.v.A.A.A.A.A.A.A.A.A.C.Z.Z.C.C.V.m.b.c.v.n.N.B.V.B.N.c.O.r - A.A.A.A.A.A.< T q.A.A.A.b.g.8.6.",
"a.N.Z.V.n.A.A.A.A.A.A.Z.C.C.Z.C.Z.N.k.a.9.u.b.v.b.v.n.n.c.h...p = A.A.A.A.A.A.A.u p.l.A.A.A.b.s.6.7.",
"h.b.C.V.M.v.A.A.B.C.Z.Z.C.V.B.m.s.4.-.n t Z N =.u.k.j.p.e.E 8 % A.A.A.A.A.A.; 5 / B.b.A.A.b.c.t.6.7.",
"A.c.V.C.N.B.C.C.Z.Z.C.V.N.n.k.s.7.A.A.A.A.+ % i J =.6.6.] 2 = ; A.A.A.; ; # & b >.z.b.A.A.n.g.8.6.6.",
"A.x.N.Z.C.C.Z.Z.C.B.M.v.z.k.A.A.A.A.A.A.A.A.A.A.O i _ 7.H $ A.A.A.; - + - v X.e.9.s.A.A.A.v.p.5.6.A.",
"A.A.n.C.C.V.B.N.n.z.j.j.A.A.A.A.A.A.A.A.A.A.A.A.A.# a ) ,.A.. ; 4 , t I <.u.q.7.A.A.A.A.A.k.0.6.7.A.",
"A.A.b.V.C.B.b.g.a.A.A.A.A.A.A.A.A.A.A.A.A.A.A.A.A.A.: D 5.( U P L  .0.y.8.6.A.A.A.A.A.A.b.s.6.6.A.A.",
"A.A.A.m.Z.V.n.q.A.A.A.A.A.A.A.A.A.A.A.A.A.A.A.A.A.A.# j ) a.y.4.e.w.6.6.A.A.A.A.A.A.A.A.c.t.6.6.A.A.",
"A.A.A.b.C.C.B.g.A.A.A.A.A.A.A.A.A.A.A.A.A.A.A.A.A.A.A., s 8.6.A.A.A.A.A.A.A.A.A.A.A.A.b.f.7.6.A.A.A.",
"A.A.A.l.n.Z.V.n.c.A.A.A.A.A.A.A.A.A.A.A.A.A.A.A.A.A.A.; # ! A.A.A.A.A.A.A.A.A.A.A.A.b.x.e.6.7.A.A.A.",
"A.A.A.A.g.Z.C.b.c.A.A.A.A.A.A.A.A.A.A.A.A.A.A.A.A.A.A.; & i s.A.A.A.A.A.A.A.A.A.A.A.n.g.8.6.6.A.A.A.",
"A.A.A.A.r.k.v.v.c.c.c.A.A.A.A.A.A.A.A.A.A.A.A.A.A.A.A.; ; > @.A.A.A.A.A.A.A.A.A.A.b.a.6.6.7.A.A.A.A.",
"A.A.A.A.A.A.e.h.v.c.v.A.A.A.A.A.A.A.A.A.A.A.A.A.A.A.A.A.- 4 Y A.A.A.A.A.A.A.A.A.b.k.0.6.7.A.A.A.A.A.",
"A.A.A.A.A.A.6.8.i.k.v.c.v.A.A.A.A.A.A.A.A.A.A.A.A.A.A.A.- 1 / g.A.A.A.A.A.A.A.n.x.e.5.7.A.A.A.A.A.A.",
"A.A.A.A.A.A.A.6.7.q.j.v.c.b.A.A.A.A.A.A.A.A.A.A.A.A.A.A.; # ' B.A.A.A.A.A.n.v.f.q.6.6.A.A.A.A.A.A.A.",
"A.A.A.A.A.A.A.A.6.6.8.f.c.b.v.b.A.A.A.A.A.A.A.A.A.A.A.A.A.& v Z.v.A.A.A.b.c.i.6.6.6.A.A.A.A.A.A.A.A.",
"A.A.A.A.A.A.A.A.A.6.5.9.u.z.b.v.b.A.A.A.A.A.A.A.A.A.A.A.A.- 0 r.n.A.A.n.c.p.8.6.6.A.A.A.A.A.A.A.A.A.",
"A.A.A.A.A.A.A.A.A.A.A.6.6.q.s.z.v.b.b.w.C A.A.A.A.A.A.A.A.A.c 0.m.n.k.y.6.5.6.6.A.A.A.A.A.A.A.A.A.A.",
"A.A.A.A.A.A.A.A.A.A.A.A.7.6.7.0.i.j.v.n.f.+.>.B z % -   @ s $.c.d.q.5.5.7.6.A.A.A.A.A.A.A.A.A.A.A.A.",
"A.A.A.A.A.A.A.A.A.A.A.A.A.A.6.6.5.9.t.d.x.m.c.k.q.^ V V | f.n.q.4.6.6.7.A.A.A.A.A.A.A.A.A.A.A.A.A.A.",
"A.A.A.A.A.A.A.A.A.A.A.A.A.A.A.A.A.6.6.7.0.e.a.d.z.x.l.x.d.j.y.7.6.A.A.A.A.A.A.A.A.A.A.A.A.A.A.A.A.A."
};
