/* XPM */
static char *_3[] = {
/* columns rows colors chars-per-pixel */
"50 50 152 2 ",
"   c #434343",
".  c #444444",
"X  c #484848",
"o  c #494949",
"O  c gray29",
"+  c #4B4B4B",
"@  c #4C4C4C",
"#  c gray30",
"$  c #4E4E4E",
"%  c gray31",
"&  c #505050",
"*  c #515151",
"=  c gray32",
"-  c #535353",
";  c gray33",
":  c #555555",
">  c #565656",
",  c gray34",
"<  c gray35",
"1  c #5A5A5A",
"2  c #5B5B5B",
"3  c gray36",
"4  c #5D5D5D",
"5  c gray37",
"6  c #5F5F5F",
"7  c #606060",
"8  c gray38",
"9  c #626262",
"0  c gray39",
"q  c #646464",
"w  c #656565",
"e  c #686868",
"r  c #6A6A6A",
"t  c gray42",
"y  c #6C6C6C",
"u  c #6D6D6D",
"i  c gray43",
"p  c #717171",
"a  c #727272",
"s  c gray45",
"d  c #767676",
"f  c #797979",
"g  c gray48",
"h  c #7B7B7B",
"j  c gray49",
"k  c #7E7E7E",
"l  c #808080",
"z  c #818181",
"x  c gray52",
"c  c gray53",
"v  c #888888",
"b  c #898989",
"n  c #8B8B8B",
"m  c gray55",
"M  c gray56",
"N  c #909090",
"B  c #929292",
"V  c gray58",
"C  c #959595",
"Z  c gray60",
"A  c #9A9A9A",
"S  c #9B9B9B",
"D  c #9D9D9D",
"F  c gray62",
"G  c #9F9F9F",
"H  c #A0A0A0",
"J  c gray63",
"K  c #A2A2A2",
"L  c gray64",
"P  c #A4A4A4",
"I  c #A5A5A5",
"U  c #A9A9A9",
"Y  c #AAAAAA",
"T  c gray67",
"R  c #ACACAC",
"E  c #AFAFAF",
"W  c #B1B1B1",
"Q  c #B2B2B2",
"!  c gray70",
"~  c #B4B4B4",
"^  c gray71",
"/  c #B6B6B6",
"(  c gray72",
")  c #B9B9B9",
"_  c gray73",
"`  c #BBBBBB",
"'  c #BCBCBC",
"]  c gray74",
"[  c gray75",
"{  c #C0C0C0",
"}  c #C1C1C1",
"|  c gray76",
" . c gray77",
".. c #C5C5C5",
"X. c #C6C6C6",
"o. c gray78",
"O. c #C8C8C8",
"+. c #CACACA",
"@. c #CBCBCB",
"#. c gray80",
"$. c #CDCDCD",
"%. c #CECECE",
"&. c gray81",
"*. c #D0D0D0",
"=. c gray82",
"-. c #D2D2D2",
";. c LightGray",
":. c gray83",
">. c #D5D5D5",
",. c gray84",
"<. c #D7D7D7",
"1. c #D8D8D8",
"2. c gray85",
"3. c #DADADA",
"4. c #DBDBDB",
"5. c #DCDCDC",
"6. c #DDDDDD",
"7. c gray87",
"8. c #DFDFDF",
"9. c #E0E0E0",
"0. c #E1E1E1",
"q. c #E2E2E2",
"w. c gray89",
"e. c #E4E4E4",
"r. c #E5E5E5",
"t. c #E6E6E6",
"y. c #E7E7E7",
"u. c gray91",
"i. c #E9E9E9",
"p. c #EAEAEA",
"a. c gray92",
"s. c #ECECEC",
"d. c gray93",
"f. c #EEEEEE",
"g. c #EFEFEF",
"h. c #F0F0F0",
"j. c #F1F1F1",
"k. c #F2F2F2",
"l. c #F3F3F3",
"z. c #F4F4F4",
"x. c #F5F5F5",
"c. c #F6F6F6",
"v. c gray97",
"b. c #F8F8F8",
"n. c #F9F9F9",
"m. c gray98",
"M. c #FBFBFB",
"N. c gray99",
"B. c #FDFDFD",
"V. c #FEFEFE",
"C. c white",
"Z. c None",
/* pixels */
"Z.Z.Z.Z.Z.Z.Z.Z.Z.Z.Z.Z.Z.Z.Z.Z.Z.Z.Z.Z.Z.Z.Z.Z.Z.Z.Z.Z.Z.Z.Z.Z.Z.Z.Z.Z.Z.Z.Z.Z.Z.Z.Z.Z.Z.Z.Z.Z.Z.Z.",
"Z.Z.Z.Z.Z.Z.Z.Z.Z.Z.Z.Z.Z.Z.Z.Z.Z.Z.Z.6.8.8.t.r.s.a.s.h.y.0.Z.Z.Z.Z.Z.Z.Z.Z.Z.Z.Z.Z.Z.Z.Z.Z.Z.Z.Z.Z.",
"Z.Z.Z.Z.Z.Z.Z.Z.Z.Z.Z.Z.Z.Z.Z.Z.5.6.9.y.d.l.z.b.c.b.c.c.v.x.d.0.6.Z.Z.Z.Z.Z.Z.Z.Z.Z.Z.Z.Z.Z.Z.Z.Z.Z.",
"Z.Z.Z.Z.Z.Z.Z.Z.Z.Z.Z.Z.Z.Z.7.7.q.p.z.x.c.c.c.c.c.c.c.c.c.v.v.a.4.5.6.Z.Z.Z.Z.Z.Z.Z.Z.Z.Z.Z.Z.Z.Z.Z.",
"Z.Z.Z.Z.Z.Z.Z.Z.Z.Z.Z.Z.5.5.u.j.z.c.c.v.c.v.c.c.c.c.v.n.x.C.M.j.e.7.5.5.6.5.Z.Z.Z.Z.Z.Z.Z.Z.Z.Z.Z.Z.",
"Z.Z.Z.Z.Z.Z.Z.Z.Z.Z.6.6.8.i.c.c.c.c.c.j.p.d.c.c.Z.z.Z.h.F M y.c.k.p.7.5.5.5.5.Z.Z.Z.Z.Z.Z.Z.Z.Z.Z.Z.",
"Z.Z.Z.Z.Z.Z.Z.Z.Z.6.4.w.g.x.v.c.c.j.u.Z.Z.Z.Z.Z.Z.Z.Z.Z.Z.% Q m.b.v.g.q.4.4.5.6.Z.Z.Z.Z.Z.Z.Z.Z.Z.Z.",
"Z.Z.Z.Z.Z.Z.Z.Z.4.6.q.l.c.c.v.x.Z.Z.Z.Z.Z.Z.Z.Z.Z.Z.Z.Z.-   } V.Z.Z.b.v.j.w.5.6.5.5.Z.Z.Z.Z.Z.Z.Z.Z.",
"Z.Z.Z.Z.Z.Z.Z.p.y.f.l.v.x.c.c.Z.Z.Z.Z.Z.Z.Z.Z.Z.Z.Z.Z.Z.* 4 i.c.Z.Z.Z.v.c.f.7.3.5.5.Z.Z.Z.Z.Z.Z.Z.Z.",
"Z.Z.Z.Z.Z.Z.h.z.x.x.x.x.Z.Z.Z.Z.Z.Z.Z.Z.Z.Z.Z.Z.Z.Z.Z.Z.o C a.j.Z.Z.Z.Z.Z.v.z.u.6.5.5.Z.Z.Z.Z.Z.Z.Z.",
"Z.Z.Z.Z.Z.x.v.c.x.x.x.c.Z.Z.Z.Z.Z.Z.Z.Z.Z.Z.Z.Z.Z.Z.Z.- & =.9.Z.Z.Z.Z.Z.Z.Z.Z.x.y.5.5.5.Z.Z.Z.Z.Z.Z.",
"Z.Z.Z.Z.p.N.V.v.x.c.Z.Z.Z.Z.Z.Z.Z.Z.Z.Z.Z.Z.Z.Z.Z.Z.Z.+ h t.5.Z.Z.Z.Z.Z.Z.Z.Z.v.c.p.6.5.6.Z.Z.Z.Z.Z.",
"Z.Z.Z.d.x.V.V.n.x.c.Z.Z.Z.Z.Z.Z.Z.Z.Z.Z.Z.Z.Z.Z.Z.Z.- O ` 0.6.Z.Z.Z.Z.Z.Z.Z.Z.Z.v.z.e.4.5.6.Z.Z.Z.Z.",
"Z.Z.Z.z.N.C.B.v.Z.Z.Z.Z.Z.Z.Z.Z.Z.Z.Z.Z.Z.Z.Z.Z.Z.Z.% w q.5.6.Z.Z.Z.Z.Z.Z.Z.Z.Z.Z.b.z.w.5.6.Z.Z.Z.Z.",
"Z.Z.Z.v.V.V.m.x.Z.Z.Z.Z.Z.Z.Z.Z.Z.Z.Z.Z.Z.Z.Z.Z.Z.- X J r.5.8.Z.Z.Z.Z.Z.Z.Z.Z.Z.Z.Z.c.s.5.6.6.Z.Z.Z.",
"Z.Z.c.N.V.N.b.Z.Z.Z.Z.Z.Z.Z.Z.Z.Z.Z.Z.Z.Z.Z.Z.Z.Z.- : 1.7.:.| <.r.Z.Z.Z.Z.Z.Z.Z.Z.Z.v.l.0.4.6.Z.Z.Z.",
"Z.Z.b.V.V.M.n.Z.Z.Z.Z.Z.Z.Z.Z.Z.Z.Z.Z.Z.Z.Z.Z.Z.Z.& n u.:.K r w ] 4.0.Z.Z.Z.Z.Z.Z.Z.Z.c.a.4.5.5.Z.Z.",
"Z.c.M.V.V.V.B.M.Z.Z.Z.Z.Z.Z.Z.Z.Z.Z.Z.Z.Z.Z.Z.Z.= 0 o.q.} s X ; g E Z ' 4.w.Z.Z.Z.Z.Z.Z.l.0.5.5.Z.Z.",
"Z.v.V.V.B.C.C.V.B.Z.Z.Z.Z.Z.Z.Z.Z.Z.Z.Z.Z.Z.Z.Z.t T 0.5.-.C Z.Z.X & 2 e B $.6.0.Z.Z.Z.Z.v.u.5.5.6.Z.",
"z.m.C.B.m.m.B.V.C.C.C.Z.Z.Z.Z.Z.Z.Z.Z.Z.Z.Z.Z.- ^ 6.6.5.e.=.k + Z.Z.* & < m -.q.Z.Z.Z.Z.v.j.7.5.5.Z.",
"g.B.V.N.k.g.c.M.B.V.C.C.V.V.Z.Z.Z.Z.Z.Z.$ : y R w.7.e.9.7.n.{ 3 Z.Z.Z.Z.* # g ;.t.Z.Z.Z.Z.v.s.6.6.Z.",
"h.C.V.m.7.Z.a.g.x.m.N.B.V.C.C.C.Z.Z.:.y a D @.a.j.z.l.c.j.d.z.A : Z.Z.Z.Z.* ; U q.Z.Z.Z.Z.v.k.7.5.Z.",
"l.C.N.v.g.Z.Z.Z.g.k.z.n.M.B.V.V.C.V.V.V.t.j.x.c.v.m.m.v.c.j.s.,.t # Z.Z.Z.- = c 6.0.Z.Z.Z.b.k.6.5.6.",
"i.n.v.c.Z.Z.Z.Z.Z.Z.Z.g.j.x.m.C.V.C.C.V.V.n.b.m.V.C.C.C.M.v.x.C.o.8 Z.Z.Z.Z.- * ) 9.Z.Z.Z.v.z.w.5.5.",
"w.x.x.x.Z.Z.Z.Z.Z.Z.Z.Z.Z.e.7.t.v.B.V.V.C.C.B.V.C.C.C.C.C.m.x.k.j.v - Z.Z.Z.- @ v r.Z.Z.Z.b.v.y.6.6.",
"8.k.x.x.Z.Z.Z.Z.Z.Z.Z.Z.Z.Z.Z.1.-.s.b.M.N.V.C.C.C.C.C.C.C.B.v.x.x.Q & Z.Z.Z.Z.- < :.8.Z.Z.Z.c.a.4.5.",
"6.s.x.x.Z.Z.Z.Z.Z.Z.Z.Z.Z.Z.Z.Z.: N q.c.v.N.C.C.C.C.C.C.C.C.n.c.c.{ 7 $ Z.Z.Z.= 4 ;.5.Z.Z.v.v.e.4.6.",
"4.p.c.x.Z.Z.Z.Z.Z.Z.Z.Z.Z.Z.Z.Z.Z.7 ` b.x.n.C.C.C.C.C.C.C.C.M.c.l.1.j + Z.Z.Z.- , W 9.r.Z.Z.z.7.5.6.",
"5.y.x.c.Z.Z.Z.Z.Z.Z.Z.Z.Z.Z.Z.Z.Z.o 6 $.b.v.B.C.C.C.C.C.C.C.b.v.a.e.-.z Z.Z.Z.- @ %.6.f.v.v.k.q.5.5.",
"5.w.c.c.Z.Z.Z.Z.Z.Z.Z.Z.Z.Z.Z.Z.Z.Z.- ` k.v.m.C.C.C.C.C.C.B.c.c.e.5.4.E 0 # , q B e.7.h.c.v.z.8.5.Z.",
"5.e.z.v.Z.Z.Z.Z.Z.Z.Z.Z.Z.Z.Z.Z.Z.Z.Z.M r.c.b.N.V.C.C.C.M.b.v.f.6.5.6.w.7.Q L +.,.7.u.l.v.v.j.5.5.Z.",
"5.9.z.v.Z.Z.Z.Z.Z.Z.Z.Z.Z.Z.Z.Z.Z.Z.Z.h *.t.j.v.m.M.m.m.c.v.x.q.7.2.w.0.5.q.8.7.5.5.g.v.v.v.d.7.5.Z.",
"5.7.d.v.v.Z.Z.Z.Z.Z.Z.Z.Z.Z.Z.Z.Z.Z.Z.1 $.6.8.f.j.l.C.j.l.q.>. .I n n | q.w.5.5.Z.Z.Z.Z.Z.c.d.6.5.Z.",
"Z.4.u.c.v.Z.Z.Z.Z.Z.Z.Z.Z.Z.Z.Z.Z.Z.# u  .#.F f G I S G s d 6 7 Z.Z.Z.X u ( 5.5.Z.Z.Z.Z.v.z.y.4.5.Z.",
"Z.5.9.l.v.Z.Z.Z.Z.Z.Z.Z.Z.Z.Z.Z.Z.Z.& x ;.b - % O : & $ & $ Z.Z.Z.Z.Z.Z.- z ;.6.8.Z.Z.Z.c.l.9.5.Z.Z.",
"Z.6.6.s.b.c.Z.Z.Z.Z.Z.Z.Z.Z.Z.Z.Z.& 5 R 3.p Z.Z.- Z.Z.Z.Z.Z.Z.Z.Z.Z.Z.Z.* = O.7.q.g.Z.Z.c.g.4.5.Z.Z.",
"Z.Z.4.r.x.m.Z.Z.Z.Z.Z.Z.Z.Z.Z.Z.Z.= 2 / 9.V + Z.Z.Z.Z.Z.Z.Z.Z.Z.Z.Z.Z.Z.% r u.6.r.x.Z.v.x.e.4.5.Z.Z.",
"Z.Z.5.6.f.c.F Z.Z.Z.Z.Z.Z.Z.Z.Z.- = 1 3.r.5.N 7 ; = Z.Z.Z.Z.Z.Z.Z.Z.Z.- O H q.t.h.v.v.x.s.5.6.Z.Z.Z.",
"Z.Z.Z.5.r.M.5.Z.Z.Z.Z.Z.Z.Z.Z.Z.- @ c s.5.7.&.F 7 $ * - Z.Z.Z.Z.Z.Z.= - 6 [ Z.x.v.v.b.p.8.4.6.Z.Z.Z.",
"Z.Z.Z.6.8.h.k.$.Z.Z.Z.Z.Z.Z.Z.- - - ..Z.Z.Z.9.r.<.P w O @ - = Z.@ 1 7 v Y Z.Z.Z.c.c.x.7.5.6.Z.Z.Z.Z.",
"Z.Z.Z.Z.5.e.c.2.p Z.Z.Z.Z.Z.Z.& 2 l i.Z.Z.Z.Z.6.6.r.q._ h : 7 e l ~ -.1.Z.Z.Z.Z.v.c.s.3.5.Z.Z.Z.Z.Z.",
"Z.Z.Z.Z.Z.5.p.M.` Z.Z.Z.Z.Z.- # N X.Z.Z.Z.Z.Z.Z.Z.5.6.q.t.=.) 0.g.m.w.Z.Z.Z.Z.c.v.h.9.4.Z.Z.Z.Z.Z.Z.",
"Z.Z.Z.Z.Z.7.9.k.w.d = Z.Z.Z.& i w.h.Z.Z.Z.Z.Z.Z.Z.Z.Z.Z.6.8.9.l.v.Z.Z.Z.Z.Z.b.v.h.q.4.5.Z.Z.Z.Z.Z.Z.",
"Z.Z.Z.Z.Z.Z.6.w.j.! > . Z.Z.- ) C.Z.Z.Z.Z.Z.Z.Z.Z.Z.Z.Z.Z.Z.r.x.Z.Z.Z.Z.Z.v.v.g.q.5.6.Z.Z.Z.Z.Z.Z.Z.",
"Z.Z.Z.Z.Z.Z.Z.5.e.x.<.C 9 , M l.b.Z.Z.Z.Z.Z.Z.Z.Z.Z.Z.Z.Z.Z.Z.Z.Z.Z.Z.v.v.z.s.7.5.6.Z.Z.Z.Z.Z.Z.Z.Z.",
"Z.Z.Z.Z.Z.Z.Z.Z.Z.e.s.j.x.7.y.m.c.Z.Z.Z.Z.Z.Z.Z.Z.Z.Z.Z.Z.Z.Z.Z.Z.c.v.z.g.w.6.5.6.Z.Z.Z.Z.Z.Z.Z.Z.Z.",
"Z.Z.Z.Z.Z.Z.Z.Z.Z.Z.0.p.i.i.j.b.b.Z.Z.Z.Z.Z.Z.Z.Z.Z.Z.Z.Z.Z.Z.b.x.l.s.q.6.5.5.Z.Z.Z.Z.Z.Z.Z.Z.Z.Z.Z.",
"Z.Z.Z.Z.Z.Z.Z.Z.Z.Z.Z.4.6.4.4.0.d.x.b.v.v.Z.Z.Z.Z.Z.v.Z.v.v.x.h.t.8.6.5.5.6.Z.Z.Z.Z.Z.Z.Z.Z.Z.Z.Z.Z.",
"Z.Z.Z.Z.Z.Z.Z.Z.Z.Z.Z.Z.Z.6.5.5.4.6.u.k.j.h.x.v.x.v.k.x.h.a.w.8.4.5.5.6.Z.Z.Z.Z.Z.Z.Z.Z.Z.Z.Z.Z.Z.Z.",
"Z.Z.Z.Z.Z.Z.Z.Z.Z.Z.Z.Z.Z.Z.Z.Z.5.5.4.5.8.6.6.t.e.8.9.5.7.5.6.5.6.6.Z.Z.Z.Z.Z.Z.Z.Z.Z.Z.Z.Z.Z.Z.Z.Z."
};
