/* XPM */
static char *_4[] = {
/* columns rows colors chars-per-pixel */
"50 50 161 2 ",
"   c #444444",
".  c #4B4B4B",
"X  c #4E4E4E",
"o  c #505050",
"O  c #515151",
"+  c gray32",
"@  c #535353",
"#  c gray33",
"$  c #555555",
"%  c #565656",
"&  c gray34",
"*  c #585858",
"=  c gray35",
"-  c #5A5A5A",
";  c #5B5B5B",
":  c gray36",
">  c #5D5D5D",
",  c gray37",
"<  c #5F5F5F",
"1  c #606060",
"2  c gray38",
"3  c #626262",
"4  c gray39",
"5  c #646464",
"6  c #656565",
"7  c gray40",
"8  c #676767",
"9  c #686868",
"0  c DimGray",
"q  c #6A6A6A",
"w  c gray42",
"e  c #6C6C6C",
"r  c #6D6D6D",
"t  c gray43",
"y  c #6F6F6F",
"u  c gray44",
"i  c #717171",
"p  c gray45",
"a  c gray46",
"s  c #767676",
"d  c #777777",
"f  c gray47",
"g  c #797979",
"h  c gray48",
"j  c #7B7B7B",
"k  c #7C7C7C",
"l  c gray49",
"z  c #7E7E7E",
"x  c gray50",
"c  c #808080",
"v  c #818181",
"b  c #838383",
"n  c #848484",
"m  c gray52",
"M  c #868686",
"N  c gray53",
"B  c #898989",
"V  c #8B8B8B",
"C  c gray55",
"Z  c #8D8D8D",
"A  c #8E8E8E",
"S  c gray57",
"D  c #929292",
"F  c #939393",
"G  c gray58",
"H  c #959595",
"J  c gray59",
"K  c #979797",
"L  c #989898",
"P  c #9A9A9A",
"I  c #9B9B9B",
"U  c #9D9D9D",
"Y  c #9F9F9F",
"T  c gray63",
"R  c #A2A2A2",
"E  c gray64",
"W  c gray65",
"Q  c #A7A7A7",
"!  c gray66",
"~  c #A9A9A9",
"^  c #AAAAAA",
"/  c gray67",
"(  c #ACACAC",
")  c gray68",
"_  c #AFAFAF",
"`  c gray69",
"'  c #B1B1B1",
"]  c #B2B2B2",
"[  c gray70",
"{  c #B4B4B4",
"}  c gray71",
"|  c #B6B6B6",
" . c #B7B7B7",
".. c #B9B9B9",
"X. c gray73",
"o. c #BBBBBB",
"O. c #BCBCBC",
"+. c gray74",
"@. c gray",
"#. c gray75",
"$. c gray76",
"%. c #C3C3C3",
"&. c gray77",
"*. c #C5C5C5",
"=. c #C6C6C6",
"-. c gray78",
";. c #C8C8C8",
":. c gray79",
">. c #CACACA",
",. c #CBCBCB",
"<. c gray80",
"1. c #CECECE",
"2. c gray81",
"3. c #D0D0D0",
"4. c gray82",
"5. c #D2D2D2",
"6. c LightGray",
"7. c #D5D5D5",
"8. c gray84",
"9. c #D7D7D7",
"0. c #D8D8D8",
"q. c gray85",
"w. c #DADADA",
"e. c gray86",
"r. c gainsboro",
"t. c #DDDDDD",
"y. c gray87",
"u. c #DFDFDF",
"i. c #E0E0E0",
"p. c #E1E1E1",
"a. c #E2E2E2",
"s. c gray89",
"d. c #E4E4E4",
"f. c #E5E5E5",
"g. c #E6E6E6",
"h. c #E7E7E7",
"j. c gray91",
"k. c #E9E9E9",
"l. c #EAEAEA",
"z. c gray92",
"x. c #ECECEC",
"c. c #EDEDED",
"v. c #EEEEEE",
"b. c #EFEFEF",
"n. c #F0F0F0",
"m. c #F1F1F1",
"M. c #F2F2F2",
"N. c #F3F3F3",
"B. c #F4F4F4",
"V. c #F5F5F5",
"C. c #F6F6F6",
"Z. c #F7F7F7",
"A. c #F8F8F8",
"S. c #F9F9F9",
"D. c gray98",
"F. c #FBFBFB",
"G. c gray99",
"H. c #FDFDFD",
"J. c #FEFEFE",
"K. c white",
"L. c None",
/* pixels */
"L.L.L.L.L.L.L.L.L.L.L.L.L.L.L.L.L.L.L.L.L.L.L.L.L.L.L.L.L.L.L.L.L.L.L.L.L.L.L.L.L.L.L.L.L.L.L.L.L.L.",
"L.L.L.L.L.L.L.L.L.L.L.L.L.L.L.L.L.L.L.r.r.t.e.y.y.y.t.y.t.y.L.L.L.L.L.L.L.L.L.L.L.L.L.L.L.L.L.L.L.L.",
"L.L.L.L.L.L.L.L.L.L.L.L.L.L.L.L.t.e.r.y.i.a.f.l.z.j.k.k.j.j.g.f.i.L.L.L.L.L.L.L.L.L.L.L.L.L.L.L.L.L.",
"L.L.L.L.L.L.L.L.L.L.L.L.L.v.c.z.d.a.d.l.c.n.M.B.V.N.N.B.N.M.M.M.b.v.k.g.L.L.L.L.L.L.L.L.L.L.L.L.L.L.",
"L.L.L.L.L.L.L.L.L.L.L.l.N.N.N.M.n.n.M.B.B.B.V.V.B.N.N.N.N.B.V.V.C.B.N.n.b.L.L.L.L.L.L.L.L.L.L.L.L.L.",
"L.L.L.L.L.L.L.L.L.L.c.C.H.G.C.V.V.B.B.B.B.V.V.C.M.v.v.x.z.n.B.V.V.C.C.C.C.m.a.L.L.L.L.L.L.L.L.L.L.L.",
"L.L.L.L.L.L.L.L.L.B.S.K.J.F.C.V.C.C.V.L.L.L.L.L.L.L.L.L.L.L.B.B.B.B.Z.C.C.A.m.a.L.L.L.L.L.L.L.L.L.L.",
"L.L.L.L.L.L.L.L.V.D.J.K.H.S.V.C.L.L.L.L.L.L.L.L.L.L.L.L.L.L.L.L.L.B.B.V.D.C.Z.j.r.L.L.L.L.L.L.L.L.L.",
"L.L.L.L.L.L.L.Z.D.H.G.F.Z.V.L.L.L.L.L.L.L.L.L.L.L.L.L.L.L.L.L.L.L.L.L.X.X.z.M.g.e.w.L.L.L.L.L.L.L.L.",
"L.L.L.L.L.L.A.F.J.H.D.A.V.L.L.L.L.L.L.L.L.L.L.L.L.L.L.L.L.L.L.L.L.L.L.L.p ;.m.x.p.e.e.L.L.L.L.L.L.L.",
"L.L.L.L.L.C.G.K.J.J.G.A.L.L.L.L.L.L.L.L.L.L.L.L.L.L.L.L.L.L.L.L.L.L.L.O i <.S.C.l.t.t.r.L.L.L.L.L.L.",
"L.L.L.L.N.D.J.H.F.G.G.D.L.L.L.L.L.L.L.L.L.L.L.L.L.L.L.L.L.L.L.L.L.L.O 4 ( b.C.V.v.a.r.e.r.L.L.L.L.L.",
"L.L.L.l.S.K.J.F.A.G.K.J.F.L.L.L.L.L.L.L.L.L.L.L.L.L.L.L.L.L.L.L.L.O 3 E p.M.L.L.S.m.t.e.r.t.L.L.L.L.",
"L.L.L.m.G.G.S.n.v.V.F.H.H.L.L.L.L.L.L.L.L.L.L.L.L.L.L.L.L.L.L.L.O 3 R 0.d.L.L.L.L.N.x.u.r.e.L.L.L.L.",
"L.L.a.b.S.A.N.g.g.b.C.F.H.H.L.L.L.L.L.L.L.L.L.L.L.L.L.L.L.L.L.O 3 R 9.t.a.L.L.L.L.B.m.s.r.e.w.L.L.L.",
"L.r.i.B.C.C.V.L.L.L.n.S.H.K.J.L.L.L.L.L.L.L.L.L.L.L.L.L.L.L.O 3 R 9.e.r.L.L.L.L.L.L.N.z.w.t.t.L.L.L.",
"L.r.s.n.B.B.L.L.L.L.L.M.C.F.H.H.L.L.L.L.L.L.L.L.L.L.L.L.L.@ 3 R 9.e.e.L.L.L.L.L.L.L.L.m.g.r.r.L.L.L.",
"L.r.f.V.V.C.L.L.L.L.L.L.M.S.H.K.J.L.L.L.L.L.L.L.L.L.L.L.@ 8 E 9.q.0.w.L.L.L.L.L.L.L.L.B.x.u.e.e.L.L.",
"e.r.j.M.B.L.L.L.L.L.L.L.L.M.C.F.H.H.L.L.L.L.L.L.L.L.L.5 s Q 9.6.%.O.>.L.L.L.L.L.L.L.L.L.m.d.r.e.L.L.",
"w.y.c.N.L.L.L.L.L.L.L.L.L.L.b.B.F.H.K.L.L.w * = : q j E o.0.9.X.C s H >.L.L.L.L.L.L.L.L.V.z.y.e.e.L.",
"e.a.b.B.L.L.L.L.L.L.L.L.L.L.L.f.m.F.H.G.B.X.G S P / $.9.w.e.7.( 8 % i ..6.L.L.L.L.L.L.L.C.b.i.r.r.L.",
"t.h.M.B.L.L.L.L.L.L.L.L.L.L.L.L.u.n.F.H.G.B.s.u.i.s.h.s.i.r.e. .a @ < A ' :.L.L.L.L.L.L.L.m.d.e.e.L.",
"r.x.Z.C.L.L.L.L.L.L.L.L.L.L.L.L.#.u.A.H.K.J.S.Z.C.Z.Z.B.M.s.h.A.a L.O > u I :.L.L.L.L.L.L.M.g.r.r.L.",
"t.z.B.B.L.L.L.L.L.L.L.L.L.L.L.L.L.U i.C.F.H.G.D.D.D.F.S.V.n.l.t.V % L.O & t ! 5.L.L.L.L.L.N.h.r.r.L.",
"y.x.V.N.L.L.L.L.L.L.L.L.L.L.L.L.L.k 2.M.A.G.H.H.J.J.J.J.S.B.b.f.I ; L.L.O - B ,.w.L.L.L.L.M.h.t.e.L.",
"u.c.C.L.L.L.L.L.L.L.L.L.L.L.L.L.L.r @.m.C.F.J.J.K.K.K.J.G.A.M.h.~ - L.L.L.o 6 / e.L.L.L.L.N.h.r.e.L.",
"u.c.B.L.L.L.L.L.L.L.L.L.L.L.L.L.L.2 ] v.C.F.J.K.K.K.K.K.J.S.B.m.;.y L.L.L.L.= Z 2.d.L.L.L.N.j.t.r.e.",
"y.n.C.L.L.L.L.L.L.L.L.L.L.L.L.L.L.7 >.C.Z.H.K.K.K.K.K.K.K.F.C.C.y.1 L.L.L.L.@ m 1.s.L.L.L.N.l.t.e.L.",
"i.c.V.L.L.L.L.L.L.L.L.L.L.L.L.L.L.g &.v.C.F.J.K.K.K.K.K.H.A.V.n.<.s L.L.L.L.# M 7.L.L.L.L.V.z.t.r.L.",
"t.n.l.G L.L.L.L.L.L.L.L.L.L.L.L.L.w 2.v.A.F.K.K.K.K.K.K.K.S.C.V.%.* L.L.L.O @ h -.L.L.L.L.V.c.u.r.L.",
"y.z.g.X.L.L.L.L.L.L.L.L.L.L.L.L.> D 3.u.v.Z.F.H.K.J.J.H.D.C.N.f._ 9 L.L.L.o + l :.L.L.L.L.B.l.t.w.L.",
"t.k.h.*.L.L.L.L.L.L.L.L.L.L.L.; h ] ;.=.8.c.Z.S.G.G.D.S.Z.B.z.u...e L.L.L.O + v 1.L.L.L.L.m.d.e.e.L.",
"t.l.B.%.L.L.L.L.L.L.L.L.L.@ O s [ r.n p g 3.h.H.C.S.Z.C.Z.x.i.r.>.N L.L.L.o - K e.L.L.L.V.m.a.e.e.L.",
"e.d.l...L.L.L.L.L.L.L.L.O + > L =.W 1 % # y F X.4.y.h.x.g.t.r.r.4.L ; L.L.O 2 / 9.L.L.L.B.b.p.r.L.L.",
"L.p.V.| L.L.L.L.L.L.L.@ @ . d r.z.J   L.# X # @ t k Y %.,.;.2.r.r.-.m 3 , : c =.r.L.L.V.B.l.y.e.L.L.",
"L.u.j.o.e L.L.L.L.L.O @ $ s o.e.e.[ q + L.L.L.O # O , t j S I %.r.r.-.W Y T &.e.d.M.C.B.c.i.r.e.L.L.",
"L.u.h.1.d L.L.L.L.@ ; 0 v } L.L.e.=.B : O L.L.L.L.L.L.L.L.L.L.v @.r.e.7.9.7.e.a.c.B.C.M.f.r.e.L.L.L.",
"L.L.t.B./ X L.L.+ O K ' r.L.L.L.L.d.*.2 O @ L.L.L.L.L.L.L.L.L.L.v %.e.w.r.w.i.x.N.V.V.M.i.r.t.L.L.L.",
"L.L.L.f.u.) y 9 f { p.u.L.L.L.L.L.e.w.] y + + L.L.L.L.L.L.L.L.L.9 ^ 9.w.L.L.L.L.N.B.m.f.r.e.L.L.L.L.",
"L.L.L.p.m.S.>.] -.K.C.L.L.L.L.L.L.L.t.g.@.$ X @ L.L.L.L.L.L.L.O , W 8.e.L.L.L.L.V.C.c.y.r.t.L.L.L.L.",
"L.L.L.L.i.d.x.x.M.C.L.L.L.L.L.L.L.L.L.e.e.` e @ L.L.L.L.L.o O + x =.r.u.L.L.L.L.B.n.f.r.r.L.L.L.L.L.",
"L.L.L.L.e.r.u.z.V.L.L.L.L.L.L.L.L.L.L.L.e.e.' p 2 = : = # % % d +.t.u.g.b.L.L.B.m.h.y.e.L.L.L.L.L.L.",
"L.L.L.L.L.t.r.r.b.S.L.L.L.L.L.L.L.L.L.L.L.q.e.O.^ I K A z l b ^ 8.g.z.m.V.V.C.C.x.r.r.r.L.L.L.L.L.L.",
"L.L.L.L.L.L.e.e.u.z.B.V.L.L.L.L.L.L.L.L.L.L.e.u.g.j.f.7.;.#.L.L.L.M.N.V.V.N.m.l.y.e.e.L.L.L.L.L.L.L.",
"L.L.L.L.L.L.L.e.e.u.z.N.B.L.L.L.L.L.L.L.L.L.L.k.M.N.m.L.L.L.L.L.L.C.V.V.m.l.f.y.r.e.L.L.L.L.L.L.L.L.",
"L.L.L.L.L.L.L.L.e.e.u.h.z.m.B.L.L.L.L.L.L.L.L.L.L.L.L.L.L.L.L.L.V.V.V.m.f.t.r.e.t.L.L.L.L.L.L.L.L.L.",
"L.L.L.L.L.L.L.L.L.t.r.r.t.g.C.C.A.N.L.L.L.L.L.L.L.L.L.L.L.L.B.V.V.M.M.d.w.r.r.L.L.L.L.L.L.L.L.L.L.L.",
"L.L.L.L.L.L.L.L.L.L.L.e.e.e.a.g.x.b.N.B.V.B.N.N.C.V.V.V.V.N.M.m.x.g.p.e.e.r.L.L.L.L.L.L.L.L.L.L.L.L.",
"L.L.L.L.L.L.L.L.L.L.L.L.L.r.e.r.y.i.g.k.z.z.x.x.c.x.z.x.z.k.g.s.u.r.w.w.L.L.L.L.L.L.L.L.L.L.L.L.L.L.",
"L.L.L.L.L.L.L.L.L.L.L.L.L.L.L.e.e.e.r.t.t.y.u.y.u.y.y.y.y.t.e.t.r.r.L.L.L.L.L.L.L.L.L.L.L.L.L.L.L.L."
};
