/* XPM */
static char *_5[] = {
/* columns rows colors chars-per-pixel */
"50 50 153 2 ",
"   c #434343",
".  c gray27",
"X  c #464646",
"o  c #484848",
"O  c #494949",
"+  c gray29",
"@  c #4B4B4B",
"#  c #4C4C4C",
"$  c gray30",
"%  c #4E4E4E",
"&  c gray31",
"*  c #505050",
"=  c #515151",
"-  c gray32",
";  c #535353",
":  c gray33",
">  c #555555",
",  c #565656",
"<  c gray34",
"1  c #585858",
"2  c gray35",
"3  c #5A5A5A",
"4  c #5B5B5B",
"5  c gray36",
"6  c #5D5D5D",
"7  c gray37",
"8  c #5F5F5F",
"9  c gray38",
"0  c #626262",
"q  c gray39",
"w  c #646464",
"e  c #656565",
"r  c gray40",
"t  c #676767",
"y  c #686868",
"u  c #6A6A6A",
"i  c gray42",
"p  c #6C6C6C",
"a  c #6D6D6D",
"s  c #6F6F6F",
"d  c gray44",
"f  c #717171",
"g  c gray45",
"h  c #747474",
"j  c gray46",
"k  c #767676",
"l  c gray48",
"z  c #7C7C7C",
"x  c gray49",
"c  c #7E7E7E",
"v  c #808080",
"b  c #818181",
"n  c #848484",
"m  c gray52",
"M  c #868686",
"N  c gray53",
"B  c #898989",
"V  c gray54",
"C  c #8B8B8B",
"Z  c gray55",
"A  c #8E8E8E",
"S  c #909090",
"D  c #929292",
"F  c #939393",
"G  c gray58",
"H  c #959595",
"J  c #979797",
"K  c #989898",
"L  c #9B9B9B",
"P  c gray61",
"I  c gray62",
"U  c #9F9F9F",
"Y  c #A0A0A0",
"T  c #A2A2A2",
"R  c gray64",
"E  c #A5A5A5",
"W  c gray65",
"Q  c gray67",
"!  c gray68",
"~  c gray69",
"^  c #B1B1B1",
"/  c #B2B2B2",
"(  c gray70",
")  c #B4B4B4",
"_  c gray71",
"`  c #B6B6B6",
"'  c #B7B7B7",
"]  c gray72",
"[  c gray73",
"{  c #BBBBBB",
"}  c #BCBCBC",
"|  c gray74",
" . c gray",
".. c gray75",
"X. c #C0C0C0",
"o. c gray76",
"O. c #C3C3C3",
"+. c gray77",
"@. c #C5C5C5",
"#. c gray78",
"$. c #C8C8C8",
"%. c gray79",
"&. c #CACACA",
"*. c #CDCDCD",
"=. c #CECECE",
"-. c gray81",
";. c #D0D0D0",
":. c gray82",
">. c #D2D2D2",
",. c LightGray",
"<. c gray83",
"1. c gray84",
"2. c #D8D8D8",
"3. c gray85",
"4. c #DADADA",
"5. c gray86",
"6. c gainsboro",
"7. c #DDDDDD",
"8. c gray87",
"9. c #DFDFDF",
"0. c gray88",
"q. c #E1E1E1",
"w. c #E2E2E2",
"e. c gray89",
"r. c #E4E4E4",
"t. c #E5E5E5",
"y. c #E6E6E6",
"u. c #E7E7E7",
"i. c gray91",
"p. c #E9E9E9",
"a. c #EAEAEA",
"s. c #EBEBEB",
"d. c #ECECEC",
"f. c gray93",
"g. c #EEEEEE",
"h. c #EFEFEF",
"j. c #F0F0F0",
"k. c #F1F1F1",
"l. c #F2F2F2",
"z. c #F3F3F3",
"x. c #F4F4F4",
"c. c gray96",
"v. c #F6F6F6",
"b. c gray97",
"n. c #F8F8F8",
"m. c #F9F9F9",
"M. c gray98",
"N. c #FBFBFB",
"B. c gray99",
"V. c #FDFDFD",
"C. c #FEFEFE",
"Z. c white",
"A. c None",
/* pixels */
"A.A.A.A.A.A.A.A.A.A.A.A.A.A.A.A.A.A.A.A.A.A.A.A.A.A.A.A.A.A.A.A.A.A.A.A.A.A.A.A.A.A.A.A.A.A.A.A.A.A.",
"A.A.A.A.A.A.A.A.A.A.A.A.A.A.A.A.A.A.h.a.f.v.l.j.a.6.6.6.6.7.A.A.A.A.A.A.A.A.A.A.A.A.A.A.A.A.A.A.A.A.",
"A.A.A.A.A.A.A.A.A.A.A.A.A.A.A.A.x.c.b.N.V.V.m.v.x.i.w.7.9.7.6.6.6.A.A.A.A.A.A.A.A.A.A.A.A.A.A.A.A.A.",
"A.A.A.A.A.A.A.A.A.A.A.A.A.A.b.n.N.V.C.Z.C.V.b.c.c.c.z.z.j.f.p.y.y.9.6.A.A.A.A.A.A.A.A.A.A.A.A.A.A.A.",
"A.A.A.A.A.A.A.A.A.A.A.l.b.m.V.C.Z.C.V.V.B.n.c.c.c.c.c.v.v.b.v.b.c.j.y.9.7.A.A.A.A.A.A.A.A.A.A.A.A.A.",
"A.A.A.A.A.A.A.A.A.r.g.n.C.Z.C.C.C.N.M.n.v.x.c.v.A.c.v.c.c.v.b.v.v.v.c.l.i.w.9.A.A.A.A.A.A.A.A.A.A.A.",
"A.A.A.A.A.A.A.A.A.k.Z.Z.C.V.B.V.C.B.v.A.A.A.A.A.A.A.A.A.A.v.v.c.c.v.v.b.v.l.s.9.A.A.A.A.A.A.A.A.A.A.",
"A.A.A.A.A.A.A.6.e.v.C.V.B.n.b.B.Z.C.A.A.A.A.A.A.A.A.A.A.A.A.A.A.A.s.x.b.v.v.v.j.t.A.A.A.A.A.A.A.A.A.",
"A.A.A.A.A.A.6.8.h.v.b.n.g.q.g.N.Z.C.A.A.A.A.A.A.A.A.A.A.A.A.A.A.A.A.u.s.h.b.v.b.z.d.A.A.A.A.A.A.A.A.",
"A.A.A.A.A.6.7.i.v.c.c.c.A.A.a.n.C.Z.B.A.A.A.A.A.A.A.A.A.A.A.A.A.A.A.A.A.A.v.b.v.v.v.i.A.A.A.A.A.A.A.",
"A.A.A.A.6.6.q.k.c.c.A.A.A.A.A.z.B.Z.C.A.A.A.A.A.A.A.A.A.A.A.A.A.A.A.A.A.A.v.v.v.v.b.z.j.A.A.A.A.A.A.",
"A.A.A.A.5.8.j.v.v.c.A.A.A.A.A.j.M.C.Z.A.A.A.A.A.A.A.A.A.A.A.A.A.A.A.A.A.A.A.A.c.v.v.v.v.e.A.A.A.A.A.",
"A.A.A.6.9.f.v.c.A.A.A.A.A.A.A.j.v.V.Z.Z.A.A.A.A.A.A.A.A.A.A.A.A.A.A.A.A.A.A.A.A.b.n.v.n.g.w.A.A.A.A.",
"A.A.7.6.u.c.c.v.A.A.A.A.A.A.A.A.z.N.C.C.A.A.A.A.A.A.A.A.A.A.A.A.A.A.A.A.A.A.A.A.A.q.M.v.v.r.A.A.A.A.",
"A.A.6.q.z.b.b.A.A.A.A.A.A.A.A.A.k.n.V.C.A.A.A.A.A.A.A.A.A.A.A.A.A.A.A.A.A.A.A.A.A.l t.M.x.e.A.A.A.A.",
"A.6.7.s.b.v.A.A.A.A.A.A.A.A.A.A.A.k.B.Z.C.A.A.A.A.A.A.A.A.A.A.A.A.A.A.A.A.A.A.A.; # [ B.h.7.7.A.A.A.",
"A.6.0.z.v.b.A.A.A.A.A.A.A.A.A.A.A.s.m.C.Z.A.A.A.A.A.A.A.A.A.A.A.A.A.A.A.A.A.; @ o f 6.v.h.7.6.A.A.A.",
"A.5.i.v.b.A.A.A.A.A.A.A.A.A.A.A.A.7.s.Z.Z.C.A.A.A.A.A.A.A.A.A.A.A.A.A.; * o = x o.N.C.n.l.w.6.6.A.A.",
"6.9.j.b.A.A.A.A.A.A.A.A.A.A.A.A.A.A.4.N.C.Z.b.A.A.A.A.A.A.A.A.A.A.; # O 7 K >.u.h.v.A.A.c.0.7.7.A.A.",
"6.t.v.b.A.A.A.A.A.A.A.A.A.A.A.A.A.A.-.k.C.Z.Z.{ 1 # A.A.A.A.= ; @ $ g / 9.t.8.9.g.A.A.A.m.r.6.7.A.A.",
"7.d.n.w.A.A.A.A.A.A.A.A.A.A.A.A.A.A.n a.V.C.C.b.` B y t * t t q S &.t.e.6.6.7.A.A.A.A.A.b.h.5.7.7.A.",
"0.x.f.C A.A.A.A.A.A.A.A.A.A.A.A.A.A.t 9.m.V.Z.N.v.t.3.| &.>.X.5.u.e.4.5.8.7.A.A.A.A.A.A.v.c.9.6.6.A.",
"e.m.+.A.A.A.A.A.A.A.A.A.A.A.A.A.A.+ Z u.b.B.C.V.b.v.c.f.q.7.9.7.1.{ ^ ..w.A.A.A.A.A.A.A.b.l.q.6.6.A.",
"a.c.>.A.A.A.A.A.A.A.A.A.A.A.A.A.A.% N b.c.M.C.C.B.M.n.b.h.t.5.7.#.k > d :.A.A.A.A.A.A.A.A.z.7.6.6.A.",
"d.k.B A.A.A.A.A.A.A.A.A.A.A.A.A.A.i =.v.v.B.Z.Z.Z.Z.C.B.v.z.7.f.' t & 5 ] w.A.A.A.A.A.A.A.b.w.6.6.A.",
"z.q.z A.A.A.A.A.A.A.A.A.A.A.A.A.O J u.b.n.C.Z.Z.Z.Z.Z.Z.m.b.i.v.#.3 A.6 #.7.A.A.A.A.A.A.A.v.i.6.7.A.",
"x.^ % A.A.A.A.A.A.A.A.A.A.A.A.# i =.k.v.N.Z.Z.Z.Z.Z.Z.Z.V.c.k.l.G = A.@ S #.A.A.A.A.A.A.A.v.t.6.7.A.",
"l.V - A.A.A.A.A.A.A.A.A.A.# : a _ 6.j.n.B.Z.Z.Z.Z.Z.Z.Z.V.b.f.s.l X A.* 5 F e.A.A.A.A.A.A.n.u.5.7.A.",
"x.V   A.A.A.A.A.A.; ; ; , j D ) 7.6.p.n.V.Z.Z.Z.Z.Z.Z.Z.N.v.c.8.9 ; A.: - h ;.A.A.A.A.A.A.c.u.6.6.A.",
"d.| @ A.A.A.; - - ; & # s ) 5.,.H ] e.c.B.Z.Z.Z.Z.Z.Z.Z.m.v.j.9.6 A.A.A.& s O.0.A.A.A.A.A.b.q.6.7.A.",
"j.f.s A.- & # 1 4 > i ! 8.a.( A.$ 2 E h.N.B.Z.Z.Z.Z.Z.B.v.c.m.Q < A.A.A.= 2 -.7.A.A.A.A.n.l.q.6.6.A.",
"y.n.$.c 0 v ' / Y @.s.A.6.y.U . A.= 8 ..c.n.B.C.C.Z.B.n.v.n.a.M # A.A.A.- < { r.A.A.A.A.b.g.6.6.7.A.",
"7.q.c.0.r.Z.B.g.A.A.A.A.A.4.P ; A.; % p O.z.N.b.n.b.v.b.v.s.I ; A.A.A.A.= e &.q.A.A.A.A.c.y.6.6.A.A.",
"6.4.d.m.n.v.A.A.A.A.A.A.A.e.L 4 A.A.A.= r R j.c.v.b.x.d.w.=.g & A.A.A.; ; N 2.s.A.A.A.A.l.0.6.6.A.A.",
"A.6.q.n.A.A.A.A.A.A.A.A.A.w. ., ; A.A.A.- + D *.f.t.9.8.0.=.2 A.A.A.A.; @ ] u.A.A.A.A.b.d.5.6.7.A.A.",
"A.6.5.k.A.A.A.A.A.A.A.A.A.6.0.t - A.A.A.A.A.< s [ 3.6.6.7.[ q A.A.A.; * q -.0.A.A.A.A.x.w.5.6.A.A.A.",
"A.7.5.y.n.A.A.A.A.A.A.A.A.6.y.I + ; A.A.A.A.A.A.+ I +.q.q.~ @ A.A.A.; & ! q.A.A.A.A.b.l.8.7.7.A.A.A.",
"A.A.7.6.c.b.A.A.A.A.A.A.A.A.8.<.- ; A.A.A.A.A.A.A.A.x w.7.4.5 ; A.; = s :.5.A.A.A.A.v.g.7.6.6.A.A.A.",
"A.A.6.5.p.c.n.A.A.A.A.A.A.A.6.u.v # A.A.A.A.A.A.A.A.@ %.0.t.L w & O 8 } u.A.A.A.A.b.c.r.7.7.A.A.A.A.",
"A.A.A.6.8.i.v.A.A.A.A.A.A.A.A.q.X.& ; A.A.A.A.A.A.A.A.V t.8.1...A m o.0.9.A.A.A.b.x.e.4.6.A.A.A.A.A.",
"A.A.A.6.6.6.f.n.A.A.A.A.A.A.A.7.e.b 5 A.A.A.A.A.A.A.- z 4.6.6.e.5.r.0.7.p.A.A.b.v.g.8.6.7.A.A.A.A.A.",
"A.A.A.A.6.6.q.x.b.A.A.A.A.A.A.A.9.>./ u < * ; ; ; = # Y 5.7.A.7.6.0.y.l.n.A.b.b.l.e.7.6.A.A.A.A.A.A.",
"A.A.A.A.A.6.6.e.k.b.A.A.A.A.A.A.s.z.B.p.T p : - + 4 H ,.7.5.A.A.A.z.x.b.b.b.c.a.9.5.6.A.A.A.A.A.A.A.",
"A.A.A.A.A.A.6.5.0.a.n.b.A.A.A.A.A.b.b.l.q.%.W x L >.p.8.8.r.A.A.A.A.b.b.v.x.u.6.5.7.A.A.A.A.A.A.A.A.",
"A.A.A.A.A.A.A.7.6.6.g.x.b.A.A.A.A.A.A.A.A.A.A.9.A.w.r.r.y.h.A.A.A.A.b.b.z.y.7.6.6.A.A.A.A.A.A.A.A.A.",
"A.A.A.A.A.A.A.A.7.6.8.e.f.c.b.A.A.A.A.A.A.A.A.A.A.v.c.z.v.A.A.A.b.v.x.g.q.5.6.7.A.A.A.A.A.A.A.A.A.A.",
"A.A.A.A.A.A.A.A.A.7.6.6.7.t.s.k.v.n.b.A.A.A.A.A.A.b.v.b.b.b.v.v.v.l.a.q.6.6.7.A.A.A.A.A.A.A.A.A.A.A.",
"A.A.A.A.A.A.A.A.A.A.6.7.6.6.6.0.p.g.c.b.b.b.b.v.b.v.v.b.b.x.x.z.a.0.5.5.7.7.A.A.A.A.A.A.A.A.A.A.A.A.",
"A.A.A.A.A.A.A.A.A.A.A.A.A.6.6.6.5.8.t.s.g.x.x.v.x.x.c.d.w.e.r.7.5.6.7.6.A.A.A.A.A.A.A.A.A.A.A.A.A.A.",
"A.A.A.A.A.A.A.A.A.A.A.A.A.A.A.7.6.6.6.6.8.8.e.q.w.e.7.4.5.6.5.6.6.A.A.A.A.A.A.A.A.A.A.A.A.A.A.A.A.A."
};
