/* XPM */
static char *_0[] = {
/* columns rows colors chars-per-pixel */
"58 59 161 2 ",
"   c #0D2B1C",
".  c #174C34",
"X  c #7D472D",
"o  c #7E492E",
"O  c #74402A",
"+  c #774937",
"@  c #7E4A31",
"#  c #784C3A",
"$  c #1E6D4A",
"%  c #226C4A",
"&  c #237F57",
"*  c #6F504E",
"=  c #755B53",
"-  c #745651",
";  c #7D665B",
":  c #7A6053",
">  c #595B78",
",  c #635B6B",
"<  c #776D6E",
"1  c #7B6965",
"2  c #72717B",
"3  c #814B2F",
"4  c #834D31",
"5  c #855033",
"6  c #8C5532",
"7  c #875539",
"8  c #89573B",
"9  c #8A593D",
"0  c #915934",
"q  c #945E39",
"w  c #96613B",
"e  c #99663E",
"r  c #8C5E42",
"t  c #875A43",
"y  c #8F6145",
"u  c #85624E",
"i  c #926445",
"p  c #996740",
"a  c #9C6B44",
"s  c #926649",
"d  c #956A4D",
"f  c #986D4F",
"g  c #9D714D",
"h  c #846352",
"j  c #816559",
"k  c #986E51",
"l  c #946B50",
"z  c #9B7354",
"x  c #9F7759",
"c  c #9E795A",
"v  c #A07047",
"b  c #A27349",
"n  c #A5794E",
"m  c #A47B55",
"M  c #A97E53",
"N  c #A37D5D",
"B  c #A07550",
"V  c #9E7A61",
"C  c #A17E62",
"Z  c #30935F",
"A  c #2C9C6B",
"S  c #349B6B",
"D  c #3C9A6B",
"F  c #3AAF72",
"G  c #3EBF78",
"H  c #49976A",
"J  c #56986B",
"K  c #699269",
"L  c #43A870",
"P  c #53AC72",
"I  c #48BD77",
"U  c #42BE78",
"Y  c #4BBD78",
"T  c #53BB77",
"R  c #5AB977",
"E  c #53B776",
"W  c #77A571",
"Q  c #63B877",
"!  c #79B476",
"~  c #73B577",
"^  c #3EC079",
"/  c #AA8155",
"(  c #AC855A",
")  c #AF895D",
"_  c #B28D5F",
"`  c #858D69",
"'  c #8C8C68",
"]  c #938B68",
"[  c #9E8A68",
"{  c #8C9D6E",
"}  c #A78464",
"|  c #A98666",
" . c #AA8966",
".. c #A48968",
"X. c #AB8968",
"o. c #B38E60",
"O. c #B08F6B",
"+. c #A09C6F",
"@. c #B69364",
"#. c #B89767",
"$. c #B3936C",
"%. c #B7996F",
"&. c #BA9B6C",
"*. c #BB9D71",
"=. c #95AF76",
"-. c #9CAA75",
";. c #84B276",
":. c #8BB276",
">. c #BFA16F",
",. c #A4AD76",
"<. c #A9AC76",
"1. c #BEA173",
"2. c #BBAA76",
"3. c #C1A574",
"4. c #C4A976",
"5. c #375B92",
"6. c #385E95",
"7. c #395F98",
"8. c #3C6096",
"9. c #3B639B",
"0. c #3B689D",
"q. c #3E6EA3",
"w. c #3F71A6",
"e. c #455D8B",
"r. c #4C5B82",
"t. c #50628C",
"y. c #4C6C9C",
"u. c #506797",
"i. c #506998",
"p. c #547194",
"a. c #6C7282",
"s. c #6E7A8B",
"d. c #677A95",
"f. c #697890",
"g. c #446AA5",
"h. c #4073A7",
"j. c #4175AA",
"k. c #4578AD",
"l. c #4B7BAD",
"z. c #5274A0",
"x. c #4770B0",
"c. c #467BB2",
"v. c #4A7DB4",
"b. c #4875B1",
"n. c #5D81AB",
"m. c #5E80A6",
"M. c #4D85BF",
"N. c #5887B9",
"B. c #4E86C1",
"V. c #528BC5",
"C. c #528CC8",
"Z. c #5B8EC1",
"A. c #6B9BCC",
"S. c #6B97C4",
"D. c #6E9FD0",
"F. c #76A2CE",
"G. c #75A3D2",
"H. c #79A6D3",
"J. c #7EA9D5",
"K. c #80ABD6",
"L. c None",
/* pixels */
"L.L.L.L.L.L.L.L.L.L.L.L.L.L.L.L.L.L.L.L.L.L.L.L.L.L.0 0 0 0 0 0 L.L.L.L.L.L.L.L.L.L.L.L.L.L.L.L.L.L.L.L.L.L.L.L.L.L.",
"L.L.L.L.L.L.L.L.L.L.L.L.L.L.L.L.L.L.L.L.L.L.L.L.L.0 0 0 0 0 0 0 0 L.L.L.L.L.L.L.L.L.L.L.L.L.L.L.L.L.L.L.L.L.L.L.L.L.",
"L.L.L.L.L.L.L.L.L.L.L.L.L.L.L.L.L.L.L.L.L.L.L.L.0 0 0 0 0 0 0 0 0 0 L.L.L.L.L.L.L.L.L.L.L.L.L.L.L.L.L.L.L.L.L.L.L.L.",
"L.L.L.L.L.L.L.L.L.L.L.L.L.L.L.L.L.L.L.L.L.L.L.0 0 0 2 N.V.V.s.0 0 0 0 L.L.L.L.L.L.L.L.L.L.L.L.L.L.L.L.L.L.L.L.L.L.L.",
"L.L.L.L.L.L.L.L.L.L.L.L.L.L.L.L.L.L.L.L.L.L.L.0 0 < M.h.k.B.C.V.a.0 0 L.L.L.L.L.L.L.L.L.L.L.L.L.L.L.L.L.L.L.L.L.L.L.",
"L.L.L.L.L.L.L.L.L.L.L.L.L.L.L.L.L.L.L.L.L.L.0 0 j k.h.h.S.H.D.C.V.r 0 0 L.L.L.L.L.L.L.L.L.L.L.L.L.L.L.L.L.L.L.L.L.L.",
"L.L.L.L.L.L.L.L.L.L.L.L.L.L.L.L.L.L.L.L.L.L.0 0 l.h.h.k.K.K.J.J.G.d.0 0 L.L.L.L.L.L.L.L.L.L.L.L.L.L.L.L.L.L.L.L.L.L.",
"L.L.L.L.L.L.L.L.L.L.L.L.L.L.L.L.L.L.L.L.L.6 0 j h.h.h.v.K.K.K.K.K.V.0 0 0 L.L.L.L.L.L.L.L.L.L.L.L.L.L.L.L.L.L.L.L.L.",
"L.L.L.L.L.L.L.L.L.L.L.L.L.L.L.L.L.L.L.L.L.6 @ y.q.h.h.k.A.K.K.K.K.D.a.0 0 L.L.L.L.L.L.L.L.L.L.L.L.L.L.L.L.L.L.L.L.L.",
"L.L.L.L.L.L.L.L.L.L.L.L.L.L.L.L.L.L.L.L.L.X X 5.6.h.w.w.M.F.K.K.K.H.N.0 0 L.L.L.L.L.L.L.L.L.L.L.L.L.L.L.L.L.L.L.L.L.",
"L.L.L.L.L.L.L.L.L.L.L.L.L.L.L.L.L.L.L.L.L.o X 5.5.0.h.k.C.C.J.K.J.H.V.r 0 L.L.L.L.L.L.L.L.L.L.L.L.L.L.L.L.L.L.L.L.L.",
"L.L.L.L.L.L.L.L.L.L.L.L.L.L.L.L.L.L.L.L.L.o X 8.5.9.h.k.C.V.Z.F.H.N.C.h 0 L.L.L.L.L.L.L.L.L.L.L.L.L.L.L.L.L.L.L.L.L.",
"L.L.L.L.L.L.L.L.L.L.L.L.L.L.L.L.L.L.L.L.L.X X 9.5.9.w.w.k.M.w.w.h.h.C.r 0 L.L.L.L.L.L.L.L.L.L.L.L.L.L.L.L.L.L.L.L.L.",
"L.L.L.L.L.L.L.L.L.L.L.L.L.L.L.L.L.L.L.L.X X X t.5.5.q.w.w.w.w.w.h.h.m.0 0 0 L.L.L.L.L.L.L.L.L.L.L.L.L.L.L.L.L.L.L.L.",
"L.L.L.L.L.L.L.L.L.L.L.L.L.L.L.L.L.L.L.4 X X X X 8.5.8.9.w.w.w.w.h.c.j 0 0 0 0 L.L.L.L.L.L.L.L.L.L.L.L.L.L.L.L.L.L.L.",
"L.L.L.L.L.L.L.L.L.L.L.L.L.L.L.L.L.L.0 6 X X X X , 8.5.5.8.w.w.j.v.f.0 0 0 0 0 0 L.L.L.L.L.L.L.L.L.L.L.L.L.L.L.L.L.L.",
"L.L.L.L.L.L.L.L.L.L.L.L.L.L.L.L.L.0 0 0 3 X X X + i.6.5.5.q.w.w.f.0 0 0 0 0 0 0 M L.L.L.L.L.L.L.L.L.L.L.L.L.L.L.L.L.",
"L.L.L.L.L.L.L.L.L.L.L.L.L.L.L.L.&.e 0 0 0 o X X o * y.9.5.0.h.p.0 0 0 0 0 0 0 0 4.4.L.L.L.L.L.L.L.L.L.L.L.L.L.L.L.L.",
"L.L.L.L.L.L.L.L.L.L.L.L.L.L.4.4.4.3.e 0 0 0 3 X X o X o + = : t 0 0 0 0 0 0 0 b 4.4.4.4.L.L.L.L.L.L.L.L.L.L.L.L.L.L.",
"L.L.L.L.L.L.L.L.L.L.L.L.L.3.3.4.4.4.3.0 0 6 6 - , * X # = j < m.N.f.u 0 0 0 0 4.4.4.4.4.4.L.L.L.L.L.L.L.L.L.L.L.L.L.",
"L.L.L.L.L.L.L.L.L.L.L.L.*.3.3.4.4.4.4.#.6 o X u.x.b.c.B.C.A.H.J.D.C.n.0 0 0 o.4.4.4.4.4.4.4.L.L.L.L.L.L.L.L.L.L.L.L.",
"L.L.L.L.L.L.L.L.L.L.X.1.3.1.3.4.4.4.4.1.g X o g.q.7.q.k.V.H.K.K.K.D.C.0 0 M 4.4.4.4.4.4.! =.4.4.L.L.L.L.L.L.L.L.L.L.",
"L.L.L.L.L.L.L.L.L.X.*.*.-.*.3.4.4.4.4.1.X.8 o u.5.5.9.w.k.H.K.K.J.K.m.0 e 4.4.4.4.4.4.! U U =.4.4.L.L.L.L.L.L.L.L.L.",
"L.L.L.L.L.L.L.L.X.X.+.P E -.3.4.4.4.4.>.X.c o * 5.5.5.8.q.N.H.J.J.D.h 0 >.4.4.4.4.4.4.R ^ ^ Y 4.4.4.L.L.L.L.L.L.L.L.",
"L.L.L.L.L.L.L.X.X.] L   S -.1.4.4.4.4.3.O.X.t X e.5.5.5.5.9.w.w.h.n.0 w 4.4.4.4.4.4.4.4.R I 2.4.4.4.4.L.L.L.L.L.L.L.",
"L.L.L.L.L.L.X.X.[ ] J F W &.1.4.4.4.4.3.>.X.C X X e.5.5.5.5.q.w.l.u 0 _ 4.4.4.3.1.3.4.4.4.2.4.4.,.,.4.4.L.L.L.L.L.L.",
"L.L.L.L.X.X.X.] H [ ] { %.*.1.3.#.a 0 &.3.%.X.y X X r.5.5.5.q.h.0 0 e 4.4.4.3.n 5 g 1.4.4.4.4.,.T U ~ 4.4.4.L.L.L.L.",
"L.L.L.X.X.X.' % % J X.O.&.*.*.o.q 0 0 b 4.4.$.} 5 X X > g.q.z.; 0 0 @.4.4.3. .3 X o d %.4.4.4.! ^ ^ ^ ;.4.4.4.L.L.L.",
"L.L.X.C X.] S . . X.| X.$.*.f 6 6 8 M 1.4.4.4.*.C 4 X X X 3 0 0 0 n 4.4.4.*.} ..y X X s 1.4.4.4.Q ^ ^ T 2.4.4.4.L.L.",
"X.| ' H ` X.` D [ X.X.X.m 6 3 X X k X.X.$.3.4.4.3.B 3 4 4 6 0 0 w 3.4.4.4.%.| X.| z X X y #.4.4.4.=.T 2.4.4.2.4.4.L.",
"X.' A   S ` X.[ X.X.X.d @ 4 X + V X.X.| | X.3.4.4.3.q 0 6 0 0 0 ( 4.4.4.4.1.X.| | | z X X 9 &.4.4.4.4.4.4.;.T -.4.4.",
"X.K A Z S ..X.X.| N 8 X o X s V C | } X.X.X.X.3.4.4.M 0 0 0 0 0 1.4.4.4.4.4.$.| | | | d X o i >.4.4.4.4.:.I ^ I <.4.",
"X.X.K D ..X.X.X.z 4 X X l } C V V } X.X.X.X.| X.1.4.&.0 0 0 0 w 4.4.4.4.4.4.4.O.X.X.| } d X X i 3.4.4.4.<.U ^ U Q 4.",
"$.X.X.X.X.} z r X X 4 c X.X.} C V L.L.L.X.| | | $.4.*.0 0 0 0 b 4.4.4.4.4.4.L.L.L.| } | } i X X p 3.4.4.4.,.Y R 2.3.",
"$.X.X.X.X.i X X X s } } X.} X.} L.L.L.L.| X.| X.X.3.&.0 0 0 0 / 4.4.4.4.4.4.L.L.L.L.X.| } } z o 3 e @.4.4.4.2.4.4.3.",
"$.X.X.X.d 3 X 4 c | | | } | L.L.L.L.L.L.X.| | | X.$./ 0 0 0 0 b 4.4.4.4.4.4.L.L.L.L.L.L.} } | } f 3 w _ 3.4.4.4.4.3.",
"L.X.| i X X t } | | | | X.L.L.L.L.L.L.L.L.| | | | N q 0 0 0 0 q &.4.4.4.4.L.L.L.L.L.L.L.L.X.} } } s 6 0 a >.4.4.4.L.",
"L.X.r X 4 k } | | } | L.L.L.L.L.L.L.L.L.L.| | } 9 3 6 a.h.A.S.0 a 3.4.4.4.L.L.L.L.L.L.L.L.L.| } | } f w 0 b 4.4.4.L.",
"L.z X 8 C } | } } | X.L.L.L.L.L.L.L.L.L.L.X.z @ X X 6 h.h.J.G.0 0 a #.4.4.L.L.L.L.L.L.L.L.L.L.} | } } N p 0 b #.4.L.",
"L.L.8 } X.| | | X.L.L.L.L.L.L.L.L.L.L.L.L.l X X X 3 0 h.h.k.C.0 0 0 0 w a L.L.L.L.L.L.L.L.L.L.X.} } } | N i 0 a L.L.",
"L.L.| | | |  .L.L.L.L.L.L.L.L.L.L.L.L.L.L.L.X X X 4 q j v.M.d.0 0 0 0 0 L.L.L.L.L.L.L.L.L.L.L.L.L.} } } } C 9 q L.L.",
"L.L.L.L.L.L.L.L.L.L.L.L.L.L.L.L.L.L.L.L.L.L.O r C @./ w 0 0 0 n &.w 0 0 L.L.L.L.L.L.L.L.L.L.L.L.L.L.X.| } | } L.L.L.",
"L.L.L.L.L.L.L.L.L.L.L.L.L.L.L.L.L.L.L.L.L.L.t C O.3.4.M 0 0 0 b 4.3.n 0 L.L.L.L.L.L.L.L.L.L.L.L.L.L.L.L.L.L.L.L.L.L.",
"L.L.L.L.L.L.L.L.L.L.L.L.L.L.L.L.L.L.L.L.L.C X.$.*.3.4.M 0 0 0 v 4.4.4._ p L.L.L.L.L.L.L.L.L.L.L.L.L.L.L.L.L.L.L.L.L.",
"L.L.L.L.L.L.L.L.L.L.L.L.L.L.L.L.L.L.L.L.X.X.X.%.*.*./ q 0 0 0 b 4.4.4.4.3.3.L.L.L.L.L.L.L.L.L.L.L.L.L.L.L.L.L.L.L.L.",
"L.L.L.L.L.L.L.L.L.L.L.L.L.L.L.L.L.L.O.X.X.X.X.O.} e 6 0 0 0 0 q _ 4.4.4.4.4.4.4.L.L.L.L.L.L.L.L.L.L.L.L.L.L.L.L.L.L.",
"L.L.L.L.L.L.L.L.L.L.L.L.L.L.L.L.L.X.X.X.X.X.} y 4 6 6 6 6 6 0 0 w b @.4.4.4.4.4.4.L.L.L.L.L.L.L.L.L.L.L.L.L.L.L.L.L.",
"L.L.L.L.L.L.L.L.L.L.L.L.L.L.L.L.X.X.| X.X.k 4 X 3 3 8 4 6 6 6 p q 0 q M / ( o._ o.n L.L.L.L.L.L.L.L.L.L.L.L.L.L.L.L.",
"L.L.L.L.L.L.L.L.L.L.L.L.L.L.L.L.r i r r 5 @ X X 7 m 8 4 5 6 6 n M 0 0 0 0 0 q 0 0 0 L.L.L.L.L.L.L.L.L.L.L.L.L.L.L.L.",
"L.L.L.L.L.L.L.L.L.L.L.L.L.L.L.X X X X X X X 3 t X.X.X 4 4 6 0 / 1._ 0 0 0 0 0 0 0 0 0 L.L.L.L.L.L.L.L.L.L.L.L.L.L.L.",
"L.L.L.L.L.L.L.L.L.L.L.L.L.L.d 7 5 r f 9 X X X x X.X.3 X 3 4 4 #.1.3.a 6 w ( @.o.@.@.@.L.L.L.L.L.L.L.L.L.L.L.L.L.L.L.",
"L.L.L.L.L.L.L.L.L.L.L.L.L.L.| } } X.X.} 9 X 7 X.X.C X X 3 3 4  .&.1.) 6 p 1.1.1.1.3.1.L.L.L.L.L.L.L.L.L.L.L.L.L.L.L.",
"L.L.L.L.L.L.L.L.L.L.L.L.L.L.X.X.X.X.X.| k X i X.X.x X X X X 4 m $.%./ 6 g 1.1.1.*.1.*.L.L.L.L.L.L.L.L.L.L.L.L.L.L.L.",
"L.L.L.L.L.L.L.L.L.L.L.L.L.L.X.X.X.X.X.| k X d X.X.z X X X X X z $.$./ 6 p 1.1.1.1.1.*.L.L.L.L.L.L.L.L.L.L.L.L.L.L.L.",
"L.L.L.L.L.L.L.L.L.L.L.L.L.L.L.X.X.| X.X.k X d X.X.z 4 L.L.L.3 L.X.$.m 3 9 &.1.1.1.*.L.L.L.L.L.L.L.L.L.L.L.L.L.L.L.L.",
"L.L.L.L.L.L.L.L.L.L.L.L.L.L.L.L.X.X.| | N 4 k | X.L.L.L.L.L.L.L.X.X.m 4 4  .&.*.*.$.L.L.L.L.L.L.L.L.L.L.L.L.L.L.L.L.",
"L.L.L.L.L.L.L.L.L.L.L.L.L.L.L.L.L.L.X.X.C 7 x X.L.L.L.L.L.L.L.L.X.X.z @ 3 }  .$.$.L.L.L.L.L.L.L.L.L.L.L.L.L.L.L.L.L.",
"L.L.L.L.L.L.L.L.L.L.L.L.L.L.L.L.L.L.L.L.N y N X.L.L.L.L.L.L.L.L.L.L.} 8 4 } $.L.L.L.L.L.L.L.L.L.L.L.L.L.L.L.L.L.L.L.",
"L.L.L.L.L.L.L.L.L.L.L.L.L.L.L.L.L.L.L.L.L.L.L.L.L.L.L.L.L.L.L.L.L.L.L.L.L.L.L.L.L.L.L.L.L.L.L.L.L.L.L.L.L.L.L.L.L.L."
};
