/* XPM */
static char *_1[] = {
/* columns rows colors chars-per-pixel */
"58 59 197 2 ",
"   c #713D27",
".  c #185D3A",
"X  c #0F5537",
"o  c #20563C",
"O  c #7D462D",
"+  c #7E482E",
"@  c #774029",
"#  c #7A4731",
"$  c #7C4A33",
"%  c #774836",
"&  c #186847",
"*  c #367D53",
"=  c #6B4D48",
"-  c #6D514F",
";  c #795143",
":  c #60525E",
">  c #745C59",
",  c #7A635C",
"<  c #7F685F",
"1  c #5B5464",
"2  c #5A576C",
"3  c #585B75",
"4  c #615868",
"5  c #605F77",
"6  c #5E667F",
"7  c #786B6A",
"8  c #756E72",
"9  c #72717B",
"0  c #696774",
"q  c #83431F",
"w  c #814425",
"e  c #834B2D",
"r  c #884F2E",
"t  c #8D532F",
"y  c #94562C",
"u  c #95592F",
"i  c #814D33",
"p  c #855134",
"a  c #8C5532",
"s  c #865439",
"d  c #88563A",
"f  c #8C5A3B",
"g  c #8F5A36",
"h  c #905732",
"j  c #915934",
"k  c #935E39",
"l  c #95623C",
"z  c #99653E",
"x  c #8C5E42",
"c  c #845E49",
"v  c #8E6144",
"b  c #86614B",
"n  c #886049",
"m  c #936444",
"M  c #9B6B44",
"N  c #926649",
"B  c #956A4C",
"V  c #9B6E49",
"C  c #9E724D",
"Z  c #836555",
"A  c #976F51",
"S  c #996E51",
"D  c #9C7355",
"F  c #9C755A",
"G  c #9F795A",
"H  c #A17249",
"J  c #A6794E",
"K  c #A47A53",
"L  c #A97E53",
"P  c #A27C5C",
"I  c #A07751",
"U  c #9D7A60",
"Y  c #837674",
"T  c #A17E62",
"R  c #1C8D5F",
"E  c #248556",
"W  c #3DBF78",
"Q  c #3DBF77",
"!  c #4D915D",
"~  c #469A6B",
"^  c #559969",
"/  c #669A6E",
"(  c #74916A",
")  c #7E936B",
"_  c #42BE78",
"`  c #4BBB77",
"'  c #5BB877",
"]  c #59A76D",
"[  c #68A471",
"{  c #6DB777",
"}  c #61B877",
"|  c #74B577",
" . c #7AB678",
".. c #72A971",
"X. c #3CC078",
"o. c #33C279",
"O. c #62C17D",
"+. c #AB8255",
"@. c #AD865A",
"#. c #AE895E",
"$. c #B28D5F",
"%. c #868E68",
"&. c #9D8A68",
"*. c #9B8D64",
"=. c #A68464",
"-. c #A98666",
";. c #AA8866",
":. c #AA8768",
">. c #A58968",
",. c #AB8A69",
"<. c #A78967",
"1. c #B18D60",
"2. c #B18768",
"3. c #B28A69",
"4. c #AF916E",
"5. c #A6996D",
"6. c #B69364",
"7. c #B89667",
"8. c #B3936B",
"9. c #BB9B6B",
"0. c #B79870",
"q. c #BB9D71",
"w. c #9AAE76",
"e. c #82B276",
"r. c #88B176",
"t. c #94B177",
"y. c #85AE75",
"u. c #BEA06F",
"i. c #A4AE76",
"p. c #ACAC76",
"a. c #A6A673",
"s. c #B4A473",
"d. c #BEA272",
"f. c #B5AB76",
"g. c #BCAA76",
"h. c #C1A574",
"j. c #C4A976",
"k. c #C9A876",
"l. c #C6AC79",
"z. c #C9AB79",
"x. c #365B93",
"c. c #3A5E94",
"v. c #345D98",
"b. c #3B5A8B",
"n. c #3B6197",
"m. c #3A639A",
"M. c #38659F",
"N. c #3D6EA3",
"B. c #3C68A7",
"V. c #3E71A6",
"C. c #3D74AC",
"Z. c #3773AF",
"A. c #485D87",
"S. c #5A6B88",
"D. c #59769A",
"F. c #4D6F96",
"G. c #656F84",
"H. c #69768C",
"J. c #667A96",
"K. c #456BA4",
"L. c #4073A7",
"P. c #4275AA",
"I. c #4C7BAE",
"U. c #597BA4",
"Y. c #447CB4",
"T. c #447EBA",
"R. c #4F7FB1",
"E. c #617FB3",
"W. c #4C83BB",
"Q. c #4180BE",
"!. c #5886B7",
"~. c #5D85AF",
"^. c #738EAD",
"/. c #638CBF",
"(. c #6888B6",
"). c #6E92B9",
"_. c #4B8BCC",
"`. c #4E87C3",
"'. c #548AC3",
"]. c #548EC9",
"[. c #5A92CB",
"{. c #5A91C8",
"}. c #4D90D4",
"|. c #728EC0",
" X c #6392C2",
".X c #6C99C8",
"XX c #749ECB",
"oX c #7697C6",
"OX c #649AD2",
"+X c #7EAAD5",
"@X c #79A5D3",
"#X c #6EA6DD",
"$X c #74ACE2",
"%X c #81ABD6",
"&X c #81ADD9",
"*X c #86B0DA",
"=X c None",
/* pixels */
"=X=X=X=X=X=X=X=X=X=X=X=X=X=X=X=X=X=X=X=X=X=X=X=X=X=X=X=X=X=X=X=X=X=X=X=X=X=X=X=X=X=X=X=X=X=X=X=X=X=X=X=X=X=X=X=X=X=X",
"=X=X=X=X=X=X=X=X=X=X=X=X=X=X=X=X=X=X=X=X=X=X=X=X=X=X=X=X=X=X=X=X=X=X=X=X=Xk =X=X=X=X=X=X=X=X=X=X=X=X=X=X=X=X=X=X=X=X",
"=X=X=X=X=X=X=X=X=X=X=X=X=X=X=X=X=X=X=X=X=X=X=X=X=X=X=X=X=X=X=X=X=X=X=Xg j h j g j =X=X=X=X=X=X=X=X=X=X=X=X=X=X=X=X=X",
"=X=X=X=X=X=X=X=X=X=X=X=X=X=X=X=X=X=X=X=X=X=X=X=X=X=X=X=X=X=X=X=X=X=Xj h k y u h j j k =X=X=X=X=X=X=X=X=X=X=X=X=X=X=X",
"=X=X=X=X=X=X=X=X=X=X=X=X=X=X=X=X=X=X=X=X=X=X=X=X=X=X=X=X=X=X=X=Xh g h v 8 H.Z u u j j =X=X=X=X=X=X=X=X=X=X=X=X=X=X=X",
"=X=X=X=X=X=X=X=X=X=X=X=X=X=X=X=X=X=X=X=X=X=X=X=X=X=X=X=X=X=X=Xj t f 7 D.W.Q.].~.Z j j =X=X=X=X=X=X=X=X=X=X=X=X=X=X=X",
"=X=X=X=X=X=X=X=X=X=X=X=X=X=X=X=X=X=X=X=X=X=X=X=X=X=X=X=X=X=Xj j l ~.I.C.V.I.W.W.H.u u h =X=X=X=X=X=X=X=X=X=X=X=X=X=X",
"=X=X=X=X=X=X=X=X=X=X=X=X=X=X=X=X=X=X=X=X=X=X=X=X=X=X=X=X=Xj y Z 6 C.V.V.P..X+XOX}.J.x h =X=X=X=X=X=X=X=X=X=X=X=X=X=X",
"=X=X=X=X=X=X=X=X=X=X=X=X=X=X=X=X=X=X=X=X=X=X=X=X=X=X=X=X=Xj y F.P.V.C.P./.*X%X@X].!.f j =X=X=X=X=X=X=X=X=X=X=X=X=X=X",
"=X=X=X=X=X=X=X=X=X=X=X=X=X=X=X=X=X=X=X=X=X=X=X=X=X=X=X=X=Xj c P.L.V.L.L..X&X%X%X+X).n j =X=X=X=X=X=X=X=X=X=X=X=X=X=X",
"=X=X=X=X=X=X=X=X=X=X=X=X=X=X=X=X=X=X=X=X=X=X=X=X=X=X=X=Xj y S.C.L.L.L.C.{.%X+X%X%X].b h =X=X=X=X=X=X=X=X=X=X=X=X=X=X",
"=X=X=X=X=X=X=X=X=X=X=X=X=X=X=X=X=X=X=X=X=X=X=X=X=X=Xj j j f P.V.V.L.L.W.{.+X%X%X+X Xk j =X=X=X=X=X=X=X=X=X=X=X=X=X=X",
"=X=X=X=X=X=X=X=X=X=X=X=X=X=X=X=X=X=X=X=X=X=X=Xh j j j j y > B.c.M.V.C.].].@X%X%X+X)., j j =X=X=X=X=X=X=X=X=X=X=X=X=X",
"=X=X=X=X=X=X=X=X=X=X=X=X=X=X=X=X=X=X=X=Xj.j.L j j j j h e w A.x.b.m.V.W.W. X+X+X+X].x j =X=X=X=X=X=X=X=X=X=X=X=X=X=X",
"=X=X=X=X=X=X=X=X=X=X=X=X=X=X=X=X=Xj.j.j.j.j.7.l h j j a e % A.c.x.x.M.L.C.P.!..X{.~.j j =X=X=X=X=X=X=X=X=X=X=X=X=X=X",
"=X=X=X=X=X=X=X=X=X=X=X=X=Xd.j.k.j.j.j.j.j.j.j.M j j j p + $ 3 v.b.c.n.L.L.L.M.L._.8 f =X=X=X=X=X=X=X=X=X=X=X=X=X=X=X",
"=X=X=X=X=X=X=X=X=X=Xq.d.h.k.f.f.p.j.j.j.j.j.l.@.t j j a e O 5 n.x.x.x.M.V.L.C.P.~.k h =X=X=X=X=X=X=X=X=X=X=X=X=X=X=X",
"=X=X=X=X=X=X3.,.8.q.d.h.d.O.! `  .j.j.j.j.j.j.9.k j j f i O - K.v.x.x.B.V.Y.R.G.Z y j =X=X=X=X=X=X=X=X=X=X=X=X=X=X=X",
"=X=X=X3.:.3.2.:.8.5.w...a.' . E e.g.j.j.j.j.j.d.M h h 8 9 ; w $ 1 b.v.V.L.D.9 j j j j j =X=X=X=X=X=X=X=X=X=X=X=X=X=X",
"=X=X>.&.) / &.&.[ * E ] s.y.} r.g.j.j.j.j.j.j.l.J y , `.`.J.; O $ = 1 S., v u j j j j j =X=X=X=X=X=X=X=X=X=X=X=X=X=X",
"=X3.%.^ & o ) >.^ . X ..s.s.g.j.j.j.j.j.j.j.j.j.K r S.K.L.T._.U.0 , , x y y j j j j j j j =X=X=X=X=X=X=X=X=X=X=X=X=X",
"=X:.&.~ E R / >.%.[ &.k.d.h.h.j.l.j.h.u.z.j.j.j.D   3 x.x.N.P._.OXXX).!.H.c j j j j j h H =X=X=X=X=X=X=X=X=X=X=X=X=X",
"=X,.>.( ~ ( :.:.:.8.9.q.h.d.h.h.7.1.H z z h.j.8.D e 1 v.x.c.L.W.%X%X+X@X'.9 f j j j j z 9.=X=X=X=X=X=X=X=X=X=X=X=X=X",
"=X,.,.,.>.,.:.,.:.,.8.8.#.J l M k j j j k 7.j.8.T # 4 x.x.x.m.I.XX@X+X@XOX~.j h j p H 6.z.l.=X=X=X=X=X=X=X=X=X=X=X=X",
"=X:.-.:.,.P P F D v l a a r a a h t M @.1.9.l.0.P i % A.v.x.x.K.E.).oX@XOXH.y j l +.z.j.j.j.j.=X=X=X=X=X=X=X=X=X=X=X",
"4.,.-.P B p e i O O O p l k l V C P -.8.j.j.j.q.:.d w 1 v.x.x.x.x.K.E.|.H.x u K 7.j.l.j.j.j.j.=X=X=X=X=X=X=X=X=X=X=X",
";.B f i O O O i s m m ;.,.,.#.=.>.:.:.-.,.j.j.j.3.B # % A.x.x.x.x.v.c.6 r z $.z.j.j.j.j.j.j.j.j.=X=X=X=X=X=X=X=X=X=X",
"d i $ i x v G P =.-.,.,.4.=.&.T -.>.-.:.:.8.j.j.j.I # # 2 K.v.x.v.2 - % a $.z.j.j.j.j.j.j.k.p.l.=X=X=X=X=X=X=X=X=X=X",
"s B G =.=.:.:.<.-.-.-.-.-.U U =.:.=X,.-.:.,.j.j.k.7.p e w % 4 2 - q O s $.j.j.j.j.j.j.k.i.| ' w.k.=X=X=X=X=X=X=X=X=X",
"@.-.-.:.=.:.-.=.-.:.-.=.U =X=X=X=X=X=X:.:.,.q.j.z.9.j h i e e   O + v @.z.j.j.j.j.j.j.j.{ X.o. .j.=X=X=X=X=X=X=X=X=X",
"=X:.-.-.:.-.-.-.-.=X=X=X=X=X=X=X=X=X=X-.:.,.q.j.j.7.m h j h t r a D 9.j.j.j.l.7.@.h.j.k.f.X.X.` g.l.=X=X=X=X=X=X=X=X",
"=X=X=X=X=X=X=X=X=X=X=X=X=X=X=X=X=X=X=X:.:.,.h.j.j.9.j j j j t H $.l.l.j.j.j.h.k t H j.j.j.r.e.g.k.j.=X=X=X=X=X=X=X=X",
"=X=X=X=X=X=X=X=X=X=X=X=X=X=X=X=X=X=X=X:.-.,.j.j.j.+.a j j h j 9.j.j.j.j.j.j.l.$.l k 7.j.j.j.j.k.j.j.j.=X=X=X=X=X=X=X",
"=X=X=X=X=X=X=X=X=X=X=X=X=X=X=X=X=X=X,.-.:.8.j.l.7.l j j h k +.l.j.j.j.j.j.j.j.u.H t +.j.j.j.j.p.t.p.j.=X=X=X=X=X=X=X",
"=X=X=X=X=X=X=X=X=X=X=X=X=X=X=X=X=X=X>.:.,.8.u.$.M u j j h J u.j.j.j.j.j.j.j.j.j.6.a z u.l.j.w.} X.' f.j.=X=X=X=X=X=X",
"=X=X=X=X=X=X=X=X=X=X=X=X=X=X=X=X=X=XF A f l k j f u y a l $.l.j.j.j.j.j.j.j.j.h.9.M a +.j.j.j.` X._ w.k.j.=X=X=X=X=X",
"=X=X=X=X=X=X=X=X=X=X=X=X=X=X=X=X=X=X$ @ e j u g S.F.Y j k 6.l.j.j.j.j.j.j.j.d.4.,.B O l 7.j.j. .W W | j.j.=X=X=X=X=X",
"=X=X=X=X=X=X=X=X=X=X=X=X=X=X=X=X=X=X  @ t h y 0 Z.!.$X^.j 6.j.j.j.j.l.=X=X=X,.-.-.G $ O @.j.k.f.} } e.j.j.j.=X=X=X=X",
"=X=X=X=X=X=X=X=X=X=X=X=X=X=X=X=X=X=X$ V I l h S.C.W.#XY y +.l.j.j.j.j.=X=X=X=X-.=.=.v O l h.j.k.g.g.j.k.k.j.=X=X=X=X",
"=X=X=X=X=X=X=X=X=X=X=X=X=X=X=X=XU F -.8.9.6.C Z W.Q.W.k u l 7.l.j.j.=X=X=X=X=X-.-.:.A + $ $.j.j.k.j.g.w.i.j.j.=X=X=X",
"=X=X=X=X=X=X=X=X=X=X=X=X,.,.,.,.:.,.:.8.q.q.L j f 7 7 y h j H u.l.l.=X=X=X=X=X=X-.-.=.v O m j.j.k.i.} ` } g.j.=X=X=X",
"=X=X=X=X=X=X=X=X=X=X=.,.,.,.,.-.:.:.:.,.0.0.H a j y M @.k h h l +.=X=X=X=X=X=X=X=X=.=.F + i ;.j.j.p._ X.X.i.j.=X=X=X",
"=X=X=X=X=X=X=X=X+ i x S P :.,.-.:.T P S A m k t a k L j.M h h =X=X=X=X=X=X=X=X=X=X-.-.:.D $ m h.j.j.| X._  .h.=X=X=X",
"=X=X=X=X=X=X=XD p O + i d x B m d i e i O O i p t l 6.z.7.z h =X=X=X=X=X=X=X=X=X=X=X<.-.=.s + @.l.j.i.{ t.p.=X=X=X=X",
"=X=X=X=X=X=X4.-.G v v x + + O O # O O O O $ e i r M d.j.z.@.k =X=X=X=X=X=X=X=X=X=X=X-.-.-.B + s 7.j.k.j.l.h.=X=X=X=X",
"=X=X=X=X=X=X-.,.<.,.=.G s O O + p x S s e O e e p l 7.g.h.q.H =X=X=X=X=X=X=X=X=X=X=X-.=.=.P s O I j.j.j.j.=X=X=X=X=X",
"=X=X=X=X=X=X,.,.-.:.:.,.v + O x P 4.F e O O i O p a D 9.h.j.j.9.=X=X=X=X=X=X=X=X=X=X=X=.=.=.D i d j.j.j.=X=X=X=X=X=X",
"=X=X=X=X=X=X=X:.:.:.:.=.B + d =.:.,.f O O $ O i f i a P q.h.d.h.=X=X=X=X=X=X=X=X=X=X=X:.=.=.=.x $ I j.j.=X=X=X=X=X=X",
"=X=X=X=X=X=X=X:.:.:.,.G d s D ,.:.+.O O O O O v S d e f P 7.d.h.j.=X=X=X=X=X=X=X=X=X=X=X-.=.>.A # x 7.=X=X=X=X=X=X=X",
"=X=X=X=X=X=X=X=X:.:.:.D + N =.,.T c O e O O i P ,.S $ e d M @.9.q.=X=X=X=X=X=X=X=X=X=X=X=X-.>.+.d i =X=X=X=X=X=X=X=X",
"=X=X=X=X=X=X=X=X8.:.=.N p D :.-.D e + O O O N :.,.P $ $ e i a V #.L =X=X=X=X=X=X=X=X=X=X=X=X=XU =X=X=X=X=X=X=X=X=X=X",
"=X=X=X=X=X=X=X=X=X=X=.f B =.,.=.B @ + O O O D :.,.I i e p i e e a k =X=X=X=X=X=X=X=X=X=X=X=X=X=X=X=X=X=X=X=X=X=X=X=X",
"=X=X=X=X=X=X=X=X=X=X=Xm P ,.=X=X=X=X=X=XO d P :.>.A O i D F B d e r =X=X=X=X=X=X=X=X=X=X=X=X=X=X=X=X=X=X=X=X=X=X=X=X",
"=X=X=X=X=X=X=X=X=X=X=X=X=X=X=X=X=X=X=X=X=X=X,.,.@.x $ B ,.<.=.@.I m =X=X=X=X=X=X=X=X=X=X=X=X=X=X=X=X=X=X=X=X=X=X=X=X",
"=X=X=X=X=X=X=X=X=X=X=X=X=X=X=X=X=X=X=X=X=X=X,.:.D $ p P ,.,.,.,.:.=.=X=X=X=X=X=X=X=X=X=X=X=X=X=X=X=X=X=X=X=X=X=X=X=X",
"=X=X=X=X=X=X=X=X=X=X=X=X=X=X=X=X=X=X=X=X=X=X,.=.v O s -.:.,.,.-.:.=X=X=X=X=X=X=X=X=X=X=X=X=X=X=X=X=X=X=X=X=X=X=X=X=X",
"=X=X=X=X=X=X=X=X=X=X=X=X=X=X=X=X=X=X=X=X=X=X,.P s O N =.,.-.,.,.:.=X=X=X=X=X=X=X=X=X=X=X=X=X=X=X=X=X=X=X=X=X=X=X=X=X",
"=X=X=X=X=X=X=X=X=X=X=X=X=X=X=X=X=X=X=X=X=X=X=XP p O G :.:.,.:.,.=X=X=X=X=X=X=X=X=X=X=X=X=X=X=X=X=X=X=X=X=X=X=X=X=X=X",
"=X=X=X=X=X=X=X=X=X=X=X=X=X=X=X=X=X=X=X=X=X=X=X=Xs f -.,.,.,.,.=X=X=X=X=X=X=X=X=X=X=X=X=X=X=X=X=X=X=X=X=X=X=X=X=X=X=X"
};
