/* XPM */
static char *_2[] = {
/* columns rows colors chars-per-pixel */
"58 59 197 2 ",
"   c #7D462D",
".  c #7E492E",
"X  c #75412C",
"o  c #774936",
"O  c #7D4A31",
"+  c #754939",
"@  c #7B4935",
"#  c #7B513D",
"$  c #2C7D50",
"%  c #2D7C4E",
"&  c #714B41",
"*  c #7B5849",
"=  c #644F54",
"-  c #695356",
";  c #7C645B",
":  c #7C6154",
">  c #5B576B",
",  c #4A5779",
"<  c #5A5F7D",
"1  c #505775",
"2  c #645C69",
"3  c #605E74",
"4  c #5F667C",
"5  c #6B666C",
"6  c #756A6B",
"7  c #766867",
"8  c #6A6D7A",
"9  c #666C7A",
"0  c #746E73",
"q  c #6C717F",
"w  c #73737C",
"e  c #834C2F",
"r  c #8B522F",
"t  c #95562C",
"y  c #814D32",
"u  c #845135",
"i  c #8D5532",
"p  c #8E5935",
"a  c #86553A",
"s  c #8C5B3C",
"d  c #88573B",
"f  c #915732",
"g  c #915934",
"h  c #925E3A",
"j  c #95623C",
"k  c #98663E",
"l  c #845C45",
"z  c #8A5C41",
"x  c #855E49",
"c  c #8E6144",
"v  c #8E644B",
"b  c #85614C",
"n  c #916444",
"m  c #9C6B43",
"M  c #926649",
"N  c #956B4D",
"B  c #976A47",
"V  c #9D724D",
"C  c #856656",
"Z  c #966E53",
"A  c #996E51",
"S  c #936D5A",
"D  c #9B7254",
"F  c #9B755B",
"G  c #9E795B",
"H  c #96715C",
"J  c #A06F46",
"K  c #A2754B",
"L  c #A5784E",
"P  c #A47B53",
"I  c #A17C5C",
"U  c #A97F53",
"Y  c #9F7C60",
"T  c #817372",
"R  c #A27E61",
"E  c #388857",
"W  c #31925C",
"Q  c #3DBF78",
"!  c #3ABB77",
"~  c #5F8558",
"^  c #509861",
"/  c #699864",
"(  c #7C8F68",
")  c #58A86D",
"_  c #44AD70",
"`  c #59A871",
"'  c #44BD77",
"]  c #42BE78",
"[  c #4FBB77",
"{  c #5CB977",
"}  c #56B976",
"|  c #6AA56C",
" . c #65AE70",
".. c #7BAD72",
"X. c #69B576",
"o. c #7AB376",
"O. c #79A56F",
"+. c #3AC078",
"@. c #AB8357",
"#. c #AC865B",
"$. c #AF895B",
"%. c #B18B5D",
"&. c #988D68",
"*. c #8D966C",
"=. c #A68363",
"-. c #A98666",
";. c #AB8966",
":. c #A98768",
">. c #AB8A69",
",. c #A18965",
"<. c #B28E61",
"1. c #B18E6A",
"2. c #A8946C",
"3. c #B69364",
"4. c #B89667",
"5. c #B89867",
"6. c #B3936B",
"7. c #B7996D",
"8. c #BB9B6C",
"9. c #BC9E71",
"0. c #B79D71",
"q. c #80A76F",
"w. c #82AB73",
"e. c #8AA973",
"r. c #96AE75",
"t. c #9CAE76",
"y. c #86B276",
"u. c #89B177",
"i. c #94B076",
"p. c #BEA16F",
"a. c #A7A372",
"s. c #A2AD76",
"d. c #AAAC76",
"f. c #ACA273",
"g. c #B3A372",
"h. c #BEA271",
"j. c #B4AA76",
"k. c #BCA975",
"l. c #C2A673",
"z. c #C4A976",
"x. c #C9A876",
"c. c #C6AD79",
"v. c #C8AF7B",
"b. c #375B93",
"n. c #385E94",
"m. c #325C98",
"M. c #3B6097",
"N. c #3A639B",
"B. c #3C6A9F",
"V. c #3E6EA3",
"C. c #3866A7",
"Z. c #3F71A6",
"A. c #4A5D85",
"S. c #4C628F",
"D. c #536B8B",
"F. c #596B87",
"G. c #416E9F",
"H. c #48719D",
"J. c #517197",
"K. c #5E718A",
"L. c #6D7483",
"P. c #61728E",
"I. c #707C91",
"U. c #6D7083",
"Y. c #4173A7",
"T. c #4275A9",
"R. c #4A7BAD",
"E. c #4775A9",
"W. c #587DA7",
"Q. c #4B7EB3",
"!. c #467CB8",
"~. c #627FA4",
"^. c #7C808D",
"/. c #6A809C",
"(. c #5383B5",
"). c #5587BA",
"_. c #5B8BBD",
"`. c #5C84B2",
"'. c #4C81B7",
"]. c #6A88AB",
"[. c #668CB6",
"{. c #4B88C6",
"}. c #558CC5",
"|. c #5190D0",
" X c #5D92C9",
".X c #6695C6",
"XX c #6C99C7",
"oX c #6D9BCA",
"OX c #6295CD",
"+X c #719ECC",
"@X c #74A1CE",
"#X c #7AA3CB",
"$X c #73A2D1",
"%X c #7AA6D2",
"&X c #7EA9D5",
"*X c #81ADD8",
"=X c None",
/* pixels */
"=X=X=X=X=X=X=X=X=X=X=X=X=X=X=X=X=X=X=X=X=X=X=X=X=X=X=X=X=X=X=X=X=X=X=X=X=X=X=X=X=X=X=X=X=X=X=X=X=X=X=X=X=X=X=X=X=X=X",
"=X=X=X=X=X=X=X=X=X=X=X=X=X=X=X=X=X=X=X=X=X=X=X=X=X=X=X=X=X=X=X=X=X=X=X=X=X=X=X=X=X=X=X=X=X=X=X=X=X=X=X=X=X=X=X=X=X=X",
"=X=X=X=X=X=X=X=X=X=X=X=X=X=X=X=X=X=X=X=X=X=X=X=X=X=X=X=X=X=X=X=X=X=X=X=X=X=X=X=X=X=X=X=X=X=X=X=X=X=X=X=X=X=X=X=X=X=X",
"=X=X=X=X=X=X=X=X=X=X=X=X=X=X=X=X=X=X=X=X=X=X=X=X=X=X=X=X=X=X=X=X=X=X=X=X=X=X=X=X=X=X=X=X=X=X=X=X=X=X=X=X=X=X=X=X=X=X",
"=X=X=X=X=X=X=X=X=X=X=X=X=X=X=X=X=X=X=X=X=X=X=X=X=X=X=X=X=X=X=X=X=X=X=X=X=X=X=X=X=X=X=X=X=X=X=X=X=X=X=X=X=X=X=X=X=X=X",
"=X=X=X=X=X=X=X=X=X=X=X=X=X=X=X=X=X=X=X=X=X=X=X=X=X=X=X=X=X=X=X=X=X=X=X=X=X=X=X=X=X=X=X=X=X=X=X=X=X=X=X=X=X=X=X=X=X=X",
"=X=X=X=X=X=X=X=X=X=X=X=X=X=X=X=X=X=X=X=X=X=X=X=X=X=X=X=X=X=X=X=X=X=X=X=X=X=X=X=X=X=X=X=X=X=X=X=X=X=X=X=X=X=X=X=X=X=X",
"=X=X=X=X=X=X=X=X=X=X=X=X=X=X=X=X=X=X=X=X=X=X=X=X=X=X=X=X=X=X=X=X=X=X=X=X=X=X=X=X=X=Xi f f g f p f =X=X=X=X=X=X=X=X=X",
"=X=X=X=X=X=X=X=X=X=X=X=X=X=X=X=X=X=X=X=X=X=X=X=X=X=X=X=X=X=X=X=X=X=X=X=X=X=X=X=Xf f p s g p t g g f =X=X=X=X=X=X=X=X",
"=X=X=X=X=X=X=X=X;.1.6.=X=X=X=X=X=X=X=X=X=X=X=X=X=X=X=X=X=X=X=X=X=X=X=X=X=X=Xp p s : 5 8 8 L.6 s f p p =X=X=X=X=X=X=X",
"=X=X=X=X=X=X=X,.2.a.f.l.h.h.l.l.l.l.l.=X=X=X=X=X=X=X=X=X=X=X=X=X=X=X=X=X=Xp s 7 9 J.E.Y.T.R.{.L.t f f f =X=X=X=X=X=X",
"=X=X=X=X=X=X;.&.` ! E y.g.g.k.j.j.z.k.j.k.z.z.l.z.l.l.l.=X=X=X=X=X=X=Xf f s 5 H.Y.Z.Y.Y.T.R.'.|.7 f f p =X=X=X=X=X=X",
"=X=X=X=X=X=X;.&.) W $ O.a.w.| / ..s.t...q.t.j.z.z.z.l.l.4.m f f f p f f s 5 H.Z.T.T.T.R._.XX.X_.L.h g g =X=X=X=X=X=X",
"=X=X=X=X=X>.>.1.) _ ` e.a.| E $ ) t.y.W %  .d.l.z.z.z.z.z.k f g f g g s 5 E.Z.T.Z.Z.T._.%X&X$X X].s g =X=X=X=X=X=X=X",
"=X=X=X=X;.-.>.6.2.a.s.g.f.w./ ~ q.d.i.) ^ ..d.k.z.z.z.z.5.m g g g g p c K.T.Z.Y.Y.Y.'..X&X&X%XOX`.; p =X=X=X=X=X=X=X",
"=X=X=X=X=.=.-.>.>.6.8.h.h.j.h.g.k.z.j.d.d.j.k.z.z.z.z.z.4.k g g f f p * D.Z.Y.Z.T.'.{.oX&X&X&X+XI.* p =X=X=X=X=X=X=X",
"=X=X=Xn s c n N B V #.3.7.8.p.z.c.z.z.z.x.z.z.z.z.z.z.z.8.h f f g r y - S.m.C.Y.T.{. X+X&X&X&XoXL.s f =X=X=X=X=X=X=X",
"=X=X=Xd a u y y u u h m V L @.<.3.5.8.l.l.l.l.z.z.z.z.l.%.j g g p y + > n.b.n.Y.T.!.}.$X&X&X%X].C i f =X=X=X=X=X=X=X",
"=X=X=.I G D N n n j d u u r p k k m K @.%.%.4.l.c.z.z.v.%.f t C b . . < n.n.b.n.V.T.R.XX%X&X+XI.z p =X=X=X=X=X=X=X=X",
"=X=X=X=.-.=.=.R =.Z Z M v d d s p g g f j j k K 5.z.z.p.L h 0 W.P.- + > n.n.b.b.n.B.Y.(..XoX[.6 s f =X=X=X=X=X=X=X=X",
"=X=X=X=X;.;.,.R S F G =.R G G F N B n k j k j k <.z.z.5.m 7 W.Q.Q.3 + & , b.b.b.b.n.V.Y.Q.).L.s i =X=X=X=X=X=X=X=X=X",
"=X=X=X=X=X=X=.F S H F G R R =.-.&.#.R 1.%.3.<.L p.c.z.<.g 7 E.Y.Z.!.3 @ + , m.b.b.n.G.E.W.L.b s =X=X=X=X=X=X=X=X=X=X",
"=X=X=X=X=X=X=X=XS S H Y R R =.=.R =.=.:.=.1.l.l.z.z.l.L b F.Y.Y.Y.R.E.< = = 1 , A.A.F.8 6 z p =X=X=X=X=X=X=X=X=X=X=X",
"=X=X=X=X=X=X=X=X=X=X=X=X=X=X=X-.:.:.:.:.:.:.p.z.z.z.l.m t J.Z.Y.Z.!.}. XU.= - & @ . z s s f f =X=X=X=X=X=X=X=X=X=X=X",
"=X=X=X=X=X=X=X=X=X=X=X=X=X=X=X=X=X=X=X>.-.-.6.z.z.z.5.k l D.Z.Y.Z.'.+X&X#X].4 & y i g g g f f =X=X=X=X=X=X=X=X=X=X=X",
"=X=X=X=X=X=X=X=X=X=X=X=X=X=X=X=X=X=X=X;.:.:.1.z.z.l.3.p # , N.B.Z.(.@X&X%XoX`.6 s g g g g f f =X=X=X=X=X=X=X=X=X=X=X",
"=X=X=X=X=X=X=X=X=X=X=X=X=X=X=X=X=X=X=X;.-.-.0.z.z.l.@.u + 1 b.M.Z.R.oX&X&X$X_.q s p g g g g f =X=X=X=X=X=X=X=X=X=X=X",
"=X=X=X=X=X=X=X=X=X=X=X=X=X=X=X=X=X=X=X:.-.:.k.z.z.c.L   X 4 C.b.N.Z.(.+X&X&X|.0 f p g g g f h =X=X=X=X=X=X=X=X=X=X=X",
"=X=X=X=X=X=X=X=X=X=X=X=X=X=X=X=X=X=X>.-.;.6.z.z.c.8.i     . S.N.b.B.Y.).XX].0 t f t i g f L @.=X=X=X=X=X=X=X=X=X=X=X",
"=X=X=X=X=X=X=X=X=X=X=X=X=X=X=X=X=X;.-.-.;.l.z.z.h.#.p       & > > 2 8 0 ; x j j m K L $.%.l.8.=X=X=X=X=X=X=X=X=X=X=X",
"=X=X=X=X=X=X=X=X=X=X=X=X=X=X=X=XI =.=.=.6.l.z.l.3.m i .       o o u c j k J %.4.8.8.p.z.l.l.z.=X=X=X=X=X=X=X=X=X=X=X",
"=X=X=X=X=X=X=X=X=X=X=X=X=X=X=X=Xz c M D <.p.5.%.m g p e .   . . u m K @.<.8.l.z.z.z.z.z.z.z.z.=X=X=X=X=X=X=X=X=X=X=X",
"=X=X=X=X=X=X=X=X=X=X=X=X=X=X=X=XX X   f g J k j r g g f y a n V 1.p.l.c.z.c.z.z.z.z.z.z.z.z.z.=X=X=X=X=X=X=X=X=X=X=X",
"=X=X=X=Xu . s >.1.>.>.H =X=X=XX X X e f g g b t g g r j m $.8.l.z.c.z.z.z.z.z.z.z.z.l.c.c.z.x.=X=X=X=X=X=X=X=X=X=X=X",
"=X=X=XG s O u N =.>.-.=.S C S v M N j g b 4 F.7 g g k @.4.l.z.z.z.z.z.z.z.8.<.5.z.z.z.d.r.r.j.=X=X=X=X=X=X=X=X=X=X=X",
"=X=X;.=.A a O a N I -.>.Y Y S Y -.6.V c 9 Z.'.].T g K 5.z.l.z.c.z.z.z.l.0.U k K 8.z.k.o.[ { t.k.=X=X=X=X=X=X=X=X=X=X",
"=X=X;.-.=.D c u u z F R R R R -.1.6.I c 9 Y.).+X^.B $.z.z.k.h.6.6.6.6.>.>.P p m 5.z.j.X.' [ r.h.=X=X=X=X=X=X=X=X=X=X",
"=X;.:.>.:.>.R d y e y a M A I -.>.7.@.g ; {.{.].C k 5.z.9.>.>.-.-.-.-.-.>.G y j 8.z.x.o.' ' d.z.=X=X=X=X=X=X=X=X=X=X",
"=X#.-.:.:.-.I s     y . . y u z c M h i i ; 0 x f k 3.6.;.:.-.-.-.-.-.-.=.G y j 5.c.z.j.d.d.k.z.=X=X=X=X=X=X=X=X=X=X",
"=X>.:.>.>.:.G u     y y y       .   . i e f J f f j %.;.:.-.:.>.=X=X>.-.:.R y s l.z.z.z.x.z.z.c.=X=X=X=X=X=X=X=X=X=X",
"=X=X>.>.:.G z e u M I :.R M u .   y   y r B <.L g f M >.-.>.=X=X=X=X=X-.>.G O p 4.z.x.d.t.s.k.c.=X=X=X=X=X=X=X=X=X=X",
"=X=X6.-.I n u z F =.-.:.A a . .   .   y B ;.1.K f e y A -.=X=X=X=X=X=X=.=.D u s <.l.k.o.} { t.k.=X=X=X=X=X=X=X=X=X=X",
"=X=X=X-.M y n I >.:.:.K     .   . . . u A 0.8.P i . =X=X=X=X=X=X=X=X=X-.-.F y p 5.z.z.X.+.' y.z.=X=X=X=X=X=X=X=X=X=X",
"=X=X=XA n M I -.=.I M u y .     . O O d R 1.9.=.e =X=X=X=X=X=X=X=X=X=X;.-.G . p 4.z.x.y.+.+.i.x.=X=X=X=X=X=X=X=X=X=X",
"=X=X=X=XI =.>.>.R M       y     y c y y A >.>.>.O =X=X=X=X=X=X=X=X=X=X-.:.G . h 4.z.z.i.' ' t.x.c.=X=X=X=X=X=X=X=X=X",
"=X=X=X=X=X>.=X=X=Xe           u A G d . M :.>.6.M =X=X=X=X=X=X=X=X=X=X-.-.G u p 5.c.z.z.k.d.z.c.z.=X=X=X=X=X=X=X=X=X",
"=X=X=X=X=X=X=X=X=X=X=Xe y   y R >.:.d   d =.>.:.F =X=X=X=X=X=X=X=X=X=X;.-.;.s p 4.z.z.x.x.z.z.z.z.=X=X=X=X=X=X=X=X=X",
"=X=X=X=X=X=X=X=X=X=X=X=X  d A R >.=.u   y M =.>.=.=X=X=X=X=X=X=X=X=X=X:.=.-.D f %.x.z.j.y.y.s.z.z.=X=X=X=X=X=X=X=X=X",
"=X=X=X=X=X=X=X=X=X=X=X=X=XA R >.:.D y .   y A =.>.=X=X=X=X=X=X=X=X=X=X;.-.-.N i %.z.z.s.] ] { k.z.=X=X=X=X=X=X=X=X=X",
"=X=X=X=X=X=X=X=X=X=X=X=X=X>.>.-.D s   y O   u A -.=X=X=X=X=X=X=X=X=X=X-.=.:.N r @.z.z.s.Q +.{ k.x.=X=X=X=X=X=X=X=X=X",
"=X=X=X=X=X=X=X=X=X=X=X=X>.>.-.G s . d D N y   u D =X=X=X=X=X=X=X=X=X=XR =.=.A i J z.z.s.' ' X.9.=X=X=X=X=X=X=X=X=X=X",
"=X=X=X=X=X=X=X=X=X=X=X=X1.>.G s . d F >.=.A O   y =X=X=X=X=X=X=X=X=X=X=.Y =.D u j 9.l.9.*.*.( :.=X=X=X=X=X=X=X=X=X=X",
"=X=X=X=X=X=X=X=X=X=X=X=X=XG s   y D >.:.:.R A y   =X=X=X=X=X=X=X=X=X=XR R R F a j 7.9.9.7.1.>.=X=X=X=X=X=X=X=X=X=X=X",
"=X=X=X=X=X=X=X=X=X=X=X=X=XN O y N =.:.-.:.:.R A a =X=X=X=X=X=X=X=X=X=X=XR R D s m 4.9.0.1.=X=X=X=X=X=X=X=X=X=X=X=X=X",
"=X=X=X=X=X=X=X=X=X=X=X=X=X=Xy N -.>.:.>.>.:.>.-.=X=X=X=X=X=X=X=X=X=X=X=XF R R s n 6.9.1.=X=X=X=X=X=X=X=X=X=X=X=X=X=X",
"=X=X=X=X=X=X=X=X=X=X=X=X=X=X=X;.>.:.>.:.-.>.>.=X=X=X=X=X=X=X=X=X=X=X=X=X=XS I h h =X=X=X=X=X=X=X=X=X=X=X=X=X=X=X=X=X",
"=X=X=X=X=X=X=X=X=X=X=X=X=X=X=X=X=X>.>.>.1.=X=X=X=X=X=X=X=X=X=X=X=X=X=X=X=X=X=X=X=X=X=X=X=X=X=X=X=X=X=X=X=X=X=X=X=X=X",
"=X=X=X=X=X=X=X=X=X=X=X=X=X=X=X=X=X=X=X=X=X=X=X=X=X=X=X=X=X=X=X=X=X=X=X=X=X=X=X=X=X=X=X=X=X=X=X=X=X=X=X=X=X=X=X=X=X=X",
"=X=X=X=X=X=X=X=X=X=X=X=X=X=X=X=X=X=X=X=X=X=X=X=X=X=X=X=X=X=X=X=X=X=X=X=X=X=X=X=X=X=X=X=X=X=X=X=X=X=X=X=X=X=X=X=X=X=X"
};
