/* XPM */
static char *_3[] = {
/* columns rows colors chars-per-pixel */
"58 59 195 2 ",
"   c #6D3928",
".  c #723E2A",
"X  c #165736",
"o  c #75412C",
"O  c #7D462D",
"+  c #7E482E",
"@  c #7F4424",
"#  c #754432",
"$  c #7E4A31",
"%  c #764938",
"&  c #6B4E4C",
"*  c #734D43",
"=  c #725550",
"-  c #416C47",
";  c #7C645A",
":  c #7B6053",
">  c #595466",
",  c #4A5A7E",
"<  c #5D5B72",
"1  c #625768",
"2  c #5A607F",
"3  c #6D6468",
"4  c #7B6A66",
"5  c #666771",
"6  c #6B6C77",
"7  c #766E73",
"8  c #71727F",
"9  c #814424",
"0  c #824B2E",
"q  c #804528",
"w  c #8C522E",
"e  c #95562C",
"r  c #94582F",
"t  c #824D32",
"y  c #845136",
"u  c #8D5432",
"i  c #85543A",
"p  c #89573A",
"a  c #8C5B3D",
"s  c #8E5936",
"d  c #905732",
"f  c #915934",
"g  c #935F3A",
"h  c #95613B",
"j  c #9A653D",
"k  c #8C5E43",
"l  c #845B48",
"z  c #8D6145",
"x  c #8B634C",
"c  c #86624E",
"v  c #926446",
"b  c #9B6A42",
"n  c #92664A",
"m  c #966B4D",
"M  c #9A6B46",
"N  c #9E724C",
"B  c #866455",
"V  c #966E52",
"C  c #986D50",
"Z  c #926B5A",
"A  c #9C7355",
"S  c #95705D",
"D  c #9C765C",
"F  c #9F7859",
"G  c #A17147",
"H  c #A2754B",
"J  c #A4794E",
"K  c #A17753",
"L  c #A27954",
"P  c #A87E52",
"I  c #A17B5C",
"U  c #9D7A61",
"Y  c #9A7660",
"T  c #847776",
"R  c #A27E61",
"E  c #228755",
"W  c #20945B",
"Q  c #339B6A",
"!  c #399961",
"~  c #31B06E",
"^  c #3BB974",
"/  c #26AD6B",
"(  c #4C976A",
")  c #5A9469",
"_  c #759169",
"`  c #6E946A",
"'  c #45A66C",
"]  c #48BB77",
"[  c #5DB977",
"{  c #59A06D",
"}  c #61B977",
"|  c #63BA78",
" . c #6BBA79",
".. c #73B476",
"X. c #77BA7A",
"o. c #72AA71",
"O. c #3BC078",
"+. c #53C17B",
"@. c #6EC17D",
"#. c #AB8255",
"$. c #AD865A",
"%. c #AF885B",
"&. c #B18A5D",
"*. c #9A8A68",
"=. c #93946B",
"-. c #A68464",
";. c #A98766",
":. c #AB8965",
">. c #AA8768",
",. c #AB8A69",
"<. c #B28E61",
"1. c #A5946D",
"2. c #B69464",
"3. c #B89767",
"4. c #B3936D",
"5. c #B6986E",
"6. c #BB9B6B",
"7. c #BA9C71",
"8. c #B59670",
"9. c #80A16B",
"0. c #87AB73",
"q. c #98AD76",
"w. c #83B277",
"e. c #8BB176",
"r. c #8EB378",
"t. c #9DB379",
"y. c #BEA06F",
"u. c #A4AE76",
"i. c #ACAD76",
"p. c #ADAF78",
"a. c #BEA272",
"s. c #B3AC76",
"d. c #BBAA76",
"f. c #BCAD78",
"g. c #ABB179",
"h. c #C2A574",
"j. c #C4A976",
"k. c #C9A976",
"l. c #C6AC79",
"z. c #CDA776",
"x. c #D2AC79",
"c. c #355B92",
"v. c #385D95",
"b. c #3B6097",
"n. c #39639C",
"m. c #36619A",
"M. c #3C6BA3",
"N. c #3F72A5",
"B. c #3E74AA",
"V. c #3A76B1",
"C. c #465C88",
"Z. c #405F93",
"A. c #566488",
"S. c #48699A",
"D. c #526A94",
"F. c #577496",
"G. c #606D83",
"H. c #6C7588",
"J. c #707480",
"K. c #647B99",
"L. c #677993",
"P. c #436FAE",
"I. c #4073A7",
"U. c #4275AA",
"Y. c #4B7BAE",
"T. c #437BB3",
"R. c #457FBB",
"E. c #4879B4",
"W. c #587BB7",
"Q. c #4B83BD",
"!. c #4782BE",
"~. c #5385B6",
"^. c #5886B7",
"/. c #6C89AB",
"(. c #6B86BA",
"). c #6787B9",
"_. c #708ABD",
"`. c #4B86C2",
"'. c #4F8BC9",
"]. c #548AC2",
"[. c #538DCA",
"{. c #548AC3",
"}. c #4C8FD2",
"|. c #5793CF",
" X c #6C9CCD",
".X c #6798CA",
"XX c #729AC8",
"oX c #699FD5",
"OX c #7AA4D1",
"+X c #7DAAD5",
"@X c #75A6D8",
"#X c #7BAEE1",
"$X c #81ABD6",
"%X c #84AED9",
"&X c None",
/* pixels */
"&X&X&X&X&X&X&X&X&X&X&X&X&X&X&X&X&X&X&X&X&X&X&X&X&X&X&X&X&X&X&X&X&X&X&X&X&X&X&X&X&X&X&X&X&X&X&X&X&X&X&X&X&X&X&X&X&X&X",
"&X&X&X&X&X&X&X&X&X&X&X&X&X&X&X&X&X&X&X&X&Xk.&X&X&X&X&X&X&X&X&X&X&X&X&X&X&X&X&X&X&X&X&X&X&X&X&X&X&X&X&X&X&X&X&X&X&X&X",
"&X&X&X&X&X&X&X&X&X&X&X&X&X&X&X&X&X&Xj.j.d.i.j.j.&X&X&X&X&X&X&X&X&X&X&X&X&X&X&X&X&X&X&X&X&X&X&X&X&X&X&X&X&X&X&X&X&X&X",
"&X&X&X&X&X&X&X&X&X&X&X&X&X&X&X&X&Xj.j.j.q.+.@.s.k.&X&X&X&X&X&X&X&X&X&X&X&X&X&X&X&X&X&X&X&X&X&X&X&X&X&X&X&X&X&X&X&X&X",
"&X&X&X&X&X&X&X&X&X&X&X&X&X&XA a.l.j.j.d.[ / X [ k.j.&X&X&X&X&X&X&X&X&X&X&X&X&X&X&X&X&X&X&X&X&X&X&X&X&X&X&X&X&X&X&X&X",
"&X&X&X&X&X&X&X&X&X&X&X&X&X# O k <.j.j.k.| ~ W w.d.j.j.&X&X&X&X&X&X&X&X&X&X&X&X&X&X&X&X&X&X&X&X&X&X&X&X&X&X&X&X&X&X&X",
"&X&X&X&X&X&X&X&X&X&X&X&XS V p + i F h.j.z.r.X.i.s.g.k.k.j.&X&X&X&X&X&X&X&X&X&X&X&X&X&X&X&X&X&X&X&X&X&X&X&X&X&X&X&X&X",
"&X&X&X&X&X&X&X&X&X&X&X&XD U R z O $ v 2.j.k.j.d...~ o.l.k.j.&X&X&X&X&X&X&X&X&X&X&X&X&X&X&X&X&X&X&X&X&X&X&X&X&X&X&X&X",
"&X&X&X&X&X&X&X&X&X&X&X&X&XR ;.R n + O a 3.l.j.i.] X E  .d.j.j.&X&X&X&X&X&X&X&X&X&X&X&X&X&X&X&X&X&X&X&X&X&X&X&X&X&X&X",
"&X&X&X&X&X&X&X&X&X&X&X&X&XR ;.-.-.m + + N y.j.j.d.- ! e.i.u.d.j.l.&X&X&X&X&X&X&X&X&X&X&X&X&X&X&X&X&X&X&X&X&X&X&X&X&X",
"&X&X&X&X&X&X&X&X&X&X&X&X&X&X;.;.-.-.V + O M 6.j.h.x.t.s.X.+.o.g.k.j.&X&X&X&X&X&X&X&X&X&X&X&X&X&X&X&X&X&X&X&X&X&X&X&X",
"&X&X&X&X&X&X&X&X&X&X&X&X&X&X;.;.-.;.-.V y O v 2.j.j.k.d. .E X @.s.k.j.&X&X&X&X&X&X&X&X&X&X&X&X&X&X&X&X&X&X&X&X&X&X&X",
"&X&X&X&X&X&X&X&X&X&X&X&X&X&X&X;.;.;.-.;.V $ O g 2.j.j.j.s...' X.d.j.j.j.&X&X&X&X&X&X&X&X&X&X&X&X&X&X&X&X&X&X&X&X&X&X",
"&X&X&X&X&X&X&X&X&X&X&X&X&X&X&X&X;.;.;.;.-.D i O u &.j.j.j.j.i.s.j.j.j.j.j.&X&X&X&X&X&X&X&X&X&X&X&X&X&X&X&X&X&X&X&X&X",
"&X&X&X&X&X&X&X&X&X&X&X&X&X&X&X&X&X&X;.-.-.;.I + O t 2.j.j.j.k.j.j.j.j.j.j.h.$.&X&X&X&X&X&X&X&X&X&X&X&X&X&X&X&X&X&X&X",
"&X&X&X&X&X&X&X&X&X&X&X&X&X&X&X&X&X&X&X;.;.;.>.m y o g &.j.j.j.j.j.j.j.j.l.6.h f &X&X&X&X&X&X&X&X&X&X&X&X&X&X&X&X&X&X",
"&X&X&X&X&X&X&X&X&X&X&X&X&X&X&X&X&X&X&X&X;.-.;.-.V $ 0 h #.y.j.j.j.j.j.j.j.H s f f f &X&X&X&X&X&X&X&X&X&X&X&X&X&X&X&X",
"&X&X&X&X&X&X&X&X&X&X&X&X&X&X&X&X&X&X&X&X&X:.;.>.;.F s s f H j.j.j.j.j.j.%.h f f f f g &X&X&Xg f g &X&X&X&X&X&X&X&X&X",
"&X&X&X&X&X&X&X&X&X&X&X&X&X&X&X&X&X&X&X&X&X&X,.;.;.>.6.J f w y.j.j.j.j.3.h d d d f d f f f r e e f f r f f &X&X&X&X&X",
"&X&X&X&X&Xk &X&X&X&X&X&X&X&X&X&X&X&X&X&X&X&X&X,.,.a.j.y.H #.j.j.j.l.6.j w f f f f f f e s : 5 F.F.; ; a f f f &X&X&X",
"&X&X>.,.;.i   # &X&X&X&X&X&X&X&X&X&X&X&X&X&X&X,.4.j.j.l.y.h.j.j.j.3.j f r f f f d f f F.!.V.V.B.I.U.T.F.4 a f d f &X",
"&X,.>.>.>.i   # B &X&X&X&X&X&X&X&X&X&X&X&X&X&X,.j.j.j.j.j.j.j.j.2.j r a B k f f d z 6 U.U.N.N.U.I.I.N.B.U.L.x r f &X",
"&X,.>.,.,.C . # l Y R &X&X&X&X&X&X&X&X&X&X;.,.j.j.j.j.j.j.j.j.2.j a K.].].8 a f x 6 U.B.N.U.N.N.N.N.U.N.B.!.H.e f f ",
"&X>.,.>.,.R k . l S U R &X&X&X&X&X&X,.,.;.4.j.j.j.j.j.j.j.j.%.f c A.I.T.`.L.z a L.Q.B.N.I.N.I.I.N.Q.^.).^.E.^.e f f ",
"4.;.;.>.,.;.p + l R ;.5.a.&X&X&X&X#.6.5.a.j.j.j.j.j.j.j.j.&.h d G.U.U.N.T.K.e B Q.I.I.I.U.U.E.Q.Q. X%X%XOXQ.^.a f f ",
"4.,.,.;.-.A t + t F ,.6.7.a.L s d w N 3.l.j.j.j.j.d.j.j.2.j e ; V.N.B.I.U.^.f a T.I.I.I.I.U.[.[. X$X$X+XOX|./.g f f ",
",.-.A m v y + + O p F 5.7.7.6.$.j d u b &.l.j.j.j.j.j.2.b w y S.N.I.I.I.T.[.B p S.N.I.I.I.T.`..X+X$X$X$XoX}.4 e f f ",
"V a t + $ $ + O + O p I 7.7.a.a.&.u f f j 6.h.j.j.y.#.f 0 O 1 c.v.I.I.U.{.|.8 * , m.n.M.I.N.~.OX%X+X$X%XoXQ.; e f &X",
"v v n m A A F C p + + i :.7.7.a.6.f f e e g J $.J j f u O 9 A.n.c.v.U.XX$XOXH.& > c.c.c.v.M.Y.$X$X$X+XoX/.c r f &X&X",
"I -.;.>.>.,.,.;.,.z + + a 4.7.a.2.h l 3 6 k r w u d f 0 O 9 > M.c.c.P._.OX$XW.< % , c.M.c.c.v.W.+X+X.XL.; s f &X&X&X",
"&X,.>.>.;.-.>.,.:.F i + O M $.:.N c F.V.B.5 e f f f f u O O * S.c.c.Z._.(._.).S.O 9 1 A.M.c.b.P.[.].8 d r f &X&X&X&X",
"&X&X&XI m v k i + + t + O 0 s h r ; !.I..X/.e f d u f d O O O & C.v.c.(.(.(.W.D.% O @ * = < D.A.3 z r r g &X&X&X&X&X",
"&X&X&X&XO O o O 0 O O 0 O 0 t 0 w p `.!.#X Xd g b j h h h $ O O 9 > C.^.(.^.E.< $ . O . 0 O O O p f f f &X&X&X&X&X&X",
"&X&X&X&X&X0 0 O O O O O O O 0 w w w J.K.T c f J 2.6.y.j.6.%.n y O O * * > A.< * 0 0 O 0 0 O O O &X&X&X&X&X&X&X&X&X&X",
"&X&X&X&X&XO O 0 O O O O q O 0 i h M h e w w A 4.8.7.6.h.j.j.a.;.C k i q O @ @ @ O t 0 0 0 t t &X&X&X&X&X&X&X&X&X&X&X",
"&X&X&X&X&XO O o O t i i t t k A :.5.H q + z ;.;.-.>.>.,.5.j.j.h.7.4.I I -.p y O 0 d d u u d d &X&X&X&X&X&X&X&X&X&X&X",
"&X&X&X&X&Xy p m I R A k O k R ,.4.:.O o $ A >.>.>.>.>.;.:.,.h.j.j.j.a.7.4.8.-.A g f d u d f &X&X&X&X&X&X&X&X&X&X&X&X",
"&X&X&X&X&X-.I ;.>.>.R i $ k ,.,.>.m o o + -.;.;.-.,.;.>.,.>.,.d.j.j.j.j.j.h.j.a.h.<.H J M &X&X&X&X&X&X&X&X&X&X&X&X&X",
"&X&X&X4.>.,.,.>.,.>.n O O I >.>.R $ . o O D >.;.>.>.;.;.-.>.,.7.j.5.h.j.j.j.j.j.j.j.l.k.<.&X&X&X&X&X&X&X&X&X&X&X&X&X",
"&X&X&X,.>.;.;.I I k 0 O i R ,.,.C + &X&X&XV ,.&X&X&X&X,.,.-.-.a.3.d H k.j.j.j.j.j.j.j.j.&X&X&X&X&X&X&X&X&X&X&X&X&X&X",
"&X&X>.I A m v i t q O O i I ,.>.I &X&X&X&X&X&X&X&X&X&X&X>.;.>.a.P d j h.j.j.j.j.j.j.j.&X&X&X&X&X&X&X&X&X&X&X&X&X&X&X",
"&X&XL k $ O O t i i t O t F ,.>.-.&X&X&X&X&X&X&X&X&X&X&X;.;.4.3.h f &.j.j.j.s.d.k.j.j.&X&X&X&X&X&X&X&X&X&X&X&X&X&X&X",
"&X&X&X$ O t z A R -.C O t A ,.,.&X&X&X&X&X&X&X&X&X&X&X>.;.;.4.J w H h.j.z.e.] X.u.k.&X&X&X&X&X&X&X&X&X&X&X&X&X&X&X&X",
"&X&X&XN F -.;.,.>.,.I 0 O C ;.,.&X&X&X&X&X&X&X&X&X&X&X;.;.;.L f h 3.l.j.s.] O.] q.j.&X&X&X&X&X&X&X&X&X&X&X&X&X&X&X&X",
"&X&X&X&X>.>.>.,.>.,.I i O v -.&X&X&X&X&X&X&X&X&X&X&X&X-.;.I g u P l.j.j.s.] O.[ s.&X&X&X&X&X&X&X&X&X&X&X&X&X&X&X&X&X",
"&X&X&X&X7.,.>.>.>.:.-.k o y &X&X&X&X&X&X&X&X&X&X&X&XR R -.v u j 6.j.j.k.j.d. .u.k.&X&X&X&X&X&X&X&X&X&X&X&X&X&X&X&X&X",
"&X&X&X&X&X,.:.>.>.,.-.C O 0 &X&X&X&X&X&X&X&X&X&X&X&XU R n t f %.j.j.d.s.j.j.k.k.&X&X&X&X&X&X&X&X&X&X&X&X&X&X&X&X&X&X",
"&X&X&X&X&X&X,.,.,.,.:.I &X&X&X&X&X&X&X&X&X&X&X&X&XZ Y Y i w N 6.j.j.e.} w.d.k.j.&X&X&X&X&X&X&X&X&X&X&X&X&X&X&X&X&X&X",
"&X&X&X&X&X&X&X&X&X&X&X&X&X&X&X&X&X&X&X&X&X&X&X&XZ Z Y V O g <.h.j.i.+.O.] u.j.&X&X&X&X&X&X&X&X&X&X&X&X&X&X&X&X&X&X&X",
"&X&X&X&X&X&X&X&X&X&X&X&X&X&X&X&X&X&X&X&X&X&X&XS Z Z Z l 0 N 7.h.y.0.^ O.[ l.j.&X&X&X&X&X&X&X&X&X&X&X&X&X&X&X&X&X&X&X",
"&X&X&X&X&X&X&X&X&X&X&X&X&X&X&X&X&X&X&X&X&X&X&XZ Z Z c $ p ,.5.7.h.} ] ' q.h.&X&X&X&X&X&X&X&X&X&X&X&X&X&X&X&X&X&X&X&X",
"&X&X&X&X&X&X&X&X&X&X&X&X&X&X&X&X&X&X&X&X&X&XZ Z Z Z i O m ,.5.5.7.y.o.0.a.h.&X&X&X&X&X&X&X&X&X&X&X&X&X&X&X&X&X&X&X&X",
"&X&X&X&X&X&X&X&X&X&X&X&X&X&X&X&X&X&X&X&X&X&X;.-.U V $ y I ,.,.1.1.7.a.h.h.&X&X&X&X&X&X&X&X&X&X&X&X&X&X&X&X&X&X&X&X&X",
"&X&X&X&X&X&X&X&X&X&X&X&X&X&X&X&X&X&X&X&X&X&X;.;.;.n O z ,.,.*.` { =.5.7.7.&X&X&X&X&X&X&X&X&X&X&X&X&X&X&X&X&X&X&X&X&X",
"&X&X&X&X&X&X&X&X&X&X&X&X&X&X&X&X&X&X&X&X&X&X;.;.I y t F ,.>._ Q Q ' 1.4.4.&X&X&X&X&X&X&X&X&X&X&X&X&X&X&X&X&X&X&X&X&X",
"&X&X&X&X&X&X&X&X&X&X&X&X&X&X&X&X&X&X&X&X&X&X;.-.p 0 n ;.>.>.( Q Q ` ,.4.&X&X&X&X&X&X&X&X&X&X&X&X&X&X&X&X&X&X&X&X&X&X",
"&X&X&X&X&X&X&X&X&X&X&X&X&X&X&X&X&X&X&X&X&X&X;.m + p -.,.,.>._ ( ) *.;.&X&X&X&X&X&X&X&X&X&X&X&X&X&X&X&X&X&X&X&X&X&X&X",
"&X&X&X&X&X&X&X&X&X&X&X&X&X&X&X&X&X&X&X&X&X&X&Xa y C ;.>.>.,.,.*.*.;.&X&X&X&X&X&X&X&X&X&X&X&X&X&X&X&X&X&X&X&X&X&X&X&X",
"&X&X&X&X&X&X&X&X&X&X&X&X&X&X&X&X&X&X&X&X&X&X&X&X&X&X&X&X&X&X&X&X&X&X&X&X&X&X&X&X&X&X&X&X&X&X&X&X&X&X&X&X&X&X&X&X&X&X"
};
