/* XPM */
static char *_4[] = {
/* columns rows colors chars-per-pixel */
"58 59 211 2 ",
"   c #753F2A",
".  c #08613B",
"X  c #7C4225",
"o  c #76422B",
"O  c #7C462C",
"+  c #7E482E",
"@  c #7A4731",
"#  c #7D4931",
"$  c #764838",
"%  c #6D4E4A",
"&  c #6C4B47",
"*  c #704F49",
"=  c #734D42",
"-  c #745149",
";  c #6D585B",
":  c #7F604F",
">  c #7B655D",
",  c #77625B",
"<  c #5F596D",
"1  c #5A5D78",
"2  c #635664",
"3  c #645A6A",
"4  c #665F71",
"5  c #5B697E",
"6  c #68646E",
"7  c #62616E",
"8  c #736463",
"9  c #766B6D",
"0  c #7A6C6B",
"q  c #636775",
"w  c #6D6373",
"e  c #6B6973",
"r  c #6A6D7B",
"t  c #716D75",
"y  c #74727A",
"u  c #824B2E",
"i  c #824525",
"p  c #94562C",
"a  c #96592E",
"s  c #995424",
"d  c #824D32",
"f  c #855134",
"g  c #8C5432",
"h  c #8F5835",
"j  c #86543A",
"k  c #89573B",
"l  c #8B5A3D",
"z  c #905631",
"x  c #915934",
"c  c #935E39",
"v  c #8C502A",
"b  c #96613B",
"n  c #99643D",
"m  c #9E683D",
"M  c #855D46",
"N  c #8C5D42",
"B  c #875E49",
"V  c #8E6145",
"C  c #8B624B",
"Z  c #87614D",
"A  c #936444",
"S  c #9C6C44",
"D  c #926649",
"F  c #956A4C",
"G  c #9A6C48",
"H  c #9E714A",
"J  c #816559",
"K  c #946B53",
"L  c #986E51",
"P  c #926C5A",
"I  c #9C7354",
"U  c #9B755B",
"Y  c #9F795A",
"T  c #96715B",
"R  c #A16D41",
"E  c #A2744B",
"W  c #A3754B",
"Q  c #A67C53",
"!  c #A27C5C",
"~  c #A97F53",
"^  c #9E7A61",
"/  c #A27E62",
"(  c #198B56",
")  c #2B8855",
"_  c #3C925D",
"`  c #348C59",
"'  c #329B6A",
"]  c #2E9B6A",
"[  c #31AD70",
"{  c #39B674",
"}  c #3DA568",
"|  c #4D8F5C",
" . c #42915C",
".. c #44976A",
"X. c #499968",
"o. c #57986A",
"O. c #72956A",
"+. c #7F8E68",
"@. c #43A56E",
"#. c #48BD78",
"$. c #58B776",
"%. c #58AD70",
"&. c #6DAF74",
"*. c #7AA772",
"=. c #69B878",
"-. c #77B979",
";. c #36C179",
":. c #57C27C",
">. c #AB8256",
",. c #AA845B",
"<. c #AF895B",
"1. c #B18A5D",
"2. c #858D68",
"3. c #8C8C68",
"4. c #938B68",
"5. c #9A8A68",
"6. c #86966B",
"7. c #9E9466",
"8. c #A68364",
"9. c #A98767",
"0. c #AA8967",
"q. c #AA8768",
"w. c #AB8A69",
"e. c #A48768",
"r. c #B28E62",
"t. c #B08968",
"y. c #B69365",
"u. c #B3936C",
"i. c #B7996F",
"p. c #BB9B6C",
"a. c #B89768",
"s. c #AE9F71",
"d. c #BA9C71",
"f. c #B49670",
"g. c #AA946C",
"h. c #91A36E",
"j. c #88B679",
"k. c #94B67A",
"l. c #9DB379",
"z. c #95B177",
"x. c #8EAC74",
"c. c #BEA16F",
"v. c #A4AF77",
"b. c #ACAC76",
"n. c #ACA272",
"m. c #BEA272",
"M. c #B6AC76",
"N. c #BCAA76",
"B. c #B1A573",
"V. c #A2B47A",
"C. c #AAB37A",
"Z. c #B2B27A",
"A. c #C29D6C",
"S. c #C1A574",
"D. c #C4A976",
"F. c #CAA876",
"G. c #C6AC79",
"H. c #CAAC79",
"J. c #C8A371",
"K. c #335B95",
"L. c #385F95",
"P. c #33588F",
"I. c #3B639A",
"U. c #376398",
"Y. c #3B6BA2",
"T. c #3A68A7",
"R. c #3F72A6",
"E. c #3D74AC",
"W. c #3D77B1",
"Q. c #3F7AB7",
"!. c #475D87",
"~. c #586A8A",
"^. c #5B718E",
"/. c #46699B",
"(. c #54749A",
"). c #626E82",
"_. c #6A7689",
"`. c #717480",
"'. c #677A98",
"]. c #4073A7",
"[. c #4175A9",
"{. c #4A79A9",
"}. c #5578A6",
"|. c #447BB3",
" X c #4D7DB0",
".X c #477BB9",
"XX c #537BB9",
"oX c #547AB1",
"OX c #71849D",
"+X c #4B83BC",
"@X c #4A81BA",
"#X c #5785B9",
"$X c #688BBA",
"%X c #6190BF",
"&X c #7392B3",
"*X c #4986C4",
"=X c #568DC4",
"-X c #5B92CA",
";X c #5996D3",
":X c #6A8CC6",
">X c #6798CA",
",X c #669CD3",
"<X c #7B9ECD",
"1X c #79A2CF",
"2X c #74A2D1",
"3X c #7FAAD6",
"4X c #7CA7D5",
"5X c #6DA3D9",
"6X c #81ABD6",
"7X c #83AED9",
"8X c None",
/* pixels */
"8X8X8X8X8X8X8X8X8X8X8X8X8X8X8X8X8X8X8X8X8X8X8X8X8X8XA.J.8X8X8X8X8X8X8X8X8X8X8X8X8X8X8X8X8X8X8X8X8X8X8X8X8X8X8X8X8X8X",
"8X8X8X8X8X8X8X8X8X8X8X8X8X8X8X8X8X8X8X8X8X8XD.D.D.F.M.b.D.8X8X8X8X8X8X8X8X8X8X8X8X8X8X8X8X8X8X8X8X8X8X8X8X8X8X8X8X8X",
"8X8X8X8X8X8X8X8X8X8X8X8X8X8X8X8X8X8X8Xc W S.G.D.D.M.-.:.k.D.8X8X8X8X8X8X8X8X8X8X8X8X8X8X8X8X8X8X8X8X8X8X8X8X8X8X8X8X",
"8X8X8X8X8X8X8X8X8X8X8X8X8X8X8X8X8X8X! l f E S.G.F.k.{ (  .V.F.8X8X8X8X8X8X8X8X8X8X8X8X8X8X8X8X8X8X8X8X8X8X8X8X8X8X8X",
"8X8X8X8X8X8X8X8X8X8X8X8X8X8X8X8X8Xw.9.Y j u ~ S.H.v.$.(  .l.F.D.8X8X8X8X8X8X8X8X8X8X8X8X8X8X8X8X8X8X8X8X8X8X8X8X8X8X",
"8X8X8X8X8X8X8X8X8X8X8X8X8X8X8X8X8X0.8.9.I # d >.p.F.V.=.k.N.D.D.8X8X8X8X8X8X8X8X8X8X8X8X8X8X8X8X8X8X8X8X8X8X8X8X8X8X",
"8X8X8X8X8X8X8X8X8X8X8X8X8X8X8X8X8X8X9.9.9.C + h >.D.D.N.M.k.k.G.D.8X8X8X8X8X8X8X8X8X8X8X8X8X8X8X8X8X8X8X8X8X8X8X8X8X",
"8X8X8X8X8X8X8X8X8X8X8X8X8X8X8X8X8X8X9.9.9.Y l O S p.G.D.k.} _ h.G.F.8X8X8X8X8X8X8X8X8X8X8X8X8X8X8X8X8X8X8X8X8X8X8X8X",
"8X8X8X8X8X8X8X8X8X8X8X8X8X8X8X8X8X8X8X9.9.9.U f u >.D.F.V.` . X.l.G.G.8X8X8X8X8X8X8X8X8X8X8X8X8X8X8X8X8X8X8X8X8X8X8X",
"8X8X8X8X8X8X8X8X8X8X8X8X8X8X8X8X8X8X8X9.8.9.9.F u l 1.D.H.7.| %.V.N.D.D.8X8X8X8X8X8X8X8X8X8X8X8X8X8X8X8X8X8X8X8X8X8X",
"8X8X8X8X8X8X8X8X8X8X8X8X8X8X8X8X8X8X8X8X8.9.8./ N O c p.G.H.Z.b.V.-.k.G.D.8X8X8X8X8X8X8X8X8X8X8X8X8X8X8X8X8X8X8X8X8X",
"8X8X8X8X8X8X8X8X8X8X8X8X8X8X8X8X8X8X8X8X8X9.9.9.I d o F S.D.F.N.=.` | C.F.8X8X8X8X8X8X8X8X8X8X8X8X8X8X8X8X8X8X8X8X8X",
"8X8X8X8X8X8X8X8X8X8X8X8X8X8X8X8X8X8X8X8X8X0.9.9.9.F # # H S.D.N.j.) ) -.D.D.8X8X8X8X8X8X8X8X8X8X8X8X8X8X8X8X8X8X8X8X",
"8X8X8X8X8X8X8X8X8X8X8X8X8X8X8X8X8X8X8X8X8X8X9.8.9.8.N O f Y D.F.M.j.&.z.N.D.D.8X8X8X8X8X8X8X8X8X8X8X8X8X8X8X8X8X8X8X",
"8X8X8X8X8Xw.w.! 8X8X8X8X8X8X8X8X8X8X8X8X8X8X8X9.9.9.L # O N 9.m.D.D.M.N.D.D.D.D.8X8X8X8X8X8X8X8X8X8X8X8X8X8X8X8X8X8X",
"8X8X8X8Xw.0.u.! l 8X8X8X8X8X8X8X8X8X8X8X8X8X8X9.9.9.8.V O # F w.S.G.F.D.D.D.D.D.G.8X8X8X8X8X8X8X8X8X8X8X8X8X8X8X8X8X",
"8X8X8Xw.w.w.w.H d f C 8X8X8X8X8X8X8X8X8X8X8X8X8X0.9.w.Y j o j I w.N.D.D.D.D.D.G.D.8X8X8X8X8X8X8X8X8X8X8X8X8X8X8X8X8X",
"8X8Xw.q.0.w.w.I d d T q.8X8X8X8X8X8X8X8X8X8X8X8X8Xw.9.w.I d O j Y u.D.D.D.D.D.G.y.H 8X8X8X8X8X8X8X8X8X8X8X8X8X8X8X8X",
"8X8Xw.9.w.0.w.! k # L 8.8.8X8X8X8X8X8X8X8X8X8X8X8X8X9.q.9.L d O F w.m.D.D.D.D.a.H x x 8X8X8X8X8X8X8X8X8X8X8X8X8X8X8X",
"8Xd.w.w.w.w.w.Y f O P e.8.8X8X8X8X8X8X8X8X8X8X8X8X8Xq.9.q.9.C d I w.i.D.D.D.y.S x x x x 8X8X8X8X8X8X8X8X8X8X8X8X8X8X",
"8X0.8.,.! ! ! V # @ D 9.8.8.8X8X8X8X8X8X8X8X8X8Xw.9.9.9.9.w.Y Y 0.w.m.G.S.<.n z x x x h x 8X8X8X8X8X8X8X8X8X8X8X8X8X",
"8XF V l j l f # O u B 8.8./ q.8X8X8X8X0.w.w.w.9.9.9.9.w.i.w.w.w.0.u.D.a.Q b z x x x x x x x x 8X8Xx 8X8X8X8X8X8X8X8X",
"Q D N l k j d O O u l ! f.u.d.,.8X8Xg ! p.d.d.u.u.u.d.m.D.D.d.d.S.c.>.m s p x x h x x h x a a a p p x x 8X8X8X8X8X8X",
"8X8.8./ ! ! I D j d u S p.S.S.d.~ c g n y.G.D.D.D.D.D.D.D.D.G.m.<.R x J y t > c x x x s C e 6 6 6 9 J x p x 8X8X8X8X",
"8X8Xw.w.w.t.w.w.! N u g Q m.S.G.c.H p g R c.G.D.D.D.G.D.D.G.a.W a M e (.+X*X(.Z a x l > ^.@XW.W.E.W.(.r > x x x 8X8X",
"8X8X8X8.8.8.9.w.f.! l u A y.S.D.D.Q g h x >.D.D.D.D.G.G.S.r.S a Z ^.E.E.R.*XOXZ x > _.{.E.R.R.[.].[.R.W.(.9 l x x 8X",
"8X8X8X8XN l A D D F l g f E d.G.c.W p p p n 1.c.D.D.p.1.Q n a M ^.E.R.[.R.@X_.x > OX@XE.R.R.R.R.].].R.].[.{.t l x x ",
"8X8X8X8XO O O O O # # d u c ~ a.>.n , e 8 M b W Q Q H b g p M r [.R.R.R.R.+Xr s r Q.R.R.R.R.R.R.].].[.[.R.E.oX0 p x ",
"8X8X8X8XO # O u + O + u g u h A x ; /.E.R.8 p g g g g z h a 9  XR.[.R.R.@X*X_.x q W.R.R.].R.@X+X@X@X%X>X#X{.*Xy p x ",
"8X8X8X8Xu O O # O + # O u g u O X 3 T./.XXr a x x x x x x p r Q.I.].[.#X>X;XOXZ q E.R.R.].[.@X=X-X>X3X7X7X%X*X`.p x ",
"8X8X8X8XO O O O O O O + + u O   X 2 T.XX:Xw i g z x x x x v 6 Y.U.U.@X2X3X4XOX: 5 E.R.R.].].@X-X2X6X3X3X3X-X*X0 p x ",
"8X8X8X8Xl N N A N k j + + d @ @ d = 2 4 w - u j c c z z g u % !.U.P.}.3X3X3X&X> 7 Y.R.R.R.R.#X1X6X3X3X3X2X;XOXV x x ",
"8X8X8Xu.9.! 8.q.9.I l d j D K D K l X X X g F Y Y I Q E c O O % 1 K.}.<X6X6X>X2 $ 1 /.L.T.L.oX4X7X6X6X7X,X*X0 p z x ",
"8Xw.w.w.w.w.w.u.q.L d d F 9./ ^ P j O O B Y e.w.q.w.w.u.>.V # X % L.}.:X<X,XXX2 i $ 1 L.K.P./.$X<X3X5X>XOXt N x x 8X",
"w.9./ / 8.! ! ! F f O k / w.q.^ j   O j ! w.9.9.9.9.9.q.w.8.F j u * 4 ^.XX.X~.= i i $ 2 !./.].XX#X$X'.9 B p x x 8X8X",
",.D l N M k l j O O d K q.q.8.B o   o C 0.9.9.9.q.9.9.9.w.w.0.! V u   % 3 3 * O O # O # ; < 1 1 3 , l p z x 8X8X8X8X",
"S O O o O d d O # O j ! w.e.Z   8X8Xo F w.9.9.9.9.9.9.0.9.9.w.w./ ! F j   i O O O + O O O O   d i g z x 8X8X8X8X8X8X",
"8XA V D F I I D d O j ! 9.P Z 8X8X8X8XK q.w.w.9.e.9.q.9.9.q.u.w.q.q.w.! N u O u # O + O O O u 8X8Xg 8X8X8X8X8X8X8X8X",
"8Xw.w.w.w.w.w.8.N O N / / P 8X8X8X8X8X8X8X8X8X8Xw.q.9.9.9.w.N.H.t.q.8.w./ F d   O O u O # 8X8X8X8X8X8X8X8X8X8X8X8X8X",
"8Xy.w.w.q.w.w.8.N   N 8./ 8X8X8X8X8X8X8X8X8X8X8X8X8Xq.9.9.w.y.1.S.f.0.0.0.q.I N O u g f 8X8X8X8X8X8X8X8X8X8X8X8X8X8X",
"8X8X0.0.q.w.0.8.N O N / q.8X8X8X8X8X8X8X8X8X8X8X8X8X0.0.w.c.W g ,.G.D.p.u.u.u.w.>.W n 8X8X8X8X8X8X8X8X8X8X8X8X8X8X8X",
"8X8Xw.w.q.9.w.8.A   l ! 8X8X8X8X8X8X8X8X8X8X8X8X8Xw.9.0.u.>.x x 1.G.D.D.D.D.D.D.H.m.8X8X8X8X8X8X8X8X8X8X8X8X8X8X8X8X",
"8X8X8Xw.w.0.w.8.c O d 8X8X8X8X8X8X8X8X8X8X8X8X8X8.8.0.w.1.b x >.S.D.D.F.D.D.D.D.G.8X8X8X8X8X8X8X8X8X8X8X8X8X8X8X8X8X",
"8X8X8X8X8X8X8X8X8X8X8X8X8X8X8X8X8X8X8X8X8X8X8X^ ^ 8.8.>.b x >.S.D.F.b.z.M.F.D.D.D.8X8X8X8X8X8X8X8X8X8X8X8X8X8X8X8X8X",
"8X8X8X8X8X8X8X8X8X8X8X8X8X8X8X8X8X8X8X8X8X8X8X^ ^ ^ I x x >.S.G.F.b.=.#.-.M.F.D.8X8X8X8X8X8X8X8X8X8X8X8X8X8X8X8X8X8X",
"8X8X8X8X8X8X8X8X8X8X8X8X8X8X8X8X8X8X8X8X8X8XP T U F h g E p.G.D.F.j.;.;.$.b.F.8X8X8X8X8X8X8X8X8X8X8X8X8X8X8X8X8X8X8X",
"8X8X8X8X8X8X8X8X8X8X8X8X8X8X8X8X8X8X8X8X8XP P P B g f S u.D.D.H.D.v.$.#.j.N.8X8X8X8X8X8X8X8X8X8X8X8X8X8X8X8X8X8X8X8X",
"8X8X8X8X8X8X8X8X8X8X8X8X8X8X8X8X8X8X8X8XP P P C d u D y.d.J.B.n.D.F.v.z.D.8X8X8X8X8X8X8X8X8X8X8X8X8X8X8X8X8X8X8X8X8X",
"8X8X8X8X8X8X8X8X8X8X8X8X8X8X8X8X8X8X8XP P P T V   V 9.u.A.s.&.%.z.N.F.F.D.8X8X8X8X8X8X8X8X8X8X8X8X8X8X8X8X8X8X8X8X8X",
"8X8X8X8X8X8X8X8X8X8X8X8X8X8X8X8X8X8XP P P T F d N ! t.u.g.*.{ { &.B.D.G.8X8X8X8X8X8X8X8X8X8X8X8X8X8X8X8X8X8X8X8X8X8X",
"8X8X8X8X8X8X8X8X8X8X8X8X8X8X8X8X8X^ U ^ / F # f ! q.8.t.6.@.[ { x.m.m.8X8X8X8X8X8X8X8X8X8X8X8X8X8X8X8X8X8X8X8X8X8X8X",
"8X8X8X8X8X8X8X8X8X8X8X8X8X8X8X8X8X9.8.9.I # d I q.q.t.t.4.o.@.*.g.m.8X8X8X8X8X8X8X8X8X8X8X8X8X8X8X8X8X8X8X8X8X8X8X8X",
"8X8X8X8X8X8X8X8X8X8X8X8X8X8X8X8X8Xq.9.! j O D 9.q.q.5.5.t.3.6.g.u.8X8X8X8X8X8X8X8X8X8X8X8X8X8X8X8X8X8X8X8X8X8X8X8X8X",
"8X8X8X8X8X8X8X8X8X8X8X8X8X8X8X8X8X9.Y N + M ! w.q.2.o.O.e.0.w.t.8X8X8X8X8X8X8X8X8X8X8X8X8X8X8X8X8X8X8X8X8X8X8X8X8X8X",
"8X8X8X8X8X8X8X8X8X8X8X8X8X8X8X8X8X! l O A / w.t.3...] ..+.0.0.w.8X8X8X8X8X8X8X8X8X8X8X8X8X8X8X8X8X8X8X8X8X8X8X8X8X8X",
"8X8X8X8X8X8X8X8X8X8X8X8X8X8X8X8X8XV d N ! t.0.0.O.' ' ..3.0.w.8X8X8X8X8X8X8X8X8X8X8X8X8X8X8X8X8X8X8X8X8X8X8X8X8X8X8X",
"8X8X8X8X8X8X8X8X8X8X8X8X8X8X8X8X8X8Xk I w.w.0.w.4.o.o.2.w.w.8X8X8X8X8X8X8X8X8X8X8X8X8X8X8X8X8X8X8X8X8X8X8X8X8X8X8X8X",
"8X8X8X8X8X8X8X8X8X8X8X8X8X8X8X8X8X8X8X8X8Xw.w.w.t.4.3.9.t.8X8X8X8X8X8X8X8X8X8X8X8X8X8X8X8X8X8X8X8X8X8X8X8X8X8X8X8X8X",
"8X8X8X8X8X8X8X8X8X8X8X8X8X8X8X8X8X8X8X8X8X8X8X8X8X8X8X8X8X8X8X8X8X8X8X8X8X8X8X8X8X8X8X8X8X8X8X8X8X8X8X8X8X8X8X8X8X8X"
};
