/* XPM */
static char *_5[] = {
/* columns rows colors chars-per-pixel */
"58 59 195 2 ",
"   c #703B29",
".  c #134A2E",
"X  c #0B623C",
"o  c #7D462C",
"O  c #7E482E",
"+  c #77422C",
"@  c #784A38",
"#  c #714F47",
"$  c #7E5F4F",
"%  c #7A5F53",
"&  c #41774D",
"*  c #7C645A",
"=  c #5B5B75",
"-  c #665763",
";  c #645866",
":  c #625D73",
">  c #776763",
",  c #7D6963",
"<  c #7A6966",
"1  c #61677E",
"2  c #77757C",
"3  c #68666F",
"4  c #814729",
"5  c #834B2E",
"6  c #854927",
"7  c #8B512E",
"8  c #94562C",
"9  c #975629",
"0  c #834D32",
"q  c #845135",
"w  c #8D5532",
"e  c #8F5935",
"r  c #855439",
"t  c #89573B",
"y  c #8B5A3C",
"u  c #905732",
"i  c #915934",
"p  c #935E39",
"a  c #96613B",
"s  c #99663E",
"d  c #9D6A3F",
"f  c #9A6136",
"g  c #855B43",
"h  c #8B5E42",
"j  c #815E4A",
"k  c #8E6146",
"l  c #86614C",
"z  c #8A624C",
"x  c #936444",
"c  c #9C6B43",
"v  c #92664A",
"b  c #956A4B",
"n  c #996E4E",
"m  c #9A6740",
"M  c #9C704E",
"N  c #836454",
"B  c #80675B",
"V  c #986F52",
"C  c #976F51",
"Z  c #9C7455",
"A  c #9E7658",
"S  c #9E795D",
"D  c #9B7559",
"F  c #A2744A",
"G  c #A5794E",
"H  c #A57B52",
"J  c #A87E52",
"K  c #A17B5C",
"L  c #9F7C62",
"P  c #9B7760",
"I  c #A17D62",
"U  c #348D59",
"Y  c #2D9D66",
"T  c #359A6A",
"R  c #3D9969",
"E  c #3E9E64",
"W  c #3CB473",
"Q  c #3BBA76",
"!  c #2DB06E",
"~  c #47976A",
"^  c #519569",
"/  c #5C9369",
"(  c #7B8F69",
")  c #639369",
"_  c #6B9169",
"`  c #619A65",
"'  c #49B573",
"]  c #58B675",
"[  c #60A871",
"{  c #75AD73",
"}  c #69BB79",
"|  c #7AB879",
" . c #3DC079",
".. c #44C17A",
"X. c #60C37E",
"o. c #AB8256",
"O. c #AD8559",
"+. c #AF895C",
"@. c #A7825E",
"#. c #B18C5E",
"$. c #8D8C68",
"%. c #8B8E61",
"&. c #9A8A68",
"*. c #938B68",
"=. c #919E6F",
"-. c #A68464",
";. c #A98766",
":. c #AA8966",
">. c #AA8768",
",. c #A58968",
"<. c #AB8969",
"1. c #B08768",
"2. c #B18F65",
"3. c #B59263",
"4. c #B89767",
"5. c #B4936C",
"6. c #B7996E",
"7. c #BB9B6C",
"8. c #BA966E",
"9. c #A09D70",
"0. c #BA9D71",
"q. c #B79870",
"w. c #8CB176",
"e. c #8FB579",
"r. c #82B97A",
"t. c #98B177",
"y. c #94A973",
"u. c #BEA06F",
"i. c #A3AE77",
"p. c #ADAD76",
"a. c #A9AF78",
"s. c #BDA172",
"d. c #B4AC76",
"f. c #BAAB76",
"g. c #B2AF78",
"h. c #B0A172",
"j. c #A2B178",
"k. c #BEB07A",
"l. c #C19E72",
"z. c #C1A573",
"x. c #C4A976",
"c. c #CAA876",
"v. c #C6AC79",
"b. c #C9AB78",
"n. c #3B6A9F",
"m. c #3B6AA5",
"M. c #3F72A6",
"N. c #3E74AA",
"B. c #3C76B1",
"V. c #3B77B3",
"C. c #595F80",
"Z. c #5E6E86",
"A. c #566688",
"S. c #48729F",
"D. c #577699",
"F. c #6D7383",
"G. c #67768C",
"H. c #687890",
"J. c #456EAE",
"K. c #446BA2",
"L. c #4073A7",
"P. c #4275AA",
"I. c #4378AE",
"U. c #497BAD",
"Y. c #5D7CA2",
"T. c #537CA9",
"R. c #437AB3",
"E. c #4A7DB4",
"W. c #4D78B9",
"Q. c #517ABB",
"!. c #5982AE",
"~. c #4E81B4",
"^. c #4882BE",
"/. c #5384BC",
"(. c #5485B9",
"). c #6E89A9",
"_. c #6685BB",
"`. c #768DA9",
"'. c #4987C6",
"]. c #528DC9",
"[. c #5A8AC2",
"{. c #5C93CA",
"}. c #5D91C6",
"|. c #5190D0",
" X c #6D99C7",
".X c #6596C7",
"XX c #6A94C8",
"oX c #74A2CF",
"OX c #78A2CD",
"+X c #7BA6D2",
"@X c #7CACDA",
"#X c #78A7D5",
"$X c #80ABD6",
"%X c #82AEDA",
"&X c None",
/* pixels */
"&X&X&X&X&X&X&X&X&X&X&X&X&X&X&X&X&X&X&X&X&X&X&X&X&X&X&X&X&X&X&X#.&X&X&X&X&X&X&X&X&X&X&X&X&X&X&X&X&X&X&X&X&X&X&X&X&X&X",
"&X&X&X&X&X&X&X&X&X&X&X&X&X&X&X&X&X&X&X&X&X&X&X&X&X&X&X&X;.C w F x.x.v.x.v.&X&X&X&X&X&X&X&X&X&X&X&X&X&X&X&X&X&X&X&X&X",
"&X&X&X&X&X&X&X&X&X&X&X&X&X&X&X&X&X&X&X&X&X&X&X&X&X&X&X&X;.-.t p u.x.x.x.b.f.c.&X&X&X&X&X&X&X&X&X&X&X&X&X&X&X&X&X&X&X",
"&X&X&X&X&X&X&X&X&X&X&X&X&X&X&X&X&X&X&X&X&X&X&X&X&X&X&X:.;.;.v w o.v.x.x.t.} p.z.&X&X&X&X&X&X&X&X&X&X&X&X&X&X&X&X&X&X",
"&X&X&X&X&X&X&X&X&X&X&X&X&X&X&X&X&X&X&X&X&X&X&X&X&X&X&X:.;.;.C 5 c x.b.e.!  .X.x.&X&X&X&X&X&X&X&X&X&X&X&X&X&X&X&X&X&X",
"&X&X&X&X&X&X&X&X&X&X&X&X&X&X&X&X&X&X&X&X&X&X&X&X&X&X&X&X-.;.S w i #.x.d.W . U p.b.&X&X&X&X&X&X&X&X&X&X&X&X&X&X&X&X&X",
"&X&X&X&X&X&X&X&X&X&X&X&X&X&X&X&X&X&X&X&X&X&X&X&X&X&X&X:.:.-.-.y u G z.x.X. .| x.x.&X&X&X&X&X&X&X&X&X&X&X&X&X&X&X&X&X",
"&X&X&X&X&X&X&X&X&X&X<.6.6.0.s.&X&X&X&X&X&X&X&X&X&X&X&X:.-.-.-.k 8 G z.x.f.i.f.x.x.&X&X&X&X&X&X&X&X&X&X&X&X&X&X&X&X&X",
"&X&X&X&X&X&X&X&X&X5.q.0.7.s.+.c &X&X&X&X&X&X&X&X&X&X&X&X;.;.;.C 7 F x.x.x.p.r.f.x.&X&X&X&X&X&X&X&X&X&X&X&X&X&X&X&X&X",
"&X&X&X&X&X&X&X&X5.6.0.0.s.6.a i &X&X&X&X&X&X&X&X&X&X&X&X;.;.;.Z y d u.x.j.W Y t.b.x.&X&X&X&X&X&X&X&X&X&X&X&X&X&X&X&X",
"&X&X&X&X&X&X&X:.5.0.s.0.s.3.a a G &X&X&X&X&X&X&X&X&X&X&X&X;.;.-.r e 4.x.v.& X ` v.x.&X&X&X&X&X&X&X&X&X&X&X&X&X&X&X&X",
"&X&X&X&X&X&Xb K :.8.s.z.s.+.a c 4.&X&X&X&X&X&X&X&X&X&X&X:.-.;.I a w o.v.x.%.U ' d.x.&X&X&X&X&X&X&X&X&X&X&X&X&X&X&X&X",
"&X&X&X&X&XK k 0 p F +.3.2.c e F x.x.&X&X&X&X&X&X&X&X&X&X&X;.;.-.c w G x.v.v.| a.f.x.x.&X&X&X&X&X&X&X&X&X&X&X&X&X&X&X",
"&X&X&X&X&X-.-.Z x e y a e w a +.v.x.&X&X&X&X&X&X&X&X&X&X&X;.;.-.Z w d u.v.c.f.e.e.d.b.&X&X&X&X&X&X&X&X&X&X&X&X&X&X&X",
"&X&X&X&X&X&X<.5.:.o.c e w w p u.v.x.x.&X&X&X&X&X&X&X&X&X&X;.-.;.n 7 f 3.v.f.t...Y j.x.&X&X&X&X&X&X&X&X&X&X&X&X&X&X&X",
"&X&X&X&X&X&X<.6.8.u.3.c w w a 7.x.x.x.&X&X&X&X&X&X&X&X&X&X;.;.;.A w 7 3.v.c.a.~ . | b.x.&X&X&X&X&X&X&X&X&X&X&X&X&X&X",
"&X&X&X&X&X&X&X-.5.0.x.6.c w i 3.x.x.x.&X&X&X&X&X&X&X&X&X&X&X;.>.K 0 i J x.x.x.{ ' r.x.x.&X&X&X&X&X&X&X&X&X&X&X&X&X&X",
"&X&X&X&X&X&X&Xy n 2.s.x.2.w i O.x.x.x.O.&X&X&X&X&X&X&X&X&X&X>.:.:.y 7 F x.x.x.d.t.d.x.x.&X&X&X&X&X&X&X&X&X&X&X&X&X&X",
"&X&X&X&X&X&X&Xo 5 e O.s.4.a i G x.x.x.H &X&X#.x.&X&X&X&X&X&X>.:.;.v w a 4.x.x.c.x.x.x.x.&X&X&X&X&X&X&X&X&X&X&X&X&X&X",
"&X&X&X&X&X&X&Xo 5 5 5 i H p w F z.x.v.4.a e c z.v.v.x.z.>.>.;.>.;.@.a i #.x.x.x.x.x.x.x.x.&X&X&X&X&X&X&X&X&X&X&X&X&X",
"&X&X&X&X&X&X5 o 5 7 q w i p i d x.x.x.l.s 8 a 4.x.x.x.x.0.<.>.>.<.6.c 7 o.v.x.x.x.x.x.x.x.&X&X&X&X&X&X&X&X&X&X&X&X&X",
"&X&X&X&X&X0 o o O 0 q w 7 w w c 7.v.x.4.e i e 4.x.x.x.x.x.s.6.s.s.x.F o.z.x.x.x.z.x.x.x.x.&X&X&X&X&X&X&X&X&X&X&X&X&X",
"&X&X<.<.&XZ x r o 5 7 7 w w i i o.7.3.c 7 e i G v.x.x.x.x.x.x.x.x.x.z.x.x.x.x.x.x.x.x.v.7.#.&X&X&X&X&X&X&X&X&X&X&X&X",
"&X:.<.<.>.;.-.K K t q 7 w w w i a c s z k 8 8 G x.v.x.x.x.x.x.x.x.x.x.x.x.x.x.x.x.z.u.#.s i &X&X&X&X&X&X&X&X&X&X&X&X",
"b v Z K -.>.<.<.>.K n y w w w i u 8 > D.V.A.l a 3.z.z.v.z.x.x.x.v.x.v.z.v.u.u.3.o.m p e i i &X&X&X&X&X&X&X&X&X&X&X&X",
"5 o 0 t b Z -.<.;.D k w w w q w 7 8 !.B.N.N.* i c 4.z.z.v.v.z.x.3.+.G G d d a a w i i e i i i &X&X&X&X&X&X&X&X&X&X&X",
"n r o o o 0 k h t 0 O r v C v g e g (.^.#X{.h 8 e e c o.F G F d i i 8 t k * y 8 i i i p i i i &X&X&X&X&X&X&X&X&X&X&X",
":.-.K v h r O O o o 0 b -.L I I Z r * ).#X`.8 i i i u e i u i 8 e * Z.U.S.~.[.F.y i i i i e i i &X&X&X&X&X&X&X&X&X&X",
"<.<.>.<.;.Z r o o t Z L L L L S C O 4 9 k k 7 w e i i i i i i , D.L.N.M.L.P.'.!.N i i i i i i i &X&X&X&X&X&X&X&X&X&X",
"<.>.<.>.:.;.v o O v ;.-.P L z r + o O O d F F F i i i e i 8 < ~.M.L.L.L.L.L.^.G.k 8 i i 7 e 8 8 i i &X&X&X&X&X&X&X&X",
"<.>.>.>.>.K t o t D >.;.D g + + o O y Z :.x.x.4.G i e i i 8 Y.B.L.L.L.P.L.I.!.h i k N B > 2 D.* i 8 i i &X&X&X&X&X&X",
"<.<.>.>.;.Z O O C ;.<.;.C   &X&X+ @ -.;.;.4.x.v.v.3.d e 8 l ~.N.N.L.P.P.R.'.2 9 , D./.U.R.L.I.B.S.3 y 8 i &X&X&X&X&X",
"&X<.<.<.-.k + q K :.>.&X&X&X&X&X&XZ >.;.>.;.6.x.x.x.4.a e g D.N.M.U._.oX{.].* 8 D.R.M.M.P.M.L.L.N.N.T.l i i &X&X&X&X",
"&X&X<.<.S q O x -.&X&X&X&X&X&X&X&XI >.>.;.;.;.5.f.x.x.3.a i * M.M. X@X@X@X).l * B.M.L.M.M.P.M.P.L.L.M.Z.h i &X&X&X&X",
"&X&X&X&X&XO 0 &X&X&X&X&X&X&X&X&X&X&X&X>.>.;.;.;.5.x.x.z.G e y U.~.%X$X$X@X2 % Z.B.M.M.P.N.N.M.L.L.L.M.R.1 p i &X&X&X",
"&X&X&X&X&X&X&X&X&X&X&X&X&X&X&X&X&X&X&X&X<.>.;.>.:.x.x.v.u.c e F.}.%X$X@XoXG.$ M.M.M.P.M.M.~.~.P.M.L.M.L.E.B i i &X&X",
"&X&X&X&X&X&X&X&X&X&X&X&X&X&X&X&X&X&X&X&X&X&X>.;.;.0.x.x.v.4.d 8 2 OX#X.X{.3 $ S.M.M.M.M.~.].].^.(.E.P.L.I.G.i w &X&X",
"&X&X&X&X&X&X&X&X&X&X&X&X&X&X&X&X&X&X&X&X&X&X>.;.:.q.x.x.v.z.O.i t !.|./.H.a 8 2 ~.M.M.M.~.].{.oX#X$X XU.L.T.N 8 i &X",
"&X&X&X&X&X&X&X&X&X&X&X&X&X&X&X&X&X&X&X&X&X>.:.:.>.s.v.v.x.v.v.u.f 8 $ < y 8 e l ~.M.M.M. X+X@X$X$X$X$X.XR.[.i i i &X",
"&X&X&X&X&X&X&X&X&X&X&X&X&X&X&X&X&X&X&X&X:.>.<.5.s.v.+.6.v.z.v.z.o.8 8 f p e e y 1 n.n.~.+X$X$X$X$X$X+X{.'.F.9 i a &X",
"&X&X&X&X&X&X&X&X&X&X&X&X&X&X&X&X&X&X<.5.6.5.6.u.0.J i c s.x.x.x.z.c i i i i q 4 @ A.m.K. X+X$X$X$X_.(.W.D.g i i &X&X",
"&X&X&X&X&X&X&X&X&X&X&X&X&X&X&X&X:.<.;.;.6.5.2.G m u i c x.x.x.x.b.3.i i i i 5 o o @ A.P.W._.XX[._.Q.J.1 @ 6 i w &X&X",
"&X&X&X&X&X&X&X&X&X&X&X&X&X&X<.:.;.;.;.I C x q 7 i c +.7.v.x.x.x.x.z.G i i w O o o o @ # - A.; = A.- ; @ 4 5 q i &X&X",
"&X&X&X&X&X&X&X&X&X&X&X:.;.;.;.:.<.K v 0 o o w b O.z.x.x.x.x.x.x.x.v.7.a w w 0 o o o o O 4 4   4 O o o o o o &X&X&X&X",
"&X&X&X&X&X&X&X&X&X&X;.;.;.;.;.;.K 0 o O 0 h K 6.0.z.z.c.f.f.x.x.x.x.x.x.F i 0 5 &X&X&X&X5 O O O o 5 o &X&X&X&X&X&X&X",
"&X&X&X&X&X&X&X&X&X:.;.;.:.;.Z v r 5 r v K ;.;.1.q.q.l.{ ] ] d.x.x.x.x.x.+.&X&X&X&X&X&X&X&X&X&X&X&X&X&X&X&X&X&X&X&X&X",
"&X&X&X&X&X&X&X&X:.:.:.;.S k O O r V I >.<.<.>.-.5.q.9.W Q Q w.x.x.x.x.&X&X&X&X&X&X&X&X&X&X&X&X&X&X&X&X&X&X&X&X&X&X&X",
"&X&X&X&X&X&X&X&X>.;.S v q o r v K <.<.;.<.<.( ) $.5.8.[ W ] y.x.x.&X&X&X&X&X&X&X&X&X&X&X&X&X&X&X&X&X&X&X&X&X&X&X&X&X",
"&X&X&X&X&X&X&X&XZ x r o 0 t -.;.:.>.>.1.*._ T T / ,.5.=.=.h.s.&X&X&X&X&X&X&X&X&X&X&X&X&X&X&X&X&X&X&X&X&X&X&X&X&X&X&X",
"&X&X&X&X&X&X&X&Xr 0 0 v Z ;.<.>.>.;.>.<.) T T T / &.>.5.5.5.&X&X&X&X&X&X&X&X&X&X&X&X&X&X&X&X&X&X&X&X&X&X&X&X&X&X&X&X",
"&X&X&X&X&X&X&X&X&Xh K >.>.>.<.&.( _ $.<.&.R ~ ) &.;.<.<.&X&X&X&X&X&X&X&X&X&X&X&X&X&X&X&X&X&X&X&X&X&X&X&X&X&X&X&X&X&X",
"&X&X&X&X&X&X&X&X&X&X<.<.>.>.,.~ T Y _ ;.;.$.&.<.5.<.&X&X&X&X&X&X&X&X&X&X&X&X&X&X&X&X&X&X&X&X&X&X&X&X&X&X&X&X&X&X&X&X",
"&X&X&X&X&X&X&X&X&X&X&X<.<.<.*.R T T ^ >.,.<.<.<.&X&X&X&X&X&X&X&X&X&X&X&X&X&X&X&X&X&X&X&X&X&X&X&X&X&X&X&X&X&X&X&X&X&X",
"&X&X&X&X&X&X&X&X&X&X&X&X&X<.<./ ^ _ *.<.<.<.&X&X&X&X&X&X&X&X&X&X&X&X&X&X&X&X&X&X&X&X&X&X&X&X&X&X&X&X&X&X&X&X&X&X&X&X",
"&X&X&X&X&X&X&X&X&X&X&X&X&X&X<.&.,.;.<.<.&X&X&X&X&X&X&X&X&X&X&X&X&X&X&X&X&X&X&X&X&X&X&X&X&X&X&X&X&X&X&X&X&X&X&X&X&X&X",
"&X&X&X&X&X&X&X&X&X&X&X&X&X&X&X&X<.&X&X&X&X&X&X&X&X&X&X&X&X&X&X&X&X&X&X&X&X&X&X&X&X&X&X&X&X&X&X&X&X&X&X&X&X&X&X&X&X&X",
"&X&X&X&X&X&X&X&X&X&X&X&X&X&X&X&X&X&X&X&X&X&X&X&X&X&X&X&X&X&X&X&X&X&X&X&X&X&X&X&X&X&X&X&X&X&X&X&X&X&X&X&X&X&X&X&X&X&X",
"&X&X&X&X&X&X&X&X&X&X&X&X&X&X&X&X&X&X&X&X&X&X&X&X&X&X&X&X&X&X&X&X&X&X&X&X&X&X&X&X&X&X&X&X&X&X&X&X&X&X&X&X&X&X&X&X&X&X",
"&X&X&X&X&X&X&X&X&X&X&X&X&X&X&X&X&X&X&X&X&X&X&X&X&X&X&X&X&X&X&X&X&X&X&X&X&X&X&X&X&X&X&X&X&X&X&X&X&X&X&X&X&X&X&X&X&X&X"
};
