/* XPM */
static char *_6[] = {
/* columns rows colors chars-per-pixel */
"58 59 208 2 ",
"   c #6D3928",
".  c #733E29",
"X  c #76422A",
"o  c #7C462C",
"O  c #7E482E",
"+  c #7F4426",
"@  c #7A4731",
"#  c #7C4A32",
"$  c #744B3D",
"%  c #2C784C",
"&  c #6C4F4B",
"*  c #734D42",
"=  c #6D504E",
"-  c #7E5A48",
";  c #6A4F51",
":  c #6B5254",
">  c #4D7E5F",
",  c #7F6256",
"<  c #7B665D",
"1  c #75625D",
"2  c #66735C",
"3  c #5C5D75",
"4  c #5F5A6E",
"5  c #635B6B",
"6  c #655865",
"7  c #6B666C",
"8  c #6F686D",
"9  c #736564",
"0  c #786966",
"q  c #7C706F",
"w  c #686B79",
"e  c #736E75",
"r  c #834C2F",
"t  c #844A2A",
"y  c #94542A",
"u  c #824E32",
"i  c #855135",
"p  c #8C5533",
"a  c #8E5935",
"s  c #86543A",
"d  c #8C5A3C",
"f  c #87583E",
"g  c #905732",
"h  c #915A34",
"j  c #935E39",
"k  c #89502D",
"l  c #95623B",
"z  c #99663E",
"x  c #9A683F",
"c  c #855C45",
"v  c #8C5D42",
"b  c #865E4A",
"n  c #8E6144",
"m  c #83614F",
"M  c #8B654C",
"N  c #916446",
"B  c #9C6B43",
"V  c #926649",
"C  c #956B4D",
"Z  c #996C47",
"A  c #9F7047",
"S  c #9D724D",
"D  c #826251",
"F  c #8D6653",
"G  c #866B5E",
"H  c #936B53",
"J  c #946E5A",
"K  c #986E50",
"L  c #9C7354",
"P  c #96715B",
"I  c #9B765B",
"U  c #9D785D",
"Y  c #8A705C",
"T  c #A2754B",
"R  c #A5794E",
"E  c #A07047",
"W  c #A67C51",
"Q  c #A87E53",
"!  c #A17C5C",
"~  c #A27752",
"^  c #9E7A61",
"/  c #937B62",
"(  c #A27E62",
")  c #378454",
"_  c #2F985F",
"`  c #2D9768",
"'  c #349B6A",
"]  c #39996A",
"[  c #31B873",
"{  c #488F5C",
"}  c #459768",
"|  c #4C9669",
" . c #499B63",
".. c #569469",
"X. c #599566",
"o. c #568B65",
"O. c #748F68",
"+. c #7B8F69",
"@. c #7D8D67",
"#. c #679169",
"$. c #719069",
"%. c #638965",
"&. c #55A86C",
"*. c #5DB072",
"=. c #7DAB71",
"-. c #6EAF72",
";. c #2EC379",
":. c #AA8255",
">. c #AC865A",
",. c #AF895C",
"<. c #A6815E",
"1. c #B18C5E",
"2. c #868C68",
"3. c #9B8968",
"4. c #978967",
"5. c #8F9E6F",
"6. c #979569",
"7. c #A58363",
"8. c #A88666",
"9. c #A48866",
"0. c #AA8966",
"q. c #A98768",
"w. c #A48968",
"e. c #AB8968",
"r. c #B38F60",
"t. c #B18768",
"y. c #B08F68",
"u. c #B59364",
"i. c #B4946C",
"p. c #B6986D",
"a. c #BB9C6C",
"s. c #B99867",
"d. c #BB9E71",
"f. c #B49670",
"g. c #85AD73",
"h. c #96AF76",
"j. c #9EAE76",
"k. c #9AA570",
"l. c #87B679",
"z. c #87B175",
"x. c #92B076",
"c. c #A1A26F",
"v. c #BEA16F",
"b. c #A3AC75",
"n. c #ACAC75",
"m. c #BEA271",
"M. c #B2AA76",
"N. c #BCA975",
"B. c #C0A26F",
"V. c #C1A673",
"C. c #C4A976",
"Z. c #C9A876",
"A. c #C6AC79",
"S. c #CAAB78",
"D. c #375C94",
"F. c #395F95",
"G. c #3B649A",
"H. c #3D6DA2",
"J. c #3F72A7",
"K. c #455B86",
"L. c #4A5E87",
"P. c #405F94",
"I. c #5B6C85",
"U. c #56668A",
"Y. c #48689D",
"T. c #566A96",
"R. c #46719E",
"E. c #4B739D",
"W. c #4F7096",
"Q. c #54759B",
"!. c #5A7496",
"~. c #6E7382",
"^. c #65768F",
"/. c #717C8F",
"(. c #64758E",
"). c #4A6EA7",
"_. c #516FA4",
"`. c #4073A7",
"'. c #4B74A3",
"]. c #4175A9",
"[. c #4779AD",
"{. c #4C75A9",
"}. c #547AA2",
"|. c #5979AC",
" X c #467BB2",
".X c #4B7EB5",
"XX c #567BB1",
"oX c #617FB4",
"OX c #657CAB",
"+X c #7A889D",
"@X c #5484B6",
"#X c #5A87B9",
"$X c #4980B9",
"%X c #6B86BA",
"&X c #6688BA",
"*X c #748FAF",
"=X c #538AC3",
"-X c #5F93C8",
";X c #4A86C4",
":X c #708EC0",
">X c #6492C3",
",X c #6A98CA",
"<X c #769CCA",
"1X c #7497C5",
"2X c #75A1CE",
"3X c #7DA9D4",
"4X c #78A3D0",
"5X c None",
/* pixels */
"5X5X5X5X5X5X5X5X5X5X5X5X5X5X5X5X5X5X5X5X5X5X5X5X5X5X5X5X5X5X5X5X5X5X5X5X5X5X5X5X5X5X5X5X5X5X5X5X5X5X5X5X5X5X5X5X5X5X",
"5X5X5X5X5X5X5X5X5X5X5X5X5X5X5X5X5X5X5X5X5X5X5X5X5X5X5X5X5X5X5X5X5X5X5X5X5X5X5X5X5X5X5X5X5X5X5X5X5X5X5X5X5X5X5X5X5X5X",
"5X5X5X5X5X5X5X5X5X5X5X5X5X5X5X5X5X5XA.C.V.C.C.5X5X5X5X5X5X5X5X5X5X5X5X5X5X5X5X5X5X5X5X5X5X5X5X5X5X5X5X5X5X5X5X5X5X5X",
"5X5X5X5X5X5X5X5X5X5X5X5X5X5X5X5Xe.C.C.C.C.C.V.V.5X5X5X5X5X5X5X5X5X5X5X5X5X5X5XV.T 5X5X5X5X5X5X5X5X5X5X5X5X5X5X5X5X5X",
"5X5X5X5X5X5X5X5X5X5X5X5X5X5Xf K 8.d.C.C.C.C.v.1.R 5X5X5X5X5X5X5X5X5X5X5X5X5XB.C.W j a.A.5X5X5X5X5X5X5X5X5X5X5X5X5X5X",
"5X5X5X5X5X5X5X5X5X5X5X5X5XF V v N 0.m.C.C.V.,.B l 5X5X5X5X5X5X5X5X5X5X5X5XV.V.v.R x r.V.V.5X5X5X5X5X5X5X5X5X5X5X5X5X",
"5X5X5X5X5X5X5X5X5X5X5X5X5XP U N a A u.v.V.u.A h j 5X5X5X5X5X5X5X5X5X5X5X5XV.V.a.E z u.V.C.C.N.5X5X5X5X5X5X5X5X5X5X5X",
"5X5X5X5X5X5X5X5X5X5X5X5X5X^ q.! V h T ,.u.W h B :.5X5X5X5X5X5X5X5X5X5X5XV.V.N.u.B x a.C.Z.C.Z.Z.5X5X5X5X5X5X5X5X5X5X",
"5X5X5X5X5X5X5X5X5X5X5X5X5X^ 8.q.<.E h h h h l >.Z.5X5X5X5X5X5X5X5X5X5X5XV.V.v.r.z x u.Z.N.z.l.j.C.5X5X5X5X5X5X5X5X5X",
"5X5X5X5X5X5X5X5X5X5X5X5X5XV ! q.e.1.j h h j :.C.A.5X5X5X5X5X5X5X5X5X5X5XV.V.N.,.l z r.N.=.[ ;.l.C.5X5X5X5X5X5X5X5X5X",
"5X5X5X5X5X5X5X5X5X5X5X5X5X# v ( q.s.E h h E a.Z.V.5X5X5X5X5X5X5X5X5X5X5XV.V.v.:.h B s.N.=._ % g.N.5X5X5X5X5X5X5X5X5X",
"5X5X5X5X5X5X5X5X5X5X5X5X. o u C 8.i.Q j l :.V.C.C.5X5X5X5X5X5X5X5X5X5X5XV.V.v.T h :.N.A.x.*. .x.N.5X5X5X5X5X5X5X5X5X",
"5X5X5X5X5X5X5X5X5X5X5Xo X o o o ! A.:.g h s.C.C.C.5X5X5X5X5X5X5X5X5X5Xv.V.V.s.A z ,.V.N.M.b.b.A.C.5X5X5X5X5X5X5X5X5X",
"5X5X5X5X5X8.q.y.f.5Xj k @ o t o u u.W h x a.C.C.C.5X5X5X5X5X5X5X5X5X5XV.V.N.u.z z 1.V.M.x.k.n.V.C.5X5X5X5X5X5X5X5X5X",
"5X5X5X5Xi v ! i.p.d.>.l r k u p h x j g E C.C.C.V.5X5X5X5X5X5X5X5X5X5XV.N.B.1.l x s.V.j.&.&.j.V.V.5X5X5X5X5X5X5X5X5X",
"5X5X5XZ i # n W y.m.p.>.B p g h h h h j :.m.C.V.:.5X5X5X5X5X5X5X5X5X5XV.V.B.:.l A v.V.6.% ) k.V.5X5X5X5X5X5X5X5X5X5X",
"5X5X5X( K u r n ! s.m.d.,.x p h h g h z 1.Z.V.v.:.g 5X5X5X5X5X5X5X5X5Xm.V.v.R h R B.C.c.{  .j.N.5X5X5X5X5X5X5X5X5X5X",
"5X5Xp.e.8.K i r j 0.m.V.d.Q j a h h h l v.A.V.V.A g h a.A.5X5X5X5X5X5XZ.m.u.x h :.V.C.n.l.=.n.V.5X5X5X5X5X5X5X5X5X5X",
"5X5Xe.e.q.e.! v u j A >.>.T z a h h g l r.Z.v.1.g g z v.C.A.5X5X5X5X5XC.C.,.z h >.V.C.M.j.j.M.V.5X5X5X5X5X5X5X5X5X5X",
"5X5Xq.e.e.q.e.! s u p a p a j h h g h g x T E g g g l N.C.C.C.A.5X5XC.C.C.:.h x u.C.N.x.*.-.b.V.5X5X5X5X5X5X5X5X5X5X",
"5X5Xe.e.e.q.8.! N p p a j Z T Q E l h h h D < c h h T a.C.C.C.V.C.C.C.C.v.R h B a.C.N.=.) { b.C.5X5X5X5X5X5X5X5X5X5X",
"5X5X0.0.e.e.! C i r s n L <.s.m.s.T l a < !.E.I.c j :.V.C.C.C.C.C.C.C.V.v.R j T a.C.V.g.{ &.n.V.5X5X5X5X5X5X5X5X5X5X",
"5X5Xe.0.8.! C i o # v P 7.( 7.i.a.u.R F !. X[.`.8 l ,.V.C.C.C.C.C.C.C.C.a.T j R a.C.N.b.z.h.N.V.5X5X5X5X5X5X5X5X5X5X",
"5X5X5Xe.( C i @ # c P ( ( ( ^ ! I >.W n /.-X>XQ.1 j Q B.C.C.C.C.C.C.C.C.s.E h Q V.C.C.C.N.N.C.C.5X5X5X5X5X5X5X5X5X5X",
"5X5X5X5XK s O i b F ^ U ! K n f s u p h F +X*Xq a h B u.V.C.C.C.C.C.C.C.a.:.Q s.A.C.C.C.C.V.C.5X5X5X5X5X5X5X5X5X5X5X",
"5X5X5X5X5X5Xr f F J J J 5X5X5Xo o o o i j F G a h h h B 1.a.C.C.C.C.C.C.C.B.B.C.C.C.C.C.C.C.C.5X5X5X5X5X5X5X5X5X5X5X",
"5X5X5X5X5X5X5X5X5X5X5X5X5X5X5X5Xo O f n L R B j h h h g B R 1.a.v.B.N.N.C.C.C.C.C.C.C.C.C.C.V.5X5X5X5X5X5X5X5X5X5X5X",
"5X5X5X5X5X5X5X5X5X5X5X5X5X5X5X5Xs C U <.0.v.u.W l h h h g h x B T W >.1.a.a.V.C.C.C.C.C.C.C.Z.5X5X5X5X5X5X5X5X5X5X5X",
"5X5X5X5X5X5X5X5X5X5X5X5X5X5X5X5XL 7.8.0.q.m.C.a.R h h h h h h a a l j z B W 1.u.a.a.V.V.V.B.B.5X5X5X5X5X5X5X5X5X5X5X",
"5X5X5X5X5X5X5X5X5X5X5X5X5X5X5X5X5Xe.8.0.q.d.C.A.s.h g h h y j 0 1 < 7 8 m d y l E E T ,.>.:.,.5X5X5X5X5X5X5X5X5X5X5X",
"5X5X5X5X5X5X5X5X5X5X5X5X5X5X5X5X5X5X0.8.8.p.C.C.V.:.j g h m (.'.E.R.J.'.W.(.e d h h h h j h h 5X5X5X5X5X5X5X5X5X5X5X",
"5X5X5X5X5X5X5X5X5X5X5X5X5X5X5X5X5X5X5X8.8.i.C.Z.V.u.z k - I. X`.J.J.J.J.J.[.XX0 j h h h h g h 5X5X5X5X5X5X5X5X5X5X5X",
"5X5X5X5X5X5X5X5X5X5X5X5X5X5X5X5X5X5X5Xq.0.p.C.C.C.s.v @ & K.F.`.`.`.`.`.J.[.@X~.c a h h a h g 5X5X5X5X5X5X5X5X5X5X5X",
"5X5X5X5X5X5X5X5X5X5X5X5X5X5X5X5X5X5X5Xq.q.p.C.C.C.i.N o $ D.D.H.].].J.`.J.;X^.q h a h h g g h 5X5X5X5X5X5X5X5X5X5X5X",
"5X5X5X5X5X5X5X5X5X5X5X5X5X5X5X5X5X5X5X9.8.m.C.C.m.e.K u $ K.D.).>X>X=X.X@Xe m d a a h a h h g 5X5X5X5X5X5X5X5X5X5X5X",
"5X5X5X5X5X5X5X5X5X5X5X5X5X5X5XJ P I ( 8.e.C.C.C.d.q.L s & K.).&X3X3X,X#X~.f M < < m n a h h p 5X5X5X5X5X5X5X5X5X5X5X",
"5X5X5X5X5X8.0.8.8.8.8.8.8.7.P F P U ^ 7.d.C.Z.A.C.e.! v * U.|.:X<X3X<X/., , (.Q.Q.!.~.9 < d h 5X5X5X5X5X5X5X5X5X5X5X",
"5X5X5X0.8.8.9.q.8.9.7.8.7.7.U H F P U 8.a.a.a.a.C.i.7.N u 6 OX%X%X<X+X0 1 I.`.`.J.J.J.E.E.7 s h 5X5X5X5X5X5X5X5X5X5X",
"5X5X5X<.<.<.( ! ! ! ! L C V n v c v C S S T B W m.C.8.I s : T.|.XX&Xw 9 U.J.J.`.J.J.`.J.J.'.7 a a 5X5X5X5X5X5X5X5X5X",
"5X5XC V n C n d s s f s r # u # O # i a a j j W d.C.p.( v # 5 T.U.I.D 7 J.J.J.J.`.J.J.J.J.J.R.7 a g 5X5X5X5X5X5X5X5X",
"5X5Xu # O O r o u i s d v n N v v n C S L ~ W m.A.C.C.i.C o + * $ i y 0 `.`.`.`.`.`.J.J.J.`.].W., a 5X5X5X5X5X5X5X5X",
"5X5X5XV C K C C L ! ! 7.7.( 7.( 7.7.7.7.i.p.p.N.C.A.V.C.~ u # r # o @ 6 ).`.`.`.J.$X$XJ.J.J.J.E.9 a p 5X5X5X5X5X5X5X",
"5X5X5X7.8.8.9.8.8.0.8.8.q.8.8.8.q.q.q.q.0.p.p.f.d.d.m.d.>.j r O o t @ 6 F.G.`.H.$X=X=X$XJ.R.].].I.c h 5X5X5X5X5X5X5X",
"5X5X5X5X8.8.q.q.3.3.3.8.q.9.3.2.2.4.q.q.4.2.k.6.e.q.q.q.! s o o o o o ; K.D.D.).#X>X-X=X@X[.].J.Q.b a 5X5X5X5X5X5X5X",
"5X5X5X5Xe.0.w.+.X.X.$.4.q.+...| | #.3.q.O.} | %./ ( ( q.( f O r o o @ * L.D.Y.|.%X%X2X3X2X#X$XJ.E.D a 5X5X5X5X5X5X5X",
"5X5X5X5X5Xe.w. .] ` | w.t.$.' ` ` ..q.e.O.' ` > ( ( ( ( q.V X o o O o # 6 ).).oX%X%X1X3X3X2X@X`.Q.b h 5X5X5X5X5X5X5X",
"5X5X5X5X5Xe.e.| ' ] ..3.0.$...| | 2.q.e.+.#.o.2 J ( ( ( 7.( s O o o o @ $ 3 E.&X%X%X%X3X3X3X#X$X@X, p p 5X5X5X5X5X5X",
"5X5X5X5X5X5Xw.2.2.+.2.q.9.w.4.4.4.3.8.q.w.3.3.G J J J / 5X5X5X5X5X5X5Xo @ $ 5 T.OX&X&X,X,X#X@XE.7 # t o 5X5X5X5X5X5X",
"5X5X5X5X5X5X5X0.9.9.0.e.0.e.0.q.0.0.0.5X5X5X5X5X5X5X5X5X5X5X5X5X5X5X5X5X5Xo # ; 6 U.!.|.)._.U.5 @ @ t o 5X5X5X5X5X5X",
"5X5X5X5X5X5X5X5X5X5Xe.5X5X5X5X5X5X5X5X5X5X5X5X5X5X5X5X5X5X5X5X5X5X5X5X5X5X5Xo o o * : 4 3 * * t @ t o 5X5X5X5X5X5X5X",
"5X5X5X5X5X5X5X5X5X5X5X5X5X5X5X5X5X5X5X5X5X5X5X5X5X5X5X5X5X5X5X5X5X5X5X5X5X5X5X5Xo o @ # . t . . . . 5X5X5X5X5X5X5X5X",
"5X5X5X5X5X5X5X5X5X5X5X5X5X5X5X5X5X5X5X5X5X5X5X5X5X5X5X5X5X5X5X5X5X5X5X5X5X5X5X5X5X5XX X .         5X5X5X5X5X5X5X5X5X",
"5X5X5X5X5X5X5X5X5X5X5X5X5X5X5X5X5X5X5X5X5X5X5X5X5X5X5X5X5X5X5X5X5X5X5X5X5X5X5X5X5X5X5X5X5X5X5X5X5X5X5X5X5X5X5X5X5X5X",
"5X5X5X5X5X5X5X5X5X5X5X5X5X5X5X5X5X5X5X5X5X5X5X5X5X5X5X5X5X5X5X5X5X5X5X5X5X5X5X5X5X5X5X5X5X5X5X5X5X5X5X5X5X5X5X5X5X5X",
"5X5X5X5X5X5X5X5X5X5X5X5X5X5X5X5X5X5X5X5X5X5X5X5X5X5X5X5X5X5X5X5X5X5X5X5X5X5X5X5X5X5X5X5X5X5X5X5X5X5X5X5X5X5X5X5X5X5X",
"5X5X5X5X5X5X5X5X5X5X5X5X5X5X5X5X5X5X5X5X5X5X5X5X5X5X5X5X5X5X5X5X5X5X5X5X5X5X5X5X5X5X5X5X5X5X5X5X5X5X5X5X5X5X5X5X5X5X",
"5X5X5X5X5X5X5X5X5X5X5X5X5X5X5X5X5X5X5X5X5X5X5X5X5X5X5X5X5X5X5X5X5X5X5X5X5X5X5X5X5X5X5X5X5X5X5X5X5X5X5X5X5X5X5X5X5X5X",
"5X5X5X5X5X5X5X5X5X5X5X5X5X5X5X5X5X5X5X5X5X5X5X5X5X5X5X5X5X5X5X5X5X5X5X5X5X5X5X5X5X5X5X5X5X5X5X5X5X5X5X5X5X5X5X5X5X5X",
"5X5X5X5X5X5X5X5X5X5X5X5X5X5X5X5X5X5X5X5X5X5X5X5X5X5X5X5X5X5X5X5X5X5X5X5X5X5X5X5X5X5X5X5X5X5X5X5X5X5X5X5X5X5X5X5X5X5X"
};
