/* XPM */
static char *_7[] = {
/* columns rows colors chars-per-pixel */
"58 59 197 2 ",
"   c #6F3B28",
".  c #753D25",
"X  c #733E29",
"o  c #125736",
"O  c #13663F",
"+  c #26633F",
"@  c #7C4126",
"#  c #76422B",
"$  c #7C452C",
"%  c #7F492F",
"&  c #6B423A",
"*  c #7D4A32",
"=  c #774937",
"-  c #1B6C43",
";  c #5F4B53",
":  c #6C4D4A",
">  c #66515A",
",  c #7B5F50",
"<  c #71534E",
"1  c #7C655C",
"2  c #7B6154",
"3  c #575775",
"4  c #5B697E",
"5  c #726665",
"6  c #7A6761",
"7  c #7D6A64",
"8  c #776C6E",
"9  c #6A6C76",
"0  c #726C72",
"q  c #6F717E",
"w  c #73747F",
"e  c #834B2D",
"r  c #8C522F",
"t  c #87502F",
"y  c #94562B",
"u  c #95582F",
"i  c #995424",
"p  c #824D32",
"a  c #855135",
"s  c #8D5532",
"d  c #84543A",
"f  c #8C5B3C",
"g  c #8C5837",
"h  c #905732",
"j  c #915934",
"k  c #945E39",
"l  c #96613B",
"z  c #99653E",
"x  c #9C693F",
"c  c #8A5C41",
"v  c #835945",
"b  c #8D6046",
"n  c #8C624A",
"m  c #85614D",
"M  c #926445",
"N  c #9B6740",
"B  c #9C6B43",
"V  c #92664B",
"C  c #946A4D",
"Z  c #9A6E4A",
"A  c #9F7148",
"S  c #826454",
"D  c #896858",
"F  c #966D51",
"G  c #936D5B",
"H  c #996F52",
"J  c #9B7355",
"K  c #96715C",
"L  c #9B755D",
"P  c #9E795E",
"I  c #9B7457",
"U  c #A26F43",
"Y  c #A2744A",
"T  c #A5794E",
"R  c #A07147",
"E  c #A77B51",
"W  c #A97E52",
"Q  c #A27C5D",
"!  c #9B7660",
"~  c #9D7A61",
"^  c #A37F63",
"/  c #1A9059",
"(  c #328F5A",
")  c #349A6A",
"_  c #3A996A",
"`  c #3E9F65",
"'  c #32B974",
"]  c #4D966A",
"[  c #45976A",
"{  c #5C9369",
"}  c #509569",
"|  c #7B8F68",
" . c #748F68",
".. c #619369",
"X. c #699168",
"o. c #749069",
"O. c #44B673",
"+. c #49AE6F",
"@. c #69BA79",
"#. c #74B979",
"$. c #7DB678",
"%. c #49C37B",
"&. c #6AC27E",
"*. c #AB8155",
"=. c #AD8559",
"-. c #AE885B",
";. c #A6815C",
":. c #B18C5E",
">. c #848D68",
",. c #8B8C68",
"<. c #9C8A68",
"1. c #958867",
"2. c #A58265",
"3. c #A98766",
"4. c #AC8A66",
"5. c #AB8768",
"6. c #A48968",
"7. c #AB8969",
"8. c #B28F62",
"9. c #B18768",
"0. c #B08F6B",
"q. c #B59363",
"w. c #B89666",
"e. c #B4946D",
"r. c #B5996E",
"t. c #BB9C6C",
"y. c #B99867",
"u. c #BA9C71",
"i. c #8AB578",
"p. c #94B176",
"a. c #96B57A",
"s. c #85AD74",
"d. c #BEA06F",
"f. c #ADAC76",
"g. c #A7AF78",
"h. c #BEA271",
"j. c #B3AB76",
"k. c #BBAA76",
"l. c #A9B179",
"z. c #C2A673",
"x. c #C4A976",
"c. c #C9A876",
"v. c #C6AC78",
"b. c #C9AE7A",
"n. c #C9B17C",
"m. c #375D99",
"M. c #3D679E",
"N. c #3E71A5",
"B. c #3E74AA",
"V. c #3D77B1",
"C. c #3977B5",
"Z. c #3766A4",
"A. c #576885",
"S. c #46649A",
"D. c #47719E",
"F. c #50759E",
"G. c #606D83",
"H. c #6E7484",
"J. c #67768D",
"K. c #6B768A",
"L. c #757682",
"P. c #607B9C",
"I. c #446CAB",
"U. c #4073A7",
"Y. c #4A74A4",
"T. c #4275A9",
"R. c #4779AB",
"E. c #4A79AB",
"W. c #5678A9",
"Q. c #456EB0",
"!. c #447BB3",
"~. c #4A72B2",
"^. c #5375B0",
"/. c #566FA5",
"(. c #5981AB",
"). c #4A82BB",
"_. c #4480BC",
"`. c #5484B6",
"'. c #5987B9",
"]. c #6A83B7",
"[. c #6886B9",
"{. c #7595B9",
"}. c #4B86C2",
"|. c #4483C2",
" X c #548ECA",
".X c #5694D2",
"XX c #6798C9",
"oX c #759BCA",
"OX c #6A9ED1",
"+X c #7BA1CD",
"@X c #79A6D3",
"#X c #7FABD7",
"$X c #76A8DB",
"%X c #81ABD6",
"&X c #80ADD8",
"*X c #86B0DA",
"=X c None",
/* pixels */
"=X=X=X=X=X=X=X=X=X=X=X=X=X=X=X=X=X=X=X=X=X=X=X=X=.T y.x.x.x.z.=X=X=X=X=X=X=X=X=X=X=X=X=X=X=X=X=X=X=X=X=X=X=X=X=X=X=X",
"=X=X=X=X=X=X=X=X=X=X=X=X=X=X=X=X=X=X=X=X=X=X=Xx.w.B y.x.x.x.x.x.x.=X=X=X=X=X=X=X=X=X=X=X=X=X=X=X=X=X=X=X=X=X=X=X=X=X",
"=X=X=X=X=X=X=X=X=X=X=X=X=X=X=X=X=X=X=X=X=X=X=Xv.t.B Y t.x.x.x.x.x.x.=X=X=X=X=X=X=X=X=X=X=X=X=X=X=X=X=X=X=X=X=X=X=X=X",
"=X=X=X=X=X=X=X=X=X=X=X=X=X=X=X=X=X=X=X=X=X=X=Xx.z.E k :.x.x.x.x.x.x.x.=X=X=X=X=X=X=X=X=X=X=X=X=X=X=X=X=X=X=X=X=X=X=X",
"=X=X=X=X=X=X=X=X=X=X=X=X=X=X=X=X=X=X=X=X=X=X=Xx.x.:.k T d.v.x.x.w.*.=.=X=X=X=X=X=X=X=X=X=X=X=X=X=X=X=X=X=X=X=X=X=X=X",
"=X=X=X=X=X=X=X=X=X=X=X=Xn 7.=X=X=X=X=X=X=X=XW z.b.y.B l *.x.t.*.k j k =X=X=X=X=X=X=X=X=X=X=X=X=X=X=X=X=X=X=X=X=X=X=X",
"=X=X=X=X=X=X=X=X=X=XV # a Q h.v.=X=X=X=Xj h z y.v.x.B j k B Y l k k =X=X=X=X=X=X=X=X=X=X=X=X=X=X=X=X=X=X=X=X=X=X=X=X",
"=X=X=X=X=X=X=X=X=X=XK * . M t.v.v.*.s j j j h q.x.x.Y h s j k z E =.=X=X=X=X=X=X=X=X=X=X=X=X=X=X=X=X=X=X=X=X=X=X=X=X",
"=X=X=X=X=X=X=X=X~ ~ ~ n X g q.x.x.q.k j j j r T b.z.R j s k T q.x.b.=X=X=X=X=X=X=X=X=X=X=X=X=X=X=X=X=X=X=X=X=X=X=X=X",
"=X=X=X=X=X=X=X=XK ~ ^ ^ p p *.h.v.t.T r j j j k x.z.z j z q.v.v.x.=X=X=X=X=X=X=X=X=X=X=X=X=X=Xz.x.-.=X=X=X=X=X=X=X=X",
"=X=X=X=X=X=X=XK ! ~ ^ ^ V g z w.x.x.t.k j j j j :.E h j E z.x.x.x.=X=X=X=X=X=X=X=X=X=X=X=X=Xx.x.x.B N =X=X=X=X=X=X=X",
"=X=X=X=X=X=X=XK ! ^ ^ ^ ^ f j =.z.v.z.B s j j j x j s R z.v.x.x.=X=X=X=X=X=X=X=X=X=X=X=X=Xv.z.z.q.k Y v.=X=X=X=X=X=X",
"=X=X=X=X=X=X=XG ~ ^ ^ ^ ^ c p k E z.t.T s j j j k j z w.x.x.x.x.=X=X=X=X=X=X=X=X=X=X=X=Xz.z.z.d.B j :.v.=X=X=X=X=X=X",
"=X=X=X=X=X=X=XK ~ 2.^ ^ K c $ e r g A B k j j j s k -.x.x.x.x.=X=X=X=X=X=X=X=X=X=X=X=Xx.k.x.x.=.j B d.v.x.=X=X=X=X=X",
"=X=X=X=X=X=X=X=X! L F c % # $ e % $ % p s j j j j *.v.x.x.t.*.=X=X=X=X=X=X=X=X=X=X=X=Xz.z.x.w.l j :.v.x.x.x.=X=X=X=X",
"=X=X=X=X=X=X=X=XV v # . X * d M V b c f p s j j l q.v.x.b.q.k =X=X=X=X=X=X=X=X=X=X=Xz.x.x.d.x s z t.c.c.v.c.=X=X=X=X",
"=X=X=X=X=X=X=X=X=X# # p b H I 2.7.2.5.2.V j j s z :.v.z.z.Y h =X=X=X=X=X=X=X=X=X=Xx.z.x.z.8.k k *.x.k.$.i.f.x.=X=X=X",
"=X=X=X=X=X=X=X=X=X=Xc I ~ 2.7.5.3.3.3.7.2.M j j h x E *.N j s z t.=X=X=X=X=X=X=X=Xz.z.x.d.x s T t.v.j.' ' @.k.=X=X=X",
"=X=X=X=X=X=X=X=X=X=X=X=X3.2.3.2.3.2.7.3.7.W k i f 6 b y s j j :.x.x.=X=X=X=X=X=Xz.x.x.d.B s A z.v.c.#./ O &.x.=X=X=X",
"=X=X=X=X=X=X=X=X=X=X=X=X=X=X=X=Xa c c F Q y.B w }.!.Y.g j h N z.v.x.=X=X=X=X=Xx.z.z.x.:.k u -.x.x.x.i.+.` g.c.=X=X=X",
"=X=X=X=X=X=X=X=X=X=X=X=X=X=X=X=X=X=X% $ p k h (.!.U.C.5 y k :.x.x.x.x.=X=X=X=Xz.z.v.d.A r A z.x.g.f.k.j.l.c.=X=X=X=X",
"=X=X=X=X=X=X=X=X=X=X=X=X=X=X=X=X=X=X$ $ $ s y L.$XOXN.0 j :.b.x.x.x.x.=X=X=Xx.x.z.t.z s B d.v.b.@.[ &.k.x.v.=X=X=X=X",
"=X=X=X=X=X=X=X=X=X=X=X=X=X=X=X=X=X=Xp $ p g h k OX{.5 j l y.x.x.x.x.x.x.x.x.x.v.v.*.j j =.x.x.r.o + p.x.x.=X=X=X=X=X",
"=X=X=X=X=X=X=X=X=X=X=X=X=X=X=X=X=X=XH ^ Q ;.Y j c y y j z t.x.x.x.x.x.x.x.x.x.v.8.j r x d.x.x.a.( ( f.x.v.=X=X=X=X=X",
"=X=X=X=X=X=X=X=X=X=X=X=X=X=X=X=X=X=X7.7.3.r.z.8.N g j j s y.x.x.x.x.x.x.x.x.x.t.l h l z.v.c.c.g.$.#.v.v.=X=X=X=X=X=X",
"=X=X=X=X=X=X=X=X=X=X=X=X=X=X=X=X=X=X7.3.3.e.x.v.-.k j j s E z.v.x.x.x.x.x.x.x.:.k j =.z.x.c.p.p.f.k.v.=X=X=X=X=X=X=X",
"=X=X=X=X7.=X=X=X=X=X=X=X=X=X=X=X=X=X=X3.3.e.x.x.q.N h j j j -.z.z.x.x.x.x.v.z.Y j B z.x.x.g.%.' i.x.c.=X=X=X=X=X=X=X",
"=X7.3.7.3.3.3.~ =X=X=X=X=X=X=X=X=X=X=X5.3.e.x.x.z.l j j j h k :.z.v.x.x.z.z.T s k :.x.x.c.s.- + a.v.=X=X=X=X=X=X=X=X",
"I P 3.7.3.3.3.3.L K =X=X=X=X=X=X=X=X=X5.3.r.x.x.b.R s j j j h k E z.x.x.x.v.t.Y E z.x.x.x.p.O.&.k.v.=X=X=X=X=X=X=X=X",
"a p f I Q 3.3.3.3.P G G G =X=X=X=X=X=X3.7.u.x.x.z.*.h j j h y j h N :.h.v.x.x.x.b.x.x.x.x.j.p.k.c.=X=X=X=X=X=X=X=X=X",
"f d % * a f C P 3.7.! G G L ~ ~ 2.=X7.7.7.h.x.x.x.Y j j y c 8 1 f i k A z.x.x.x.x.x.x.x.x.x.x.x.x.=X=X=X=X=X=X=X=X=X",
"3.Q I f % $ $ a V C F I D L ~ ~ 2.3.3.3.0.z.x.x.z.Y h c J.}.!.Y.Y.9 f s U q.x.x.x.x.x.x.x.x.x.v.=X=X=X=X=X=X=X=X=X=X",
"7.7.7.3.I I c d e $ $ e d n K ~ ~ 3.3.7.h.v.x.v.h.N j 5 R.B.N.N.B.B.R.G.f l :.x.x.x.x.x.x.x.x.x.=X=X=X=X=X=X=X=X=X=X",
"4.7.7.7.7.7.7.^ Q V d % $ $ d b L 2.7.u.z.v.x.v.y.k i A.N.N.N.B.U.U.U.B.J.b l *.y.x.v.x.x.x.x.=X=X=X=X=X=X=X=X=X=X=X",
"0.3.5.7.5.5.4.7.7.7.Q J c p $ $ p C -.h.h.v.x.v.q.j S !.N.N.U.B.B.U.U.N.).H.y j l -.z.x.x.x.x.=X=X=X=X=X=X=X=X=X=X=X",
"r.4.,.] ..| 6.5.3.7.7.3.3.Q C f s p s j E v.x.z.:.h w R.`.oXXX`.B.U.U.U.}.(.h j j y N :.y.z.=X=X=X=X=X=X=X=X=X=X=X=X",
"=X5.o.) ) _ | 7.5.7.3.7.5.5.5.3.Q Z k r =.x.x.v.E y L.$X*X&X%X@X).!.|.}.'.w f j j j j j l =X=X=X=X=X=X=X=X=X=X=X=X=X",
"=X7.{ _ ) [ ,.7.,.{ | >.5.5.5.3.0.e.4.8.x.v.x.v.q.h K.#X%X&X#X#X.X Xq m S b j j j j j j j =X=X=X=X=X=X=X=X=X=X=X=X=X",
"=X5.3.,.X.X.6.3.X._ ) ) ..<.7.3.5.7.r.u.u.x.x.x.*.y F.OX@X#X#X{.w S y i g j h j j j j j j =X=X=X=X=X=X=X=X=X=X=X=X=X",
"=X=X7.4.3.6.7.7..._ ) ) ..6.7.<.,.9.0.u.u.u.x.v.T y D  X XXX'.6 m f 1 P.H.D j j j g j j =X=X=X=X=X=X=X=X=X=X=X=X=X=X",
"=X=X=X7.7.7.7.7.6.,.{ { ,.7.5.] ) ] >.0.u.u.z.u.N h j 8 K.H.m , 4 D.V.!.!.(.7 j h j j j =X=X=X=X=X=X=X=X=X=X=X=X=X=X",
"=X=X=X=X=X=X7.7.7.4.7.6.6.7.,.) ) _ | 5.7.7.0.8.k h u k k y f D.B.B.N.N.N.B.E.5 n y j =X=X=X=X=X=X=X=X=X=X=X=X=X=X=X",
"=X=X=X=X=X=X=X=X=X=X7.7.7.7.6.| [ } <.~ G ^ ^ F % s h g h u 7 R.B.B.U.U.U.U.N.R.W.j j =X=X=X=X=X=X=X=X=X=X=X=X=X=X=X",
"=X=X=X=X=X=X=X=X=X=X=X=X=X7.7.7.<.1.K G G G ~ v # % s j h h K.!.U.N.U.U.U.B.U.U.V.2 u =X=X=X=X=X=X=X=X=X=X=X=X=X=X=X",
"=X=X=X=X=X=X=X=X=X=X=X=X=X=X=X=X=X3.G G G G ! d . # # e y c ^.U.U.N.U.U.U.U.U.U.V.A.y j =X=X=X=X=X=X=X=X=X=X=X=X=X=X",
"=X=X=X=X=X=X=X=X=X=X=X=X=X=X=X=X=X=X=X=XK G G v . # # $ $ v R.N.U.N.R.).).R.U.N.B.B.f j =X=X=X=X=X=X=X=X=X=X=X=X=X=X",
"=X=X=X=X=X=X=X=X=X=X=X=X=X=X=X=X=X=X=X=X=X=X=X=   # # # @ > I.M.B.`.`. X X!.U.U.N.V.0 y j =X=X=X=X=X=X=X=X=X=X=X=X=X",
"=X=X=X=X=X=X=X=X=X=X=X=X=X=X=X=X=X=X=X=X=X=X=X=X=X=X# # # & I.M.[.@X@XOX X!.N.U.U.U.7 j =X=X=X=X=X=X=X=X=X=X=X=X=X=X",
"=X=X=X=X=X=X=X=X=X=X=X=X=X=X=X=X=X=X=X=X=X=X=X=X=X=X=X=X# = A.~.[.[.%X*X%XXXY.I.U.V.1 y =X=X=X=X=X=X=X=X=X=X=X=X=X=X",
"=X=X=X=X=X=X=X=X=X=X=X=X=X=X=X=X=X=X=X=X=X=X=X=X=X=X=X=X=XX : Q.].[.W.%X%X%X[.I.U.R.1 s =X=X=X=X=X=X=X=X=X=X=X=X=X=X",
"=X=X=X=X=X=X=X=X=X=X=X=X=X=X=X=X=X=X=X=X=X=X=X=X=X=X=X=X=XX . 3 W.^.].].{.%XoXB.B.Y.= e =X=X=X=X=X=X=X=X=X=X=X=X=X=X",
"=X=X=X=X=X=X=X=X=X=X=X=X=X=X=X=X=X=X=X=X=X=X=X=X=X=X=X=X=X  . & > ~.].].W.].'.M.Z.3 * # =X=X=X=X=X=X=X=X=X=X=X=X=X=X",
"=X=X=X=X=X=X=X=X=X=X=X=X=X=X=X=X=X=X=X=X=X=X=X=X=X=X=X=X=X=X  X . 3 /.Q.^.^.I.m.S.> . # =X=X=X=X=X=X=X=X=X=X=X=X=X=X",
"=X=X=X=X=X=X=X=X=X=X=X=X=X=X=X=X=X=X=X=X=X=X=X=X=X=X=X=X=X=X=XX   X ; S.Q.S.I.S.> $ # =X=X=X=X=X=X=X=X=X=X=X=X=X=X=X",
"=X=X=X=X=X=X=X=X=X=X=X=X=X=X=X=X=X=X=X=X=X=X=X=X=X=X=X=X=X=X=X=X    X & . < : @ @ # # =X=X=X=X=X=X=X=X=X=X=X=X=X=X=X",
"=X=X=X=X=X=X=X=X=X=X=X=X=X=X=X=X=X=X=X=X=X=X=X=X=X=X=X=X=X=X=X=X=X=X  X X . . @ # # X =X=X=X=X=X=X=X=X=X=X=X=X=X=X=X",
"=X=X=X=X=X=X=X=X=X=X=X=X=X=X=X=X=X=X=X=X=X=X=X=X=X=X=X=X=X=X=X=X=X=X=XX X       $ =X=X=X=X=X=X=X=X=X=X=X=X=X=X=X=X=X",
"=X=X=X=X=X=X=X=X=X=X=X=X=X=X=X=X=X=X=X=X=X=X=X=X=X=X=X=X=X=X=X=X=X=X=X=X=X# d =X=X=X=X=X=X=X=X=X=X=X=X=X=X=X=X=X=X=X",
"=X=X=X=X=X=X=X=X=X=X=X=X=X=X=X=X=X=X=X=X=X=X=X=X=X=X=X=X=X=X=X=X=X=X=X=X=X=X=X=X=X=X=X=X=X=X=X=X=X=X=X=X=X=X=X=X=X=X"
};
