/* XPM */
static char *_8[] = {
/* columns rows colors chars-per-pixel */
"58 59 161 2 ",
"   c #0D2B1C",
".  c #174C34",
"X  c #7D472D",
"o  c #7E492E",
"O  c #74402A",
"+  c #774937",
"@  c #7E4A31",
"#  c #784C3A",
"$  c #1E6D4A",
"%  c #226C4A",
"&  c #237F57",
"*  c #6F504E",
"=  c #755B53",
"-  c #745651",
";  c #7D665B",
":  c #7A6053",
">  c #595B78",
",  c #635B6B",
"<  c #776D6E",
"1  c #7B6965",
"2  c #72717B",
"3  c #814B2F",
"4  c #834D31",
"5  c #855033",
"6  c #8C5532",
"7  c #875539",
"8  c #89573B",
"9  c #8A593D",
"0  c #915934",
"q  c #945E39",
"w  c #96613B",
"e  c #99663E",
"r  c #8C5E42",
"t  c #875A43",
"y  c #8F6145",
"u  c #85624E",
"i  c #926445",
"p  c #996740",
"a  c #9C6B44",
"s  c #926649",
"d  c #956A4D",
"f  c #986D4F",
"g  c #9D714D",
"h  c #846352",
"j  c #816559",
"k  c #986E51",
"l  c #946B50",
"z  c #9B7354",
"x  c #9F7759",
"c  c #9E795A",
"v  c #A07047",
"b  c #A27349",
"n  c #A5794E",
"m  c #A47B55",
"M  c #A97E53",
"N  c #A37D5D",
"B  c #A07550",
"V  c #9E7A61",
"C  c #A17E62",
"Z  c #30935F",
"A  c #2C9C6B",
"S  c #349B6B",
"D  c #3C9A6B",
"F  c #3AAF72",
"G  c #3EBF78",
"H  c #49976A",
"J  c #56986B",
"K  c #699269",
"L  c #43A870",
"P  c #53AC72",
"I  c #48BD77",
"U  c #42BE78",
"Y  c #4BBD78",
"T  c #53BB77",
"R  c #5AB977",
"E  c #53B776",
"W  c #77A571",
"Q  c #63B877",
"!  c #79B476",
"~  c #73B577",
"^  c #3EC079",
"/  c #AA8155",
"(  c #AC855A",
")  c #AF895D",
"_  c #B28D5F",
"`  c #858D69",
"'  c #8C8C68",
"]  c #938B68",
"[  c #9E8A68",
"{  c #8C9D6E",
"}  c #A78464",
"|  c #A98666",
" . c #AA8966",
".. c #A48968",
"X. c #AB8968",
"o. c #B38E60",
"O. c #B08F6B",
"+. c #A09C6F",
"@. c #B69364",
"#. c #B89767",
"$. c #B3936C",
"%. c #B7996F",
"&. c #BA9B6C",
"*. c #BB9D71",
"=. c #95AF76",
"-. c #9CAA75",
";. c #84B276",
":. c #8BB276",
">. c #BFA16F",
",. c #A4AD76",
"<. c #A9AC76",
"1. c #BEA173",
"2. c #BBAA76",
"3. c #C1A574",
"4. c #C4A976",
"5. c #375B92",
"6. c #385E95",
"7. c #395F98",
"8. c #3C6096",
"9. c #3B639B",
"0. c #3B689D",
"q. c #3E6EA3",
"w. c #3F71A6",
"e. c #455D8B",
"r. c #4C5B82",
"t. c #50628C",
"y. c #4C6C9C",
"u. c #506797",
"i. c #506998",
"p. c #547194",
"a. c #6C7282",
"s. c #6E7A8B",
"d. c #677A95",
"f. c #697890",
"g. c #446AA5",
"h. c #4073A7",
"j. c #4175AA",
"k. c #4578AD",
"l. c #4B7BAD",
"z. c #5274A0",
"x. c #4770B0",
"c. c #467BB2",
"v. c #4A7DB4",
"b. c #4875B1",
"n. c #5D81AB",
"m. c #5E80A6",
"M. c #4D85BF",
"N. c #5887B9",
"B. c #4E86C1",
"V. c #528BC5",
"C. c #528CC8",
"Z. c #5B8EC1",
"A. c #6B9BCC",
"S. c #6B97C4",
"D. c #6E9FD0",
"F. c #76A2CE",
"G. c #75A3D2",
"H. c #79A6D3",
"J. c #7EA9D5",
"K. c #80ABD6",
"L. c None",
/* pixels */
"L.L.L.L.L.L.L.L.L.L.L.L.L.L.L.L.L.L.L.L.L.L.L.L.L.L.L.L.L.L.L.L.L.L.L.L.L.L.L.L.L.L.L.L.L.L.L.L.L.L.L.L.L.L.L.L.L.L.",
"L.L.L.L.L.L.L.L.L.L.L.L.L.L.L.L.L.L.L.$.( 3 8 } L.L.L.L.L.L.L.L.L.L.O.N r N L.L.L.L.L.L.L.L.L.L.L.L.L.L.L.L.L.L.L.L.",
"L.L.L.L.L.L.L.L.L.L.L.L.L.L.L.L.L.O.$.X. .3 o z X.X.L.L.L.L.L.L.L.L.C N 8 N X.X.L.L.L.L.L.L.L.L.L.L.L.L.L.L.L.L.L.L.",
"L.L.L.L.L.L.L.L.L.L.L.L.L.L.L.L.$.*.*.*. .3 5 x X.X.L.L.L.L.L.L.L.X.X.k @ x X.X.X.X.L.L.L.L.L.L.L.L.L.L.L.L.L.L.L.L.",
"L.L.L.L.L.L.L.L.L.L.L.L.L.L.L.L.1.1.3.1.%.8 4 m $.X.L.3 L.L.L.o x X.X.l 3 k X.X.X.X.X.L.L.L.L.L.L.L.L.L.L.L.L.L.L.L.",
"L.L.L.L.L.L.L.L.L.L.L.L.L.L.L.*.*.1.1.1.>.p 6 m $.$.z 3 o o X X z X.X.l X f | X.X.X.X.X.L.L.L.L.L.L.L.L.L.L.L.L.L.L.",
"L.L.L.L.L.L.L.L.L.L.L.L.L.L.L.*.1.1.1.1.1.g 6 / *.$.m 3 X X X 3 B X.X.s X k | X.X.X.| X.L.L.L.L.L.L.L.L.L.L.L.L.L.L.",
"L.L.L.L.L.L.L.L.L.L.L.L.L.L.L.1.1.1.3.1.*.p 6 ) *.*. .4 4 X X X C X.X.7 X 8 | | | } } X.L.L.L.L.L.L.L.L.L.L.L.L.L.L.",
"L.L.L.L.L.L.L.L.L.L.L.L.L.L.L.@.@.o.o.@./ w 6 a 3.1.%.6 3 3 3 X X.X.x X X X t k r 5 7 d L.L.L.L.L.L.L.L.L.L.L.L.L.L.",
"L.L.L.L.L.L.L.L.L.L.L.L.L.L.L.0 0 0 0 0 0 0 0 0 ) 3./ 6 6 3 3 3 | X.8 X 3 X X X X X o L.L.L.L.L.L.L.L.L.L.L.L.L.L.L.",
"L.L.L.L.L.L.L.L.L.L.L.L.L.L.L.L.0 0 q 0 q 0 0 0 0 m m 6 6 6 3 9 N 7 X X X 5 t r s r L.L.L.L.L.L.L.L.L.L.L.L.L.L.L.L.",
"L.L.L.L.L.L.L.L.L.L.L.L.L.L.L.L.n o.o.o./ / M q 0 q e 6 6 6 6 8 4 X X 4 z X.X.X.X.X.L.L.L.L.L.L.L.L.L.L.L.L.L.L.L.L.",
"L.L.L.L.L.L.L.L.L.L.L.L.L.L.L.L.L.4.4.4.4.4.4.@.b w 0 0 6 6 6 4 6 4 r } X.X.X.X.X.L.L.L.L.L.L.L.L.L.L.L.L.L.L.L.L.L.",
"L.L.L.L.L.L.L.L.L.L.L.L.L.L.L.L.L.L.4.4.4.4.4.4.4.o.w 0 0 0 0 6 i ( O.X.X.X.X.X.L.L.L.L.L.L.L.L.L.L.L.L.L.L.L.L.L.L.",
"L.L.L.L.L.L.L.L.L.L.L.L.L.L.L.L.L.L.L.L.3.4.4.4.4.4.v 0 0 0 0 / *.*.*.X.X.X.L.L.L.L.L.L.L.L.L.L.L.L.L.L.L.L.L.L.L.L.",
"L.L.L.L.L.L.L.L.L.L.L.L.L.L.L.L.L.L.L.L.L.e _ 4.4.4.v 0 0 0 / 4.3.*.$.X.C L.L.L.L.L.L.L.L.L.L.L.L.L.L.L.L.L.L.L.L.L.",
"L.L.L.L.L.L.L.L.L.L.L.L.L.L.L.L.L.L.L.L.L.L.0 n >.4.b 0 0 0 M 3.4.O.C t L.L.L.L.L.L.L.L.L.L.L.L.L.L.L.L.L.L.L.L.L.L.",
"L.L.L.} | | | | L.L.L.L.L.L.L.L.L.L.L.L.L.L.0 0 w >.n 0 0 0 e / @.N r O L.L.L.L.L.L.L.L.L.L.L.L.L.L.L.L.L.L.L.L.L.L.",
"L.L.q 9 ( } } } } L.L.L.L.L.L.L.L.L.L.L.L.L.0 0 0 0 0 d.M.v.1 0 3 X X O L.L.L.L.L.L.L.L.L.L.L.L.L.L.L.X.| | X.} L.L.",
"L.L.a 6 i V } } | } | L.L.L.L.L.L.L.L.L.L.v w 0 0 0 0 V.j.h.h.0 3 X X X l L.L.L.L.L.L.L.L.L.L.L.L.| | } | | } 8 L.L.",
"L.4.#.b 0 e N } } | } L.L.L.L.L.L.L.L.L.L.4.4.#.a 0 0 F.J.h.h.6 o X @ x X.L.L.L.L.L.L.L.L.L.L.X.| } | | | C 8 X z L.",
"L.4.4.4.g 0 w f } } } | L.L.L.L.L.L.L.L.L.4.4.4.3.a 0 S.A.j.2 0 @ 8 | | X.L.L.L.L.L.L.L.L.L.L.| | | | } k 4 X r  .L.",
"L.4.4.4.>.a 0 6 d } } } | L.L.L.L.L.L.L.L.4.4.4.4.&.q 0 0 0 8 q N X.} } | L.L.L.L.L.L.L.L.| | | | | } 9 X X i X.X.L.",
"4.4.4.4.4.4._ w 4 f | } | } L.L.L.L.L.L.4.4.4.4.4.4.b 0 0 0 0 / $.X.X.X.X.X.L.L.L.L.L.L.| | } | } c 4 o X d X.| X.%.",
"4.4.2.2.4.4.4.@.p o o z } } | | L.L.L.L.4.4.4.4.4.4./ 0 0 0 0 &.1.X.X.| X.| L.L.L.L.} X.| | | C s X X X s X.X.X.X.$.",
"3.2.R Y ,.4.4.4.1.a X o s } ..} | L.L.L.4.4.4.4.4.4.b 0 0 0 0 3.4.$.| | | | L.L.L.V C | | } N 3 X @ y z } X.X.X.X.$.",
"4.Q U G I <.4.4.4.>.p X X d } } | X.X.4.4.4.4.4.4.4.w 0 0 0 0 #.4.1.X.X.X.| X.X.} V V C C k X 3 @ z X.X.| ..D K X.X.",
"4.<.I G I :.4.4.4.4.>.i X X d } X.| X.$.4.4.4.4.4.3.0 0 0 0 0 / 4.4.3.X.| | | X.} } V s X 3 3 7 N X.X.X...S & A K X.",
"4.4.-.T ;.4.4.4.4.4.4.&.9 X X z | | | X.3.4.4.4.4./ 0 0 0 0 6 0 3.4.4.3.X.X.| | X.V + X 4 3 d X.X.X...X.` S   A ' | ",
"L.4.4.2.4.4.2.T =.4.4.4.$.y X X z } X.| &.4.4.4.3.w 0 0 6 6 3 3 m 1.4.4.4.$.X.| z X O 3 8 m X.X.X.[ D ` | ` H ' X.O.",
"L.L.4.4.4.2.T ^ G Q 4.4.4.1.s X X s } | &.4.4.4.n 0 8 0 X X 3 3 4 C %.4.4.4.1.m 6 5 6 g %.%.X.| X.. . S ] X.| X.L.L.",
"L.L.L.4.4.4.;.^ G G ! 4.4.4.*.s X o @ X.4.4.4.@.0 0 ; i.g.q., 3 X 5 | %.4.4.g 0 0 w o.*.*.%.O.| J $ % ` X.X.X.L.L.L.",
"L.L.L.L.4.4.4.~ U T ,.4.4.4.4.1.g 3 n 3.4.4.4.e 0 0 j.0.5.5.5.r.X X i } %.4.#.0 a #.4.1.*.*.{ ] [ H ] X.X.X.L.L.L.L.",
"L.L.L.L.L.L.4.4.,.,.4.4.2.4.4.4.4.4.3.4.4.4.) 0 u l.h.h.5.5.5.5.5.X X ( X.1.4.4.4.4.4.*.*.W F J ] [ X.X.L.L.L.L.L.L.",
"L.L.L.L.L.L.L.4.4.4.4.2.I R 4.4.4.4.4.4.4.4.w 0 m.h.h.h.9.5.5.5.5.e.X t X.X.3.4.4.4.4.3.-.S   L ] X.X.L.L.L.L.L.L.L.",
"L.L.L.L.L.L.L.L.4.4.4.Y ^ ^ R 4.4.4.4.4.4.>.0 h A.K.K.F.N.q.6.5.5.5.* X m  .3.4.4.4.4.3.+.E P +.X.X.L.L.L.L.L.L.L.L.",
"L.L.L.L.L.L.L.L.L.4.4.=.^ U ! 4.4.4.4.4.4.w 8 m.K.K.K.K.H.k.w.9.5.5.i.3 8 X.*.4.4.4.4.3.1.-.&.%.X.L.L.L.L.L.L.L.L.L.",
"L.L.L.L.L.L.L.L.L.L.4.4.=.! 4.4.4.4.4.4./ 0 0 V.G.K.K.K.H.V.c.q.6.9.g.X 3 z 3.4.4.4.4.3.1.1.1.$.L.L.L.L.L.L.L.L.L.L.",
"L.L.L.L.L.L.L.L.L.L.L.L.4.4.4.4.4.4.4.o.0 0 0 n.C.A.J.J.A.C.B.v.b.x.i.X 3 6 @.3.4.4.4.4.1.1.L.L.L.L.L.L.L.L.L.L.L.L.",
"L.L.L.L.L.L.L.L.L.L.L.L.L.4.4.4.4.4.4.0 0 0 0 u f.N.m.< ; = # X * , - 5 6 6 0 3.4.4.4.3.1.L.L.L.L.L.L.L.L.L.L.L.L.L.",
"L.L.L.L.L.L.L.L.L.L.L.L.L.L.4.4.4.4.b 0 0 0 0 0 0 0 9 ; = + X X X X X 3 0 0 0 e 3.4.4.4.L.L.L.L.L.L.L.L.L.L.L.L.L.L.",
"L.L.L.L.L.L.L.L.L.L.L.L.L.L.L.L.4.4.0 0 0 0 0 0 0 0 p.w.0.5.9.y.* X X X 3 0 0 0 p #.L.L.L.L.L.L.L.L.L.L.L.L.L.L.L.L.",
"L.L.L.L.L.L.L.L.L.L.L.L.L.L.L.L.L./ 0 0 0 0 0 0 0 f.w.w.0.5.5.8.u.# X X X 3 0 0 0 L.L.L.L.L.L.L.L.L.L.L.L.L.L.L.L.L.",
"L.L.L.L.L.L.L.L.L.L.L.L.L.L.L.L.L.L.0 0 0 0 0 0 f.M.w.w.w.8.5.5.5., X X X o 6 0 L.L.L.L.L.L.L.L.L.L.L.L.L.L.L.L.L.L.",
"L.L.L.L.L.L.L.L.L.L.L.L.L.L.L.L.L.L.L.0 0 0 0 ; k.w.w.w.w.w.0.5.5.8.X X X X 3 L.L.L.L.L.L.L.L.L.L.L.L.L.L.L.L.L.L.L.",
"L.L.L.L.L.L.L.L.L.L.L.L.L.L.L.L.L.L.L.L.0 0 0 n.w.w.w.w.w.w.w.q.5.5.t.X X X L.L.L.L.L.L.L.L.L.L.L.L.L.L.L.L.L.L.L.L.",
"L.L.L.L.L.L.L.L.L.L.L.L.L.L.L.L.L.L.L.L.L.q e C.w.w.w.k.M.w.w.j.9.5.9.X o L.L.L.L.L.L.L.L.L.L.L.L.L.L.L.L.L.L.L.L.L.",
"L.L.L.L.L.L.L.L.L.L.L.L.L.L.L.L.L.L.L.L.L.0 j C.N.F.H.N.C.C.j.w.0.5.5.X o L.L.L.L.L.L.L.L.L.L.L.L.L.L.L.L.L.L.L.L.L.",
"L.L.L.L.L.L.L.L.L.L.L.L.L.L.L.L.L.L.L.L.L.0 r V.H.K.K.J.C.C.k.w.0.5.5.X X L.L.L.L.L.L.L.L.L.L.L.L.L.L.L.L.L.L.L.L.L.",
"L.L.L.L.L.L.L.L.L.L.L.L.L.L.L.L.L.L.L.L.L.0 0 N.J.K.K.K.G.B.h.h.w.8.5.X X L.L.L.L.L.L.L.L.L.L.L.L.L.L.L.L.L.L.L.L.L.",
"L.L.L.L.L.L.L.L.L.L.L.L.L.L.L.L.L.L.L.L.L.0 0 2 D.K.K.K.K.A.l.h.w.w.y.4 6 L.L.L.L.L.L.L.L.L.L.L.L.L.L.L.L.L.L.L.L.L.",
"L.L.L.L.L.L.L.L.L.L.L.L.L.L.L.L.L.L.L.L.L.0 0 0 V.J.K.J.K.K.l.w.h.h.; 0 6 L.L.L.L.L.L.L.L.L.L.L.L.L.L.L.L.L.L.L.L.L.",
"L.L.L.L.L.L.L.L.L.L.L.L.L.L.L.L.L.L.L.L.L.L.0 0 d.G.J.J.J.J.k.w.h.l.0 0 L.L.L.L.L.L.L.L.L.L.L.L.L.L.L.L.L.L.L.L.L.L.",
"L.L.L.L.L.L.L.L.L.L.L.L.L.L.L.L.L.L.L.L.L.L.0 0 9 V.C.G.J.S.j.w.c.j 0 0 L.L.L.L.L.L.L.L.L.L.L.L.L.L.L.L.L.L.L.L.L.L.",
"L.L.L.L.L.L.L.L.L.L.L.L.L.L.L.L.L.L.L.L.L.L.L.0 0 a.V.C.B.k.j.v.< 0 0 L.L.L.L.L.L.L.L.L.L.L.L.L.L.L.L.L.L.L.L.L.L.L.",
"L.L.L.L.L.L.L.L.L.L.L.L.L.L.L.L.L.L.L.L.L.L.L.0 0 0 0 s.C.C.N.2 0 0 0 L.L.L.L.L.L.L.L.L.L.L.L.L.L.L.L.L.L.L.L.L.L.L.",
"L.L.L.L.L.L.L.L.L.L.L.L.L.L.L.L.L.L.L.L.L.L.L.L.0 0 0 0 0 0 0 0 0 0 L.L.L.L.L.L.L.L.L.L.L.L.L.L.L.L.L.L.L.L.L.L.L.L.",
"L.L.L.L.L.L.L.L.L.L.L.L.L.L.L.L.L.L.L.L.L.L.L.L.L.0 0 0 0 0 0 0 0 L.L.L.L.L.L.L.L.L.L.L.L.L.L.L.L.L.L.L.L.L.L.L.L.L.",
"L.L.L.L.L.L.L.L.L.L.L.L.L.L.L.L.L.L.L.L.L.L.L.L.L.L.0 0 0 0 0 0 L.L.L.L.L.L.L.L.L.L.L.L.L.L.L.L.L.L.L.L.L.L.L.L.L.L."
};
