/* XPM */
static char *_9[] = {
/* columns rows colors chars-per-pixel */
"58 59 206 2 ",
"   c #0F4A32",
".  c #1C583C",
"X  c #2A593D",
"o  c #7D462C",
"O  c #7E482E",
"+  c #75402A",
"@  c #7A4731",
"#  c #7C4932",
"$  c #754B3D",
"%  c #7A4D3A",
"&  c #7B513F",
"*  c #195F41",
"=  c #1E7048",
"-  c #1A6A48",
";  c #236A49",
":  c #5D505B",
">  c #694E4D",
",  c #754E42",
"<  c #6A5457",
"1  c #7A5F55",
"2  c #7B5D4D",
"3  c #7D665D",
"4  c #72625E",
"5  c #5A5B76",
"6  c #4B597F",
"7  c #665761",
"8  c #5D607B",
"9  c #796A67",
"0  c #786E70",
"q  c #71717B",
"w  c #686570",
"e  c #83421F",
"r  c #814525",
"t  c #824A2E",
"y  c #864A29",
"u  c #8D532E",
"i  c #94562C",
"p  c #96582E",
"a  c #955327",
"s  c #824D31",
"d  c #855136",
"f  c #8C5432",
"g  c #8F5935",
"h  c #865339",
"j  c #8C5A3C",
"k  c #88563B",
"l  c #905732",
"z  c #915934",
"x  c #945E39",
"c  c #985D32",
"v  c #96623B",
"b  c #99653D",
"n  c #8B5D41",
"m  c #875A42",
"M  c #86614B",
"N  c #8C644C",
"B  c #8D6246",
"V  c #936344",
"C  c #9C6C45",
"Z  c #926649",
"A  c #966B4D",
"S  c #9A6E4A",
"D  c #966947",
"F  c #9D704C",
"G  c #9F7047",
"H  c #826353",
"J  c #81675A",
"K  c #986E50",
"L  c #976D51",
"P  c #9C7355",
"I  c #9D7759",
"U  c #9F785A",
"Y  c #A2744B",
"T  c #A5784D",
"R  c #A07047",
"E  c #A57B53",
"W  c #A87E52",
"Q  c #A37D5D",
"!  c #9F7B62",
"~  c #A17E63",
"^  c #26865C",
"/  c #319966",
"(  c #39A36C",
")  c #3DBF78",
"_  c #4F8F65",
"`  c #449B6C",
"'  c #57946A",
"]  c #658D66",
"[  c #78926B",
"{  c #65936A",
"}  c #42BE78",
"|  c #4CBD78",
" . c #41BE77",
".. c #5EB977",
"X. c #56BB77",
"o. c #51AC74",
"O. c #6AB777",
"+. c #64B878",
"@. c #7FB377",
"#. c #7AAB75",
"$. c #3AC078",
"%. c #36C179",
"&. c #AC855A",
"*. c #AA8357",
"=. c #B18B5D",
"-. c #878A66",
";. c #958B68",
":. c #9D8A68",
">. c #85946C",
",. c #A68464",
"<. c #A98766",
"1. c #AA8966",
"2. c #AC8768",
"3. c #A48968",
"4. c #AB8969",
"5. c #B28E61",
"6. c #B18A69",
"7. c #AA916C",
"8. c #B69465",
"9. c #B3936C",
"0. c #B7986F",
"q. c #BA9A6B",
"w. c #B89767",
"e. c #BB9D71",
"r. c #B39570",
"t. c #99AE76",
"y. c #9AA472",
"u. c #84B377",
"i. c #89B276",
"p. c #8CAE76",
"a. c #BEA06F",
"s. c #A3AE76",
"d. c #A7AA75",
"f. c #BEA273",
"g. c #B5AB76",
"h. c #BCAA76",
"j. c #C19E72",
"k. c #C1A574",
"l. c #C4A976",
"z. c #C9A876",
"x. c #C6AC78",
"c. c #C8AF7B",
"v. c #C9B17C",
"b. c #365B93",
"n. c #3A5E95",
"m. c #345E9A",
"M. c #3F5A89",
"N. c #3A649A",
"B. c #3B699F",
"V. c #3C6097",
"C. c #3D6DA2",
"Z. c #3966A6",
"A. c #3F72A6",
"S. c #3D73AB",
"D. c #3771AB",
"F. c #3A78B5",
"G. c #495E8A",
"H. c #4B628B",
"J. c #5D6985",
"K. c #5E728F",
"L. c #4C6A97",
"P. c #4F739B",
"I. c #4E7097",
"U. c #53729C",
"Y. c #6B7689",
"T. c #707381",
"R. c #697A92",
"E. c #647B9A",
"W. c #446BA1",
"Q. c #4073A7",
"!. c #4175AA",
"~. c #4579AE",
"^. c #4D7BAC",
"/. c #436EB0",
"(. c #447BB4",
"). c #497AB1",
"_. c #5579A1",
"`. c #627EA0",
"'. c #7B8290",
"]. c #5E81A8",
"[. c #4D81B7",
"{. c #5283B4",
"}. c #5989BA",
"|. c #5686B9",
" X c #6786AB",
".X c #7096BD",
"XX c #618AB8",
"oX c #4885C5",
"OX c #528AC4",
"+X c #538ECB",
"@X c #5B8EC3",
"#X c #5B91C9",
"$X c #4B8ED1",
"%X c #5C96D1",
"&X c #6C9CCB",
"*X c #6394C5",
"=X c #739EC9",
"-X c #659ED9",
";X c #7BA6D3",
":X c #7DA9D5",
">X c #76A6D5",
",X c #6CA2D8",
"<X c #76AFE5",
"1X c #81ACD6",
"2X c #83AED9",
"3X c None",
/* pixels */
"3X3X3X3X3X3X3X3X3X3X3X3X3X3X3X3X3X3X3X3X3X3X3X3X3X3X3X3X9.4.9.9.F 3X3X3X3X3X3X3X3X3X3X3X3X3X3X3X3X3X3X3X3X3X3X3X3X3X",
"3X3X3X3X3X3X3X3X3X3X3X3X3X3X3X3X3X3X3X3X3X3X3X3X3X3X3Xe.e.e.9.<.d s P 3X3X3X3X3X3X3X3X3X3X3X3X3X3X3X3X3X3X3X3X3X3X3X",
"3X3X3X3X3X3X3X3X3X3X3X3X3X3X3X3X3X3X3X3X3X3X3X3X3Xe.f.f.f.f.e.Q o t U 4.3X3X3X3X3X3X3X3X3X3X3X3X3X3X3X3X3X3X3X3X3X3X",
"3X3X3X3X3X3X3X3X3X3X3X3X3X3X3X3X3X3X3X3X3X3X3X3X3Xf.e.f.f.f.f.C t B ,.4.3X3X3X3X3X3X3X3X3X3X3X3X3X3X3X3X3X3X3X3X3X3X",
"3X3X3X3X3X3X3X3X3X3X3X3X3X3X3X3X3X3X3X3X3X3X3X3X3Xk.k.k.f.f.q.V s E <.4.3X3X3X3X3X3X3X3X3X3X3X3X3X3X3X3X3X3X3X3X3X3X",
"3X3X3X3X3X3X3X3X3X3X3X3X3X3X3X3X3X3X3X3X3X3X3X3XW 8.q.a.f.l.5.v z &.r.4.3X3X3X3X3X3X3X3X3X3X3X3X3X3X3X3X3X3X3X3X3X3X",
"3X3X3X3X3X3X3X3X3X3X3X3X3X3X3X3X3X3X3X3X3X3X3X3Xf x R &.q.q.S f Y 9.0.1.V o 3X3X3X3X3X3X4.,.V 3X3X3X3X3X3X3X3X3X3X3X",
"3X3X3X3X3X3X3X3X3X3X3X3X3X3X3X3X3X3X3X3X3X3X3X3Xx l f f b G z g &.k.0.Q d o # # 3Xn ,.<.<.P j Q 3X3X3X3X3X3X3X3X3X3X",
"3X3X3X3X3X3X3X3X3X3X3X3X3X3X3X3X3X3X3X3X3X3X3X3X3X&.R z u z z g &.l.e.Q t o # r o A ,.4.Q j j ~ <.4.3X3X3X3X3X3X3X3X",
"3X3X3X3X3X3X3X3Xv j Q <.<.3X3X3X3X3X3X3X3X3X3X3X3Xj.q.=.R v z f *.l.e.D t t # r d I 2.4.A # A ,.4.4.3X3X3X3X3X3X3X3X",
"3X3X3X3X3X3X3Xk.R l P ,.<.<.3X3X3X3X3X3X3X3X3X3X3Xx.x.k.w.&.b z v 5.E f s t o + L <.4.~ n s P 4.<.4.4.3X3X3X3X3X3X3X",
"3X3X3X3X3X3Xl.l.=.z V ,.<.,.,.3X3X3X3X3X3X3X3X3X3X3Xl.x.x.l.&.v x R D f s u s s 4.4.2.Z t n Q 4.4.4.<.3X3X3X3X3X3X3X",
"3X3X3X3X3X3Xl.l.x.R v E ,.,.<.3X3X3X3X3X3X3X3X3X3X3Xa.k.x.l.k.T x x z f f s s Z 6.,.K # t m 4.4.<.4.2.4.3X3X3X3X3X3X",
"3X3X3X3X3Xl.l.l.l.&.z b ~ ,.<.<.3X3X3X3X3X3X3X3X3X3X3XW j.l.l.k.Y z f f f s j E A n s o o h Q 4.4.<.4.4.3X3X3X3X3X3X",
"3X3X3X3Xl.l.l.l.l.q.b u A <.,.,.3X3X3X3X3X3X3X3X3X3X3Xv &.x.l.x.T z z l f f f s # o # o o # n A K ~ 4.4.3X3X3X3X3X3X",
"3X3X3X3Xh.g.u.g.l.z.8.x j Q <.,.3X3X3X3X3X3X3X3X3X3X3Xu b 8.x.a.C z z z l s d t t s h j d h o # # d K 3X3X3X3X3X3X3X",
"3X3X3Xz.i.| ) O.h.l.k.Y s P <.,.<.3X3X3X3X3X3X3X3X3X3Xz z C k.=.b f z x v Y F Q P ,.,.<.<.U Z j s O j 3X3X3X3X3X3X3X",
"3X3X3Xl.d. .) ) s.l.x.8.g d Q ,.<.3X3X3X3X3X3X3X3X3Xv z z x w.T p z f Y w.f.f.0.9.<.4.<.4.4.4.Q n 3X3X3X3X3X3X3X3X3X",
"3X3X3Xz.h.O.) | t.z.l.l.Y o m ,.<.<.3X3X3X3X3X3X3Xl.w.b l f i N H z p T l.k.f.q.9.4.2.<.<.4.3X3X3X3X3X3X3X3X3X3X3X3X",
"3X3X3Xl.x.t.u.s.g.z.l.x.w.s o A ,.,.<.3X3X3X3X3Xl.l.x.q.b z i `.oX{.3 C w.f.1.<.,.,.<.3X3X3X3X3X3X3X3X3X3X3X3X3X3X3X",
"3X3X3X3Xl.l.z.z.z.l.z.x.k.V o j ,.<.3.3X3X3X3X3Xl.l.l.x.&.p N -X).!.K.z b P L m % 3X3X3X3X3X3X3X3X3X3X3X3X3X3X3X3X3X",
"3X3X3X3Xl.l.l.s.u...g.l.x.E # s U <.<.<.3X3X3Xl.l.l.l.l.w.c '.<X*XD.I.a o o # + 3X3X3X3X3X3X3X3X3X3X3X3X3X3X3X3X3X3X",
"3X3X3X3X3Xl.x.@.) ) u.k.x.w.h + Z ,.<.<.3X3Xl.l.l.l.l.l.a.v B '.~.P.3 y O o + o 3X3X3X3X3X3X3X3X3X3X3X3X3X3X3X3X3X3X",
"3X3X3X3X3Xl.l.s.} ) | g.x.f.F o k ,.<.<.4.l.l.l.l.l.l.l.w.V i i g M u o s O n A 3X3X3X3X3X3X3X3X3X3X3X3X3X3X3X3X3X3X",
"3X3X3X3X3X3Xz.g...%.| i.l.x.w.k o P <.<.<.0.x.l.l.l.l.l.&.x p z f v S I P 2.<.4.3X3X3X3X3X3X3X3X3X3X3X3X3X3X3X3X3X3X",
"3X3X3X3X3X3X3Xz.s.u.t.g.z.l.f.A o n ,.<.<.a.k.x.l.l.x.8.b z z g z =.w.4.4.4.<.<.3X3X3X3X3X3X3X3X3X3X3X3X3X3X3X3X3X3X",
"3X3X3X3X3X3X3Xl.l.h.l.l.l.l.l.1.# O K <.4.f.x.k.l.x.k.C z z z u G k.e.,.,.<.4.4.3X3X3X3X3X3X3X3X3X3X3X3X3X3X3X3X3X3X",
"3X3X3X3X3X3X3X3Xl.z.l.s.t.z.l.f.D o o ,.0.f.l.x.l.q.*.u z z z f 5.k.e.4.4.<.<.<.3X3X3X3X3X3X3X3X3X3X3X3X3X3X3X3X3X3X",
"3X3X3X3X3X3X3X3Xl.z.+.} ) s.z.l.8.D E e.l.l.l.x.8.R z f z z z x 8.k.f.4.<.<.<.3X3X3X3X3X3X3X3X3X3X3X<.<.<.<.<.<.3X3X",
"3X3X3X3X3X3X3X3X3Xl.u.%.) +.l.l.x.x.l.l.l.x.f.=.v l l i z f f g 5.x.k.9.<.<.<.3X3X3X3X3X3X3X<.1.<.<.<.<.<.<.<.<.<.<.",
"3X3X3X3X3X3X3X3X3Xz.s.X.X.u.z.l.l.l.l.l.x.a.T x a n 9 1 t y t t 5.x.x.0.<.<.<.4.3X3X! <.4.<.<.<.<.<.1.,.<.<.<.,.I n ",
"3X3X3X3X3X3X3X3X3X3Xh.t.g.l.l.l.l.l.l.l.q.C g n 3 I.Q.Z.L.7 @ t P l.l.x.4.<.<.<.<.! ! ,.<.<.<.<.,.<.,.,.P A n d s d ",
"3X3X3X3X3X3X3X3X3X3Xz.z.l.l.l.l.l.l.c.a.T u 9 _.F.A.B.b.m.G.$ + B r.k.l.e.<.<.<.<.,.~ ~ <.,.,.P P n n # t o o s n ~ ",
"3X3X3X3X3X3X3X3X3X3X3Xl.l.l.l.l.l.k.5.x z 9 .X&X{.A.N.b.b.b.5 e s 2.e.l.k.9.<.<.,.P N B j Z s O @ o t o t m A Q 4.4.",
"3X3X3X3X3X3X3X3X3X3X3Xl.l.l.l.v.8.R x i 3 #X2X2X2X&XQ.n.b.b.G.$ s U 0.x.k.q.&.D # o + O o O o d h Z A L K 2.4.2.4.9.",
"3X3X3X3X3X3X3X3X3X3X3X3Xl.x.k.&.z z f i E.%X:X1X1X:X}.B.b.b.b.: o U 6.k.q.v j f s t d f j Z P U ,.2.4.4.2.2.2.2.4.9.",
"3X3X3X3X3X3X3X3X3X3X3X3X3Xl.W z f z z x q OX>X:X1X1X@XS.N.n.b.G.r L 4.e.k.V z b E W 1.w.1.<.4.4.2.2.4.2.;.] [ ,.<.r.",
"3X3X3X3X3X3X3X3X3X3X3X3X3XE z z z z z z M E.@X=X;X,XOX(.B.b.b.5 @ Z 4.e.x.l.8.q.f.k.e.e.9.<.6.<.>.>.3.-./ ^ ( :.6.3X",
"3X3X3X3X3X3X3X3X3X3X3X3X3Xz z z z z z z p z 3 9 9 R.}.oXS.n.N.L.@ V <.e.l.l.x.l.k.k.e.q.4.2.>.X * _ 3.[ ;   ( [ 4.3X",
"3X3X3X3X3X3X3X3X3X3X3X3X3X3Xz z z z g i z j w 4 2 & % < I././.8 o j 9.e.l.l.l.l.k.f.y.#.>.:.' - * ` ;.;.' ] >.3.6.3X",
"3X3X3X3X3X3X3X3X3X3X3X3X3X3Xz z z z p J T._.S.S.G.> r e , 5 8 $ o k 9.l.l.l.l.l.f.y./ = ` ;.[ { -.3.<.2.4.<.4.6.3X3X",
"3X3X3X3X3X3X3X3X3X3X3X3X3X3X3Xz z j 9 ^.(.Q.Q.C.m.m.L.< o % & u u u q.l.l.l.l.k.f.#.( X o.:.3.1.4.4.4.4.3X3X3X3X3X3X",
"3X3X3X3X3X3X3X3X3X3X3X3X3X3X3Xz p Y.^.S.Q.Q.Q.C.b.b.N.5 # o O f g u T x.l.l.l.l.k.d.y.y.7.4.1.4.4.3X3X3X3X3X3X3X3X3X",
"3X3X3X3X3X3X3X3X3X3X3X3X3X3X3Xz H +XS.A.Q.Q.Q.A.N.b.N.H.@ O o t z z C f.l.l.l.k.k.f.e.e.4.4.3X3X3X3X3X3X3X3X3X3X3X3X",
"3X3X3X3X3X3X3X3X3X3X3X3X3X3Xz z T.+X}.{.A.A.!.Q.C.n.b.G.$ O o O g g x w.x.l.l.k.f.f.3X3X3X3X3X3X3X3X3X3X3X3X3X3X3X3X",
"3X3X3X3X3X3X3X3X3X3X3X3X3X3Xz z {.>X;X:X*X[.(.A.Q.Z.b.n.o O O O f z z T k.x.k.3X3X3X3X3X3X3X3X3X3X3X3X3X3X3X3X3X3X3X",
"3X3X3X3X3X3X3X3X3X3X3X3X3X3Xz n XX:X1X1X;X+X+X(.Q.C.n.n.< O o O f z z 3X3X3X3X3X3X3X3X3X3X3X3X3X3X3X3X3X3X3X3X3X3X3X",
"3X3X3X3X3X3X3X3X3X3X3X3X3X3Xz j  X:X1X1X:X#XOX!.Q.N.b.N.> o O O s 3X3X3X3X3X3X3X3X3X3X3X3X3X3X3X3X3X3X3X3X3X3X3X3X3X",
"3X3X3X3X3X3X3X3X3X3X3X3X3X3Xz z |.:X1X1X1X*X(.S.A.N.b.M.o o 3X3X3X3X3X3X3X3X3X3X3X3X3X3X3X3X3X3X3X3X3X3X3X3X3X3X3X3X",
"3X3X3X3X3X3X3X3X3X3X3X3X3X3Xz B  X:X1X1X1X=X~.!.A.N.m.: r o 3X3X3X3X3X3X3X3X3X3X3X3X3X3X3X3X3X3X3X3X3X3X3X3X3X3X3X3X",
"3X3X3X3X3X3X3X3X3X3X3X3X3X3Xz l  X%X>X:X2X&X~.A.!.B.n.@ o 3X3X3X3X3X3X3X3X3X3X3X3X3X3X3X3X3X3X3X3X3X3X3X3X3X3X3X3X3X",
"3X3X3X3X3X3X3X3X3X3X3X3X3X3Xz j R.$X&X:X;X{.Q.Q.S.I.w y t 3X3X3X3X3X3X3X3X3X3X3X3X3X3X3X3X3X3X3X3X3X3X3X3X3X3X3X3X3X",
"3X3X3X3X3X3X3X3X3X3X3X3X3X3Xz z g R.OXOX{.A.A.Q.(.H z f 3X3X3X3X3X3X3X3X3X3X3X3X3X3X3X3X3X3X3X3X3X3X3X3X3X3X3X3X3X3X",
"3X3X3X3X3X3X3X3X3X3X3X3X3X3X3Xz z J |.$X(.(.^.K.J p z 3X3X3X3X3X3X3X3X3X3X3X3X3X3X3X3X3X3X3X3X3X3X3X3X3X3X3X3X3X3X3X",
"3X3X3X3X3X3X3X3X3X3X3X3X3X3X3Xz z i z 0 ].Y.3 j z z 3X3X3X3X3X3X3X3X3X3X3X3X3X3X3X3X3X3X3X3X3X3X3X3X3X3X3X3X3X3X3X3X",
"3X3X3X3X3X3X3X3X3X3X3X3X3X3X3Xz z z z i l x p l z 3X3X3X3X3X3X3X3X3X3X3X3X3X3X3X3X3X3X3X3X3X3X3X3X3X3X3X3X3X3X3X3X3X",
"3X3X3X3X3X3X3X3X3X3X3X3X3X3X3X3X3Xz z z z z z 3X3X3X3X3X3X3X3X3X3X3X3X3X3X3X3X3X3X3X3X3X3X3X3X3X3X3X3X3X3X3X3X3X3X3X",
"3X3X3X3X3X3X3X3X3X3X3X3X3X3X3X3X3X3X3Xz z z 3X3X3X3X3X3X3X3X3X3X3X3X3X3X3X3X3X3X3X3X3X3X3X3X3X3X3X3X3X3X3X3X3X3X3X3X",
"3X3X3X3X3X3X3X3X3X3X3X3X3X3X3X3X3X3X3X3X3X3X3X3X3X3X3X3X3X3X3X3X3X3X3X3X3X3X3X3X3X3X3X3X3X3X3X3X3X3X3X3X3X3X3X3X3X3X"
};
