/* XPM */
static char *_0[] = {
/* columns rows colors chars-per-pixel */
"58 59 201 2 ",
"   c #144932",
".  c #7D462C",
"X  c #7E492E",
"o  c #7B4226",
"O  c #7D4A32",
"+  c #754B3C",
"@  c #7B4E3B",
"#  c #1B5E40",
"$  c #1C7249",
"%  c #257850",
"&  c #2A6C4A",
"*  c #6D4C46",
"=  c #694D4B",
"-  c #724D43",
";  c #714F48",
":  c #7A5545",
">  c #66545B",
",  c #755851",
"<  c #7D6152",
"1  c #7E655B",
"2  c #75635D",
"3  c #5C5566",
"4  c #5E5C72",
"5  c #43577F",
"6  c #645C6B",
"7  c #5C6476",
"8  c #6A656C",
"9  c #796C6B",
"0  c #746766",
"q  c #736D73",
"w  c #78747B",
"e  c #834C2D",
"r  c #814526",
"t  c #95552A",
"y  c #824D32",
"u  c #845136",
"i  c #8C5532",
"p  c #8F5934",
"a  c #865439",
"s  c #88573B",
"d  c #8C5A3C",
"f  c #905732",
"g  c #915934",
"h  c #925E39",
"j  c #95623C",
"k  c #98653E",
"l  c #99683F",
"z  c #8C5E42",
"x  c #855C44",
"c  c #8F6145",
"v  c #86614B",
"b  c #8A634B",
"n  c #926445",
"m  c #9D6D44",
"M  c #926649",
"N  c #946A4C",
"B  c #996D4B",
"V  c #966945",
"C  c #9F7047",
"Z  c #9D724C",
"A  c #846454",
"S  c #876C5E",
"D  c #966E51",
"F  c #986F51",
"G  c #847D5E",
"H  c #9C7354",
"J  c #9D7659",
"K  c #9F795A",
"L  c #A2744A",
"P  c #A5794E",
"I  c #A07047",
"U  c #A67C52",
"Y  c #A97F53",
"T  c #A17B5D",
"R  c #9F7B62",
"E  c #A37F61",
"W  c #2C875B",
"Q  c #399768",
"!  c #259666",
"~  c #489667",
"^  c #5A986B",
"/  c #788C67",
"(  c #6B976C",
")  c #7B966B",
"_  c #678C65",
"`  c #43BD77",
"'  c #49BC77",
"]  c #44BE78",
"[  c #5EB876",
"{  c #5BB876",
"}  c #65B776",
"|  c #6BB676",
" . c #7CB276",
".. c #70B576",
"X. c #6EA871",
"o. c #38C078",
"O. c #AA8257",
"+. c #AC8559",
"@. c #AF8A5D",
"#. c #A6825F",
"$. c #B18C5E",
"%. c #898966",
"&. c #9C8967",
"*. c #948B68",
"=. c #9B8A68",
"-. c #948A67",
";. c #99996D",
":. c #8D996C",
">. c #A68463",
",. c #A98666",
"<. c #A78867",
"1. c #AB8966",
"2. c #A28A68",
"3. c #AB8A68",
"4. c #A98768",
"5. c #B28F61",
"6. c #B08C69",
"7. c #AF906A",
"8. c #B59465",
"9. c #B89767",
"0. c #B3936A",
"q. c #B6996E",
"w. c #BA9B6C",
"e. c #BB9D71",
"r. c #B09E70",
"t. c #8EAF76",
"y. c #96AF76",
"u. c #9CAD75",
"i. c #99A471",
"p. c #84B176",
"a. c #8BB176",
"s. c #BFA16F",
"d. c #A4AC76",
"f. c #ADAB76",
"g. c #AEA574",
"h. c #BEA172",
"j. c #B4AA76",
"k. c #BCA976",
"l. c #B3A573",
"z. c #C19F72",
"x. c #C2A673",
"c. c #C4A976",
"v. c #C6AC79",
"b. c #C8AF7B",
"n. c #3D5C8E",
"m. c #375C93",
"M. c #395E95",
"N. c #385E99",
"B. c #3A639A",
"V. c #3C699E",
"C. c #3F6291",
"Z. c #3D6CA1",
"A. c #3F72A6",
"S. c #3E74AB",
"D. c #445984",
"F. c #485980",
"G. c #515E81",
"H. c #4B618A",
"J. c #596887",
"K. c #466898",
"L. c #506A94",
"P. c #506D9F",
"I. c #4C7098",
"U. c #52759C",
"Y. c #587497",
"T. c #6A778B",
"R. c #707A8D",
"E. c #677B95",
"W. c #657E9D",
"Q. c #687B96",
"!. c #456DA7",
"~. c #4073A7",
"^. c #4275A9",
"/. c #4579AE",
"(. c #4B7AAC",
"). c #587DA5",
"_. c #436EB0",
"`. c #457BB2",
"'. c #4E7FB1",
"]. c #527FB0",
"[. c #4C82B8",
"{. c #5484B5",
"}. c #5B84B2",
"|. c #5487BB",
" X c #5689BE",
".X c #5A8BBC",
"XX c #6E8CAF",
"oX c #4984C1",
"OX c #538ECB",
"+X c #528BC6",
"@X c #5A90C8",
"#X c #6B9CCD",
"$X c #6998C8",
"%X c #739ECA",
"&X c #73A0CE",
"*X c #74A3D2",
"=X c #79A5D2",
"-X c #7EA9D5",
";X c #80ABD6",
":X c #84AED9",
">X c None",
/* pixels */
">X>X>X>X>X>X>X>X>X>X>X>X>X>X>X>X>X>X>X>X>X>X>X>X>X>X>X>X>X>X>X>X>X>X>X>X>X>X>X>X>X>X>X>X>X>X>X>X>X>X>X>X>X>X>X>X>X>X",
">X>X>X>X>X>X>X>X>X>X>X>X>X>X>X>X>X>X>X>X>X>X>X>X>X>X>X>X>X>X>X>X>X>X>X>X>X>X>X>X>X>X>X>X>X>X>X>X>X>X>X>X>X>X>X>X>X>X",
">X>X>X>X>X>X>X>X>X>X>X>X>X>X>X>X>X>X>X>X>X>X>X>X>X>X>X>X>X>X>X>X>X>X>X>X>X>X>X>X>X>X>X>X>X>X>X>X>X>X>X>X>X>X>X>X>X>X",
">X>X>X>X>X>X>X>X>X>X>X>X>X>X>X>X>Xm j H >X>X>X>X>X>X>X>X>X>X>X>X>X>X>X>Xw.e.e.q.0.7.1.>X>X>X>X>X>X>X>X>X>X>X>X>X>X>X",
">X>X>X>X>X>X>X>X>X>X>X>X>X>X>Xx.w.L h Z >.>X>X>X>X>X>X>X>X>X>X>X>X>X>Xe.e.e.h.h.w.3.T n >X>X>X>X>X>X>X>X>X>X>X>X>X>X",
">X>X>X>X>X>X>X>X>X>X>X>X>Xx.c.c.w.P j H >.>.>X>X>X>X>X>X>X>X>X>X>X>X$.w.h.e.h.h.w.1.n y d >X>X>X>X>X>X>X>X>X>X>X>X>X",
">X>X>X>X>X>X>X>X>X>X>X>Xc.c.c.c.x.P j H >.>.4.>X>X>X>X>X>X>X>X>X>Xp m @.w.h.h.h.0.Z . X F 3.>X>X>X>X>X>X>X>X>X>X>X>X",
">X>X>X>X>X>X>X>X>X>X>Xj.j.j.k.c.z.L j Z >.>.>.>X>X>X>X>X>X>X>X>X>Xh p m @.w.h.9.O.p s V K >.>X>X>X>X>X>X>X>X>X>X>X>X",
">X>X>X>X>X>X>X>X>X>Xk.a.| | d.c.s.P h B >.>.>.>X>X>X>X>X>X>X>X>X>XI k f m @.8.O.V h B #.>.4.>X>X>X>X>X>X>X>X>X>X>X>X",
">X>X>X>X>X>X>X>X>X>Xl. .] ' p.k.h.O.j n >.4.>.>X>X>X>X>X>X>X>X>X>X9.Y k g l m j h Z +.3.3.>X>X>X>X>X>X>X>X>X>X>X>X>X",
">X>X>X>X>X>X>X>X>Xx.k. .' ] p.k.x.$.j n T >.>.>X>X>X>X>X>X>X>X>X>Xx.9.O.j f h f C 1.0.0.,.>X>X>X>X>X>X>X>X>X>X>X>X>X",
">X>X>X>X>X>X>X>X>Xc.c.a.} } y.k.c.9.i n >.>.>.>X>X>X>X>X>X>X>X>X>Xx.x.8.P j p h O.w.0.,.V u >X>X>X>X>X>X>X>X>X>X>X>X",
">X>X>X>X>X>X>X>X>Xv.x.j.f.f.j.c.c.s.j z T >.>.>X>X>X>X>X>X>X>X>X>Xz.x.x.8.m g k 8.w.0.Z y . >X>X>X>X>X>X>X>X>X>X>X>X",
">X>X>X>X>X>X>X>X>Xx.c.k.k.k.c.c.v.8.j a H >.>.>X>X>X>X>X>X>X>X>X>X9.x.c.s.Y h l @.0.#.p y . . >X>X>X>X>X>X>X>X>X>X>X",
">X>X>X>X>X>X>X>X>X>Xc.j.p.p.u.c.c.9.d @ F >.>.>X>X>X>X>X>X>X>X>X>XP 9.c.x.@.l j P Z d e e . . . a F >.>.,.T >X>X>X>X",
">X>X>X>X>X>X>X>X>X>Xx.u.{ '  .j.c.8.d e N >.>.>X>X>X>X>X>X>X>X>X>Xj $.x.c.8.m j k p i e y . . a N >.>.>.T V n >X>X>X",
">X>X>X>X>X>X>X>X>X>Xc.y.] o.} j.c.8.s O N >.>.>X>X>X>X>X>X>X>X>X>Xp P x.x.w.L h f i e e y . s F E 3.,.J z s T >X>X>X",
">X>X>X>X>X>X>X>X>X>Xc.f.] ] } j.h.8.s u N >.>.>X>X>X>X>X>X>XY h g f I c.x.$.l f f p p e y d J >.3.E F z y F >.3.>X>X",
">X>X>X>X>X>X>X>X>X>Xv.j.p...p.j.x.1.d O F >.<.3.>X>X>X>X>Xc.c.I f g j c.$.m h g p i i u d H 4.E T M s a n T 3.3.>X>X",
">X>X>X>X>X>X>X>X>X>Xc.k.j.j.j.c.x.0.d u F >.>.>.>X>X>Xc.c.c.x.5.k g k Y I h g f f p i e s n N M s y u n T >.>.4.>X>X",
">X>X>X>X>X>X>X>X>X>Xx.c.k.c.k.c.c.8.c y F >.>.1.w.c.x.c.c.c.c.9.m g g b b g f j j j h i O O y . e e u J >.3.3.3.3.>X",
">X>X>X>X>X>X>X>X>X>Xc.j.a.p.y.c.k.0.d . J 1.1.3.x.c.c.c.c.c.c.c.V t A }.}.z t P $.$.O.B z a y y . . a J >.3.4.4.3.>X",
">X>X>X>X>X>X>X>X>X>Xc.d.{ ' } f.c.8.c X N >.>.7.z.c.c.c.c.c.c.9.m S XX.X/.J.b +.s.w.e.0.>.T B N z y y N T 4.>.3.3.>X",
">X>X>X>X>X>X>X>X>X>X>Xd.{ ] { f.x.w.V y c >.3.q.x.c.c.c.c.c.x.+.M G &X.X(.J.b Y w.q.q.0.6.>.>.>.J z u y z J >.4.>.>X",
">X>X>X>X>X>X>X>X>X>X>Xj. .| p.j.c.x.@.Z Z 7.w.s.x.c.c.c.c.x.$.L h c R.(.I.8 a d U T >.>.3.3.3.>.4.E n y y d K >.>X>X",
">X>X>X>X>X>X>X>X>X>X>Xc.j.j.k.c.c.c.x.w.s.s.x.x.c.c.c.x.z.+.m j g g x 0 0 @ e X u d x b E >.4.4.4.4.T z O y D >X>X>X",
">X>X>X>X>X>X>X>X>X>X>Xx.c.c.c.c.c.c.c.c.k.c.x.c.b.x.x.8.P g g t g g f f f . X . . . >X>X>X>X>X>X>X>X>X>X>X>X>X>X>X>X",
">X>X>X>X>X>X>X>X>X>X>Xc.c.c.c.c.c.c.v.x.c.s.s.5.+.Y C k j g g g f h I U Z c d a O O >X>X>X>X>X>X>X>X>X>X>X>X>X>X>X>X",
">X>X>X>X>X>X>X>X>X>X>Xx.c.c.c.c.c.x.x.s.8.O.C j h j p p f f f p h P 9.0.3.>.E T J D >X>X>X>X>X>X>X>X>X>X>X>X>X>X>X>X",
">X>X>X>X>X>X>X>X>X>X>Xx.x.z.w.8.$.+.P L V d < < : < < s i f f p I 9.s.0.>.>.4.>.>.>X>X>X>X>X>X>X>X>X>X>X>X>X>X>X>X>X",
">X>X>X>X>X>X>X>X>X>X>X8.8.P m l j h h b 0 w XXI.Y.I.L.8 @ y i h +.x.h.3.3.4.4.<.>.>X>X>X>X>X>X>X>X>X>X>X>X>X>X>X>X>X",
">X>X>X>X>X>X>X>X>X>X>Xm k f g g g g x T.XX&XXX[.A.V.B.B.3 O X j 8.v.x.3.3.>.3.3.>X>X>X>X>X>X>X>X>X>X>X>X>X>X>X>X>X>X",
">X>X>X>X>X>X>X>X>X>X>Xf f g g g g g q OX*X;X:X&X/.B.n.m.D.- y B x.c.x.3.>.4.4.>X>X>X>X>X>X>X>X>X>X>X>X>X>X>X>X>X>X>X",
">X>X>X>X>X>X>X>X>X>X>Xf g g g g g d 9 }.&X-X-X=X{.V.m.m.D.* y F w.x.e.3.4.4.4.>X>X>X>X>X>X>X>X>X>X>X>X>X>X>X>X>X>X>X",
">X>X>X>X>X>X>X>X>X>X>Xp i g g g p g v Q.$X-X-X=X{.V.m.m.D.* y F q.x.e.3.4.4.4.>X>X>X>X>X>X>X>X>X>X>X>X>X>X>X>X>X>X>X",
">X>X>X>X>X>X>X>X>X>X>Xf g p g p p p d 1 R.XX*X#X[.V.m.m.D.- y T e.v.c.6.4.4.3.4.>X>X>X>X>X>X>X>X>X>X>X>X>X>X>X>X>X>X",
">X>X>X>X>X>X>X>X>X>X>Xp p z A 0 q 9 8 8 2 9 XX+X`.V.M.m.M.+ y E e.c.c.6.4.4.4.E R R >.3.1.3.>X>X>X>X>X>X>X>X>X>X>X>X",
">X>X>X>X>X>X>X>X>X>Xf g z W.).`.`./.S.S.7 @ , U.oXV.m.m.F.. M 3.q.v.9.w.>.>.4.E R >.<.>.>.4.4.>.>.4.>.>.>X>X>X>X>X>X",
">X>X>X>X>X>X>X>X>Xf p 1 W.[.A.A.~.~.A.A.C.3 O * J.!.M.B.4 . N 3.e.x.m V V z c x J K 3.3.>.>.>.3.<.>.>.>.>.>.>X>X>X>X",
">X>X>X>X>X>X>X>X>Xf v Q.@X X(.~.A.A.A.B.N.n.3 O > P._.!.; u E 6.x.x.g i i y o o O O N F T >.>.3.3.3.>.>.3.>.>.>X>X>X",
">X>X>X>X>X>X>X>Xg g q $X-X-X&X^.S.^.A.B.m.B.H.+ O 6 J.; r s >.q.c.b.9.U I m d y e o . o . y z z M J J K E E E E >X>X",
">X>X>X>X>X>X>X>Xg t R.=X-X-X-X+X`.~.~.B.m.m.L.+ r y y r . N e.x.c.c.v.x.x.x.0.0.H M n u u . . . o y u s z z M M >X>X",
">X>X>X>X>X>X>Xg g 1 OX-X;X-X-X@X+X/.^.V.m.n.4 . . . i p e O.v.c.c.c.c.c.x.e.e.e.0.3.3.>.E K J M y y u a u u s d >X>X",
">X>X>X>X>X>X>Xp p w $X;X-X-X=X@XoX/.A.V.m.B.> . . . i f f 5.c.c.c.c.c.x.z.z.e.e.6.1.3.3.3.3.3.E T T J J J F J >X>X>X",
">X>X>X>X>X>X>Xp v E.$X=X-X;X*X X`.A.Z.B.m.D.* . . . i g j $.c.c.c.c.x.l.i.) X.:.2.*.G G %.2.4.4.4.2.<.4.3.1.>X>X>X>X",
">X>X>X>X>X>X>Xg b {.OX=X;X;X&X/.A.A.Z.N.N.K.- . . . i g g w.c.c.c.c.x.l.} $ % ^ =.^ #   Q =.=./ / ( =.4.3.3.>X>X>X>X",
">X>X>X>X>X>X>Xf t q OX=X;X-X|.^.A.A.N.m.m.; r . e e g g g 9.v.c.c.c.z.g. .~ W ( =.~ % # Q 2.) ! % Q *.3.7.q.>X>X>X>X",
">X>X>X>X>X>Xp f p 9 {. X.X{.^.~.A.Z.N.D.= . . o . y i i j $.x.x.x.h.h.e.r.;.;.*.2.*.%.%.%.=.%.& % ~ *.3.0.>X>X>X>X>X",
">X>X>X>X>X>Xp f f b E.[.(.~.~.^.~.I.G.= . . >X>X>X>X>X>X>X>X>X>X>X>Xe.e.q.0.3.<.3.>.1.<.<.3.-./ _ / =.3.>X>X>X>X>X>X",
">X>X>X>X>X>X>Xf g g f W.{.U.Y.U.Y.A x e . >X>X>X>X>X>X>X>X>X>X>X>X>X>X>X>X>X>X>X>X>X>X>X3.3.3.3.3.>.>.>X>X>X>X>X>X>X",
">X>X>X>X>X>X>X>Xg g g g A v v z f g t p >X>X>X>X>X>X>X>X>X>X>X>X>X>X>X>X>X>X>X>X>X>X>X>X>X>X>X>X>X>X>X>X>X>X>X>X>X>X",
">X>X>X>X>X>X>X>X>Xg f f g f g f f f >X>X>X>X>X>X>X>X>X>X>X>X>X>X>X>X>X>X>X>X>X>X>X>X>X>X>X>X>X>X>X>X>X>X>X>X>X>X>X>X",
">X>X>X>X>X>X>X>X>X>Xp f f >X>X>X>X>X>X>X>X>X>X>X>X>X>X>X>X>X>X>X>X>X>X>X>X>X>X>X>X>X>X>X>X>X>X>X>X>X>X>X>X>X>X>X>X>X",
">X>X>X>X>X>X>X>X>X>X>X>X>X>X>X>X>X>X>X>X>X>X>X>X>X>X>X>X>X>X>X>X>X>X>X>X>X>X>X>X>X>X>X>X>X>X>X>X>X>X>X>X>X>X>X>X>X>X",
">X>X>X>X>X>X>X>X>X>X>X>X>X>X>X>X>X>X>X>X>X>X>X>X>X>X>X>X>X>X>X>X>X>X>X>X>X>X>X>X>X>X>X>X>X>X>X>X>X>X>X>X>X>X>X>X>X>X",
">X>X>X>X>X>X>X>X>X>X>X>X>X>X>X>X>X>X>X>X>X>X>X>X>X>X>X>X>X>X>X>X>X>X>X>X>X>X>X>X>X>X>X>X>X>X>X>X>X>X>X>X>X>X>X>X>X>X",
">X>X>X>X>X>X>X>X>X>X>X>X>X>X>X>X>X>X>X>X>X>X>X>X>X>X>X>X>X>X>X>X>X>X>X>X>X>X>X>X>X>X>X>X>X>X>X>X>X>X>X>X>X>X>X>X>X>X",
">X>X>X>X>X>X>X>X>X>X>X>X>X>X>X>X>X>X>X>X>X>X>X>X>X>X>X>X>X>X>X>X>X>X>X>X>X>X>X>X>X>X>X>X>X>X>X>X>X>X>X>X>X>X>X>X>X>X",
">X>X>X>X>X>X>X>X>X>X>X>X>X>X>X>X>X>X>X>X>X>X>X>X>X>X>X>X>X>X>X>X>X>X>X>X>X>X>X>X>X>X>X>X>X>X>X>X>X>X>X>X>X>X>X>X>X>X"
};
