/* XPM */
static char *_1[] = {
/* columns rows colors chars-per-pixel */
"58 59 197 2 ",
"   c #16462F",
".  c #164D35",
"X  c #7D462C",
"o  c #7E482E",
"O  c #7E4225",
"+  c #7C4A33",
"@  c #764B3C",
"#  c #7C513E",
"$  c #146443",
"%  c #2B6546",
"&  c #6E4C45",
"*  c #6F504B",
"=  c #74534C",
"-  c #66535A",
";  c #744C41",
":  c #4A6247",
">  c #7A645C",
",  c #7A6155",
"<  c #59586C",
"1  c #545B79",
"2  c #655763",
"3  c #5F647E",
"4  c #796C6A",
"5  c #7E6A65",
"6  c #646A7D",
"7  c #6B6B75",
"8  c #767278",
"9  c #83421E",
"0  c #804525",
"q  c #804629",
"w  c #824B2E",
"e  c #874A27",
"r  c #8C502C",
"t  c #94562C",
"y  c #95582E",
"u  c #834D32",
"i  c #855135",
"p  c #8D5532",
"a  c #8F5935",
"s  c #865439",
"d  c #88563A",
"f  c #8B5A3D",
"g  c #905732",
"h  c #915934",
"j  c #925D39",
"k  c #995F35",
"l  c #96613C",
"z  c #99653E",
"x  c #8B5E42",
"c  c #855E48",
"v  c #8F6245",
"b  c #87614C",
"n  c #926445",
"m  c #9D6C44",
"M  c #966B4D",
"N  c #9A6E4C",
"B  c #926549",
"V  c #9E724D",
"C  c #9F7047",
"Z  c #836454",
"A  c #81675B",
"S  c #876C5E",
"D  c #986E50",
"F  c #966D51",
"G  c #9B7355",
"H  c #9D7659",
"J  c #9F795B",
"K  c #A07147",
"L  c #A17249",
"P  c #A67B4F",
"I  c #A47B53",
"U  c #A97E52",
"Y  c #A27C5D",
"T  c #826F68",
"R  c #9F7B62",
"E  c #A27E62",
"W  c #3A905F",
"Q  c #359B68",
"!  c #269163",
"~  c #3BA170",
"^  c #3EBF78",
"/  c #6C815E",
"(  c #469468",
")  c #559368",
"_  c #74946B",
"`  c #6B8E66",
"'  c #47BE77",
"]  c #43BE78",
"[  c #4BBC77",
"{  c #54BB77",
"}  c #53A772",
"|  c #77AE75",
" . c #63B977",
".. c #69B777",
"X. c #75B677",
"o. c #7BB477",
"O. c #3BC078",
"+. c #36C078",
"@. c #AB8256",
"#. c #AC855A",
"$. c #AE885B",
"%. c #B18C5E",
"&. c #8A8E69",
"*. c #948D69",
"=. c #9D8A68",
"-. c #86956D",
";. c #A68464",
":. c #A98766",
">. c #AA8966",
",. c #AA8768",
"<. c #A38968",
"1. c #AB8A69",
"2. c #B38F62",
"3. c #B18768",
"4. c #B18C6A",
"5. c #B49264",
"6. c #B89667",
"7. c #B3946D",
"8. c #B7996F",
"9. c #BB9B6C",
"0. c #B79870",
"q. c #BB9D71",
"w. c #A0966C",
"e. c #9AA874",
"r. c #8BB177",
"t. c #83B377",
"y. c #92B176",
"u. c #8BAB75",
"i. c #BFA16F",
"p. c #A3AD76",
"a. c #ACAC76",
"s. c #A8A473",
"d. c #BEA273",
"f. c #B4AB76",
"g. c #BBAA76",
"h. c #B5A473",
"j. c #C1A574",
"k. c #C4A976",
"l. c #CAA876",
"z. c #C6AC79",
"x. c #CEA775",
"c. c #C8B07C",
"v. c #365B93",
"b. c #395E95",
"n. c #345E99",
"m. c #3F5988",
"M. c #3B649B",
"N. c #3B669B",
"B. c #3C6DA3",
"V. c #3863A2",
"C. c #3F72A6",
"Z. c #3D73AB",
"A. c #3A77B4",
"S. c #465C87",
"D. c #586587",
"F. c #40659D",
"G. c #516997",
"H. c #577396",
"J. c #606F86",
"K. c #63748C",
"L. c #69778E",
"P. c #6C788C",
"I. c #667892",
"U. c #757A87",
"Y. c #456BA8",
"T. c #4073A7",
"R. c #4275AA",
"E. c #4579AE",
"W. c #4C7BAC",
"Q. c #587CA5",
"!. c #457AB2",
"~. c #4C7EB1",
"^. c #4A78B6",
"/. c #4881BB",
"(. c #5A89BA",
"). c #5884B3",
"_. c #688EB8",
"`. c #4A8ACA",
"'. c #528AC5",
"]. c #528ECC",
"[. c #588CC2",
"{. c #4C8FD2",
"}. c #5C98D4",
"|. c #5D93CA",
" X c #6D9BCA",
".X c #6595C6",
"XX c #729FCB",
"oX c #689CD0",
"OX c #6EA1D5",
"+X c #75A4D2",
"@X c #7BA7D2",
"#X c #7DA9D5",
"$X c #77A9DA",
"%X c #75A2CE",
"&X c #81ABD6",
"*X c #82ADD9",
"=X c None",
/* pixels */
"=X=X=X=X=X=X=X=X=X=X=X=X=X=X=X=X=X=X=X=X=X=X=X=X=X=X=X=X=X=X=X=X=X=X=X=X=X=X=X=X=X=X=X=X=X=X=X=X=X=X=X=X=X=X=X=X=X=X",
"=X=X=X=X=X=X=X=X=X=X=X=X=X=X=X=X=X=X=X=X=X=X=Xk.k.k.k.9.m j =X=X=X=X=X=X=X=X=X=X=X=X=X=X=X=X=X=X=X=X=X=X=X=X=X=X=X=X",
"=X=X=X=X=X=X=X=X=X=X=X=X=X=X=X=X=X=X=X=Xx.k.k.k.k.k.k.2.j f ;.=X=X=X=X=X=X=X=X=X=X=X=X=X=X=X=X=X=X=X=X=X=X=X=X=X=X=X",
"=X=X=X=X=X=X=X=X=X=X=X=X=X=X=X=X=X=X=Xk.f.X.f.k.k.k.z.U g G ;.:.=X=X=X=X=X=X=X=X=X=X=X=X=X=X=X=X=X=X=X=X=X=X=X=X=X=X",
"=X=X=X=X=X=X=X=X=X=X=X=X=X=X=X=X=X=Xk.k.r.' ' y.k.k.9.z l Y ;.:.=X=X=X=X=X=X=X=X=X=X=X=X=X=X=X=X=X=X=X=X=X=X=X=X=X=X",
"=X=X=X=X=X=X=X=X=X=X=X=X=X=X=X=X=X=Xk.g. .O.^ t.l.k.@.g m ;.;.:.=X=X=X=X=X=X=X=X=X=X=X=X=X=X=X=X=X=X=X=X=X=X=X=X=X=X",
"=X=X=X=X=X=X=X=X=X=X=X=X=X=X=X=X=X=Xk.a.[ O.] a.k.k.L g G :.;.:.=X=X=X=X=X=X=X=X=X=X=X=X=X=X=X=X=X=X=X=X=X=X=X=X=X=X",
"=X=X=X=X=X=X=X=X=X=X=X=X=X=X=X=X=Xk.k.l.p.o.y.k.k.i.C p G :.;.:.=X=X=X=X=X=X=X=X=X=X=X=X=X=X=X=X=X=X=X=X=X=X=X=X=X=X",
"=X=X=X=X=X=X=X=X=X=X=X=X=X=X=X=X=Xk.k.k.l.g.k.k.k.6.a x ;.;.;.>.=X=X=X=X=X=X=X=X=X=X=X=X=Xq.0.7.=X=X=X=X=X=X=X=X=X=X",
"=X=X=X=X=X=X=X=X=X=X=X=X=X=X=X=X=Xk.g.X.f.k.k.k.z.@.p D ;.;.;.=X=X=X=X=X=X=X=X=X=X=X=X6.d.q.d.d.q.7.=X=X=X=X=X=X=X=X",
"=X=X=X=X=X=X=X=X=X=X=X=X=X=X=X=Xk.l.r.] ' y.l.k.j.m o Y :.;.>.=X=X=X=X=X=X=X=X=X=X=Xg %.k.d.d.d.d.0.1.=X=X=X=X=X=X=X",
"=X=X=X=X=X=X=X=X=X=X=X=X=X=X=X=Xl.f.{ +.' a.k.k.5.i X Y :.>.=X=X=X=X=X=X=X=X=X=X=Xl p K 8.d.d.d.d.q.1.5.=X=X=X=X=X=X",
"=X=X=X=X=X=X=X=X=X=X=X=X=X=X=X=Xk.a.] O.[ g.k.k.V X d ;.;.:.=X=X=X=X=X=X=X=X=X=X=X@.g j %.j.j.d.d.8.J f i =X=X=X=X=X",
"=X=X=X=X=X=X=X=X=X=X=X=X=X=X=Xk.k.f.X.{ o.l.k.6.i X B ;.:.=X=X=X=X=X=X=X=X=X=X=Xz.6.z t I 9.k.q.$.l O X d =X=X=X=X=X",
"=X=X=X=X=X=X=X=X=X=X=X=X=X=X=Xk.k.k.g.a.a.k.j.G X i Y :.:.=X=X=X=X=X=X=X=X=X=X=Xk.j.P p l #.@.L f w i c H =X=X=X=X=X",
"=X=X=X=X=X=X=X=X=X=X=X=X=X=X=Xl.k.k.k.k.l.k.8.x X x ;.;.:.=X=X=X=X=X=X=X=X=X=X=Xk.k.$.h a a a a j N I #.:.=X=X=X=X=X",
"=X=X=X=X=X=X=X=X=X=X=X=X=X=X=Xg. . .r.k.k.k.4.u X G <.;.;.=X=X=X=X=X=X=X=X=X=X9.k.z.5.m h h j I $.1.7.1.1.=X=X=X=X=X",
"=X=X=X=X=X=X=X=X=X=X=X=X=X=Xk.p.] O.' k.k.k.M X x ;.,.,.=X=X=X=X=X=X=X=X=X=X=X@.c.k.j.L h a I 9.q.0.1.1.=X=X=X=X=X=X",
"=X=X=X=X=X=X=X=X=X=X=X=X=X=Xk.r.' O.o.l.k.7.d o G >.,.,.=X=X=X=X=X=X=X=X=X=Xh @.k.k.j.l p L 9.k.0.1.Y =X=X=X=X=X=X=X",
"=X=X=X=X=X=X=X=X=X=X=X=X=X=Xl.a.y...e.k.g.#.o + J >.,.>.=X=X=X=X=Xz.k.m =Xh g 5.k.z.6.z h @.d.h.>.N s w =X=X=X=X=X=X",
"=X=X=X=X=X=X=X=X=X=X=X=X=Xk.l.k.z.k.l.k.k.V O d ;.:.:.7.z.k.k.k.k.k.z.@.p t l 6.k.k.6.l l P @.V p q o o =X=X=X=X=X=X",
"=X=X=X=X=X=X=X=X=X=X=X=X=Xk.z.k.k.k.k.k.z.5.n f >.:.7.d.k.k.k.k.k.k.k.%.p h l j.z.k.@.l h j r r w w o o =X=X=X=X=X=X",
"=X=X=X=X=X=X=X=X=X=X=X=X=Xk.k.k.k.k.k.k.k.k.q.0.0.0.d.k.k.k.k.k.k.k.z.@.l g @.i.#.K l h h p p u u X o X q =X=X=X=X=X",
"=X=X=X=X=X=X=X=X=X=X=X=X=Xz.c.k.z.k.k.k.k.k.k.k.k.k.k.k.k.k.k.k.k.k.i.z g t j C l h t g p p p i w + X O u B =X=X=X=X",
"=X=X=X=X=X=X=X=X=X=X=X=X@.6.@.6.i.j.k.c.k.k.z.k.k.k.k.k.k.k.k.k.z.z.%.y t 5 K.x t h g h p p r i X X x M H E 1.1.4.=X",
"=X=X=X=X=X=X=X=X=X=X=X=Xj g g j h z @.%.i.i.5.i.9.k.k.z.k.k.z.k.i.@.h T %X}./.I.t t l p p p d f M :.1.:.:.1.1.:.E Y ",
"=X=X=X=X=X=X=X=X=X=X=Xg g h g h g g h t l t y l z C I $.%.6.@.C L l t S $X XC.~.a C $.I l i r x H 4.>.1.>.;.G D x x ",
"=X=X=X=X=X=X=X=X=X=X=Xj h h h h h t y Z 7 Z 5 b a t g g j g p g g g g t W.C.A.J.B %.c.d.5.l w o u x D D v v u q x H ",
"=X=X=X=X=X=X=X=X=X=Xj h h h h h a f P.].OX%X|.T.J.> b g g h h h h h h t > H.3 f j 5.k.d.d.4.B u X X o X w + x D E :.",
"=X=X=X=X=X=X=X=X=X=Xg g g h h h h v H.}.#X*X@XC.Z.Z.H.c t g h h h p g l h p r w q I 4.7.0.0.;.G i o X o u D Y ;.1.1.",
"=X=X=X=X=X=X=X=Xh h h h b h h y h f ).+X*X*X#X).C.N.V.1 e p p g h L 5.%.P f X X X # M R 4.1.,.1.E s X q v 1.,.,.1.,.",
"=X=X=X=X=X=Xg h g Z P.(.).H.I.A h t L. X#X#X#X).M.v.v.Y.+ w p z %.j.g.i.4.J x O X X + i R ,.,.,.1.Y s u M :.1.,.,.>.",
"=X=X=X=X=Xh h x I.].].!.B.Z.!.~.H.6 , U.$X&X@X~.b.v.v.S.; q p $.k.k.0.:.:.:.1.F s X =X=X=X=X1.1.>.1.B o x Y 1.>.1.1.",
"=X=X=X=Xg g t 8  X#XXX(.B.C.Z.C.Z.C., Z _.oX/.B.b.v.v.1 0 + I k.k.d.1.:.,.:.1.:.E F =X=X=X=X=X1.1.1.H d o x :.1.:.1.",
"=X=X=Xh a x I.}.#X&X#X%XT.T.T.T.B.B.< # 6 `.!.B.v.v.b.& q x 7.k.k.0.>.>.>.:.:.:.E =X=X=X=X=X=X=X=X4.:.x X u Y >.1.=X",
"=X=X=Xh t 4  X&X&X&X&XXXE.T.T.C.M.v.S.X @ ^.R.M.v.v.S.X u G 0.k.k.1.:.:.:.1.1.=X=X=X=X=X=X=X=X=X=X=X=X=Xo d H 1.=X=X",
"=X=Xh h 4 '.OX#X#X*X#X.X'.!.R.C.v.v.V.* 0 1 R.v.v.n.< O v 1.k.k.q.>.:.:.1.>.=X=X=X=X=X=X=X=X=X=X=X=X=X=X=X=X=X=X=X=X",
"=X=Xh t 4 {. X&X*X#X+X].].E.T.N.b.v.F.2 q 2 ^.F.M.2 q x ;.0.k.k.0.:.:.,.=X=X=X=X=X=X=X=X=X=X=X=X=X=X=X=X=X=X=X=X=X=X",
"=Xh h h 4 ].+X&X*X@X[./.!.T.Z.N.b.n.G.@ q 2 G.Y.D.@ u Y ,.q.c.k.1.:.:.1.=X=X=X=X=X=X=X=X=X=X=X=X=X=X=X=X=X=X=X=X=X=X",
"=Xh h y P.`..X@X@X.XW.T.T.C.C.M.b.S.* X q u = @ O w H 1.0.k.5.5.7.>.:.,.:.=X=X=X=X=X=X=X=X=X=X=X=X=X=X=X=X=X=X=X=X=X",
"=Xh h t A `.R.~.R.R.T.T.C.N.M.v.n.- + o X w p w + D :.7.j.j.C j I E >.;.E R ;.=X=X=X=X=X=X=X=X=X=X=X=X=X=X=X=X=X=X=X",
"=X=Xh h g ).E.C.T.T.Z.C.N.v.n.M.D.O X X X p h r j 5.q.j.k.k.h g p s F E R R ;.1.=X=X=X=X=X=X=X=X=X=X=X=X=X=X=X=X=X=X",
"=X=Xh h y A L.Q.A.Z.Z.C.n.n.m.- + O X X w g h p 6.z.k.k.k.c.2.C a O X + H ;.;.:.:.>.=X=X=X=X=X=X=X=X=X=X=X=X=X=X=X=X",
"=X=X=Xh h h h b A K.7 J.1 & O O o X X X i g h P k.k.k.k.k.k.k.i.2.f + X + D :.:.:.:.:.=X=X=X=X=X=X=X=X=X=X=X=X=X=X=X",
"=X=X=X=Xh h h h h h g a e O o o =XX w p h g h 5.k.k.k.k.k.k.k.j.d.4.V i O i M ;.:.:.;.:.:.=X=X=X=X=X=X=X=X=X=X=X=X=X",
"=X=X=X=X=X=X=X=X=Xh h h p =X=X=X=X=X=Xa h p m k.k.k.k.k.k.j.j.i.d.q.9.H d + X d H :.:.:.:.:.:.=X=X=X=X=X=X=X=X=X=X=X",
"=X=X=X=X=X=X=X=X=X=X=X=X=X=X=X=X=X=X=X=X=Xg 2.k.k.k.k.k.j.s.p.w.q.0.5.1.;.B u X u B <.;.:.:.:.=X=X=X=X=X=X=X=X=X=X=X",
"=X=X=X=X=X=X=X=X=X=X=X=X=X=X=X=X=X=X=X=X=X=X=X=Xk.k.d.d.9.t.Q Q X.w.1.,.:.:.H f + X d H ;.>.:.:.:.=X=X=X=X=X=X=X=X=X",
"=X=X=X=X=X=X=X=X=X=X=X=X=X=X=X=X=X=X=X=X=X=X=X=X=Xd.d.j.h.u.W   } *.&.>.>.>.>.;.D s X u x E ;.;.,.=X=X=X=X=X=X=X=X=X",
"=X=X=X=X=X=X=X=X=X=X=X=X=X=X=X=X=X=X=X=X=X=X=X=X=X=X=Xq.q.q.e.} _ =.) % : -.>.>.:.G i X X i D E 1.,.=X=X=X=X=X=X=X=X",
"=X=X=X=X=X=X=X=X=X=X=X=X=X=X=X=X=X=X=X=X=X=X=X=X=X=X=X=X=X8.4.,.=.&.( $ . ( <.>.1.:.Y D x u o x F :.=X=X=X=X=X=X=X=X",
"=X=X=X=X=X=X=X=X=X=X=X=X=X=X=X=X=X=X=X=X=X=X=X=X=X=X=X=X=X=X=X1.:.:.<.4 ( _ =.&.&.3.1.1.;.D x w s =X=X=X=X=X=X=X=X=X",
"=X=X=X=X=X=X=X=X=X=X=X=X=X=X=X=X=X=X=X=X=X=X=X=X=X=X=X=X=X=X=X=X=X1.1.1.=.<.*.Q ! ( =.1.1.1.;.;.=X=X=X=X=X=X=X=X=X=X",
"=X=X=X=X=X=X=X=X=X=X=X=X=X=X=X=X=X=X=X=X=X=X=X=X=X=X=X=X=X=X=X=X=X=X=X1.1.1._   $ Q &.1.>.1.5.=X=X=X=X=X=X=X=X=X=X=X",
"=X=X=X=X=X=X=X=X=X=X=X=X=X=X=X=X=X=X=X=X=X=X=X=X=X=X=X=X=X=X=X=X=X=X=X=X1.1.*.` ~ ) :.1.7.0.=X=X=X=X=X=X=X=X=X=X=X=X",
"=X=X=X=X=X=X=X=X=X=X=X=X=X=X=X=X=X=X=X=X=X=X=X=X=X=X=X=X=X=X=X=X=X=X=X=X=X=X1.,.=.*.1.7.=X=X=X=X=X=X=X=X=X=X=X=X=X=X",
"=X=X=X=X=X=X=X=X=X=X=X=X=X=X=X=X=X=X=X=X=X=X=X=X=X=X=X=X=X=X=X=X=X=X=X=X=X=X=X=X1.3.=X=X=X=X=X=X=X=X=X=X=X=X=X=X=X=X",
"=X=X=X=X=X=X=X=X=X=X=X=X=X=X=X=X=X=X=X=X=X=X=X=X=X=X=X=X=X=X=X=X=X=X=X=X=X=X=X=X=X=X=X=X=X=X=X=X=X=X=X=X=X=X=X=X=X=X",
"=X=X=X=X=X=X=X=X=X=X=X=X=X=X=X=X=X=X=X=X=X=X=X=X=X=X=X=X=X=X=X=X=X=X=X=X=X=X=X=X=X=X=X=X=X=X=X=X=X=X=X=X=X=X=X=X=X=X"
};
