/* XPM */
static char *_2[] = {
/* columns rows colors chars-per-pixel */
"58 59 205 2 ",
"   c #064E34",
".  c #7E4326",
"X  c #7D452C",
"o  c #7F482E",
"O  c #7F4A31",
"+  c #744A3C",
"@  c #794B39",
"#  c #16704C",
"$  c #357552",
"%  c #31734E",
"&  c #6F4F4B",
"*  c #754E42",
"=  c #6F514F",
"-  c #775951",
";  c #74544B",
":  c #437352",
">  c #7E604F",
",  c #7B655C",
"<  c #7E6356",
"1  c #5A5263",
"2  c #5C586A",
"3  c #4E597B",
"4  c #575A75",
"5  c #635866",
"6  c #59667C",
"7  c #766B6C",
"8  c #7A6C6B",
"9  c #756665",
"0  c #666877",
"q  c #736D73",
"w  c #716E78",
"e  c #6F717D",
"r  c #73727C",
"t  c #68606C",
"y  c #83421E",
"u  c #814526",
"i  c #834B2D",
"p  c #8A4D2A",
"a  c #80472C",
"s  c #8E532E",
"d  c #94552C",
"f  c #95562B",
"g  c #824D32",
"h  c #855136",
"j  c #8D5432",
"k  c #87553A",
"l  c #88563B",
"z  c #8C5A3D",
"x  c #8F5835",
"c  c #905732",
"v  c #915934",
"b  c #935E39",
"n  c #96623C",
"m  c #99653D",
"M  c #9C663A",
"N  c #8C5D42",
"B  c #875E45",
"V  c #8F6144",
"C  c #89644D",
"Z  c #936444",
"A  c #9C6B43",
"S  c #936649",
"D  c #956A4C",
"F  c #9A6E4C",
"G  c #966846",
"H  c #9D714B",
"J  c #9F7046",
"K  c #836454",
"L  c #836658",
"P  c #976E51",
"I  c #986E51",
"U  c #9C7355",
"Y  c #9D7658",
"T  c #9F795C",
"R  c #89775A",
"E  c #A2744A",
"W  c #A2754B",
"Q  c #A67C54",
"!  c #A97E52",
"~  c #A27C5D",
"^  c #A27750",
"/  c #9E7A61",
"(  c #A17D62",
")  c #268255",
"_  c #38835B",
"`  c #309667",
"'  c #3CBF78",
"]  c #468257",
"[  c #48986B",
"{  c #559368",
"}  c #69976C",
"|  c #7C926B",
" . c #7E8361",
".. c #48BD77",
"X. c #57BB77",
"o. c #7FA36F",
"O. c #66A671",
"+. c #65B877",
"@. c #6EB677",
"#. c #7CB377",
"$. c #72B677",
"%. c #7DAA74",
"&. c #35C178",
"*. c #39C078",
"=. c #AC8356",
"-. c #AC8459",
";. c #AE895E",
":. c #B28C5E",
">. c #8D8D69",
",. c #9E8B69",
"<. c #948C69",
"1. c #8C916C",
"2. c #86956C",
"3. c #A68363",
"4. c #A88666",
"5. c #AA8967",
"6. c #AA8768",
"7. c #A48A69",
"8. c #AB8A69",
"9. c #B18E62",
"0. c #B18A69",
"q. c #B08768",
"w. c #B59264",
"e. c #B89666",
"r. c #B3936C",
"t. c #B6986E",
"y. c #BB9C6C",
"u. c #B99867",
"i. c #B59A70",
"p. c #BB9D71",
"a. c #B09170",
"s. c #9CAF76",
"d. c #97AF76",
"f. c #83B377",
"g. c #8FB177",
"h. c #92B076",
"j. c #9AB077",
"k. c #8FAB74",
"l. c #BEA06F",
"z. c #A4AE76",
"x. c #ACAC76",
"c. c #A1A473",
"v. c #BDA273",
"b. c #B5AB76",
"n. c #BBAA76",
"m. c #B1A674",
"M. c #C1A574",
"N. c #C4A976",
"B. c #CAA876",
"V. c #C6AC79",
"C. c #C8AF7B",
"Z. c #365B93",
"A. c #385F95",
"S. c #335D99",
"D. c #396197",
"F. c #3A639B",
"G. c #39669E",
"H. c #3D6CA3",
"J. c #3A66A5",
"K. c #3E71A5",
"L. c #3C73AC",
"P. c #3A77B4",
"I. c #405F91",
"U. c #495D88",
"Y. c #57668D",
"T. c #4F6490",
"R. c #537398",
"E. c #4E719A",
"W. c #626F87",
"Q. c #6B768B",
"!. c #797882",
"~. c #687B96",
"^. c #4073A7",
"/. c #4174A9",
"(. c #497AAC",
"). c #4C76A3",
"_. c #457BB3",
"`. c #497DB5",
"'. c #4A72A8",
"]. c #817D83",
"[. c #72849D",
"{. c #4B83BC",
"}. c #4A80B7",
"|. c #5182B3",
" X c #5D8CBC",
".X c #5385B8",
"XX c #728EAE",
"oX c #608FBE",
"OX c #6692BF",
"+X c #7392B3",
"@X c #4986C4",
"#X c #578DC3",
"$X c #5B92CA",
"%X c #5392D1",
"&X c #6798CA",
"*X c #629BD4",
"=X c #6B9FD3",
"-X c #75A3D1",
";X c #7FAAD6",
":X c #7CABDB",
">X c #72A3D4",
",X c #76AFE5",
"<X c #81ACD6",
"1X c #83AED9",
"2X c None",
/* pixels */
"2X2X2X2X2X2X2X2X2X2X2X2X2X2X2X2X2X2X2X2X2X2X2X2X2X2X2X2X2X2X2X2X2X2X2X2X2X2X2X2X2X2X2X2X2X2X2X2X2X2X2X2X2X2X2X2X2X2X",
"2X2X2X2X2X2X2X2X2X2X2X2X2X2X2X2X2X2X2X2X2X2X2X2X2X2X2X2X2X2X2X2X2X2X2X2X2X2X2X2X2X2X2X2X2X2X2X2X2X2X2X2X2X2X2X2X2X2X",
"2X2X2X2X2X2X2X2X2X2X2X2X2X2X2X2X2X2X2X2X2X2X2X2X2X2X2X2X2XN.N.z.x.B.N.N.N.2X2X2X2X2X2X2X2X2X2X2X2X2X2X2X2X2X2X2X2X2X",
"2X2X2X2X2X2X2X2X2X2X2X2X2X2X2X2X2X2X2X2X2X2X2X2X2X2X2X2XN.N.s.X.+.x.B.N.N.N.e.A 2X2X2X2X2X2X2X2X2X2X2X2X2X2X2X2X2X2X",
"2X2X2X2X2X2X2X2X2X2X2X2X2X2X2X2X2X2X2X2X2X2X2X2X2X2X2XN.N.s.X.*.&.f.N.N.C.y.E z G 2X2X2X2X2X2X2X2X2X2X2X2X2X2X2X2X2X",
"2X2X2X2X2X2X2X2X2X2X2X2X2X2X2X2X2X2X2X2X2X2X2X2X2X2XN.N.B.h...&.X.s.N.N.y.E v n T 2X2X2X2X2X2X2X2X2X2X2X2X2X2X2X2X2X",
"2X2X2X2X2X2X2X2X2X2X2X2X2X2X2X2X2X2X2X2X2X2X2X2X2X2XN.B.B.n.f.+.j.N.V.y.E b Z ~ 4.2X2X2X2X2X2X2X2X2X2X2X2X2X2X2X2X2X",
"2X2X2X2X2X2X2X2X2X2X2X2X2X2X2X2X2X2X2X2X2X2X2X2X2XB.n.g.z.B.n.b.N.N.N.! v m ~ 6.4.2X2X2X2X2X2X2X2X2X2X2X2X2X2X2X2X2X",
"2X2X2X2X2X2X2X2X2X2X2X2X2X2X2X2X2X2X2X2X2X2X2X2XB.b.#...X.x.B.N.N.N.:.n x U 3.4.4.2X2X2X2X2X2X2X2X2X2X2X2X2X2X2X2X2X",
"2X2X2X2X2X2X2X2X2X2X2X2X2X2X2X2X2X2X2X2X2X2X2XV.N.f...&...d.B.N.C.e.m j D 3.4.3.4.2X2X2X2X2X2X2X2X2X2X2X2X2X2X2X2X2X",
"2X2X2X2X2X2X2X2X2X2X2X2X2X2X2X2X2X2X2X2X2X2XB.B.b.@.&.' #.N.N.V.y.A h D 3.4.4.4.2X2X2X2X2X2X2X2X2X2X2X2X2X2X2X2X2X2X",
"2X2X2X2X2X2X2X2X2X2X2X2X2X2X2X2X2X2X2X2X2XN.B.B.N.d.+.$.b.B.N.y.F X N 3.3.3.4.2X2X2X2X2X2X2X2X2X2X2X2X2X2X2X2X2X2X2X",
"2X2X2X2X2X2X2X2X2X2X2X2X2X2X2X2X2X2X2X2X2XN.h.z.B.N.x.b.B.N.t.G X O Y 7.4.4.2X2X2X2X2X2X2X2X2X2X2X2X2X2X2X2X2X2X2X2X",
"2X2X2X2X2X2X2X2X2X2X2X2X2X2X2X2X2X2X2X2Xn.g...X.z.N.N.N.N.w.Z X X D 3.6.4.2X2X2X2X2X2X2X2X2X2X2X2X2X2X2X2X2X2X2X2X2X",
"2X2X2X2X2X2X2X2X2X2X2X2X2X2X2X2X2X2X2XB.z.X.&.&.f.B.N.V.r.V X o D 3.4.4.2X2X2X2X2X2X2X2X2X2X2X2X2X2X2X2X2X2X2X2X2X2X",
"2X2X2X2X2X2X2X2X2X2X2X2X2X2X2X2X2X2XN.B.b.#...+.b.N.N.t.D X O D 3.3.4.2X2X2X2X2X2X2X2X2X2X2X2X2X2X2X2X2X2X2X2X2X2X2X",
"2X2X2X2X2X2X2X2X2X2X2X2X2X2X2X2X2XN.N.N.B.b.h.x.B.N.t.D X O D 3.4.4.4.2X2X2X2X2X2X2X2X2X2X2X2X2X2X2X2X2X2X2X2X2X2X2X",
"2X2X2X2X2X2X2X2X2X2X2X2X2X2X2X2X2XN.N.N.N.N.B.B.C.y.H X O P 3.8.4.4.2X2X2X2X2X2X2X2X2X2X2X2X2Xn c ^ y.p.p.p.t.2X2X2X",
"2X2X2X2X2X2X2X2X2X2X2X2X2X2X2X2Xl.C.N.N.N.N.N.N.V.Q O o D 3.8.7.4.2X2X2X2X2X2X2X2X2X2X2X2X2Xe.J d W M.M.v.v.p.t.2X2X",
"2X2X2X2X2X2X2X2X2X2X2X2X2X2X2Xm ^ -.l.C.N.N.N.N.V.=.o N 3.8.4.8.2X2X2X2X2X2X2X2X2X2X2X2X2XC.y.E j E t.M.v.v.p.t.2X2X",
"2X2X2X2X2X2X2X2X2X2X2X2X2X2Xv v s v E w.M.V.N.N.N.p.^ Y 8.6.8.r.2X2X2X2X2X2X2X2X2X2X2X2X2XC.y.E j E y.M.M.v.v.t.r.2X",
"2X2X2X2X2X2X2X2X2X2X2X2X2Xv v v v v s n =.M.C.N.N.V.M.t.8.r.i.v.V.N.2X2X2X2X2X2X2X2X2X2XM.N.y.E s E y.M.M.v.p.r.8.2X",
"2X2X2X2X2X2X2X2Xv 2X2Xv v v v v v v v j b E u.C.C.N.N.M.v.M.V.N.N.N.N.N.V.V.w.2X2X2X2X:.N.V.u.A j m Q 5.;.Q H G G D ",
"2X2X2X2X2X2Xv v f f z v c f v v v v v v f f M =.w.M.C.V.N.N.N.N.N.N.N.N.V.V.;.v 2X2Xm e.V.V.u.A v v j v z j i X X h ",
"2X2X2X2Xv c f z 8 e Q.Q.r L v c v v x < r w > s b ! u.N.N.N.N.N.N.N.N.N.N.N.=.c v v =.M.N.N.-.b s v m G G Z Z z S U ",
"2X2Xv v f C 7 ~.OX=X$X@X{.).q z d c C ~.%X*X+X!.K d A =.l.V.N.N.N.N.N.N.V.u.m c j E l.N.C.y.A s n =.w.t.9.5.4.-.4.2X",
"2Xv v V 7 [.&X>X;X<X-X|.K.L.}.Q.N f 7 #X=X<X1X$XR.> f v E :.v.V.V.N.V.V.y.H n s A y.C.V.N.=.n n -.v.M.p.i.r.8.8.8.2X",
"v v f 8 @X*X1X<X<X<X;X XK.K./._.W.N 7 &X;X<X1XoXL.R.> z c n E =.:.e.e.;.M f f d E e.w.9.=.A v H 5.l.v.9.4.8.8.2X2X2X",
"v v N ~.%X-X<X;X;X<X-X.XK./.K.K.L.0 , +X:X<X1X XH.L.E.L f c j c n m m v L ].!.q S m m n b v v m A F F G V z 2X2X2X2X",
"v f 7 @X*X;X<X<X<X-X&X}././.L.K.K.6 > [.:X1X-X|.G.F.H.5 d v v v c c v f ].,X$X@X7 d c j v j c j s i i o X X 2X2X2X2X",
"v f !.@X X<X1X;X=X#X$X{./.^.H.F.F.2 * [.*X&X.XG.Z.Z.J.2 p x v v v v v f r $X|.P.w f c c v x j j h i g X o o 2X2X2X2X",
"v f e {.(. X&XoX}._.{._.K.K.D.Z.S.1 X W.@X_.H.Z.Z.Z.D.5 u s c c s c s c 9 /.P.)., n A n j j j s g i i X o o 2X2X2X2X",
"v f 8 |.L.^.^./.^.^.^.^.^.G.A.Z.J.2 y 0 P.H.A.Z.Z.A.4 @ X p n E ^ ! E n N 9 0 < Z =.y.=.n i j j g X X X X X 2X2X2X2X",
"x v z w (./.^.^.^.^.K.H.G.D.Z.F.T.= . 0 L.F.Z.Z.S.3 + . h H :.l.N.N.y.Q z p p p J l.C.v.^ j h V D D S V z N 2X2X2X2X",
"2Xv c b 7 ).P.L.H.F.D.D.Z.S.I.4 = o * Y.^.S.S.S.3 * . k ~ l.C.C.M.t.r.8.S X X X D t.v.v.5.V X l ( a.8.6.( 3.3.2X2X2X",
"2X2Xv c v L 0 R.H.S.S.S.G.3 = @ X . * Y.'.J.U.1 + u N ( p.N.N.v.r.8.4.8.( l X X l T r.p.y.H g X N ~ 6.8.q.8.8.8.2X2X",
"2X2X2X2Xv f v - 2 1 1 1 5 * u X X X O - 5 5 & o h D ( p.M.V.v.0.3.6.6.4.8.Y g X o B ( r.r.3.z X O k D Y ~ ~ ~ 3.3.2X",
"2X2X2X2X2X2Xv d p u u u u X X X o g x i u u h D ( 8.p.M.V.p.8.6.4.6.4.4.8.6.P O 2X2XI 8.6.8.Y h X X X g h l l N S F ",
"2X2X2X2X2X2X2X2Xi 2X2Xo X o X X i x v i h Z T 4.0.p.N.V.M.r.4.4.4.3.8.8.8.3.( 2X2X2X2X3.6.8.4.S X X X h z l z N D 2X",
"2X2X2X2X2X2X2X2X2X2X2X2X2XX i j x v c m =.r.t.t.M.N.e.y.p.6.6.4.8.8.2X2X2X2X2X2X2X2X2X2X8.6.8.U g o N ~ ( ~ 3.3.4.2X",
"2X2X2X2X2X2X2X2X2X2X2X2X2X2Xj v v c A w.N.N.v.N.V.w.m ^ 8.6.6.6.2X2X2X2X2X2X2X2X2X2X2X2X2X8.8.Y g k T 8.8.8.8.8.8.2X",
"2X2X2X2X2X2X2X2X2X2X2X2X2X2X2Xv v J y.N.N.N.N.N.V.-.s b Y 6.6.6.2X2X2X2X2X2X2X2X2X2X2X2X2X8.8.T g k T 8.6.8.6.8.2X2X",
"2X2X2X2X2X2X2X2X2X2X2X2X2X2X2X2XA y.C.N.N.N.N.N.V.u.A j k I 6.( ( 2X2X2X2X2X2X2X2X2X2X2X2X2X0.T h g P 8.8.4.8.8.2X2X",
"2X2X2X2X2X2X2X2X2X2X2X2X2X2X2X2X2XM.N.N.N.N.N.N.N.N.:.n X @ U ( / ( 2X2X2X2X2X2X2X2X2X2X2X2X2XD g o D 8.6.8.8.2X2X2X",
"2X2X2X2X2X2X2X2X2X2X2X2X2X2X2X2X2XN.N.N.N.N.N.M.M.M.v.=.g X N T 3.3.8.2X2X2X2X2X2X2X2X2X2X2X2X2X2Xh Y 8.8.8.2X2X2X2X",
"2X2X2X2X2X2X2X2X2X2X2X2X2X2X2X2X2X2XM.M.v.M.v.x.v.M.v.r.G a g P 8.3.8.2X2X2X2X2X2X2X2X2X2X2X2X2X2X2X~ 8.8.2X2X2X2X2X",
"2X2X2X2X2X2X2X2X2X2X2X2X2X2X2X2X2X2X2Xp.v.v.k.O.o.m.y.v.-.l X N 4.7.4.8.2X2X2X2X2X2X2X2X2X2X2X2X2X2X2X2X2X2X2X2X2X2X",
"2X2X2X2X2X2X2X2X2X2X2X2X2X2X2X2X2X2X2X2XM.m.#.) % %.a.r.8.I g a F 4.3.4.8.2X2X2X2X2X2X2X2X2X2X2X2X2X2X2X2X2X2X2X2X2X",
"2X2X2X2X2X2X2X2X2X2X2X2X2X2X2X2X2X2X2X2X2Xp.c.] ) O.7.8.8.8.S X h Y 8.3.6.2X2X2X2X2X2X2X2X2X2X2X2X2X2X2X2X2X2X2X2X2X",
"2X2X2X2X2X2X2X2X2X2X2X2X2X2X2X2X2X2X2X2X2Xr.t.1.} >.>.,.0.8.~ k X N 3.6.4.4.2X2X2X2X2X2X2X2X2X2X2X2X2X2X2X2X2X2X2X2X",
"2X2X2X2X2X2X2X2X2X2X2X2X2X2X2X2X2X2X2X2X2X2X8.8.7.>.{ : R 0.8.U g O D 7.4.4.4.2X2X2X2X2X2X2X2X2X2X2X2X2X2X2X2X2X2X2X",
"2X2X2X2X2X2X2X2X2X2X2X2X2X2X2X2X2X2X2X2X2X2X2X8.8.2.$   % >.8.6.D O h Y 8.4.4.2X2X2X2X2X2X2X2X2X2X2X2X2X2X2X2X2X2X2X",
"2X2X2X2X2X2X2X2X2X2X2X2X2X2X2X2X2X2X2X2X2X2X2X2X8.8.>.% _ | 8.8.( l X z ~ 8.3.8.2X2X2X2X2X2X2X2X2X2X2X2X2X2X2X2X2X2X",
"2X2X2X2X2X2X2X2X2X2X2X2X2X2X2X2X2X2X2X2X2X2X2X2X2X8.3.| | ,.6.6.4.S X X S 3.7.4.2X2X2X2X2X2X2X2X2X2X2X2X2X2X2X2X2X2X",
"2X2X2X2X2X2X2X2X2X2X2X2X2X2X2X2X2X2X2X2X2X2X2X2X2X2X8.6.7.| } >.q.3.S g g U 6.4.4.2X2X2X2X2X2X2X2X2X2X2X2X2X2X2X2X2X",
"2X2X2X2X2X2X2X2X2X2X2X2X2X2X2X2X2X2X2X2X2X2X2X2X2X2X8.6.1.$ # [ <.8.4.S X l ~ 8.4.2X2X2X2X2X2X2X2X2X2X2X2X2X2X2X2X2X",
"2X2X2X2X2X2X2X2X2X2X2X2X2X2X2X2X2X2X2X2X2X2X2X2X2X2X2Xq.1.$ # ` | q.8.3.Z X N ~ 2X2X2X2X2X2X2X2X2X2X2X2X2X2X2X2X2X2X",
"2X2X2X2X2X2X2X2X2X2X2X2X2X2X2X2X2X2X2X2X2X2X2X2X2X2X2X2X4.2.[ } ,.4.6.8.3.D k 2X2X2X2X2X2X2X2X2X2X2X2X2X2X2X2X2X2X2X",
"2X2X2X2X2X2X2X2X2X2X2X2X2X2X2X2X2X2X2X2X2X2X2X2X2X2X2X2X2X8.<.7.0.a.0.8.r.2X2X2X2X2X2X2X2X2X2X2X2X2X2X2X2X2X2X2X2X2X"
};
