/* XPM */
static char *_3[] = {
/* columns rows colors chars-per-pixel */
"58 59 199 2 ",
"   c #124C30",
".  c #0C5036",
"X  c #205339",
"o  c #7D462C",
"O  c #7E492E",
"+  c #7A4229",
"@  c #7D4A31",
"#  c #754B3C",
"$  c #1C6948",
"%  c #357753",
"&  c #21754C",
"*  c #6C4D48",
"=  c #724E44",
"-  c #6F514F",
";  c #775346",
":  c #6B565A",
">  c #6B5251",
",  c #616E51",
"<  c #7E6151",
"1  c #7A655E",
"2  c #58576E",
"3  c #49587E",
"4  c #565B77",
"5  c #675661",
"6  c #5B6476",
"7  c #7C6A64",
"8  c #796865",
"9  c #666C7C",
"0  c #6F717E",
"q  c #706B74",
"w  c #824524",
"e  c #814728",
"r  c #824B2E",
"t  c #8B4E2B",
"y  c #8D512C",
"u  c #94562C",
"i  c #94582F",
"p  c #824D32",
"a  c #855135",
"s  c #8D5532",
"d  c #8E5937",
"f  c #865439",
"g  c #88563B",
"h  c #8B5A3C",
"j  c #905732",
"k  c #915934",
"l  c #925E39",
"z  c #96613B",
"x  c #99653D",
"c  c #8C5E42",
"v  c #845D47",
"b  c #8F6144",
"n  c #86604A",
"m  c #8F644B",
"M  c #926344",
"N  c #996741",
"B  c #9B6B42",
"V  c #926549",
"C  c #966A4D",
"Z  c #9A6D49",
"A  c #9D714D",
"S  c #9F7047",
"D  c #846554",
"F  c #80665A",
"G  c #896551",
"H  c #976E52",
"J  c #9B7355",
"K  c #9E7759",
"L  c #9E785A",
"P  c #A17147",
"I  c #A17349",
"U  c #A5794E",
"Y  c #A57B52",
"T  c #A87E53",
"R  c #A27D5D",
"E  c #A27751",
"W  c #9F7B62",
"Q  c #A27E61",
"!  c #208E61",
"~  c #35996A",
"^  c #388D62",
"/  c #3DBF78",
"(  c #519569",
")  c #6C8C65",
"_  c #68986D",
"`  c #7B916A",
"'  c #7B9F6E",
"]  c #7E8F69",
"[  c #56A56D",
"{  c #40A170",
"}  c #41BE78",
"|  c #4AB977",
" . c #54BB77",
".. c #5DB977",
"X. c #55BB78",
"o. c #56AE73",
"O. c #6CB577",
"+. c #65B877",
"@. c #7AB477",
"#. c #37C178",
"$. c #3CC078",
"%. c #AB8256",
"&. c #A6815D",
"*. c #AD8558",
"=. c #AF8A5C",
"-. c #B18C5E",
";. c #928C69",
":. c #9D8B69",
">. c #83926C",
",. c #93966C",
"<. c #A68464",
"1. c #A98666",
"2. c #AA8867",
"3. c #AB8768",
"4. c #A68A68",
"5. c #AB8A69",
"6. c #B38F62",
"7. c #B18C69",
"8. c #B59264",
"9. c #B89767",
"0. c #B3936C",
"q. c #B7996F",
"w. c #BB9C6C",
"e. c #BB9D71",
"r. c #B19D71",
"t. c #96AF76",
"y. c #97AA74",
"u. c #84B377",
"i. c #8AB277",
"p. c #98B076",
"a. c #BFA16F",
"s. c #ADAC76",
"d. c #A4AB75",
"f. c #B6A473",
"g. c #BEA172",
"h. c #B3AB76",
"j. c #BBAA76",
"k. c #C19F72",
"l. c #C2A574",
"z. c #C4A976",
"x. c #C9A876",
"c. c #C6AC79",
"v. c #C9AB79",
"b. c #365B93",
"n. c #395E95",
"m. c #355E99",
"M. c #396197",
"N. c #3B649A",
"B. c #37629F",
"V. c #3D6EA3",
"C. c #3966A2",
"Z. c #3E71A6",
"A. c #3D73AB",
"S. c #3B78B5",
"D. c #495C83",
"F. c #4A6597",
"G. c #4A729D",
"H. c #5A7496",
"J. c #56658C",
"K. c #6D7384",
"L. c #68778D",
"P. c #6F788B",
"I. c #416CA6",
"U. c #466BA7",
"Y. c #4073A7",
"T. c #4174AA",
"R. c #4578AD",
"E. c #4A78A8",
"W. c #5279A5",
"Q. c #457BB3",
"!. c #4B7CB4",
"~. c #617FA2",
"^. c #778497",
"/. c #4B83BB",
"(. c #5988B9",
"). c #5986B6",
"_. c #5E80A7",
"`. c #6381A2",
"'. c #7195BD",
"]. c #6E92BA",
"[. c #4D89C5",
"{. c #4A88C6",
"}. c #5189C4",
"|. c #568EC8",
" X c #5991C9",
".X c #5592D0",
"XX c #6493C2",
"oX c #6A9CCF",
"OX c #759EC8",
"+X c #659BD2",
"@X c #659ED7",
"#X c #74A1CE",
"$X c #76A5D2",
"%X c #7AA6D3",
"&X c #7DA9D5",
"*X c #7CACDB",
"=X c #81ACD6",
"-X c #82AEDA",
";X c None",
/* pixels */
";X;X;X;X;X;X;X;X;X;X;X;X;X;X;X;X;X;X;X;X;X;X;X;X;X;X;X;X;X;X;X;X;X;X;X;X;X;X;X;X;X;X;X;X;X;X;X;X;X;X;X;X;X;X;X;X;X;X",
";X;X;X;X;X;X;X;X;X;X;X;X;X;X;X;X;X;X;X;X;X;X;X;X;X;X;X;X;X;X;X;X;X;X;X;X;X;X;X;X;X;X;X;X;X;X;X;X;X;X;X;X;X;X;X;X;X;X",
";X;X;X;X;X;X;X;X;X;X;X;X;X;X;X;X;X;X;X;X;X;X;X;X;X;X;X;X;X;X;X;X;X;X;X;X;X;X;X;X;X;X;X;X;X;X;X;X;X;X;X;X;X;X;X;X;X;X",
";X;X;X;X;X;X;X;X;X;X;X;X;X;X;X;X;X;X;X;X;X;X;X;X;X;X;X;X;X;X;X;X;X;X;X;X;X;X;X;X;X;X;X;X;X;X;X;X;X;X;X;X;X;X;X;X;X;X",
";X;X;X;X;X;X;X;X;X;X;X;X;X;X;X;X;X;X;X;X;X;X;X;X;X;X;X;X;X;X;X;X;X;X;X;X;X;X;X;X;X;X;X;X;X;X;X;X;X;X;X;X;X;X;X;X;X;X",
";X;X;X;X;X;X;X;X;X;X;X;X;X;X;X;X;X;X;X;X;X;X;X;X;X;X;X;X;X;X;X;X;X;X;X;X;Xz.v.z.z.j.l.z.;X;X;X;X;X;X;X;X;X;X;X;X;X;X",
";X;X;X;X;X;X;X;X;X;X;X;X;X;X;X;X;X;X;X;X;X;X;X;X;X;X;X;X;X;X;X;X;X;X;X;Xz.z.v.s.u.+.i.v.z.z.;X;X;X;X;X;X;X;X;X;X;X;X",
";X;X;X;X;X;X;X;X;X;X;X;X;X;X;X;X;X;X;X;X;X;X;X;X;X;X;X;X;X;X;X;X;X;Xz.v.z.z.h.| / $...j.z.z.;X;X;X;X;X;X;X;X;X;X;X;X",
";X;X;X;X;X;X;X;X;X;X;X;X;X;X;X;X;X;X;X;X;X;X;X;X;X;X;X;X;X;X;X;Xz.v.x.h.h.z.h.+.#./  .z.z.z.z.z.;X;X;X;X;X;X;X;X;X;X",
";X;X;X;X;X;X;X;X;X;X;X;X;X;X;X;X;X;X;X;X;X;X;X;X;X;X;X;X;X;Xz.z.j.s.@.+. .z.x.i.O.i.h.z.z.c.z.9.%.;X;X;X;X;X;X;X;X;X",
";X;X;X;X;X;X;X;X;X;X;X;X;X;X;X;X;X;X;X;X;X;X;X;X;X;X;X;Xz.v.v.z.s...$.#.} p.z.j.j.z.z.z.z.9.%.x l l ;X;X;X;X;X;X;X;X",
";X;X;X;X;X;X;X;X;X;X;X;X;X;X;X;X;X;X;X;X;X;X;X;X;X;X;Xz.j.d.j.z.s. .$.$.@.h.v.z.z.z.z.9.S z j d c R ;X;X;X;X;X;X;X;X",
";X;X;X;X;X;X;X;X;X;X;X;X;X;X;X;X;X;X;X;X;X;X;X;X;Xz.z.t. .} i.x.z.i.O.i.z.z.z.z.z.w.*.x j z A L 1.1.;X;X;X;X;X;X;X;X",
";X;X;X;X;X;X;X;X;X;X;X;X;X;X;X;X;X;X;X;X;X;X;Xz.z.z.j.O.#.$.| j.z.j.j.v.c.c.z.w.-.B s s M R 1.1.1.;X;X;X;X;X;X;X;X;X",
";X;X;X;X;X;X;X;X;X;X;X;X;X;X;X;X;X;X;X;X;X8.z.z.z.z.x.t.|  .u.v.z.z.z.z.l.9.Y z p h b J Q 1.1.1.1.;X;X;X;X;X;X;X;X;X",
";X;X;X;X;X;X;Xk k k k k k ;X;X;X;X;X;Xk z -.c.z.z.z.z.z.d.z.z.v.z.c.9.&.C a O + @ L 1.1.1.1.<.1.;X;X;X;X;X;X;X;X;X;X",
";X;X;Xk k k s i j i u k u i k k k k k k j y I z.z.z.z.z.z.z.z.l.q.&.b @ + o a m L 2.1.<.1.1.1.;X;X;X;X;X;X;X;X;X;X;X",
";X;Xk k k i n 7 F K.7 0 0 D b k k k k k k k z 8.z.z.z.z.z.z.0.Y h O + O g H L <.<.2.4.2.1.;X;X;X;X;X;X;X;X;X;X;X;X;X",
";X;Xk k j k `.[.+XoX@X#X+X|._.q j j k k k k s B a.z.z.z.z.g.h o + a m K <.1.1.1.1.2.;X;X;X;X;X;X;X;X;X;X;X;X;X;X;X;X",
";Xk k i D `..X X=X=X=X=X-XXX/.{.K.l k k k k k y T z.z.z.z.8.a p m R 1.1.1.<.<.1.;X;X;X;X;X;X;X;X;X;X;X;X;X;X;X;X;X;X",
";Xk k u `.[.+X&X=X=X=X=X=X$XY.Z.E.7 k k k k k i z 9.z.z.z.g.C J 1.2.4.3.2.2.;X;X;X;X;X;X;X;X;X;X;X;X;X;X;X;X;X;X;X;X",
";Xk j b [.R.#X=X=X=X=X=X&X(.Z.Y.T.~.i j k h F d u I z.c.z.z.q.2.1.2.3.1.2.;X;X;X;X;X;X;X;X;X;X;X;X;X;X;X;X;X;X;X;X;X",
";Xk i 7 /.Y.(.&X=X%X$X+X XE.Z.Y.T.!.7 u b L.}.}.0 s x 9.z.z.z.q.0.5.0.g.;X;X;X;X;X;X;X;X;X;X;X;X;X;X;X;X;X;X;X;X;X;X",
";Xk j n W.T.Z.R.(.(.[.|.}.Q.Y.Y.Y.A.H.s K. X+X$X'.D i U z.z.z.z.g.z.z.z.;X;X;X;X;X;X;X;X;X;X;X;X;X;X;X;X;X;X;X;X;X;X",
";X;Xk k 0 S.Z.A.Y.Z.Q./.!.T.Y.Y.Z.A.G.v _.%X=X=X*X X1 s %.z.z.z.z.z.z.z.z.;X;X;X;X;X;X;X;X;X;X;X;X;X;X;X;X;X;X;X;X;X",
";X;Xk i b H.A.Z.Y.Z.Y.Y.Y.A.V.N.N.C.6 < ^.=X=X=X=XY.H.d k -.z.z.z.z.z.z.z.z.;X;X;X;X;X;X;X;X;X;X;X;X;Xk k ;X;X;X;X;X",
";X;X;Xk j 7 G.Z.V.V.V.V.Y.V.M.b.b.b.= n ].*X=X=X].V.G.h i S a.z.z.z.z.z.z.z.z.z.;X;X;X;X;X;X;X;X;X9.B j B 9.l.;X;X;X",
";X;X;X;Xk k 1 T.m.b.b.m.M.b.b.b.B.4 + q .XoX%XXXZ.Z.A.9 h i P a.z.z.z.z.z.z.z.c.*.;X;X;X;X;X;Xz.z.8.z j *.g.g.e.q.;X",
";X;X;X;X;Xj s > 3 m.m.b.b.m.m.F.F.= w H.{.Q.R.Y.b.b.M.W.d k k %.l.z.z.z.z.z.z.a.z k ;X;X;Xw.z.z.l.T s z 8.l.g.g.e.;X",
";X;X;X;X;X;Xs w e # 2 F.2 2 : : # O @ !.Y.Y.M.n.b.b.C.4 y j s y z -.l.z.z.z.-.P s j j z U z.z.z.-.x s U w.l.g.g.g.q.",
";X;X;X;X;X;X;Xo o O w @ o e @ o e ; J.I.M.n.b.b.b.b.V.= y d k k k x U T %.B z j j y B -.l.z.z.k.U k k =.g.g.g.g.g.q.",
";X;X;X;X;X;X;X;X;X;Xo o o o o o r : U.C.b.b.b.b.b.D.: o t k k k k s s u c i u j z %.l.z.z.z.z.-.B j k U q.l.g.g.g.0.",
";X;X;X;X;X;X;X;X;X;Xo o o o o r r ; F.U.F.m.n.D.* @ + o r k s j j j k i '.#X0 h I k.z.c.z.l.%.k j k s s B Y =.0.0.5.",
";X;X;X;X;X;X;X;X;X;Xr r p p s d k e e - 5 = * w o O p M B I I l j j i 1 @X%X[.L.x x U 8.9.%.z j l x B B s s a s M &.",
";X;X;X;X;X;X;X;X;X;X;Xd k k j k s r o r p a h g m J 5.w.c.l.l.g.*.z u 9 A.R.S.L.u k z z z z z S 7.a.q.8.T Z f r O @ ",
";X;X;X;X;X;X;X;X;X;X;Xk k k j s B S K K Q Q 1.3.5.e.l.c.z.z.l.l.g.T j 7 A.S.W.n u k j j j d x %.w.g.g.e.0.5.R V h h ",
";X;X;X;X;X;X;X;X;X;X;X;Xk x %.w.l.z.e.q.5.0.q.e.z.z.z.l.j.0.0.5.0.2.h y d 1 G z x d k d j s s l U q.7.7.0.0.5.3.2.;X",
";X;X;X;X;X;X;X;X;X;X;X;X6.w.c.z.z.z.l.l.z.l.l.c.c.z.e.0.3.3.1.1.1.1.f O O t P 8.8.S j s y s y a r a M A <.5.2.5.;X;X",
";X;X;X;X;X;X;X;X;X;X;X;X;Xz.z.z.z.z.z.z.c.w.-.T z.0.2.1.3.3.1.1.1.2.V + o p 8.z.c.=.l s a s a r p r o o ;X;X;X;X;X;X",
";X;X;X;X;X;X;X;X;X;X;X;X;Xz.z.z.z.z.z.c.c.I y I 0.2.1.2.1.1.3.1.2.2.H o + h 2.e.g.9.s a s s r r r o @ @ ;X;X;X;X;X;X",
";X;X;X;X;X;X;X;X;X;X;X;X;Xl.z.z.l.z.z.z.l.U j M <.4.3.3.2.2.2.2.5.5.Q p + a W q.g.6.l r h h o o o o p ;X;X;X;X;X;X;X",
";X;X;X;X;X;X;X;X;X;X;X;X;Xg.g.g.l.l.z.l.z.=.j p J 2.1.5.;X;X;X;X;XQ Q v ;X+ G 0.q.0.h o c 1.R c o o o ;X;X;X;X;X;X;X",
";X;X;X;X;X;X;X;X;X;X;X;X;X;Xl.g.f.d.f.g.l.w.l + c 4.<.<.;X;X;X;X;X;X;X;X;X;XH 5.5.4.b o p 1.5.5.E c p ;X;X;X;X;X;X;X",
";X;X;X;X;X;X;X;X;X;X;X;X;X;Xe.f.O.[ y.k.e.q.M o @ Q W W ;X;X;X;X;X;X;X;X;X;X;X4.2.5.V o @ V 1.5.<.Q R ;X;X;X;X;X;X;X",
";X;X;X;X;X;X;X;X;X;X;X;X;X;Xq.e.o.  [ e.q.g.A o f W W W ;X;X;X;X;X;X;X;X;X;X;X5.3.4.J r o @ C <.5.5.4.;X;X;X;X;X;X;X",
";X;X;X;X;X;X;X;X;X;X;X;X;X;X;Xq.' & | ,.q.q.A r o K <.<.2.;X;X;X;X;X;X;X;X;X;X5.5.5.J o o r p b E <.5.5.;X;X;X;X;X;X",
";X;X;X;X;X;X;X;X;X;X;X;X;X;X;X5.;._ ` 4.7.5.R O @ Q <.3.2.;X;X;X;X;X;X;X;X;X;X7.3.5.m o o p p r a V R <.5.;X;X;X;X;X",
";X;X;X;X;X;X;X;X;X;X;X;X;X;X;X5.4.:.:.` 2.3.<.g @ H 3.1.2.;X;X;X;X;X;X;X;X;X;X;X7.Q c o c J J C g p p C R ;X;X;X;X;X",
";X;X;X;X;X;X;X;X;X;X;X;X;X;X;X5.5.>.^ % L 2.2.g o V 1.1.1.;X;X;X;X;X;X;X;X;X;X;X5.K a f K 5.5.<.Q R H M ;X;X;X;X;X;X",
";X;X;X;X;X;X;X;X;X;X;X;X;X;X;X;X5.4.% . , 5.2.C + f 2.1.3.;X;X;X;X;X;X;X;X;X;X;X;Xc p f Q 5.4.2.5.<.1.<.;X;X;X;X;X;X",
";X;X;X;X;X;X;X;X;X;X;X;X;X;X;X;X5.5.) $ ~ :.2.K @ g R 1.1.3.;X;X;X;X;X;X;X;X;X;X;Xp @ g 1.2.2.3.3.5.;X;X;X;X;X;X;X;X",
";X;X;X;X;X;X;X;X;X;X;X;X;X;X;X;X5.5.;._ ;.2.2.<.a O L 1.1.1.;X;X;X;X;X;X;X;X;X;X;X;Xg J 2.2.5.5.3.;X;X;X;X;X;X;X;X;X",
";X;X;X;X;X;X;X;X;X;X;X;X;X;X;X;X;X3.4.2.;.3.5.Q g o C 1.1.1.;X;X;X;X;X;X;X;X;X;X;X;XJ 3.5.5.5.5.;X;X;X;X;X;X;X;X;X;X",
";X;X;X;X;X;X;X;X;X;X;X;X;X;X;X;X;X7.:._ { ] 2.<.f o m 1.1.1.1.;X;X;X;X;X;X;X;X;X;X;X;X;X;X5.;X;X;X;X;X;X;X;X;X;X;X;X",
";X;X;X;X;X;X;X;X;X;X;X;X;X;X;X;X;X5.>.X . ( 3.3.V + a 1.1.1.;X;X;X;X;X;X;X;X;X;X;X;X;X;X;X;X;X;X;X;X;X;X;X;X;X;X;X;X",
";X;X;X;X;X;X;X;X;X;X;X;X;X;X;X;X;X5.:.~ ! ~ ;.5.Q p p L 1.1.;X;X;X;X;X;X;X;X;X;X;X;X;X;X;X;X;X;X;X;X;X;X;X;X;X;X;X;X",
";X;X;X;X;X;X;X;X;X;X;X;X;X;X;X;X;X;X2.` ( >.3.3.2.c o J 1.1.;X;X;X;X;X;X;X;X;X;X;X;X;X;X;X;X;X;X;X;X;X;X;X;X;X;X;X;X",
";X;X;X;X;X;X;X;X;X;X;X;X;X;X;X;X;X;X5.4.4.3.3.5.5.J @ b 3.1.;X;X;X;X;X;X;X;X;X;X;X;X;X;X;X;X;X;X;X;X;X;X;X;X;X;X;X;X",
";X;X;X;X;X;X;X;X;X;X;X;X;X;X;X;X;X;X;X;X5.0.0.5.5.Q p f R 2.;X;X;X;X;X;X;X;X;X;X;X;X;X;X;X;X;X;X;X;X;X;X;X;X;X;X;X;X"
};
