/* XPM */
static char *_4[] = {
/* columns rows colors chars-per-pixel */
"58 59 200 2 ",
"   c #0D3B28",
".  c #7D462C",
"X  c #7E482E",
"o  c #77402A",
"O  c #7C4932",
"+  c #794B38",
"@  c #1B5D40",
"#  c #32724D",
"$  c #3E7D57",
"%  c #5F525E",
"&  c #694E4C",
"*  c #724E45",
"=  c #725149",
"-  c #745147",
";  c #6A5152",
":  c #66545A",
">  c #705551",
",  c #597D5A",
"<  c #51684B",
"1  c #76625B",
"2  c #5A5365",
"3  c #58576C",
"4  c #575B76",
"5  c #43577F",
"6  c #645762",
"7  c #6B646A",
"8  c #776967",
"9  c #646773",
"0  c #676A78",
"q  c #766F72",
"w  c #6E717E",
"e  c #73727B",
"r  c #834C2E",
"t  c #824526",
"y  c #8D502B",
"u  c #94572D",
"i  c #814D32",
"p  c #855134",
"a  c #8C5532",
"s  c #8F5834",
"d  c #855439",
"f  c #89573A",
"g  c #8B5A3C",
"h  c #86593E",
"j  c #905732",
"k  c #915934",
"l  c #935E39",
"z  c #95613B",
"x  c #98653E",
"c  c #8B5E42",
"v  c #845E48",
"b  c #8E6145",
"n  c #86614C",
"m  c #936444",
"M  c #9C6C44",
"N  c #926649",
"B  c #956A4D",
"V  c #996D4B",
"C  c #976844",
"Z  c #9D724C",
"A  c #826252",
"S  c #846656",
"D  c #976E52",
"F  c #986F50",
"G  c #9B7354",
"H  c #9E7759",
"J  c #9F795B",
"K  c #A2744B",
"L  c #A5794E",
"P  c #A07047",
"I  c #A47B53",
"U  c #A97F53",
"Y  c #A27C5C",
"T  c #A17750",
"R  c #9F7B61",
"E  c #866C60",
"W  c #A27E62",
"Q  c #2C865C",
"!  c #2F9A6A",
"~  c #3FBD77",
"^  c #52845E",
"/  c #67815D",
"(  c #5F8661",
")  c #489464",
"_  c #4A8F64",
"`  c #6A8863",
"'  c #7D8F68",
"]  c #7D8C66",
"[  c #689269",
"{  c #78946A",
"}  c #44BD77",
"|  c #4ABB77",
" . c #4FBC78",
".. c #54BA76",
"X. c #5BB976",
"o. c #52BC78",
"O. c #63A16C",
"+. c #64B776",
"@. c #74B476",
"#. c #AA8255",
"$. c #AB855B",
"%. c #AE895C",
"&. c #A7835E",
"*. c #B18C5E",
"=. c #8B8B67",
"-. c #9B8967",
";. c #9D8968",
":. c #988867",
">. c #99966C",
",. c #A68464",
"<. c #A98666",
"1. c #A38967",
"2. c #AB8965",
"3. c #AC8768",
"4. c #A28968",
"5. c #AB8A69",
"6. c #B28E62",
"7. c #B08F6A",
"8. c #AA926C",
"9. c #B59263",
"0. c #B89666",
"q. c #B3946C",
"w. c #B6996D",
"e. c #BA9B6C",
"r. c #BA9867",
"t. c #BB9E70",
"y. c #8BA672",
"u. c #95AE76",
"i. c #99AE76",
"p. c #9CA371",
"a. c #84B176",
"s. c #8AB076",
"d. c #91B076",
"f. c #BEA16F",
"g. c #A6AC76",
"h. c #ACAB76",
"j. c #A7A372",
"k. c #BEA272",
"l. c #B4AA76",
"z. c #BDA975",
"x. c #B5A373",
"c. c #C1A673",
"v. c #C3A976",
"b. c #C8A876",
"n. c #C5AB78",
"m. c #3B5B8D",
"M. c #375C93",
"N. c #395C92",
"B. c #386097",
"V. c #3A649B",
"C. c #3E689C",
"Z. c #3D6CA3",
"A. c #3F72A5",
"S. c #3D72A8",
"D. c #3F7AB5",
"F. c #475B86",
"G. c #535E82",
"H. c #53658D",
"J. c #586D8D",
"K. c #426699",
"L. c #46709D",
"P. c #597495",
"I. c #686F80",
"U. c #6E7585",
"Y. c #647C99",
"T. c #677B96",
"R. c #717482",
"E. c #4173A6",
"W. c #4275AA",
"Q. c #4678AC",
"!. c #4977AA",
"~. c #5B7DA5",
"^. c #4D7EB1",
"/. c #477CB4",
"(. c #416AA7",
"). c #6C809C",
"_. c #768398",
"`. c #5980AB",
"'. c #4A82BD",
"]. c #5586B8",
"[. c #6582A3",
"{. c #758EAB",
"}. c #668CB6",
"|. c #7397BE",
" X c #4A88C7",
".X c #518AC3",
"XX c #5E8FC2",
"oX c #518DCA",
"OX c #6393C2",
"+X c #6396CB",
"@X c #6B9BCB",
"#X c #6999C8",
"$X c #679CD2",
"%X c #74A1CE",
"&X c #79A6D3",
"*X c #7EA9D5",
"=X c #7FADDA",
"-X c #80ABD6",
";X c #83AEDA",
":X c None",
/* pixels */
":X:X:X:X:X:X:X:X:X:X:X:X:X:X:X:X:X:X:X:X:X:X:X:X:X:X:X:X:X:X:X:X:X:X:X:X:X:X:X:X:X:X:X:X:X:X:X:X:X:X:X:X:X:X:X:X:X:X",
":X:X:X:X:X:X:X:X:X:X:X:X:X:X:X:X:X:X:X:X:X:X:X:X:X:X:X:X:X:X:X:X:X:X:X:X:X:X:X:X:X:X:X:X:X:X:X:X:X:X:X:X:X:X:X:X:X:X",
":X:X:X:X:X:X:X:X:X:X:X:X:X:X:X:X:X:X:X:X:X:X:X:X:X:X:X:X:X:X:X:X:X:X:X:X:X:X:X:X:X:X:X:X:X:X:X:X:X:X:X:X:X:X:X:X:X:X",
":X:X:X:X:X:X:X:X:X:X:X:X:X:X:X:X:X:X:X:X:X:X:X:X:X:X:X:X:X:X:X:X:X:X:X:X:X:X:X:X:X:X:X:X:X:X:X:X:X:X:X:X:X:X:X:X:X:X",
":X:X:X:X:X:X:X:X:X:X:X:X:X:X:X:X:X:X:X:X:X:X:X:X:X:X:X:X:X:X:X:X:X:X:X:X:X:X:X:X:X:X:X:X:X:X:X:X:X:X:X:X:X:X:X:X:X:X",
":X:X:X:X:X:X:X:X:X:X:X:X:X:X:X:X:X:X:X:X:X:X:X:X:X:X:X:X:X:X:X:X:X:X:X:X:X:X:X:X:X:X:X:X:X:X:X:X:X:X:X:X:X:X:X:X:X:X",
":X:X:X:X:X:X:X:X:X:X:X:X:X:X:X:X:X:X:X:X:X:X:X:X:X:X:X:X:X:X:X:X:X:X:X:X:X:X:X:X:X:X:X:X:X:X:X:X:X:X:X:X:X:X:X:X:X:X",
":X:X:X:X:X:X:X:X:X:X:X:X:X:X:X:X:X:X:X:X:X:X:X:X:X:X:X:X:X:X:X:X:X:X:X:X:X:X:X:X:X:X:X:X:X:X:X:X:X:X:X:X:X:X:X:X:X:X",
":X:X:X:X:X:X:X:X:Xk k k k k k :X:X:X:X:X:X:X:X:X:X:X:X:X:X:X:X:X:X:X:X:X:X:X:X:X:X:X:X:X:X:X:X:X:X:X:X:X:X:X:X:X:X:X",
":X:X:X:X:X:X:X:Xk j k j k g s s j :X:X:X:X:X:X:X:X:X:X:X:X:X:X:X:X:X:X:X:X:X:X:X:X:X:X:X:X:X:X:X:X:X:X:X:X:X:X:X:X:X",
":X:X:X:X:X:X:Xk k k k k S R.n b u k k k :X:X:X:X:X:X:X:X:X:X:X:X:X:X:X:X:X:X:X:X:X:X:X:X:X:X:X:X:X:X:X:X:X:X:X:X:X:X",
":X:X:X:X:X:Xs j k n U.Y.`.].}.).q A c k j :X:X:X:X:X:X:X:X:X:X:X:X:X:X:X:X:X:X:X:Xv.v.c.v.c.v.v.v.v.:X:X:X:X:X:X:X:X",
":X:X:X:X:X:Xk j k Y. XoX$X@X-X&X$X}.T.g k k :X:X:X:X:X:X:X:X:Xv.c.v.x.z.z.v.n.z.z.l.z.l.c.v.z.h.h.l.z.:X:X:X:X:X:X:X",
":X:X:X:X:X:Xk k R. XQ.%X-X-X-X-X-X*X$X~.A k k k k k l $.n.n.v.c.z.h.s.a.s.l.c.h.s.@.@.a.h.z.i.} } o.u.z.:X:X:X:X:X:X",
":X:X:X:X:X:Xj c I.Q.^.OX*X-X-X*X-X*X#X.XY.n j j k j j M r.v.v.n.v.i...} X.h.z.i...} } X.g.z.a.| ~ | d.z.c.:X:X:X:X:X",
":X:X:X:X:X:Xk k w S.A.].*X*X-X-X-X-X#XE.'.e k k k k k j *.v.v.v.z.i...} +.h.c.i.X.| ..+.h.z.i.+... .g.v.v.:X:X:X:X:X",
":X:X:X:X:X:Xu g q E.A.Q.].XX+X+X#XOX^.E.W.w g k k s k l #.c.n.n.v.l.s.a.i.z.v.h.d.s.i.g.z.n.z.g.h.h.b.b.n.v.:X:X:X:X",
":X:X:X:X:X:X:Xk q D.E.S.A.Q..XoX.XW.A.A.S.~.c k k k k k K c.v.v.v.v.z.v.v.v.v.n.v.v.v.v.v.v.v.v.c.v.v.b.c.c.c.:X:X:X",
":X:X:X:X:X:X:Xk s L.S.S.A.S./..X/.W.A.E.Q.~.k k k s k s M c.n.v.v.n.n.c.k.f.k.e.f.v.k.f.c.f.c.e.e.9.*.9.e.9.*.:X:X:X",
":X:X:X:X:X:X:Xa h 9 C.C.C.A.W.S.S.A.A.A.E.J.n l c v c k M r.v.v.v.c.6.I Y H I G Z G Z I U L K K K x x x x l z :X:X:X",
":X:X:X:X:X:X:X:Xy - N.M.M.C.A.A.A.Z.Z.E.E.E.c n T.~.Y.k u r.v.v.n.q.r r . p p O O p r i i d f g l z x C C N g :X:X:X",
":X:X:X:X:X:X:X:Xr . & 5 N.M.B.V.B.B.M.V.K.9 1 T.}.+XOXU.b $.c.n.c.$.f d h c c g g h h f c N G G G H H &.Y J Y :X:X:X",
":X:X:X:X:X:X:X:X:X. . & F.N.M.M.M.N.M.m.3 1 e @X&X&X%X_.b P r.n.z.q.D H Y Y Y H J Y H Y Y ,.,.,.,.,.1.1.,.,.:X:X:X:X",
":X:X:X:X:X:X:X:X:X:X. . * 4 4 F.C.V.Z.% O 1 {.;X-X-X;X$X8 k 9.n.n.k.5.<.5.2.3.3.1.,.1.,.3.,.,.,.,.,.,.,.3.:X:X:X:X:X",
":X:X:X:X:X:X:X:X:X:X:X. . O + = : 6 : + > P.+X&X*X*X@X`.0 z #.k.c.c.0.5.3.1.,.3.,.1.,.,.:X:X:X:X,.,.,.:X:X:X:X:X:X:X",
":X:X:X:X:X:X:X:X:X:X:X. . . . . o O + = J.'.].#X@XOX^.W.0 g K f.v.v.c.t.q.q.7.:X:X:X:X:X:X:X:X:X:X:X:X:X:X:X:X:X:X:X",
":X:X:X:X:X:X:X:X:X:X:Xr . X X . . * 6 H.Q.W.W.W.!.E.Z.E.9 g C r.v.v.v.v.v.c.:X:X:X:X:X:X:X:X:X:X:X:X:X:X:X:X:X:X:X:X",
":X:X:X:X:X:X:X:X:X:X:Xa r r r r i = H.(.V.V.B.M.M.M.M.K.0 g z *.c.v.v.v.v.c.:X:X:X:X:X:X:X:X:X:X:X:X:X:X:X:X:X:X:X:X",
":X:X:X:X:X:X:X:X:X:X:Xj j j j a i - H.K.M.M.M.M.N.N.M.K.7 s l U c.c.v.v.v.v.c.:X:X:X:X:X:X:X:X:X:X:X:X:X:X:X:X:X:X:X",
":X:X:X:X:X:X:X:X:X:X:Xk l k j j i r ; G.F.M.M.M.m.m.K.3 d s l M r.c.b.v.v.c.n.:X:X:X:X:X:X:X:X:X:X:X:X:X:X:X:X:X:X:X",
":X:X:X:X:X:X:X:X:X:X:XK L K P M c p r * ; 2 2 3 2 2 : + y s k l #.c.v.v.v.n.c.v.:X:X:X:X:X:X:X:X:X:X:X:X:X:X:X:X:X:X",
":X:X:X:X:X:X:X:X:X:X:Xe.c.k.f.r.2.I B c d + O + O . O r a j k j x *.c.c.n.c.n.n.e.:X:X:X:X:X:X:X:X:X:X:X:X:X:X:X:X:X",
":X:X:X:X:X:X:X:X:X:Xc.c.n.v.n.c.t.q.5.,.H G N g g f p a k k k k l K *.c.z.v.c.r.U :X:X:X:X:X:X:X:X:X:X:X:X:X:X:X:X:X",
":X:X:X:X:X:X:X:X:X:Xc.c.c.n.n.v.c.c.e.q.q.5.5.2.2.2.$.L x l k k k z x L #.%.U M l :X:X:X:X:X:X:X:X:X:X:X:X:X:X:X:X:X",
":X:X:X:X:X:X:X:X:X:Xk.c.c.v.c.n.n.c.c.c.e.k.k.k.k.c.c.e.9.K l k k k m N z z z j u a :X:X:X:X:X:X:X:X:X:X:X:X:X:X:X:X",
":X:X:X:X:X:X:X:X:X:Xt.k.c.c.v.c.c.n.9.$.9.c.c.c.c.v.k.c.c.r.K l k c _.{.S j j z z x M L 0.c.n.c.r.U l k M :X:X:X:X:X",
":X:X:X:X:X:X:X:X:X:Xf.x.k.x.v.v.c.r.M l I e.w.q.q.q.q.q.q.e.*.x g 0 }.@X[.1 x #.%.6.r.e.c.c.c.r.#.z k M 6.e.:X:X:X:X",
":X:X:X:X:X:X:X:X:X:Xe.j.y.p.x.k.c.6.C l I 5.3.3.1.5.3.3.5.5.2.C 1 J.!.'.].q V %.f.c.n.n.c.c.0.L z k M 6.e.t.t.:X:X:X",
":X:X:X:X:X:X:X:X:X:Xw.y.) O.j.k.k.%.l f H ,.3.1.3.3.1.<.5.1.Y g a 7 L.!.P.n z M *.c.c.f.r.*.K z k M 6.e.k.t.t.:X:X:X",
":X:X:X:X:X:X:X:X:X:X8.{ # _ p.t.e.#.p i G ,.,.3.1.3.<.<.3.,.G i r d 1 7 n k s z x #.%.U M x l k z U e.k.k.k.t.w.:X:X",
":X:X:X:X:X:X:X:X:X:X;.{ ) O.p.e.q.Z O O H ,.1.,.:X3.3.3.<.1.V O X i z Z M z k k z z z z z k s k g L e.k.k.k.k.w.:X:X",
":X:X:X:X:X:X:X:X:X:X5.:.' =.8.w.w.g . p R R W :X:X:X:X5.<.3.B . . i 6.f.r.P k s j j z x Z L Z x z x #.0.k.k.e.q.:X:X",
":X:X:X:X:X:X:X:X:X2.1.=.' :.5.5.Y s r c J R R :X:X:X:X:XW Y c . X B q.k.e.I s a a a s V %.e.e.%.Z z z G 6.q.q.5.:X:X",
":X:X:X:X:X:X:X:X:X2.1.` , , 4.<.H d i D ,.,.R :X:X:X:X:X:X:X:Xo O D 5.t.r.Z s y y a y l I w.t.e.%.Z g a N &.2.:X:X:X",
":X:X:X:X:X:X:X:X:X3.-., @ < :.4.G i h Y ,.,.,.:X:X:X:X:X:X:X:X:XO D 7.w.2.x a a y i y i g I 5.q.7.,.V p r m Y :X:X:X",
":X:X:X:X:X:X:X:X:X3.;.( # ^ 4.W N X g Y ,.3.:X:X:X:X:X:X:X:X:X:X:XW 5.q.Y s i f d r i r r p V &.5.2.Y N d p :X:X:X:X",
":X:X:X:X:X:X:X:X:X5.5.{ ' ' 3.3.c . g 3.<.2.:X:X:X:X:X:X:X:X:X:X:X,.5.1.B i d N g X r . X . p V 3.2.5.,.H :X:X:X:X:X",
":X:X:X:X:X:X:X:X:X3.;.:.=.4.1.W c i B ,.,.1.:X:X:X:X:X:X:X:X:X:X:X3.3.,.c . d Y H g O . . . . :X:X:X:X:X:X:X:X:X:X:X",
":X:X:X:X:X:X:X:X:X;.` _ ` 4.3.H h i G ,.<.,.:X:X:X:X:X:X:X:X:X:X3.1.<.J g O d Y 3.G d . . :X:X:X:X:X:X:X:X:X:X:X:X:X",
":X:X:X:X:X:X:X:X:X;.#   ! 1.<.G i p W <.<.3.:X:X:X:X:X:X:X:X:X:X3.3.5.G p O i D ,.,.B d . :X:X:X:X:X:X:X:X:X:X:X:X:X",
":X:X:X:X:X:X:X:X4.=.) Q _ ;.W b O f Y <.<.1.:X:X:X:X:X:X:X:X:X:X,.2.J c O t i c ,.3.Y B :X:X:X:X:X:X:X:X:X:X:X:X:X:X",
":X:X:X:X:X:X:X:X5.;.[ [ [ 3.7.m o c W 3.<.:X:X:X:X:X:X:X:X:X:X:X3.H b p r i i d B ,.3.,.:X:X:X:X:X:X:X:X:X:X:X:X:X:X",
":X:X:X:X:X:X:X:X:X5.1.1.1.3.,.N i N ,.,.<.:X:X:X:X:X:X:X:X:X:X:XH N p p c N c p g G ,.,.:X:X:X:X:X:X:X:X:X:X:X:X:X:X",
":X:X:X:X:X:X:X:X:X:X5.5.3.3.W m i B ,.,.,.:X:X:X:X:X:X:X:X:X:X:Xp i i c W ,.Y N d c H ,.:X:X:X:X:X:X:X:X:X:X:X:X:X:X",
":X:X:X:X:X:X:X:X:X:X:Xw.7.5.5.c i Y 1.3.:X:X:X:X:X:X:X:X:X:X:X:X. i c H <.<.<.Y N i m ,.5.:X:X:X:X:X:X:X:X:X:X:X:X:X",
":X:X:X:X:X:X:X:X:X:X:X:X:X5.,.b d G ,.3.:X:X:X:X:X:X:X:X:X:X:X:X:Xc H ,.<.<.<.<.Y G b B :X:X:X:X:X:X:X:X:X:X:X:X:X:X",
":X:X:X:X:X:X:X:X:X:X:X:X:X:X:XV i Y 3.:X:X:X:X:X:X:X:X:X:X:X:X:X:XW 3.3.1.3.3.<.2.3.H :X:X:X:X:X:X:X:X:X:X:X:X:X:X:X",
":X:X:X:X:X:X:X:X:X:X:X:X:X:X:X:X:X:X:X:X:X:X:X:X:X:X:X:X:X:X:X:X:X:X3.<.3.3.3.3.<.:X:X:X:X:X:X:X:X:X:X:X:X:X:X:X:X:X",
":X:X:X:X:X:X:X:X:X:X:X:X:X:X:X:X:X:X:X:X:X:X:X:X:X:X:X:X:X:X:X:X:X:X:X:X:X:X:X:X:X:X:X:X:X:X:X:X:X:X:X:X:X:X:X:X:X:X"
};
