/* XPM */
static char *_5[] = {
/* columns rows colors chars-per-pixel */
"58 59 200 2 ",
"   c #124D31",
".  c #115136",
"X  c #05442E",
"o  c #7C462C",
"O  c #7E482E",
"+  c #7B4227",
"@  c #7E4931",
"#  c #754B3B",
"$  c #794C3A",
"%  c #1C6847",
"&  c #23744F",
"*  c #246747",
"=  c #6E4B42",
"-  c #6B504F",
";  c #77584C",
":  c #6A5559",
">  c #74544C",
",  c #437F55",
"<  c #577F5B",
"1  c #7C6256",
"2  c #7E665D",
"3  c #797155",
"4  c #585468",
"5  c #585C79",
"6  c #4F5A7B",
"7  c #796A68",
"8  c #6F6B70",
"9  c #71717C",
"0  c #706A6D",
"q  c #824524",
"w  c #824A2D",
"e  c #864A29",
"r  c #8D512D",
"t  c #94562C",
"y  c #94582F",
"u  c #985526",
"i  c #834E32",
"p  c #855135",
"a  c #8C5432",
"s  c #8E5835",
"d  c #86553A",
"f  c #89573A",
"g  c #8D5B3C",
"h  c #87583D",
"j  c #905732",
"k  c #915934",
"l  c #935D39",
"z  c #96623B",
"x  c #99663E",
"c  c #8B5D42",
"v  c #855D45",
"b  c #8D6045",
"n  c #8A624B",
"m  c #86624C",
"M  c #926344",
"N  c #9A6740",
"B  c #9C6B43",
"V  c #936649",
"C  c #966A4C",
"Z  c #996D4C",
"A  c #886653",
"S  c #976D51",
"D  c #9B7355",
"F  c #9C7659",
"G  c #9F795B",
"H  c #A2744B",
"J  c #A5794E",
"K  c #A57C53",
"L  c #A97E52",
"P  c #A27D5D",
"I  c #A07754",
"U  c #9F7B61",
"Y  c #A17E62",
"T  c #34855C",
"R  c #278B5F",
"E  c #279C6A",
"W  c #36A16A",
"Q  c #3DBF78",
"!  c #508962",
"~  c #4A996B",
"^  c #58956A",
"/  c #6D946A",
"(  c #73926A",
")  c #7C926B",
"_  c #7A9E6E",
"`  c #5FA16B",
"'  c #43BE78",
"]  c #49BA76",
"[  c #51BC77",
"{  c #5CBA77",
"}  c #66B777",
"|  c #67B877",
" . c #71B676",
".. c #79B477",
"X. c #7FAA73",
"o. c #3AC078",
"O. c #34C279",
"+. c #AB8255",
"@. c #AC855B",
"#. c #AF8A5D",
"$. c #B18A5D",
"%. c #948C69",
"&. c #9C8A68",
"*. c #88916B",
"=. c #8E8D69",
"-. c #A68364",
";. c #A88666",
":. c #AB8966",
">. c #A48968",
",. c #AB8969",
"<. c #A98868",
"1. c #B28E61",
"2. c #B08C69",
"3. c #B18768",
"4. c #A7986E",
"5. c #B69365",
"6. c #B89667",
"7. c #B3936C",
"8. c #B6996F",
"9. c #BC9C6D",
"0. c #B8976A",
"q. c #BB9D71",
"w. c #B69770",
"e. c #84AA75",
"r. c #9AAD75",
"t. c #82B377",
"y. c #8BB176",
"u. c #94B076",
"i. c #BFA16F",
"p. c #A4AE76",
"a. c #AFAC76",
"s. c #BEA273",
"d. c #B6AB76",
"f. c #BCAA76",
"g. c #B4A574",
"h. c #C1A574",
"j. c #C4A976",
"k. c #C9A976",
"l. c #C6AC78",
"z. c #C8AF7B",
"x. c #C9B17D",
"c. c #365B93",
"v. c #395D94",
"b. c #335D9A",
"n. c #3A5F98",
"m. c #3A5A8E",
"M. c #386197",
"N. c #3A649B",
"B. c #3C699E",
"V. c #356099",
"C. c #3D6FA4",
"Z. c #3967AA",
"A. c #3E71A6",
"S. c #3D73AA",
"D. c #3B79B5",
"F. c #445C89",
"G. c #596687",
"H. c #5F748F",
"J. c #4B6B99",
"K. c #4A719B",
"L. c #59789E",
"P. c #4A618B",
"I. c #6D7688",
"U. c #757B8A",
"Y. c #657A96",
"T. c #426DA8",
"R. c #4073A6",
"E. c #4275AA",
"W. c #4578AD",
"Q. c #4C77AA",
"!. c #5C7DA4",
"~. c #436EB0",
"^. c #457CB4",
"/. c #457EBB",
"(. c #4C7EB1",
"). c #79879C",
"_. c #5B83AF",
"`. c #4B83BC",
"'. c #5484B6",
"]. c #5A85B2",
"[. c #5A8BBB",
"{. c #6190BF",
"}. c #6E86A5",
"|. c #4886C5",
" X c #538BC5",
".X c #528DCA",
"XX c #598DC4",
"oX c #5D94CC",
"OX c #5D90C6",
"+X c #6594C3",
"@X c #6B9ACA",
"#X c #699DD0",
"$X c #7DA6CF",
"%X c #75A3D2",
"&X c #7EAAD5",
"*X c #79A8D6",
"=X c #7EB0E0",
"-X c #80ABD6",
";X c #83AED9",
":X c None",
/* pixels */
":X:X:X:X:X:X:X:X:X:X:X:X:X:X:X:X:X:X:X:X:X:X:X:X:X:X:X:X:X:X:X:X:X:X:X:X:X:X:X:X:X:X:X:X:X:X:X:X:X:X:X:X:X:X:X:X:X:X",
":X:X:X:X:X:X:X:X:X:X:X:X:X:X:X:X:X:X:X:X:X:X:X:X:X:X:X:X:X:X:X:X:X:X:X:X:X:X:X:X:X:X:X:X:X:X:X:X:X:X:X:X:X:X:X:X:X:X",
":X:X:X:X:X:X:X:X:X:X:X:X:X:X:X:X:X:X:Xk :X:X:X:X:X:X:X:X:X:X:X:X:X:X:X:X:X:X:X:X:X:X:X:X:X:X:X:X:X:X:X:X:X:X:X:X:X:X",
":X:X:X:X:X:X:X:X:X:X:X:X:X:X:X:X:Xk k k k k :X:X:X:X:X:X:X:X:X:X:X:X:X:X:X:X:X:X:X:X:X:X:X:X:X:X:X:X:X:X:X:X:X:X:X:X",
":X:X:X:X:X:X:X:X:X:X:X:X:X:Xk k k k s k s k k :X:X:X:X:X:X:X:X:X:X:X:X:X:X:X:X:X:X:X:X:X:X:X:X:X:X:X:X:X:X:X:X:X:X:X",
":X:X:X:X:X:X:X:X:X:X:X:X:X:Xk j y t s A t g l k k :X:X:X:X:X:X:X:X:X:X:X:X:X:X:X:X:X:X:X:X:X:X:X:X:X:X:X:X:X:X:X:X:X",
":X:X:X:X:X:X:X:X:X:X:X:X:X:Xs y n I. X]._.].8 k k k :X:X:X:X:X:X:X:X:X:X:X:X:X:X:X:X:X:X:X:X:X:X:X:X:X:X:X:X:X:X:X:X",
":X:X:X:X:X:X:X:X:X:X:X:X:Xk y m !.|.^.oXoX.X+XI.l j k :X:X:X:X:X:X:X:X:X:X:X:X:X:X:X:X:X:X:X:X:X:X:X:X:X:X:X:X:X:X:X",
":X:X:X:X:X:X:X:X:X:X:X:X:Xk k 7 /.A.+X&X&X&X*X#X9 g j k :X:X:X:X:X:X:X:X:X:X:X:X:X:X:X:X:X:X:X:X:X:X:X:X:X:X:X:X:X:X",
":X:X:X:X:X:X:X:X:X:X:X:X:Xk k Y.S.C.+X;X-X&X-X&X@XY.k k :X:X:X:X:X:X:X:X:X:X:X:X:X:X:X:X:X:X:X:X:X:X:X:X:X:X:X:X:X:X",
":X:X:X:X:X:X:X:X:X:X:X:X:Xk c Q.S.R.].;X-X-X-X-X-XoX0 l k :X:X:X:X:X:X:X:X:X:X:X:X:X:X:X:X:X:X:X:X:X:X:X:X:X:X:X:X:X",
":X:X:X:X:X:X:X:X:X:X:X:X:Xk c ^.R.R.W.+X%X-X-X-X-X@X].c k :X:X:X:X:X:X:X:X:X:X:X:X:X:X:X:X:X:X:X:X:X:X:X:X:X:X:X:X:X",
":X:X:X:X:X:X:X:X:X:X:X:X:Xk m K.S.R.A.W. X#X&X-X*X`..XA k k k :X:X:X:X:X:X:X:X:X:X:X:X:X:X:X:X:X:X:X:X:X:X:X:X:X:X:X",
":X:X:X:X:X:X:X:X:X:X:X:X:Xr ; C.B.A.R.E..X.XXX[.(.S./.I.u k k k k :X:X:X:X:X:X:X:X:X:X:X:X:X:X:X:X:X:X:X:X:X:X:X:X:X",
":X:X:X:X:X:X:X:X:X:X:X:X:Xw O m.c.B.A.R.`.`.^.C.A.R.E.7 k k k k j H i.j.:X:X:X:X:X:X:X:X:X:X:X:X:X:X:X:X:X:X:X:X:X:X",
":X:X:X:X:X:X:X:X:X:X:X:X:Xo q 4 b.v.C.R.R.R.R.R.R.R./.A j k k k j x l.j.j.j.j.k.:X:X:X:X:X:X:X:X:X:X:X:X:X:X:X:X:X:X",
":X:X:X:X:X:X:X:X:X:X:X:X:X:Xw # b.c.M.C.A.A.R.R.R.W.!.c s k k k k x h.j.j.j.j.f.d.j.j.j.:X:X:X:X:X:X:X:X:X:X:X:X:X:X",
":X:X:X:X:X:X:X:X:X:X:X:X:X:Xo q 6 N.c.v.n.N.B.A.S.S.I.y j k s k s H l.j.j.j.j. .{ y.d.k.j.j.j.:X:X:X:X:X:X:X:X:X:X:X",
":X:X:X:X:X:X:X:X:X:X:X:X:X:Xo o = : N.c.c.c.m.T.A.A.1 u y k k k s @.j.j.j.j.p.[ O.Q ..k.j.f.k.j.j.j.:X:X:X:X:X:X:X:X",
":X:X:X:X:X:X:X:X:X:X:X:X:Xw o o o q : P.n.c.b.b.J.0 f 7 9 7 s j k 6.k.j.j.j.d.[ ' ' f.k.a.t...p.f.k.j.j.j.j.:X:X:X:X",
":X:X:X:X:X:X:X:X:X:X:X:X:Xi w o o w o > 5 J.4 = ; 1 Y.OXXX X9 t x h.j.j.j.j.j.j.y.r.j.j.y.Q Q '  .f.j.j.j.j.j.:X:X:X",
":X:X:X:X:X:X:X:X:X:X:X:X:Xj a o o o o w @ @ q $ 7 ).$X&X%X#X'.j B j.j.j.j.j.j.j.j.k.j.f. .' o.Q { d.l.r...p.j.h.:X:X",
":X:X:X:X:X:X:X:X:X:X:X:Xk k j s i w + @ = $ - !..X%X;X-X;X;X}.h @.l.j.j.l.h.0.f.j.j.j.j.f.u...} t.k.f.} Q '  .d.:X:X",
":X:X:X:X:X:X:X:X:X:X:X:Xz k j k k s i : G.Q././.|.%X;X-X;X&X}.j B l.j.j.1.a f C @.8.k.j.k.j.k.f.k.j.u.[ Q Q } f.j.:X",
":X:X:X:X:X:X:X:X:X:X:Xh.6.@.z s j r w G.T.Z.B.C.R.'.+X$X+XW.L.k L h.j.j.K + O + @ g Z ,.s.j.j.j.j.k.f.u.| ' t.k.j.:X",
":X:X:X:X:X:X:X:X:X:X:Xj.j.l.j.L M w + : T.c.c.v.M.C.T.A.A.D.8 k +.z.j.h.;.G Z b i o O @ V +.s.l.j.l.j.j.f.f.k.j.j.:X",
":X:X:X:X:X:X:X:X:X:Xj.k.j.j.j.j.6.C w o G.m.c.c.c.c.c.M.A.K.u k 1.j.j.s.,.<.<.-.P C d o o @ g +.9.h.j.j.j.j.j.j.j.:X",
":X:X:X:X:X:X:X:X:X:Xs.h.j.j.j.j.h.2.S i $ 4 n.c.c.c.c.c.B.G.s z 5.l.j.s.7.;.<.<.<.<.P S f O + O s B L 5.6.j.j.j.j.:X",
":X:X:X:X:X:X:X:X:Xh.h.j.j.j.j.j.h.w.;.G h + # 6 P.c.N.Z.K.1 k x 9.j.j.j.h.,.<.<.<.;.;.;.P F C c M i a s l H 1.i.j.k.",
":X:X:X:X:X:X:X:X:Xh.q.h.f.j.j.j.k.j.7.,.-.c w q # - 5 - r y k x h.j.j.j.l.h.s.,.<.-.<.-.;.;.;.,.-.F C z z l y N J :X",
":X:X:X:X:X:X:X:Xw.i.r.g.j.j.j.j.l.l.j.8.2.-.S i + o + e s s s H h.j.j.j.j.j.l.:X:X:X:X:X;.;.;.;.;.;.;.Y P I N s l :X",
":X:X:X:X:X:X:X,.7.e.] X.g.h.j.k.6.K 9.k.j.q.7.;.V p w r s k y z j.j.j.j.j.j.:X:X:X:X:X:X:X:X:X;.-.;.;.;.;.;.-.F Z :X",
":X:X:X:X:X:X:X,.4.,   ` s.s.j.6.N r N s.j.l.h.j.9.#.k k k k k k 9.l.j.j.j.j.j.:X:X:X:X:X:X:X:X:X:X;.;.;.;.;.;.;.:X:X",
":X:X:X:X:X:X,.,.*.W W e.q.s.h.K j l 3.s.q.j.j.j.j.l.#.x k k k z $.l.j.j.j.j.j.:X:X:X:X:X:X:X:X:X:X:X:X;.;.;.:X:X:X:X",
":X:X:X:X:X:X,.<.&.) _ 4.9.i.5.s p V ;.<.,.,.7.s.j.j.h.@.a k k k +.j.j.j.j.j.j.:X:X:X:X:X:X:X:X:X:X:X:X:X:X:X:X:X:X:X",
":X:X:X:X:X,.,.=./ %.,.2.8.s.V o + D <.;.;.<.;.,.,.i.h.h.k k s s z @.j.j.j.j.l.:X:X:X:X:X:X:X:X:X:X:X:X:X:X:X:X:X:X:X",
":X:X:X:X:X,.<.! & / <.,.7.Z w + v ;.<.;.;.<.<.;.<.,.q.s.H a y u s z J 9.i.j.9.:X:X:X:X:X:X:X:X:X:X:X:X:X:X:X:X:X:X:X",
":X:X:X:X,.3.=.* X 3 3.,.G p i d F Y -.,.,.<.<.<.<.<.,.7.B y h ).@Xn t z x z l :X:X:X:X:X:X:X:X:X:X:X:X:X:X:X:X:X:X:X",
":X:X:X,.,.,./ T T <.,.,.b o o S Y U Y :X:X:X<.;.<.;.,.@.k A R.OX=X).t k s s k :X:X:X:X:X:X:X:X:X:X:X:X:X:X:X:X:X:X:X",
":X:X:X,.,.&.<.%.) <.<.C O i F <.-.Y :X:X:X:X,.,.;.<.P d e ; D.R.'.`.s k k k k :X:X:X:X:X:X:X:X:X:X:X:X:X:X:X:X:X:X:X",
":X:X,.>.~ ! ( >.<.,.+.$ O b -.<.,.;.:X:X:X:X:X,.<.<.V O w y K.W.|.L.V #.6.+.H B z :X:X:X:X:X:X:X:X:X:X:X:X:X:X:X:X:X",
":X:X,.) % . ~ ,.,.,.C o @ P ;.<.,.:X:X:X:X:X:X:X<.G @ o O e b 7 2 k y J j.j.j.i.9.h.h.j.:X:X:X:X:X:X:X:X:X:X:X:X:X:X",
":X:X;./ E R ( ,.<.S p O D ,.-.<.,.:X:X:X:X:X:X:XU c + o O B J x k s j x 5.l.j.k.l.j.l.j.h.9.L :X:X:X:X:X:X:X:X:X:X:X",
":X:X,.=./ ^ %.<.D p o b -.;.;.<.:X:X:X:X:X:X:X:X:X:Xo p G 8.h.1.x s k z J h.l.j.l.j.h.5.$.H l k :X:X:X:X:X:X:X:X:X:X",
":X:X:X2.<.,.3.,.c o O G ;.;.;.:X:X:X:X:X:X:X:X:X:X:X:Xb ;.q.j.h.B k k k l H L +.$.@.J N l j j l K :X:X:X:X:X:X:X:X:X",
":X:X:X7.,.,.,.P i O Z <.;.;.<.:X:X:X:X:X:X:X:X:X:X:X:XD 7.q.s.:.z s s y k l k k j l s a k x L 6.9.:X:X:X:X:X:X:X:X:X",
":X:X:X8.2.,.;.V o c -.;.;.;.:X:X:X:X:X:X:X:X:X:X:X:XU ,.9.8.3.l r a a s s x Z l k j j x #.6.i.h.s.s.:X:X:X:X:X:X:X:X",
":X:X:X:X7.;.-.p @ D ;.;.;.,.:X:X:X:X:X:X:X:X:X:X:X:X,.,.,.,.Z i p r a a s B 1.6.+.k s N 9.h.j.q.q.q.:X:X:X:X:X:X:X:X",
":X:X:X:X:X7.S o V ,.;.;.;.:X:X:X:X:X:X:X:X:X:X:X:X,.<.<.,.V w w f p a p r l 5.s.s.+.s z 7.s.s.s.s.q.:X:X:X:X:X:X:X:X",
":X:X:X:X:X:XC i P ;.;.,.:X:X:X:X:X:X:X:X:X:X:X:X:X,.,.,.D i o d D p w i i w #.q.s.5.B s +.s.s.s.s.8.:X:X:X:X:X:X:X:X",
":X:X:X:X:X:X:XM ;.;.:X:X:X:X:X:X:X:X:X:X:X:X:X:X,.,.,.-.c o w D ,.d O w w w b ;.8.7.K s g 6.s.9.8.8.:X:X:X:X:X:X:X:X",
":X:X:X:X:X:X:X:X:X:X:X:X:X:X:X:X:X:X:X:X:X:X:X:X2.Y D i o o p Y 7.S + O o O @ H 7.7.;.g w C 7.7.7.:X:X:X:X:X:X:X:X:X",
":X:X:X:X:X:X:X:X:X:X:X:X:X:X:X:X:X:X:X:X:X:X:XF S c i @ @ o d -.,.Y i o @ o o b ,.,.,.Z O p ;.2.:X:X:X:X:X:X:X:X:X:X",
":X:X:X:X:X:X:X:X:X:X:X:X:X:X:X:X:X:X:X:X:X:X:Xp i o d p w w i -.3.Y h o O :X:X:X:X,.,.D d w Z :X:X:X:X:X:X:X:X:X:X:X",
":X:X:X:X:X:X:X:X:X:X:X:X:X:X:X:X:X:X:X:X:X:X:Xw w c P Y C p i F ,.;.Z o :X:X:X:X:X:X,.,.F :X:X:X:X:X:X:X:X:X:X:X:X:X",
":X:X:X:X:X:X:X:X:X:X:X:X:X:X:X:X:X:X:X:X:X:XV c S Y ,.,.-.V o Z <.,.P :X:X:X:X:X:X:X:X:X:X:X:X:X:X:X:X:X:X:X:X:X:X:X",
":X:X:X:X:X:X:X:X:X:X:X:X:X:X:X:X:X:X:X:X:X:X:X,.,.,.<.<.;.D i c Y ,.:X:X:X:X:X:X:X:X:X:X:X:X:X:X:X:X:X:X:X:X:X:X:X:X",
":X:X:X:X:X:X:X:X:X:X:X:X:X:X:X:X:X:X:X:X:X:X:X,.,.<.,.<.,.-.V i P ,.:X:X:X:X:X:X:X:X:X:X:X:X:X:X:X:X:X:X:X:X:X:X:X:X",
":X:X:X:X:X:X:X:X:X:X:X:X:X:X:X:X:X:X:X:X:X:X:X:X,.,.,.<.,.<.P f D ;.:X:X:X:X:X:X:X:X:X:X:X:X:X:X:X:X:X:X:X:X:X:X:X:X"
};
