/* XPM */
static char *_0[] = {
/* columns rows colors chars-per-pixel */
"17 17 160 2 ",
"   c #030A02",
".  c #030B02",
"X  c #040C03",
"o  c #040D03",
"O  c #050E04",
"+  c #061004",
"@  c #071105",
"#  c #071205",
"$  c #071306",
"%  c #081306",
"&  c #081406",
"*  c #091507",
"=  c #0A1608",
"-  c #0A1708",
";  c #0A1808",
":  c #0B1908",
">  c #0B1809",
",  c #0B1A08",
"<  c #0B1B08",
"1  c #0B1A09",
"2  c #0C1A09",
"3  c #0C1B09",
"4  c #0D1A0A",
"5  c #0F1F0D",
"6  c #101E0D",
"7  c #0F200D",
"8  c #10210D",
"9  c #11220D",
"0  c #11210E",
"q  c #12250F",
"w  c #142710",
"e  c #142611",
"r  c #142711",
"t  c #142811",
"y  c #162912",
"u  c #172B12",
"i  c #192C13",
"p  c #182D14",
"a  c #182C15",
"s  c #192E15",
"d  c #1B3017",
"f  c #1C3317",
"g  c #1D3318",
"h  c #1D3418",
"j  c #1D3519",
"k  c #21381B",
"l  c #223A1C",
"z  c #223A1F",
"x  c #233C1F",
"c  c #243C1F",
"v  c #253D1F",
"b  c #263E20",
"n  c #274021",
"m  c #284123",
"M  c #2D4726",
"N  c #2E4827",
"B  c #2F4928",
"V  c #304B29",
"C  c #324D2B",
"Z  c #314A2D",
"A  c #324E2C",
"S  c #36512F",
"D  c #37522F",
"F  c #385331",
"G  c #3B5633",
"H  c #3D5736",
"J  c #3C5834",
"K  c #3F5834",
"L  c #3F5835",
"P  c #415D39",
"I  c #445F3D",
"U  c #44613C",
"Y  c #466343",
"T  c #486540",
"R  c #496441",
"E  c #4E6A46",
"W  c #4F6C46",
"Q  c #4F6C47",
"!  c #516D49",
"~  c #526F4A",
"^  c #53704B",
"/  c #56734E",
"(  c #577350",
")  c #5A7652",
"_  c #5A7752",
"`  c #5D7855",
"'  c #5D7955",
"]  c #5F7A56",
"[  c #5F7B57",
"{  c #627D59",
"}  c #627E5A",
"|  c #65815C",
" . c #66815D",
".. c #658160",
"X. c #678360",
"o. c #6A8661",
"O. c #6D8764",
"+. c #6E8865",
"@. c #718C69",
"#. c #738D6B",
"$. c #789270",
"%. c #7C9673",
"&. c #7D9675",
"*. c #819A79",
"=. c #859E7D",
"-. c #859E7E",
";. c #88A181",
":. c #8DA486",
">. c #90A787",
",. c #92A98B",
"<. c #94AA8B",
"1. c #96AC8F",
"2. c #97AD90",
"3. c #9FB598",
"4. c #A2B59A",
"5. c #A3B79C",
"6. c #A5B99E",
"7. c #A7BBA0",
"8. c #A9BCA3",
"9. c #ADBFA6",
"0. c #ADC0A7",
"q. c #B3C6AE",
"w. c #B4C6AD",
"e. c #B6C7B0",
"r. c #BBCAB5",
"t. c #BBCCB5",
"y. c #BCCCB8",
"u. c #BFCEB9",
"i. c #C0CEBA",
"p. c #CBD7C6",
"a. c #CCD8C9",
"s. c #CEDAC9",
"d. c #CFDACC",
"f. c #D1DCCD",
"g. c #D2DCCD",
"h. c #D5DFD1",
"j. c #D6DFD2",
"k. c #D6E0D2",
"l. c #D9E2D6",
"z. c #DAE3D7",
"x. c #DBE4D8",
"c. c #DFE6DB",
"v. c #DFE7DD",
"b. c #E0E8DD",
"n. c #E0E8DE",
"m. c #E1E8DE",
"M. c #E1E9DE",
"N. c #E2E8DF",
"B. c #E2E9E0",
"V. c #E3EAE0",
"C. c #E6EBE1",
"Z. c #E6ECE3",
"A. c #E8EEE6",
"S. c #E9EEE7",
"D. c #EBF0E9",
"F. c #EFF4ED",
"G. c #F2F5F1",
"H. c #F4F7F3",
"J. c #FAFBFA",
"K. c None",
/* pixels */
"K.K.K.K.K.K.X o p ; X K.K.K.K.K.K.",
"K.K.K.K.X @ > L K i > @ X K.K.K.K.",
"K.K.  o = q ` ..c c g q = o   K.K.",
"K.K.X 2 u V =.Q Q Q G V u 2 X K.K.",
"K.< 4 u V #.8.-.;.-. .~ W B 6 . K.",
"K.9 k M T :.s.q.u.q.B.x.7._ n + K.",
"  & S D ] 6.v.M.b.S.N.a.r.3.( t   ",
"  ; F | %.w.D.G.H.V.l.t.%.$.X.j   ",
"  ; h o.>.z.F.J.J.Z.m.e.%.U F H O ",
"  - f P 2.p.C.H.A.k.c.i.,.E l Z , ",
"% 7 y C ^ <.h.n.f.l.g.9.1./ y $   ",
"K.5 3 b ! 4.y.5.0.j.d.} [ O.m O K.",
"K.e A Y +.*.) @.@.@.&.' b z B   K.",
"K.K.@ a 8 v N J J J { I 8 4 : K.K.",
"K.K.    # 1 w s s s R x #     K.K.",
"K.K.K.K.  O # * * d r 0   K.K.K.K.",
"K.K.K.K.K.K.    % % O K.K.K.K.K.K."
};
