/* XPM */
static char *_0[] = {
/* columns rows colors chars-per-pixel */
"75 75 133 2 ",
"   c #342F35",
".  c #363536",
"X  c #373338",
"o  c #3A353C",
"O  c #3B3B3B",
"+  c #3F3E40",
"@  c #423D44",
"#  c #463F48",
"$  c #434343",
"%  c #4C444E",
"&  c #4B4B4C",
"*  c #4F4751",
"=  c #4F4A50",
"-  c #524C54",
";  c #564C58",
":  c #535353",
">  c #59525B",
",  c #5B5B5B",
"<  c #5E5660",
"1  c #5F5A60",
"2  c #605662",
"3  c #625A63",
"4  c #685C6A",
"5  c #646464",
"6  c #676069",
"7  c #6A616D",
"8  c #6C6C6C",
"9  c #6E6171",
"0  c #6F6971",
"q  c #746777",
"w  c #776C7A",
"e  c #7B6E7F",
"r  c #737373",
"t  c #797779",
"y  c #7B7B7B",
"u  c #EC0E0E",
"i  c #EB1313",
"p  c #E61D1D",
"a  c #EC1C1C",
"s  c #DE3434",
"d  c #DB3B3B",
"f  c #E32626",
"g  c #EE2020",
"h  c #E22B2B",
"j  c #EE2929",
"k  c #E03030",
"l  c #ED3636",
"z  c #EC3A3A",
"x  c #F03434",
"c  c #F23F3F",
"v  c #BA7E7E",
"b  c #D74646",
"n  c #DA4040",
"m  c #D44E4E",
"M  c #DB4D4D",
"N  c #CE5C5C",
"B  c #D55757",
"V  c #D75D5D",
"C  c #DA5B5B",
"Z  c #E34444",
"A  c #E64C4C",
"S  c #EA4C4C",
"D  c #F04343",
"F  c #F34D4D",
"G  c #E35454",
"H  c #EB5252",
"J  c #E35A5A",
"K  c #EC5C5C",
"L  c #F25656",
"P  c #F55C5C",
"I  c #CD6565",
"U  c #C76E6E",
"Y  c #CC6C6C",
"T  c #D36464",
"R  c #DC6464",
"E  c #D36868",
"W  c #DC6969",
"Q  c #C77474",
"!  c #CC7272",
"~  c #C27B7B",
"^  c #E46262",
"/  c #EF6969",
"(  c #F46464",
")  c #F56B6B",
"_  c #F86C6C",
"`  c #F37373",
"'  c #F97575",
"]  c #F67D7D",
"[  c #F97D7D",
"{  c #7F7182",
"}  c #817385",
"|  c #837985",
" . c #857688",
".. c #867A89",
"X. c #8A7E8C",
"o. c #848384",
"O. c #8B818E",
"+. c #8C8C8C",
"@. c #8E8491",
"#. c #908693",
"$. c #938B95",
"%. c #968F98",
"&. c #949494",
"*. c #979198",
"=. c #9A949B",
"-. c #9D9A9D",
";. c #BF8787",
":. c #BD8B8B",
">. c #B29595",
",. c #BB9393",
"<. c #B49D9D",
"1. c #B99C9C",
"2. c #9F9AA0",
"3. c #A19DA2",
"4. c #A5A4A5",
"5. c #AEA3A3",
"6. c #A7A6A8",
"7. c #A9A7A9",
"8. c #ABABAB",
"9. c #B5A3A3",
"0. c #B8A1A1",
"q. c #B2ACAC",
"w. c #B0AFB0",
"e. c #B1B1B1",
"r. c #C18484",
"t. c #C18989",
"y. c #F68383",
"u. c #F98585",
"i. c #F78D8D",
"p. c #F98A8A",
"a. c #FA9494",
"s. c #FB9A9A",
"d. c None",
/* pixels */
"d.d.d.d.d.d.d.d.d.d.d.d.d.d.d.d.d.d.d.d.d.d.d.d.d.d.d.d.d.d.d.d.d.e.0.Y W R ! :.e.e.d.d.d.d.d.d.d.d.d.d.d.d.d.d.d.d.d.d.d.d.d.d.d.d.d.d.d.d.d.d.d.d.d.",
"d.d.d.d.d.d.d.d.d.d.d.d.d.d.d.d.d.d.d.d.d.d.d.d.d.d.d.d.e.e.e.e.e.e.9.T J ( K B 9.e.e.e.e.e.e.d.d.d.d.d.d.d.d.d.d.d.d.d.d.d.d.d.d.d.d.d.d.d.d.d.d.d.d.",
"d.d.d.d.d.d.d.d.d.d.d.d.d.d.d.d.d.d.d.d.d.d.d.d.d.y 8.e.e.e.e.e.e.e.q.M K ' ` A ,.e.e.e.e.e.e.4.+.&.d.d.d.d.d.d.d.d.d.d.d.d.d.d.d.d.d.d.d.d.d.d.d.d.d.",
"d.d.d.d.d.d.d.d.d.d.d.d.d.d.d.d.d.d.d.d.d.d.4.o.r y 4.e.e.e.e.e.e.e.0.Z _ y.[ J :.8.e.e.e.e.e.&.o.o.&.e.e.d.d.d.d.d.d.d.d.d.d.d.d.d.d.d.d.d.d.d.d.d.d.",
"d.d.d.d.d.d.d.d.d.d.d.d.d.d.d.d.d.d.d.d.e.e.4.r 8 r 3.e.e.e.e.e.e.e.1.A ' u.y.K ;.e.e.e.e.e.e.+.y y +.w.w.w.e.d.d.d.d.d.d.d.d.d.d.d.d.d.d.d.d.d.d.d.d.",
"d.d.d.d.d.d.d.d.d.d.d.d.d.d.d.d.d.d.e.e.e.e.-.r 8 r 4.e.e.e.e.e.e.e.1.A ] u.y.K t.e.e.e.e.e.e.+.r r +.w.w.w.w.w.e.d.d.d.d.d.d.d.d.d.d.d.d.d.d.d.d.d.d.",
"d.d.d.d.d.d.d.d.d.d.d.d.d.d.d.d.d.e.e.e.e.e.&.r 5 r 4.e.e.e.e.e.e.e.1.A y.u.y.H r.e.e.e.e.e.e.y 5 5 y e.w.w.w.e.e.e.d.d.d.d.d.d.d.d.d.d.d.d.d.d.d.d.d.",
"d.d.d.d.d.d.d.d.d.d.d.d.d.d.d.8.e.e.e.e.e.e.&.8 5 r 8.e.e.e.e.e.e.e.1.A y.u.y.S r.e.e.e.e.e.e.y 5 5 y e.w.w.w.w.e.e.e.e.d.d.d.d.d.d.d.d.d.d.d.d.d.d.d.",
"d.d.d.d.d.d.d.d.d.d.d.d.d.d.8.w.e.e.e.e.e.e.+.5 8 y e.e.e.e.e.e.e.e.,.H y.u.u.H r.e.e.e.e.e.e.y , , r e.e.e.e.e.e.e.w.w.e.d.d.d.d.d.d.d.d.d.d.d.d.d.d.",
"d.d.d.d.d.d.d.d.d.d.d.d.d.w.w.w.e.e.e.e.e.e.+.5 5 &.e.e.e.e.e.e.e.e.t.S y.p.u.H r.e.e.e.e.e.e.8 : : 8 e.e.8.e.e.e.e.w.w.e.w.d.d.d.d.d.d.d.d.d.d.d.d.d.",
"d.d.d.d.d.d.d.d.d.d.d.d.w.8.w.8.e.e.e.e.e.e.+.5 5 r e.e.e.e.e.e.e.e.~ S p.a.p.S r.e.e.e.e.e.e.8 : & 5 e.e.e.e.e.e.w.w.w.e.e.e.d.d.d.d.d.d.d.d.d.d.d.d.",
"d.d.d.d.d.d.d.d.d.d.d.w.w.w.w.e.e.e.e.e.e.e.y 5 5 r e.e.e.e.e.e.e.e.Q S i.a.a.S r.e.e.e.e.e.e.8 & & , 8.e.e.8.e.e.e.w.w.e.e.e.e.d.d.d.d.d.d.d.d.d.d.d.",
"d.d.d.d.d.d.d.d.d.d.w.8.w.w.w.w.e.e.e.e.e.e.y , , r e.e.e.e.e.e.e.e.! H s.s.a.z r.e.e.e.e.e.e.8 $ $ , e.e.e.e.e.e.e.e.w.w.w.w.w.w.d.d.d.d.d.d.d.d.d.d.",
"d.d.d.d.d.d.d.d.d.w.8.w.w.8.8.w.e.e.e.e.e.e.8 : : r e.e.e.e.e.e.e.e.! K s.s.a.h r.e.e.e.e.e.e.8 $ & : e.e.e.e.e.e.8.e.e.e.w.w.w.w.w.d.d.d.d.d.d.d.d.d.",
"d.d.d.d.d.d.d.d.8.w.e.e.w.e.e.e.e.e.e.e.e.e.8 : : r e.e.e.e.e.e.e.e.! ) s.s.i.f r.e.e.e.e.e.e.8 $ & : e.e.e.e.e.e.e.e.w.e.w.w.w.w.w.e.d.d.d.d.d.d.d.d.",
"d.d.d.d.d.d.d.6.8.8.8.8.w.e.8.w.e.e.e.e.e.e.5 & : r e.e.e.e.e.e.e.e.! [ s.s.u.f ,.e.e.e.e.e.e.5 $ $ , e.e.e.e.e.e.e.w.e.w.w.w.8.e.e.e.e.d.d.d.d.d.d.d.",
"d.d.d.d.d.d.d.8.7.w.w.w.w.w.w.w.w.w.e.e.e.e.{ # : r e.e.e.e.e.e.e.e.E ` s.a.y.f 1.e.e.e.e.e.e.5 $ $ , e.e.e.e.e.e.e.e.e.e.e.e.e.e.8.e.e.d.d.d.d.d.d.d.",
"d.d.d.d.d.d.7.8.7.w.w.7.w.w.w.w.w.w.e.e.e.e.< # & r e.e.e.e.e.e.e.e.E ] s.s.' h 0.e.e.e.e.e.e.5 $ + , e.e.e.e.e.e.e.e.e.e.e.e.e.e.8.e.8.e.d.d.d.d.d.d.",
"d.d.d.d.d.3.7.8.7.w.7.w.w.w.w.w.w.e.e.e.e.e.> $ $ y e.e.e.e.e.e.e.e.T y.s.a._ h q.e.e.e.e.e.e.5 $ $ , e.e.e.e.e.e.e.e.e.e.e.e.8.e.e.8.e.e.e.d.d.d.d.d.",
"d.d.d.d.d.3.7.8.7.7.w.w.w.w.w.w.w.w.e.e.e.e.: + & o.e.e.e.e.e.e.e.e.V y.s.a.( h e.e.e.e.e.e.e.5 $ $ : e.e.e.e.e.e.e.e.e.e.e.e.e.e.e.e.e.e.e.d.d.d.d.d.",
"d.d.d.d.3.3.7.7.7.w.7.w.w.w.w.w.e.e.e.e.e.e.= + $ o.e.e.e.e.e.e.e.e.R u.a.a.P f e.e.e.e.e.e.e.8 $ $ , e.e.e.e.e.e.e.e.e.8.e.e.e.e.e.e.8.e.e.e.d.d.d.d.",
"d.d.d.d.3.3.7.7.7.w.w.w.w.w.w.w.e.e.e.e.e.e.$ + $ &.e.e.e.e.e.e.e.e.V u.p.p.c f q.e.e.e.e.e.e.8 $ + , e.e.e.e.e.e.e.e.e.e.e.e.e.e.8.e.e.e.e.e.d.d.d.d.",
"d.d.d.%.=.3.3.7.7.7.7.7.w.w.w.w.e.e.w.w.e.e.$ + + &.e.e.e.e.e.e.e.e.R u.p.u.z j 0.e.e.e.e.e.e.5 + $ : e.e.e.e.e.e.e.e.e.e.e.e.8.e.e.e.e.e.e.e.e.d.d.d.",
"d.d.d.X.=.2.7.7.7.7.w.w.7.w.w.w.e.e.w.w.e.w.+ . $ &.e.e.e.e.e.e.e.e.W u.p.[ x j 0.e.e.e.e.e.e., O O , e.e.e.e.e.e.e.e.e.e.e.e.e.e.e.e.e.e.e.e.e.d.d.d.",
"d.d.d.%.2.2.7.7.7.7.w.7.w.w.w.w.w.w.e.w.e.4.+ . O &.e.e.e.e.8.e.e.e.W u.p.[ j h 0.e.e.e.e.e.e.: . O 5 e.e.e.e.e.e.e.e.e.e.e.e.e.e.e.e.e.8.e.e.8.d.d.d.",
"d.d.X.X.X.2.2.3.7.q.7.w.7.w.w.7.8.e.w.e.e.-.$ O $ &.e.e.e.e.e.e.e.e.^ y.u.' g k 0.e.e.e.e.e.e.& . O 5 e.e.e.e.e.e.e.e.e.e.e.e.e.8.e.e.e.e.e.e.e.e.d.d.",
"d.d.X.$.X.7.2.2.7.7.w.7.w.7.w.w.e.8.8.e.e.&.+ + $ &.e.e.e.e.e.e.e.e.^ ] [ ) g h t.e.e.e.e.e.e.: . O 8 e.e.e.e.e.e.e.e.e.e.e.e.e.e.e.e.8.e.e.8.e.e.d.d.",
"d.d.X.X.X.X.2.2.2.7.w.7.7.w.7.w.w.w.w.e.e.+.+ O $ &.e.e.8.e.e.e.e.e.J ` ' P a h ! e.e.e.e.e.e.: . . r e.e.e.e.e.e.e.e.e.e.e.e.e.e.e.e.e.e.e.e.e.e.d.d.",
"d.X.X.X.X.%.2.2.2.w.7.7.w.w.7.w.w.w.8.e.e.+.O O $ -.e.e.e.8.e.e.e.e.J _ _ P u k ~ e.e.e.e.e.e.$ . . 8 e.e.e.e.e.e.e.e.e.e.e.e.e.8.e.e.e.e.e.e.e.e.e.d.",
"d.X. .X.X.X.=.2.2.7.7.w.w.7.w.w.w.8.w.w.e.o.O O $ 4.e.e.e.e.8.e.e.e.J _ _ P u k r.e.e.e.e.e.e.$ . . r e.e.e.e.e.e.e.e.e.e.8.8.e.e.e.e.e.e.e.8.8.e.e.d.",
"d. . .X.X.%.=.2.2.7.7.7.7.w.w.7.w.w.8.w.w.y + . $ -.e.e.e.e.e.e.e.e.G _ _ P u s r.e.e.e.e.e.e.& . . 8 e.e.e.e.e.e.e.e.8.e.8.8.e.e.e.e.e.8.8.e.8.8.e.d.",
"d.X. . .X.X.X.2.2.2.7.7.w.7.7.w.8.w.w.8.w.8 + . $ 4.e.8.e.8.e.e.e.e.G ( ( F i d ,.e.e.e.e.e.8.$ . O r e.e.e.e.e.e.8.8.8.8.8.e.8.8.e.8.e.8.e.8.8.e.e.d.",
"d.{ { { X.X.X.=.2.2.6.6.6.w.w.8.8.8.8.e.e.5 O O : -.8.e.e.8.8.e.e.e.C L P c p n ,.e.e.e.e.e.4.$ . . r e.e.e.e.e.8.8.e.8.8.e.8.8.e.8.e.8.e.8.8.8.8.8.d.",
"; {  .{ X.X.X.%.2.2.3.6.7.8.8.8.e.8.e.8.e., $ O : &.e.e.e.e.e.e.e.8.B S c l f b 5.e.8.e.e.e.4.$ . . y e.e.8.8.e.8.8.8.8.8.8.8.8.8.8.8.8.8.8.8.8.&.r r ",
"# ; { {  .X.X.%.=.2.3.6.6.8.8.8.8.8.8.e.8.5 $ $ 5 &.e.8.8.e.8.e.e.q.I l z g f m e.e.e.e.e.e.4.$ . O y e.e.e.e.8.e.8.8.8.8.8.e.8.8.8.8.8.8.e.8.4.8 , 5 ",
"# # # {  . .X.$.%.2.3.3.6.7.8.8.8.8.8.8.8., $ $ 5 &.8.e.8.8.e.e.8.9.~ h a p s U e.e.8.e.e.e.8.$ O $ y e.e.e.e.8.8.8.e.8.8.8.8.8.8.8.8.8.8.8.4.8 : , , ",
"2 # + # 4 {  .X.#.=.2.3.6.6.6.8.8.8.e.8.4., $ $ r 4.8.8.8.8.8.8.e.q.>.N s n U <.e.8.e.e.e.e.8.& $ $ y e.e.e.8.8.8.8.8.8.8.8.8.8.8.8.8.8.8.&.5 : , : y ",
"{ ; # + + ;  .X.$.%.2.2.2.6.6.6.8.8.8.8.-.: & & y 8.8.8.8.8.8.e.8.e.e.e.e.e.e.e.e.e.e.e.e.e.4.& $ $ o.e.e.8.8.8.8.8.8.8.8.8.8.8.8.8.4.&.y : & & : y 4.",
"{ { ; +     > { X.%.%.2.2.4.6.6.8.8.8.8.&.& & & +.4.8.8.8.8.8.8.8.8.8.e.e.8.e.8.8.e.e.8.8.8.-.& $ $ o.8.8.8.8.8.8.8.8.4.4.8.8.4.8.8.&., $ $ $ : r 4.-.",
"{ { { ; + + + ; { #.%.=.2.3.6.4.4.8.8.8.+.& & : &.8.8.8.8.4.8.8.4.8.4.8.8.8.8.8.8.8.8.8.8.8.&.& $ $ o.8.8.8.8.8.4.8.8.4.8.8.4.8.&.5 $ . . O & y 4.-.4.",
"{ { { { ; + +   + < ..=.2.2.3.4.4.8.8.8.+.& $ : -.8.8.8.8.8.8.8.8.8.8.8.8.4.8.8.8.8.8.8.8.8.&.& $ $ o.8.8.8.8.8.8.8.8.8.8.8.+.5 $ . . O O : r &.4.4.8.",
"{ { { { { 2 + + +   + 1 O.2.2.3.8.4.6.8.o.& & : 4.8.8.8.8.8.8.8.8.8.8.8.8.8.8.8.8.4.8.8.8.8.+.& $ & o.8.8.4.8.4.8.4.4.8.&.8 $ O . O O & 5 o.&.4.4.4.8.",
"d. .{ { {  .4 # + +     + $ : 5 y o.o.&.o.: & , 6.8.8.8.8.8.8.8.8.8.8.8.8.8.8.8.8.8.8.8.8.8.&.& $ & o.8.4.8.8.8.4.&.r , $ O O O $ $ , o.&.4.4.4.4.4.d.",
"d.{ {  .{ {  .{ > % + +       + O $ & : : $ & 8 8.6.8.8.8.8.8.8.8.8.8.>.~ ~ >.4.8.8.8.8.8.8.-.: & & r +.+.r 8 , & $ O $ $ $ & : 5 y 4.4.8.4.4.8.8.4.d.",
"d.{ { {  . . .X.| w 3 $ @ O . . O + + & & $ : o.6.8.6.8.8.8.8.8.8.8.>.C H G Y 5.8.8.8.8.8.4.4., : $ & : & $ $ O $ O $ & & , 8 +.4.4.8.8.6.6.4.8.6.4.d.",
"d.{  . .{  .X. .X.O.O.v 0 , = & $ $ & : : , r &.6.8.6.8.8.8.8.8.8.8.U H F F B <.8.8.8.8.8.8.4.r : & & & $ $ $ $ $ & : 8 +.4.8.8.8.4.4.4.6.8.8.4.8.8.d.",
"d... .{ {  . .X.X...O.@.@.#.$.=.=.o.y y y &.4.4.8.4.4.8.6.8.8.8.8.8.R ( / L b 5.8.8.8.8.8.8.4.&.r 5 5 , & : : , r +.4.4.8.4.8.4.8.4.6.6.8.6.8.8.8.e.d.",
"d.d.{ {  .{ X. ...O.O.@.#.#.#.$.=.-.-.3.4.4.4.4.6.4.8.4.8.4.8.8.8.8.! / ( H m 8.8.8.8.8.8.8.4.4.&.&.&.&.&.4.8.4.4.8.4.8.4.8.4.8.6.8.8.8.6.8.8.4.8.d.d.",
"d.d. .{ } }  ...X.X.X.X.#.#.$.$.$.=.-.-.2.4.4.4.7.7.7.6.8.6.8.8.5.8.>.I G m +.4.8.8.8.4.8.8.8.4.8.8.4.4.4.4.8.4.8.4.4.8.4.8.4.8.8.8.4.8.4.8.4.8.8.d.d.",
"d.d.{  .{ }  ...X...X.X.#.#.#.$.$.*.=.=.2.2.4.4.4.7.6.6.4.8.6.6.8.8.8.8.8.8.8.8.4.8.8.8.8.8.8.8.8.4.4.8.8.4.4.8.8.8.8.4.8.8.4.8.6.8.8.8.8.8.8.8.4.d.d.",
"d.d.d. .} }  .....X.X.X.@.@.#.$.$.*.=.=.-.-.2.4.6.4.6.6.8.4.8.7.8.8.8.8.8.8.8.8.8.8.8.8.8.4.8.4.4.4.8.4.4.8.8.4.4.8.4.8.4.8.8.8.8.6.8.6.4.8.4.4.d.d.d.",
"d.d.d.{ } } {  .X.X...X.X.@.#.$.$.$.%.*.=.-.2.3.4.4.4.4.6.4.4.7.4.8.8.5.8.8.8.8.8.8.8.4.8.8.8.4.8.8.4.8.8.4.8.8.8.8.8.8.8.8.8.4.6.8.6.8.8.8.8.8.d.d.d.",
"d.d.d.X.{  .} } ..X.X.X.X.X.#.#.$.$.&.%.=.=.-.2.3.4.4.4.4.4.7.4.8.8.4.8.8.8.4.4.4.8.4.8.8.4.8.8.8.8.4.8.8.4.4.8.8.4.8.4.8.8.4.8.6.8.8.6.8.7.7.8.d.d.d.",
"d.d.d.d.{ { } } ..X.X.X.X.X.O.@.#.$.$.%.*.=.=.2.-.3.4.4.4.4.4.7.4.4.4.4.4.4.8.8.8.8.4.8.8.4.4.8.8.4.8.8.8.8.8.8.8.8.8.8.4.8.4.8.8.8.6.8.8.8.7.d.d.d.d.",
"d.d.d.d. .{ } } { X.X.X.X.X.O.@.#.#.$.%.%.*.=.=.-.-.2.4.4.4.4.4.8.4.4.8.4.8.4.4.8.8.8.8.8.4.8.8.8.8.8.8.4.4.8.4.8.4.8.8.8.4.8.8.8.6.8.6.7.8.w.d.d.d.d.",
"d.d.d.d.d. .{ } { ..X.X.X.X.X.X.O.@.#.$.$.$.*.=.-.-.-.3.3.4.4.4.4.4.4.4.8.4.8.8.4.4.8.4.8.4.8.4.8.4.8.4.8.8.8.8.8.8.4.8.8.8.8.4.8.6.6.6.8.7.d.d.d.d.d.",
"d.d.d.d.d. .} } {  ...X.X.X.X.X.X.O.@.$.$.$.%.*.=.=.-.2.2.3.4.4.4.4.8.4.4.8.4.8.4.8.4.8.8.8.8.8.8.4.8.4.8.8.8.4.4.8.8.8.8.8.4.8.8.7.7.8.6.6.d.d.d.d.d.",
"d.d.d.d.d.d.} }  .{  .X.X.X.X.X.O.O.O.@.#.$.$.%.*.=.=.-.2.2.2.5.&.4.4.8.4.4.4.4.4.4.8.4.8.4.8.4.8.8.8.8.4.4.8.8.4.8.4.8.4.8.8.8.7.7.8.7.8.d.d.d.d.d.d.",
"d.d.d.d.d.d.d.} { {  ...X.X.X.X.X.O.X.O.O.$.$.$.%.*.=.=.-.-.2.3.8.4.4.&.4.4.4.4.4.8.4.4.4.8.4.8.8.4.4.8.8.8.4.8.8.8.8.8.4.8.4.8.6.8.6.8.d.d.d.d.d.d.d.",
"d.d.d.d.d.d.d...{  .{  .X.X.X.X.X.O.X.O.O.O.@.$.$.$.*.*.=.-.-.2.&.8.4.4.4.4.4.4.4.4.4.4.4.4.4.8.4.8.8.8.8.4.8.8.8.4.4.8.8.8.4.8.8.6.8.8.d.d.d.d.d.d.d.",
"d.d.d.d.d.d.d.d.} } { }  .X.X.X.X.X.X.X.O.X.O.O.$.$.$.%.&.>.&.-.4.&.&.4.4.4.4.&.4.4.4.4.4.4.4.4.4.8.4.8.8.4.8.8.4.8.8.8.8.8.4.8.6.7.7.d.d.d.d.d.d.d.d.",
"d.d.d.d.d.d.d.d.d.} } } {  .X.X.X.X.X.O.X.O.O.O.O.@.#.$.&.&.$.*.&.4.&.4.&.4.4.5.4.4.4.4.4.8.4.4.4.4.4.4.4.8.4.8.8.8.4.4.4.8.8.8.8.8.d.d.d.d.d.d.d.d.d.",
"d.d.d.d.d.d.d.d.d.d.} }  .{  .X.X.X.X.O.X.O.X.X.O.O.O.#.&.+.+.&.&.&.5.&.&.4.&.4.4.4.4.8.4.4.4.4.4.8.4.4.8.8.4.8.4.8.8.8.8.8.4.8.8.d.d.d.d.d.d.d.d.d.d.",
"d.d.d.d.d.d.d.d.d.d.d.} { } }  .X.X.X.X.X.X.O.X.X.O.O.O.+.+.+.+.&.&.&.&.&.&.&.&.&.4.&.&.8.&.4.4.4.&.4.4.&.4.4.8.&.4.4.4.4.4.8.4.d.d.d.d.d.d.d.d.d.d.d.",
"d.d.d.d.d.d.d.d.d.d.d.d.} } } }  ...X.X.X.O.X.O.X.X.O.X.O.@.@.@.@.@.$.$.$.*.*.=.=.=.-.=.-.-.2.4.4.3.4.3.4.4.3.4.4.3.4.4.4.3.4.d.d.d.d.d.d.d.d.d.d.d.d.",
"d.d.d.d.d.d.d.d.d.d.d.d.d.} } { {  ...X.X.X.X.X.X.O.X.X.X.X.O.O.@.@.@.@.#.$.$.*.*.*.=.=.=.=.*.=.-.2.3.4.3.4.4.2.4.4.2.4.2.4.d.d.d.d.d.d.d.d.d.d.d.d.d.",
"d.d.d.d.d.d.d.d.d.d.d.d.d.d.} { { }  ...X.X.X.X.X.X.X.X.X.X.X.X.O.O.@.@.O.@.@.$.$.$.$.*.*.=.*.*.*.*.=.-.-.2.-.3.2.3.4.3.-.d.d.d.d.d.d.d.d.d.d.d.d.d.d.",
"d.d.d.d.d.d.d.d.d.d.d.d.d.d.d...{ { } { | ....X.X.X.X.X.X.X.X.X.X.X.X.O.O.O.O.@.@.@.$.$.#.$.%.*.*.%.*.*.=.=.=.-.-.-.=.=.d.d.d.d.d.d.d.d.d.d.d.d.d.d.d.",
"d.d.d.d.d.d.d.d.d.d.d.d.d.d.d.d.d.{ { { { {  ...X...O...X.X.X.......X.......X.X.O.X.O.@.@.@.@.#.$.%.%.$.*.*.=.=.=.*.d.d.d.d.d.d.d.d.d.d.d.d.d.d.d.d.d.",
"d.d.d.d.d.d.d.d.d.d.d.d.d.d.d.d.d.d. .{ { { { {  .| ..................| ....| ......| ..X.O.O.O.O.+.#.$.$.$.$.&.#.d.d.d.d.d.d.d.d.d.d.d.d.d.d.d.d.d.d.",
"d.d.d.d.d.d.d.d.d.d.d.d.d.d.d.d.d.d.d.d. .{ { { t }  . .| ......| ..| | .... . . . . .{ {  ...X.X.X.O.O.#.#.O.d.d.d.d.d.d.d.d.d.d.d.d.d.d.d.d.d.d.d.d.",
"d.d.d.d.d.d.d.d.d.d.d.d.d.d.d.d.d.d.d.d.d.d. .{ { { { { { { {  . .|  . . . .} } { { { { { { { { | ..O...| d.d.d.d.d.d.d.d.d.d.d.d.d.d.d.d.d.d.d.d.d.d.",
"d.d.d.d.d.d.d.d.d.d.d.d.d.d.d.d.d.d.d.d.d.d.d.d.d.{ { { { { { e { { { } { } { { { { { { { { { { { } d.d.d.d.d.d.d.d.d.d.d.d.d.d.d.d.d.d.d.d.d.d.d.d.d.",
"d.d.d.d.d.d.d.d.d.d.d.d.d.d.d.d.d.d.d.d.d.d.d.d.d.d.d.d. .e { { { { { { { { { { { { } { { e  .d.d.d.d.d.d.d.d.d.d.d.d.d.d.d.d.d.d.d.d.d.d.d.d.d.d.d.d.",
"d.d.d.d.d.d.d.d.d.d.d.d.d.d.d.d.d.d.d.d.d.d.d.d.d.d.d.d.d.d.d.d.d.| } { { t } }  . .d.d.d.d.d.d.d.d.d.d.d.d.d.d.d.d.d.d.d.d.d.d.d.d.d.d.d.d.d.d.d.d.d."
};
