/* XPM */
static char *_1[] = {
/* columns rows colors chars-per-pixel */
"75 75 130 2 ",
"   c #353535",
".  c #3C3C3C",
"X  c #3F3D40",
"o  c #403E40",
"O  c #434343",
"+  c #474548",
"@  c #494749",
"#  c #4B4B4B",
"$  c #514D52",
"%  c #545454",
"&  c #575358",
"*  c #59555A",
"=  c #5C5C5C",
"-  c #636364",
";  c #676169",
":  c #6B6B6B",
">  c #726D73",
",  c #766E78",
"<  c #747474",
"1  c #777578",
"2  c #7A757B",
"3  c #7C7B7C",
"4  c #EC0E0E",
"5  c #E71515",
"6  c #E71B1B",
"7  c #EA1B1B",
"8  c #DE3131",
"9  c #DA3B3B",
"0  c #E52323",
"q  c #EC2020",
"w  c #E22C2C",
"e  c #EB2B2B",
"r  c #F12727",
"t  c #F02B2B",
"y  c #EE3333",
"u  c #F03333",
"i  c #F13F3F",
"p  c #BB7F7F",
"a  c #D64545",
"s  c #D44D4D",
"d  c #DD4E4E",
"f  c #CE5E5E",
"g  c #D05757",
"h  c #DF5555",
"j  c #D45F5F",
"k  c #DD5B5B",
"l  c #E04242",
"z  c #EF4242",
"x  c #E34B4B",
"c  c #EB4C4C",
"v  c #F24444",
"b  c #F34D4D",
"n  c #EA5252",
"m  c #E35B5B",
"M  c #EF5D5D",
"N  c #F35353",
"B  c #F35B5B",
"V  c #C76060",
"C  c #CE6767",
"Z  c #CC6B6B",
"A  c #D46363",
"S  c #DC6363",
"D  c #D46B6B",
"F  c #DB6E6E",
"G  c #C57575",
"H  c #CA7575",
"J  c #C57979",
"K  c #C97D7D",
"L  c #D17171",
"P  c #E26464",
"I  c #EB6565",
"U  c #E26969",
"Y  c #EB6E6E",
"T  c #F26363",
"R  c #F86464",
"E  c #F46A6A",
"W  c #F86D6D",
"Q  c #EF7575",
"!  c #F67474",
"~  c #F87070",
"^  c #F67B7B",
"/  c #F97A7A",
"(  c #7F7182",
")  c #827385",
"_  c #837A85",
"`  c #857788",
"'  c #867A89",
"]  c #897E8C",
"[  c #838383",
"{  c #8C818E",
"}  c #8C8B8C",
"|  c #8E8591",
" . c #908792",
".. c #938B95",
"X. c #968F98",
"o. c #949494",
"O. c #979198",
"+. c #9A959B",
"@. c #9D9B9D",
"#. c #BD8585",
"$. c #BD8C8C",
"%. c #AE9C9C",
"&. c #B29696",
"*. c #BC9393",
"=. c #B59B9B",
"-. c #BA9B9B",
";. c #9F9BA0",
":. c #A19EA1",
">. c #A5A4A5",
",. c #ADA2A2",
"<. c #A7A7A8",
"1. c #A8A6A8",
"2. c #A5AFAF",
"3. c #ABABAB",
"4. c #B4A4A4",
"5. c #B2ACAC",
"6. c #B0AFB0",
"7. c #AEB3B3",
"8. c #AEB9B9",
"9. c #B1B1B1",
"0. c #B0B8B8",
"q. c #B9B9B9",
"w. c #C28383",
"e. c #C28D8D",
"r. c #F68181",
"t. c #F98686",
"y. c #FA8A8A",
"u. c #FA9494",
"i. c #FB9B9B",
"p. c None",
/* pixels */
"p.p.p.p.p.p.p.p.p.p.p.p.p.p.p.p.p.p.p.p.p.p.p.p.p.p.p.p.p.p.p.p.q.p.9.9.>.[ - < o.p.q.p.p.p.p.p.p.p.p.p.p.p.p.p.p.p.p.p.p.p.p.p.p.p.p.p.p.p.p.p.p.p.p.",
"p.p.p.p.p.p.p.p.p.p.p.p.p.p.p.p.p.p.p.p.p.p.p.p.p.p.p.0.9.9.9.9.9.9.9.3.o.1 < 1 >.9.9.9.9.0.q.p.p.p.p.p.p.p.p.p.p.p.p.p.p.p.p.p.p.p.p.p.p.p.p.p.p.p.p.",
"p.p.p.p.p.p.p.p.p.p.p.p.p.p.p.p.p.p.p.p.p.p.p.p.p.9.9.9.9.9.9.9.6.9.9.>.3 : : [ 3.9.9.9.9.9.9.9.5.J D p.p.p.p.p.p.p.p.p.p.p.p.p.p.p.p.p.p.p.p.p.p.p.p.",
"p.p.p.p.p.p.p.p.p.p.p.p.p.p.p.p.p.p.p.p.p.p.q.9.9.9.9.9.9.9.9.9.9.9.6.} : : : @.9.9.9.9.9.9.9.9.-.j P P L p.p.p.p.p.p.p.p.p.p.p.p.p.p.p.p.p.p.p.p.p.p.",
"p.p.p.p.p.p.p.p.p.p.p.p.p.p.p.p.p.p.p.p.9.9.9.9.9.9.9.9.9.9.9.9.9.0.@.3 - : [ <.7.9.9.9.9.9.9.5.Z n I M P J 9.p.p.p.p.p.p.p.p.p.p.p.p.p.p.p.p.p.p.p.p.",
"p.p.p.p.p.p.p.p.p.p.p.p.p.p.p.p.p.p.0.9.9.9.9.9.9.9.9.9.9.9.9.9.9.9.} - - : @.9.9.9.9.9.9.9.9.=.d T ! ^ n J 6.6.p.p.p.p.p.p.p.p.p.p.p.p.p.p.p.p.p.p.p.",
"p.p.p.p.p.p.p.p.p.p.p.p.p.p.p.p.p.9.9.9.9.9.9.9.9.9.9.9.9.9.9.9.9.>.3 - - 3 9.9.9.9.9.9.9.9.5.K c / t./ n $.5.6.9.9.p.p.p.p.p.p.p.p.p.p.p.p.p.p.p.p.p.",
"p.p.p.p.p.p.p.p.p.p.p.p.p.p.p.3.9.9.9.9.9.9.9.9.9.9.6.9.9.9.9.6.9.} : = : o.9.9.9.9.9.9.9.9.4.k E r.t.E D -.7.6.9.6.9.9.p.p.p.p.p.p.p.p.p.p.p.p.p.p.p.",
"p.p.p.p.p.p.p.p.p.p.p.p.p.p.3.6.9.9.9.9.9.9.9.9.9.9.9.9.9.9.9.9.>.< = - < 9.9.9.9.9.9.9.9.9.e.n r.t.r.B K 4.9.9.6.9.9.3.>.p.p.p.p.p.p.p.p.p.p.p.p.p.p.",
"p.p.p.p.p.p.p.p.p.p.p.p.p.6.6.6.3.9.9.9.9.9.9.9.9.9.9.9.9.9.9.q.[ = % = } 9.9.9.9.9.9.9.7.4.S T t.t.! m $.9.9.9.9.6.9.:.o.} p.p.p.p.p.p.p.p.p.p.p.p.p.",
"p.p.p.p.p.p.p.p.p.p.p.p.6.6.6.6.9.9.9.9.9.9.9.9.9.9.9.9.9.9.9.3.: % % : >.9.9.9.9.9.9.9.5.w.x ^ y.y.B Z =.7.9.9.9.9.6.o.[ [ o.p.p.p.p.p.p.p.p.p.p.p.p.",
"p.p.p.p.p.p.p.p.p.p.p.6.3.3.6.3.9.9.9.9.9.9.9.9.9.9.9.9.9.9.9.} = # % 3 q.9.q.9.9.9.7.q.-.j B y.y.r.n w.9.9.9.9.9.9.:.[ 3 [ o.9.p.p.p.p.p.p.p.p.p.p.p.",
"p.p.p.p.p.p.p.p.p.p.3.3.6.6.3.6.9.9.9.9.9.q.9.9.9.q.9.9.9.9.9.: # # - @.9.9.9.9.9.9.9.q.J x r.u.u.I S *.0.9.9.9.9.9.} < : 3 :.7.9.p.p.p.p.p.p.p.p.p.p.",
"p.p.p.p.p.p.p.p.p.3.6.6.3.6.6.3.3.9.3.9.9.9.9.9.9.9.9.9.9.q.o.% O % 3 9.9.9.9.9.q.9.9.-.A M u.i.u.c J 5.9.9.9.9.9.:.< - : [ 3.9.6.9.p.p.p.p.p.p.p.p.p.",
"p.p.p.p.p.p.p.p.1.3.3.5.7.9.6.3.9.9.9.9.9.9.9.9.9.9.9.9.9.q.: O O = o.q.9.9.9.9.9.9.0.w.m r.i.i.! d $.7.9.9.9.9.9.} - = - o.0.9.6.6.9.p.p.p.p.p.p.p.p.",
"p.p.p.p.p.p.p.1.3.3.3.3.3.3.3.6.5.9.3.9.9.9.9.9.9.q.9.9.9.>.# O O < 3.9.9.9.9.q.9.9.5.L E i.i.i.z C 4.0.9.9.9.9.3.: % % < >.9.6.9.6.9.9.p.p.p.p.p.p.p.",
"p.p.p.p.p.p.p.3.1.3.3.3.6.3.3.3.6.6.6.9.6.9.7.6.3.9.9.9.q.< . . % } q.9.9.9.9.9.9.0.#.U t.i.i.^ w e.9.9.9.9.9.0.o.= # = 3 9.9.9.9.3.9.9.p.p.p.p.p.p.p.",
"p.p.p.p.p.p.1.1.1.1.3.6.6.3.6.6.6.6.6.6.9.6.6.6.9.9.9.9.3.O . . 3 3.9.9.9.q.9.9.9.9.D Q u.u.u.z s -.9.9.9.9.9.9.< # O = o.9.9.9.9.9.9.9.9.p.p.p.p.p.p.",
"p.p.p.p.p.p.1.1.1.1.3.3.3.3.6.3.6.6.6.6.7.6.6.6.9.9.9.9.[   . # @.9.9.9.9.9.9.9.0.*.U t.i.u.^ 0 $.9.9.9.9.9.9.@.= O # = 3.9.9.9.3.9.9.9.6.9.p.p.p.p.p.",
"p.p.p.p.p.( :.1.1.1.1.3.3.3.3.6.3.6.6.6.6.9.6.9.9.9.9.3.%     : 3.9.q.9.9.9.9.9.7.C Q u.i.y.N a 4.9.9.9.9.9.9.3 # O # [ q.9.5.9.9.6.9.9.9.6.p.p.p.p.p.",
"p.p.p.p.* > ;.<.1.1.1.3.3.3.3.6.3.6.6.6.6.6.9.6.9.9.3.[ .   . o.3.9.9.9.9.9.9.9.-.m y.i.u.! e #.9.9.9.9.9.9.3.- O O % >.9.9.9.9.9.9.9.3.6.9.9.p.p.p.p.",
"p.p.p.p.& - } 1.1.1.3.3.3.3.3.3.6.6.6.6.6.9.5.7.9.9.@.=   . - >.9.9.9.9.9.9.9.0.H Y y.i.t.b 9 9.9.9.9.9.9.q.[ # O O : q.9.9.9.9.3.9.9.9.9.9.9.p.p.p.p.",
"p.p.p.; * % 1 :.>.<.3.1.3.6.3.6.3.9.9.9.9.9.7.5.9.3.[ O . O [ 9.9.9.9.9.9.9.9.5.S t.y.u.T e J 0.9.9.9.9.9.9.- O O # o.q.9.9.9.9.9.9.6.9.6.9.9.9.p.p.p.",
"p.p.p.2 * $ =  .:.1.1.3.3.3.3.3.3.6.9.9.3.9.3.7.7.@.-     % @.9.9.9.3.9.9.9.9.e.Y y.y./ u w 5.9.9.9.9.9.9.o.% O O - 9.9.9.9.9.3.9.3.9.6.9.6.3.9.p.p.p.",
"p.p.` ` ; $ @ < :.<.1.3.3.3.3.3.3.9.9.5.6.6.2.6.6.[ O   . 3 3.9.9.3.9.9.9.9.7.F r.y.t.N q g 0.9.9.9.9.9.9.< # . # [ 9.9.9.9.9.9.9.9.6.9.9.3.3.9.p.p.p.",
"p.p.` _ , $ o &  .1.<.<.1.3.3.5.3.3.3.7.6.6.6.9.@.-     O >.9.9.9.9.9.3.3.7.-.I t.t./ u 0 e.9.9.9.9.9.9.>.= O O % 3.9.9.9.9.9.7.9.9.9.3.9.9.9.3.9.p.p.",
"p.p.` _ ` * o X : >.<.1.3.3.3.3.6.3.7.5.2.6.2.2.1 O   . < 3.9.9.9.3.9.9.9.7.F W t./ N 7 a 4.9.9.q.9.9.q.3 # . O < q.9.9.9.9.9.9.9.3.9.9.9.9.9.9.9.p.p.",
"p.p.` ' ' > @ . @ } >.<.1.3.3.3.3.6.3.3.7.7.8.o.= . . @ o.3.9.9.9.9.9.9.7.4.m ! / W t 0 G 9.q.9.9.9.9.3.- O O % >.9.9.9.9.9.9.9.9.9.6.9.9.3.3.9.6.9.p.",
"p.' ` ' ] _ = O X : >.1.1.3.3.3.3.6.3.6.6.6.0.p # . O : >.3.9.3.3.9.9.9.8.K M ~ W b 7 w $.9.9.9.9.9.q.} # . O - q.9.9.9.9.9.9.9.9.9.9.9.9.9.6.9.6.9.p.",
"p.` ) ' ] ] , # o o 3 >.1.<.>.3.3.3.3.6.6.3.>.= @ . % [ 3.9.9.3.9.9.9.9.3.m E W R r 7 s *.q.9.9.9.9.9.%     # } q.9.9.9.9.9.9.9.9.9.9.3.9.3.6.3.6.9.p.",
"p.) ) ) ' ] ] - + . + ( <.3.1.3.3.3.3.3.6.3.[ # O @ : @.3.9.3.9.3.9.9.7.e.n W R N 4 w H 4.9.9.9.9.q.o.O   . - 9.5.9.9.9.9.9.9.9.9.9.6.9.9.3.6.6.6.6.p.",
"p.) ) ) ' ] | _ = + . # [ 3.3.3.3.3.3.3.3.@.= @ O - } >.3.9.9.3.3.9.9.9.D B R T u 5 a *.0.9.9.9.9.q.- .   # [ 9.9.9.9.9.9.9.9.9.9.3.9.9.9.9.9.6.6.6.p.",
"` ) ) ( ` ] | | 2 & o . o < :.7.3.3.3.3.>.3 # # # 3 >.3.3.3.9.3.9.9.9.=.h N B v 6 w Z 4.7.9.0.9.q.,.O     = 3.9.9.9.9.9.9.9.9.9.9.9.9.9.9.3.9.9.3.9.9.",
"p.) ) ) ( ' { ....1 % O   . * 3 @.3.3.3.o.- O # : o.3.3.3.3.3.5.3.9.3.w.x z i y 0 a *.3.9.9.9.9.q.<     O 3 0.9.9.9.9.9.9.9.9.9.9.9.9.9.9.9.9.3.9.9.p.",
"` ) ) ) ) ' ] | O.O.1 % o   . # < } @.>.[ # # # o.<.3.3.3.3.3.3.3.9.4.G w y r 0 8 J 5.7.9.9.9.9.9.#     = >.0.9.9.9.9.9.9.9.9.9.9.3.9.9.9.9.9.9.9.9.9.",
"` ) ) ( ) ` ] | ..O.o.3 % .   . O % < } : O # - <.3.3.3.3.3.3.3.3.9.5.p 8 7 7 w s 4.9.3.9.9.9.9.[     . < 9.9.9.q.9.9.9.9.9.9.9.9.9.9.9.9.3.9.9.9.9.9.",
"' ) ) ) ) ' ' ] ..O.+.@.} ; @ X O O # % # # % o.3.3.3.3.3.<.3.<.3.3.9.5.G 9 a f #.8.9.9.9.9.9.3.% .   % } q.9.9.9.9.9.9.9.9.9.9.3.9.9.3.9.3.9.9.9.6.9.",
"` ) ( ) ) ` ' ]  ...O.@.;.>.o.; # # # # # % < 3.3.3.3.3.3.3.3.<.3.3.3.3.8.9.&.4.5.9.9.9.9.9.9.} .   . : 3.9.9.9.9.9.9.9.9.9.9.9.9.9.9.9.9.9.9.9.6.9.9.",
") ) ) ) ) ' ' ] |  .O.+.+.;.>.o.3 : = % % : o.3.3.3.3.3.3.3.3.3.3.<.3.3.3.3.9.9.9.9.3.9.9.3.9.-     % } 0.9.9.9.9.9.9.7.9.3.5.9.9.9.9.9.9.9.9.3.9.3.9.",
"` ) ) ) ) ' ' ' { ....+.;.;.;.>.>.o.} [ [ o.<.3.3.3.3.3.3.<.3.3.3.3.3.3.3.3.3.3.3.9.9.9.9.9.>.#     : >.9.9.5.9.9.3.5.3.3.5.5.9.9.3.9.9.9.3.9.9.6.9.9.",
"` ) ) ) ) ` ` ' {  . .X.+.+.;.;.>.<.3.>.3.<.3.<.3.3.3.3.3.3.3.3.3.3.3.3.>.3.3.3.3.3.3.3.9.9.3 O . # } 9.9.9.3.9.3.3.5.3.2.3.2.5.9.9.9.9.9.9.3.9.9.9.9.",
"p.) ( ) ) ` ' ' ] {  ...+.;.;.;.>.>.>.<.>.<.3.<.<.<.3.3.3.3.3.3.3.3.3.3.3.3.3.3.3.3.3.3.3.>.% O O - @.9.3.9.9.3.5.3.3.5.5.3.5.7.3.9.3.9.3.9.9.9.9.7.p.",
"' ) ) ) ` ' ' ' ' | |  ...+.%.;.@.>.>.<.<.<.>.3.<.3.3.3.3.3.3.<.=.#.#.%.3.3.3.<.3.3.3.3.3.[ O O # [ 3.9.9.9.3.3.3.5.3.2.3.3.3.3.3.9.9.3.9.3.9.9.9.9.0.",
"p.) ) ) ) ' ' ' ] | | | ..+.+.;.@.>.>.>.<.>.3.>.<.<.<.3.3.3.3.#.j x k G ,.3.3.3.3.3.3.3.@.- . . - o.9.3.3.3.2.3.3.2.3.3.2.3.3.3.3.3.9.9.3.9.3.3.3.3.p.",
"p.) ( ) ) ` ' ' ] | | | ....o.%.@.:.>.>.>.3.3.>.<.<.3.<.3.2.4.S N b c j &.3.3.3.3.>.3.>.[ # O O 3 >.3.3.3.3.3.3.3.3.3.3.5.3.3.3.3.3.3.9.3.6.3.3.3.3.p.",
"p.) ) ) ) ` ' ' ' ] | | | ..O.+.@.@.:.>.>.>.>.<.3.<.>.3.1.3.$.I E T c f ,.3.3.3.3.3.3.@.: O O = o.3.3.3.3.3.3.>.3.3.3.3.3.3.3.3.3.<.3.3.3.3.3.6.3.9.p.",
"p.' ) ) ) ` ' ' ] ] | |  .....+.@.@.@.>.>.>.>.3.<.<.<.<.1.3.&.S T N l p 3.3.3.3.3.3.>.@.% # O < %.2.,.2.3.>.>.3.>.3.>.3.3.3.3.3.3.3.3.3.3.3.6.>.6.0.p.",
"p.' ) ) ) ` ' ' ' ] ] | }  ...o.o.@.@.@.>.>.>.>.<.<.<.>.3.1.1.#.k d V 3.3.3.3.3.3.3.3.} % # % [ 3.2.3.,.3.>.3.3.3.>.3.3.>.3.3.3.3.<.3.3.9.3.@.3 3 p.p.",
"p.p.) ) ) ) ) ' ' ] ] |  . . ...X.+.;.;.;.:.>.>.>.<.<.<.<.<.3.2.2.&.%.2.3.3.,.3.3.2.3.3 % O # < } o.>.7.7.3.3.3.3.>.3.3.3.3.3.>.<.>.3.>.o.3 - = = p.p.",
"p.p.` ) ) ) ` ` ] ] ] | |  . .....O.+.+.;.;.>.>.>.>.<.<.<.<.<.<.3.2.,.3.,.3.2.3.3.>.>.} = # # # # - : < } >.o.>.3.>.>.>.o.>.o.o.[ 3 : - % % % = = p.p.",
"p.p.p.) ) ) ) ` ' ' ] ] |  . . ...X.+.+.;.;.;.>.>.>.>.<.>.<.<.<.,.2.,.2.2.3.3.2.3.,.>.o.< - % # O . . O O # = = = : = % % # # O O . O O # # % - 3 p.p.",
"p.p.p.) ) ) ) ` ] ] ] ] ]  . . .....X.+.+.+.;.;.>.>.>.>.<.<.<.<.3.,.2.,.3.3.,.2.3.3.3.3.o.} 3 % O O O O O . . O O . O             . . O # : [ @.p.p.p.",
"p.p.p.' ) ) ) ) ' ] ] ] ] ] |  .......X.+.+.+.;.;.>.>.>.>.>.>.<.>.2.>.3.>.2.3.>.>.3.2.,.3.>.>.@.[ : % % # # # # O O O O . . O O # # = : [ @.<.>.p.p.p.",
"p.p.p.p.) ) ) ( ' ] ] ] ] | | | ......X.O.O.+.;.;.;.>.>.>.>.<.>.>.,.>.>.3.>.>.3.3.>.3.>.>.2.>.>.,.2.@.[ } [ 3 3 3 : < : : < < 3 3 [ } o.:.:.>.p.p.p.p.",
"p.p.p.p.) ) ( ) ` ' ] ] ] ] ] | | | ....X.O.;.+.;.;.;.>.>.>.>.>.,.2.>.3.3.>.>.>.>.3.>.3.,.>.>.3.3.>.3.3.3.3.3.>.3.,.>.>.>.>.3.>.>.>.>.>.>.>.<.p.p.p.p.",
"p.p.p.p.p.) ) ) ) ' ] ] ] ] ] ] | | | ....X.O.+.+.;.;.;.:.>.>.>.>.>.>.>.>.3.>.3.,.>.2.>.3.2.>.>.>.3.>.3.3.>.>.3.,.2.2.,.2.>.>.>.<.<.<.>.<.<.p.p.p.p.p.",
"p.p.p.p.p.' ( ) ) ) ' ] ] ] ] ] { { | | ..X.X.O.+.+.@.;.:.:.>.>.>.>.>.>.>.>.>.>.>.>.3.3.3.3.3.3.3.2.,.2.>.3.>.3.2.>.3.>.3.>.>.3.<.<.<.<.<.p.p.p.p.p.p.",
"p.p.p.p.p.p.` ( ) ) ' ' ] ] ] ] { ] | | | ....X.O.+.+.@.;.;.:.>.>.>.>.>.>.,.>.2.3.>.>.>.3.>.,.3.,.,.2.,.2.>.3.3.3.3.>.3.>.3.>.3.1.3.3.>.3.p.p.p.p.p.p.",
"p.p.p.p.p.p.p.( ( ( ) ' ] ] ] | { { { { | | X...X.O.+.+.+.@.;.:.>.>.>.>.>.>.>.>.>.>.>.>.>.>.3.2.2.,.,.2.,.2.3.>.>.>.3.3.>.3.3.3.1.1.>.3.p.p.p.p.p.p.p.",
"p.p.p.p.p.p.p.' ( ( ( ) ] ] ] ] ] ] ] { { { | ....X.O.+.+.+.+.%.o.>.>.>.>.>.>.>.3.>.>.>.>.>.>.>.>.2.2.,.2.,.3.>.3.3.3.>.3.3.3.>.<.3.3.3.p.p.p.p.p.p.p.",
"p.p.p.p.p.p.p.p.` ( ( ( ` ' ' ] ] ] ] ] ] { { | ........O.&.O.+.@.@.o.>.>.>.>.@.>.>.>.>.>.,.>.>.>.3.>.3.3.3.3.3.3.3.3.>.3.3.>.3.3.<.3.p.p.p.p.p.p.p.p.",
"p.p.p.p.p.p.p.p.p.( ( ( ) ) ' ] ] ] { ] { ] ] { { | ........X.O.o.@.@.>.o.>.o.>.>.,.>.>.>.>.>.>.>.>.>.>.>.3.>.3.>.>.3.3.>.3.3.3.<.3.p.p.p.p.p.p.p.p.p.",
"p.p.p.p.p.p.p.p.p.p.` ( ( ( ` ' ] ] ] ] ] ] ] ] { { { |  ...} o.o.o.@.o.o.>.>.o.>.o.@.>.>.>.>.>.>.>.>.>.o.>.>.>.>.2.3.>.3.3.>.3.3.p.p.p.p.p.p.p.p.p.p.",
"p.p.p.p.p.p.p.p.p.p.p.( ( ) ) ` ' ] ] ] ] { { ] ] ] { { |  .} } o.o.o.o.o.o.o.%.>.o.@.>.>.o.>.>.>.>.>.>.>.>.>.>.>.,.>.>.>.>.3.>.p.p.p.p.p.p.p.p.p.p.p.",
"p.p.p.p.p.p.p.p.p.p.p.p.` ( ( ( ) ' ] ] ] ] ] ] ] ] { ] { | | | | | ......O.O.O.+.@.+.+.+.;.;.>.>.:.>.:.>.:.>.>.>.>.>.>.>.:.>.p.p.p.p.p.p.p.p.p.p.p.p.",
"p.p.p.p.p.p.p.p.p.p.p.p.p.2 ( ( ( ) ' _ ] ' _ ] ] ] ] ] ] ] { { | | | | | ..X...O.O.+.+.+.+.+.+.;.;.:.:.:.>.:.:.:.>.:.:.1.:.p.p.p.p.p.p.p.p.p.p.p.p.p.",
"p.p.p.p.p.p.p.p.p.p.p.p.p.p.` ( 2 ( ( _ ' ] ] ' ] ] ] _ ] ] ] ] { { | { | | | ..X...X.X.+.O.+.O.O.O.+.;.;.;.:.:.:.:.:.:.;.p.p.p.p.p.p.p.p.p.p.p.p.p.p.",
"p.p.p.p.p.p.p.p.p.p.p.p.p.p.p.` ( ( ( ( ) ' _ ] _ ] ] ] ] ] ] ] ] ] ] ] { | { | | | .... . .X.X.X...O.+.+.+.+.;.+.;.;.+.p.p.p.p.p.p.p.p.p.p.p.p.p.p.p.",
"p.p.p.p.p.p.p.p.p.p.p.p.p.p.p.p.p.) ( ( ( ( ` _ ' ' ' ] ] ] ] ] ] ] ] ] ] ] ] ] ] ] | | | | |  .......X.X.O.+.+.+.+.p.p.p.p.p.p.p.p.p.p.p.p.p.p.p.p.p.",
"p.p.p.p.p.p.p.p.p.p.p.p.p.p.p.p.p.p.p.` ( ( ( ( ` ' _ ] ' ] ] ' ] ' ] ' ' ] ' ' ' ' ` ` ] { ] | |  ... ...X.X.O. .p.p.p.p.p.p.p.p.p.p.p.p.p.p.p.p.p.p.",
"p.p.p.p.p.p.p.p.p.p.p.p.p.p.p.p.p.p.p.p.) ( ( ( ( ( ) ` _ ' ' ' ] ' ' ' ' ' ' ` ` ` ( ) ( ` ' ] { ] { |  . .| p.p.p.p.p.p.p.p.p.p.p.p.p.p.p.p.p.p.p.p.",
"p.p.p.p.p.p.p.p.p.p.p.p.p.p.p.p.p.p.p.p.p.p.) ( ( ( ( ( ( ( ) ` ` ` ' ` ` ' ` ` ` ( ( ` ( ) ( ` ' ] { { ] p.p.p.p.p.p.p.p.p.p.p.p.p.p.p.p.p.p.p.p.p.p.",
"p.p.p.p.p.p.p.p.p.p.p.p.p.p.p.p.p.p.p.p.p.p.p.p.` ( ` ( ( ( ( ( ( ( ) ( ) ) ( ( ( ) ) ( ) ) ) ) ) ` p.p.p.p.p.p.p.p.p.p.p.p.p.p.p.p.p.p.p.p.p.p.p.p.p.",
"p.p.p.p.p.p.p.p.p.p.p.p.p.p.p.p.p.p.p.p.p.p.p.p.p.p.p.p._ ` ( ( ( ( ( ( ( ( ( ( ( ( ( ) ) ) ` ' p.p.p.p.p.p.p.p.p.p.p.p.p.p.p.p.p.p.p.p.p.p.p.p.p.p.p.",
"p.p.p.p.p.p.p.p.p.p.p.p.p.p.p.p.p.p.p.p.p.p.p.p.p.p.p.p.p.p.p.p.' p.` ( ' ( ` ` ` p.' p.p.p.p.p.p.p.p.p.p.p.p.p.p.p.p.p.p.p.p.p.p.p.p.p.p.p.p.p.p.p.p."
};
