/* XPM */
static char *_2[] = {
/* columns rows colors chars-per-pixel */
"75 75 122 2 ",
"   c #363636",
".  c #3C3C3C",
"X  c #444444",
"o  c #4C4C4C",
"O  c #535353",
"+  c #5C5C5C",
"@  c #646364",
"#  c #6B6B6B",
"$  c #706F70",
"%  c #737373",
"&  c #787778",
"*  c #7C7C7C",
"=  c #E81313",
"-  c #E41E1E",
";  c #EC1D1D",
":  c #DF2A2A",
">  c #DC3434",
",  c #DA3C3C",
"<  c #E72222",
"1  c #EB2525",
"2  c #E22B2B",
"3  c #ED2B2B",
"4  c #F12E2E",
"5  c #E23131",
"6  c #EC3232",
"7  c #F13434",
"8  c #F03939",
"9  c #BE7F7F",
"0  c #DB4444",
"q  c #D74A4A",
"w  c #DB4B4B",
"e  c #CC5C5C",
"r  c #DE5353",
"t  c #DF5B5B",
"y  c #EA4141",
"u  c #E44848",
"i  c #ED4D4D",
"p  c #F24242",
"a  c #F24D4D",
"s  c #E35353",
"d  c #EC5454",
"f  c #E25D5D",
"g  c #EC5B5B",
"h  c #F55757",
"j  c #F45B5B",
"k  c #CB6666",
"l  c #C66C6C",
"z  c #CB6C6C",
"x  c #D46262",
"c  c #DC6363",
"v  c #D46C6C",
"b  c #DA6F6F",
"n  c #C57373",
"m  c #CB7373",
"M  c #C27C7C",
"N  c #C97B7B",
"B  c #D37373",
"V  c #D87171",
"C  c #E26363",
"Z  c #EC6262",
"A  c #E46A6A",
"S  c #EF6969",
"D  c #F46363",
"F  c #F26C6C",
"G  c #F86D6D",
"H  c #EA7676",
"J  c #EE7B7B",
"K  c #F37474",
"L  c #F97777",
"P  c #F67C7C",
"I  c #FA7C7C",
"U  c #7D6F80",
"Y  c #7F7182",
"T  c #817485",
"R  c #837986",
"E  c #857788",
"W  c #867A89",
"Q  c #897E8C",
"!  c #848484",
"~  c #878688",
"^  c #8C818E",
"/  c #8B8B8B",
"(  c #8E8591",
")  c #908792",
"_  c #938B95",
"`  c #968F98",
"'  c #939393",
"]  c #979198",
"[  c #9A959B",
"{  c #9D9B9D",
"}  c #BE8686",
"|  c #B68C8C",
" . c #BD8C8C",
".. c #AF9B9B",
"X. c #B59393",
"o. c #BC9393",
"O. c #B59C9C",
"+. c #B89B9B",
"@. c #9F9CA0",
"#. c #A19EA1",
"$. c #A5A4A5",
"%. c #ADA5A5",
"&. c #A7A7A8",
"*. c #A8A7A8",
"=. c #A7AAAA",
"-. c #ACACAC",
";. c #B4A4A4",
":. c #B8A0A0",
">. c #B2ADAD",
",. c #ADB4B4",
"<. c #AFB8B8",
"1. c #B1B1B1",
"2. c gray72",
"3. c #C38484",
"4. c #C38A8A",
"5. c #F68282",
"6. c #F98585",
"7. c #F68B8B",
"8. c #F98C8C",
"9. c #F99494",
"0. c #F99898",
"q. c None",
/* pixels */
"q.q.q.q.q.q.q.q.q.q.q.q.q.q.q.q.q.q.q.q.q.q.q.q.q.q.q.q.q.q.q.q.q.1.1.1.1.1.1.1.1.1.q.q.q.q.q.q.q.q.q.q.q.q.q.q.q.q.q.q.q.q.q.q.q.q.q.q.q.q.q.q.q.q.q.",
"q.q.q.q.q.q.q.q.q.q.q.q.q.q.q.q.q.q.q.q.q.q.q.q.q.q.q.q.1.1.1.1.1.1.1.1.1.1.1.1.1.1.,.1.1.1.1.q.q.q.q.q.q.q.q.q.q.q.q.q.q.q.q.q.q.q.q.q.q.q.q.q.q.q.q.",
"q.q.q.q.q.q.q.q.q.q.q.q.q.q.q.q.q.q.q.q.q.q.q.q.q.1.1.1.1.1.1.1.1.1.1.1.1.1.1.1.1.1.1.1.1.1.1.1.1.1.q.q.q.q.q.q.q.q.q.q.q.q.q.q.q.q.q.q.q.q.q.q.q.q.q.",
"q.q.q.q.q.q.q.q.q.q.q.q.q.q.q.q.q.q.q.q.q.q.1.1.>.1.1.1.1.1.1.1.1.1.1.1.1.1.1.1.1.1.1.1.1.1.1.1.-.=.' ! # q.q.q.q.q.q.q.q.q.q.q.q.q.q.q.q.q.q.q.q.q.q.",
"q.q.q.q.q.q.q.q.q.q.q.q.q.q.q.q.q.q.q.q.1.1.1.1.,.>.,.>.1.1.1.1.1.1.1.1.1.1.1.1.1.1.1.1.1.1.1.>.$.' * % $ * ' q.q.q.q.q.q.q.q.q.q.q.q.q.q.q.q.q.q.q.q.",
"q.q.q.q.q.q.q.q.q.q.q.q.q.q.q.q.q.q.,.1.1.-.-.1.>.,.>.1.1.1.1.1.1.1.1.1.1.1.1.2.1.1.1.1.1.1.1.$./ & # # & ' -.-.1.q.q.q.q.q.q.q.q.q.q.q.q.q.q.q.q.q.q.",
"q.q.q.q.q.q.q.q.q.q.q.q.q.q.q.q.q.1.1.-.1.1.-.1.1.>.,.,.1.,.>.1.1.1.1.1.1.1.1.1.1.1.1.1.1.1.#.! $ @ # & ' =.-.1.1.1.q.q.q.q.q.q.q.q.q.q.q.q.q.q.q.q.q.",
"q.q.q.q.q.q.q.q.q.q.q.q.q.q.q.q.=.1.-.-.1.-.1.-.>.,.>.>.1.>.,.>.1.2.1.1.1.1.1.1.1.1.,.1.>.{ ! # @ # & ' $.-.1.1.1.1.1.q.q.q.q.q.q.q.q.q.q.q.q.q.q.q.q.",
"q.q.q.q.q.q.q.q.q.q.q.q.q.q.* { =.-.1.1.-.1.1.1.1.-.1.-.1.-.1.1.1.1.1.1.1.1.1.1.1.<.2.-.' * # @ # & [ -.1.1.1.1.1.1.1.,.>.q.q.q.q.q.q.q.q.q.q.q.q.q.q.",
"q.q.q.q.q.q.q.q.q.q.q.q.q.@ * @.-.1.-.-.1.-.-.1.-.1.1.1.1.1.1.1.1.1.1.1.1.1.1.1.1.1.-.' % @ @ @ & { >.1.1.1.1.1.1.1.1.>.>.o.q.q.q.q.q.q.q.q.q.q.q.q.q.",
"q.q.q.q.q.q.q.q.q.q.q.& # @ * &.-.-.-.1.-.-.1.1.1.1.1.1.1.1.1.1.1.1.1.2.1.1.1.>.1.>.' # + O @ * { 1.1.1.1.1.1.1.1.1.1.;. .z x c q.q.q.q.q.q.q.q.q.q.q.",
"q.q.q.q.q.q.q.q.q.q.[ ! @ + & #.-.-.-.-.-.1.-.-.1.-.1.-.1.1.-.1.1.1.1.1.2.1.1.,.-./ @ O O + % { 1.1.1.1.1.1.1.1.1.1.>.4.x f f C v q.q.q.q.q.q.q.q.q.q.",
"q.q.q.q.q.q.q.q.q.q.{ ~ @ + % { %.-.-.-.-.1.1.-.-.1.1.1.1.-.1.1.1.>.>.1.1.<.,.>./ @ O o + & #.1.1.1.1.1.1.1.1.1.-.;.4.c g F S C B q.q.q.q.q.q.q.q.q.q.",
"q.q.q.q.q.q.q.q.q.$.{ ~ @ O $ [ =.-.-.1.1.-.-.1.-.1.-.1.1.1.1.1.>.,.1.>.1.1.-./ O o o O & { 1.1.,.1.1.1.1.1.1.1.;.4.c Z L P K g m O.q.q.q.q.q.q.q.q.q.",
"q.q.q.q.q.q.q.q.#.$.#./ + o # ' =.-.-.-.-.1.-.-.-.1.1.1.1.1.1.1.,.1.>.,.>.>.! O X X + & { 1.1.1.1.1.1.<.2.>.>.;.4.c S P 5.5.S c 3.>.<.q.q.q.q.q.q.q.q.",
"q.q.q.q.q.q.q.q.$.$.$.' O X + { -.-.1.1.-.-.1.-.1.-.1.1.1.-.1.1.>.1.,.>.2.! . . . O & $.<.1.1.1.2.1.1.1.1.>.+.N c F 5.5.P F A 3.;.-.>.q.q.q.q.q.q.q.q.",
"q.q.q.q.q.q.q.$.#.$.#./ + o + ' &.-.-.-.>.-.>.-.1.1.1.1.1.1.-.1.1.>.-.=.* o . . O * $.1.1.1.1.1.1.1.2.1.>.o.m f S 5.6.5.F c N :.-.1.1.-.q.q.q.q.q.q.q.",
"q.q.q.q.q.q.{ $.#.$.$./ + o O / $.-.-.-.>.>.-.,.-.1.-.1.1.-.1.1.1.=.{ % o . . + ! $.1.1.1.1.2.1.1.1.1.>.o.m f K 6.6.5.S C N O.-.1.1.>.1.,.q.q.q.q.q.q.",
"q.q.q.q.q.[ $.$.{ $.$.' # X o ' $.-.-.-.>.-.>.-.-.1.1.-.1.1.1.1.-.{ $ .     O ' -.2.2.1.2.1.1.1.1.2.>.4.B C K 8.7.7.F C N +.1.1.,.>.1.1.1.-.q.q.q.q.q.",
"q.q.q.q.q.[ $.@.$.$.$.[ # o X % $.-.=.-.-.-.>.,.1.-.1.1.1.-.1.1.{ # . .   O ' -.1.1.1.1.1.1.2.1.1.2.4.N A 5.0.0.7.K c N +.>.1.1.>.1.1.1.-.#.q.q.q.q.q.",
"q.q.q.q._ [ #.$.#.$.$.$.* o . @ &.=.-.-.,.-.>.-.1.1.-.1.-.>.-.' @   . . O ' -.1.1.1.1.2.1.2.1.1.>.4.V H 5.0.0.8.G C N +.>.1.1.1.1.,.-.$.{ ' / q.q.q.q.",
"q.q.q.q.] [ ..$.$.#.$.{ ! + X O ! =.-.-.-.-.>.,.-.-.1.-.-.$.! @ X   . + / =.1.1.1.1.-.1.1.1.1.>.4.V H 7.0.0.8.S r m +.>.1.1.1.1.1.1.$.' ! ! / q.q.q.q.",
"q.q.q.Q ` [ @.@.$.$.$.$./ @ o X $ #.-.-.-.-.-.-.1.1.>.1.1.* O       + { -.1.1.1.-.1.1.1.1.1.<.3.V J 7.0.9.6.g w m +.1.1.1.1.1.1.1.#.~ & % ! / { q.q.q.",
"q.q.q.W _ ] @.@.$.$.$.$.[ & o . O / -.-.-.-.-.>.-.1.1.-.% o       O $.-.1.-.1.1.1.1.1.1.1.<.4.t J 9.0.8.5.d w n +.>.1.1.1.1.1.1.#.! # @ % ! { -.q.q.q.",
"q.q.q.Q _ ` [ #.#.$.$.$.@.~ + X . @ ' -.-.-.-.-.-.-.$.$ O . . X @ #.1.1.1.1.1.1.1.1.1.1.,.4.f 5.7.9.8.P d q M ;.>.1.1.1.1.1.1.#.* @ @ @ * [ =.1.q.q.q.",
"q.q.E Q ) ` [ @.#.$.#.$.$.[ # o . X % { -.-.-.-.$.' # O X X o # / =.-.1.-.1.1.1.-.1.1.,.4.A 5.8.8.7.G i w 3.;.1.1.1.1.1.<.1.{ & + O + % ' =.>.1.>.q.q.",
"q.q.E Q ( _ [ [ #.$.$.$.$.&.~ O .   O ! $.>.-.=.' @ o X X O # ' -.1.-.-.1.1.1.-.1.1.,.4.A 5.7.8.P j y q  .>.1.1.1.1.1.1.1.{ & O o O # / =.1.>.-.>.q.q.",
"q.q.T Q Q _ ] [ #.#.$.&.$.$.#.* X X . + ~ =.=./ + X X o + & { =.1.1.1.1.-.1.1.1.1.<.4.Z 5.7.6.I a 6 q  .1.1.1.1.1.1.1.1.{ & O X o + ~ =.>.>.1.1.>.q.q.",
"q.W T W Q ( ` [ @.#.#.*.$.$.$.@.& X X X @ { ! + X o o # / $.-.>.1.1.1.1.1.1.1.1.,.4.d L 6.6.L p 3 0 } 1.1.1.1.1.1.1.1.{ % o X o + * =.,.>.,.1.>.,.-.q.",
"q.T E E W ( _ [ @.#.&.#.&.$.$.$.{ # X o o @ + o X O * { %.=.-.-.-.-.-.-.1.-.1.,.4.d F L L G 7 - 0 9 >.1.1.1.1.1.1.1.{ % O X o O * &.1.>.,.>.1.,.>.,.q.",
"q.E T T W Q ) [ @.@.#.$.$.$.$.&.=./ @ O o X o o O ! $.=.=.-.-.-.-.-.1.1.-.1.,.4.i F G G j 4 ; , 3.;.1.1.1.1.1.1.1.{ % o X o O * &.>.>.,.>.1.>.1.-.,.q.",
"q.T T T W Q ( ` ` @.#.$.$.$.$.$.$.{ ! # + o + @ ~ $.=.=.=.=.-.=.-.-.-.-.1.;.4.C D G D a 3 ; , N ;.1.1.1.1.1.1.1.{ % o X X O * $.1.1.1.>.,.>.1.1.1.>.q.",
"q.T T T T Q Q _ ` [ #.#.#.$.*.$.=.=.$.' * # 9 ' >.-.=.-.=.=.-.-.-.-.-.>.-.4.r d D D h ; = > k :.1.1.2.1.1.1.1.{ % o X X + * =.1.1.1.1.1.,.>.>.,.>.>.q.",
"E T T T T Q ( ) ` @.#.#.*.*.$.$.$.$.=.$.$.' ' =.-.%.-.=.*.-.=.%.=.-.>.%.o.e u i a p 1 - 0 z o.1.1.1.1.1.1.1.{ % o X X O * =.1.1.1.1.1.1.,.>.>.,.1.1.,.",
"T T T T T T Q ) ` @.@.#.#.*.*.$.$.=.$.=.=.=.-.=.-.-.-.-.-.-.-.=.=.%.1.>.M 5 6 8 8 < - , m +.,.1.1.1.1.1.1.{ # o X X O * =.1.1.1.1.1.,.>.>.>.>.1.>.,.-.",
"E T T T T E Q ) _ ` @.#.#.#.$.$.$.$.=.=.=.=.-.*.-.=.-.-.%.-.-.*.=.-.-.1.N 2 ; ; < : q M :.,.1.1.2.1.1.2.' + X   X O ! %.1.1.1.1.1.1.>.>.1.,.,.>.,.>.>.",
"E T T T T W W Q ) ` @.@.#.#.*.*.$.=.$.&.*.*.%.-.=.&.-.-.-.*.-.*.-.=.%.-.O.e > > , e } :.>.1.1.2.1.1.1.' @ .   X O * =.1.1.1.1.1.1.1.1.,.,.>.,.>.>.>.>.",
"E T T T T E W Q ) _ ` [ #.#.#.*.=.$.$.&.=.=.=.*.-.-.=.=.*.=.-.-.-.=.=.-.1.1.n l n ;.1.1.1.1.1.1.1.1.' + .   . O ! %.1.1.1.1.1.1.1.1.1.1.>.,.>.>.-.,.,.",
"T T U T T W W Q ( _ ` [ [ #.#.*.$.$.&.&.&.=.=.%.=.-.-.-.=.-.-.=.-.%.=.-.-.1.1.>.>.,.1.-.1.1.1.1.1.' + .   . + ! =.1.1.2.1.1.1.1.1.1.,.>.>.,.-.,.>.>.>.",
"T T T T T W W Q Q ) _ [ @.#.#.#.$.=.$.&.&.-.%.=.=.%.=.-.-.-.=.-.-.-.=.=.-.-.-.-.1.1.1.1.1.1.1.1.' + .   X + / =.1.1.1.1.1.1.1.1.>.,.>.>.,.>.>.,.>.,.-.",
"T T T T T E W Q Q ) ) ` [ #.#.#.$.=.&.&.&.&.$.=.*.*.-.-.%.X.} } X.%.%.=.=.-.-.>.1.1.1.1.1.-.=./ + .   X + / =.2.1.1.1.1.1.1.1.1.1.1.1.>.,.>.>.>.-.>.>.",
"T T T U T E W E Q ( ) _ [ [ #.#.#.$.$.=.$.&.$.&.*.=.-.%. .v t s z | %.=.-.%.=.=.-.-.1.1.1.=./ O     . + / =.1.1.1.1.1.1.1.1.1.1.>.,.>.,.>.>.,.>.,.,.>.",
"q.U T T T W W Q Q ( ) ) ` [ [ #.#.$.$.$.$.*.=.=.$.=.-.O.v D h a s 9 %.-.=.=.%.>.-.-.1.1.1.{ o     X @ / -.1.1.1.1.1.1.1.1.1.1.1.1.1.>.,.,.-.>.>.>.-.q.",
"q.T T T T E W W Q Q ( ( _ [ @.[ #.$.$.$.*.$.*.*.*.=.=.X.c G D d r 9 %.-.-.-.=.=.-.-.1.-.{ O     X @ / =.1.1.1.1.1.1.1.1.1.1.1.2.>.,.>.1.>.,.,.-.,.>.q.",
"q.U T U T E Q W Q Q ) ( ) ` [ @.#.#.$.$.$.$.=.*.=.*.=.=.z i a , l ..=.-.-.=.=.=.-.-.=./ O X . X # ' %.1.1.1.-.,.,.1.1.1.1.1.1.1.>.,.>.>.>.>.-.,.-.,.q.",
"q.T U T T T W Q Q Q ( ( ) _ ` [ [ #.#.$.$.*.$.*.*.=.*.=.-.k e 9 =.-.-.-.-.-.-.%.-.$./ O X . X % ' -.>.1.1.1.1.-.1.1.1.1.1.1.1.1.,.>.>.,.,.,.>.>.>.>.q.",
"q.E U T T T W W Q W ( ( ) ) _ [ [ #.#.#.$.*.$.*.&.$.*.=.-.=...-.-.=.-.=.%.=.-.-.{ ! O X . X % ' =.1.1.1.1.-.-.1.>.>.1.-.>.1.1.1.,.>.,.>.>.,.,.>.>.>.q.",
"q.q.U T T T W W Q Q Q ( ) _ _ _ [ [ { { $.$.$.$.&.$.*.*.&.&.*.-.=.>.=.>.-.=.-.$.! O X . X & { 1.>.1.1.-.-.-.-.-.-.-.-.>.1.1.1.1.>.,.>.>.,.>.>.,.-.q.q.",
"q.q.Y Y Y T E W Q Q Q ^ ( ) _ _ ` @.@.@.@.#.$.*.$.$.*.*.&.*.*.=.-.=.=.%.=.=.=./ + o X O % ' =.-.-.>.-.-.>.-.=.-.-.-.-.>.1.-.1.1.,.>.1.,.>.,.1.-.1.q.q.",
"q.q.E Y Y Y T W W Q Q ^ ( ) ) _ _ ] ` @.@.@.#.$.$.&.&.&.&.*.*.*.=.-.-.=.=.%.{ @ o o o * ' -.=.%.=.=.-.-.=.>.>.-.-.-.-.-.-.1.-.1.>.,.1.>.1.>.1.>.1.q.q.",
"q.q.q.Y Y Y T W Q Q Q Q ^ ) ) _ _ ` ` @.@.@.@.#.$.$.$.&.&.&.*.*.%.=.=.=.=.$./ + o o % ' -.-.=.-.%.-.=.=.-.%.-.-.-.-.=.-.-.-.1.1.1.-.>.>.1.>.1.,.q.q.q.",
"q.q.q.Y Y Y T T W Q Q ^ ^ ( ) ) _ _ _ [ ` @.@.@.#.$.$.$.&.$.*.$.=.%.=.=.%.$.! O X o % ' %.=.=.%.=.=.=.=.=.-.-.-.-.-.-.-.-.1.-.1.1.>.,.,.>.,.1.>.q.q.q.",
"q.q.q.W Y Y Y T W Q W Q ^ ^ ( ( _ _ _ ` ] ` @.@.#.$.$.*.$.$.&.*.%.=.$.%.=.$./ # O o o % ' >.-.=.=.=.=.=.=.=.-.-.=.>.>.>.-.1.1.-.,.>.1.1.1.1.,.>.q.q.q.",
"q.q.q.q.Y Y Y Y R W Q ^ Q Q ^ ( ) _ ` _ ` @.] @.#.#.#.$.&.$.*.*.=.$.$.=.=.$.{ / # O o o @ * { =.=.%.=.%.%.=.=.=.=.=.=.=.-.-.1.-.>.-.-.1.>.1.>.q.q.q.q.",
"q.q.q.q.T U Y Y Y E Q W Q Q ^ ^ ( ( _ _ ` ] @.] @.@.#.#.#.$.&.#.$.$.$.=.$.$.%.$.' + X . X o % =.$.=.%.=.=.=.=.=.-.=.-.-.-.-.-.-.-.>.-.>.,.-.>.q.q.q.q.",
"q.q.q.q.q.T Y Y Y R W W Q ^ Q ^ ( ( ) _ ` _ ] ] @.[ @.#.$.$.#.*.$.$.$.$.$.%.$.=.=.' + o . . X + * ' %.=.%.=.%.=.=.-.=.=.=.-.-.-.-.,.-.-.-.-.q.q.q.q.q.",
"q.q.q.q.q.T Y Y Y Y W ~ Q Q ^ Q Q ( ( _ _ _ ` ] ` @.@.@.@.$.$.$.$.=.%.$.$.$.$.$.$.$.{ @ o X . . O @ ! ' { $.%.=.%.=.=.=.%.-.-.-.-.-.-.-.-.-.q.q.q.q.q.",
"q.q.q.q.q.q.Y Y Y Y Y W W Q Q Q Q ( Q ( ( _ _ ` ` ` ` @.@.@.@.@.{ $.$.$.$.=.$.=.$.$.=.$.* @ o X X X O @ # ! ' { =.%.=.=.=.-.-.-.-.-.-.-.-.q.q.q.q.q.q.",
"q.q.q.q.q.q.q.Y Y Y Y E ~ W Q Q Q Q ( Q ( ( ` _ _ ] ] @.@.@.@.@.$.$.$.$.$.$.$.$.$.$.$.$.{ / * @ O X . X X o + % ! ' ' $.%.=.=.-.=.=.-.>.q.q.q.q.q.q.q.",
"q.q.q.q.q.q.q.q.Y Y Y Y W W W W Q Q Q Q ( Q ( _ _ ` ` ` ` @.@.@.{ $.{ $.$.$.$.$.$.$.$.$.$.$.$./ * @ O o .     X o O @ % ! / / ' / / #.q.q.q.q.q.q.q.q.",
"q.q.q.q.q.q.q.q.R Y Y Y T W Q W Q Q Q ( Q ( Q ( ) ) _ ` ] [ [ @.{ @.{ ..{ { $.$.$.$.$.$.$.$.$.$.$./ * # O o X   .   X X O + + @ @ # * q.q.q.q.q.q.q.q.",
"q.q.q.q.q.q.q.q.q.Y Y Y Y T W Q W Q Q Q Q Q Q ( ( ( ) _ _ _ ' ] ] [ [ ..{ $.{ $.$.$.#.$.$.$.$.$.$.$.{ ' ! % + O o X . X X O O O + + q.q.q.q.q.q.q.q.q.",
"q.q.q.q.q.q.q.q.q.q.Y Y Y Y R W Q Q Q Q Q Q Q Q ( Q ( ( ) _ _ _ ' ] { ' ' { { #.#.#.$.$.$.$.$.$.$.$.$.$.{ ' ' ! # @ + + + + @ @ # q.q.q.q.q.q.q.q.q.q.",
"q.q.q.q.q.q.q.q.q.q.T Y Y Y Y R W Q Q Q Q ( Q Q Q Q Q ( ( ( ( ) _ _ ' ' { { ' { { { { { { $.$.$.{ $.$.{ { $.$.{ ' / / ! ' ' / ' ~ q.q.q.q.q.q.q.q.q.q.",
"q.q.q.q.q.q.q.q.q.q.q.R Y Y Y Y T W ^ W Q Q ^ Q ^ Q Q ^ Q ( ( ( ( ( _ _ _ ` ] ] [ @.[ @.@.[ #.#.#.$.#.#.#.#.$.#.#.{ { { [ { [ [ q.q.q.q.q.q.q.q.q.q.q.",
"q.q.q.q.q.q.q.q.q.q.q.q.q.T T Y Y T R ^ Q ^ Q Q ^ Q ^ Q Q ^ Q ^ ( ( ( ( ( _ ` ` ` ] ` [ [ [ [ [ @.#.#.#.#.#.#.#.#.@.{ { { [ q.q.q.q.q.q.q.q.q.q.q.q.q.",
"q.q.q.q.q.q.q.q.q.q.q.q.q.q.T Y & Y Y R Q W Q Q Q Q Q Q Q Q Q Q Q ( ( ( ( ( ( ) _ ` _ ` [ ` [ ` ` [ [ @.@.#.#.#.@.@.{ { [ q.q.q.q.q.q.q.q.q.q.q.q.q.q.",
"q.q.q.q.q.q.q.q.q.q.q.q.q.q.q.q.T Y Y T T W Q Q Q Q Q Q Q Q Q Q Q Q W ( ( ( Q ( ( ) _ ) ) _ ` ` ` _ ` [ [ [ [ [ { { [ q.q.q.q.q.q.q.q.q.q.q.q.q.q.q.q.",
"q.q.q.q.q.q.q.q.q.q.q.q.q.q.q.q.q.T Y Y Y Y T W Q Q Q Q Q Q Q Q Q Q Q Q Q Q ( Q Q Q Q ( ) ( ( ) _ _ ` _ ` ] [ ] [ ] q.q.q.q.q.q.q.q.q.q.q.q.q.q.q.q.q.",
"q.q.q.q.q.q.q.q.q.q.q.q.q.q.q.q.q.q.T T Y Y Y T E E W Q Q Q Q Q Q Q W W W W W W W W E E Q Q ( Q ^ ) _ _ _ _ ` _ ) q.q.q.q.q.q.q.q.q.q.q.q.q.q.q.q.q.q.",
"q.q.q.q.q.q.q.q.q.q.q.q.q.q.q.q.q.q.q.q.T Y Y Y T T T E Q W Q Q Q W W W W W E E E E E T T T Q Q ^ ^ ^ ^ ) ) ^ q.q.q.q.q.q.q.q.q.q.q.q.q.q.q.q.q.q.q.q.",
"q.q.q.q.q.q.q.q.q.q.q.q.q.q.q.q.q.q.q.q.q.q.R T T U U T T T T E E W W W W W T E T T T T T T T T W Q Q W W q.q.q.q.q.q.q.q.q.q.q.q.q.q.q.q.q.q.q.q.q.q.",
"q.q.q.q.q.q.q.q.q.q.q.q.q.q.q.q.q.q.q.q.q.q.q.q.q.T T Y Y Y T T T T T T T T T T T T T T Y T T T E T q.q.q.q.q.q.q.q.q.q.q.q.q.q.q.q.q.q.q.q.q.q.q.q.q.",
"q.q.q.q.q.q.q.q.q.q.q.q.q.q.q.q.q.q.q.q.q.q.q.q.q.q.q.q.W T T T T Y T T U T T Y T T T T T T W q.q.q.q.q.q.q.q.q.q.q.q.q.q.q.q.q.q.q.q.q.q.q.q.q.q.q.q.",
"q.q.q.q.q.q.q.q.q.q.q.q.q.q.q.q.q.q.q.q.q.q.q.q.q.q.q.q.q.q.q.q.q.R E E E E E W T E q.q.q.q.q.q.q.q.q.q.q.q.q.q.q.q.q.q.q.q.q.q.q.q.q.q.q.q.q.q.q.q.q."
};
