/* XPM */
static char *_3[] = {
/* columns rows colors chars-per-pixel */
"75 75 135 2 ",
"   c #302E30",
".  c #353435",
"X  c #383639",
"o  c #3B3B3B",
"O  c #3F3C40",
"+  c #403F41",
"@  c #434343",
"#  c #49464A",
"$  c #4B4B4C",
"%  c #4F4A50",
"&  c #524F53",
"*  c #535353",
"=  c #575258",
"-  c #5B575C",
";  c #5C5C5C",
":  c #636363",
">  c #676069",
",  c #6D656F",
"<  c #6C6B6C",
"1  c #6E6571",
"2  c #726E74",
"3  c #786F7A",
"4  c #747474",
"5  c #777278",
"6  c #7A747C",
"7  c #7C7C7C",
"8  c #EA0D0D",
"9  c #E61B1B",
"0  c #EB1B1B",
"q  c #DF2C2C",
"w  c #DD3131",
"e  c #DB3C3C",
"r  c #E52525",
"t  c #EB2323",
"y  c #E12A2A",
"u  c #EC2C2C",
"i  c #F12727",
"p  c #EA3434",
"a  c #EF3838",
"s  c #F13333",
"d  c #F03939",
"f  c #BD7D7D",
"g  c #D64141",
"h  c #D84545",
"j  c #D64848",
"k  c #CF5454",
"l  c IndianRed",
"z  c #D35454",
"x  c #DF5757",
"c  c #D35C5C",
"v  c #DC5D5D",
"b  c #E24545",
"n  c #EF4747",
"m  c #E34B4B",
"M  c #EB4D4D",
"N  c #F34444",
"B  c #F14F4F",
"V  c #E45252",
"C  c #ED5454",
"Z  c #E65D5D",
"A  c #ED5B5B",
"S  c #F15353",
"D  c #F45C5C",
"F  c #C66161",
"G  c #CB6565",
"H  c #CB6B6B",
"J  c #D36464",
"K  c #DB6262",
"L  c #D36A6A",
"P  c #DA6969",
"I  c #C57777",
"U  c #CA7474",
"Y  c #C37B7B",
"T  c #CB7979",
"R  c #D47373",
"E  c #E36464",
"W  c #EB6161",
"Q  c #EC6B6B",
"!  c #F46464",
"~  c #F86767",
"^  c #F46B6B",
"/  c #F86A6A",
"(  c #EE7272",
")  c #F47373",
"_  c #F87171",
"`  c #F57C7C",
"'  c #F97B7B",
"]  c #7F7182",
"[  c #827485",
"{  c #847887",
"}  c #857788",
"|  c #867A89",
" . c #897E8C",
".. c #838383",
"X. c #8C818E",
"o. c #8C8C8C",
"O. c #8E8590",
"+. c #8F8E90",
"@. c #908792",
"#. c #938B95",
"$. c #968F98",
"%. c #939393",
"&. c #979198",
"*. c #9A959B",
"=. c #9D9A9D",
"-. c #BE8585",
";. c #BD8B8B",
":. c #B69191",
">. c #BA9393",
",. c #B49C9C",
"<. c #B99A9A",
"1. c #9F9BA0",
"2. c #A19EA1",
"3. c #A5A4A5",
"4. c #ACA6A6",
"5. c #A7A6A8",
"6. c #A8A7A8",
"7. c #A7AEAE",
"8. c #ACACAC",
"9. c #B5A3A3",
"0. c #B8A2A2",
"q. c #B2ADAD",
"w. c #AEB4B4",
"e. c #AFB8B8",
"r. c #B1B1B1",
"t. c #B9B9B9",
"y. c #C38383",
"u. c #C38D8D",
"i. c #C19090",
"p. c #F68282",
"a. c #F98484",
"s. c #FA8B8B",
"d. c #FA9595",
"f. c #FB9B9B",
"g. c None",
/* pixels */
"g.g.g.g.g.g.g.g.g.g.g.g.g.g.g.g.g.g.g.g.g.g.g.g.g.g.g.g.g.g.g.g.r.g.r.r.r.r.r.r.r.g.r.g.g.g.g.g.g.g.g.g.g.g.g.g.g.g.g.g.g.g.g.g.g.g.g.g.g.g.g.g.g.g.g.",
"g.g.g.g.g.g.g.g.g.g.g.g.g.g.g.g.g.g.g.g.g.g.g.g.g.g.g.g.2.r.w.r.r.r.r.r.8.r.r.r.r.r.r.r.r.r.t.r.g.g.g.g.g.g.g.g.g.g.g.g.g.g.g.g.g.g.g.g.g.g.g.g.g.g.g.",
"g.g.g.g.g.g.g.g.g.g.g.g.g.g.g.g.g.g.g.g.g.g.g.g.< : < %.7.q.8.r.r.8.r.r.r.r.r.r.r.r.r.r.r.r.r.r.r.r.g.g.g.g.g.g.g.g.g.g.g.g.g.g.g.g.g.g.g.g.g.g.g.g.g.",
"g.g.g.g.g.g.g.g.g.g.g.g.g.g.g.g.g.g.g.g.g.g.7.o.< : 4 3.r.8.r.8.8.r.r.8.r.r.8.r.r.r.r.r.r.r.r.r.r.r.r.r.r.g.g.g.g.g.g.g.g.g.g.g.g.g.g.g.g.g.g.g.g.g.g.",
"g.g.g.g.g.g.g.g.g.g.g.g.g.g.g.g.g.g.g.g.7.3.3.7 ; ; ..7.8.8.r.8.8.r.r.8.8.r.8.r.r.r.r.r.r.r.r.r.r.r.r.r.r.r.r.g.g.g.g.g.g.g.g.g.g.g.g.g.g.g.g.g.g.g.g.",
"g.g.g.g.g.g.g.g.g.g.g.g.g.g.g.g.g.g.g.w.4.4.%.: * : =.8.8.r.8.r.r.8.r.r.r.r.r.r.r.r.r.r.r.r.r.r.r.r.r.r.r.r.r.r.t.g.g.g.g.g.g.g.g.g.g.g.g.g.g.g.g.g.g.",
"g.g.g.g.g.g.g.g.g.g.g.g.g.g.g.g.g.7.4.7.4.3...* * 4 2.4.8.r.8.8.8.8.r.8.8.r.r.8.r.r.r.r.r.r.r.r.r.r.r.r.r.r.r.r.r.r.g.g.g.g.g.g.g.g.g.g.g.g.g.g.g.g.g.",
"g.g.g.g.g.g.g.g.g.g.g.g.g.g.g.5.3.4.7.4.7.=.: $ $ ..7.7.r.8.8.r.8.r.r.8.r.r.r.r.r.r.r.r.r.r.r.r.r.r.r.r.r.r.r.r.r.r.r.r.g.g.g.g.g.g.g.g.g.g.g.g.g.g.g.",
"g.g.g.g.g.g.g.g.g.g.g.g.g.g.5.5.3.4.7.4.3.o.; @ * %.8.8.8.r.r.8.r.8.8.r.r.8.r.r.r.r.r.r.r.r.r.r.r.r.r.r.r.r.r.r.r.r.r.r.r.g.g.g.g.g.g.g.g.g.g.g.g.g.g.",
"g.g.g.g.g.g.g.g.g.g.g.g.g.5.5.5.7.4.4.7.7.7 $ @ : 3.8.r.r.8.8.r.8.r.8.r.r.r.r.r.8.r.r.r.r.r.r.r.r.r.r.r.r.r.r.r.r.r.w.q.r.r.g.g.g.g.g.g.g.g.g.g.g.g.g.",
"g.g.g.g.g.g.g.g.g.g.g.g.3.3.5.5.3.4.4.4.3.< $ @ 7 8.8.8.8.r.r.8.r.8.r.r.8.r.r.8.r.r.r.r.t.r.r.r.r.r.r.r.r.r.r.r.r.r.r.t.r.r.8.g.g.g.g.g.g.g.g.g.g.g.g.",
"g.g.g.g.g.g.g.g.g.g.g.5.6.5.3.5.7.4.7.7.%.; $ @ %.8.8.8.8.8.8.8.8.r.8.r.r.r.r.r.r.r.r.r.r.r.r.r.r.r.r.r.r.r.r.w.r.r.r.4.=.*.o.7 g.g.g.g.g.g.g.g.g.g.g.",
"g.g.g.g.g.g.g.g.g.g.6.3.6.3.6.6.4.4.7.4.o.; @ * =.8.8.8.r.8.8.r.8.r.r.r.r.8.r.r.r.r.r.r.r.r.t.r.r.r.r.r.r.r.r.r.8.=.%...4 < 4 < < g.g.g.g.g.g.g.g.g.g.",
"g.g.g.g.g.g.g.g.g.3.3.3.3.6.6.3.3.7.4.7.o.; o * 3.8.8.8.8.r.r.8.r.r.r.8.r.r.r.8.r.r.r.r.r.r.r.r.r.r.r.r.t.w.3.o...4 < : : < < 4 7 %.g.g.g.g.g.g.g.g.g.",
"g.g.g.g.g.g.g.g.3.6.3.6.6.6.3.6.7.4.4.8...* o * 3.8.8.8.r.8.8.r.8.r.r.r.r.r.r.r.r.8.r.r.r.r.r.r.r.t.t.q.+.4 < : : ; : : < 4 7 %.6.8.r.g.g.g.g.g.g.g.g.",
"g.g.g.g.g.g.g.=.3.6.3.6.6.6.6.6.4.4.7.8.7 * o ; =.r.8.8.8.8.r.8.r.8.r.r.r.8.r.r.r.q.r.8.r.r.r.t.t.=.7 : ; * * * ; : < 4 o.3.6.8.r.r.r.r.g.g.g.g.g.g.g.",
"g.g.g.g.g.g.g.3.2.3.3.3.6.6.3.6.6.7.7.4...$ o $ 4.8.7.q.r.8.8.r.8.r.r.8.q.r.r.r.r.r.r.r.t.t.q.o.; $ $ $ $ $ * ; 4 ..2.r.r.r.r.r.r.r.r.r.g.g.g.g.g.g.g.",
"g.g.g.g.g.g.2.3.3.3.6.3.6.3.6.6.6.6.6.6...* . @ %.r.8.8.8.r.r.8.r.r.8.q.8.r.r.w.r.r.8.8.=.< @ o @ @ @ $ ; : 4 o.4.r.t.r.r.r.r.r.r.r.r.r.r.g.g.g.g.g.g.",
"g.g.g.g.g.&.3.2.2.3.3.3.6.6.6.6.6.7.4.8.o.$ . @ 4 r.8.8.8.8.r.8.8.r.r.r.r.w.w.8.2.%.7 * o . o o + @ ; < ..%.r.t.r.r.r.r.r.r.r.r.r.r.r.r.r.g.g.g.g.g.g.",
"g.g.g.g.g.=.1.3.3.3.3.6.3.6.6.6.6.6.6.6.=.* o o < 3.8.8.8.r.8.r.8.r.r.r.8.3.%.7 : @ o o o . o * < 7 o.3.t.r.r.t.r.r.r.r.r.r.r.r.r.r.r.r.r.r.g.g.g.g.g.",
"g.g.g.g.$.=.2.3.3.3.3.3.3.6.3.6.4.4.4.3.w.< o o : =.r.8.7.8.8.7.w.t.4.o.< : $ o . o o o o ; ..%.3.8.t.t.r.r.r.r.r.r.t.r.r.r.r.r.q.r.r.r.q.q.9.g.g.g.g.",
"g.g.g.g.&.*.2.2.2.3.2.3.6.6.6.6.7.7.4.3.8...@ @ $ ..7.8.r.8.4.3.%.4 ; $ @ . . o o o $ < o.3.8.w.t.r.r.r.r.r.r.r.r.r.r.r.r.r.r.r.w.r.q.q.<.y.U g.g.g.g.",
"g.g.g.| &.*.=.2.2.3.3.3.6.6.6.6.3.4.7.3.4.%.* @ $ 7 4.3.=.o.4 ; * $ @ o . o o o ; ..%.3.8.r.r.r.r.r.r.r.r.r.t.r.r.t.r.r.r.r.t.r.q.9.u.J b V v P g.g.g.",
"g.g.g.O.$.&.*.3.3.2.3.3.3.6.3.6.3.7.7.4.8.%.< $ $ : o.7 : $ $ $ @ @ o @ $ * < %.3.8.r.r.r.8.r.r.r.r.r.r.r.r.r.r.r.r.r.r.t.q.,.<.T x M A ^ ^ A E g.g.g.",
"g.g.g.X.#.&.*.2.2.3.3.3.3.5.5.3.3.7.4.7.7.3.4 * $ $ * $ $ $ $ @ $ * ; < 7 =.8.r.r.r.r.r.r.8.r.r.r.r.r.r.r.r.r.r.r.e.r.<.y.U K m C ) ` p.p.' ^ E y.g.g.",
"g.g.}  .@.$.*.2.2.3.2.3.3.5.6.6.4.4.3.3.4.8.%.< $ $ $ $ $ $ ; 4 7 o.%.=.3.q.r.8.r.r.8.r.r.r.q.r.r.r.t.r.r.r.e.e.9.>.U J V M W ` a.a.s.a.p.' A z <.g.g.",
"g.g.|  .O.#.&.=.2.3.3.3.3.3.5.6.3.3.4.4.4.7.7.o.: ; : ; 4 %.3.=.3.4.7.7.r.r.r.8.r.8.8.r.r.r.r.w.r.r.r.r.t.r.<.T L P W ~ ` s.s.s.s.a.p.) ! A L >.r.g.g.",
"g.| } |  .#.&.*.1.2.3.3.5.3.5.5.4.7.4.7.4.7.4.4.%.o.%.7.8.4.8.8.4.7.q.q.8.7.r.r.r.r.r.r.r.q.r.8.r.r.e.q.y.L K Q ) p.d.f.f.d.d.s.p.~ C Z U -.,.q.r.g.g.",
"g.| [ |  .O.$.*.1.2.2.3.5.5.3.5.4.7.6.7.4.7.4.8.8.8.8.8.8.8.8.3.4.8.8.r.8.8.r.r.r.r.r.r.r.r.r.w.r.0.U v E ` a.s.d.f.f.f.f.d.p.W C v I >.0.8.w.r.r.r.g.",
"g.[ [ |  .X.#.*.1.2.3.3.5.3.5.5.4.3.6.6.4.4.7.4.8.8.8.4.8.8.8.8.8.8.8.8.8.r.r.8.r.8.8.r.w.w.q.u.R Q ( p.s.d.f.f.f.d.d.s.^ n m J y.>.9.r.w.r.r.r.r.r.g.",
"g.[ ] [ |  .@.&.1.1.2.3.3.5.3.5.3.6.6.6.7.7.4.7.8.8.4.8.7.8.8.4.4.7.8.8.r.8.8.r.r.r.w.w.0.T E Q ` s.s.s.d.f.d.s.p._ N r e H ;.<.q.w.r.r.r.r.r.r.r.r.g.",
"g.] [ [ |  .O.$.&.1.2.3.3.3.3.5.3.4.6.6.7.4.8.4.4.8.7.8.8.4.8.7.7.4.8.8.8.r.r.r.e.w.i.P V ! ) a.s.a.a.s.a.) ~ B p q z y.<.9.r.r.r.r.r.r.r.r.8.r.r.r.g.",
"} ] [ ] [  .O.#.*.*.1.3.3.5.5.3.7.3.4.7.6.6.8.4.4.7.8.8.4.4.8.7.4.8.8.8.r.8.q.9.y.Z C ! ^ _ ' ' ' ' ~ N d u r g Y 0.q.r.r.r.r.r.r.r.r.r.r.r.r.r.r.8.8.",
"g.] ] [ [ | X.@.*.*.1.2.3.3.3.3.3.3.3.4.6.8.6.8.7.4.4.8.7.8.8.4.7.4.8.8.8.0.-.c V S ~ ^ / / ~ ! N s i 0 q l 0.e.r.r.r.r.r.r.r.r.r.r.r.r.r.r.r.3.=.2.g.",
"[ ] ] ] [ }  .O.$.*.1.2.2.3.3.3.3.3.3.3.6.6.7.8.8.4.8.8.8.8.8.8.8.4.7.7.q.-.h p N D D ! D N i 0 0 y e H 0.w.t.r.r.r.r.r.r.r.r.r.8.r.t.w.r.=.o.....o.%.",
"} ] ] ] [ }  .O.#.*.*.1.2.3.3.4.3.4.7.4.6.6.6.4.4.8.7.4.8.8.8.7.4.7.4.8.w.H r u a N N s 0 8 0 w j y.9.r.r.r.r.r.r.r.r.r.r.r.r.r.t.r.3.o.4 4 < 4 7 ..+.",
"[ ] ] ] [ } | X.@.&.*.1.2.2.5.5.3.3.4.3.3.6.7.8.7.4.7.8.7.8.7.4.7.4.8.8.w.-.r 0 t r 9 9 r e z H i.r.r.t.r.r.r.r.r.r.r.r.r.w.t.r.=.7 : ; ; ; : < ..+.=.",
"[ ] ] ] [ } |  .@.#.*.*.2.2.2.4.3.7.3.3.3.6.4.7.4.7.7.9.;.;.<.4.8.7.4.8.r.r.k w q w e z G y.<.q.e.r.r.r.r.r.r.r.r.r.r.r.t.4...< ; $ $ $ ; : 4 ..=.4.r.",
"| ] ] ] [ | |  .O.#.&.*.=.2.2.2.3.3.7.3.3.6.6.8.8.4.:.P Z V x -.8.8.4.8.8.w.<.I G I :.,.9.r.t.w.r.r.r.r.r.r.r.r.r.t.r.=.4 ; * @ @ @ $ * : 7 *.8.w.r.r.",
"] ] ] ] [ } |  . .@.#.*.=.2.2.4.3.3.4.3.4.6.6.6.4.4.U Q ! B M H ,.7.8.8.8.8.q.8.r.e.q.r.r.r.r.r.r.r.t.r.r.r.t.t.8.o.< ; $ @ @ @ @ $ ; 7 3.r.t.r.8.w.r.",
"} ] ] ] ] { |  . .O.@.&.*.=.2.2.3.3.3.3.6.6.3.6.7.7.H A ! S M L ,.8.4.8.8.8.r.r.r.r.8.r.r.r.w.r.r.r.r.r.t.t.3.7 : * @ @ o @ @ $ ; ..4.t.r.r.r.r.r.w.r.",
"g.] ] ] [ { | | X.X.@.#.*.=.=.2.3.3.3.3.3.6.6.6.6.7.>.b M b z f 4.4.4.7.4.8.7.q.r.r.r.r.r.r.r.r.r.r.t.q.o.; $ $ @ o o @ $ * < %.r.t.r.r.q.w.8.r.q.r.g.",
"| ] ] ] [ | | |  .O.O.#.$.=.=.1.2.3.3.3.4.3.6.6.6.6.7.f F f ,.4.8.8.8.3.8.8.8.r.r.r.r.8.r.r.r.t.t.4.4 $ o o o o @ @ $ ; 7 4.t.t.r.r.r.r.r.w.q.w.w.q.r.",
"g.] ] ] ] [ |  . .X.O.O.@.*.*.=.2.3.3.3.7.3.3.7.6.6.6.4.7.r.4.7.8.8.8.8.8.8.8.r.r.r.q.r.r.r.r.o.; @ . . . . o @ * : %.r.t.w.q.w.r.r.r.r.w.q.r.q.q.r.g.",
"g.] ] ] ] { { | | X.O.O.@.$.*.=.=.3.2.3.3.3.3.4.6.6.6.6.8.8.8.8.4.7.8.3.8.8.8.8.r.r.w.r.%.4 $ o . . . . o $ : 4 =.t.t.r.w.r.r.r.r.r.q.8.r.r.8.r.w.r.g.",
"g.[ ] 6 ] [ { |  .X.O.O.@.@.&.=.=.=.2.3.3.3.3.3.6.6.6.7.6.6.8.6.8.8.4.7.3.8.7.8.8.8.%.; o . . . . . @ ; 4 o.8.t.r.w.q.r.q.w.r.r.r.r.w.r.q.r.r.r.q.w.g.",
"g.| ] ] ] [ | |  .| O.X.@.@.#.*.=.=.2.3.3.3.3.7.6.3.6.6.6.8.7.8.4.4.8.8.7.4.3.%.4 * @ o o . . o $ < ..3.r.t.r.r.r.r.r.r.r.r.r.r.r.r.r.q.w.q.r.r.r.r.g.",
"g.g.] ] ] ] { | | | X.O.@.#.#.%.%.=.=.=.2.3.3.3.3.6.6.6.6.6.6.8.7.8.8.3.%.7 : $ @ @ @ o . $ ; 4 %.8.r.w.t.r.r.r.r.r.r.r.r.r.r.r.r.w.q.w.q.w.8.r.r.r.g.",
"g.g.[ ] ] ] { | |  . .X.O.@.#.#.$.*.*.1.2.2.4.4.3.3.3.6.6.6.6.6.4.7.3.7 ; $ @ @ @ @ @ ; 4 o.2.r.r.r.r.r.r.r.r.r.r.r.r.r.r.r.r.r.r.r.r.q.w.q.q.q.w.g.g.",
"g.g.] ] ] ] [ | {  . . .O.@.@.#.#.&.*.1.2.2.2.4.3.3.5.5.6.6.6.3.3.%.: * @ @ @ o $ < ..%.4.r.r.r.r.r.r.r.r.r.r.r.r.r.r.r.r.r.r.r.r.8.r.q.q.w.w.w.q.g.g.",
"g.g.[ ] ] ] ] {  . . . .X.O.@.#.#.$.&.*.*.2.2.2.3.3.3.5.3.6.3.3.%.7 * $ $ $ ; 7 o.2.8.r.w.r.r.8.r.r.r.r.r.r.r.r.r.r.r.r.r.r.r.r.r.r.r.r.w.w.q.q.g.g.g.",
"g.g.g.] ] ] ] { {  . . .X.O.O.#.#.$.$.*.*.*.1.2.2.3.3.3.3.3.5.3.%.< $ @ ; 7 %.3.8.8.8.8.r.r.r.r.r.r.r.t.r.r.r.r.r.r.r.r.r.r.r.r.r.r.8.r.q.q.w.8.g.g.g.",
"g.g.g.[ ] ] ] [ | |  . .X.X.O.O.#.#.#.$.*.*.2.*.2.3.2.3.3.3.3.3.%.4 * $ : %.8.8.7.8.8.8.r.8.8.8.8.r.8.r.r.r.r.r.r.r.r.r.r.r.r.r.w.r.8.r.w.q.q.r.g.g.g.",
"g.g.g.g.] ] ] [ |  . . . . .O.O.@.#.$.#.$.*.*.2.1.2.3.3.5.2.3.3.3.o.; $ $ ..3.8.4.8.8.3.8.8.r.8.8.8.r.r.8.r.r.r.r.r.r.r.r.r.q.r.q.w.r.8.q.q.w.g.g.g.g.",
"g.g.g.g.[ ] ] ] [ |  . . . . .X.#.#.@.$.#.&.*.*.*.1.2.3.3.3.3.3.3.=.: @ o ; o.8.4.3.3.8.4.8.8.8.8.8.8.8.r.8.r.r.r.r.r.r.r.r.r.r.w.q.w.q.w.8.r.g.g.g.g.",
"g.g.g.g.g.{ ] ] ] |  . . .X. .X. . .#.#.#.$.*.*.*.1.=.2.2.3.3.2.3.3...@ o @ < 4.7.7.4.8.7.8.8.8.8.8.8.8.8.r.r.r.r.r.8.r.r.r.8.r.q.w.q.8.w.q.g.g.g.g.g.",
"g.g.g.g.g.g.] ] ] [ |  . . . . . .@.@.@.#.#.$.&.&.=.=.1.2.2.3.2.3.3.=.; @ o $ o.7.4.7.4.7.6.8.8.8.8.8.8.8.q.r.r.r.q.8.r.r.8.r.r.q.q.w.q.w.r.g.g.g.g.g.",
"g.g.g.g.g.g.[ ] ] ] }  . . . .X.@. . .@.@.#.#.#.&.&.*.=.1.2.2.3.=.3.3.7 $ o o ; =.4.4.3.4.7.4.8.8.q.8.8.8.8.8.r.r.r.r.r.r.r.r.r.w.w.q.7.r.g.g.g.g.g.g.",
"g.g.g.g.g.g.g.[ ] ] [ |  . . . . . .@. . .#.#.#.$.&.*.*.=.=.1.2.3.3.3.=.< @ o o < %.4.3.3.4.4.7.8.8.8.8.8.r.8.r.r.r.r.r.r.8.8.r.q.q.r.r.g.g.g.g.g.g.g.",
"g.g.g.g.g.g.g.[ ] ] ] [  . . . . . . . . .@.@.#.#.$.$.&.*.=.=.=.=.=.=.4.%.: @ o $ < 4.3.3.3.7.3.8.8.8.8.7.8.r.r.8.r.r.8.r.r.r.r.w.q.q.r.g.g.g.g.g.g.g.",
"g.g.g.g.g.g.g.g.[ ] ] ] }  . . . . . . . . . .@.@.#.#.&.$.*.*.*.=.=.=.2.2.%.; @ o @ ..3.3.3.4.7.4.7.8.8.8.7.q.8.r.r.r.r.r.r.r.r.r.r.r.g.g.g.g.g.g.g.g.",
"g.g.g.g.g.g.g.g.g.] ] ] ] }  . . . .@. .@. . . . .@.@.#.#.$.$.*.*.*.=.*.=.3...; @ o $ < =.3.3.3.4.3.3.4.8.7.r.r.r.q.r.q.r.8.8.r.r.r.g.g.g.g.g.g.g.g.g.",
"g.g.g.g.g.g.g.g.g.g.[ ] ] [ }  . . . . . . . . . . . .@.@.@.@.$.$.&.*.*.=.=.%...$ @ o o : =.3.3.3.3.3.3.8.3.4.7.8.q.r.r.r.r.r.r.e.g.g.g.g.g.g.g.g.g.g.",
"g.g.g.g.g.g.g.g.g.g.g.] ] ] [ }  . . . . . .@. . . . .@.O.@.@.@.@.#.%.*.%.%.=.=.4 $ o . . : o.3.3.3.3.3.3.4.8.4.4.7.8.8.8.8.r.8.g.g.g.g.g.g.g.g.g.g.g.",
"g.g.g.g.g.g.g.g.g.g.g.g.[ ] ] [ }  . . . . . . . . . . .@.@.O. .O.O.O.#.$.&.&.&.&.7 # . . . % +.1.3.2.3.5.5.5.5.5.4.4.8.8.6.8.g.g.g.g.g.g.g.g.g.g.g.g.",
"g.g.g.g.g.g.g.g.g.g.g.g.g.[ ] ] ] } |  . . . . . .O. . . . . .O.O.O.O.O.O.#.#.$.$.#.2 $ X     # < &.3.3.2.5.5.2.5.5.5.5.6.6.g.g.g.g.g.g.g.g.g.g.g.g.g.",
"g.g.g.g.g.g.g.g.g.g.g.g.g.g.{ [ ] [ [ |  . . . . . . . . . . . . .O.O.O.O.O.O.#.#.&.O.5 & .     O ; O.1.2.2.2.5.2.5.3.3.2.g.g.g.g.g.g.g.g.g.g.g.g.g.g.",
"g.g.g.g.g.g.g.g.g.g.g.g.g.g.g.| ] ] [ [ [  . . . . . . . . . . . . . . .O.O.X. .O.O.#.O.] & + . . X = < O.*.1.2.2.2.2.2.g.g.g.g.g.g.g.g.g.g.g.g.g.g.g.",
"g.g.g.g.g.g.g.g.g.g.g.g.g.g.g.g.g.} [ [ [ [ } |  . . . . . . . .|  . . . . . . . .| X.O.X.5 - @ X o + # = > 6 #.1.*.g.g.g.g.g.g.g.g.g.g.g.g.g.g.g.g.g.",
"g.g.g.g.g.g.g.g.g.g.g.g.g.g.g.g.g.g.| [ [ ] [ [ } }  . . . . . . . . .|  .|  .| | | { [ | | 6 1 - # @ # # % = 5 g.g.g.g.g.g.g.g.g.g.g.g.g.g.g.g.g.g.g.",
"g.g.g.g.g.g.g.g.g.g.g.g.g.g.g.g.g.g.g.g.} [ [ [ [ [ [ } | |  . . .|  .| | | } } { { [ [ ] } [ { } 3 > = $ % & g.g.g.g.g.g.g.g.g.g.g.g.g.g.g.g.g.g.g.g.",
"g.g.g.g.g.g.g.g.g.g.g.g.g.g.g.g.g.g.g.g.g.g.| [ [ [ [ [ [ [ } [ } | } | } } } [ [ [ [ [ [ ] ] ] [ } | [ 1 g.g.g.g.g.g.g.g.g.g.g.g.g.g.g.g.g.g.g.g.g.g.",
"g.g.g.g.g.g.g.g.g.g.g.g.g.g.g.g.g.g.g.g.g.g.g.g.g.} [ [ [ [ [ [ [ [ [ [ [ [ [ [ [ [ [ [ [ [ ] ] [ ] ] g.g.g.g.g.g.g.g.g.g.g.g.g.g.g.g.g.g.g.g.g.g.g.g.",
"g.g.g.g.g.g.g.g.g.g.g.g.g.g.g.g.g.g.g.g.g.g.g.g.g.g.g.| } } ] [ [ [ [ [ [ [ [ [ [ [ [ [ [ [ | g.g.g.g.g.g.g.g.g.g.g.g.g.g.g.g.g.g.g.g.g.g.g.g.g.g.g.g.",
"g.g.g.g.g.g.g.g.g.g.g.g.g.g.g.g.g.g.g.g.g.g.g.g.g.g.g.g.g.g.g.g.| g.} } } } } [ } g.| g.g.g.g.g.g.g.g.g.g.g.g.g.g.g.g.g.g.g.g.g.g.g.g.g.g.g.g.g.g.g.g."
};
