/* XPM */
static char *_4[] = {
/* columns rows colors chars-per-pixel */
"75 75 132 2 ",
"   c #2D2A2E",
".  c #2F2C30",
"X  c #322F33",
"o  c #363636",
"O  c #3B363C",
"+  c #3C3B3C",
"@  c #3E3740",
"#  c #3F3C40",
"$  c #413B42",
"%  c #473F49",
"&  c #434343",
"*  c #484349",
"=  c #4C4C4C",
"-  c #4F4851",
";  c #504752",
":  c #524D53",
">  c #574E5A",
",  c #535353",
"<  c #575258",
"1  c #5B535D",
"2  c #5B5B5B",
"3  c #5E5461",
"4  c #5E5960",
"5  c #645A66",
"6  c #636363",
"7  c #6A626B",
"8  c #6C6C6C",
"9  c #6F6372",
"0  c #716F71",
"q  c #7B6E7E",
"w  c #737373",
"e  c #7A717C",
"r  c #7C7B7C",
"t  c #EC0E0E",
"y  c #EB1313",
"u  c #E61D1D",
"i  c #EC1C1C",
"p  c #DE3434",
"a  c #DB3B3B",
"s  c #E32626",
"d  c #EE2020",
"f  c #E22B2B",
"g  c #EE2929",
"h  c #E03030",
"j  c #ED3636",
"k  c #EC3A3A",
"l  c #F03434",
"z  c #F23F3F",
"x  c #BA7E7E",
"c  c #D74646",
"v  c #DA4040",
"b  c #D44E4E",
"n  c #DB4D4D",
"m  c #CE5C5C",
"M  c #D55757",
"N  c #D75D5D",
"B  c #DA5B5B",
"V  c #E34444",
"C  c #E64C4C",
"Z  c #EA4C4C",
"A  c #F04343",
"S  c #F34D4D",
"D  c #E35454",
"F  c #EB5252",
"G  c #E35A5A",
"H  c #EC5C5C",
"J  c #F25656",
"K  c #F55C5C",
"L  c #CD6565",
"P  c #C76E6E",
"I  c #CC6C6C",
"U  c #D36464",
"Y  c #DC6464",
"T  c #D36868",
"R  c #DC6969",
"E  c #C77474",
"W  c #CC7272",
"Q  c #C27B7B",
"!  c #E46262",
"~  c #EF6969",
"^  c #F46464",
"/  c #F56B6B",
"(  c #F86C6C",
")  c #F37373",
"_  c #F97575",
"`  c #F67D7D",
"'  c #F97D7D",
"]  c #7C6E80",
"[  c #7F7182",
"{  c #827385",
"}  c #837A85",
"|  c #857688",
" . c #867A89",
".. c #897E8C",
"X. c #848484",
"o. c #8B818E",
"O. c #8C8B8C",
"+. c #8E8591",
"@. c #908693",
"#. c #938B95",
"$. c #968E98",
"%. c #949394",
"&. c #979098",
"*. c #9A949B",
"=. c #9D9A9D",
"-. c #BF8787",
";. c #BD8B8B",
":. c #B29595",
">. c #BB9393",
",. c #B49D9D",
"<. c #B99C9C",
"1. c #9F9AA0",
"2. c #A19DA1",
"3. c #A5A4A5",
"4. c #AEA3A3",
"5. c #A7A5A8",
"6. c #A8A7A8",
"7. c #ABABAB",
"8. c #B5A3A3",
"9. c #B8A1A1",
"0. c #B2ACAC",
"q. c #B0AFB0",
"w. c #B1B1B1",
"e. c #C18484",
"r. c #C18989",
"t. c #F68383",
"y. c #F98585",
"u. c #F78D8D",
"i. c #F98A8A",
"p. c #FA9494",
"a. c #FB9A9A",
"s. c None",
/* pixels */
"s.s.s.s.s.s.s.s.s.s.s.s.s.s.s.s.s.s.s.s.s.s.s.s.s.s.s.s.s.s.s.s.s.w.3.3.3.%.w 6 6 8 s.s.s.s.s.s.s.s.s.s.s.s.s.s.s.s.s.s.s.s.s.s.s.s.s.s.s.s.s.s.s.s.s.",
"s.s.s.s.s.s.s.s.s.s.s.s.s.s.s.s.s.s.s.s.s.s.s.s.s.s.s.s.7.7.w.7.7.7.7.3.%.w 6 6 8 O.7.w.w.w.w.s.s.s.s.s.s.s.s.s.s.s.s.s.s.s.s.s.s.s.s.s.s.s.s.s.s.s.s.",
"s.s.s.s.s.s.s.s.s.s.s.s.s.s.s.s.s.s.s.s.s.s.s.s.s.7.w.w.7.3.7.3.6.3.3.=.8 2 2 6 %.7.w.7.w.w.w.w.w.w.s.s.s.s.s.s.s.s.s.s.s.s.s.s.s.s.s.s.s.s.s.s.s.s.s.",
"s.s.s.s.s.s.s.s.s.s.s.s.s.s.s.s.s.s.s.s.s.s.w.w.7.7.7.7.7.3.7.7.7.3.=.8 , , 6 %.7.7.7.w.w.w.w.7.w.w.w.w.w.s.s.s.s.s.s.s.s.s.s.s.s.s.s.s.s.s.s.s.s.s.s.",
"s.s.s.s.s.s.s.s.s.s.s.s.s.s.s.s.s.s.s.s.7.3.3.7.7.7.3.7.7.3.7.3.3.=.w = = 2 X.7.7.w.w.7.7.w.w.7.w.w.w.7.w.w.w.s.s.s.s.s.s.s.s.s.s.s.s.s.s.s.s.s.s.s.s.",
"s.s.s.s.s.s.s.s.s.s.s.s.s.s.s.s.s.s.w.w.7.7.7.7.3.7.7.7.7.7.7.3.3.r , & = w =.7.7.7.7.w.w.7.w.w.w.w.w.w.w.w.w.w.w.s.s.s.s.s.s.s.s.s.s.s.s.s.s.s.s.s.s.",
"s.s.s.s.s.s.s.s.s.s.s.s.s.s.s.s.s.w.7.7.7.3.7.3.7.7.7.7.7.7.7.3.X.2 & & 8 3.7.7.7.w.7.w.7.w.7.w.w.w.7.w.w.w.w.w.w.w.s.s.s.s.s.s.s.s.s.s.s.s.s.s.s.s.s.",
"s.s.s.s.s.s.s.s.s.s.s.s.s.s.s.3.3.7.3.3.7.7.7.3.7.3.7.3.7.3.7.%.6 = & 6 3.7.7.w.w.7.w.7.w.7.w.w.w.w.w.w.w.w.w.w.w.w.w.w.s.s.s.s.s.s.s.s.s.s.s.s.s.s.s.",
"s.s.s.s.s.s.s.s.s.s.s.s.s.s.3.6.7.7.7.7.3.7.7.7.3.7.7.7.7.7.7.w , & = %.7.w.7.7.w.w.7.w.w.7.w.7.w.w.w.w.w.w.w.w.w.w.w.w.w.s.s.s.s.s.s.s.s.s.s.s.s.s.s.",
"s.s.s.s.s.s.s.s.s.s.s.s.s.6.3.6.3.7.3.7.7.7.3.7.7.7.3.3.7.7.O.2 & & r 7.7.7.7.w.w.7.w.7.7.w.w.w.w.w.w.w.w.w.w.w.w.w.w.w.w.w.s.s.s.s.s.s.s.s.s.s.s.s.s.",
"s.s.s.s.s.s.s.s.s.s.s.s.3.6.6.3.3.7.3.7.3.7.3.7.7.7.3.7.7.3.w , + , 3.7.7.7.w.7.7.w.7.w.w.7.w.7.w.w.w.w.w.w.w.w.w.w.w.w.w.w.w.s.s.s.s.s.s.s.s.s.s.s.s.",
"s.s.s.s.s.s.s.s.s.s.s.3.3.6.6.6.3.7.7.7.7.7.7.3.7.3.7.7.7.%.2 & & 8 7.7.w.7.7.w.w.7.w.7.w.7.w.w.w.w.w.w.w.w.w.w.w.w.w.w.w.w.w.w.s.s.s.s.s.s.s.s.s.s.s.",
"s.s.s.s.s.s.s.s.s.s.3.3.6.3.6.3.3.7.3.3.7.7.7.7.7.7.7.3.3.X.= & + %.7.w.7.7.w.7.7.w.7.w.w.w.w.w.w.w.w.w.w.w.w.w.w.w.w.w.w.w.w.w.w.s.s.s.s.s.s.s.s.s.s.",
"s.s.s.s.s.s.s.s.s.3.3.3.6.6.6.6.7.7.7.7.3.7.3.3.3.7.7.7.7.8 & o , 7.7.7.7.w.7.w.w.7.w.w.7.w.w.w.w.w.w.w.w.w.w.w.w.w.w.w.w.w.w.w.w.w.s.s.s.s.s.s.s.s.s.",
"s.s.s.s.s.s.s.s.3.3.3.7.7.3.3.6.7.3.3.7.7.7.7.7.3.7.3.3.7., + o 2 7.7.7.7.w.7.7.w.w.w.w.w.w.w.w.w.w.w.w.w.w.w.w.w.w.w.w.w.w.w.w.w.w.w.s.s.s.s.s.s.s.s.",
"s.s.s.s.s.s.s.=.3.3.3.3.3.6.6.3.3.7.7.7.7.3.3.7.7.7.3.7.7., + + 8 7.7.w.w.7.w.w.7.w.7.w.w.w.w.7.w.w.w.w.w.w.w.w.w.w.w.w.w.w.w.w.w.w.w.w.s.s.s.s.s.s.s.",
"s.s.s.s.s.s.s.3.2.3.3.3.6.6.3.7.3.7.3.7.7.7.3.7.3.7.3.3.3.= & & X.7.7.7.7.w.7.w.7.w.7.w.w.w.7.w.w.w.w.w.w.w.w.w.w.w.w.w.w.w.w.w.w.w.w.w.s.s.s.s.s.s.s.",
"s.s.s.s.s.s.2.2.2.3.6.6.6.6.6.3.3.7.7.7.3.7.3.7.7.7.7.7.O.= & = X.w.7.7.7.7.w.7.w.w.w.w.w.w.w.w.w.w.7.w.w.w.w.w.w.w.w.w.w.w.w.w.w.w.w.w.w.s.s.s.s.s.s.",
"s.s.s.s.s.%.2.2.2.3.3.3.6.3.7.7.7.7.3.3.7.3.7.7.7.3.7.7.r , & = X.7.w.7.w.7.7.w.w.7.w.7.7.w.w.w.7.w.w.w.w.w.w.w.w.w.w.w.w.w.w.w.w.w.w.w.w.w.s.s.s.s.s.",
"s.s.s.s.s.=.2.2.3.3.3.3.3.6.3.6.3.7.7.7.7.7.7.3.3.7.3.7.r , = 2 =.7.7.7.7.w.w.w.w.w.w.7.w.w.w.w.w.w.w.w.w.w.w.w.w.w.w.w.w.w.w.w.w.w.w.w.w.w.s.s.s.s.s.",
"s.s.s.s.#.*.=.3.2.3.3.3.7.3.6.6.7.3.7.7.3.3.7.7.3.7.7.3.X.2 = , X.X.O.%.%.=.3.7.7.w.w.w.w.w.w.w.w.w.w.w.w.w.w.w.w.w.w.w.w.w.w.w.w.w.w.w.w.w.w.s.s.s.s.",
"s.s.s.s.%.*.=.2.3.2.3.3.3.6.3.6.3.7.7.7.7.7.7.3.7.3.7.7.%.2 = & , = = = , , 2 2 6 2 6 8 r X.O.O.%.=.3.w.w.w.w.w.w.w.w.w.w.w.w.w.w.w.w.w.w.w.w.s.s.s.s.",
"s.s.s. .$.&.=.3.3.3.3.3.3.7.6.3.7.3.3.7.7.7.7.3.7.7.7.7.3.8 , , = = = = = & & & & & + + + + + & + & + + & & = , , 6 6 6 8 w X.O.O.O.O.%.=.=.2.2.s.s.s.",
"s.s.s.o.#.%.*.=.2.3.3.3.3.3.6.3.3.7.7.7.3.3.7.7.7.7.7.7.7.%.X.8 2 , , , = = = & & + + + o o + + + + + + o + + & & & = = , , 2 6 6 6 6 8 8 w r r s.s.s.",
"s.s.s...#.%.*.2.3.2.3.3.3.6.6.6.7.7.7.7.7.7.3.3.7.7.7.7.7.7.3.7.7.3.3.%.O.r w 6 2 2 , = & & & & & & & + + & = , & = = , , , 2 2 6 6 6 8 6 8 8 w s.s.s.",
"s.s.}  .o.#.&.=.2.3.3.3.3.6.6.6.3.3.7.3.3.7.7.7.7.7.3.7.7.7.7.7.7.7.7.7.3.3.3.=.%.%.=.=.=.=.=.%.%.%.%.%.%.%.O.3.r w r r w 8 w w w w w w w w w w r s.s.",
"s.s.}  .o.#.*.*.1.3.3.3.3.3.6.6.3.7.3.7.3.7.7.7.7.7.7.7.7.7.7.7.7.7.7.7.7.7.7.7.w.w.w.w.w.w.w.w.w.w.w.w.w.w.w.w.w.w.w.w.w.w.w.w.w.w.w.q.3.2.3.3.6.s.s.",
"s.s.{  ...@.&.*.1.2.3.3.3.3.6.6.7.3.3.7.7.7.3.3.3.7.7.7.3.7.7.7.7.7.7.7.7.7.7.7.7.w.7.7.w.w.w.w.w.w.w.w.w.w.w.w.w.w.w.w.w.w.w.w.w.w.w.w.q.w.w.w.w.s.s.",
"s.{ { | o.o.$.*.=.3.3.3.3.3.3.6.3.7.3.3.7.7.7.7.7.7.7.7.7.7.7.7.7.7.7.3.7.7.7.w.7.w.w.w.w.7.w.w.w.w.w.7.w.w.w.w.w.w.w.w.w.w.w.w.w.w.w.w.w.w.w.w.w.w.s.",
"s.[ [ | } o.#.&.=.1.3.2.3.3.3.3.3.3.7.3.7.3.3.7.7.7.3.7.7.7.7.7.7.7.7.7.7.7.7.7.w.w.7.w.w.w.w.w.w.w.w.w.w.w.w.w.w.w.w.w.w.w.w.w.w.w.w.w.w.w.w.w.w.w.s.",
"s.[ [ { | o.O.&.*.1.3.3.3.3.3.6.7.3.3.7.7.7.7.3.7.3.7.7.7.7.7.7.7.7.7.7.7.7.w.7.w.7.w.w.w.w.w.7.w.w.w.w.w.w.w.w.w.w.w.w.w.w.w.w.w.w.w.w.w.w.w.w.w.w.s.",
"s.[ q [ }  .+.$.*.=.3.3.3.3.3.6.3.7.7.3.3.7.7.7.7.7.7.7.7.7.7.7.7.7.7.7.7.7.w.w.w.7.w.7.w.w.w.w.w.7.w.w.w.w.w.w.w.w.w.w.w.w.w.w.w.w.w.w.w.w.w.w.w.w.s.",
"s.[ [ [ [ o.o.#.*.=.1.3.3.5.5.3.7.3.3.3.3.7.7.7.7.7.7.7.7.7.7.7.7.7.7.3.7.7.w.w.7.w.w.7.w.w.w.w.0.w.w.w.w.w.w.w.w.w.w.w.w.w.w.w.w.w.w.w.w.w.w.w.w.w.s.",
"..[ [ [ [ [ o.+.&.*.1.3.3.3.3.5.3.3.7.7.7.3.7.3.7.7.7.7.7.7.7.7.7.7.7.7.7.w.7.7.0.w.w.w.w.w.w.w.w.w.w.w.w.w.w.w.w.w.w.w.w.w.w.w.w.w.w.w.w.w.w.w.w.w.w.",
"[ [ [ [ [ [ o.+.&.*.=.=.3.3.5.3.3.3.7.3.3.7.7.7.7.7.:.W R W :.7.7.7.7.3.7.w.:.Q L N G G D G G G ! ! R R Y B B B R T T W W W W Q Q r.>.<.9.<.9.<.9.8.9.",
"[ [ [ [ [  . .+.#.*.=.=.2.2.3.3.3.7.3.3.7.3.7.3.7.3.U ~ K F M :.7.7.7.7.7.w.m f l Z J ^ / / / ) ` y.t.t.t.t.t.y.y.` ) ) ~ H J F Z C C C F Z Z V n U W ",
"[ [ [ [ x ] ] o.#.$.*.=.2.2.3.5.3.7.3.3.3.7.3.7.7.3.D ~ ~ S F Q 7.7.7.7.7.w.p u j A K ^ ( ( ( _ ' y.y.y.i.u.p.a.a.a.a.a.a.a.a.p.y.t.t.` ` ` ) ) K G R ",
"[ [ [ [ { | [ X.+.$.&.=.=.3.3.3.3.3.3.7.7.3.7.7.7.7.n F F Z D Q 7.7.3.7.w.w.v u d l z S J K K K / _ ' ' y.u.p.p.p.a.p.a.a.a.a.a.p.u.i.y.y.y.y.' ) H Y ",
"[ [ [ [ { } |  .o.#.&.*.=.2.3.3.3.3.3.3.3.7.3.7.7.7.x b c M P :.7.7.7.7.7.0.P p s s d y i y i d d d g l l A J / ( ` ' y.i.p.p.p.u.i.y.' t.t.t.` ) H W ",
"[ [ [ [ { |  ...o.@.#.*.*.=.2.2.3.3.7.3.3.3.7.3.7.3.7.7.4.,.4.7.7.7.7.7.w.w.4.P b c v a h f h f f p f s s s s f s s s s s f k V C F F Z F H H G C N ;.",
" .[ [ [ [  . ...o.o.$.%.*.=.2.3.3.3.3.3.3.3.7.3.7.7.7.7.7.7.7.7.7.7.7.7.w.w.w.w.w.4.>.-.e.e.Q W r.9.9.9.8.w.w.w.0.9.<.>.e.e.e.e.e.e.e.e.e.-.-.;.>.8.w.",
" .[ [ [  ... . .o.o.+.#.*.*.=.2.3.3.3.3.7.3.3.7.3.7.3.7.7.7.7.7.7.7.3.7.7.w.w.7.w.w.w.w.w.w.w.w.w.w.w.w.w.w.w.w.w.w.w.w.w.w.w.w.w.w.w.w.w.w.q.w.w.w.w.",
"s.[ [ [ [ [  ...o.o.o.#.&.*.2.2.3.3.3.3.3.3.7.3.3.7.7.7.7.7.7.7.7.7.7.7.7.w.w.w.w.w.w.w.w.w.w.w.w.w.w.w.w.w.w.w.w.w.w.w.w.w.w.w.w.w.w.w.w.w.w.q.w.w.s.",
"s.[ [ [ [ ....[ o.o.o.@.#.&.*.1.=.3.3.3.3.3.7.3.7.7.3.7.7.7.7.7.7.7.7.7.7.w.w.7.w.w.w.w.w.w.w.w.w.w.w.w.w.w.w.w.w.w.w.w.w.w.w.w.w.w.w.w.w.w.w.w.w.w.s.",
"s.[ [ [ [  ... ...o.o.o.#.$.*.=.=.3.3.3.3.3.7.3.6.6.7.3.7.7.7.7.3.7.7.7.w.w.w.w.7.w.w.w.w.w.w.w.w.w.w.w.w.w.w.w.w.w.w.w.w.w.w.w.w.w.w.w.w.w.w.w.w.q.s.",
"s.[ [ [ [ .. . . .o.o.#.+.#.&.=.=.=.=.3.3.3.3.3.6.6.3.7.7.7.7.6.7.7.7.7.7.w.w.7.w.w.w.w.w.w.w.w.w.w.w.w.w.w.w.w.w.w.w.w.w.w.w.w.w.w.w.w.w.w.q.w.w.w.s.",
"s. .[ [ [ [  . . ...o.@.#.@.#.%.=.=.=.3.3.3.3.3.6.6.3.3.2.3.3.=.O.O.%.%.=.3.7.7.3.=.3.7.w.w.w.w.w.w.w.w.w.w.w.w.w.w.w.w.w.w.w.w.w.w.w.w.q.w.w.w.w.w.s.",
"s.s.[ [ [ [  .....o.o.o.o.#.%.%.%.=.=.=.3.3.3.3.3.3.3.3.%.w 2 , = = = = = = = = & & & & = = & = = , , 8 6 6 6 6 8 6 6 6 8 8 8 8 8 w w r r O.O.%.3.s.s.",
"s.s.[ [ [ [  . .......+.+.@.#.#.$.*.*.=.1.3.3.3.3.3.3.%.w = , = & & & & & & & + o o o o o o o o o o o + & & & & + & & & & = & = = , 2 6 6 w r X.O.s.s.",
"s.s.[ [ [ | | .. .......+.@.@.#.$.&.*.=.=.1.3.3.2.3.3.O.6 * & = = = & & & & & & + + o o o o o o o + o + & & & & & & & & & & & = = , 2 6 6 w r X.%.s.s.",
"s.s.s.[ [ [ |  .........o.@.@.#.#.$.&.*.=.=.2.3.3.3.3.O.2 = = 0 X.X.X.X.X.X.r r r r w w w 8 r 0 8 6 6 2 2 2 2 2 , 2 2 , , 2 2 2 6 8 w r X.O.O.%.s.s.s.",
"s.s.s.[ [ [ [  . .........+.@.@.#.$.%.&.*.=.1.2.2.3.3.%.2 = = O.7.7.3.7.7.w.7.w.w.w.w.w.w.w.w.w.w.w.w.0.w.w.w.w.w.w.w.w.w.w.w.w.q.w.w.q.w.7.w.w.s.s.s.",
"s.s.s.| [ [ [ |  .......o.o.+.@.#.$.$.$.*.*.*.=.=.3.3.=.= & * O.7.7.3.7.7.7.w.w.w.w.w.w.w.w.w.w.w.w.w.w.w.w.w.w.w.w.w.w.w.w.w.w.q.w.q.w.w.q.q.w.s.s.s.",
"s.s.s.s.[ [ [ [ [ ..........o.+.+.#.#.$.&.*.*.=.=.=.3.=.= + & r 3.3.7.3.7.7.w.w.w.w.w.w.w.w.w.w.w.w.w.w.w.w.w.w.w.w.w.w.w.w.w.w.q.q.w.q.w.q.q.s.s.s.s.",
"s.s.s.s.| [ | | [ o.......o.o.o.+.@.#.$.$.&.=.=.=.=.1.=., + + 6 6.3.3.7.3.7.7.7.w.w.w.w.w.w.w.w.w.w.w.w.w.w.w.w.w.w.w.w.w.w.w.w.q.q.w.q.q.w.w.s.s.s.s.",
"s.s.s.s.s.[ [ [ [ ............o.+.+.+.#.#.%.&.&.*.=.=.=.2 & $ 2 3.3.3.3.7.3.7.7.7.7.w.7.w.w.w.w.w.w.w.w.w.w.w.w.w.w.w.w.w.w.w.0.q.q.q.w.q.q.s.s.s.s.s.",
"s.s.s.s.s. .[ { [  . .........+.o.+.+.+.$.#.$.&.*.=.=.=.8 & # = 2.3.3.3.7.7.7.6.6.7.7.q.q.w.w.w.w.w.w.w.w.w.w.w.w.w.w.w.w.w.w.w.w.q.w.q.w.w.s.s.s.s.s.",
"s.s.s.s.s.s.[ [ [ [ | ..............o.+.@.#.@.$.&.&.&.*.[ & + $ O.3.3.3.3.6.6.7.7.6.7.7.q.w.w.w.w.w.w.w.w.w.w.w.w.w.w.w.w.0.w.w.q.q.q.w.w.s.s.s.s.s.s.",
"s.s.s.s.s.s.s.{ [ [ |  ...........+...o.+.+.$.$.$.&.&.=.%., + + w 2.3.3.3.3.3.7.7.7.7.7.7.7.q.w.w.w.w.w.w.w.w.w.w.w.w.w.w.w.7.w.q.q.w.w.s.s.s.s.s.s.s.",
"s.s.s.s.s.s.s. .[ | [ | ..........o.....o.o.+.#.#.$.%.&.&.7 & # , =.2.2.3.3.3.6.6.6.6.6.7.7.7.q.w.w.w.w.w.w.w.w.w.w.w.w.7.w.w.w.w.w.w.w.s.s.s.s.s.s.s.",
"s.s.s.s.s.s.s.s.{ { { [ | ....................+.+.$.@.%.%.r * # # @.1.1.2.2.3.3.3.4.7.6.7.7.7.w.7.w.w.w.w.w.w.w.7.w.w.w.w.w.w.w.w.w.w.s.s.s.s.s.s.s.s.",
"s.s.s.s.s.s.s.s.s.{ { { [ | ..........+...+...o.o.+.+.#.#.o.= + + 6 =.*.2.2.3.3.3.3.6.6.7.7.7.7.7.0.0.7.7.w.w.w.w.w.w.w.w.w.w.7.w.w.s.s.s.s.s.s.s.s.s.",
"s.s.s.s.s.s.s.s.s.s.{ { | [ | ............+.o.....o.+.+.@.@.4 # o + X.*.*.=.=.2.3.2.3.3.3.7.7.7.7.7.7.7.7.7.7.7.7.w.w.7.w.w.w.w.w.s.s.s.s.s.s.s.s.s.s.",
"s.s.s.s.s.s.s.s.s.s.s.{ [ { [ | ................o.o...o.o.+.e $ o X 2 &.%.%.=.=.2.2.2.3.3.6.7.7.7.7.7.7.7.7.7.7.7.7.7.7.7.0.7.7.s.s.s.s.s.s.s.s.s.s.s.",
"s.s.s.s.s.s.s.s.s.s.s.s.{ { { { {  .............o.......o.o.o.: X X O } $.$.*.&.=.2.1.1.2.5.5.5.5.0.0.5.5.q.5.q.q.5.5.q.5.5.q.s.s.s.s.s.s.s.s.s.s.s.s.",
"s.s.s.s.s.s.s.s.s.s.s.s.s.{ { { { |  ...........o...o.........7 + .   < o.@.$.$.&.*.1.2.1.1.1.1.5.5.5.0.5.5.5.5.5.5.5.5.5.5.s.s.s.s.s.s.s.s.s.s.s.s.s.",
"s.s.s.s.s.s.s.s.s.s.s.s.s.s.{ { { { {  ...................X...{ : X   O e o.#.#.$.$.$.*.1.1.1.1.1.1.1.1.5.5.5.5.5.5.5.5.5.s.s.s.s.s.s.s.s.s.s.s.s.s.s.",
"s.s.s.s.s.s.s.s.s.s.s.s.s.s.s. .{ { { { |  ............... . . .5 O     = } o.+.@.@.$.$.$.$.$.1.$.1.*.1.1.1.1.1.5.1.5.q.s.s.s.s.s.s.s.s.s.s.s.s.s.s.s.",
"s.s.s.s.s.s.s.s.s.s.s.s.s.s.s.s.s.{ { { { { |  . .o...o....... .q - X   O 5 ........@.#.#.#.$.$.1.1.$.1.1.1.5.1.5.1.s.s.s.s.s.s.s.s.s.s.s.s.s.s.s.s.s.",
"s.s.s.s.s.s.s.s.s.s.s.s.s.s.s.s.s.s. .{ { ] { { |  . ..... ... .} 7 $ X X $ ]  ..... . .....@.@.....*.5...1...1.5.s.s.s.s.s.s.s.s.s.s.s.s.s.s.s.s.s.s.",
"s.s.s.s.s.s.s.s.s.s.s.s.s.s.s.s.s.s.s.s.| { { { { { { |  ... .|  .q 3 O X O ; ]  .| | | ............*...1.1.1.s.s.s.s.s.s.s.s.s.s.s.s.s.s.s.s.s.s.s.s.",
"s.s.s.s.s.s.s.s.s.s.s.s.s.s.s.s.s.s.s.s.s.s.| { { { { { { { { | { { q 3 @ @ $ > ] | | | | | | ............s.s.s.s.s.s.s.s.s.s.s.s.s.s.s.s.s.s.s.s.s.s.",
"s.s.s.s.s.s.s.s.s.s.s.s.s.s.s.s.s.s.s.s.s.s.s.s.s.{ { { { { { ] [ [ q q 1 @ $ $ ; 9 | { | | | | ....s.s.s.s.s.s.s.s.s.s.s.s.s.s.s.s.s.s.s.s.s.s.s.s.s.",
"s.s.s.s.s.s.s.s.s.s.s.s.s.s.s.s.s.s.s.s.s.s.s.s.s.s.s.s.{ { [ { [ ] ] q q 3 $ $ % > { | | |  .s.s.s.s.s.s.s.s.s.s.s.s.s.s.s.s.s.s.s.s.s.s.s.s.s.s.s.s.",
"s.s.s.s.s.s.s.s.s.s.s.s.s.s.s.s.s.s.s.s.s.s.s.s.s.s.s.s.s.s.s.s.s. .{ ] ] q 5 % * 1 s.s.s.s.s.s.s.s.s.s.s.s.s.s.s.s.s.s.s.s.s.s.s.s.s.s.s.s.s.s.s.s.s."
};
