/* XPM */
static char *_5[] = {
/* columns rows colors chars-per-pixel */
"75 75 148 2 ",
"   c #2A262A",
".  c #2C292D",
"X  c #2F2D30",
"o  c #322E33",
"O  c #353436",
"+  c #373338",
"@  c #3A363B",
"#  c #3C3B3C",
"$  c #3F3B40",
"%  c #423C43",
"&  c #463E48",
"*  c #444344",
"=  c #474348",
"-  c #4A424C",
";  c #4B4B4B",
":  c #4F4651",
">  c #514D52",
",  c #564F58",
"<  c #545454",
"1  c #5B535C",
"2  c #5C5C5C",
"3  c #5F5661",
"4  c #625765",
"5  c #625C64",
"6  c #675E69",
"7  c #636363",
"8  c #6A626C",
"9  c #6B6B6B",
"0  c #716B72",
"q  c #766979",
"w  c #7A6E7D",
"e  c #747374",
"r  c #7A727D",
"t  c #7C7C7C",
"y  c #EC0E0E",
"u  c #E71515",
"i  c #E71B1B",
"p  c #EA1B1B",
"a  c #DE3131",
"s  c #DA3B3B",
"d  c #E52323",
"f  c #EC2020",
"g  c #E22C2C",
"h  c #EB2B2B",
"j  c #F12727",
"k  c #F02B2B",
"l  c #EE3333",
"z  c #F03333",
"x  c #F13F3F",
"c  c #BB7F7F",
"v  c #D64545",
"b  c #D44D4D",
"n  c #DD4E4E",
"m  c #CE5E5E",
"M  c #D05757",
"N  c #DF5555",
"B  c #D45F5F",
"V  c #DD5B5B",
"C  c #E04242",
"Z  c #EF4242",
"A  c #E34B4B",
"S  c #EB4C4C",
"D  c #F24444",
"F  c #F34D4D",
"G  c #EA5252",
"H  c #E35B5B",
"J  c #EF5D5D",
"K  c #F35353",
"L  c #F35B5B",
"P  c #C76060",
"I  c #CE6767",
"U  c #CC6B6B",
"Y  c #D46363",
"T  c #DC6363",
"R  c #D46B6B",
"E  c #DB6E6E",
"W  c #C57575",
"Q  c #CA7575",
"!  c #C57979",
"~  c #C97D7D",
"^  c #D17171",
"/  c #E26464",
"(  c #EB6565",
")  c #E26969",
"_  c #EB6E6E",
"`  c #F26363",
"'  c #F86464",
"]  c #F46A6A",
"[  c #F86D6D",
"{  c #EF7575",
"}  c #F67474",
"|  c #F87070",
" . c #F67B7B",
".. c #F97A7A",
"X. c #7D6F81",
"o. c #7F7182",
"O. c #817385",
"+. c #837A85",
"@. c #857789",
"#. c #867A89",
"$. c #8A7E8C",
"%. c #838383",
"&. c #878089",
"*. c #8C818E",
"=. c #8C8B8C",
"-. c #8E8391",
";. c #8F8891",
":. c #918693",
">. c #938B95",
",. c #968E99",
"<. c #988F9A",
"1. c #949494",
"2. c #979198",
"3. c #9A949C",
"4. c #9D9B9D",
"5. c #BD8585",
"6. c #BD8C8C",
"7. c #AE9C9C",
"8. c #B29696",
"9. c #BC9393",
"0. c #B59B9B",
"q. c #BA9B9B",
"w. c #9E97A0",
"e. c #9F9AA0",
"r. c #A19DA2",
"t. c #A5A4A5",
"y. c #AFA0A0",
"u. c #A7A5A8",
"i. c #A8A7A8",
"p. c #ABABAB",
"a. c #B4A4A4",
"s. c #B2ACAC",
"d. c #AFAFB0",
"f. c #B0AFB0",
"g. c #A6B0B0",
"h. c #AEB3B3",
"j. c #AEB9B9",
"k. c #B1B1B1",
"l. c #B0B8B8",
"z. c #B9B9B9",
"x. c #C28383",
"c. c #C28D8D",
"v. c #F68181",
"b. c #F98686",
"n. c #FA8A8A",
"m. c #FA9494",
"M. c #FB9B9B",
"N. c None",
/* pixels */
"N.N.N.N.N.N.N.N.N.N.N.N.N.N.N.N.N.N.N.N.N.N.N.N.N.N.N.N.N.N.N.N.p.N.p.p.p.p.p.p.p.N.g.N.N.N.N.N.N.N.N.N.N.N.N.N.N.N.N.N.N.N.N.N.N.N.N.N.N.N.N.N.N.N.N.",
"N.N.N.N.N.N.N.N.N.N.N.N.N.N.N.N.N.N.N.N.N.N.N.N.N.N.N.h.p.p.g.p.p.p.t.p.t.p.t.p.p.p.p.p.g.h.g.N.N.N.N.N.N.N.N.N.N.N.N.N.N.N.N.N.N.N.N.N.N.N.N.N.N.N.N.",
"N.N.N.N.N.N.N.N.N.N.N.N.N.N.N.N.N.N.N.N.N.N.N.N.N.p.g.p.t.p.p.p.p.i.p.p.t.p.p.p.t.p.p.p.p.p.t.p.i.t.p.N.N.N.N.N.N.N.N.N.N.N.N.N.N.N.N.N.N.N.N.N.N.N.N.",
"N.N.N.N.N.N.N.N.N.N.N.N.N.N.N.N.N.N.N.N.N.N.j.g.p.p.p.p.p.p.t.t.i.p.p.i.p.p.p.t.p.p.t.t.p.p.p.t.t.t.t.1.t N.N.N.N.N.N.N.N.N.N.N.N.N.N.N.N.N.N.N.N.N.N.",
"N.N.N.N.N.N.N.N.N.N.N.N.N.N.N.N.N.N.N.N.t.p.t.p.p.i.p.t.p.p.p.p.p.p.p.p.p.i.i.p.t.p.p.p.p.p.t.p.4.=.e 7 7 7 7 N.N.N.N.N.N.N.N.N.N.N.N.N.N.N.N.N.N.N.N.",
"N.N.N.N.N.N.N.N.N.N.N.N.N.N.N.N.N.N.j.g.t.p.p.p.p.p.p.t.g.t.t.p.t.t.p.t.t.g.i.i.p.p.t.p.t.p.4.%.9 2 < 2 2 9 t =.N.N.N.N.N.N.N.N.N.N.N.N.N.N.N.N.N.N.N.",
"N.N.N.N.N.N.N.N.N.N.N.N.N.N.N.N.N.g.p.t.p.p.p.t.i.p.t.p.i.i.i.p.p.p.p.p.t.p.p.p.p.t.p.p.1.=.7 < * ; < 7 %.1.p.p.k.k.N.N.N.N.N.N.N.N.N.N.N.N.N.N.N.N.N.",
"N.N.N.N.N.N.N.N.N.N.N.N.N.N.N.t.t.t.p.p.p.t.p.t.p.i.p.p.i.p.p.i.p.t.t.p.p.i.p.i.p.p.t.1.e < ; * * 2 t 1.t.h.p.g.d.d.k.h.N.N.N.N.N.N.N.N.N.N.N.N.N.N.N.",
"N.N.N.N.N.N.N.N.N.N.N.N.N.N.t.t.t.p.p.p.p.t.p.p.p.p.p.p.p.t.t.p.p.p.p.p.p.p.p.p.p.t.%.7 ; * * < e 1.t.i.p.p.p.k.d.d.d.d.f.N.N.N.N.N.N.N.N.N.N.N.N.N.N.",
"N.N.N.N.N.N.N.N.N.N.N.N.N.t.t.t.t.t.t.p.p.p.t.p.t.p.t.p.p.p.p.p.p.t.p.t.t.p.t.p.t.%.2 ; * * 9 1.p.k.p.p.k.p.k.p.d.p.d.k.f.f.N.N.N.N.N.N.N.N.N.N.N.N.N.",
"N.N.N.N.N.N.N.N.N.N.N.N.r.t.t.t.p.p.p.p.p.p.p.p.p.p.p.t.t.p.t.p.t.p.p.p.t.p.p.4.%.2 * * ; t p.p.p.p.p.k.p.k.p.k.d.d.d.p.d.k.k.N.N.N.N.N.N.N.N.N.N.N.N.",
"N.N.N.N.N.N.N.N.N.N.N.t.t.t.t.t.t.p.t.t.t.p.t.p.t.p.p.t.p.p.p.p.p.p.p.t.p.p.t.%.2 * # ; %.t.h.p.p.g.k.p.k.p.k.p.p.d.d.d.d.k.k.k.N.N.N.N.N.N.N.N.N.N.N.",
"N.N.N.N.N.N.N.N.N.N.4.t.t.t.t.t.p.t.p.p.p.p.p.t.p.t.p.p.p.p.t.t.p.p.t.p.t.p.1.2 * # * %.p.h.s.p.s.p.k.p.p.k.p.k.d.d.d.d.d.d.d.d.k.N.N.N.N.N.N.N.N.N.N.",
"N.N.N.N.N.N.N.N.N.4.t.t.r.t.t.t.t.p.g.p.t.t.p.p.p.p.t.p.p.t.p.p.p.t.p.t.p.k.7 * O # e p.p.p.p.p.p.k.p.k.k.p.k.p.p.d.d.d.k.d.k.d.k.k.N.N.N.N.N.N.N.N.N.",
"N.N.N.N.N.N.N.N.t.t.t.t.t.t.i.i.t.p.p.t.p.p.t.p.p.p.p.p.p.p.p.t.p.t.p.p.t.1.; # # 2 t.h.p.p.p.p.k.p.k.p.p.k.k.s.f.f.p.k.d.k.d.d.k.k.k.N.N.N.N.N.N.N.N.",
"N.N.N.N.N.N.N.4.4.t.t.t.t.t.i.i.p.t.p.p.p.t.p.p.t.p.t.p.p.t.p.p.t.p.t.g.4.9 * # ; %.p.p.p.k.k.h.p.k.p.k.k.p.d.p.d.f.k.d.k.d.k.k.k.k.k.l.N.N.N.N.N.N.N.",
"N.N.N.N.N.N.N.r.4.t.t.t.t.t.i.i.i.p.t.p.p.p.t.p.t.p.p.p.p.t.t.p.p.p.p.t.t ; * * e t.p.k.p.k.p.k.k.p.k.p.p.k.p.k.k.p.k.k.p.k.k.k.k.k.k.s.N.N.N.N.N.N.N.",
"N.N.N.N.N.N.4.r.4.t.t.t.t.t.i.i.t.i.p.p.t.p.t.p.p.p.p.t.p.p.p.p.t.p.p.1.9 ; * < =.k.p.p.p.p.k.p.p.k.k.k.k.k.k.k.k.k.k.k.k.k.p.k.d.k.k.k.k.N.N.N.N.N.N.",
"N.N.N.N.N.N.4.r.4.t.t.t.t.t.p.i.i.t.p.t.t.p.p.p.p.t.p.p.t.p.t.t.p.p.p.=.7 ; ; t t.p.p.p.k.p.p.k.k.k.k.p.k.k.k.k.k.k.k.p.k.k.k.k.k.k.k.k.k.k.N.N.N.N.N.",
"N.N.N.N.N.1.4.r.4.t.t.t.t.g.t.i.p.p.p.p.p.p.p.t.p.t.p.p.p.p.p.p.p.p.p.=.< ; < =.p.p.k.p.p.k.k.p.p.p.k.k.p.k.k.p.k.p.k.k.k.k.k.k.k.k.k.k.k.k.N.N.N.N.N.",
"N.N.N.N.>.1.e.t.4.t.t.t.t.p.p.i.t.p.p.p.p.p.p.p.p.p.p.p.t.p.p.p.p.p.p.%.< ; ; 9 t 1.p.p.k.p.k.k.k.k.p.k.k.p.k.k.k.k.p.s.k.k.k.k.k.k.k.d.k.k.k.N.N.N.N.",
"N.N.N.N.1.3.4.4.4.t.4.t.t.t.t.i.p.p.t.t.p.t.p.t.t.p.t.p.t.p.t.p.p.p.p.1.9 < ; ; ; 2 t 4.p.p.h.p.k.p.s.k.k.k.k.k.p.k.k.k.k.k.k.k.k.k.k.k.k.k.k.N.N.N.N.",
"N.N.N.-.,.1.3.7.4.t.t.t.p.t.t.i.t.p.p.p.t.p.p.p.p.p.t.p.p.p.p.p.p.p.p.p.1.e < ; ; * ; 2 %.t.k.k.k.k.k.k.k.k.k.p.k.k.k.k.k.k.k.k.k.k.k.k.k.k.k.k.N.N.N.",
"N.N.N.*.;.1.3.e.4.t.t.t.t.t.i.t.p.t.t.p.p.p.p.t.t.p.p.p.t.p.p.t.p.p.p.p.k.p.1.9 ; ; ; ; ; 2 %.t.k.k.p.k.k.p.k.k.k.k.k.k.k.k.k.k.d.k.k.k.k.k.k.k.N.N.N.",
"N.N.+.$.:.1.2.r.r.r.t.t.i.i.t.i.t.p.t.p.p.p.p.p.t.t.p.p.p.p.p.p.p.p.p.p.p.p.p.p.1.9 ; * * * ; < e 4.k.k.k.k.k.k.p.k.p.k.k.k.k.k.k.k.k.k.k.d.s.k.N.N.N.",
"N.N.O.#.=.>.2.4.r.r.t.t.t.t.i.i.p.t.p.p.t.p.t.p.p.p.p.t.p.p.p.p.p.t.p.p.p.p.p.p.t.1.t 7 ; * # # * 7 %.4.p.k.k.k.k.k.k.k.k.k.k.z.k.k.k.k.k.k.k.k.k.N.N.",
"N.N.O.#.*.:.1.3.e.t.t.t.t.t.i.i.t.p.t.p.p.p.p.t.p.p.p.p.p.p.p.p.p.p.p.p.p.p.p.p.p.p.t.=.9 < * # # O * 7 %.4.p.k.k.k.k.k.k.k.k.k.k.d.s.k.k.k.k.k.k.N.N.",
"N.N.+.#.$.;.,.3.4.r.t.t.t.t.i.i.p.t.p.t.t.p.p.p.t.t.p.p.p.p.p.p.p.p.p.p.p.p.p.p.p.p.p.p.1.%.9 ; # O O O * 2 %.p.k.k.k.k.k.k.k.k.k.k.k.k.k.k.k.d.k.k.N.",
"N.#.O.+.$.*.,.3.4.r.t.t.t.t.i.i.t.p.p.p.t.p.p.p.p.p.p.p.t.p.p.p.p.p.p.p.p.p.p.p.p.p.k.k.p.p.t.1.9 ; # O # # # ; %.s.z.k.k.k.k.k.k.k.k.k.k.k.k.k.k.h.N.",
"N.O.O.+.#.*.>.3.4.r.r.t.t.t.t.t.p.t.t.p.t.p.t.p.p.p.p.p.p.g.p.p.p.p.p.p.p.p.p.p.p.p.p.p.k.k.k.p.p.t.t < # # # O O ; e t.z.z.k.k.k.k.k.k.k.k.k.k.k.k.N.",
"N.o.o.O.#.$.:.2.3.e.t.t.t.t.t.i.t.t.p.t.p.p.p.p.p.p.p.t.8.6.y.g.p.p.p.p.p.p.p.p.k.p.k.p.k.p.p.k.k.p.p.t.%.7 # O O # # ; 9 1.k.z.k.k.k.k.k.k.k.k.k.k.N.",
"N.o.o.O.+.$.;.,.3.e.t.t.t.u.t.i.t.p.t.p.p.t.t.p.p.p.g.5.T / / x.p.p.p.p.p.p.p.p.p.p.p.p.k.k.k.k.k.k.k.k.g.t.1.e ; # # * * ; 9 =.p.z.k.k.k.k.k.k.k.k.N.",
"#.o.o.o.o.$.-.>.2.4.e.t.t.i.t.t.t.p.p.t.p.t.t.p.p.p.p.V ` ] K V 8.p.p.p.p.t.p.p.p.k.k.p.k.k.k.k.p.k.k.p.k.k.k.p.1.t < * * * < < 9 %.t.k.k.k.k.k.k.k.k.",
"N.o.o.o.o.#.*.;.2.4.e.r.t.t.t.t.t.t.t.p.t.p.p.p.p.p.8.n K ` S G 5.p.p.p.p.p.s.p.k.k.p.k.k.k.k.k.k.k.k.k.k.k.k.k.k.p.1.e 2 < ; ; < 2 e =.t.k.k.k.k.k.N.",
"@.o.o.o.o.$.$.-.2.3.4.e.t.t.t.t.t.p.t.t.p.t.t.p.p.p.y.P C S S V c g.p.p.p.p.h.s.a.p.h.k.p.k.k.p.k.k.k.k.k.s.k.k.k.k.l.s.1.e 7 2 ; < 2 9 t =.4.d.k.k.l.",
"o.o.o.o.@.+.$.-.,.2.4.e.t.r.t.t.t.t.p.t.t.p.p.p.p.p.p.p.c m B ! 7.g.p.p.p.g.s.! ! x.0.h.h.k.h.k.k.k.k.p.k.k.k.k.k.k.k.k.z.k.4.t 9 7 2 7 2 9 t =.t.s.k.",
"+.o.o.o.@.+.#.-.;.2.w.w.r.t.t.t.t.t.p.t.p.t.p.p.t.p.p.p.p.y.0.y.p.p.p.p.p.j.W a g A N R c.k.l.k.p.k.k.k.h.k.k.k.k.k.z.k.k.k.z.z.t.=.e 9 7 7 7 9 t 1.t.",
"o.o.o.@.o.#.#.$.;.>.1.4.e.r.t.t.p.t.p.t.t.i.t.p.p.g.p.p.p.p.p.p.p.p.p.p.p.k.s f l Z K K G H ~ a.h.h.k.k.p.k.k.k.k.k.k.k.k.k.k.p.k.l.s.1.t 9 9 9 9 e t ",
"#.o.o.O.@.+.#.#.-.>.2.3.4.e.r.t.t.p.t.t.i.i.p.i.p.i.p.p.p.p.p.p.p.p.p.p.h.q.v f j x L ' [ ] L H E 9.k.h.k.k.k.k.k.k.k.k.k.k.k.k.k.k.k.k.k.4.t 9 9 9 9 ",
"@.o.o.o.o.#.#.$.-.;.;.3.4.4.r.t.t.t.t.t.t.i.i.i.i.p.p.p.p.p.p.p.p.p.p.p.p.y.m g d l D ' ' [ | | { ( E c.s.l.l.k.k.k.k.k.k.k.k.z.k.k.k.k.k.d.p.4.=.t e ",
"o.o.o.O.@.#.#.#.$.:.:.,.3.4.e.t.t.t.t.t.t.t.p.p.p.p.p.p.p.p.p.i.p.p.p.p.s.s.6.b a d i l K ' [ ..b.b.v._ T Q q.l.l.k.z.k.k.k.k.k.k.k.k.k.k.k.k.k.p.i.2.",
"N.o.o.O.O.#.#.#.$.=.:.>.3.3.e.e.t.t.t.t.t.t.t.t.t.t.p.p.p.p.p.p.p.p.p.k.k.h.j.a.! b g i u j F [ ..b.n.b.b._ V I c.k.l.k.k.k.k.k.k.k.k.k.k.k.k.k.k.k.N.",
"$.@.o.O.O.#.#.$.$.*.-.>.<.3.4.7.t.t.t.t.t.t.t.p.t.r.t.g.p.p.p.p.p.p.p.k.h.s.h.s.a.9.U v g i p k K ..n.n.n.m.n. .) Y x.s.l.h.z.k.k.k.k.k.k.k.k.k.k.k.k.",
"N.o.o.o.@.#.#.#.$.-.*.-.,.2.3.4.4.t.t.t.t.t.t.t.1.=.t =.4.4.i.p.p.p.k.k.h.s.k.h.h.k.a.6.W b g d f k K ..m.m.m.m.b.{ ) ^ x.q.k.h.k.k.k.k.k.k.k.k.k.k.N.",
"N.O.o.O.o.#.#.#.$.*.;.;.:.1.3.4.4.4.t.t.t.t.t.1.e 2 < < < 9 %.t.p.p.h.s.h.s.s.k.k.k.h.h.s.9.c.Q v f f z J b.m.M.M.m.v.] H Y ! q.k.k.k.k.k.k.k.k.k.k.N.",
"N.O.O.O.o.@.#.#.#.*.*.;.;.>.2.3.4.4.t.t.t.t.4.=.7 * * ; * * * 2 %.t.h.s.h.h.k.k.k.k.k.k.k.l.k.k.s.c.M g h F } n.m.M.M.M.v.J A B x.a.k.k.k.k.k.k.k.k.N.",
"N.#.O.O.o.@.#.$.#.$.*.-.:.:.1.2.4.4.t.4.t.t.4.t < * ; < ; * * # * < t p.k.k.k.k.k.k.k.k.k.k.k.k.k.k.k.k.! s h G v.m.M.M.M.m.v.J S Y c.a.s.k.k.k.k.k.N.",
"N.#.o.O.O.O.#.#.#.$.*.;.;.>.>.1.1.4.4.4.4.t.4.< ; ; e %.e < * * * * * ; 7 =.p.k.k.k.k.k.k.k.z.k.z.k.k.k.j.h.5.v d Z ..M.M.m.m.n. .` S V ~ 0.k.k.k.N.N.",
"N.N.O.O.O.O.O.#.$.$.$.=.*.:.:.,.,.3.4.4.7.r.%.* * > =.t.4.=.t 7 ; * # # O # < %.k.z.k.k.k.k.k.k.k.k.k.k.k.k.s.a.6.b g Z } m.m.n.n.b.v.] G n U q.s.N.N.",
"N.N.@.O.O.O.O.#.$.$.$.$.:.:.:.>.>.2.3.3.4.e.7 * # 2 1.g.p.i.t.1.%.7 ; O O O # # ; e t.z.z.k.k.k.k.k.k.k.k.k.k.k.k.a.x.I n G ]  .b.b.b.b...` A B ! N.N.",
"N.N.N.O.O.O.O.#.$.$.$.$.*.:.:.>.>.,.2.3.4.1.< # # 7 r.i.u.i.p.p.p.4.=.9 ; O X O # O * 7 1.z.z.l.k.k.k.k.k.k.k.k.k.k.k.a.6.! B G J } v.b.v.} ( / R N.N.",
"N.N.N.O.O.O.O.O.$.$.$.$.*.*.=.>.,.>.1.2.3.o.; # * e i.i.i.u.p.p.p.k.k.t.=.9 < # O O O # # < %.p.z.k.k.k.k.k.k.k.k.k.k.k.h.s.9.x.R H L |  ...L / N.N.N.",
"N.N.N.#.O.O.O.O.+.$.$.$.$.*.=.:.:.>.>.,.<.t = # * =.u.t.t.u.u.p.k.k.p.k.k.p.1.e 2 * O O O # * 7 %.4.k.l.k.k.k.k.k.k.k.k.k.k.h.k.0.6.~ T G G / ^ N.N.N.",
"N.N.N.N.O.O.O.O.+.$.$.*.*.$.$.-.:.>.>.1.<.t % O * 3.r.t.t.u.u.p.p.p.k.p.k.k.z.h.4.t 2 ; # O # * ; 2 e 1.k.z.k.k.k.k.k.k.k.k.k.k.k.k.s.8.6.W x.N.N.N.N.",
"N.N.N.N.@.O.O.O.O.$.$.$.$.*.$.-.-.>.>.>.<.0 = O < 1.e.t.t.t.u.i.p.p.p.k.p.s.f.f.z.z.i.%.7 ; * % # # ; < 7 %.p.z.k.k.k.k.k.k.k.k.k.k.h.h.s.h.k.N.N.N.N.",
"N.N.N.N.N.O.O.O.O.#.$.$.$.$.$.*.*.-.:.>.=.0 * # < 1.e.t.t.t.t.u.t.p.g.p.d.d.f.d.d.k.k.z.k.=.7 < ; * # * * ; 2 t 4.k.l.k.k.k.k.k.k.h.s.d.k.k.N.N.N.N.N.",
"N.N.N.N.N.$.O.O.O.O.#.$.$.$.$.*.*.*.*.:.>.8 # @ < 4.3.r.r.t.u.u.t.p.p.p.d.d.d.k.f.f.k.k.k.z.k.t.e 2 ; * * * * ; 2 e 1.p.k.k.k.k.h.k.d.k.p.N.N.N.N.N.N.",
"N.N.N.N.N.N.@.o.O.O.O.$.$.*.*.$.*.*.*.=.;.1 $ O 6 2.3.4.e.r.r.u.p.t.i.p.p.k.k.p.d.d.d.p.k.k.k.k.z.p.%.7 ; * * * * ; 2 9 =.t.k.k.s.k.k.d.k.N.N.N.N.N.N.",
"N.N.N.N.N.N.N.@.O.O.O.#.$.*.$.$.$.*.$.*.$.5 @ O > 1.2.3.3.e.r.r.t.t.t.i.p.p.d.p.d.d.k.p.d.d.f.k.k.k.z.k.1.9 ; ; ; ; ; < 7 e =.7.h.k.h.k.N.N.N.N.N.N.N.",
"N.N.N.N.N.N.N.$.O.O.O.O.$.$.$.$.$.*.&.$.*.1 O X ; *.,.2.3.4.r.r.y.t.t.t.p.p.p.d.p.d.s.k.p.d.p.f.k.k.k.k.l.z.p.%.7 < < 2 2 7 9 t ;.t.d.k.N.N.N.N.N.N.N.",
"N.N.N.N.N.N.N.N.$.o.o.o.O.$.$.$.$.*.$.*.#.1 o . - &.,.>.<.3.3.r.r.r.r.r.t.i.i.s.p.p.s.p.k.p.p.k.p.p.k.k.k.k.k.z.k.1.t 9 9 7 9 t %.1.t.N.N.N.N.N.N.N.N.",
"N.N.N.N.N.N.N.N.N.$.o.o.O.+.$.$.$.$.#.&.#.3 o . $ $.;.>.>.<.3.3.<.r.r.r.t.t.i.i.p.p.p.p.s.s.k.p.p.s.p.s.s.k.k.p.k.k.k.p.1.%.t %.%.>.N.N.N.N.N.N.N.N.N.",
"N.N.N.N.N.N.N.N.N.N.o.o.X.X.@.$.*.$.#.*.$.3 o   # w ;.;.:.>.>.<.<.<.r.w.r.r.u.u.t.t.p.p.p.g.p.p.k.p.s.p.k.p.p.p.p.k.k.k.k.p.t.1.w.N.N.N.N.N.N.N.N.N.N.",
"N.N.N.N.N.N.N.N.N.N.N.X.X.c O.@.#.*.$.#.#.6 + . + r $.$.:.:.>.>.>.<.<.w.r.r.r.r.t.y.t.i.t.p.p.p.p.p.p.p.p.p.p.p.p.p.p.p.k.p.k.h.N.N.N.N.N.N.N.N.N.N.N.",
"N.N.N.N.N.N.N.N.N.N.N.N.@.O.O.O.@.$.#.$.#.6 @ . o 8 $.$.-.:.:.>.$.w.w.$.u.w.w.w.a.w.w.u.w.u.s.f.s.u.u.s.u.f.u.f.d.u.d.u.u.d.h.N.N.N.N.N.N.N.N.N.N.N.N.",
"N.N.N.N.N.N.N.N.N.N.N.N.N.O.O.O.O.O.#.#.#.8 % . O 4 $.*.$.$.-.;.w.$.$.w.w.$.w.w.w.w.w.w.w.w.w.w.u.w.u.f.u.u.u.u.u.u.u.u.u.u.N.N.N.N.N.N.N.N.N.N.N.N.N.",
"N.N.N.N.N.N.N.N.N.N.N.N.N.N.#.O.O.o.O.#.#.0 & o o , $.$.$.-.$.:.w.$.$.w.$.w.$.w.w.w.w.w.w.w.w.w.w.w.w.w.u.u.w.u.u.u.u.g.u.N.N.N.N.N.N.N.N.N.N.N.N.N.N.",
"N.N.N.N.N.N.N.N.N.N.N.N.N.N.N.#.O.O.o.o.O.r , + + : #.*.$.$.-.$.$.$.w.$.w.$.w.$.$.w.w.$.<.<.w.<.w.w.w.w.w.w.u.w.u.w.u.u.N.N.N.N.N.N.N.N.N.N.N.N.N.N.N.",
"N.N.N.N.N.N.N.N.N.N.N.N.N.N.N.N.N.O.O.o.o.w 8 % $ = X.$.-.-.-.$.$.$.$.$.w.$.$.$.$.$.<.<.<.$.<.<.$.w.w.w.w.w.w.w.u.w.N.N.N.N.N.N.N.N.N.N.N.N.N.N.N.N.N.",
"N.N.N.N.N.N.N.N.N.N.N.N.N.N.N.N.N.N.N.O.X.X.q : $ % 4 $.$.$.$.-.w.$.$.w.$.$.$.$.$.$.$.$.<.$.<.$.$.w.$.w.w.w.w.w.u.N.N.N.N.N.N.N.N.N.N.N.N.N.N.N.N.N.N.",
"N.N.N.N.N.N.N.N.N.N.N.N.N.N.N.N.N.N.N.N.O.o.o.4 $ $ : X.$.$.$.-.$.$.$.$.$.$.$.$.$.$.$.$.@.@.$.<.w.$.$.w.w.u.$.N.N.N.N.N.N.N.N.N.N.N.N.N.N.N.N.N.N.N.N.",
"N.N.N.N.N.N.N.N.N.N.N.N.N.N.N.N.N.N.N.N.N.N.r q & $ & 4 O.@.@.$.$.$.$.$.$.$.$.$.$.$.$.@.@.@.@.$.$.$.$.$.$.N.N.N.N.N.N.N.N.N.N.N.N.N.N.N.N.N.N.N.N.N.N.",
"N.N.N.N.N.N.N.N.N.N.N.N.N.N.N.N.N.N.N.N.N.N.N.N.4 & : 1 @.@.@.@.@.$.@.@.$.$.$.@.@.@.@.@.@.@.@.$.$.$.N.N.N.N.N.N.N.N.N.N.N.N.N.N.N.N.N.N.N.N.N.N.N.N.N.",
"N.N.N.N.N.N.N.N.N.N.N.N.N.N.N.N.N.N.N.N.N.N.N.N.N.N.N.N.$.@.@.@.@.$.@.@.@.@.@.@.$.@.@.@.@.$.$.$.N.N.N.N.N.N.N.N.N.N.N.N.N.N.N.N.N.N.N.N.N.N.N.N.N.N.N.",
"N.N.N.N.N.N.N.N.N.N.N.N.N.N.N.N.N.N.N.N.N.N.N.N.N.N.N.N.N.N.N.N.$.N.$.$.$.$.$.$.$.N.-.N.N.N.N.N.N.N.N.N.N.N.N.N.N.N.N.N.N.N.N.N.N.N.N.N.N.N.N.N.N.N.N."
};
