/* XPM */
static char *_6[] = {
/* columns rows colors chars-per-pixel */
"75 75 153 2 ",
"   c #2D292E",
".  c #322E33",
"X  c #353535",
"o  c #373238",
"O  c #3A363B",
"+  c #3C3C3D",
"@  c #3E3740",
"#  c #3F3A41",
"$  c #413C42",
"%  c #473F49",
"&  c #434343",
"*  c #474049",
"=  c #4B444D",
"-  c #4B4B4B",
";  c #4F4B50",
":  c #514C52",
">  c #535353",
",  c #575558",
"<  c #5A555B",
"1  c #5C5B5C",
"2  c #5F5761",
"3  c #5F5E60",
"4  c #625C64",
"5  c #6A5F6D",
"6  c #646464",
"7  c #6C656D",
"8  c #6B6B6B",
"9  c #6F6271",
"0  c #726674",
"q  c #726B74",
"w  c #756879",
"e  c #7A6E7D",
"r  c #747374",
"t  c #777278",
"y  c #7A747C",
"u  c #7C7B7C",
"i  c #E61515",
"p  c #E81313",
"a  c #E41E1E",
"s  c #EB1C1C",
"d  c #DF2D2D",
"f  c #DD3333",
"g  c #DB3B3B",
"h  c #E62424",
"j  c #EC2323",
"k  c #E12929",
"l  c #F12222",
"z  c #F12E2E",
"x  c #E23131",
"c  c #ED3232",
"v  c #F13434",
"b  c #F03939",
"n  c #BE7F7F",
"m  c #DF4242",
"M  c #D74B4B",
"N  c #DB4B4B",
"B  c #CC5C5C",
"V  c #D25353",
"C  c #DE5353",
"Z  c #D05D5D",
"A  c #EA4343",
"S  c #EC4E4E",
"D  c #F24141",
"F  c #F24A4A",
"G  c #E55454",
"H  c #EC5353",
"J  c #E25D5D",
"K  c #EC5B5B",
"L  c #F55656",
"P  c #F55B5B",
"I  c #CA6667",
"U  c #C66B6C",
"Y  c #CB6C6C",
"T  c #D56464",
"R  c #DC6363",
"E  c #D56C6C",
"W  c #DB6E6E",
"Q  c #C57272",
"!  c #CA7272",
"~  c #C27C7D",
"^  c #C97B7B",
"/  c #D37373",
"(  c #DC7373",
")  c #E26363",
"_  c #EC6262",
"`  c #E46B6B",
"'  c #EF6969",
"]  c #F46464",
"[  c #F26C6C",
"{  c #F86C6C",
"}  c #E17575",
"|  c #EA7676",
" . c #EE7B7B",
".. c #F37474",
"X. c #F97777",
"o. c #F47C7C",
"O. c #FA7C7C",
"+. c #7D6F81",
"@. c #7E7281",
"#. c #7F7C80",
"$. c #817385",
"%. c #827B85",
"&. c #867789",
"*. c #867A89",
"=. c #897D8C",
"-. c #858485",
";. c #8C828E",
":. c #8B8B8B",
">. c #8E8391",
",. c #8F8B91",
"<. c #918593",
"1. c #938B95",
"2. c #968E98",
"3. c #988F9A",
"4. c #949494",
"5. c #979198",
"6. c #9A949C",
"7. c #9C9B9D",
"8. c #BC8384",
"9. c #B78B8B",
"0. c #BD8C8C",
"q. c #AE9296",
"w. c #AF9A9B",
"e. c #B49595",
"r. c #BC9393",
"t. c #B49B9C",
"y. c #B89B9B",
"u. c #9E97A0",
"i. c #9F9AA0",
"p. c #A19DA2",
"a. c #A5A4A5",
"s. c #ABA2A4",
"d. c #A7A4A8",
"f. c #A8A7A8",
"g. c #AAAAAA",
"h. c #B4A5A5",
"j. c #B8A0A0",
"k. c #B2ADAD",
"l. c #AFAFB0",
"z. c #B0AFB0",
"x. c #ADB4B4",
"c. c #AFB9B9",
"v. c #B1B1B1",
"b. c #B8B8B8",
"n. c #C48585",
"m. c #C38A8A",
"M. c #F68383",
"N. c #F98585",
"B. c #F68B8B",
"V. c #F88D8D",
"C. c #F99494",
"Z. c #F99898",
"A. c None",
/* pixels */
"A.A.A.A.A.A.A.A.A.A.A.A.A.A.A.A.A.A.A.A.A.A.A.A.A.A.A.A.A.A.A.A.A.g.a.a.g.a.g.a.a.g.A.A.A.A.A.A.A.A.A.A.A.A.A.A.A.A.A.A.A.A.A.A.A.A.A.A.A.A.A.A.A.A.A.",
"A.A.A.A.A.A.A.A.A.A.A.A.A.A.A.A.A.A.A.A.A.A.A.A.A.A.A.A.a.a.g.a.a.a.g.a.g.g.g.g.g.a.x.g.g.x.g.A.A.A.A.A.A.A.A.A.A.A.A.A.A.A.A.A.A.A.A.A.A.A.A.A.A.A.A.",
"A.A.A.A.A.A.A.A.A.A.A.A.A.A.A.A.A.A.A.A.A.A.A.A.A.a.g.a.a.a.a.a.g.a.g.g.g.a.g.a.g.g.g.g.g.g.a.a.g.a.A.A.A.A.A.A.A.A.A.A.A.A.A.A.A.A.A.A.A.A.A.A.A.A.A.",
"A.A.A.A.A.A.A.A.A.A.A.A.A.A.A.A.A.A.A.A.A.A.x.g.g.a.a.g.a.g.g.g.g.g.g.a.g.g.g.g.g.a.g.g.g.g.g.g.g.g.g.g.g.A.A.A.A.A.A.A.A.A.A.A.A.A.A.A.A.A.A.A.A.A.A.",
"A.A.A.A.A.A.A.A.A.A.A.A.A.A.A.A.A.A.A.A.a.a.a.a.a.a.g.g.a.g.g.a.a.g.a.g.g.g.g.g.g.a.g.a.g.g.g.g.g.a.g.g.a.g.g.A.A.A.A.A.A.A.A.A.A.A.A.A.A.A.A.A.A.A.A.",
"A.A.A.A.A.A.A.A.A.A.A.A.A.A.A.A.A.A.c.g.a.a.g.a.a.a.a.a.g.a.g.g.g.g.g.g.g.a.g.a.g.g.g.g.a.g.a.a.g.g.g.a.g.a.a.g.g.A.A.A.A.A.A.A.A.A.A.A.A.A.A.A.A.A.A.",
"A.A.A.A.A.A.A.A.A.A.A.A.A.A.A.A.A.g.a.a.a.a.a.a.g.a.g.g.g.g.g.a.g.a.a.g.g.g.g.g.g.a.a.g.g.g.g.g.a.g.a.g.g.a.g.a.g.g.A.A.A.A.A.A.A.A.A.A.A.A.A.A.A.A.A.",
"A.A.A.A.A.A.A.A.A.A.A.A.A.A.A.A.a.a.a.a.a.a.a.g.g.a.a.g.g.a.g.g.g.g.g.g.a.g.g.a.g.g.g.g.g.a.g.a.g.g.g.g.g.g.g.g.a.g.g.A.A.A.A.A.A.A.A.A.A.A.A.A.A.A.A.",
"A.A.A.A.A.A.A.A.A.A.A.A.A.A.a.a.a.a.a.a.a.g.a.g.g.a.g.a.a.g.a.g.g.g.g.a.g.a.g.a.g.a.g.g.g.g.g.g.a.g.a.g.g.g.g.g.g.g.g.a.a.A.A.A.A.A.A.A.A.A.A.A.A.A.A.",
"A.A.A.A.A.A.A.A.A.A.A.A.A.a.a.p.a.a.a.a.a.a.g.a.g.g.g.g.g.g.g.g.a.g.g.g.g.g.g.g.g.g.g.a.a.g.a.g.g.g.g.g.a.g.a.a.g.a.a.a.a.a.A.A.A.A.A.A.A.A.A.A.A.A.A.",
"A.A.A.A.A.A.A.A.A.A.A.7.p.p.p.a.a.a.g.a.g.g.a.g.a.g.a.g.g.g.g.g.g.g.g.a.a.g.a.g.g.a.g.g.a.g.a.g.g.g.g.g.g.g.g.g.a.a.a.a.a.a.a.7.A.A.A.A.A.A.A.A.A.A.A.",
"A.A.A.A.A.A.A.A.A.A.7.a.p.a.a.p.a.a.a.a.a.g.g.g.g.g.g.g.g.a.a.g.g.a.g.g.g.g.g.g.g.g.g.a.g.g.g.g.g.a.a.a.a.a.a.7.4.4.:.:.:.:.:.-.-.A.A.A.A.A.A.A.A.A.A.",
"A.A.A.A.A.A.A.A.A.A.a.7.a.a.a.a.a.a.a.a.g.a.g.g.a.a.g.g.g.g.g.g.a.g.a.g.g.g.a.g.g.a.a.g.g.a.g.a.g.a.a.7.:.-.u 8 8 3 1 1 1 6 6 6 6 A.A.A.A.A.A.A.A.A.A.",
"A.A.A.A.A.A.A.A.A.a.a.a.a.a.a.a.a.g.g.g.g.g.g.a.g.g.a.g.a.g.a.g.g.g.g.g.g.a.g.g.g.g.g.g.g.g.a.g.a.4.:.r 8 1 > - & - - - - 1 1 3 6 6 A.A.A.A.A.A.A.A.A.",
"A.A.A.A.A.A.A.A.a.a.a.a.a.a.a.a.g.a.g.g.a.g.g.g.g.g.g.g.g.g.g.a.a.a.g.a.g.g.g.g.a.g.a.g.a.a.a.a.:.8 1 > - & & & > > 1 6 6 r u u u -.#.A.A.A.A.A.A.A.A.",
"A.A.A.A.A.A.A.A.p.p.7.a.a.a.a.a.a.a.a.a.g.g.g.a.g.a.g.g.g.a.g.g.g.g.g.g.a.g.a.g.g.g.g.a.g.g.7.u 1 - & + & > 8 u :.:.4.4.4.7.7.7.p.a.p.A.A.A.A.A.A.A.A.",
"A.A.A.A.A.A.A.7.7.a.a.a.a.a.a.a.a.g.a.g.g.g.g.a.g.g.g.g.a.g.g.g.g.g.g.g.a.g.g.a.g.a.a.a.a.4.u - + + + > 8 -.7.a.g.a.g.g.g.g.g.g.v.g.g.g.A.A.A.A.A.A.A.",
"A.A.A.A.A.A.7.p.7.a.a.a.a.a.f.a.a.g.g.g.g.a.g.g.g.g.g.g.a.g.a.a.g.a.g.a.g.g.g.g.g.g.g.a.-.8 - & + & 6 :.a.g.g.g.g.g.g.g.g.g.g.g.g.g.v.v.l.A.A.A.A.A.A.",
"A.A.A.A.A.4.p.p.7.a.a.a.a.a.f.f.a.a.g.a.g.a.g.a.g.a.g.g.g.a.g.a.g.a.g.g.g.g.g.a.a.g.g.-.6 - & + > r 4.x.g.g.g.g.g.g.g.v.g.v.v.g.g.v.v.g.l.l.A.A.A.A.A.",
"A.A.A.A.A.4.p.p.p.a.a.f.f.f.f.f.g.g.g.g.g.g.g.g.g.g.a.g.g.g.g.g.g.g.g.a.g.g.g.g.g.g.4.8 > - & 1 -.7.g.g.g.v.g.g.x.g.v.g.v.g.v.v.v.v.g.v.l.l.A.A.A.A.A.",
"A.A.A.A.1.6.7.a.7.a.a.a.f.a.f.f.g.a.g.a.g.g.g.g.g.a.g.a.g.a.g.a.g.g.g.g.g.g.g.g.g.g.u > - - 6 :.7.g.g.g.x.g.v.g.v.g.g.v.g.v.g.v.g.v.g.g.l.l.l.A.A.A.A.",
"A.A.A.A.1.4.7.p.a.7.a.a.a.f.f.f.a.g.g.g.g.a.g.a.g.a.g.g.g.g.g.g.a.g.g.a.g.g.g.a.g.4.r > - 1 :.a.g.g.g.g.v.g.g.v.g.v.v.g.v.g.g.v.l.v.v.v.l.l.l.A.A.A.A.",
"A.A.A.*.1.5.6.p.a.a.a.a.f.a.a.f.g.a.g.g.a.g.g.g.g.g.g.g.g.a.g.g.g.a.g.g.g.g.g.g.g.a.u > - 1 -.a.g.g.g.g.g.v.g.g.v.g.g.v.v.g.v.g.v.g.g.v.l.l.v.g.A.A.A.",
"A.A.A.;.1.4.6.a.7.a.a.a.a.g.g.a.a.g.a.g.g.g.g.a.g.a.g.a.g.g.a.g.g.g.g.g.g.g.g.g.g.g.4.6 - - 1 :.a.g.x.g.v.g.v.v.g.v.v.g.v.v.g.v.g.v.v.v.g.l.v.v.A.A.A.",
"A.A.A.=.1.5.6.7.a.p.a.a.f.f.a.f.g.a.g.g.g.g.g.g.g.g.g.g.a.g.g.g.g.g.g.g.g.g.g.g.v.g.v.:.> - & 1 :.a.k.g.v.g.v.g.v.v.v.g.v.v.g.v.v.v.g.v.v.v.v.v.A.A.A.",
"A.A.%.*.;.5.6.7.a.a.a.a.a.a.f.f.a.g.g.g.a.g.a.g.a.g.g.a.g.g.g.g.g.g.g.g.g.g.g.g.g.g.g.g.-.- - - 6 :.g.v.k.v.g.v.g.v.v.g.v.g.k.v.g.l.v.v.v.l.v.g.v.A.A.",
"A.A.$.*.;.1.6.6.i.p.a.a.a.a.f.f.a.g.a.g.g.g.g.g.a.g.g.g.g.g.g.g.g.g.g.g.g.g.g.g.g.g.g.g.a.u - - - 8 4.v.x.k.g.v.v.v.v.v.v.v.v.v.l.v.v.l.g.v.v.v.v.A.A.",
"A.A.%.*.;.,.5.6.i.a.p.a.a.a.f.f.g.a.a.g.g.a.g.a.g.g.a.g.g.g.g.t.w.g.g.g.g.g.g.g.g.g.g.g.g.4.8 - - > r 7.g.x.k.x.v.g.v.v.v.v.g.x.l.v.l.v.v.v.v.v.v.A.A.",
"A.&.$.&.;.;.2.6.i.a.a.a.a.a.a.f.a.g.g.g.a.g.g.g.g.g.g.g.g.g.E R E 0.g.x.g.g.x.g.g.g.g.g.g.g.:.1 - & > r 7.k.x.k.g.x.v.k.k.v.g.v.v.l.v.l.l.v.v.v.v.v.A.",
"A.$.$.&.=.;.1.6.7.i.a.p.a.a.a.f.a.a.a.g.g.g.g.a.a.g.a.g.g.U S ' _ T e.g.g.g.g.g.g.g.g.g.g.g.a.u > & & > u a.g.v.k.v.v.v.v.v.v.v.l.v.l.v.v.v.v.v.v.v.A.",
"A.$.@.&.*.;.,.5.6.i.a.a.a.a.d.a.g.a.a.a.a.a.g.g.g.g.g.g.w.B G ' P G 9.g.g.g.g.g.g.g.g.g.g.v.g.4.8 - + + > -.a.v.v.v.v.v.x.k.v.v.l.v.v.v.l.v.v.v.v.v.A.",
"A.$.$.$.&.;.;.5.6.7.a.a.a.d.a.d.a.g.g.g.g.g.g.g.g.g.g.g.g.Q m S S S n x.g.g.g.g.g.g.g.g.g.g.x.g.:.8 & + & 1 :.a.v.v.v.v.g.x.k.v.v.v.l.v.v.v.v.v.v.v.A.",
"A.@.@.$.$.;.;.1.6.7.p.p.a.f.f.a.a.g.g.a.a.g.g.g.g.g.g.g.g.g.U C G T e.g.g.g.g.g.g.g.g.g.g.x.g.v.a.:.6 + + + 6 4.g.x.v.v.v.v.v.v.v.v.v.v.v.v.v.v.v.v.A.",
"&.$.$.$.@.*.;.,.5.6.7.a.a.a.a.a.a.a.a.a.a.a.g.g.g.g.g.g.g.g.s.n n 9.g.g.g.g.g.g.g.g.g.k.g.k.v.v.v.g.4.1 + + & 8 4.g.v.v.g.v.v.v.v.v.v.v.v.v.v.v.v.v.v.",
"$.$.$.$.$.&.;.>.4.6.i.p.a.a.a.a.a.g.a.g.a.g.a.g.g.g.g.g.g.k.g.g.h.g.g.g.g.g.g.g.v.v.x.v.v.v.v.g.x.k.g.4.1 + + & 8 7.g.v.v.g.v.v.v.v.v.v.v.v.v.v.v.v.v.",
"&.$.$.@.$.&.*.;.,.6.6.p.p.p.a.a.a.a.a.g.a.a.g.g.g.g.g.g.g.g.g.g.g.g.g.g.g.g.g.x.h.k.g.v.v.g.x.k.g.v.g.g.:.1 & + - r a.x.v.v.v.v.b.v.v.v.v.v.v.v.v.v.v.",
"&.$.$.$.&.&.&.;.,.2.u.u.i.a.a.a.a.a.a.a.a.g.g.a.a.g.g.g.g.g.g.g.g.g.g.g.g.x.k.~ n r.v.v.x.v.v.k.v.k.k.x.a.:.1 + X - u g.v.v.v.v.v.v.v.v.v.v.v.v.v.v.v.",
"%.$.$.$.@.&.*.;.1.1.6.6.7.a.p.a.g.a.g.a.a.a.a.a.a.g.g.g.g.g.g.g.g.g.g.g.x.x.V d f Z m.x.k.k.v.v.v.v.v.v.v.a.:.> + + - -.g.v.v.v.v.v.v.v.v.v.v.v.v.v.v.",
"&.$.$.$.@.*.*.*.>.1.4.6.i.p.p.a.a.a.a.a.a.7.4.-.:.7.g.g.g.g.g.g.g.g.g.v.v.Q d j v A C m.x.x.v.v.x.g.v.v.v.k.a.:.> + + - -.v.v.v.b.v.v.v.v.v.v.v.v.v.v.",
"&.$.$.+.&.*.*.*.>.,.,.6.6.i.p.a.a.a.a.a.a.:.6 > 1 6 4.a.g.g.g.g.g.g.g.v.k.Y k j b F H G n.x.v.v.k.v.v.v.k.x.v.a.:.1 + + > -.v.v.v.v.v.v.v.v.v.v.v.v.v.",
"$.$.$.$.$.&.*.*.;.;.1.5.6.7.i.p.a.a.a.a.4.6 > & - - 1 -.p.g.g.g.g.g.v.v.k.Q f h b L ] ] H n.x.v.v.v.k.x.g.v.k.v.a.-.1 + & 1 :.g.v.v.v.v.v.v.v.v.v.v.v.",
"&.$.+.$.$.&.*.*.;.>.<.1.6.7.w.p.7.a.a.4.1 - - - - & & > -.a.g.g.v.v.v.v.x.h.V k j F ] { ' K m.x.g.k.x.k.v.v.v.v.v.a.u > & - 6 :.g.x.v.v.v.v.v.v.v.v.v.",
"A.$.$.$.$.*.*.=.=.;.;.1.2.7.7.6.a.a.7.1 & & - 8 r - & & > :.g.x.v.g.v.v.v.x.r.N a l L ] { [ K m.k.v.k.v.v.v.v.v.v.v.a.u > - > 6 4.g.v.v.v.v.v.v.v.v.A.",
"A.$.$.$.$.&.*.*.=.>.:.;.1.5.6.7.7.7.6 & + & r 7.4.u & & & - 4.g.v.v.v.v.v.x.h.n g s l P { X..._ m.k.x.v.v.v.v.v.v.v.v.7.u 1 - > 8 4.k.x.v.v.v.v.v.v.A.",
"A.+.+.n $.&.*.*.&.;.;.1.1.2.6.7.7.u - + + 6 4.a.g.4.r & & + > 7.v.v.v.v.v.g.v.j.! g i l ] X.N.O.} m.k.v.v.v.v.v.b.v.v.v.7.u 1 > 1 r 4.g.v.v.v.v.v.v.A.",
"A.+.+.$.$.&.*.*.=.;.<.;.;.1.5.6.:.1 + + - u g.a.a.g.4.r & & & > 7.v.v.v.v.v.v.x.j.Y f s z { N.V.o.} m.k.v.v.v.b.v.v.v.v.v.7.r 1 , 6 u a.l.v.v.v.v.l.A.",
"A.=.$.$.$.%.*.;.=.=.=.,.1.,.1.6.r & + + 8 g.g.a.a.g.g.4.r & + + - 4.g.v.v.b.v.v.x.y.I d s v O.N.N.o.( m.k.v.v.b.v.v.v.b.v.b.4.u 3 1 8 -.p.v.v.v.v.v.A.",
"A.A.$.$.$.$.*.*.=.=.=.;.>.,.1.-.1 + X 1 7.a.a.a.f.g.g.x.4.8 + X X - 4.b.v.v.v.v.v.c.j.n.g s D O.N.N. .W m.k.v.v.v.v.v.v.v.v.x.4.u 6 3 8 -.a.l.v.v.A.A.",
"A.A.&.@.$.$.&.*.=.=.-.>.,.<.1.q * + & #.u.a.a.a.a.f.g.l.l.5.8 O X X - a.b.v.v.v.v.b.v.v.0.f j F o.V.V. .E 0.k.v.v.b.b.v.v.v.v.v.7.u 6 6 r :.a.x.v.A.A.",
"A.A.&.$.$.$.$.&.=.=.*.;.>.<.*.; + O > ,.i.i.a.a.a.d.g.l.l.l.4.6 X X X > a.b.v.v.v.v.v.c.k.r.x j P N.C.V. .( 0.k.v.v.v.v.v.v.v.v.v.7.u 6 6 r 4.g.v.A.A.",
"A.A.A.$.$.$.$.*.*.*.;.;.;.;.8 % O O #.u.7.7.i.a.d.f.g.l.l.g.l.2.1 X X X - a.b.v.v.v.v.v.v.v.y.d A [ V.Z.V. .( r.k.v.b.v.v.v.v.v.l.l.7.r 8 8 u 4.A.A.A.",
"A.A.A.$.$.$.$.&.=.;.*.*.=.;., O X : >.u.6.7.i.a.d.f.f.f.l.l.l.z.:.1 X X X - a.b.v.v.v.v.b.v.c.j.M S X.C.C.B.} / r.k.v.v.b.v.v.v.v.l.g.4.u 8 8 u A.A.A.",
"A.A.A.=.$.$.$.$.&.;.&.-.=.0 $ X . 3 2.4.6.6.i.i.a.a.d.g.g.g.g.l.v.:.1 X X X > a.b.v.v.v.v.v.v.c.0.M H M.C.C.N.` / r.k.v.v.v.v.v.v.v.l.a.:.u r 6 A.A.A.",
"A.A.A.A.$.@.$.$.&.*.=.*.%.< O   # q >.,.4.6.6.i.p.p.d.d.g.g.l.g.v.g.:.1 & X X 6 7.v.v.v.v.v.v.v.g.n.N K N.C.C.M.) E y.k.v.v.v.v.v.v.v.l.f.4.u A.A.A.A.",
"A.A.A.A.&.@.$.+.%.&.*.;.e ; .   ; @.1.1.1.6.6.u.p.p.a.a.g.f.l.k.k.k.g.-.> + X & 8 7.v.v.v.v.v.v.v.h.~ N K V.Z.C. .J / j.k.v.v.v.v.v.v.v.v.f.4.A.A.A.A.",
"A.A.A.A.A.&.$.$.$.&.*.&.0 $     2 >.,.1.2.4.6.u.i.i.p.a.f.k.k.g.g.v.v.v.:.> X X & 8 g.b.v.v.v.v.v.v.j.Q N ' C.C.V.[ J ^ h.v.v.v.v.v.v.v.l.l.A.A.A.A.A.",
"A.A.A.A.A.&.$.$.y $.&.y < O   O 7 ;.>.,.1.2.2.u.u.p.p.p.d.d.z.d.g.x.k.g.a.u > & + - r 7.k.k.v.v.v.v.k.y.! C ..B.V.N.' R n.h.x.v.v.v.v.v.z.v.A.A.A.A.A.",
"A.A.A.A.A.A.$.$.@.$.$.e : .   * @.;.;.>.1.2.5.5.3.3.u.p.d.d.d.z.g.k.k.g.v.x.u - & & - 8 a.b.v.v.v.v.v.v.y.! J ..N.B.M.' R m.h.k.v.v.v.v.v.A.A.A.A.A.A.",
"A.A.A.A.A.A.A.$.$.@.e 0 = . . : @.;.;.;.>.1.2.5.3.u.u.p.p.d.d.d.g.g.g.g.g.k.a.u > & & - 8 4.v.v.v.v.v.v.k.y.^ J [ M.N.o.' R m.h.z.z.v.v.A.A.A.A.A.A.A.",
"A.A.A.A.A.A.A.A.@.e e 5 = . O 4 @.;.=.>.;.>.<.1.2.3.3.u.u.p.p.d.a.g.g.g.g.g.g.a.u > & + > 8 7.v.v.v.v.v.v.g.y.^ R [ M.M.o._ R 0.k.z.v.A.A.A.A.A.A.A.A.",
"A.A.A.A.A.A.A.A.&.+.+.0 % O O 0 =.>.=.=.<.=.<.<.1.3.3.u.p.p.p.p.p.d.p.g.g.f.g.g.k.u - & + - r 4.g.v.v.v.v.v.k.y.^ ) [ O.M...K T m.k.z.A.A.A.A.A.A.A.A.",
"A.A.A.A.A.A.A.A.A.+.e 9 = @ * 0 =.>.>.>.<.<.=.<.=.3.3.3.3.u.u.u.p.p.p.p.a.f.f.g.g.a.u > & & - r 7.g.v.g.v.v.v.k.y.^ ` ..O.o.' G ! r.A.A.A.A.A.A.A.A.A.",
"A.A.A.A.A.A.A.A.A.A.e w % $ * @.<.=.=.<.=.<.<.<.<.2.<.3.3.3.3.u.p.p.i.i.i.a.a.f.a.a.k.r > & & > r 4.g.g.g.g.g.g.g.y.^ W [ ..' J T A.A.A.A.A.A.A.A.A.A.",
"A.A.A.A.A.A.A.A.A.A.@.0 = $ = 0 =.=.<.=.<.<.<.<.=.=.<.<.=.2.2.3.3.3.u.u.i.u.w.a.a.a.a.a.r > & - > r 4.k.g.k.g.g.g.g.e.~ R J ) ) R A.A.A.A.A.A.A.A.A.A.",
"A.A.A.A.A.A.A.A.A.A.A.7 : $ = 9 $.=.>.>.=.<.<.<.<.<.2.=.3.3.3.3.u.=.d.u.u.u.u.u.d.d.d.u.u.$.2 % % 2 r 6.g.g.g.f.k.d.d.w.=.` E I A.A.A.A.A.A.A.A.A.A.A.",
"A.A.A.A.A.A.A.A.A.A.A.A.A.% = 9 $.*.=.>.<.=.<.=.<.<.=.3.=.=.3.=.=.u.=.u.u.=.u.u.u.u.d.u.d.=.+.: = : 3 #.6.f.g.f.g.f.d.f.p.r.A.A.A.A.A.A.A.A.A.A.A.A.A.",
"A.A.A.A.A.A.A.A.A.A.A.A.A.A.4 +.&.$.&.=.<.<.<.<.=.<.=.=.=.3.=.=.u.=.u.=.=.=.d.d.u.d.=.d.d.u.=.&.2 : < 3 #.7.d.d.f.f.f.a.p.A.A.A.A.A.A.A.A.A.A.A.A.A.A.",
"A.A.A.A.A.A.A.A.A.A.A.A.A.A.A.A.&.&.$.&.=.=.=.<.<.<.<.<.=.=.=.3.=.=.=.u.=.u.=.=.=.=.u.=.u.=.u.u.@.5 2 2 8 %.u.i.p.p.p.A.A.A.A.A.A.A.A.A.A.A.A.A.A.A.A.",
"A.A.A.A.A.A.A.A.A.A.A.A.A.A.A.A.A.&.&.&.&.&.=.=.=.u.=.=.3.3.=.=.=.u.=.=.3.=.3.=.=.=.u.=.u.=.=.u.1.@.7 6 7 t ;.u.i.u.A.A.A.A.A.A.A.A.A.A.A.A.A.A.A.A.A.",
"A.A.A.A.A.A.A.A.A.A.A.A.A.A.A.A.A.A.=.*.&.&.&.=.=.=.=.=.=.=.3.=.=.=.=.=.=.=.=.=.=.=.=.=.=.u.u.=.1.,.%.w 8 q #.:.1.A.A.A.A.A.A.A.A.A.A.A.A.A.A.A.A.A.A.",
"A.A.A.A.A.A.A.A.A.A.A.A.A.A.A.A.A.A.A.A.=.&.&.&.=.=.=.=.=.=.=.=.u.=.=.=.=.=.=.=.=.=.=.=.=.=.=.=.>.<.>.%.y t w A.A.A.A.A.A.A.A.A.A.A.A.A.A.A.A.A.A.A.A.",
"A.A.A.A.A.A.A.A.A.A.A.A.A.A.A.A.A.A.A.A.A.A.=.=.=.=.=.=.=.=.=.=.=.=.=.=.=.=.=.=.=.=.=.=.&.&.=.=.=.>.>.*.@.A.A.A.A.A.A.A.A.A.A.A.A.A.A.A.A.A.A.A.A.A.A.",
"A.A.A.A.A.A.A.A.A.A.A.A.A.A.A.A.A.A.A.A.A.A.A.A.A.=.=.=.=.=.&.&.&.&.=.&.&.&.&.&.&.&.&.=.&.=.=.=.*.=.A.A.A.A.A.A.A.A.A.A.A.A.A.A.A.A.A.A.A.A.A.A.A.A.A.",
"A.A.A.A.A.A.A.A.A.A.A.A.A.A.A.A.A.A.A.A.A.A.A.A.A.A.A.A.=.=.&.=.&.=.&.&.&.&.&.&.&.&.&.=.=.=.=.A.A.A.A.A.A.A.A.A.A.A.A.A.A.A.A.A.A.A.A.A.A.A.A.A.A.A.A.",
"A.A.A.A.A.A.A.A.A.A.A.A.A.A.A.A.A.A.A.A.A.A.A.A.A.A.A.A.A.A.A.A.A.=.=.=.=.=.=.=.=.=.A.A.A.A.A.A.A.A.A.A.A.A.A.A.A.A.A.A.A.A.A.A.A.A.A.A.A.A.A.A.A.A.A."
};
