/* XPM */
static char *_7[] = {
/* columns rows colors chars-per-pixel */
"75 75 185 2 ",
"   c #2D2A2E",
".  c #2A272B",
"X  c #322E33",
"o  c #353435",
"O  c #3A353B",
"+  c #3B3B3C",
"@  c #373438",
"#  c #3F3B40",
"$  c #423D43",
"%  c #434344",
"&  c #474349",
"*  c #4B454C",
"=  c #4C4B4C",
"-  c #4F4750",
";  c #534E54",
":  c #564D59",
">  c #594F5B",
",  c #545454",
"<  c #575059",
"1  c #59555A",
"2  c #5C5C5C",
"3  c #5F5562",
"4  c #5F5E60",
"5  c #625A64",
"6  c #665C68",
"7  c #695E6B",
"8  c #636363",
"9  c #6B646D",
"0  c #6C6B6C",
"q  c #676368",
"w  c #6F6372",
"e  c #716B72",
"r  c #766979",
"t  c #7A6D7D",
"y  c #716773",
"u  c #757475",
"i  c #7A737C",
"p  c #7C7C7C",
"a  c #EA0D0D",
"s  c #E61B1B",
"d  c #EB1B1B",
"f  c #DE2C2C",
"g  c #C73B3E",
"h  c #DD3131",
"j  c #DB3C3C",
"k  c #D73B3C",
"l  c #E42525",
"z  c #ED2222",
"x  c #E12A2A",
"c  c #EC2C2C",
"v  c #F12727",
"b  c #EA3434",
"n  c #EF3838",
"m  c #F13636",
"M  c #AE3F46",
"N  c #AF4E56",
"B  c #B84B53",
"V  c #9C5C68",
"C  c #B25D64",
"Z  c #8F6777",
"A  c #996A76",
"S  c #B4676C",
"D  c #AB6D73",
"F  c #A8777E",
"G  c #BE7D7D",
"H  c #B67478",
"J  c #C2444B",
"K  c #C74347",
"L  c #D64848",
"P  c #DE4B4C",
"I  c #D84546",
"U  c #CA4D52",
"Y  c #C04C52",
"T  c #DB4F52",
"R  c #C95058",
"E  c #C85557",
"W  c #D35354",
"Q  c #D35D5D",
"!  c #DD5C5D",
"~  c #D6555B",
"^  c #EC4444",
"/  c #E4494A",
"(  c #EB4D4D",
")  c #E24444",
"_  c #F34444",
"`  c #F14F4F",
"'  c #E65353",
"]  c #EC5C5D",
"[  c #EA5858",
"{  c #F15353",
"}  c #F55C5C",
"|  c #CF5F68",
" . c #D65A60",
".. c #CB6364",
"X. c #CA6B6B",
"o. c #C66161",
"O. c #D26565",
"+. c #DA6969",
"@. c #D86669",
"#. c #DB6C73",
"$. c #C47475",
"%. c #CA7575",
"&. c #C37979",
"*. c #CF7979",
"=. c #DA7175",
"-. c #E46464",
";. c #ED6262",
":. c #EB6A6B",
">. c #F46363",
",. c #F86767",
"<. c #F46C6C",
"1. c #F86A6A",
"2. c #EE7475",
"3. c #E57579",
"4. c #F47575",
"5. c #F27C7D",
"6. c #F97B7B",
"7. c #F87171",
"8. c #7D6F81",
"9. c #7E7182",
"0. c #827385",
"q. c #827C83",
"w. c #867789",
"e. c #86798A",
"r. c #8A7C8D",
"t. c #967A87",
"y. c #8D7F90",
"u. c #B57F83",
"i. c #EC7D80",
"p. c #838383",
"a. c #8C828E",
"s. c #8C8C8C",
"d. c #878588",
"f. c #99818D",
"g. c #8E8391",
"h. c #918593",
"j. c #938A95",
"k. c #968E98",
"l. c #988F9A",
"z. c #939394",
"x. c #979199",
"c. c #9A949C",
"v. c #9D9A9D",
"b. c #A88187",
"n. c #A5868E",
"m. c #BD8484",
"M. c #BC8D8D",
"N. c #A2949B",
"B. c #AF9699",
"V. c #B69293",
"C. c #BA9192",
"Z. c #B29A9A",
"A. c #B99B9B",
"S. c #9E97A0",
"D. c #9F9AA1",
"F. c #A19DA2",
"G. c #A5A5A6",
"H. c #ACA6A6",
"J. c #A7A6A8",
"K. c #A8A7A9",
"L. c #A7AFAF",
"P. c #AAAAAA",
"I. c #B4A3A4",
"U. c #B2ACAD",
"Y. c #B8A2A2",
"T. c #AEAEB0",
"R. c #B0AFB0",
"E. c #ADB3B3",
"W. c #AFB8B8",
"Q. c #B1B1B1",
"!. c #B8B8B8",
"~. c #C28484",
"^. c #C48F8F",
"/. c #C19090",
"(. c #F38384",
"). c #F98585",
"_. c #F48A8B",
"`. c #FA8B8B",
"'. c #F08789",
"]. c #F59192",
"[. c #FA9495",
"{. c #F79798",
"}. c #F79899",
"|. c #FB9B9B",
" X c None",
/* pixels */
" X X X X X X X X X X X X X X X X X X X X X X X X X X X X X X X XP. XG.G.L.G.P.G.G. XL. X X X X X X X X X X X X X X X X X X X X X X X X X X X X X X X X",
" X X X X X X X X X X X X X X X X X X X X X X X X X X X XG.G.L.P.G.G.G.G.G.G.G.G.G.G.P.P.P.E.P.P. X X X X X X X X X X X X X X X X X X X X X X X X X X X",
" X X X X X X X X X X X X X X X X X X X X X X X XG.G.L.P.G.G.G.G.P.G.G.G.G.G.P.G.G.G.P.G.L.G.P.G.P.P. X X X X X X X X X X X X X X X X X X X X X X X X X",
" X X X X X X X X X X X X X X X X X X X X X XL.L.G.G.G.G.G.G.G.G.G.G.G.P.P.G.G.P.P.P.G.P.G.P.P.G.P.P.L.L.L. X X X X X X X X X X X X X X X X X X X X X X",
" X X X X X X X X X X X X X X X X X X X XG.G.G.G.P.G.G.G.P.G.G.P.P.G.P.G.P.P.G.P.P.P.G.G.P.P.P.P.P.P.G.P.P.P.P. X X X X X X X X X X X X X X X X X X X X",
" X X X X X X X X X X X X X X X X X X XW.P.P.G.P.G.G.G.G.G.G.G.P.G.P.G.P.G.P.G.P.P.G.P.P.P.G.P.G.P.G.P.P.P.G.G.P.L. X X X X X X X X X X X X X X X X X X",
" X X X X X X X X X X X X X X X X XL.G.G.G.G.G.G.G.G.G.G.G.G.G.G.P.P.G.P.G.P.P.P.P.P.P.P.G.P.P.P.P.P.P.P.P.P.P.P.P.P. X X X X X X X X X X X X X X X X X",
" X X X X X X X X X X X X X X XG.G.G.G.G.P.G.G.G.P.G.P.G.P.L.G.P.P.P.P.P.P.P.P.G.P.G.P.G.P.P.P.G.P.G.P.G.G.P.G.P.P.P.U.L. X X X X X X X X X X X X X X X",
" X X X X X X X X X X X X X XG.G.G.P.G.G.P.G.G.L.G.G.P.G.P.P.G.P.P.P.P.G.P.G.P.G.P.P.P.P.P.P.G.P.L.G.P.G.P.G.P.G.P.P.P.P.G. X X X X X X X X X X X X X X",
" X X X X X X X X X X X X XG.D.G.G.G.G.P.P.P.G.G.P.P.G.G.G.P.P.P.G.P.P.P.P.P.P.P.P.G.P.G.P.G.P.P.G.P.P.P.P.P.P.P.G.P.P.G.P.P. X X X X X X X X X X X X X",
" X X X X X X X X X X X XG.G.G.G.G.G.G.P.G.P.G.P.P.G.P.P.P.P.G.P.P.G.P.G.P.G.P.P.G.P.P.P.P.P.P.L.P.P.P.P.P.G.P.P.P.P.G.P.P.P.P. X X X X X X X X X X X X",
" X X X X X X X X X X XG.G.G.G.G.P.G.P.P.P.P.P.P.P.L.P.G.P.P.P.P.P.P.P.P.P.P.G.G.P.P.P.G.P.G.P.G.P.G.G.P.P.P.P.G.P.K.P.P.G.P.P.P. X X X X X X X X X X X",
" X X X X X X X X X XG.G.G.G.G.G.G.P.P.G.G.P.G.P.P.P.P.P.G.P.P.P.G.L.P.P.G.P.P.P.P.P.P.P.P.G.P.P.P.P.P.G.P.P.G.P.P.P.P.G.P.G.P.P.P. X X X X X X X X X X",
" X X X X X X X X XF.G.G.G.G.G.G.P.G.P.P.P.P.P.P.P.G.G.P.P.P.G.P.P.P.P.G.P.P.P.G.G.P.P.G.P.P.G.P.G.P.P.P.P.P.P.P.P.G.P.P.P.P.P.P.P.P. X X X X X X X X X",
" X X X X X X X XG.G.G.G.P.G.G.P.P.P.P.G.P.G.P.G.P.P.P.P.G.P.G.P.G.P.G.P.G.P.G.P.P.G.P.P.P.P.P.P.P.P.P.P.P.G.P.P.G.P.P.P.P.G.G.P.G.P.P. X X X X X X X X",
" X X X X X X Xc.G.G.G.G.G.P.G.G.G.P.P.P.P.P.P.P.G.P.G.P.P.P.P.P.P.P.P.P.P.P.P.P.P.P.P.P.G.P.G.P.G.P.P.G.P.P.G.P.G.P.G.P.P.P.P.P.P.P.P.P. X X X X X X X",
" X X X X X X XG.F.G.G.G.P.G.G.P.G.P.P.P.P.P.P.P.P.P.P.P.G.P.P.G.G.P.G.P.P.P.P.P.G.P.G.P.P.P.P.P.P.G.P.P.G.P.P.P.P.P.P.G.P.P.P.P.P.P.P.P. X X X X X X X",
" X X X X X XG.D.F.G.G.G.P.G.G.P.G.P.G.P.G.P.P.G.G.P.G.P.P.P.P.P.P.P.P.P.G.G.P.G.P.P.P.P.G.P.G.P.P.P.P.P.P.P.P.G.P.G.P.P.P.G.P.G.G.P.G.P.L. X X X X X X",
" X X X X Xz.D.G.F.G.G.G.G.G.P.G.P.P.P.P.G.P.P.P.P.P.P.G.G.G.P.G.P.P.P.G.P.P.P.P.P.P.G.P.P.P.P.G.G.P.G.P.G.P.P.P.P.P.G.P.P.G.P.P.P.P.G.P.P. X X X X X X",
" X X X X Xc.G.F.G.G.G.G.G.P.G.P.G.P.G.P.P.P.P.G.G.P.P.P.P.P.P.P.P.G.P.P.G.P.P.G.P.G.P.P.G.G.P.P.P.P.P.G.G.P.G.P.L.P.G.P.G.P.P.P.G.P.P.P.P.P. X X X X X",
" X X X Xk.c.G.F.F.G.G.G.G.G.P.G.G.P.P.P.P.P.P.P.P.P.P.P.G.P.G.P.P.P.P.G.P.P.P.P.P.G.P.P.P.P.P.P.P.G.P.P.P.U.Q.v.p.p.p.p.p.s.s.z.G.G.P.G.G.P.P. X X X X",
" X X X Xx.v.v.G.F.G.G.G.G.P.G.P.P.G.P.G.P.G.P.G.P.G.G.P.P.P.P.P.G.P.P.P.P.P.P.P.P.P.P.P.P.P.P.P.P.L.G.z.z.p.0 , , , = , , , 2 8 0 p s.G.G.G.P. X X X X",
" X X Xr.x.c.v.F.F.G.G.G.P.G.G.G.G.L.P.P.P.G.P.G.P.P.P.P.P.P.P.P.P.P.P.G.P.P.P.P.P.P.P.P.P.P.P.P.G.z.u 8 , % + + o + + + + % % = % , , 0 p z.G.G. X X X",
" X X Xa.k.x.c.G.G.F.G.G.G.P.P.G.G.H.P.G.P.P.P.L.P.G.P.P.G.P.G.P.G.P.P.P.G.P.P.P.P.P.P.P.P.P.P.P.s.0 2 = % % + + % % = , , , , % % % % = , 0 u s. X X X",
" X X Xa.j.c.c.F.G.F.G.G.G.G.P.G.P.G.P.P.P.P.P.P.P.P.P.G.G.P.P.P.P.P.P.P.P.P.P.P.P.P.P.P.P.P.P.z.8 = = = = = 8 0 u z.P.v.G.G.z.z.p 8 , = = , 2 0 0  X X",
" X Xw.r.a.k.c.v.F.G.G.G.G.P.G.P.G.P.G.P.G.P.P.G.G.P.P.P.P.P.P.P.P.L.L.H.P.P.P.P.P.P.P.P.P.P.L.s.2 = = 8 p s.z.P.Q.L.U.P.P.P.Q.L.L.F.z.p.p 8 2 8 8  X X",
" X Xe.r.g.k.c.c.F.F.G.G.G.G.G.P.G.P.P.P.P.P.P.G.G.P.P.G.P.P.P.P.L.C.X.%.M.L.P.P.P.P.U.P.P.P.L.z.8 = , s.P.P.Q.P.P.L.P.L.L.P.P.U.P.U.L.P.v.v.p.u 0  X X",
" Xe.e.e.d.j.z.c.v.G.F.G.G.G.G.G.P.G.P.G.P.P.G.P.P.P.P.P.P.P.P.H.G ) ] <.O.I.L.P.U.P.P.P.P.P.U.P.2 = = p G.P.U.P.P.U.U.U.P.U.U.L.L.U.P.U.P.Q.P.G.z. X X",
" Xr.w.e.r.a.x.c.v.G.G.G.G.G.G.P.G.P.P.P.G.P.P.G.P.G.P.P.P.P.P.L.o.( >.>.[ M.L.P.P.P.P.P.P.P.P.L.u = % 8 z.E.U.P.L.U.Q.L.U.L.U.Q.U.Q.L.L.L.U.U.R.P.F. X",
" Xq.0.e.r.a.j.c.c.F.F.G.G.G.G.G.H.G.G.P.P.G.G.P.P.P.P.P.P.P.P.E.G ) { ` ' M.P.P.L.P.P.P.U.P.P.P.z.= = = s.P.L.Q.U.L.U.U.Q.U.U.L.L.U.U.U.U.U.L.L.R.R. X",
" X0.0.0.r.r.h.x.v.F.G.G.G.G.G.G.G.P.G.P.G.G.G.P.P.P.P.P.P.P.P.P.Z.W ( ( ! Z.P.P.U.P.P.P.P.P.P.P.v.2 = % u P.Q.U.U.L.L.U.U.U.U.L.L.U.U.R.L.U.R.U.R.R. X",
" X0.0.0.w.d.g.x.v.c.F.G.G.G.G.G.P.G.G.G.G.P.P.G.G.G.P.P.P.P.L.P.P.G O.X.m.P.P.P.P.P.P.P.L.P.P.P.G.u = = 2 G.U.L.U.Q.Q.U.L.L.Q.U.Q.U.L.L.U.R.U.L.R.R. X",
"e.0.0.8.0.d.a.j.x.v.D.F.G.G.G.G.G.G.G.G.G.G.v.z.v.G.P.P.P.P.P.P.P.H.Z.Z.P.P.P.P.P.P.P.G.P.P.P.P.G.p = % , z.U.Q.U.Q.U.Q.L.U.U.L.U.L.L.U.U.L.U.L.L.U.Q.",
" X0.0.0.0.r.a.h.x.v.v.G.G.G.G.G.G.G.G.G.v.z.u 0 u z.P.P.P.Q.P.P.P.P.P.P.P.P.P.P.P.P.P.P.P.P.Q.P.P.p., % = u Q.Q.U.L.Q.L.Q.Q.U.Q.U.Q.R.R.U.Q.U.Q.Q.Q. X",
"w.0.0.0.0.w.r.g.x.v.v.F.F.G.G.G.G.P.G.p.8 2 , = , 0 G.G.P.P.P.P.P.P.P.P.P.P.L.P.P.P.P.P.P.Q.P.P.P.z.2 % % 2 P.Q.Q.L.Q.U.Q.U.Q.L.U.L.U.U.L.U.L.U.U.Q.Q.",
"w.0.0.0.0.w.d.a.j.x.v.v.F.F.G.G.v.p.2 % % = = % = = p.G.P.P.P.P.P.P.P.P.P.P.U.P.P.Q.P.P.P.P.P.Q.U.z.0 % + = s.W.U.Q.U.Q.Q.Q.Q.Q.Q.Q.L.R.Q.R.Q.Q.Q.Q.Q.",
"w.0.0.0.0.e.e.a.h.x.c.v.v.G.G.z.0 , % + % = 2 2 = = 2 z.P.P.P.P.P.P.P.L.P.P.W.W.Q.Q.P.Q.Q.P.P.Q.Q.P.p = o % 0 L.L.U.Q.Q.Q.L.Q.Q.Q.L.Q.R.R.R.R.R.Q.L.Q.",
"0.0.0.0.0.e.e.r.h.k.x.v.v.G.z.8 % + + % 2 p.z.p = % = p G.P.P.P.L.U.P.U.W.U.~.X.~.Z.Q.Q.Q.Q.P.Q.U.L.v., + o 8 G.Q.Q.U.Q.U.Q.U.Q.U.Q.Q.Q.R.Q.R.R.Q.Q.Q.",
"r.9.0.0.0.e.q.r.g.h.k.c.c.p.4 % + + = 0 s.G.P.z.2 % % 8 G.P.P.P.P.U.U.Q.A.W x l L ~.P.Q.Q.P.Q.P.U.E.P.0 o o = z.Q.Q.Q.L.Q.U.Q.Q.Q.R.U.Q.Q.R.R.R.Q.R.Q.",
"9.9.9.Z 0.e.e.r.a.s.j.c.p 2 & + + 2 p.G.L.P.P.G.u + % = z.P.Q.Q.Q.Q.Q.P.&.h z c b Q I.Q.Q.Q.Q.P.E.U.U.z.% o + p.L.Q.U.Q.Q.Q.L.Q.Q.L.E.R.Q.R.Q.U.R.Q.Q.",
"r.9.0.0.0.w.w.r.r.g.a.e = # # & u v.P.P.G.G.G.P.s., + % u P.Q.Q.Q.L.Q.Q...x z n _ ' ~.W.Q.P.Q.Q.Q.P.Q.P.2 o + 8 G.Q.U.Q.Q.Q.Q.U.Q.U.Q.U.E.Q.R.E.Q.Q.Q.",
" X9.0.0.0.w.e.r.r.d.e = + O + 9 z.G.G.G.G.P.P.P.v.0 + % 2 P.P.Q.Q.U.Q.W.&.h l _ } { ! Q.Q.Q.Q.Q.Q.Q.Q.P.p + + % z.U.Q.Q.L.Q.Q.Q.Q.Q.Q.Q.Q.U.Q.Q.Q.Q. X",
"y.w.9.9.9.e.e.q.w.9 $ @ o & p F.v.G.H.G.G.P.P.P.P.p.% + % z.Q.Q.Q.Q.U.Q.C.j d _ } ,.{ /.W.Q.Q.Q.Q.Q.Q.Q.z.= + + p L.Q.Q.Q.L.Q.Q.Q.Q.Q.Q.Q.Q.Q.Q.Q.Q.Q.",
" X9.0.0.9.0.e.e.w $ o   o q x.v.v.G.G.G.P.G.P.P.Q.z.2 + + 8 Q.Q.U.Q.Q.L.A.W s c >.<.;.+.L.Q.Q.P.U.Q.Q.Q.P.0 o + , U.Q.U.Q.U.Q.Q.!.Q.Q.Q.Q.Q.Q.Q.Q.Q. X",
" X0.0.9.9.e.e.y * o   X 1 s.v.c.v.F.G.G.G.G.P.U.Q.G.u + + + z.R.Q.Q.Q.W.Y.X.l d } 1.1.[ Y.E.Q.Q.U.E.Q.Q.P.s.+ + + v.Q.Q.Q.Q.Q.Q.Q.Q.Q.Q.Q.Q.Q.Q.Q.Q. X",
" X0.9.9.9.0.y * X .   : r.j.z.c.v.v.G.P.P.P.P.L.U.Q.s.% o + 0 Q.Q.Q.Q.Q.Q.~.j s _ 1.7.>.*.W.Q.Q.Q.U.E.U.Q.G.2 o o u !.Q.Q.Q.Q.Q.Q.Q.Q.Q.Q.U.Q.Q.Q.Q. X",
" Xw.9.8.8.r < O . . & 9.g.h.j.c.v.N.v.G.G.P.P.Q.Q.Q.v.8   o = U.Q.Q.Q.Q.E.A.W z v ,.6.4.-.Q.Q.Q.U.Q.U.E.Q.L.p.+ + = Q.Q.Q.Q.Q.Q.Q.Q.Q.Q.Q.Q.Q.Q.Q.!. X",
" X X9.8.8.6 #     $ i j.s.j.k.x.v.v.v.G.G.P.P.P.L.P.L.u + o + s.!.Q.Q.Q.E.U.X.f d >.6.).;.^.E.Q.Q.E.U.Q.Q.Q.v.= + + s.!.Q.Q.Q.Q.Q.Q.Q.Q.Q.Q.Q.Q.Q.Q. X",
" X X9.9.8.$ #   # 3 w.g.g.g.k.k.x.v.D.F.G.G.P.P.R.T.R.h.= o o 4 !.Q.Q.Q.Q.!.C.L d _ ).`.6.*.W.Q.Q.Q.Q.Q.!.Q.H.0 + % 2 W.Q.Q.Q.Q.Q.Q.Q.Q.Q.Q.Q.Q.Q. X X",
" X X9.8.w $ X # $ 8.r.y.g.j.j.k.k.c.v.S.F.F.K.T.P.R.Q.K.8 o o + G.!.Q.!.Q.Q.Q.~.x c 6.).`.-.A.Q.E.Q.Q.Q.Q.Q.U.p % % = G.!.Q.Q.Q.Q.Q.Q.Q.Q.Q.Q.Q.Q. X X",
" X X9.9.6 $ # $ w.y.y.r.g.h.j.k.k.l.c.S.F.F.J.P.T.P.P.Q.p = o o 0 !.Q.Q.Q.Q.Q.Y.j z ,.`.`.<.%.W.Q.Q.Q.Q.Q.Q.!.s.2 % = u !.Q.Q.Q.Q.Q.Q.Q.Q.Q.Q.Q. X X X",
" X X Xt $ # $ 6 r.y.y.r.g.h.h.j.k.k.c.S.v.F.F.P.P.T.R.Q.v.1 o o = P.Q.Q.Q.Q.Q.Q.%.d _ `.`.).! U.Q.W.Q.Q.Q.Q.Q.G.0 = = 8 P.Q.Q.Q.Q.Q.Q.Q.Q.Q.Q.Q. X X X",
" X X X7 $ $ $ 8.r.a.r.a.a.g.h.j.k.l.l.l.S.F.F.J.K.T.T.K.T.w + o + p.!.Q.Q.Q.Q.E.Y.f b ).[.`.-.~.W.Q.Q.Q.Q.Q.Q.!.p., = , z.!.Q.Q.Q.Q.Q.Q.Q.Q.Q.Q. X X X",
" X X X X$ $ : 0.w.r.g.y.g.g.s.j.h.l.l.l.S.F.F.F.F.K.T.U.R.s.= o + 2 Q.Q.Q.U.Q.Q.W.Q c 7.|.[.5.O.W.Q.Q.Q.Q.!.Q.!.z.8 = , u Q.Q.Q.Q.Q.Q.Q.Q.Q.Q. X X X X",
" X X X X- - 7 0.e.a.g.g.g.g.g.g.l.l.l.l.l.F.F.F.F.F.T.T.R.K.5 + + = v.Q.Q.Q.Q.Q.E.A.l <.|.|.).+.A.Q.Q.Q.Q.Q.Q.Q.Q.u , , 8 G.Q.Q.Q.Q.Q.Q.Q.Q.Q. X X X X",
" X X X X X7 8.0.0.e.g.g.g.j.g.h.y.l.l.S.l.l.F.F.F.K.F.T.P.R.u $ + = p !.Q.L.U.U.Q.W.L ` `.|.`.:.*.W.Q.!.Q.Q.Q.!.!.s.8 , 8 z.Q.Q.Q.Q.Q.Q.Q.Q. X X X X X",
" X X X X X Xw.w.0.w.y.g.g.g.g.g.h.j.k.l.l.l.S.F.F.F.F.F.K.P.v.= + % 2 P.Q.U.L.Q.U.E.&.b ).[.|.2.+.Y.Q.!.Q.Q.Q.W.Q.P.0 2 8 p.Q.Q.Q.Q.Q.Q.Q.Q. X X X X X",
" X X X X X Xw.0.e.w.e.g.g.g.g.h.h.h.y.l.l.S.l.F.F.F.F.F.F.J.P.q % + , s.Q.U.U.U.U.Q.Z.f <.[.|.5.+.^.W.Q.!.Q.Q.Q.Q.!.p.8 2 u G.Q.Q.Q.Q.Q.Q. X X X X X X",
" X X X X X X Xw.w.w.e.g.g.h.g.g.h.h.h.h.j.l.l.l.S.F.F.F.F.K.T.a.% + % 0 L.U.L.U.P.Q.H.W ) [.|.[.;.%.Q.Q.Q.Q.Q.Q.Q.Q.G.0 2 0 s.Q.Q.Q.Q.Q. X X X X X X X",
" X X X X X X Xy.e.w.w.w.g.g.g.h.h.h.h.h.h.h.l.l.l.l.F.F.F.F.F.J., % + , z.U.L.U.P.Q.P.G l `.{.|.;.O.A.W.Q.Q.Q.Q.Q.Q.Q.u 8 8 p.P.Q.Q.Q.Q. X X X X X X X",
" X X X X X X X Xy.w.w.w.y.g.g.g.y.h.h.h.h.h.h.l.l.l.l.S.S.F.F.F.u % + & u Q.P.P.P.P.E.C.j ;.{.{.5.L ~.W.Q.Q.Q.Q.Q.Q.Q.s.0 8 p v.Q.Q.Q. X X X X X X X X",
" X X X X X X X X Xw.r.w.w.r.g.g.h.h.h.h.h.h.h.h.l.l.l.l.l.N.S.F.k.= + + , v.P.P.H.P.P.I.X.) ].].`./ X.U.Q.Q.Q.Q.Q.Q.U.G.u 8 u z.Q.Q. X X X X X X X X X",
" X X X X X X X X X Xr.w.w.w.r.g.h.y.y.h.h.h.h.h.y.l.l.l.l.l.l.c.F.5 + + = p H.H.G.G.P.P.m.L 5.].`.-.Q Z.P.U.P.Q.L.Q.Q.P.p 0 0 s.P. X X X X X X X X X X",
" X X X X X X X X X X Xw.w.w.w.r.y.h.h.h.h.y.h.y.h.h.y.y.j.j.l.l.c.q.% + + 8 v.G.G.G.G.L.Z.o.[ '.).4.) Z.P.U.P.P.P.P.U.P.z.0 u p  X X X X X X X X X X X",
" X X X X X X X X X X X Xr.w.w.w.r.g.g.g.g.h.g.h.h.g.h.h.h.j.j.j.k.k.; # O ; a.G.D.F.F.F.F.u.P 3.(.i.' $.F.K.T.K.P.T.K.T.F.i 9  X X X X X X X X X X X X",
" X X X X X X X X X X X X Xr.w.w.w.r.y.h.g.g.g.h.h.h.g.h.h.h.h.j.j.l.w $ O $ 9 D.v.S.F.F.D.u.R  .i.i.:.W Z.T.T.F.T.F.K.H.G.a. X X X X X X X X X X X X X",
" X X X X X X X X X X X X X Xr.w.w.0.w.y.g.g.g.g.g.g.h.h.y.h.h.h.j.j.g.* # # ; g.S.S.S.S.S.l.S P #.3.#.P u.F.F.T.P.T.P.K.F. X X X X X X X X X X X X X X",
" X X X X X X X X X X X X X X Xg.w.w.w.w.w.y.g.g.g.g.g.g.h.h.y.h.g.g.j.6 & # - y k.l.l.l.k.k.u.R @.3.#.T  .F.F.F.F.K.F.F. X X X X X X X X X X X X X X X",
" X X X X X X X X X X X X X X X X Xr.w.w.w.w.r.g.g.g.g.g.h.h.h.y.g.g.h.0.> $ * 5 y.g.j.k.k.k.t.C ~ #.#. .g t.F.F.F.S. X X X X X X X X X X X X X X X X X",
" X X X X X X X X X X X X X X X X X Xy.w.w.w.w.w.r.y.g.g.y.y.g.g.g.g.g.g.7 - $ : 8.y.r.r.y.h.y.A J | @.~ J D l.F. X X X X X X X X X X X X X X X X X X X",
" X X X X X X X X X X X X X X X X X X X Xr.w.w.w.w.w.r.y.y.y.y.g.g.y.y.h.8.1 - : w r.r.r.r.r.y.t.N J R U R C t. X X X X X X X X X X X X X X X X X X X X",
" X X X X X X X X X X X X X X X X X X X X X Xg.w.w.w.w.w.w.w.r.r.r.r.y.y.r.7 : > 6 9.w.w.w.w.w.r.Z M B B N  X X X X X X X X X X X X X X X X X X X X X X",
" X X X X X X X X X X X X X X X X X X X X X X X X Xr.w.w.w.w.w.w.w.r.w.w.r.r 5 3 7 r w.w.w.w.w.r.r.Z V  X X X X X X X X X X X X X X X X X X X X X X X X",
" X X X X X X X X X X X X X X X X X X X X X X X X X X Xg.y.r.r.w.w.w.w.w.w.0.w 5 7 8.w.r.w.r.g. X X X X X X X X X X X X X X X X X X X X X X X X X X X X",
" X X X X X X X X X X X X X X X X X X X X X X X X X X X X X X X Xy. Xr.r.y.r.8.w w  Xy. X X X X X X X X X X X X X X X X X X X X X X X X X X X X X X X X"
};
