/* XPM */
static char *_8[] = {
/* columns rows colors chars-per-pixel */
"75 75 183 2 ",
"   c #2E2B2F",
".  c #2F2C30",
"X  c #312D33",
"o  c #363536",
"O  c #3B363C",
"+  c #3C3B3C",
"@  c #373138",
"#  c #3F3941",
"$  c #423C43",
"%  c #473F49",
"&  c #434343",
"*  c #4B454C",
"=  c #4C4C4C",
"-  c #4F4B50",
";  c #524C53",
":  c #554C58",
">  c #535353",
",  c #575259",
"<  c #5A545C",
"1  c #5C5B5C",
"2  c #5E5661",
"3  c #5F5B60",
"4  c #615663",
"5  c #625B64",
"6  c #685F6A",
"7  c #675F69",
"8  c #626262",
"9  c #676368",
"0  c #6C606F",
"q  c #6C6C6C",
"w  c #6E6371",
"e  c #726675",
"r  c #716E71",
"t  c #7B6D7E",
"y  c #756878",
"u  c #737373",
"i  c #7A737C",
"p  c #7C7C7C",
"a  c #B12F36",
"s  c #A7343C",
"d  c #B3353C",
"f  c #B8373F",
"g  c #EC0E0E",
"h  c #EB1313",
"j  c #E61D1D",
"k  c #EC1C1C",
"l  c #DD2425",
"z  c #DA2829",
"x  c #DE3434",
"c  c #DB3B3B",
"v  c #D53436",
"b  c #E12525",
"n  c #EE2020",
"m  c #E12C2C",
"M  c #EE2929",
"N  c #E03030",
"B  c #ED3535",
"V  c #EE3838",
"C  c #F13939",
"Z  c #A93D46",
"A  c #BC3C44",
"S  c #B53F49",
"D  c #C23C42",
"F  c #CB3E43",
"G  c #D03E42",
"H  c #9F4D59",
"J  c #A5434D",
"K  c #BC424B",
"L  c #A54752",
"P  c #BD4E5A",
"I  c #9C636F",
"U  c #8D6E7E",
"Y  c #926371",
"T  c #996470",
"R  c #92707F",
"E  c #A1656F",
"W  c #B9696D",
"Q  c #A66A72",
"!  c #B36F74",
"~  c #AC737A",
"^  c #B27479",
"/  c #B77D7E",
"(  c #C64146",
")  c #D54445",
"_  c #D44E4E",
"`  c #DA4648",
"'  c #C8585E",
"]  c #DA5B5B",
"[  c #D65959",
"{  c #ED4C4C",
"}  c #EE4141",
"|  c #F34D4D",
" . c #F04343",
".. c #E35454",
"X. c #EC5151",
"o. c #E3595A",
"O. c #F25656",
"+. c #F65C5C",
"@. c #C35A66",
"#. c #C65E69",
"$. c #C85F6A",
"%. c #CA626D",
"&. c #C46C6D",
"*. c #CB6C6D",
"=. c #CD6565",
"-. c #D16465",
";. c #DB6565",
":. c #DE6969",
">. c #D0656E",
",. c #CD6671",
"<. c #CB6C72",
"1. c #D26C75",
"2. c #DA6D74",
"3. c #CC7272",
"4. c #C27B7B",
"5. c #C77373",
"6. c #DB747B",
"7. c #E56363",
"8. c #EA6C6D",
"9. c #F46364",
"0. c #F56A6A",
"q. c #F86C6C",
"w. c #ED7273",
"e. c #F37575",
"r. c #F97575",
"t. c #F37B7C",
"y. c #F97D7D",
"u. c #7D6F81",
"i. c #7F7282",
"p. c #7F7E80",
"a. c #8A6F81",
"s. c #827586",
"d. c #847A87",
"f. c #857789",
"g. c #87798A",
"h. c #8A7C8D",
"j. c #8E7181",
"k. c #997884",
"l. c #8C7F90",
"z. c #A57C84",
"x. c #E27E84",
"c. c #F27F80",
"v. c #848484",
"b. c #8C828E",
"n. c #8B8B8B",
"m. c #8E8291",
"M. c #918593",
"N. c #948A96",
"B. c #968D99",
"V. c #988F9A",
"C. c #939394",
"Z. c #979199",
"A. c #9B939C",
"S. c #9C9A9C",
"D. c #BF8787",
"F. c #B58C8E",
"G. c #B39596",
"H. c #BA9393",
"J. c #B39C9C",
"K. c #B99E9E",
"L. c #9E97A0",
"P. c #9F9AA1",
"I. c #A29DA3",
"U. c #A6A5A6",
"Y. c #AEA4A4",
"T. c #A7A5A8",
"R. c #A8A6A9",
"E. c #AAAAAA",
"W. c #B4A4A4",
"Q. c #B1ACAC",
"!. c #AFAFB0",
"~. c #B0AFB0",
"^. c #B1B1B1",
"/. c #C08989",
"(. c #E98A8E",
"). c #E88388",
"_. c #F68484",
"`. c #F98484",
"'. c #F98A8A",
"]. c #EF9194",
"[. c #F49395",
"{. c #F99495",
"}. c None",
/* pixels */
"}.}.}.}.}.}.}.}.}.}.}.}.}.}.}.}.}.}.}.}.}.}.}.}.}.}.}.}.}.}.}.}.}.E.U.E.U.U.U.U.U.U.}.}.}.}.}.}.}.}.}.}.}.}.}.}.}.}.}.}.}.}.}.}.}.}.}.}.}.}.}.}.}.}.}.",
"}.}.}.}.}.}.}.}.}.}.}.}.}.}.}.}.}.}.}.}.}.}.}.}.}.}.}.}.U.U.E.E.U.E.U.U.U.U.U.U.U.U.E.E.E.^.E.}.}.}.}.}.}.}.}.}.}.}.}.}.}.}.}.}.}.}.}.}.}.}.}.}.}.}.}.",
"}.}.}.}.}.}.}.}.}.}.}.}.}.}.}.}.}.}.}.}.}.}.}.}.}.U.E.E.U.U.U.U.U.U.E.U.U.E.U.U.U.U.U.U.E.U.U.U.U.U.}.}.}.}.}.}.}.}.}.}.}.}.}.}.}.}.}.}.}.}.}.}.}.}.}.",
"}.}.}.}.}.}.}.}.}.}.}.}.}.}.}.}.}.}.}.}.}.}.^.E.E.U.U.E.U.U.E.U.E.U.U.U.U.U.U.U.U.U.U.U.E.U.U.U.U.U.E.^.^.}.}.}.}.}.}.}.}.}.}.}.}.}.}.}.}.}.}.}.}.}.}.",
"}.}.}.}.}.}.}.}.}.}.}.}.}.}.}.}.}.}.}.}.E.U.E.U.E.E.U.U.U.E.E.U.E.U.U.U.U.U.U.U.U.U.U.U.E.U.U.U.U.U.U.U.U.U.U.}.}.}.}.}.}.}.}.}.}.}.}.}.}.}.}.}.}.}.}.",
"}.}.}.}.}.}.}.}.}.}.}.}.}.}.}.}.}.}.^.^.U.U.U.U.E.U.E.U.E.U.U.E.E.U.E.E.E.U.E.U.U.U.U.E.U.U.E.U.E.U.U.U.U.U.U.U.E.}.}.}.}.}.}.}.}.}.}.}.}.}.}.}.}.}.}.",
"}.}.}.}.}.}.}.}.}.}.}.}.}.}.}.}.}.E.U.E.E.U.E.E.E.E.E.E.E.E.E.U.E.U.E.U.E.U.U.E.U.U.U.U.E.U.E.U.E.E.U.U.E.U.U.U.E.U.}.}.}.}.}.}.}.}.}.}.}.}.}.}.}.}.}.",
"}.}.}.}.}.}.}.}.}.}.}.}.}.}.}.U.E.U.E.U.E.E.E.U.U.E.U.E.E.U.E.E.E.E.U.E.E.U.E.U.E.E.E.E.E.E.U.E.E.U.E.E.E.U.E.E.E.U.E.^.}.}.}.}.}.}.}.}.}.}.}.}.}.}.}.",
"}.}.}.}.}.}.}.}.}.}.}.}.}.}.U.U.E.E.E.E.U.E.E.E.E.E.E.U.E.E.E.E.E.E.E.E.E.E.U.E.U.U.E.E.U.E.E.E.U.E.U.E.E.E.E.U.U.E.U.U.E.}.}.}.}.}.}.}.}.}.}.}.}.}.}.",
"}.}.}.}.}.}.}.}.}.}.}.}.}.R.R.U.U.E.U.E.E.E.E.E.E.E.E.E.E.U.E.U.E.U.U.E.E.U.E.E.E.E.U.E.E.E.E.U.E.E.E.E.U.U.E.E.E.E.E.U.E.U.}.}.}.}.}.}.}.}.}.}.}.}.}.",
"}.}.}.}.}.}.}.}.}.}.}.}.R.U.U.R.U.E.E.E.U.U.E.U.U.E.E.E.U.E.E.E.E.E.E.E.E.E.E.E.E.E.E.E.U.E.E.E.E.E.E.U.E.E.E.E.U.E.U.E.E.E.!.}.}.}.}.}.}.}.}.}.}.}.}.",
"}.}.}.}.}.}.}.}.}.}.}.U.U.R.U.U.U.E.E.U.E.E.E.E.E.E.U.E.E.E.E.U.E.U.E.E.E.U.E.E.U.E.U.E.E.E.U.E.E.U.E.E.U.E.U.E.E.E.E.E.E.E.E.E.}.}.}.}.}.}.}.}.}.}.}.",
"}.}.}.}.}.}.}.}.}.}.U.U.U.R.U.E.E.E.U.E.E.U.E.U.U.U.E.E.E.E.E.E.E.E.E.U.E.E.E.U.E.E.E.E.E.U.E.U.E.U.E.E.E.E.U.E.E.E.E.E.U.E.U.E.E.}.}.}.}.}.}.}.}.}.}.",
"}.}.}.}.}.}.}.}.}.U.U.U.R.U.E.U.U.E.E.E.E.E.E.E.E.E.U.E.U.E.U.E.E.U.E.E.E.U.E.E.U.E.U.E.E.E.E.U.E.E.E.E.E.E.E.E.U.U.E.U.E.E.E.E.E.U.}.}.}.}.}.}.}.}.}.",
"}.}.}.}.}.}.}.}.U.U.U.U.U.U.U.U.E.E.U.E.E.U.U.E.U.E.E.E.U.E.U.E.U.U.E.U.E.E.E.E.E.E.E.E.U.E.U.E.E.E.U.E.E.U.E.E.E.E.E.E.E.E.U.E.E.E.E.}.}.}.}.}.}.}.}.",
"}.}.}.}.}.}.}.S.U.U.U.U.E.E.U.E.U.E.E.E.E.E.E.E.E.E.U.E.E.E.E.E.E.E.E.E.E.U.E.U.E.E.E.E.E.E.E.E.E.U.E.E.E.E.U.E.U.E.E.U.E.U.E.E.E.E.E.!.}.}.}.}.}.}.}.",
"}.}.}.}.}.}.}.U.U.U.U.U.U.E.E.U.U.E.E.U.E.U.E.E.E.U.E.U.E.E.U.E.E.E.E.E.E.U.E.E.E.U.E.U.E.E.E.E.E.E.E.E.E.U.E.U.E.E.E.E.E.E.U.U.U.E.E.E.}.}.}.}.}.}.}.",
"}.}.}.}.}.}.P.U.I.U.U.U.U.U.U.E.U.E.E.E.E.E.U.E.E.E.E.E.E.E.E.E.E.U.E.U.E.E.E.U.E.E.E.E.E.U.E.U.U.E.E.U.E.E.E.E.U.E.E.E.U.E.U.E.E.E.E.U.^.}.}.}.}.}.}.",
"}.}.}.}.}.Z.U.U.S.U.U.U.E.E.U.U.E.E.E.U.E.E.E.E.E.U.U.E.U.E.E.E.U.E.E.E.E.U.E.E.E.U.E.E.U.E.E.E.E.U.E.U.E.U.E.E.E.E.U.E.U.E.E.E.U.E.E.E.E.E.}.}.}.}.}.",
"}.}.}.}.}.A.U.S.U.U.U.U.U.U.U.E.U.E.E.E.U.E.U.E.E.U.U.E.E.E.U.E.U.E.U.E.E.E.E.E.E.E.E.U.E.E.E.U.E.E.E.E.E.E.U.U.E.E.E.E.E.E.U.E.E.E.U.E.E.U.}.}.}.}.}.",
"}.}.}.}.Z.S.I.U.U.U.U.U.E.U.E.R.U.E.U.E.E.E.E.E.E.U.E.E.E.E.U.E.E.U.E.E.E.U.E.U.U.E.U.E.E.E.E.E.U.E.E.E.U.E.E.E.E.U.E.E.E.E.E.E.E.E.U.U.E.U.!.}.}.}.}.",
"}.}.}.}.Z.A.S.U.I.U.I.U.U.U.U.U.U.E.E.E.E.U.E.U.E.E.E.U.U.U.E.E.E.E.U.E.E.E.E.E.E.E.U.E.U.E.U.E.E.E.E.E.E.E.E.U.E.E.E.U.E.U.E.U.E.U.E.E.E.E.E.}.}.}.}.",
"}.}.}.h.Z.A.S.I.S.U.U.U.U.U.R.E.E.U.U.E.U.E.E.E.E.U.E.E.E.U.U.E.E.E.E.E.U.E.E.E.E.U.E.E.E.E.E.E.U.E.U.U.U.E.U.E.E.E.E.E.E.E.E.E.E.E.E.E.E.E.E.E.}.}.}.",
"}.}.}.b.B.Z.S.I.U.I.U.U.U.E.U.U.U.E.E.E.E.E.E.U.E.U.E.E.E.E.E.E.E.E.E.E.E.E.E.E.E.E.E.E.U.E.E.E.E.E.E.E.E.E.E.E.E.U.E.U.E.E.U.E.E.E.U.E.E.U.U.E.}.}.}.",
"}.}.}.b.N.A.S.I.U.U.P.U.U.U.R.U.E.E.E.E.U.E.E.E.E.E.U.E.E.U.E.E.E.E.E.E.E.E.E.E.E.E.E.E.E.E.E.E.E.E.E.U.E.E.E.E.E.U.E.U.E.E.E.E.E.U.E.U.E.E.U.E.}.}.}.",
"}.}.d.h.b.B.Z.S.I.U.U.U.U.U.R.R.U.U.U.U.U.U.U.U.U.U.U.E.E.E.E.E.E.E.E.E.E.E.E.E.E.E.E.E.E.E.E.E.E.E.E.E.U.U.E.E.U.E.E.E.E.U.U.E.E.E.E.E.U.E.E.E.^.}.}.",
"}.}.d.h.b.C.A.A.S.U.U.U.U.U.U.U.U.U.U.E.U.U.E.U.U.U.U.E.E.E.E.E.E.E.E.E.D._ _ =.G.E.E.E.E.E.E.E.E.E.E.E.E.E.E.E.E.U.U.U.E.E.E.E.U.E.U.E.E.U.E.E.E.}.}.",
"}.}.d.h.b.M.Z.S.P.I.U.I.U.U.U.U.U.U.U.U.U.U.S.S.C.C.C.U.E.E.E.E.E.E.E.E._ X.9.0.5.E.E.E.E.E.E.E.E.E.E.E.E.E.E.E.E.E.E.E.U.E.U.E.E.E.E.E.E.E.E.U.!.}.}.",
"}.d.f.d.h.M.Z.Z.S.I.U.U.U.U.U.U.S.n.u 1 > > = 1 8 8 u C.U.E.E.E.E.E.E.Y.) X.9.9.;.E.E.E.E.E.E.E.E.E.E.U.U.C.v.p p n.U.E.E.E.E.U.U.E.E.E.E.E.E.E.E.U.}.",
"}.s.s.d.h.h.N.Z.S.I.U.U.I.S.n.q > = & & & & & = = & > u U.E.E.E.E.E.E.J.[ { { X.5.E.E.E.^.E.E.E.E.E.E.C.u 1 1 > > = = > > q v.C.U.E.E.U.E.U.E.E.E.E.}.",
"}.s.i.s.d.h.b.Z.Z.P.S.n.q > = = & + & + + & & > > & > 8 U.E.E.E.E.E.E.Y.=...X.[ U.E.^.E.E.E.E.E.E.E.E.v.> & > = & & & + + & = 8 u C.U.E.U.E.E.U.E.E.}.",
"}.i.u.s.d.h.b.Z.C.u 1 - & & & & + & = 1 q p n.n.u = = > C.E.E.E.E.E.E.E.G.4.4.G.E.E.E.E.E.E.E.E.E.E.E.u > & > > = = & + o + + & > 1 u C.E.U.E.U.E.!.}.",
"}.u.s.u.s.d.s.r , + O O + + & - u C.U.E.E.E.E.E.v.= & = n.E.E.E.E.E.^.E.E.E.E.E.E.E.E.^.E.E.E.E.E.E.E.1 = > v.C.n.n.p u 1 = & + & & = 8 v.U.E.E.U.E.}.",
"f.u.u.u.e 6 ; # o o o o & q C.U.U.U.U.U.U.U.E.E.v.= & = n.E.E.E.E.E.E.E.E.E.E.E.E.E.E.E.E.E.E.E.E.E.U.1 = = v.E.E.E.E.E.E.E.C.q > & & = > p S.E.U.E.E.",
"s.t u.e : $ X . . o $ 8 n.U.U.U.U.U.U.E.E.E.E.E.v.= & = C.!.!.E.E.E.E.E.E.E.E.E.E.E.E.E.E.E.E.E.E.^.S.> = = n.E.^.^.E.^.E.^.^.^.S.p = & = > q S.U.U.E.",
"u.t t < @ .   . O 1 n.S.P.U.U.U.U.U.U.U.E.U.E.E.v.& & = S.E.E.E.E.E.E.E.E.E.E.E.U.E.E.E.E.E.E.E.E.E.C.> = = C.E.E.E.E.E.E.E.E.E.E.E.S.1 & & > q S.U.U.",
"t t < O X X @ = i Z.A.S.P.U.U.U.U.U.E.U.E.E.E.E.v.= & = S.E.!.E.^.E.^.E.^.E.E.^.E.E.E.E.E.E.E.E.E.E.n.= = = C.E.E.^.E.^.^.E.E.E.^.E.E.U.u & = > u S.U.",
"u.2 # O O # 4 i.b.N.A.S.P.P.U.U.U.E.U.E.E.E.E.E.v.& & = U.^.!.!.^.^.^.^.^.^.^.^.^.^.^.E.E.E.^.E.E.U.p = = > S.^.^.E.^.E.E.^.E.^.E.E.E.^.U.p > > 1 u C.",
"4 $ $ # * t d.h.n.M.Z.A.P.U.U.U.U.E.E.E.E.^.E.!.p & & = E.^.^.^.^.^.^.J.3.c c [ H.Q.E.^.^.E.E.E.E.U.q = = 1 U.E.E.^.^.^.^.E.^.^.!.E.!.E.E.U.v.8 1 8 u ",
"% $ $ ; t h.h.h.m.M.B.S.A.P.U.U.U.U.E.E.E.!.^.^.p & o = E.^.^.^.E.^.^.5.x b b N 4.Y.^.^.E.^.^.E.^.S.8 & & 1 E.^.E.^.E.^.E.^.^.E.^.E.!.E.!.U.U.C.8 8 8 ",
"% % ; u.s.l.g.h.b.M.N.Z.P.P.U.U.E.E.E.E.E.E.^.^.p + o & U.!.^.^.^.^.^._ b n C B =.Q.Q.Q.^.E.^.E.^.C.1 & & 8 ^.^.^.^.^.E.^.^.E.^.^.!.E.^.^.E.E.E.C.q 8 ",
"2 : w s.s.g.h.h.m.m.N.C.A.P.P.U.U.U.E.!.E.~.^.E.p O o & S.!.^.^.^.^.W.c b B  .{ ] ^.^.^.E.^.^.^.^.C.> + & 1 ^.E.E.^.^.E.^.E.E.^.E.^.^.E.^.E.^.E.E.n.q ",
"}.f.s.f.s.h.h.h.m.M.M.B.A.P.P.I.U.U.E.E.^.E.E.^.u o o & U.^.^.^.^.^.H.c j  .+.O.] ^.^.^.^.^.^.^.^.S.= + + 8 ^.^.^.E.^.^.^.^.^.E.!.E.!.E.^.E.^.^.E.E.}.",
"}.f.s.s.s.h.h.l.m.M.M.N.Z.A.P.P.U.U.E.E.!.~.E.^.q o o = E.^.^.^.^.^.D.c h | 9.9.] ^.^.^.^.E.^.E.^.U.& + + u E.^.^.^.^.^.^.^.^.^.^.E.!.!.E.^.^.E.E.^.}.",
"}.s.s.s.g.h.h.m.m.M.M.M.B.V.L.P.I.R.T.!.E.!.~.~.q o o & ^.^.^.^.^.^.4.x k +.0.0...^.^.^.^.^.^.^.^.U.& o + p ^.^.E.^.^.^.^.^.^.^.E.!.!.!.!.~.!.!.^.E.}.",
"}.f.f.f.f.g.h.m.m.M.B.N.B.V.L.I.I.I.R.Q.~.~.!.~.q o o & ^.^.^.^.^.^.4.N k +.q.q.o.Q.^.Q.^.^.^.^.^.S.& o + v.^.^.^.^.^.^.E.^.^.E.!.!.!.E.Q.E.!.E.^.^.}.",
"}.h.f.f.d.h.m.l.m.m.M.N.B.B.V.I.I.T.E.Q.!.~.E.^.q o o = ^.^.^.^.^.^.4.N h +.q.q.o.^.^.^.^.^.^.E.^.U.& o + n.E.^.^.^.^.^.^.^.^.^.!.!.!.!.!.!.!.!.^.^.}.",
"}.}.f.f.f.g.h.l.m.m.M.N.B.B.V.L.I.I.I.T.E.E.!.~.q o o - ^.^.^.^.^.^.5.N k +.r.r.o.^.^.^.^.^.^.^.^.C.& + & n.^.^.^.^.^.E.^.^.^.^.^.!.Q.^.Q.!.!.!.!.}.}.",
"}.}.f.f.f.g.l.l.M.l.M.M.B.B.V.A.L.I.I.I.Q.!.!.!.4 @ o * ~.~.~.^.^.^.D.m n 0.y.y.7.^.^.^.^.^.^.^.^.C.& + & C.^.^.E.^.^.^.^.E.^.^.^.^.^.^.!.!.!.!.^.}.}.",
"}.}.g.f.f.f.g.l.l.M.l.M.B.B.V.V.V.I.I.I.I.T.!.~.5 O o = ~.~.^.~.^.^.K.N n r.`.`.:.^.^.^.^.^.^.^.E.C.& + & C.^.^.^.^.^.^.^.^.^.^.^.^.^.^.!.^.!.^.!.}.}.",
"}.}.}.f.g.f.g.l.M.M.M.M.M.B.B.A.V.L.I.I.I.T.R.R.1 o o = !.~.!.!.^.^.K.m M y.`.'.:.^.^.^.^.^.^.^.^.C.+ + & U.^.^.^.^.^.^.^.^.^.^.^.^.^.^.^.^.!.!.}.}.}.",
"}.}.}.f.f.g.g.h.l.l.l.M.M.M.B.V.V.V.L.I.I.I.T.R., + o , !.!.~.!.^.^.K.b B y.'._.:.^.^.^.^.^.^.^.^.C.+ + & ^.^.^.^.^.E.^.^.E.^.^.^.^.^.^.^.!.^.^.}.}.}.",
"}.}.}.l.f.f.f.h.l.l.M.M.M.M.B.V.V.L.V.L.I.I.I.T.> & + 8 !.!.!.!.^.^.W.b B `.`._.;.^.^.^.^.^.^.^.^.C.& o & ^.^.^.^.^.^.^.^.^.^.^.^.^.^.^.^.^.^.^.}.}.}.",
"}.}.}.}.f.g.f.g.l.M.l.l.M.M.M.B.V.V.L.V.I.I.I.I.> + & 8 E.E.!.!.^.Q.E.b } '.'._.] ^.^.^.^.^.^.^.^.C.& + & ^.^.^.^.^.^.^.^.^.^.^.^.^.^.^.^.^.^.}.}.}.}.",
"}.}.}.}.l.f.f.f.h.l.M.M.M.M.M.N.B.V.V.L.L.L.I.I.> # + 8 !.E.!.!.E.^.^.b O.{.{._.7.^.^.^.^.^.^.^.^.n.& + = ^.^.^.^.^.^.^.^.^.^.^.^.^.^.^.^.^.^.}.}.}.}.",
"}.}.}.}.}.f.f.f.g.h.l.M.l.M.M.M.M.B.V.V.L.V.L.P.> + + 8 E.!.E.E.^.E.^.b 0.{.{._.] ^.^.^.^.^.^.^.^.v.& & > ^.^.^.^.^.^.^.^.^.^.^.^.^.^.^.^.^.}.}.}.}.}.",
"}.}.}.}.}.l.g.d.f.g.h.M.m.M.M.M.N.M.B.V.L.L.L.L.- + + 3 R.R.Q.Q.E.E.Y.l q.{.{.c.-.Q.^.^.^.^.^.^.^.p = & > ^.^.^.^.^.^.^.^.^.^.^.^.^.^.^.^.^.}.}.}.}.}.",
"}.}.}.}.}.}.f.f.f.f.h.m.m.m.M.M.M.M.M.B.B.B.B.L.- + # 1 I.T.T.E.^.E.J.l t.{.[.t.=.^.^.^.^.^.^.^.^.u = & 8 ^.^.^.^.^.^.^.^.^.^.^.^.^.^.^.^.}.}.}.}.}.}.",
"}.}.}.}.}.}.}.g.f.f.f.l.M.m.m.M.M.M.M.M.N.V.L.L.- + # < I.R.T.T.E.E.G.l t.[.[.w.=.^.^.^.^.^.^.^.^.u = = 8 ^.^.^.^.^.^.^.^.^.^.^.^.^.^.^.}.}.}.}.}.}.}.",
"}.}.}.}.}.}.}.h.f.f.f.g.l.m.m.m.M.M.M.M.M.M.B.B.* + # 2 I.I.T.I.U.U.F.l c.[.[.8.*.^.E.E.^.Q.Q.^.^.u > = q ^.^.^.^.^.^.^.^.^.^.^.^.^.^.^.}.}.}.}.}.}.}.",
"}.}.}.}.}.}.}.}.g.f.f.f.h.l.m.M.M.M.m.M.M.M.M.B.* O + < L.I.I.I.U.U./ l ).[.[.7.5.E.^.^.^.E.^.^.^.u > = q ^.^.^.^.^.^.^.^.^.^.^.^.^.^.}.}.}.}.}.}.}.}.",
"}.}.}.}.}.}.}.}.}.f.f.f.f.h.m.m.m.m.M.M.M.M.M.M.* O O 1 V.L.L.L.P.S.^ z ).[.].o.&.E.E.^.^.^.E.E.^.q > > q ^.^.^.^.^.^.^.^.^.^.^.^.^.}.}.}.}.}.}.}.}.}.",
"}.}.}.}.}.}.}.}.}.}.f.f.f.g.h.m.m.M.m.M.M.M.M.M.* O O < B.V.A.A.S.L.^ v ).(.(._ &.U.E.E.E.E.^.^.E.u > > u ^.^.^.^.^.^.^.^.^.^.^.^.}.}.}.}.}.}.}.}.}.}.",
"}.}.}.}.}.}.}.}.}.}.}.f.f.f.f.h.m.m.m.m.M.M.m.m.* O + < N.B.B.B.Z.A.Q F x.).).` W U.U.E.E.E.E.E.E.u 1 1 p ^.^.^.^.^.^.^.^.^.^.^.}.}.}.}.}.}.}.}.}.}.}.",
"}.}.}.}.}.}.}.}.}.}.}.}.f.f.g.g.h.m.M.l.m.M.M.M.; # $ : M.B.N.B.B.B.Q F x.x.6.G ! I.I.I.Y.I.R.Q.R.e 1 8 v.E.E.E.Q.Q.R.!.R.R.!.}.}.}.}.}.}.}.}.}.}.}.}.",
"}.}.}.}.}.}.}.}.}.}.}.}.}.f.f.g.f.h.l.M.m.M.l.M.< $ $ < M.M.M.N.N.N.E D ,.x.2.G ~ I.I.I.I.L.I.I.I.e 1 5 v.R.R.E.R.R.R.R.!.R.}.}.}.}.}.}.}.}.}.}.}.}.}.",
"}.}.}.}.}.}.}.}.}.}.}.}.}.}.h.f.g.f.g.l.m.m.M.m.4 * * 4 M.M.l.M.M.N.Q D ,.1.,.F z.L.L.L.L.I.L.L.L.9 1 3 h.R.T.T.E.R.R.E.R.}.}.}.}.}.}.}.}.}.}.}.}.}.}.",
"}.}.}.}.}.}.}.}.}.}.}.}.}.}.}.h.f.f.g.g.h.l.m.M.5 * - 5 l.M.M.M.M.M.T D $.,.%.D k.V.V.V.V.A.L.L.B.0 , 3 v.I.I.I.I.T.I.I.}.}.}.}.}.}.}.}.}.}.}.}.}.}.}.",
"}.}.}.}.}.}.}.}.}.}.}.}.}.}.}.}.}.g.f.f.g.f.l.l.6 : ; 6 M.M.M.l.m.M.I A $.%.@.A k.l.l.V.B.B.B.V.m.8 < 3 d.I.I.I.I.I.}.}.}.}.}.}.}.}.}.}.}.}.}.}.}.}.}.",
"}.}.}.}.}.}.}.}.}.}.}.}.}.}.}.}.}.}.l.f.f.f.f.f.6 < < e l.M.M.M.m.M.T D $.$.@.A j.l.l.h.l.l.V.l.d.3 < 5 b.A.A.A.V.}.}.}.}.}.}.}.}.}.}.}.}.}.}.}.}.}.}.",
"}.}.}.}.}.}.}.}.}.}.}.}.}.}.}.}.}.}.}.}.l.f.f.d.6 4 4 e l.l.l.l.l.l.T ( @.$.P d j.h.h.h.l.h.l.l.d.3 < 7 b.A.B.}.}.}.}.}.}.}.}.}.}.}.}.}.}.}.}.}.}.}.}.",
"}.}.}.}.}.}.}.}.}.}.}.}.}.}.}.}.}.}.}.}.}.}.h.f.e 6 4 y g.g.h.l.l.l.Y S @.@.' a j.g.f.g.h.g.g.h.d.4 < 7 i.}.}.}.}.}.}.}.}.}.}.}.}.}.}.}.}.}.}.}.}.}.}.",
"}.}.}.}.}.}.}.}.}.}.}.}.}.}.}.}.}.}.}.}.}.}.}.}.}.w w t g.f.f.g.g.g.Y s P P S Z a.g.g.f.g.g.f.h.u.4 }.}.}.}.}.}.}.}.}.}.}.}.}.}.}.}.}.}.}.}.}.}.}.}.}.",
"}.}.}.}.}.}.}.}.}.}.}.}.}.}.}.}.}.}.}.}.}.}.}.}.}.}.}.}.h.g.g.f.g.g.a.Z S S Z J a.g.g.h.g.g.h.}.}.}.}.}.}.}.}.}.}.}.}.}.}.}.}.}.}.}.}.}.}.}.}.}.}.}.}.",
"}.}.}.}.}.}.}.}.}.}.}.}.}.}.}.}.}.}.}.}.}.}.}.}.}.}.}.}.}.}.}.}.}.l.l.Y H J L L j.l.}.}.}.}.}.}.}.}.}.}.}.}.}.}.}.}.}.}.}.}.}.}.}.}.}.}.}.}.}.}.}.}.}."
};
