/* XPM */
static char *_9[] = {
/* columns rows colors chars-per-pixel */
"75 75 196 2 ",
"   c #353535",
".  c #39363A",
"X  c #3C3B3C",
"o  c #373338",
"O  c #3F3C40",
"+  c #423E43",
"@  c #434343",
"#  c #474248",
"$  c #4A454B",
"%  c #4B4B4B",
"&  c #4F4851",
"*  c #4F4750",
"=  c #534C54",
"-  c #564D59",
";  c #594F5B",
":  c #535353",
">  c #575359",
",  c #5B555D",
"<  c #5B5B5C",
"1  c #5E5460",
"2  c #615764",
"3  c #635B65",
"4  c #665C68",
"5  c #695E6C",
"6  c #646464",
"7  c #6B636D",
"8  c #6B6B6B",
"9  c #676368",
"0  c #6F6B70",
"q  c #6F6672",
"w  c #736A75",
"e  c #756978",
"r  c #796D7C",
"t  c #726675",
"y  c #747474",
"u  c #7B747C",
"i  c #7B7B7C",
"p  c #777378",
"a  c #B6343A",
"s  c #E90E0E",
"d  c #E61C1C",
"f  c #EC1C1C",
"g  c #EE1515",
"h  c #CE2B2E",
"j  c #DD2C2C",
"k  c #D92526",
"l  c #DD3434",
"z  c #DB3B3B",
"x  c #C63436",
"c  c #E32323",
"v  c #EC2222",
"b  c #E12A2A",
"n  c #EB2A2A",
"m  c #E63939",
"M  c #F13B3B",
"N  c #AA3C46",
"B  c #BA3B42",
"V  c #B53B44",
"C  c #C33C42",
"Z  c #D43F40",
"A  c #9E515D",
"S  c #9D4B56",
"D  c #AD424C",
"F  c #B4424A",
"G  c #BC434B",
"H  c #AA4B54",
"J  c #B64A52",
"K  c #A9555E",
"L  c #B7555F",
"P  c #925C6A",
"I  c #A65A63",
"U  c #9D6671",
"Y  c #986B77",
"T  c #97717E",
"R  c #99717E",
"E  c #8D6676",
"W  c #AD686E",
"Q  c #BB6468",
"!  c #AC797F",
"~  c #BE7979",
"^  c #A26C75",
"/  c #C4434B",
"(  c #C94045",
")  c #D64546",
"_  c #C54C53",
"`  c #C5545E",
"'  c #CD585A",
"]  c #D55355",
"[  c #D15A5A",
"{  c #DF5E5E",
"}  c #DF5155",
"|  c #ED4C4C",
" . c #EA4444",
".. c #F24848",
"X. c #E45353",
"o. c #EA5959",
"O. c #F45454",
"+. c #F45C5C",
"@. c #C55762",
"#. c #C75B66",
"$. c #C95D68",
"%. c #D55B61",
"&. c #E65E60",
"*. c #CD6363",
"=. c #CA636E",
"-. c #C66C6D",
";. c #D26263",
":. c #DC6667",
">. c #CC6671",
",. c #CE6B76",
"<. c #C57575",
"1. c #CD7474",
"2. c #C27C7C",
"3. c #CF707B",
"4. c #D4737C",
"5. c #D07777",
"6. c #D46A73",
"7. c #E36464",
"8. c #E86869",
"9. c #F66565",
"0. c #F56B6B",
"q. c #F86B6B",
"w. c #EE7778",
"e. c #F27B7C",
"r. c #F77676",
"t. c #7F7781",
"y. c #817484",
"u. c #8D7484",
"i. c #827D83",
"p. c #86778A",
"a. c #87788B",
"s. c #8A7C8D",
"d. c #917E8C",
"f. c #967986",
"g. c #8C7F90",
"h. c #A87F86",
"j. c #DA7E87",
"k. c #E17D83",
"l. c #EA7C80",
"z. c #848484",
"x. c #8B838D",
"c. c #8B8A8B",
"v. c #99818C",
"b. c #8E8291",
"n. c #8F8B90",
"m. c #918594",
"M. c #948A96",
"N. c #968D99",
"B. c #988F9A",
"V. c #9F8C95",
"C. c #949494",
"Z. c #97939A",
"A. c #9B939D",
"S. c #9C9B9C",
"D. c #BD8E8E",
"F. c #B8888A",
"G. c #AA8E93",
"H. c #A9979C",
"J. c #B59494",
"K. c #B59B9B",
"L. c #BA9B9B",
"P. c #B99495",
"I. c #9E97A0",
"U. c #9F99A1",
"Y. c #A29DA3",
"T. c #9FA0A7",
"R. c #A6A5A6",
"E. c #ADA3A3",
"W. c #A7A3A8",
"Q. c #A9A6A9",
"!. c #A7ACAE",
"~. c #AAAAAA",
"^. c #B5A4A4",
"/. c #B2ABAB",
"(. c #B8A0A0",
"). c #AFAFB0",
"_. c #B0AFB0",
"`. c #ADB3B4",
"'. c #A7B0B0",
"]. c #B1B1B1",
"[. c gray72",
"{. c #C18383",
"}. c #C58888",
"|. c #DF838B",
" X c #E8868B",
".X c #F78686",
"XX c #F98484",
"oX c #F58B8C",
"OX c #F8898A",
"+X c #F78788",
"@X c #EC8E92",
"#X c #E78F94",
"$X c #EF9194",
"%X c #F59496",
"&X c #F89596",
"*X c None",
/* pixels */
"*X*X*X*X*X*X*X*X*X*X*X*X*X*X*X*X*X*X*X*X*X*X*X*X*X*X*X*X*X*X*X*X*X*X~.*X~.R.*XR.R.*X*X*X*X*X*X*X*X*X*X*X*X*X*X*X*X*X*X*X*X*X*X*X*X*X*X*X*X*X*X*X*X*X*X",
"*X*X*X*X*X*X*X*X*X*X*X*X*X*X*X*X*X*X*X*X*X*X*X*X*X*X*X*X*X~.~.~.~.~.R.R.R.R.~.R.R.R.'.~.R.'.*X*X*X*X*X*X*X*X*X*X*X*X*X*X*X*X*X*X*X*X*X*X*X*X*X*X*X*X*X",
"*X*X*X*X*X*X*X*X*X*X*X*X*X*X*X*X*X*X*X*X*X*X*X*X*X*X'.~.R.~.R.R.~.~.R.R.R.~.R.~.R.R.~.R.R.R.R.R.R.~.*X*X*X*X*X*X*X*X*X*X*X*X*X*X*X*X*X*X*X*X*X*X*X*X*X",
"*X*X*X*X*X*X*X*X*X*X*X*X*X*X*X*X*X*X*X*X*X*X*X`.~.~.~.~.~.~.~.~.R.~.~.~.~.R.~.R.R.~.R.R.~.R.R.R.R.R.R.~.'.*X*X*X*X*X*X*X*X*X*X*X*X*X*X*X*X*X*X*X*X*X*X",
"*X*X*X*X*X*X*X*X*X*X*X*X*X*X*X*X*X*X*X*X*X~.R.~.~.~.~.R.~.~.~.~.~.~.R.~.~.~.~.~.R.~.R.R.~.R.R.R.R.R.R.R.R.~.R.*X*X*X*X*X*X*X*X*X*X*X*X*X*X*X*X*X*X*X*X",
"*X*X*X*X*X*X*X*X*X*X*X*X*X*X*X*X*X*X*X`.'.~.~.~.~.~.~.~.~.~.R.~.R.~.~.~.~.R.~.R.~.~.R.~.~.R.~.R.R.R.R.R.R.R.R.R.*X*X*X*X*X*X*X*X*X*X*X*X*X*X*X*X*X*X*X",
"*X*X*X*X*X*X*X*X*X*X*X*X*X*X*X*X*X'.~.R.'.~.R.~.~.R.~.~.R.~.~.~.~.~.~.~.~.R.~.~.~.~.~.'.~.R.~.R.~.R.R.R.R.R.R.R.~.R.*X*X*X*X*X*X*X*X*X*X*X*X*X*X*X*X*X",
"*X*X*X*X*X*X*X*X*X*X*X*X*X*X*X*XR.~.~.~.~.~.~.~.~.~.~.R.~.~.R.~.~.~.R.~.~.~.~.R.R.~.~.R.~.~.~.R.~.R.~.R.R.R.R.R.R.R.R.~.*X*X*X*X*X*X*X*X*X*X*X*X*X*X*X",
"*X*X*X*X*X*X*X*X*X*X*X*X*X*X*XQ.R.~.~.~.~.~.R.~.~.~.~.~.~.R.~.R.R.~.R.~.~.~.~.~.~.~.~.~.R.~.~.~.R.~.~.R.~.R.R.R.R.R.R.R.R.*X*X*X*X*X*X*X*X*X*X*X*X*X*X",
"*X*X*X*X*X*X*X*X*X*X*X*X*XR.Q.R.~.R.~.R.~.R.~.~.R.~.R.~.~.~.~.~.~.~.~.~.~.R.R.~.~.R.~.R.~.~.~.R.~.R.R.R.R.R.R.R.R.R.R.R.R.R.*X*X*X*X*X*X*X*X*X*X*X*X*X",
"*X*X*X*X*X*X*X*X*X*X*X*XR.Q.R.R.~.~.~.R.~.~.~.~.R.~.~.~.~.~.~.~.~.~.R.~.~.~.~.'.R.~.~.~.R.~.R.~.~.R.R.R.~.R.R.R.R.R.R.R.R.R.~.*X*X*X*X*X*X*X*X*X*X*X*X",
"*X*X*X*X*X*X*X*X*X*X*XR.R.R.R.Q.R.~.~.~.~.R.~.R.R.~.~.~.~.R.R.~.~.R.~.~.~.~.R.R.~.~.~.R.~.~.~.~.R.'.~.~.~.~.~.R.~.R.~.R.R.R.R.~.*X*X*X*X*X*X*X*X*X*X*X",
"*X*X*X*X*X*X*X*X*X*XR.R.Q.Q.R.~.R.R.R.~.~.~.~.~.~.R.~.~.R.~.~.~.R.~.~.~.~.R.~.~.~.~.R.~.~.~.R.~.~.~.~.R.R.~.~.~.~.R.~.R.~.R.R.R.~.*X*X*X*X*X*X*X*X*X*X",
"*X*X*X*X*X*X*X*X*XR.R.R.R.R.R.R.~.R.'.~.~.~.~.R.~.~.R.~.~.~.~.R.~.~.~.R.~.~.~.R.~.R.~.~.~.R.~.~.R.~.~.~.~.~.~.R.~.~.~.R.~.R.R.R.R.R.*X*X*X*X*X*X*X*X*X",
"*X*X*X*X*X*X*X*X*XR.R.R.R.~.~.R.~.~.R.~.~.~.~.~.~.~.~.~.R.~.R.~.R.~.R.~.~.~.~.~.~.~.~.~.~.~.~.~.~.R.~.R.R.~.~.~.~.~.~.~.~.~.R.~.R.R.~.*X*X*X*X*X*X*X*X",
"*X*X*X*X*X*X*XS.R.R.R.R.~.R.R.~.R.~.~.~.~.R.~.~.R.~.R.~.~.~.~.~.~.~.~.~.R.~.R.~.~.R.~.R.~.R.~.R.~.~.~.~.~.~.R.~.~.R.~.R.~.R.~.R.R.~.R.~.*X*X*X*X*X*X*X",
"*X*X*X*X*X*X*XR.Y.R.R.R.R.R.R.~.R.~.~.~.~.~.~.~.~.~.R.~.R.~.~.R.~.~.~.~.~.~.R.~.~.R.~.R.~.~.~.~.~.~.~.~.~.R.~.R.~.~.R.~.~.R.~.~.~.R.~.R.*X*X*X*X*X*X*X",
"*X*X*X*X*X*XS.Y.Y.R.R.R.R.~.R.~.R.~.~.R.R.~.~.R.~.R.~.~.~.~.~.~.R.~.R.~.R.~.~.~.~.~.~.~.~.R.~.~.~.R.R.~.~.~.~.~.~.~.~.~.~.~.~.~.~.R.R.~.~.*X*X*X*X*X*X",
"*X*X*X*X*X*XU.R.Y.R.R.R.R.R.R.R.~.R.~.~.~.~.~.R.~.~.R.~.R.~.R.~.~.~.~.~.~.~.~.~.~.R.~.~.~.R.~.R.~.~.~.~.~.R.~.~.R.~.~.~.~.R.R.~.R.~.R.~.~.~.*X*X*X*X*X",
"*X*X*X*X*XZ.S.S.T.S.R.R.R.R.R.R.R.~.R.~.R.R.~.R.~.R.~.~.~.~.~.R.R.~.R.~.R.~.R.~.~.~.R.~.~.~.~.~.~.R.~.~.~.~.R.~.~.~.R.~.~.~.~.~.~.~.~.R.~.R.*X*X*X*X*X",
"*X*X*X*Xb.Z.S.S.S.R.Y.R.R.R.R.~.R.~.~.R.~.~.~.~.R.R.~.~.R.~.~.R.~.~.R.~.R.~.~.~.R.~.R.~.~.~.~.~.R.~.~.R.~.~.~.R.R.~.R.~.~.~.~.~.~.~.R.~.~.~.~.*X*X*X*X",
"*X*X*X*XM.C.Z.S.C.c.z.c.z.z.i z.z.i c.c.c.C.C.C.R.'.~.R.R.R.R.~.R.R.R.~.~.~.R.~.~.~.~.~.R.~.~.R.~.~.~.'.R.~.~.~.~.~.~.~.~.R.~.R.~.R.~.~.~.~.~.*X*X*X*X",
"*X*X*Xy.M.M.c.i 6 > % % @ @ @ @ @ % @ : : % < < 6 y C.R.R.R.~.R.~.R.'.R.~.R.~.~.~.~.R.~.~.~.~.~.R.R.~.R.~.R.~.R.~.R.R.R.R.~.~.~.~.~.~.~.R.~.R.~.*X*X*X",
"*X*X*Xs.i 8 > $ X X             X X @ @ @ @ X @ @ @ % 6 z.C.S.~.R.~.~.~.~.~.~.R.~.R.~.~.~.R.~.R.~.~.~.~.~.~.~.~.~.'.~.~.~.~.~.R.~.R.~.R.~.~.~.~.*X*X*X",
"*X*X*X3 & @ @ + X . .   X X @ % % < % : % @ @ @ X X @ % < 6 i C.R.~.~.~.~.~.~.~.~.~.~.~.~.~.~.~.~.~.~.~.~.~.~.~.~.R.~.~.R.~.~.R.R.~.~.~.~.~.R.~.'.*X*X",
"*X*X# $ $ $ $ % : 6 8 i i C.c.C.S.S.R.C.C.C.i 6 6 : @ % % @ < z.R.R.~.~.~.~.~.~.~.~.~.~.~.~.~.R.R.~.R.~.~.R.~.~.~.~.~.~.~.~.~.~.~.~.~.R.~.R.~.~.'.*X*X",
"*X*X# $ $ , p c.C.S.R.R.Q.R.~.~.R.~.~.~.R.~.].~.S.C.c.8 : @ : i R.~.~.~.~.~.~.~.E.E.'.'.~.~.~.~.~.~.R.~.~.R.~.R.~.~.~.R.~.~.~.~.~.~.~.~.~.~.~.~.~.*X*X",
"*X*X- , w b.A.U.Y.R.R.R.R.R.R.Q.R.R.R.~.~.~.R.~.~.~.~.z.< @ : i R.~.'.~.~.~.~.'.~ [ *.J.'.~.~.~.~.~.~.~.~.~.~.~.~.R.~.~.R.~.~.R.R.~.~.R.~.R.~.R.~.~.*X",
"*X*Xy.y.x.m.Z.A.U.R.R.R.W.R.R.R.~.R.R.~.~.~.~.~.~.~.~.z.% % : c.~.~.~.~.~.'.'.J.) O.o.{ J.R.~.~.~.~.~.~.~.~.~.~.R.~.R.~.~.~.R.~.~.~.R.~.~.R.~.R.~.~.*X",
"*Xs.p.s.x.b.Z.A.U.Y.R.R.Q.Q.Q.~.~.~.~.~.~.~.~.~.~.~.C.8 @ @ < C.~.~.~./.~.~.E.1. .+.0.0.{.'.~.~.~.~.~.~.~.R.~.R.~.~.~.~.~.~.~.~.~.R.~.~.~.~.~.~.~.~.*X",
"*Xp.y.p.s.x.M.S.S.Y.R.Q.Q.Q.R.Q.~.~.~.~.~.~.~.~.~.~.z.% @ @ y R./.~.~.~.~.~.E.;.| | O.{ D.'.~.~.~.~.~.~.~.~.~.~.~.~.R.~.~.~.R.~.~.~.~.R.~.R.~.~.~.~.*X",
"*Xp.p.p.s.b.m.A.U.Y.R.R.Q.Q.~.~.R.~.~.~.~.~.].~.~.R.y X @ % C.~.~.~.~.~.~.~.E.~ o.| X.-.~.~.~.~.~.~.~.~.~.~.~.~.~.R.~.R.R.~.R.~.~.R.~.~.~.~.~.~.~.~.*X",
"*Xp.p.p.a.m.m.N.I.Y.R.R.Q.Q.~.Q.~.~.~.~.~.~.].].].C.: @ @ y ~.~.~.~.~.~.~.~.~.J.2.<.}.E.'.~.~.~.~.~.~.~.~.~.~.~.~.~.~.~.~.~.~.~.~.~.R.~.~.R.~.~.~.~.~.",
"*Xp.p.p.p.s.m.N.Y.Y.Y.W.Q.~.Q.~.~.~.~.].].].].].R.y @ @ @ C.~.~.~.~.~.~.~.~.~.'.~.E.~.~.~.~.~.~.~.~.~.~.~.~.~.~.~.~.~.~.~.E.~.R.~.~.~.~.~.~.R.~.R.~.~.",
"*Xp.p.p.p.s.m.N.A.Y.Y.R.Q.Q.Q.Q.~.~.~.~.~.].].].C.< X @ 6 ~.].~.'./.~./.~.~.~.~.~.~.~.~.~.~.~.].~.~.~.~.~.~.~.~.~.~.~.E.R.~.~.~.~.R.R.~.~.~.~.~.~.~.~.",
"s.p.a.a.a.s.x.N.A.A.Y.Y.W.Q.~.Q.~.~.~.].~.].].].i @   @ C.].].].].].~.'.~.~.~.~.~.~.~.~.~.~.~.~.~.~.~.].'.S.C.C.C.S.~.'.~.R.~.R.~.~.~.~.R.~.R.~.R.~.R.",
"b.a.a.p.a.s.d.m.N.A.Y.Y.W.Q.Q.~.~.~._._.].~.[.S.6     % ~.].].].].~.].].].~.~.~.~.~.~.~.~.~.~.~.].~.~.~.R.i 6 < 6 y z.S.~.~.R.~.~.~.~.~.~.R.~.R.~.~.~.",
"s.a.p.p.s.s.s.m.N.A.Y.Y.W.Q.).Q._._.~._.].~.].i @     y _.].].].].].]././.`.`.].~.~.~.~.~.].~.~.~.~.~.].z.< @ % % : : y S.].~.R.~.R.R.~.~.~.~.~.R.~.~.",
"g.a.a.p.a.s.s.b.N.N.A.Y.Y.Q.Q.)._._._._.].].S.6     @ S.].]._._.].`.(.<.[ ] }.].].~.~.~.~.~.~.~.~.~.~.R.< : @ % % % @ @ % i S.'.~.~.~.~.~.R.~.~.~.R.~.",
"g.p.a.p.s.s.b.s.m.N.A.Y.Y.W.Q.~.~._._._.].[.z.@     8 ].].]._._.].`.*.l b n l ~ /.].~.~.~.~.~.~.~.].~.z.% % < z.y % @ @ X @ < z.R.R.~.R.~.~.R.~.~.~.~.",
"g.a.p.p.a.g.b.g.m.M.A.H.Y.Y.W.Q.~.`.).)._.Q.8     X S.[.].].].`./.J.z b v n n -.(./.'././.'.~.~.~.'.S.< % @ y S.S.z.8 % X   @ < z.R.~.R.~.~.R.~.~.~.~.",
"*Xa.p.p.a.s.s.b.m.m.N.A.U.Y.W.Q./.!./.).[.n.%     < [.].[.]._.`.K.[ b n M M  .-./././.'./.~.~.~.~.S.i % @ : c.~.].~.S.i : X X @ < z.R.~.R.~.~.~.~.~.~.",
"*Xa.p.p.a.g.s.m.m.m.N.B.I.Y.Y.W.~.~./.).).8 X   . c.[.].].].]._.2.z c M O.| X.}.'.].]./.'.~.~.~.~.c.< % % 8 S.].'.~.].~.C.6 @ X @ 6 c.~.'.~.~.~.~.R.~.",
"*Xa.p.p.a.s.x.s.m.m.m.N.I.I.Y.W.W.~.~.[.Z.:     % ].].].].].[.K.[ v v O.9.+.{ /.]./.].'./.'./.~.C.8 @ % : c.~.].~./.~.].].].z.% @ % 6 C.R.~.~.R.~.~.~.",
"*Xp.p.p.a.s.s.m.g.m.M.M.N.I.Y.Y.R.Q.!.].y @     p [.`.].].].].{.z f M q.q.+.5.`.].].].].'./.].R.i : @ % 8 R.].~.~.~.~.~.].~.~.y @ @ % 8 S.R.~.~.~.R.*X",
"*Xs.p.p.a.s.g.s.g.m.N.N.N.B.Y.Y.Y.W./.S.:     @ R.]./.].].[.(.[ c f +.q.q.| (.`.].]./.].].].~.C.< @ @ : C.].~.].].].].].].~.].~.i % @ < z.~.R.R.~.~.*X",
"*Xb.p.p.p.a.d.g.g.m.M.M.N.B.A.Y.Y.W.~.u @ X X 8 [.].].].].].P.) f M q.q.9.:.`.].].]./.'./.].~.i % X @ 8 ].].].].].~.].~.~.~.~.].R.8 @ % 8 S.~.~.~.~.*X",
"*X*Xp.p.p.a.g.b.m.g.m.N.N.B.A.A.Y.Y.R.: @ X : Z.].).].].].].D.b f +.r.r.o.D.`.`.].].].].'.].R.: X   : c.].].~.].~.].~.].].].~.~.~.C.% @ : i R.R.~.~.*X",
"*X*Xa.p.p.p.s.x.b.b.m.N.N.N.N.A.I.W.i.@ X @ 8 ).!.`./.].).~.*.d M r.XXe.{ ].].].].]./.].].].z.@   @ 6 ~.]./.'./.]./.'./.]././.~.].~.y @ @ 8 S.~.R.*X*X",
"*X*Xa.p.p.p.a.b.b.b.b.m.N.N.N.A.A.Y.1 O X & x._./.).).).).(.j n 9.XX.X0.{.`.].].].].].].]./.<     : c.].].'.].].].'./.]./.'.].'.~.~.S.< @ < c.~.~.*X*X",
"*X*X*Xa.p.p.a.b.b.b.b.m.m.N.N.A.I.b.# X X < R.).~._.!._.`.2.d M XX.X.X7.^.].].~.].].].].'.C.@   X y ~.].]./.].'./.'./.'.'././.'.~.].R.i : : y S.~.*X*X",
"*X*X*Xa.p.p.a.s.b.b.m.b.m.N.N.N.I.9 O . $ y Q.Q.~./.!./.`.Z n 9.oX.Xr.5.[.].].].].'.].].~.8 X   % C.].'.].]./.].].].]././.'./.].].~.R.C.6 < 6 c.T.*X*X",
"*X*X*Xb.a.a.p.a.s.m.m.g.m.m.N.N.M.% . . = N.W.W.Q.).Q.`.K.k | +XOX.X7.L.`.].].].].].].].C.% X   y E.].].].].]./.].].'./.]./.]./.].~.~.R.z.< 6 i *X*X*X",
"*X*X*X*Xa.p.p.a.s.s.m.m.m.m.m.B.w + . O 3 Y.Y.Y.Y.W.!.`.' m r.%XoXe.;.].].~.].]./.].].~.y @ X % C.].].].'.].].].].].].'./.'./.'.~.].].].Z.8 6 8 *X*X*X",
"*X*X*X*Xs.a.p.p.s.s.g.m.m.m.m.N.& . . $ i.Y.Y.Y.W.Y.Q.K.k +.oX%X.X7.{.`.].].].].].].].S.:     y E.].].].].].].].].].]././.].'.].~.].].~.~.i 6 *X*X*X*X",
"*X*X*X*X*Xa.p.p.a.s.m.g.m.m.m.t.O . O , Z.I.I.Y.Y.W.Y.=.m e.%X%Xe.[ /.`.].].].].].].~.z.    @ C.'.].].].].].].].]././.].'./.'./.].].~.].~.c.6 *X*X*X*X",
"*X*X*X*X*Xm.a.a.a.s.s.m.b.b.m.1 O o + e I.B.I.I.U.U.G.h &.oX%XoX8.~ `.].]./.].].].].E.6     6 [./.].~.].]./.].].].]./.'.]./.'.]./._._._._.S.*X*X*X*X*X",
"*X*X*X*X*X*Xa.p.a.a.s.m.m.m.s.* O O - g.I.B.B.I.U.G.Q k l.@X@Xw.;.(.'./.'.].].].].~.z.@ X X C.].].].].].].'.].].].].].]./.].'./._.!.~._._.*X*X*X*X*X*X",
"*X*X*X*X*X*X*Xp.a.a.a.s.m.m.w # O + 4 M.M.N.B.B.I.h.x }  X#X X7.-.'././.].~.~.].].S.6 X X : [.].].].].].].].].].]./.].].].].]./._._.].!.].*X*X*X*X*X*X",
"*X*X*X*X*X*X*Xm.a.p.p.a.m.x.3 $ + & t.M.b.M.N.I.B.W h k.#X#X8.$.J.R.~.~.~.].~.~./.z.% X @ z.[.].].].].].].].].].'.].].].].~.].].].]./.].*X*X*X*X*X*X*X",
"*X*X*X*X*X*X*X*Xs.a.p.p.s.y.; $ & 1 M.M.m.M.m.M.f.J ] j. Xk.[ Q Y.W.Q.Q.~.~.~.].S.6 @ @ : ~.]./.].].].].].].].].].].].].].~.].]._._.].*X*X*X*X*X*X*X*X",
"*X*X*X*X*X*X*X*X*Xa.p.p.a.7 - * ; r M.m.m.m.m.M.^ C 6.j.k.%._ h.U.W.Y.W.E.~.~.~.i : @ % i [./.'.~.].].~.].].].].].].].].].].].].]._.*X*X*X*X*X*X*X*X*X",
"*X*X*X*X*X*X*X*X*X*Xs.a.y.4 - - 2 g.m.m.m.m.M.f.K / 3.j.4.C L N.U.U.U.U.R.E.~.S.8 % % : S.]././.].~.~.]./.].~././.'.'.].].].].].].].*X*X*X*X*X*X*X*X*X",
"*X*X*X*X*X*X*X*X*X*X*Xa.e 3 > 3 t.m.b.m.b.m.M.Y V @.>.>.' B Y I.Z.I.I.H.S.S.R.z.: % % y ~.~.'.~.~.~.].~.~.].~.~./.~.~././.].'./.*X*X*X*X*X*X*X*X*X*X*X",
"*X*X*X*X*X*X*X*X*X*X*X*Xe 3 3 5 p.m.m.m.m.m.d.I B >.>.>.C I h.N.N.N.B.A.Y.Y.A.9 % % > n.W.Y.Q.Q.~.!./.Q.Q._.Q._.).Q.~._.Q.!.).W.*X*X*X*X*X*X*X*X*X*X*X",
"*X*X*X*X*X*X*X*X*X*X*X*X*X5 5 e a.a.g.g.m.m.T J _ >.>.@.V f.M.M.N.N.N.N.N.B.x., $ * 8 Y.Y.U.Y.Y.Y.W.!.Y.Q.Q.Q.W.Q.Q.Q.Q.Q./.*X*X*X*X*X*X*X*X*X*X*X*X*X",
"*X*X*X*X*X*X*X*X*X*X*X*X*X*Xt.p.a.a.a.g.m.g.U G #.>.>.C I g.m.m.m.m.m.N.m.N.7 = % , i.Y.U.U.I.H.Y.Y.Y.Y.W.W.Y./.Q.Q.Q.Q.W.*X*X*X*X*X*X*X*X*X*X*X*X*X*X",
"*X*X*X*X*X*X*X*X*X*X*X*X*X*X*Xa.a.a.a.a.g.u.I _ >.$.@.B f.b.m.b.m.m.m.m.N.s., = = q N.N.N.Z.I.Y.Y.A.A.Y.Y.Y.Y.Y.Y.W.W.Y.*X*X*X*X*X*X*X*X*X*X*X*X*X*X*X",
"*X*X*X*X*X*X*X*X*X*X*X*X*X*X*X*X*Xa.p.p.p.E N @.$.$./ H f.m.g.m.g.m.m.g.g.q - - , u N.N.N.N.N.N.A.I.A.A.Y.Y.Y.I.Y.Y.I.*X*X*X*X*X*X*X*X*X*X*X*X*X*X*X*X",
"*X*X*X*X*X*X*X*X*X*X*X*X*X*X*X*X*X*Xm.a.a.P a L @.` a Y g.m.g.m.m.g.g.m.a.1 - + 5 p.b.s.m.m.m.m.m.N.B.A.A.A.A.I.I.*X*X*X*X*X*X*X*X*X*X*X*X*X*X*X*X*X*X",
"*X*X*X*X*X*X*X*X*X*X*X*X*X*X*X*X*X*X*X*Xg.P N G J B N f.g.g.b.m.g.m.g.g.t - * ; e s.a.s.p.a.g.m.m.m.M.N.B.Y.A.g.*X*X*X*X*X*X*X*X*X*X*X*X*X*X*X*X*X*X*X",
"*X*X*X*X*X*X*X*X*X*X*X*X*X*X*X*X*X*X*X*X*XY A D N N P a.a.a.g.a.g.g.g.t.1 = * 5 y.a.a.a.a.a.a.s.g.g.m.m.g.*X*X*X*X*X*X*X*X*X*X*X*X*X*X*X*X*X*X*X*X*X*X",
"*X*X*X*X*X*X*X*X*X*X*X*X*X*X*X*X*X*X*X*X*X*X*X*XH S u.a.a.a.a.a.a.a.p.t - - ; e a.a.a.a.a.a.a.a.g.g.g.*X*X*X*X*X*X*X*X*X*X*X*X*X*X*X*X*X*X*X*X*X*X*X*X",
"*X*X*X*X*X*X*X*X*X*X*X*X*X*X*X*X*X*X*X*X*X*X*X*X*X*X*Xm.g.a.a.a.a.a.y.2 - - 5 y.a.a.a.a.a.a.g.g.*X*X*X*X*X*X*X*X*X*X*X*X*X*X*X*X*X*X*X*X*X*X*X*X*X*X*X",
"*X*X*X*X*X*X*X*X*X*X*X*X*X*X*X*X*X*X*X*X*X*X*X*X*X*X*X*X*X*X*Xg.s.g.t.; * 1 e a.g.g.g.b.*X*X*X*X*X*X*X*X*X*X*X*X*X*X*X*X*X*X*X*X*X*X*X*X*X*X*X*X*X*X*X"
};
