/* XPM */
static char *_0[] = {
/* columns rows colors chars-per-pixel */
"75 75 190 2 ",
"   c #353535",
".  c #39363A",
"X  c #3B3B3B",
"o  c #3F3B40",
"O  c #423E43",
"+  c #434344",
"@  c #474448",
"#  c #4B464C",
"$  c #4C4B4C",
"%  c #4F4950",
"&  c #534C55",
"*  c #564D59",
"=  c #535353",
"-  c #5A525C",
";  c #5C5B5C",
":  c #575758",
">  c #5F5A60",
",  c #5F5761",
"<  c #605562",
"1  c #625A63",
"2  c #665C69",
"3  c #695E6C",
"4  c #646364",
"5  c #6B646D",
"6  c #6B6B6C",
"7  c #6E6470",
"8  c #6F6B70",
"9  c #706673",
"0  c #736A76",
"q  c #766B79",
"w  c #7A6E7E",
"e  c #746778",
"r  c #747474",
"t  c #7B767C",
"y  c #7B7B7B",
"u  c #AF333B",
"i  c #E90E0E",
"p  c #EA1C1C",
"a  c #E71C1C",
"s  c #D31F21",
"d  c #DA2627",
"f  c #DE3333",
"g  c #DB3B3B",
"h  c #CD2D31",
"j  c #E32323",
"k  c #E12A2A",
"l  c #EB2C2C",
"z  c #EA2323",
"x  c #F02A2A",
"c  c #EB3737",
"v  c #F03232",
"b  c #F23C3C",
"n  c #AB3B45",
"m  c #B63E47",
"M  c #C33D44",
"N  c #9A4F5B",
"B  c #9C4954",
"V  c #98525F",
"C  c #AB434D",
"Z  c #B2454D",
"A  c #B8474E",
"S  c #A64953",
"D  c #B54C52",
"F  c #BB4D57",
"G  c #AA535B",
"H  c #A0535E",
"J  c #B8565D",
"K  c #935A68",
"L  c #B15F66",
"P  c #A65661",
"I  c #8F6675",
"U  c #896E7F",
"Y  c #976E7B",
"T  c #986D79",
"R  c #9B717C",
"E  c #97707C",
"W  c #A7626B",
"Q  c #BA6468",
"!  c #BD797A",
"~  c #C3444B",
"^  c #D84A4A",
"/  c #CC4F55",
"(  c #C34850",
")  c #CD5D5D",
"_  c #C75359",
"`  c #D65959",
"'  c #EC4E4E",
"]  c #E74545",
"[  c #F14B4B",
"{  c #F34343",
"}  c #E25959",
"|  c #EB5A5A",
" . c #F45656",
".. c #F45D5D",
"X. c #C65760",
"o. c #C65C63",
"O. c #C95D65",
"+. c #C35D6A",
"@. c #D35B60",
"#. c #CA626D",
"$. c #CC6464",
"%. c #D86263",
"&. c #D56969",
"*. c #DC696D",
"=. c #D36363",
"-. c #CE6C77",
";. c #D56C74",
":. c #C47575",
">. c #C37C7C",
",. c #CA7272",
"<. c #DC7070",
"1. c #E16264",
"2. c #E36B6D",
"3. c #F46262",
"4. c #F46868",
"5. c #F86C6C",
"6. c #F86363",
"7. c #E86F70",
"8. c #EC7A7C",
"9. c #E87274",
"0. c #F37374",
"q. c #F97C7C",
"w. c #F57575",
"e. c #7E7281",
"r. c #7F7D80",
"t. c #837585",
"y. c #837C85",
"u. c #867789",
"i. c #87788B",
"p. c #8A7C8D",
"a. c #897081",
"s. c #947684",
"d. c #947D8A",
"f. c #8D7F90",
"g. c #A27C85",
"h. c #D77B85",
"j. c #F37F80",
"k. c #838383",
"l. c #8B818D",
"z. c #8C8C8C",
"x. c #94828F",
"c. c #8E8291",
"v. c #8F8F90",
"b. c #918593",
"n. c #938A96",
"m. c #968D99",
"M. c #988E9A",
"N. c #939293",
"B. c #9B939D",
"V. c #9C9C9C",
"C. c #979598",
"Z. c #A0828B",
"A. c #BC8383",
"S. c #B78C8C",
"D. c #BC8B8B",
"F. c #A38C93",
"G. c #AD9599",
"H. c #A6949B",
"J. c #BB9494",
"K. c #B49B9C",
"L. c #B99D9D",
"P. c #9E97A0",
"I. c #9F99A1",
"U. c #A29DA3",
"Y. c #A5A5A6",
"T. c #ADA4A4",
"R. c #A6A4A8",
"E. c #A9A6A9",
"W. c #AAAAAA",
"Q. c #B3A4A4",
"!. c #B1ACAC",
"~. c #AEAFB0",
"^. c #B0AFB0",
"/. c #ADB4B4",
"(. c #A7B0B0",
"). c #B1B1B1",
"_. c #C18080",
"`. c #DD828B",
"'. c #EC8285",
"]. c #E4878D",
"[. c #F68283",
"{. c #F98687",
"}. c #F58788",
"|. c #F58A8B",
" X c #EA8C90",
".X c #E48A90",
"XX c #F78F90",
"oX c #EF9093",
"OX c #F59394",
"+X c None",
/* pixels */
"+X+X+X+X+X+X+X+X+X+X+X+X+X+X+X+X+X+X+X+X+X+X+X+X+X+X+X+X+X+X+X+X+X+X+X+X+X+X+X+X+X+X+X+X+X+X+X+X+X+X+X+X+X+X+X+X+X+X+X+X+X+X+X+X+X+X+X+X+X+X+X+X+X+X+X",
"+X+X+X+X+X+X+X+X+X+X+X+X+X+X+X+X+X+X+X+X+X+X+X+X+X+X+X+X+X+XW.W.W.W.W.Y.W.Y.Y.W.Y.W.(.W.Y.W.+X+X+X+X+X+X+X+X+X+X+X+X+X+X+X+X+X+X+X+X+X+X+X+X+X+X+X+X+X",
"+X+X+X+X+X+X+X+X+X+X+X+X+X+X+X+X+X+X+X+X+X+X+X+X+X+X(.W.Y.W.W.Y.W.W.W.W.Y.W.W.W.W.Y.W.Y.W.Y.Y.Y.Y.+X+X+X+X+X+X+X+X+X+X+X+X+X+X+X+X+X+X+X+X+X+X+X+X+X+X",
"+X+X+X+X+X+X+X+X+X+X+X+X+X+X+X+X+X+X+X+X+X+X+X(.W.W.W.W.W.Y.W.W.W.W.Y.W.W.W.W.W.W.W.Y.W.W.Y.W.Y.Y.Y.Y.W.+X+X+X+X+X+X+X+X+X+X+X+X+X+X+X+X+X+X+X+X+X+X+X",
"+X+X+X+X+X+X+X+X+X+X+X+X+X+X+X+X+X+X+X+X+XY.W.Y.W.W.W.Y.W.W.W.W.Y.W.W.Y.W.W.Y.W.Y.W.W.Y.W.Y.Y.W.W.Y.Y.Y.Y.Y.+X+X+X+X+X+X+X+X+X+X+X+X+X+X+X+X+X+X+X+X+X",
"+X+X+X+X+X+X+X+X+X+X+X+X+X+X+X+X+X+X+X+X(.W.Y.W.W.W.W.W.W.W.Y.W.W.W.W.W.W.W.W.W.W.W.W.W.W.W.W.W.W.W.W.Y.Y.Y.Y.Y.+X+X+X+X+X+X+X+X+X+X+X+X+X+X+X+X+X+X+X",
"+X+X+X+X+X+X+X+X+X+X+X+X+X+X+X+X+X+XW.W.(.W.W.W.W.W.W.Y.Y.W.Y.W.W.W.W.W.W.W.W.W.Y.W.W.Y.W.Y.W.Y.Y.Y.W.Y.Y.Y.Y.Y.W.Y.+X+X+X+X+X+X+X+X+X+X+X+X+X+X+X+X+X",
"+X+X+X+X+X+X+X+X+X+X+X+X+X+X+X+XY.Y.Y.W.W.W.W.Y.W.Y.W.W.W.W.W.W.Y.W.W.W.Y.W.W.Y.W.W.W.W.W.W.W.W.W.W.W.Y.Y.Y.W.Y.Y.Y.W.+X+X+X+X+X+X+X+X+X+X+X+X+X+X+X+X",
"+X+X+X+X+X+X+X+X+X+X+X+X+X+X+XY.Y.Y.Y.W.Y.W.W.W.W.W.W.W.W.W.W.W.W.Y.W.W.W.W.W.W.W.Y.W.W.Y.W.W.W.Y.W.Y.W.W.Y.Y.W.Y.Y.Y.Y.+X+X+X+X+X+X+X+X+X+X+X+X+X+X+X",
"+X+X+X+X+X+X+X+X+X+X+X+X+XU.Y.I.Y.Y.Y.W.Y.W.W.Y.W.Y.W.W.W.Y.W.W.W.W.W.W.W.Y.W.Y.W.W.W.W.W.W.W.Y.W.W.W.W.W.W.Y.Y.Y.Y.Y.Y.Y.Y.+X+X+X+X+X+X+X+X+X+X+X+X+X",
"+X+X+X+X+X+X+X+X+X+X+X+XV.U.V.V.Y.Y.Y.W.Y.W.Y.W.Y.W.W.W.W.W.W.Y.W.W.Y.W.W.W.W.W.W.Y.Y.W.W.W.W.Y.W.W.(.W.W.Y.W.Y.W.Y.Y.Y.Y.Y.W.+X+X+X+X+X+X+X+X+X+X+X+X",
"+X+X+X+X+X+X+X+X+X+X+XY.U.V.Y.V.N.V.Y.Y.W.Y.Y.W.Y.W.Y.W.W.Y.W.W.W.Y.W.W.W.Y.W.W.W.W.W.W.Y.W.W.W.Y.W.Y.W.W.W.W.Y.Y.Y.W.Y.Y.W.Y.Y.+X+X+X+X+X+X+X+X+X+X+X",
"+X+X+X+X+X+X+X+X+X+Xr r y r r r r y k.N.V.Y.Y.Y.W.W.Y.W.W.Y.W.W.W.Y.W.W.W.W.W.Y.W.Y.Y.W.W.W.W.W.W.Y.W.W.W.W.Y.W.W.Y.W.Y.Y.Y.Y.Y.Y.+X+X+X+X+X+X+X+X+X+X",
"+X+X+X+X+X+X+X+X+X: ; : = = $ $ $ $ ; 4 r z.N.Y.Y.Y.W.Y.W.Y.Y.W.W.W.Y.W.W.Y.W.W.W.W.W.W.W.W.Y.W.W.W.W.W.W.W.W.W.Y.W.Y.Y.Y.Y.Y.Y.Y.Y.+X+X+X+X+X+X+X+X+X",
"+X+X+X+X+X+X+X+X+X4 ; ; : $ $ + X X X + $ : 4 k.N.V.Y.Y.W.W.W.Y.Y.W.W.W.W.W.W.Y.W.W.W.W.Y.W.Y.W.W.W.Y.W.Y.W.W.Y.W.Y.Y.W.Y.Y.Y.W.Y.Y.W.+X+X+X+X+X+X+X+X",
"+X+X+X+X+X+X+X+Xz.y r r r r 6 : $ + X X   X + = 4 r z.V.Y.Y.Y.W.Y.W.Y.W.W.Y.W.W.Y.(.Y.W.W.W.W.W.W.Y.W.W.W.W.W.W.W.W.Y.W.Y.Y.Y.Y.Y.Y.Y.+X+X+X+X+X+X+X+X",
"+X+X+X+X+X+X+XU.R.U.V.Y.V.V.V.z.k.y 4 : @ X X X + $ 4 y N.V.Y.Y.W.Y.Y.W.W.Y.Y.W.Y.W.W.Y.Y.W.Y.W.W.W.W.Y.W.Y.W.W.W.Y.Y.W.Y.Y.Y.Y.Y.Y.Y.Y.+X+X+X+X+X+X+X",
"+X+X+X+X+X+X+XY.R.R.E.E.W.W.Y.Y.Y.U.V.v.k.6 : $ $ + $ $ 4 y N.V.Y.Y.W.W.Y.T.(.T.W.W.W.W.W.W.W.W.Y.W.W.W.W.W.W.W.W.W.Y.W.Y.Y.Y.(.Y.Y.Y.Y.W.+X+X+X+X+X+X",
"+X+X+X+X+X+XY.Y.R.R.W.E.W.W.E.E.Y.Y.W.Y.Y.V.v.k.6 = $ + + $ 4 y V.Y.Y.Y.Y.W.Y.(.W.Y.W.W.W.W.W.W.W.W.W.W.W.W.W.W.Y.W.W.Y.Y.Y.Y.Y.Y.Y.Y.Y.Y.Y.+X+X+X+X+X",
"+X+X+X+X+XB.R.Y.R.E.W.W.W.W.W.W.W.W.W.W.Y.W.W.W.W.k.6 $ X X + $ 6 Y.W.Y.Y.W.W.Y.W.W.Y.W.Y.W.W.T.Y.W.W.Y.Y.W.W.Y.W.W.Y.W.W.W.Y.Y.Y.Y.Y.Y.Y.Y.+X+X+X+X+X",
"+X+X+X+X+XU.Y.R.U.W.W.W.W.W.W.W.W.W.W.W.W.Y.W.Y.Y.Y.N.k.4 $ + + $ 6 N.Y.Y.Y.Y.Y.Y.Y.W.W.W.W.Y.W.W.W.W.W.W.Y.W.W.W.Y.W.W.W.W.Y.Y.Y.Y.Y.Y.Y.Y.Y.+X+X+X+X",
"+X+X+X+XB.U.Y.E.E.E.E.~.~.W.W.W.W.W.W.W.W.W.Y.W.W.W.W.W.V.6 $ + + $ r V.Y.W.Y.(.Y.W.W.Y.Y.W.W.W.Y.W.W.Y.W.W.W.W.W.W.W.Y.W.W.W.W.W.Y.Y.Y.Y.Y.Y.+X+X+X+X",
"+X+X+X+XB.U.U.E.E.~.E.~.!.W.W.W.W.W.W.W.W.W.W.W.Y.W.W.W.(.Y.y ; + $ = r N.Y.W.W.(.Y.W.Y.W.W.W.W.W.W.Y.W.W.W.W.W.W.Y.W.W.W.W.W.(.W.Y.Y.Y.Y.W.Y.Y.+X+X+X",
"+X+X+Xf.B.U.U.E.E.E.W.W.W.~.W.W.W.W.W.(.W.W.W.W.W.W.W.W.W.W.Y.N.6 $ $ ; k.V.Y.Y.W.W.W.W.W.Y.W.W.W.W.W.W.Y.W.W.Y.W.W.W.Y.W.Y.W.W.Y.W.W.W.Y.Y.Y.Y.+X+X+X",
"+X+X+Xp.M.U.U.R.E.W.!.W.~.W.W.W.W.W.!.!.(.!.W.W.W.W.W.W.W.W.W.Y.y = + = y Y.Y.W.W.W.W.W.W.W.W.T.W.W.W.W.W.W.W.W.W.Y.Y.W.W.Y.W.W.W.W.Y.Y.W.Y.Y.Y.W.+X+X",
"+X+X+Xc.n.B.U.U.R.E.W.W.E.W.~.E.W.W.!.W.W.!.W.!.W.W.W.W.W.W.W.N.6 $ $ ; k.Y.W.W.W.W.W.W.W.W.W.W.W.W.Y.W.Y.W.Y.W.W.W.W.W.W.W.Y.W.Y.W.W.W.Y.Y.Y.Y.Y.+X+X",
"+X+Xp.c.n.C.P.U.U.!.~.W.~.!.W.~.W.!.W.(.W.W.W.).W.!.(.!.W.W.v.4 + + $ 6 Y.W.(.W.W.W.W.W.W.W.W.W.Y.W.W.W.W.W.Y.W.W.W.W.W.W.W.W.W.W.W.W.Y.W.Y.Y.Y.Y.+X+X",
"+X+Xp.l.n.M.B.U.R.E.!.W.W.E.~.!.!.W.W.W.).W.W.W./.!./.W.Y.z.4 $ + $ 4 z.Y.W.W.W.W.W.W.W.W.W.W.W.W.W.Y.W.W.W.W.W.W.Y.W.Y.W.W.Y.W.Y.W.W.W.W.Y.W.Y.W.+X+X",
"+X+Xu.l.c.n.B.U.U.W.E.~.W.~.E.~.!.W.W.).).).W.).).!./.).v.4 X + + ; z.T.W.W.W.W.W.W.W.(.W.W.W.W.W.Y.W.W.Y.W.W.W.W.W.Y.W.Y.W.W.Y.W.W.W.W.W.W.W.Y.Y.Y.+X",
"+Xc.p.p.c.n.B.P.U.W.!.E.E.~.!.~.)./.).W.).).).)./.).W.z.4 + + + ; N.W.W.W.W.W.W.W.W.(.T.A.S.(.W.W.W.W.W.W.W.W.Y.W.W.W.W.W.W.W.W.W.Y.Y.W.W.W.Y.Y.Y.Y.+X",
"+Xp.u.i.p.b.C.U.U.E.!.~.^.!.~.~.!.).).).).).).).).!.z.; X + + 4 V.W.(.W.W.W.W.W.(.Y.K.) ^ ] _.T.W.W.Y.W.W.W.W.Y.Y.W.W.W.W.W.W.W.W.W.W.W.Y.W.Y.W.Y.W.+X",
"+Xi.u.u.p.c.n.B.U.U.R.W.!.~.W.~.).).).).).).).).!.z.: X X + 4 V.W.).W.W.W.W.W.W.W.K.) ]  .3.` S.W.W.W.W.Y.W.W.W.W.W.W.Y.W.W.Y.W.W.Y.W.W.Y.W.W.W.Y.W.+X",
"+Xu.u.u.p.f.n.M.U.U.U.E.E.~.!.!.!./.).).).).).!.k.=     . 4 W.).).).W.W.!.W.W.W.T.A.} [ ..4.<.D.T.W.W.T.W.W.Y.W.W.Y.W.Y.W.Y.W.W.W.W.W.W.W.W.W.Y.Y.Y.Y.",
"+Xu.u.u.i.f.b.M.U.U.U.~.~.W.~.~.!.!.).).).).).y $       ; W.).).).).W.(.W.W.W.W.!.S.=.[ [ | &.K.W.W.W.W.W.W.W.W.W.W.W.W.W.W.W.W.W.Y.Y.W.Y.W.W.Y.Y.W.Y.",
"+Xu.u.u.u.p.b.n.U.U.R.E.E.~.~.~.(.).!.)./.).y =     X ; Y.!.).!.).!.!.W.).W.W.W.(.T.A.&.=.,.K.W.W.W.W.W.W.Y.W.W.W.W.W.W.W.Y.Y.W.W.W.W.W.W.Y.W.W.Y.W.Y.",
"p.u.u.u.i.p.f.n.M.U.U.U.E.E.W.~.).!.!.!.Y.k.=   X X 4 C.W.)./.).).(.).).W.W.W.W.Y.T.T.K.K.T.W.W.W.W.W.W.W.W.W.Y.W.Y.W.Y.W.W.W.W.W.W.Y.W.W.W.W.W.W.(.Y.",
"p.u.u.u.i.p.f.b.m.P.U.U.E.!.!.W.W.).).W.r $     X 4 ).).).).).).).).).(.).W.W.W.W.(.T.(.W.!.W.W.W.W.W.W.W.W.W.W.W.W.Y.W.W.W.W.W.Y.W.W.Y.W.W.W.W.W.W.Y.",
"b.u.u.u.i.f.f.f.m.B.U.U.U.W.!.!.)./.W.r $       4 /./.).).).).).)./.L.J.L./.).W.W.T.W.W.W.W.(.W.W.W.W.W.W.W.W.W.Y.W.W.W.Y.W.Y.W.W.W.W.W.W.Y.W.W.W.Y.W.",
"p.u.u.u.i.f.f.f.n.M.U.U.U.W.W.W.).V.8 $ X   + 6 W.).).).).).).!.T.A.) ^ ^ :.Q.).W.(.W.W.W.W.W.W.(.W.W.W.W.W.W.W.W.W.W.W.W.W.W.W.W.W.W.Y.Y.W.W.Y.W.W.Y.",
"p.u.u.u.f.f.f.f.f.M.M.U.U.R.W.^.W.4 + X   X 6 ).).).).).).).).K.>.g k z k f _./.W.W.W.W.W.!.W.W.!.W.W.W.W.W.W.W.Y.W.Y.Y.W.W.Y.W.Y.W.W.W.W.W.W.W.W.Y.Y.",
"l.u.i.u.p.f.f.c.b.n.M.P.U.U.Y.C.6 $ + o $ 6 U.).).).).).).).J.$.g j l l l z $.Q.).W.W.W.W.W.W.W.W.W.W.W.W.W.W.W.W.W.Y.W.W.W.W.W.W.W.W.W.W.Y.W.Y.Y.W.Y.",
"+Xu.u.u.i.p.p.f.b.n.m.C.U.U.m.6 $ + + : r U./.!.).).).).!.D.$.f z l b { c ^ >.K.!.W.W.W.W.W.W.W.W.W.W.W.W.Y.W.W.Y.W.W.Y.W.Y.W.W.W.Y.Y.W.W.W.W.W.W.W.W.",
"+Xu.u.u.i.c.c.f.b.n.n.M.U.U.2 + X X = r /./.!.).).).).)._.) k i v  ... .' $.K.!.).!.W.W.W.W.W.W.(.W.W.Y.z.z.N.V.Y.Y.W.W.Y.W.Y.W.W.W.W.W.W.W.W.W.W.W.W.",
"+Xp.u.u.i.p.p.c.b.n.n.m.p.4 @ X + = r Y.!.!.).).).!.!.J.=.f z v  .3.3.| &.J.!.!.).(.W.W.W.W.W.W.W.W.V.k.6 ; 4 y N.Y.Y.W.Y.Y.W.W.W.W.Y.W.W.Y.W.Y.W.Y.W.",
"+Xp.i.u.u.p.c.f.c.n.m.n.- O X X $ t ~.^.!./.).!.).).!.:.j p v 6.5.5.3.} L./.).!.W.).!.W.!.W.W.W.Y.V.r = = + $ ; r z.Y.W.W.W.W.Y.W.W.W.W.W.W.Y.W.W.W.+X",
"+Xp.u.u.u.p.p.c.f.n.n.* X . . $ 0 R.W.W.W.!.).).!.!.:.k p { 5.0.5.3.} L./.).).).(.!.(.W.W.W.!.Y.N.6 = $ = = = $ = r N.Y.Y.Y.Y.(.W.Y.Y.W.W.W.W.W.W.Y.+X",
"+Xb.u.u.u.p.f.c.b.f.- X . . # 8 U.R.E.E.W.!.W.)./.:.a z [ q.q.q.4.} L./.).).).(.).W.).).).(.V.k.4 $ $ $ 4 r ; $ $ = k.Y.Y.Y.W.Y.W.W.Y.W.Y.W.W.W.W.Y.+X",
"+X+Xu.u.u.i.f.l.t.< O . O # 5 n.U.U.R.E.W.W.W.W.:.g c  .w.[.[.0.<.J.).).).).).).).!.W.W.V.N.y ; $ $ = 6 z.V.k.; + + = z.W.Y.W.W.W.W.W.W.W.W.Y.W.W.W.+X",
"+X+Xi.u.u.u.p.t.2 # X O % 7 b.C.P.U.U.R.R.W./.! d c ..{.{.{.8.1.L.(.).).(.).).!.!.(.).W.z.6 = + $ = 6 N.T.W.V.y = X + ; N.Y.Y.W.W.W.W.W.W.W.Y.W.Y.+X+X",
"+X+Xp.u.u.u.t.3 & O O % 5 m.M.M.B.P.U.U.R.R.! j ' 0.XX{.{.8.2.L./.).).).).).).).).!.W.z.; $ + $ = r N.Y.W.W.W.N.6 $   $ r V.W.Y.Y.W.W.Y.W.Y.W.W.W.+X+X",
"+X+X+Xu.i.u.3 * # O & 3 n.M.M.M.B.B.U.U.U.Q d | j.OXXX{.9.%.L.~.).).).).).!.).).).(.z.= + X + ; y V.W.(.).W.W.W.z.; X + ; z.Y.Y.W.W.W.W.W.Y.W.W.W.+X+X",
"+X+X+Xp.u.9 - % # * 9 f.n.n.M.M.M.P.B.F.J d 1.j.OXOX|.9.@.K./.^.).W.W.).).).).).!.z.$ X   + = k.T.(.!.W.W.W.W.W.W.k.$ + $ r V.W.Y.W.W.W.W.W.W.Y.Y.+X+X",
"+X+X+Xu.e 1 - * - 9 i.b.b.b.m.m.B.P.g.A s @.j. X X|.7.` G./.~.~.(.).(.!.!.).).W.z.$     X ; k.W.(.W.).(.W.W.!.(.(.V.6 + $ 4 z.W.W.W.W.Y.W.Y.W.W.+X+X+X",
"+X+X+X+X7 1 < < e i.b.b.b.b.b.m.n.g.D h 2.]..X.Xj.2.O.K./.^.!.~.!.!.!.!.(.).W.k.$     X 4 z.).).).!.!.).!.).W.W.(.W.z.= + ; k.Y.Y.W.W.W.W.W.W.Y.+X+X+X",
"+X+X+X+X7 3 3 e u.l.f.b.b.b.b.d.R J M ;.`..X.X9.@.o.G./.W.^.~.~.!.!.(.!.!.Y.k.+     + r V.).).!.!.(.W.W.).W.).).W.W.N.4 + = r V.W.W.W.W.W.Y.Y.+X+X+X+X",
"+X+X+X+X+Xq e.u.p.p.b.b.b.b.b.s.F M ;.`.h.`.*.O.Q H.E.E.W.~.W.^.(.!.(.).W.k.$ X   + y V.).!.(.).).).!.).W.).W.W.W.W.Y.y $ $ 6 N.Y.Y.W.W.W.W.W.+X+X+X+X",
"+X+X+X+X+Xp.i.i.u.i.c.c.b.b.s.G M #.h.h.h.@./ Q H.E.U.E.E.W.~.W.!.).W.Y.k.X     + y V.).).).(.!.).!.!.).(.).W.(.!.W.W.z.; $ 4 z.Y.W.W.W.W.Y.+X+X+X+X+X",
"+X+X+X+X+X+Xi.i.u.i.f.c.b.E G M O.-.-.-./ ~ L F.I.U.U.U.R.E.W.W.W.).Y.k.+     + k.Y.).).).).).).!.).(.!.!.!.!.!.(.W.W.N.; + ; z.Y.Y.Y.W.Y.W.+X+X+X+X+X",
"+X+X+X+X+X+X+Xi.u.u.u.d.T P A _ #.#.O.( A L Z.B.P.P.U.U.U.R.W.E.T.N.r $ X   = k.Y.W.!.!.W.!.).).(.).(.(.!.!.!.(.W.W.W.V.4 + ; k.Y.Y.W.W.W.+X+X+X+X+X+X",
"+X+X+X+X+X+X+Xf.p.u.a.I P F X.#.#.+.( Z W d.M.B.P.P.U.U.U.U.Y.H.z.6 $   X = z.W.W.!.(.!.!.(.W.!.!.).!.).!.(.!.(.).W.W.V.6 $ = k.Y.Y.Y.Y.+X+X+X+X+X+X+X",
"+X+X+X+X+X+X+X+Xp.i.a.N m +.#.#.#.( Z R f.b.b.m.M.M.P.P.U.U.U.l.4 + X X $ N.).W.W.!.W.W.).W.W.W.!.).(.W.(.W.!.!.!.!.(.V.6 $ = k.V.Y.Y.+X+X+X+X+X+X+X+X",
"+X+X+X+X+X+X+X+X+Xi.K u F +.O.O.M Z s.b.n.n.b.n.n.M.M.M.M.U.i.> @ X X $ N.).W.W.W.T.W.(.!.).W.W.W.W.W.W.W.W.!.).(.(.W.V.r = ; k.Y.Y.W.+X+X+X+X+X+X+X+X",
"+X+X+X+X+X+X+X+X+Xd.V m F X.X.M Z s.b.b.b.b.b.b.b.n.n.M.H.t - @ + + = N.T.Y.W.Y.W.Y.Y.W.W.W.W.!.!.W.W.W.W.W.W.W.!.W.W.V.y ; 4 k.V.Y.+X+X+X+X+X+X+X+X+X",
"+X+X+X+X+X+X+X+X+X+XK n m m n S Y f.b.b.b.b.b.b.b.b.b.c.r - # O @ > k.V.V.Y.V.Y.V.Y.Y.T.W.W.W.W.W.W.T.W.W.W.W.W.T.T.T.V.k.4 4 y V.+X+X+X+X+X+X+X+X+X+X",
"+X+X+X+X+X+X+X+X+X+X+XC C n B I u.b.b.c.b.c.b.c.b.b.p.q - # O # < u.M.C.P.U.U.U.U.U.U.U.U.U.U.E.E.E.E.R.E.E.E.E.E.E.E.H.k.4 4 t +X+X+X+X+X+X+X+X+X+X+X",
"+X+X+X+X+X+X+X+X+X+X+X+XS V a.i.p.p.f.b.b.b.b.b.b.n.q = $ @ # < f.M.n.m.m.M.P.U.B.U.U.U.U.U.U.U.U.R.R.R.R.R.R.R.R.R.Y.V.r.4 > +X+X+X+X+X+X+X+X+X+X+X+X",
"+X+X+X+X+X+X+X+X+X+X+X+X+Xd.p.i.i.i.i.f.b.b.b.b.c.e - & % = 3 p.n.n.n.n.n.n.M.M.B.P.B.P.U.P.U.B.U.U.U.U.U.U.T.Y.R.Y.Y.U.y 1 +X+X+X+X+X+X+X+X+X+X+X+X+X",
"+X+X+X+X+X+X+X+X+X+X+X+X+X+X+Xf.i.i.i.i.p.c.b.p.e - & # - 5 p.n.b.b.b.b.n.n.n.b.m.M.M.M.M.M.M.U.P.B.M.P.U.U.P.U.U.U.U.C.+X+X+X+X+X+X+X+X+X+X+X+X+X+X+X",
"+X+X+X+X+X+X+X+X+X+X+X+X+X+X+X+Xf.i.i.i.i.u.e.5 - & & - e u.b.l.b.b.f.b.b.b.b.f.f.b.b.m.m.n.m.M.M.B.B.B.B.P.U.B.U.B.M.+X+X+X+X+X+X+X+X+X+X+X+X+X+X+X+X",
"+X+X+X+X+X+X+X+X+X+X+X+X+X+X+X+X+X+Xp.p.u.e.3 * & & 1 e u.b.b.b.b.f.b.f.b.f.f.f.f.f.f.f.f.b.b.b.n.n.M.M.C.B.B.B.P.C.+X+X+X+X+X+X+X+X+X+X+X+X+X+X+X+X+X",
"+X+X+X+X+X+X+X+X+X+X+X+X+X+X+X+X+X+X+X+Xt.3 * * & < e u.b.f.l.b.f.b.f.f.f.f.f.f.f.f.i.i.p.p.f.f.n.b.n.n.M.C.M.l.+X+X+X+X+X+X+X+X+X+X+X+X+X+X+X+X+X+X+X",
"+X+X+X+X+X+X+X+X+X+X+X+X+X+X+X+X+X+X+X+X+X* * * 2 w u.i.u.p.p.p.f.f.f.f.f.f.p.p.i.i.i.i.i.i.i.p.p.b.b.b.f.p.+X+X+X+X+X+X+X+X+X+X+X+X+X+X+X+X+X+X+X+X+X",
"+X+X+X+X+X+X+X+X+X+X+X+X+X+X+X+X+X+X+X+X+X+X+X3 t.u.i.i.i.u.i.i.i.i.i.i.i.p.i.i.i.i.i.p.u.p.i.i.u.i.i.p.+X+X+X+X+X+X+X+X+X+X+X+X+X+X+X+X+X+X+X+X+X+X+X",
"+X+X+X+X+X+X+X+X+X+X+X+X+X+X+X+X+X+X+X+X+X+X+X+X+X+Xc.p.p.i.p.u.i.u.i.i.i.i.i.i.i.u.u.u.u.u.p.p.p.+X+X+X+X+X+X+X+X+X+X+X+X+X+X+X+X+X+X+X+X+X+X+X+X+X+X",
"+X+X+X+X+X+X+X+X+X+X+X+X+X+X+X+X+X+X+X+X+X+X+X+X+X+X+X+X+X+Xf.p.p.p.i.i.i.i.p.i.i.p.p.p.f.f.+X+X+X+X+X+X+X+X+X+X+X+X+X+X+X+X+X+X+X+X+X+X+X+X+X+X+X+X+X"
};
