/* XPM */
static char *_1[] = {
/* columns rows colors chars-per-pixel */
"75 75 200 2 ",
"   c #353535",
".  c #383739",
"X  c #3C3B3C",
"o  c #3F3E40",
"O  c #423E42",
"+  c #444344",
"@  c #474248",
"#  c #4C464D",
"$  c #4B4B4B",
"%  c #4F4950",
"&  c #4F4752",
"*  c #534C54",
"=  c #574D5A",
"-  c #594F5B",
";  c #545454",
":  c #575059",
">  c #5A535B",
",  c #5B5B5B",
"<  c #5F5661",
"1  c #5F5F60",
"2  c #615764",
"3  c #655C67",
"4  c #685C6B",
"5  c #636364",
"6  c #6B626D",
"7  c #6C6C6C",
"8  c #6F6371",
"9  c #716574",
"0  c #716C72",
"q  c #776E79",
"w  c #796D7C",
"e  c #737373",
"r  c #7B737E",
"t  c #7D7C7D",
"y  c #777178",
"u  c #A6353E",
"i  c #B9373E",
"p  c #EC0D0D",
"a  c #E61D1D",
"s  c #EA1D1D",
"d  c #E81616",
"f  c #CA2C2F",
"g  c #DC2C2C",
"h  c #D82425",
"j  c #DB3939",
"k  c #CA3738",
"l  c #E42323",
"z  c #EF2323",
"x  c #E32C2C",
"c  c #EC2C2C",
"v  c #EE3636",
"b  c #E83D3D",
"n  c #F23A3A",
"m  c #A53F49",
"M  c #A83841",
"N  c #B63E46",
"B  c #B43F49",
"V  c #B83941",
"C  c #C33B40",
"Z  c #99535F",
"A  c #9B4D59",
"S  c #A9424D",
"D  c #BA434C",
"F  c #B8484E",
"G  c #AC4C55",
"H  c #A74752",
"J  c #BB4B53",
"K  c #A9525B",
"L  c #B8545D",
"P  c #935C6A",
"I  c #BD5964",
"U  c #A75C65",
"Y  c #9A626E",
"T  c #926C7B",
"R  c #976572",
"E  c #9C747F",
"W  c #8C6878",
"Q  c #A6666F",
"!  c #AC676E",
"~  c #A0717A",
"^  c #B86E73",
"/  c #C5424A",
"(  c #CF4C4E",
")  c #C94349",
"_  c #D64C4C",
"`  c #D64243",
"'  c #C64C53",
"]  c #C7535D",
"[  c #CE5C5D",
"{  c #CB585A",
"}  c #D15B5E",
"|  c #DC5D5D",
" . c #D55454",
".. c #EC4C4C",
"X. c #EA4646",
"o. c #F34C4C",
"O. c #F24141",
"+. c #E24F52",
"@. c #EB5252",
"#. c #EE5B5C",
"$. c #E35757",
"%. c #F55454",
"&. c #F35D5D",
"*. c #C45A63",
"=. c #D65F62",
"-. c #CC6262",
";. c #C7626D",
":. c #C9636E",
">. c #C56B6C",
",. c #CB6A6A",
"<. c #DE686A",
"1. c #D76668",
"2. c #CB6571",
"3. c #CD6872",
"4. c #D26C76",
"5. c #C67575",
"6. c #CE7A7A",
"7. c #C67979",
"8. c #D9747D",
"9. c #E76667",
"0. c #F66464",
"q. c #F56A6A",
"w. c #F86C6C",
"e. c #E76F70",
"r. c #EB7779",
"t. c #F57273",
"y. c #F37C7D",
"u. c #F87B7B",
"i. c #7D6F80",
"p. c #7E7181",
"a. c #8A6F81",
"s. c #837585",
"d. c #827D84",
"f. c #867789",
"g. c #87788B",
"h. c #8A7C8D",
"j. c #887586",
"k. c #937A88",
"l. c #8C7F90",
"z. c #AF7A80",
"x. c #D97D86",
"c. c #DA7F88",
"v. c #D67882",
"b. c #EB7E81",
"n. c #848484",
"m. c #8B848C",
"M. c #8B8B8B",
"N. c #97828E",
"B. c #8E8291",
"V. c #918593",
"C. c #938A96",
"Z. c #968D99",
"A. c #988F9B",
"S. c #9B8994",
"D. c #949494",
"F. c #979199",
"G. c #9B949C",
"H. c #9C9B9D",
"J. c #A3838B",
"K. c #BE8484",
"L. c #B68D8E",
"P. c #BD8D8D",
"I. c #A9999D",
"U. c #B69394",
"Y. c #B39C9C",
"T. c #B99B9B",
"R. c #BD9394",
"E. c #9C97A0",
"W. c #9F99A0",
"Q. c #A19CA3",
"!. c #A5A5A6",
"~. c #ADA4A4",
"^. c #A7A3A8",
"/. c #A9A6A9",
"(. c #AAAAAA",
"). c #A7AAAE",
"_. c #B5A3A3",
"`. c #B2ACAC",
"'. c #B8A0A0",
"]. c #ADAEB1",
"[. c #B0AFB0",
"{. c #ADB3B3",
"}. c #A6B0B0",
"|. c #B1B1B1",
" X c #B9B9B9",
".X c #C18282",
"XX c #C58A8A",
"oX c #DD828A",
"OX c #E5858B",
"+X c #E9878C",
"@X c #EF8285",
"#X c #F68484",
"$X c #F88383",
"%X c #F88788",
"&X c #F68C8C",
"*X c #F78A8A",
"=X c #E98C92",
"-X c #F59395",
";X c #F89697",
":X c None",
/* pixels */
":X:X:X:X:X:X:X:X:X:X:X:X:X:X:X:X:X:X:X:X:X:X:X:X:X:X:X:X:X:X:X:X:X:X:X:X:X:X:X:X:X:X:X:X:X:X:X:X:X:X:X:X:X:X:X:X:X:X:X:X:X:X:X:X:X:X:X:X:X:X:X:X:X:X:X",
":X:X:X:X:X:X:X:X:X:X:X:X:X:X:X:X:X:X:X:X:X:X:X:X:X:X:X:X:X:X:X}.(.[.(.(.(.(.(.(.(.(.{.}.:X:X:X:X:X:X:X:X:X:X:X:X:X:X:X:X:X:X:X:X:X:X:X:X:X:X:X:X:X:X:X",
":X:X:X:X:X:X:X:X:X:X:X:X:X:X:X:X:X:X:X:X:X:X:X:X:X:X:X}.!.(.(.!.(.(.(.!.(.(.(.(.(.(.(.!.}.(.(.(.:X:X:X:X:X:X:X:X:X:X:X:X:X:X:X:X:X:X:X:X:X:X:X:X:X:X:X",
":X:X:X:X:X:X:X:X:X:X:X:X:X:X:X:X:X:X:X:X:X:X:X:X!.!.!.(.!.(.!.(.(.(.(.(.!.(.(.(.!.(.(.(.(.(.(.(.(.(.(.:X:X:X:X:X:X:X:X:X:X:X:X:X:X:X:X:X:X:X:X:X:X:X:X",
":X:X:X:X:X:X:X:X:X:X:X:X:X:X:X:X:X:X:X:X:X, t D.!.!.!.!.!.(.}.(.(.(.!.(.(.!.(.(.(.(.(.(.(.(.(.(.(.(.(.(.!.:X:X:X:X:X:X:X:X:X:X:X:X:X:X:X:X:X:X:X:X:X:X",
":X:X:X:X:X:X:X:X:X:X:X:X:X:X:X:X:X:X:X:X5 , ; , 7 t D.H.!.!.!.!.!.(.(.(.(.(.!.(.!.(.!.(.(.!.(.(.(.(.(.!.(.(.(.(.:X:X:X:X:X:X:X:X:X:X:X:X:X:X:X:X:X:X:X",
":X:X:X:X:X:X:X:X:X:X:X:X:X:X:X:X:X:X|.D.e , ; ; $ $ 5 e M.H.(.!.!.(.(.(.!.(.(.(.(.(.!.(.(.(.(.!.(.(.!.(.(.(.!.!.(.:X:X:X:X:X:X:X:X:X:X:X:X:X:X:X:X:X:X",
":X:X:X:X:X:X:X:X:X:X:X:X:X:X:X:X:X`.`.}.D.n.7 , $ + o + , t !.!.!.!.!.(.(.(.!.(.!.(.(.(.(.!.(.(.(.(.(.(.(.(.(.(.(.(.(.:X:X:X:X:X:X:X:X:X:X:X:X:X:X:X:X",
":X:X:X:X:X:X:X:X:X:X:X:X:X:X:X(.`.}.(.`.}.`.!.D.7 $ +   X ; t H.(.!.!.(.(.!.(.!.(.!.(.(.(.(.(.(.!.(.!.(.(.!.(.!.(.!.(.!.:X:X:X:X:X:X:X:X:X:X:X:X:X:X:X",
":X:X:X:X:X:X:X:X:X:X:X:X:X:X(.(.`.(.(.`.(.}.(.}.(.t ; X   X ; e H.(.!.(.(.(.(.(.(.(.!.(.!.(.(.!.(.(.(.(.(.(.(.(.(.(.!.(.(.:X:X:X:X:X:X:X:X:X:X:X:X:X:X",
":X:X:X:X:X:X:X:X:X:X:X:X:X].[.].{.}.`.`.(.}.(.`.}.!.M.5     X + 7 H.(.(.(.!.(.(.(.(.(.(.(.(.(.(.(.(.(.(.(.!.(.(.(.!.(.!.(.!.:X:X:X:X:X:X:X:X:X:X:X:X:X",
":X:X:X:X:X:X:X:X:X:X:X:X(.[.(.`.`.`.}.}.`.`.`.(.(.(.(.!.7 +   X $ e D.(.!.(.!.(.(.!.(.(.(.!.(.!.(.!.!.(.(.(.!.(.(.(.(.(.(.!.(.!.:X:X:X:X:X:X:X:X:X:X:X",
":X:X:X:X:X:X:X:X:X:X:X(.[.[.[.(.|.|.}.`.|.(.(.(.(.(.(.(.!.t +   X $ 7 H.(.(.!.}.(.(.(.(.(.!.(.(.(.(.(.(.(.(.!.(.!.(.!.(.!.!.(.!.:X:X:X:X:X:X:X:X:X:X:X",
":X:X:X:X:X:X:X:X:X:X[.{.[.(.`.|.`.{.|.`.`.|.|.(.(.(.(.(.!.(.t $ X o $ e H.(.(.!.(.!.!.(.(.(.(.!.(.!.(.!.(.(.(.(.(.(.(.(.(.(.(.!.!.!.:X:X:X:X:X:X:X:X:X",
":X:X:X:X:X:X:X:X:X`.|.(.`.[.{.(.{.`.|.{.`.`.|.(.(.(.(.(.(.(.!.M.1 X + ; t (.(.!.(.(.!.(.(.(.!.(.!.(.(.(.(.!.!.(.(.(.!.(.!.(.(.!.!.!.:X:X:X:X:X:X:X:X:X",
":X:X:X:X:X:X:X:X(.(.(.(.[.(.{.`.`.|.`.`.|.}.(.}.`.(.(.(.!.(.(.!.H.; + + ; n.!.(.!.(.(.(.!.(.(.(.(.(.(.!.(.(.(.(.(.!.(.(.(.(.(.!.(.!.(.:X:X:X:X:X:X:X:X",
":X:X:X:X:X:X:X^./.].].[.].`.(.[.[.[.|.{.`.[.(.(.(.(.(.(.(.(.(.(.}.n.; X + ; n.(.(.!.(.(.(.(.(.(.(.(.(.(.(.(.!.(.(.(.(.(.(.(.(.!.(.!.!.!.:X:X:X:X:X:X:X",
":X:X:X:X:X:X:X/././.].(.[.(.[.[.`.[.`.{.[.(.[.[.}.`.`.}.(.(.~.(.(.!.n.+ X + 5 D.(.(.!.!.!.(.!.(.(.!.(.!.(.!.(.(.(.!.(.!.!.(.(.(.!.(.!.!.}.:X:X:X:X:X:X",
":X:X:X:X:X:X/./.^.`.(.].].[.[.[.].].|.|.[.[.(.(.`.(.}.`.(.(.(.(.(.(.~.e + X $ 7 (.!.(.(.(.(.(.!.(.(.(.(.(.(.(.(.(.!.(.(.(.(.!.(.(.!.!.!.(.:X:X:X:X:X:X",
":X:X:X:X:XE././.(.^.`.].(.[.(.[.[.|.`.|.[.[.(.[.`.(.(.(.(.(.(.(.(.(.}.H.; + + $ D.!.!.(.!.(.(.(.!.(.!.(.(.!.(.!.(.(.(.(.!.!.(.(.!.(.!.!.(.!.:X:X:X:X:X",
":X:X:X:X:XQ.^././.(.(.).(.[.].`.`.|.|.|.{.[.(.[.(.(.`.(.(.(.(.(.(.~.}.}.t $ + + e (.(.(.!.(.(.!.(.(.}.(.(.!.(.(.!.(.(.!.(.!.(.(.(.(.!.(.!.!.}.:X:X:X:X",
":X:X:X:XG.Q.^././.(.`.`.[.[.(.[.[.|.|.|.[.[.(.[.(.{.`.}.(.}.(.(.(.~.(.(.H.7 + + ; D.!.!.(.(.(.(.!.(.!.(.(.(.(.!.(.(.(.(.(.(.!.(.(.!.!.!.!.(.(.:X:X:X:X",
":X:X:X:XG.Q.Q././.(.(.(.].`.].].[.[.|.|.|.|.[.[.(.`.`.`.`.{.`.(.(.(.(.(.(.D., $ ; t H.(.!.!.(.!.(.(.(.(.(.(.(.(.(.(.(.(.(.(.(.(.(.!.(.!.!.!.(.!.:X:X:X",
":X:X:XB.G.W.Q.^.(.(.].(.].(.`.[.[.[.|.|.|.|.{.[.`.{.{.(.{.`.`.}.(.(.(.(.}.D.7 $ $ 7 D.(.!.(.!.(.!.(.!.(.!.(.!.(.!.(.(.!.(.(.!.(.(.(.!.!.(.!.!.!.:X:X:X",
":X:X:XB.A.I.W.^.(.(.(.].[.[.[.[.[.[.[.|.|.|. X|.|.|.|.|.{.`.{.`.(.`.(.H.D.e , + $ 5 D.!.(.(.!.(.!.(.(.(.(.(.!.(.(.(.(.(.!.(.!.(.(.!.(.!.!.!.!.!.}.:X:X",
":X:X:XB.Z.G.W.Q././.(.(.(.[.[.[.[.[.|.|.|.|.|.|.|.|.(.|.`.{.|.|.(.D.n.7 ; $ $ $ ; e H.!.(.(.(.!.(.(.!.(.!.(.(.(.(.(.!.(.(.(.(.(.(.!.!.!.}.!.!.!.(.:X:X",
":X:Xh.B.C.F.Q.Q.Q.(.].(.].(.].[.[.[.[.|.|.|.|.|.|.|.|.|. X|.H.M.t 5 $ X + $ $ ; 7 D.!.(.(.(.(.(.(.!.(.!.(.(.(.(.(.(.(.(.(.(.!.(.(.(.!.(.!.!.(.!.(.:X:X",
":X:Xh.B.V.A.G.Q./.(.(.[.(.`.].[.[.[.[.|.|.|.|.|.|. X|.(.D.t 7 ; + X X + + $ 5 n.!.(.(.|.(.(.(.(.!.}.(.(.!.(.!.(.!.(.!.(.(.!.(.(.(.!.(.!.!.!.!.!.(.:X:X",
":X:Xh.l.B.C.G.Q.Q.`.).`.`.).].].[.[.[.|.|.|.|. X|.!.n.7 ; X   X + + + ; e n.D.(.(.(.(.(.(.(.(.(.(.!.(.(.(.(.(.(.!.(.(.!.(.(.(.(.!.(.(.!.!.!.!.!.!.(.:X",
":XB.h.l.B.V.F.Q.Q.^.`.).`.].`.[.[.[.[.[.|. X(.D.t , $           + 7 n.H.!.(.(.}.(.(.(.(.(.(.}.(.(.(.!.(.!.(.!.(.(.(.(.(.!.(.(.!.(.(.(.!.!.(.!.!.!.!.:X",
":Xh.g.h.B.V.Z.W.Q.`.).`.`.).].].[.[.|. X!.n.5 ; X           $ e !.|.|.}.(.(.(.(.(.(.(.(.(.(.(.(.(.(.(.(.(.(.(.!.(.!.(.(.(.(.(.(.!.(.(.!.!.!.!.!.!.!.:X",
":Xf.f.g.h.V.C.G.Q.Q./.`.).`.[.[.|.[.D.5 ; +           X , n.H.|.|.|.|.`.`.(.(.(.(.(.(.(.(.(.(.(.(.(.(.(.!.(.(.(.(.(.(.!.(.(.!.(.(.(.(.(.!.(.!.!.!.(.:X",
":Xg.f.g.g.V.C.A.Q.Q./.(.}.{.{.H.t , $ +           $ e !. X|.(.|.|.(.|.|.}.(.(.(.(.(.(.(.(.}.(.~.(.(.(.!.!.(.(.(.(.(.!.}.~.}.~.}.(.!.(.!.(.!.!.(.!.!.(.",
":Xf.f.g.j.h.C.Z.Q.Q.^.[.[.D.7 ; + + X X X X + ; n.(. X|.|.|.|.|.|.|.`.|.|.(.(.(.(.(.(.(.P.,._ >.Y.}.(.(.(.(.(.!.(.!.(.(.(.!.(.~.(.(.(.(.!.(.!.!.!.!.!.",
":Xg.g.g.g.l.V.C.Q.Q.Q.t , $ + + X X + ; , 7 H. X X|.|. X|.|.|.[.|.|.(.|.|.|.(.(.(.(.(.7. .X.@...5.}.(.(.!.(.!.(.(.(.(.~.}.~.!.}.!.}.!.(.(.!.!.!.!.!.!.",
"l.f.j.f.g.h.V.C.m.6 $ + + o X + $ , 7 M.(. X X|.|.|.|.|.|.|.|.[.|.|.|.`.|.(.(.(.(.}.Y.,...@.q.0.[ (.(.(.(.(.(.(.!.(.!.}.!.~.}.~.(.(.(.(.(.(.(.!.!.!.!.",
"l.f.f.g.h.h.q 2 # O O X X + $ , e H.|.|.|.|.|.|.|.|.|.|.|.|.{.|.|.{._._.(.|.(.(.(.(.(.5.@.o.&.w.5.~.(.(.(.(.(.(.(.(.(.(.}.(.!.}.!.(.(.(.(.!.!.(.(.!.!.",
"l.g.f.s.9 2 & O o . X @ : 3 T !.|.|.`.|.|.|.|.|. X|.|.|.{.`.'.P.K.-. .-.K.|.}.(.(.(.(.U.,.| | ,.U.(.(.(.(.(.~.(.(.(.(.!.~.(.(.~.(.(.(.!.(.(.(.!.!.!.(.",
"l.i.9 2 * # O O O # > 0 B.^.].].[.`.[.[.|.|.|.|.|.|. X_.P.7. .` j x l x j T.|.(.(.(.}.(._.Y.U.(.}.(.(.(.(.~.(.(.(.(.(.(.(.(.(.~.!.(.!.(.(.(.!.(.!.!.!.",
"w 6 2 = # # & % : 0 V.Q.).Q.^.`.`.}.[.(.(.|.|.|.|.`.P.-._ x a d a c c z x ,.{.(.(.(.`.(.(.`.}.(.(.(.(.(.(.(.(.(.(.!.(.(.!.(.!.}.(.(.(.(.(.!.(.!.!.!.(.",
"9 4 < - - < 4 q V.A.G.E.Q.Q./.`.(.[.(.[.[.].{.`.T.5.j l d p z O.o.o.n v l [ `.(.(.(.(.(.(.(.(.(.(.(.(.(.(.(.(.(.(.(.(.(.!.(.(.!.(.(.(.(.(.(.(.!.!.!.!.",
":X4 4 6 9 s.l.l.V.C.Z.G.Q.Q.Q.(.(.(.[.].{.{.R.{ x a s z v %.0.0.0.&.o.b  .K.`.|.(.(.(.(.(.(.|.(.(.(.(.(.(.(.!.(.(.!.(.!.(.(.(.(.!.(.(.!.(.!.(.(.(.(.!.",
":Xi.i.s.h.l.l.B.V.V.C.G.Q.Q.Q./.(.(.[.}.K.` a a c v %.w.w.w.w.w.0.#.$.-.K._.(.|.(.(.(.(.(.(.(.(.(.(.(.(.(.(.(.!.(.!.(.(.(.(.(.(.(.(.(.!.(.(.(.!.!.!.!.",
":Xh.g.g.g.l.l.V.V.C.C.S.A.Q.Q.Q.I.L.[ g l b X.%.t.$X$Xu.u.t.w.&.@.<.R.`.|.|.|.(.(.(.(.(.|.(.(.(.(.(.(.(.(.(.(.(.(.!.!.(.!.(.(.!.!.(.(.(.(.!.(.!.(.!.(.",
":Xg.g.f.g.l.l.l.B.C.Z.C.G.J.~ I k h b #.t.y.&X&X*X#X*X$Xt.#.| 6.'.{.}.|.|.(.|.(.(.(.(.(.(.(.(.(.(.(.(.(.(.(.(.!.!.(.!.(.(.(.!.(.(.(.!.(.(.(.(.!.(.!.:X",
":Xg.f.f.g.h.l.V.B.B.N.k.Q J f g  .r.@X&X;X;X-X*X#X$Xr.9.<.XX`.{.{.|.|.|.|.|.|.(.|.(.(.(.(.(.(.(.(.(.(.(.(.(.(.(.(.(.(.(.(.(.(.(.(.(.(.(.(.!.(.(.!.!.:X",
":XB.f.g.g.h.B.l.k.R U F k ( 1.OX+X+X=X;X-X&X%Xy.9.<.6.T.{.{.[.[.|.|.|.|.|.|.(.(.(.(.(.(.(.(.(.(.(.(.(.(.(.(.(.!.(.!.!.(.!.(.(.!.(.!.(.(.!.(.(.(.(.(.:X",
":X:Xg.g.g.j.T Y K N / { 4.c.c.oX=X=X+Xb.r.e.| } K.`.{.{.(.[.`.|.|.|.|.(.(.|.(.|.(.|.(.(.(.(.`.|.}.(.(.(.(.(.(.(.(.}.(.(.(.(.(.(.(.(.!.!.(.(.!.(.(.(.:X",
":X:Xh.j.W Z G B C *.2.4.v.v.c.c.8.<.<.1.*.,.U.[.{.].].(.`.(.[.[.`.|.|.|.|.(.`.(.(.(.(.(.}.`.(.H.n.n.n.~.(.(.(.(.(.(.(.(.!.(.!.(.(.(.!.(.!.(.(.(.!.(.:X",
":X:Xh.P m B J *.;.4.2.2.4.3.} ( ' I I z.Q.(.].[.].[.[.[.[.[.}.[.|.|.}.`.|.|.|.}.(.!.!.H.D.n.5 ; , ; , t !.(.(.(.(.!.!.(.(.(.(.(.(.!.(.(.!.(.(.!.(.:X:X",
":X:XT m B *.I ;.2.;.;.] C C B L ! z.Q.Q.^././.(.).`.(.[.(.{.(.`.`.}.|.|.|.(.!.D.n.t e 5 ; $ $ $ $ + $ , n.(.(.(.(.(.(.(.(.(.!.(.(.(.(.(.(.!.(.(.(.:X:X",
":X:X:XH B L I *.*.' C B L Q z.l.E.E.E.Q.Q.Q.Q.`.`.`.[.(.[.(.[.[.|.`.`.(.(.D.e , ; $ $ + $ $ + $ , ; $ ; 7 D.(.!.!.(.!.(.(.!.(.(.(.!.(.!.(.(.(.(.(.:X:X",
":X:X:XS B D D V V J R k.l.S.A.A.A.G.E.Q.Q.Q.^.^.^.).(.].(.].}.{.}.(.!.n., $ + + + + $ $ $ ; 7 n.D.e $ $ , M.(.(.(.!.(.(.!.(.(.!.(.!.(.(.(.(.(.(.:X:X:X",
":X:X:XG S M M A T l.l.V.V.V.V.A.A.E.G.E.Q.Q.Q.^.^.^.].(.[.(.}.H.M.7 $         X + $ ; 7 n.D.!.(.}.M.$ + $ n.(.(.!.(.(.!.(.(.(.(.(.(.(.(.(.(.!.(.:X:X:X",
":X:X:X:XP P a.g.g.l.V.V.V.V.V.Z.C.A.A.E.G.Q.Q.Q.Q.`.`.).Q.D.T 1 + X         + ; 5 n.!.(.(.(.`.}.|.D., + + e (.(.(.(.(.(.(.(.(.(.!.(.(.!.!.(.(.:X:X:X:X",
":X:X:X:Xk.j.g.g.l.l.l.V.V.V.V.V.C.A.A.G.G.G.W.^.Q.Q.V.m.0 #           + , 7 n.D.(. X|.(.|.|.(.`.`.!.7 X X ; (.(.!.(.(.(.!.(.(.!.(.(.(.(.(.(.(.:X:X:X:X",
":X:X:X:X:Xl.g.g.g.g.l.V.l.V.V.V.C.C.Z.G.G.Q.G.m.y 6 : O     . . X ; 7 n.D.(.|.|.`.(.|.|.}.|.(.(.(.}.e + X $ M.(.!.(.(.(.(.(.(.(.(.!.(.(.!.(.:X:X:X:X:X",
":X:X:X:X:X:Xh.g.g.g.l.V.V.V.V.V.V.V.C.A.V.r 6 > $ X . . .   O 5 n.D.~.(.|.|.(.(.`.}.(.(.(.`.|.(.(.|.M.+   $ e }.(.(.!.(.!.(.(.!.(.(.(.(.(.(.:X:X:X:X:X",
":X:X:X:X:X:XB.g.g.g.g.l.l.V.V.V.C.V.s.6 : * @ X X X X X $ r Q.(.(.(.(.(.(.(.(.(.`.(.(.(.(.|.(.|.(.|.(.$ X $ n.!.(.(.(.(.(.(.(.(.!.(.(.!.(.:X:X:X:X:X:X",
":X:X:X:X:X:X:Xg.g.g.g.h.V.V.V.l.q 3 : # O O O @ O # 5 m.^./.Q.Q.(.~.(.(.(.(.(.(.(.`.(.(.(.(.(.(.(.(.}.,   $ e !.!.(.!.(.(.(.!.(.(.(.(.(.:X:X:X:X:X:X:X",
":X:X:X:X:X:X:XB.h.j.j.f.s.w 9 > = * # @ O @ & > q C.Q.Q.E.Q.Q.Q.!.~.!.!.(.(.(.(.(.(.(.(.(.(.(.(.(.(.!., X $ t !.(.(.(.~.!.(.(.!.(.(.(.(.:X:X:X:X:X:X:X",
":X:X:X:X:X:X:X:X:Xf.i.4 - * * * % & * : < 4 s.C.A.A.A.A.G.E.G.Q.H.Q.H.!.~.(.!.!.(.(.(.(.(.(.(.(.(.(.~., + $ t (.(.(.(.(.(.(.(.(.(.(.(.:X:X:X:X:X:X:X:X",
":X:X:X:X:X:X:X:X:X8 - = & & & * > 3 0 p.h.C.V.V.V.C.C.Z.A.A.G.G.G.G.H.~.H.~.!.!.!.!.~.!.~.(.(.!.(.(.H., + $ e !.!.!.}.(.(.(.(.(.(.!.:X:X:X:X:X:X:X:X:X",
":X:X:X:X:X:X:X:X:X:X& = = = 2 9 r g.V.V.V.V.V.V.V.V.C.C.S.Z.Z.A.F.F.D.H.H.H.H.!.H.!.!.!.!.!.(.!.(.(.H.; + ; n.!.!.H.H.!.!.(.!.!.(.:X:X:X:X:X:X:X:X:X:X",
":X:X:X:X:X:X:X:X:X:X:X3 8 w i.f.l.V.V.V.l.V.V.V.V.V.V.V.V.C.C.C.Z.A.Z.F.G.I.W.W.Q.Q.Q.W.Q.Q.^.^.^.!.D.# + , M.^.Q.!.!.Q.!.!.!.!.:X:X:X:X:X:X:X:X:X:X:X",
":X:X:X:X:X:X:X:X:X:X:X:Xh.g.g.h.f.h.l.B.V.V.V.V.V.V.V.V.V.V.C.C.C.C.C.C.Z.Z.G.E.G.G.W.W.W.E.H.E.Q.^.t + + 5 F.I.!.Q.H.!.Q.Q.!.:X:X:X:X:X:X:X:X:X:X:X:X",
":X:X:X:X:X:X:X:X:X:X:X:X:Xl.h.f.g.g.h.l.V.V.V.V.V.B.V.V.V.V.C.V.V.V.C.C.C.C.C.Z.F.F.F.G.G.H.H.G.F.F.3 X + 0 H.Q.Q.!.Q.Q.H.I.:X:X:X:X:X:X:X:X:X:X:X:X:X",
":X:X:X:X:X:X:X:X:X:X:X:X:X:X:Xh.g.g.g.g.l.l.V.V.V.V.V.V.l.V.V.V.V.V.V.V.V.C.C.V.C.Z.F.Z.Z.F.F.F.F.n.% X $ t H.H.H.W.H.H.G.:X:X:X:X:X:X:X:X:X:X:X:X:X:X",
":X:X:X:X:X:X:X:X:X:X:X:X:X:X:X:Xg.g.g.g.g.g.l.l.V.V.V.V.V.V.V.V.V.B.B.V.B.B.B.B.V.B.B.C.C.C.C.C.C.y @ O > M.F.G.G.G.G.F.:X:X:X:X:X:X:X:X:X:X:X:X:X:X:X",
":X:X:X:X:X:X:X:X:X:X:X:X:X:X:X:X:Xl.h.g.g.g.g.g.h.B.l.l.V.l.l.V.B.V.B.h.B.B.l.l.h.h.h.h.m.m.V.B.n.3 @ $ 0 V.C.F.G.C.:X:X:X:X:X:X:X:X:X:X:X:X:X:X:X:X:X",
":X:X:X:X:X:X:X:X:X:X:X:X:X:X:X:X:X:X:Xh.g.g.g.g.g.g.l.l.l.l.V.l.V.B.B.B.B.h.l.h.h.h.g.f.g.g.h.B.s.: @ * r C.C.V.:X:X:X:X:X:X:X:X:X:X:X:X:X:X:X:X:X:X:X",
":X:X:X:X:X:X:X:X:X:X:X:X:X:X:X:X:X:X:X:X:Xl.g.g.g.g.g.g.h.g.h.l.h.B.h.h.l.h.h.g.g.g.f.j.f.f.j.f.8 & # < d.n.h.:X:X:X:X:X:X:X:X:X:X:X:X:X:X:X:X:X:X:X:X",
":X:X:X:X:X:X:X:X:X:X:X:X:X:X:X:X:X:X:X:X:X:X:Xl.g.g.g.g.g.g.g.g.g.g.h.g.g.g.f.f.s.f.f.f.f.s.f.i.= # * 9 p.:X:X:X:X:X:X:X:X:X:X:X:X:X:X:X:X:X:X:X:X:X:X",
":X:X:X:X:X:X:X:X:X:X:X:X:X:X:X:X:X:X:X:X:X:X:X:X:X:Xh.h.g.g.g.g.f.g.g.f.f.f.g.f.g.f.f.f.f.f.f.9 * # :X:X:X:X:X:X:X:X:X:X:X:X:X:X:X:X:X:X:X:X:X:X:X:X:X",
":X:X:X:X:X:X:X:X:X:X:X:X:X:X:X:X:X:X:X:X:X:X:X:X:X:X:X:X:Xl.l.g.h.g.g.g.g.g.f.g.f.f.g.f.f.h.:X:X:X:X:X:X:X:X:X:X:X:X:X:X:X:X:X:X:X:X:X:X:X:X:X:X:X:X:X"
};
