/* XPM */
static char *_2[] = {
/* columns rows colors chars-per-pixel */
"75 75 186 2 ",
"   c #363636",
".  c #373439",
"X  c #39363A",
"o  c #3B3B3B",
"O  c #3F3B41",
"+  c #3E3740",
"@  c #433E44",
"#  c #434343",
"$  c #4A444C",
"%  c #4C4C4C",
"&  c #4F4651",
"*  c #4F4951",
"=  c #524C54",
"-  c #564D59",
";  c #544B57",
":  c #545354",
">  c #5A545C",
",  c #5B5B5B",
"<  c #575658",
"1  c #5E5660",
"2  c #5F5961",
"3  c #625C64",
"4  c #655C67",
"5  c #646364",
"6  c #69636B",
"7  c #6C6C6C",
"8  c #676268",
"9  c #6E6271",
"0  c #6F6B70",
"q  c #716674",
"w  c #726D74",
"e  c #776A7A",
"r  c #7A6D7D",
"t  c #737273",
"y  c #7A727C",
"u  c #7C7B7C",
"i  c #AD2E35",
"p  c #AB343C",
"a  c #B4353D",
"s  c #BD393F",
"d  c #B9373F",
"f  c #EC0E0E",
"g  c #EB1313",
"h  c #E61D1D",
"j  c #EC1C1C",
"k  c #DF2727",
"l  c #DF2A2A",
"z  c #DE3434",
"x  c #DB3B3B",
"c  c #DD3638",
"v  c #E12525",
"b  c #EE2020",
"n  c #E12C2C",
"m  c #EE2929",
"M  c #E03030",
"N  c #ED3535",
"B  c #EE3838",
"V  c #F13939",
"C  c #A93D46",
"Z  c #B53F48",
"A  c #B83B44",
"S  c #C33B41",
"D  c #C93D41",
"F  c #9F4D59",
"G  c #A5434D",
"H  c #B9414A",
"J  c #A54752",
"K  c #BB4E5A",
"L  c #BA4B57",
"P  c #BD505C",
"I  c #915E6C",
"U  c #BD5764",
"Y  c #BE5865",
"T  c #9A616D",
"R  c #8C6D7D",
"E  c #8F6473",
"W  c #916270",
"Q  c #93717F",
"!  c #9A707C",
"~  c #AA636A",
"^  c #BB666A",
"/  c #A36973",
"(  c #AF7278",
")  c #BB7D7E",
"_  c #B5777B",
"`  c #CC4246",
"'  c #D64546",
"]  c #DA4142",
"[  c #D54D4E",
"{  c #D1464A",
"}  c #CE5C5C",
"|  c #D55A5B",
" . c #DC5B5B",
".. c #D95657",
"X. c #ED4C4C",
"o. c #EE4141",
"O. c #F34D4D",
"+. c #F04343",
"@. c #E35454",
"#. c #EC5151",
"$. c #E35A5A",
"%. c #F25656",
"&. c #F65C5C",
"*. c #C35A66",
"=. c #C35C69",
"-. c #CD6465",
";. c #C6616D",
":. c #CA626D",
">. c #C66C6D",
",. c #CA6A6A",
"<. c #D26363",
"1. c #DA6565",
"2. c #DD6969",
"3. c #D26972",
"4. c #CC7272",
"5. c #C27B7B",
"6. c #C77373",
"7. c #D87179",
"8. c #D77077",
"9. c #E36162",
"0. c #E76A6C",
"q. c #F46364",
"w. c #F56A6A",
"e. c #F86C6C",
"r. c #EB7172",
"t. c #F47575",
"y. c #F97575",
"u. c #F37C7D",
"i. c #F97D7D",
"p. c #7D6F81",
"a. c #7F7282",
"s. c #8A6F81",
"d. c #817385",
"f. c #827A84",
"g. c #867789",
"h. c #87788B",
"j. c #8A7C8D",
"k. c #8E7181",
"l. c #947280",
"z. c #8D7F90",
"x. c #DF7C83",
"c. c #E17C82",
"v. c #848484",
"b. c #8C818E",
"n. c #8C8B8C",
"m. c #8E8291",
"M. c #918593",
"N. c #948B96",
"B. c #968D98",
"V. c #988F9A",
"C. c #939293",
"Z. c #979198",
"A. c #9A939C",
"S. c #9C9B9C",
"D. c #BE8585",
"F. c #B29595",
"G. c #B99292",
"H. c #B39B9B",
"J. c #B99E9E",
"K. c #9F99A0",
"L. c #9E97A0",
"P. c #A29DA3",
"I. c #A5A5A6",
"U. c #AEA3A3",
"Y. c #A7A4A8",
"T. c #A9A6A9",
"R. c #AAAAAA",
"E. c #B4A5A5",
"W. c #B1ACAC",
"Q. c #B5A4A5",
"!. c #AFAFB0",
"~. c #B0AFB0",
"^. c #B1B1B1",
"/. c #C08989",
"(. c #E6868B",
"). c #E9868A",
"_. c #F48383",
"`. c #F88484",
"'. c #F4898A",
"]. c #F88C8C",
"[. c #F18688",
"{. c #EB8E92",
"}. c #EF9295",
"|. c #F69496",
" X c #F89292",
".X c None",
/* pixels */
".X.X.X.X.X.X.X.X.X.X.X.X.X.X.X.X.X.X.X.X.X.X.X.X.X.X.X.X.X.X.X.X.X.X.X.X.X.X.X.X.X.X.X.X.X.X.X.X.X.X.X.X.X.X.X.X.X.X.X.X.X.X.X.X.X.X.X.X.X.X.X.X.X.X.X",
".X.X.X.X.X.X.X.X.X.X.X.X.X.X.X.X.X.X.X.X.X.X.X.X.X.X.X.X.X.X.X.X.Xt 5 , v.I.P.I.I.I..X.X.X.X.X.X.X.X.X.X.X.X.X.X.X.X.X.X.X.X.X.X.X.X.X.X.X.X.X.X.X.X.X",
".X.X.X.X.X.X.X.X.X.X.X.X.X.X.X.X.X.X.X.X.X.X.X.X.X.X.X.X!.R.!.R.^.t , , : u P.P.I.I.I.I.^.R.R..X.X.X.X.X.X.X.X.X.X.X.X.X.X.X.X.X.X.X.X.X.X.X.X.X.X.X.X",
".X.X.X.X.X.X.X.X.X.X.X.X.X.X.X.X.X.X.X.X.X.X.X.X.X^.^.^.!.!.R.!.R.C.7 : : : u S.I.I.I.R.^.R.R.R.^.^..X.X.X.X.X.X.X.X.X.X.X.X.X.X.X.X.X.X.X.X.X.X.X.X.X",
".X.X.X.X.X.X.X.X.X.X.X.X.X.X.X.X.X.X.X.X.X.X^.^.^.^.!.^.!.!.R.R.R.^.S.7 : % % u S.I.I.I.R.R.R.R.R.R.R.R.I..X.X.X.X.X.X.X.X.X.X.X.X.X.X.X.X.X.X.X.X.X.X",
".X.X.X.X.X.X.X.X.X.X.X.X.X.X.X.X.X.X.X.X^.^.^.^.^.^.^.^.!.R.!.R.R.R.R.I.5 % o % t C.I.I.I.I.R.I.R.R.R.I.R.R.R..X.X.X.X.X.X.X.X.X.X.X.X.X.X.X.X.X.X.X.X",
".X.X.X.X.X.X.X.X.X.X.X.X.X.X.X.X.X.X^.!.^.^.R.^.^.^.^.!.!.!.W.!.^.R.R.R.C.: o o : v.I.I.I.R.R.R.R.I.R.R.R.I.R.R.R..X.X.X.X.X.X.X.X.X.X.X.X.X.X.X.X.X.X",
".X.X.X.X.X.X.X.X.X.X.X.X.X.X.X.X.X!.!.!.^.^.^.^.^.!.!.^.^.!.!.R.^.R.^.R.R.u # o # 5 C.I.I.R.R.I.R.R.R.R.R.R.R.R.R.R..X.X.X.X.X.X.X.X.X.X.X.X.X.X.X.X.X",
".X.X.X.X.X.X.X.X.X.X.X.X.X.X.XR.R.^.^.R.^.^.^.^.^.^.^.^.^.^.^.R.R.R.R.R.R.S.,     % v.I.I.R.R.R.R.R.R.R.I.R.I.R.R.R.R.I..X.X.X.X.X.X.X.X.X.X.X.X.X.X.X",
".X.X.X.X.X.X.X.X.X.X.X.X.X.X!.R.^.^.^.^.^.^.^.^.^.^.R.^.^.^.^.^.^.R.R.R.R.R.C.#   o 5 S.I.R.I.R.R.R.I.R.R.R.R.R.R.R.R.R.R..X.X.X.X.X.X.X.X.X.X.X.X.X.X",
".X.X.X.X.X.X.X.X.X.X.X.X.X~.R.~.^.R.^.^.^.^.R.^.^.^.^.^.^.^.^.^.^.R.R.R.R.I.R.5   o # v.I.I.I.R.I.R.I.R.R.R.I.R.R.I.R.I.R.R..X.X.X.X.X.X.X.X.X.X.X.X.X",
".X.X.X.X.X.X.X.X.X.X.X.XR.R.~.R.R.^.^.^.^.^.^.^.^.^.^.^.^.R.^.R.R.R.^.R.R.R.R.C.#   o 5 I.I.R.R.R.R.R.R.R.I.R.R.R.R.R.R.R.R.R..X.X.X.X.X.X.X.X.X.X.X.X",
".X.X.X.X.X.X.X.X.X.X.X!.!.!.R.!.^.^.^.R.^.^.^.^.^.^.^.^.^.R.^.R.R.^.R.R.R.R.I.R.5 o o : C.I.I.R.R.R.R.R.R.R.R.R.R.R.R.R.R.R.I.R..X.X.X.X.X.X.X.X.X.X.X",
".X.X.X.X.X.X.X.X.X.XR.R.R.W.!.R.R.^.^.^.R.^.^.^.R.^.^.^.^.^.R.^.R.R.R.^.R.R.R.R.C.# o % 7 I.R.R.I.R.R.I.I.R.R.I.R.I.R.I.R.R.R.R.R..X.X.X.X.X.X.X.X.X.X",
".X.X.X.X.X.X.X.X.X!.R.~.R.!.R.^.^.^.^.^.^.^.^.^.^.^.^.^.R.^.R.^.^.^.R.R.^.R.R.I.R.7 # # , S.R.I.R.R.R.R.R.R.R.I.I.R.R.R.R.R.I.R.R.R..X.X.X.X.X.X.X.X.X",
".X.X.X.X.X.X.X.XR.R.~.R.^.^.R.!.R.^.^.^.^.^.^.^.^.^.^.^.^.^.^.^.R.R.R.R.R.R.R.R.R.C.# # % n.R.R.I.R.I.R.I.R.R.R.R.R.R.I.R.I.R.R.R.R.R..X.X.X.X.X.X.X.X",
".X.X.X.X.X.X.XT.T.W.!.!.!.!.!.R.!.!.^.^.^.^.^.^.^.^.^.^.^.^.^.^.^.R.R.R.R.R.R.R.R.R.: # % t R.R.R.R.R.R.I.R.R.R.R.R.I.R.R.R.R.R.R.R.I.R..X.X.X.X.X.X.X",
".X.X.X.X.X.X.XR.T.W.W.R.R.!.!.!.!.~.^.^.^.^.^.^.^.^.^.^.^.^.^.^.R.R.^.R.R.R.R.R.R.R.t # # , S.R.R.I.R.I.R.R.R.I.I.I.R.R.R.I.I.R.I.R.R.R..X.X.X.X.X.X.X",
".X.X.X.X.X.XT.R.R.R.R.!.!.!.!.W.!.~.~.^.^.^.^.^.^.^.^.^.^.^.^.^.R.^.R.^.R.R.R.R.R.I.C.# o % v.R.I.I.R.R.R.R.R.R.R.R.R.R.R.R.R.R.R.R.R.I.R..X.X.X.X.X.X",
".X.X.X.X.XL.T.T.R.R.R.~.R.!.!.!.~.~.^.^.^.^.^.^.^.^.^.^.^.^.^.^.^.R.R.R.R.R.R.R.R.R.I.% o # 7 R.R.R.R.I.R.R.R.I.R.I.R.I.R.I.R.R.I.R.R.R.R.R..X.X.X.X.X",
".X.X.X.X.XP.T.T.R.R.R.R.!.W.!.~.^.^.^.^.^.^.^.^.^.^.^.^.^.^.^.^.^.^.R.R.R.R.R.R.R.R.R.: o # , R.I.R.R.R.I.R.R.R.R.I.R.I.R.R.R.R.R.R.I.I.R.R..X.X.X.X.X",
".X.X.X.XA.P.Y.T.Y.R.R.!.W.!.!.~.^.^.^.^.^.^.^.^.^.^.^.^.^.^.^.^.^.R.^.^.^.R.R.R.I.R.R.7 # # : I.I.I.I.R.R.R.R.I.R.R.R.R.I.R.R.I.R.R.R.R.R.R.R..X.X.X.X",
".X.X.X.XA.P.P.T.R.R.R.!.R.^.!.!.^.^.^.^.^.^.^.^.^.^.^.^.^.^.^.^.R.^.^.^.^.R.R.R.R.R.R.t # # % I.R.R.R.R.I.R.I.R.R.I.R.R.R.R.R.R.R.I.I.R.I.I.I..X.X.X.X",
".X.X.Xz.A.P.P.T.R.R.R.R.R.!.!.!.^.^.^.^.^.^.^.^.^.^.^.^.^.^.^.^.^.^.^.^.^.R.R.R.R.R.R.n.% # % S.I.I.I.R.R.R.R.R.R.R.R.I.R.R.I.R.R.R.R.R.R.R.R.I..X.X.X",
".X.X.XM.Z.S.P.Y.R.Y.R.R.!.!.!.^.^.~.^.^.^.^.^.^.^.^.^.^.^.^.^.^.^.^.^.^.^.^.R.R.R.R.R.n.: % , S.I.I.I.R.R.R.R.R.R.R.I.R.R.R.R.R.R.R.R.R.R.I.I.I..X.X.X",
".X.X.Xr y y w w w 7 5 , < < : : 3 , > , < < , , 5 5 5 7 7 t t t t u u u u v.v.v.v.v.v.t % % 5 C.I.I.R.R.R.I.R.R.R.I.R.R.R.I.R.I.I.R.I.R.R.I.R.I..X.X.X",
".X.Xq 6 6 3 , < < = % # # # # # # O # # # # # #   o o               o # # # % # # % % % # % 5 C.I.R.I.R.R.I.R.I.R.R.R.R.I.R.R.R.R.R.R.R.R.R.I.I.R..X.X",
".X.Xq 4 4 3 > < : : * # # # # # # # O # o # # o                       o # # # # # # % % : : 7 C.R.I.I.R.R.R.R.R.R.I.R.I.R.R.R.I.R.I.R.R.R.I.I.I.R..X.X",
".X.Xa.e w w w q 0 7 6 7 7 6 8 8 5 5 5 5 5 5 7 , % % : % % # % % # # # % % % % % % % % : , t C.I.I.R.I.R.I.R.R.R.R.R.R.R.R.R.R.R.I.R.R.I.R.R.I.R.R..X.X",
".Xz.h.z.M.M.V.L.I.T.R.R.W.R.~.~.!.!.!.^.^.^.^.^.^.^.^.^.^.^.^.^.I.S.I.R.R.I.S.C.C.n.C.S.I.I.I.I.R.R.R.I.R.I.R.I.I.R.I.R.R.I.R.I.R.R.R.R.R.R.I.I.R.I..X",
".Xh.h.h.z.M.B.P.P.Y.R.W.R.R.~.R.!.!.!.!.^.^.^.^.^.^.^.^.^.^.^.^.^.R.^.^.^.^.R.R.R.R.R.R.R.R.R.R.R.R.R.R.I.R.R.R.R.R.R.I.R.R.R.R.R.R.R.R.I.R.R.I.I.I..X",
".Xh.h.h.z.M.N.L.P.I.T.R.!.!.!.!.!.!.!.!.^.^.^.^.^.^.^.^.^.^.^.^.^.^.^.^.^.^.^.R.R.R.R.R.R.R.R.R.R.R.R.R.R.R.I.R.I.R.R.R.I.R.R.I.I.R.R.I.R.R.I.R.I.R..X",
".Xg.h.g.z.z.B.V.P.T.P.R.T.!.!.!.!.^.^.W.^.^.^.^.^.^.^.^.^.^.^.^.^.^.^.^.^.^.R.R.R.R.R.R.R.R.^.R.R.R.R.R.R.R.I.R.I.R.R.R.I.R.I.R.R.R.R.R.R.R.I.I.I.R..X",
".Xh.g.g.h.z.M.V.P.P.P.R.!.!.R.!.!.W.^.^.^.^.^.^.^.^.^.^.^.^.^.^.^.^.R.^.^.^.R.R.R.R.R.R.R.R.R.R.R.R.R.R.R.I.R.R.R.R.R.I.R.R.I.R.R.I.I.R.R.I.R.I.I.I..X",
"z.h.g.g.g.z.M.B.P.P.P.R.T.R.T.R.!.!.^.^.^.^.^.^.^.^.^.^.^.^.^.^.^.^.^.^.^.^.^.R.R.R.R.R.R.R.R.R.R.R.R.R.R.R.R.R.I.R.I.R.R.R.R.R.R.R.I.R.R.I.R.R.I.R.^.",
"z.s.E I I T T / ~ ( _ ) /.l.x.G.F.H.E.^.^.^.E.J.E.E./.4.5.5.5./.S.R.^.^.^.^.^.R.R.R.R.R.^.R.R.R.R.R.R.R.R.I.R.R.R.R.R.R.I.R.I.R.R.R.R.R.I.R.I.I.I.R.I.",
"E C p C Z Z S S D D D X.c n v b k l k k k k v v N N n n M M M x x ] [ 6.U.^.R.R.R.R.R.R.U.F.U.R.R.R.R.R.I.R.R.I.R.R.R.R.R.I.R.R.I.R.R.R.R.I.I.R.I.I.I.",
"F Z L U Y *.=.;.3.x.c.c.(.'.[.c.u.t.w.q.%.+.N N m b b j f f g g v k k z ,.^.^.R.R.R.R.F.,...[ [ ) R.R.R.R.R.R.R.R.R.I.R.R.R.R.R.R.R.R.I.R.R.I.I.R.I.I.",
"C Z K *.=.;.;.:.3.7.c.(.{.}.}.|.|.|.|. X X].`.i.i.y.e.&.&.&.%.O.+.N m v x ^.R.R.R.R.R.5.$.X.#.#.[ R.R.R.R.R.R.R.I.R.I.R.R.I.I.R.I.R.R.R.I.I.R.I.I.I.I.",
"J Z Z L P *.=.=.:.:.x.c.(.}.}.}.|.|.|.|. X].`.`.`.`.i.y.e.e.e.q.&.+.B m x ^.R.R.R.R.R.5.#.X.w.q.@.R.R.R.I.R.R.I.R.R.R.R.R.R.R.R.I.I.R.I.R.I.I.I.I.I.I.",
"F G p i a d d d S S D D [ @.0.0.r.u.u.u._._._._.`.`._.t.e.e.w.q.%.X.N n } ^.^.R.R.R.R.F. .#.&.w.,.R.R.R.R.R.R.R.R.I.R.R.I.R.I.R.R.R.I.I.I.I.I.R.I.I.R.",
"s.s.s.s.R k.Q l.l./ ~ ~ Y ^ ^ ;.-.-.<.| | | 1.1.2.9.9.$.$.$.@.@.$. .<.5.G.^.R.R.R.R.R.R.H.4.2.6.F.I.R.R.R.I.R.R.R.R.I.R.R.R.R.R.R.I.R.R.R.I.R.I.I.I.I.",
"z.h.h.h.h.z.z.z.M.V.B.V.L.P.Y.Y.R.!.!.!.!.!.!.!.^.W.R.^.^.^.^.^.^.^.W.E.R.^.R.R.R.R.R.R.R.R.R.R.R.R.R.R.I.R.R.I.R.R.R.R.R.I.I.R.R.R.R.R.I.I.I.I.I.I.R.",
".Xh.h.h.h.z.z.z.z.B.M.V.L.K.P.Y.R.R.R.~.!.!.!.!.R.!.^.!.^.^.^.!.^.^.R.^.^.R.R.R.R.R.R.R.R.^.R.R.R.R.R.R.R.R.R.R.I.R.I.R.R.R.R.R.R.R.I.R.R.I.I.I.I.I..X",
".Xh.h.h.h.z.z.z.z.V.B.B.V.L.P.P.T.T.R.W.!.!.!.!.!.!.R.!.!.^.^.!.^.R.^.^.R.R.R.R.R.^.R.R.R.R.R.R.R.R.R.R.R.R.R.R.I.R.I.R.R.R.R.R.R.R.R.R.I.R.I.I.I.I..X",
".Xh.h.h.h.z.z.m.z.B.B.B.V.A.P.P.P.T.R.R.W.!.!.R.!.W.^.!.!.^.!.!.^.^.^.R.R.^.R.R.R.R.R.^.R.R.R.R.R.R.R.R.I.R.R.I.R.R.R.R.R.I.I.R.I.R.R.I.R.I.I.I.I.I..X",
".Xh.h.h.h.j.z.m.z.M.M.V.V.V.A.P.P.T.T.R.R.^.!.R.!.R.R.!.!.!.!.!.^.^.R.^.R.R.R.R.R.R.R.R.R.R.R.R.R.R.R.R.R.R.I.R.R.R.I.R.R.I.R.R.R.R.R.R.R.I.R.I.I.I..X",
".Xz.h.h.h.h.z.m.z.M.z.V.V.V.A.L.P.P.Y.R.R.R.R.!.!.R.!.!.!.!.!.!.R.^.^.R.R.^.R.R.R.R.R.R.^.R.R.R.R.R.R.I.I.R.R.R.R.I.R.R.R.R.R.R.R.I.R.R.R.I.I.I.I.R..X",
".X.Xh.h.h.h.z.z.M.m.M.N.B.V.V.L.L.P.P.T.T.W.!.T.!.R.!.!.^.!.R.^.^.^.^.R.R.R.R.R.R.R.^.R.R.R.R.R.R.R.R.R.R.R.R.R.R.I.I.R.R.R.I.R.R.R.I.R.I.I.I.I.I..X.X",
".X.Xd.p.p.r d.h.j.m.M.M.N.V.V.L.A.P.P.P.P.Y.R.T.R.!.!.R.R.^.!.R.R.^.R.R.R.R.R.R.R.R.R.R.R.R.R.R.R.R.R.R.I.R.I.R.R.R.R.R.R.R.R.R.R.R.R.R.R.I.I.R.I..X.X",
".X.X1 - - - - 1 1 1 1 1 3 3 3 3 8 8 w t a.n.n.C.C.C.N.C.S.S.S.P.S.C.C.I.I.R.R.R.R.R.R.R.R.R.R.R.R.R.R.I.R.R.R.I.I.R.R.R.I.R.R.I.R.I.R.R.R.R.I.I.R..X.X",
".X.X.X- ; & & & = & * % @ @ @ @ # @ o o O o o o o # # O O # # # % , , 5 7 u n.C.I.R.R.R.R.R.R.R.R.R.R.R.I.R.R.R.R.R.I.R.R.R.R.R.R.R.I.R.I.I.I.I..X.X.X",
".X.X.X1 > - ; ; = = * = @ @ @ @ @ o X X X X . .     o o       X o o o # # % % : % : , t v.C.R.R.R.R.R.I.R.R.R.R.I.R.I.R.R.R.R.R.I.R.R.I.R.I.I.I..X.X.X",
".X.X.Xa.p.e q 9 q q 9 4 4 1 > - ; = $ $ @ + X + o o O o o o o o o # # # # % % % % % % % : t I.R.R.R.R.R.I.R.I.R.R.R.R.R.R.I.R.I.R.R.R.I.I.I.I.R..X.X.X",
".X.X.X.Xh.h.h.h.h.m.M.M.M.M.M.N.B.V.V.L.A.P.P.A.A.N.n.v.v.v.u 0 5 , , , , : % % % % : # % , C.R.I.R.I.I.R.R.I.R.R.R.I.R.I.R.R.R.R.R.R.R.I.I.R..X.X.X.X",
".X.X.X.Xz.h.h.h.h.z.m.M.M.M.M.M.N.N.V.A.S.A.L.P.P.I.I.I.R.R.R.R.R.R.^.R.I.S.C.n.C.v.v.: % , v.R.R.R.R.R.R.R.R.R.I.R.R.R.R.R.R.I.I.R.R.I.R.I.R..X.X.X.X",
".X.X.X.X.Xz.h.h.h.h.m.M.M.M.M.M.z.V.V.V.V.L.L.P.P.P.P.P.T.W.R.R.R.R.R.R.R.R.R.R.R.R.C.: % : u R.R.I.I.R.R.R.R.R.R.R.R.R.I.R.I.R.R.R.I.R.I.I..X.X.X.X.X",
".X.X.X.X.Xz.h.h.h.h.h.M.M.M.M.M.B.z.B.B.V.V.V.L.L.P.P.P.P.P.T.R.R.R.R.R.R.R.R.R.R.R.v.% # : u R.R.R.R.R.R.I.R.I.R.R.R.I.R.R.R.R.I.R.R.I.I.I..X.X.X.X.X",
".X.X.X.X.X.Xh.h.h.h.h.z.m.M.M.m.z.B.M.N.V.V.V.V.A.L.L.P.P.P.T.P.R.R.R.R.R.R.R.R.R.R.v.% # % n.R.I.R.R.R.I.R.R.R.I.R.I.R.R.R.I.R.R.R.R.I.I..X.X.X.X.X.X",
".X.X.X.X.X.X.Xh.h.h.h.z.z.M.M.M.N.z.N.M.z.B.V.V.V.A.L.P.P.P.P.P.R.I.R.I.I.R.R.R.R.R.u # o % I.I.I.R.I.R.R.R.R.I.R.R.R.R.R.I.R.R.I.R.T.T..X.X.X.X.X.X.X",
".X.X.X.X.X.X.Xm.h.h.h.h.z.z.m.M.M.M.M.N.M.N.M.N.V.V.V.L.A.K.H.P.I.U.I.I.I.I.I.I.I.I.5 o o % I.I.I.I.I.R.R.R.R.R.R.R.R.R.I.R.R.I.T.T.T.R..X.X.X.X.X.X.X",
".X.X.X.X.X.X.X.Xh.h.h.g.h.z.m.M.M.M.M.M.M.M.M.M.M.B.V.V.V.A.S.S.S.S.S.I.I.I.I.I.I.I.:   o : I.I.I.I.I.I.I.I.I.R.R.R.I.R.R.R.R.R.T.R.I..X.X.X.X.X.X.X.X",
".X.X.X.X.X.X.X.X.Xh.h.h.h.h.z.m.M.M.M.M.M.N.M.M.M.M.N.N.V.V.A.S.S.C.S.S.S.I.S.I.I.I.%   # 5 I.I.I.I.I.I.I.I.I.I.I.I.I.R.R.R.R.R.R.I..X.X.X.X.X.X.X.X.X",
".X.X.X.X.X.X.X.X.X.Xh.h.h.h.h.z.z.M.M.z.M.M.M.M.M.z.M.N.N.N.C.C.C.C.C.S.S.S.C.S.I.n.o o % u S.I.I.I.S.I.S.I.I.I.I.I.I.I.I.R.I.I.R..X.X.X.X.X.X.X.X.X.X",
".X.X.X.X.X.X.X.X.X.X.Xh.h.h.h.h.z.z.m.M.M.M.m.M.M.M.M.M.M.M.N.M.N.N.Z.Z.A.A.A.A.S.8 X O < n.P.P.P.I.I.P.I.I.I.P.I.I.I.I.I.P.I.I..X.X.X.X.X.X.X.X.X.X.X",
".X.X.X.X.X.X.X.X.X.X.X.Xh.h.h.h.h.z.z.M.M.M.M.m.M.m.M.M.m.m.M.M.M.M.M.N.N.N.Z.Z.n.#   $ 7 C.Z.S.S.P.P.P.P.P.P.P.P.I.S.P.K.I.P..X.X.X.X.X.X.X.X.X.X.X.X",
".X.X.X.X.X.X.X.X.X.X.X.X.Xh.h.h.h.h.z.z.m.m.m.m.m.M.m.m.m.m.m.m.m.M.M.M.M.M.N.C.9 X o : f.A.Z.C.B.A.S.P.S.S.P.P.I.K.K.I.S.I..X.X.X.X.X.X.X.X.X.X.X.X.X",
".X.X.X.X.X.X.X.X.X.X.X.X.X.Xh.h.h.h.h.h.z.m.m.z.M.z.m.m.m.m.m.m.m.m.m.m.M.M.m.a.@ X # 4 b.N.V.C.N.C.N.Z.A.Z.S.S.S.K.S.S.K..X.X.X.X.X.X.X.X.X.X.X.X.X.X",
".X.X.X.X.X.X.X.X.X.X.X.X.X.X.Xm.h.h.h.h.h.h.z.z.m.m.m.m.m.m.m.j.m.b.z.m.z.z.h.@   X = a.M.M.b.M.N.N.C.N.C.Z.A.A.A.A.A.N..X.X.X.X.X.X.X.X.X.X.X.X.X.X.X",
".X.X.X.X.X.X.X.X.X.X.X.X.X.X.X.X.Xh.h.h.h.h.g.h.j.m.b.m.m.b.m.m.m.z.j.b.j.g.- . . @ 4 h.j.b.b.b.b.M.N.N.N.Z.C.Z.A.A..X.X.X.X.X.X.X.X.X.X.X.X.X.X.X.X.X",
".X.X.X.X.X.X.X.X.X.X.X.X.X.X.X.X.X.Xm.h.h.h.h.g.h.h.h.j.j.b.b.j.m.b.h.h.d.4 + . @ 1 p.d.a.g.h.b.b.b.b.b.M.N.N.B.b..X.X.X.X.X.X.X.X.X.X.X.X.X.X.X.X.X.X",
".X.X.X.X.X.X.X.X.X.X.X.X.X.X.X.X.X.X.X.Xz.h.h.h.h.h.g.h.h.h.h.j.j.h.h.d.9 @ + @ - p.d.p.g.a.a.g.j.j.b.b.b.b.j..X.X.X.X.X.X.X.X.X.X.X.X.X.X.X.X.X.X.X.X",
".X.X.X.X.X.X.X.X.X.X.X.X.X.X.X.X.X.X.X.X.X.Xj.h.h.g.g.g.g.g.g.g.h.d.h.9 @ @ @ @ e p.d.d.d.d.d.d.d.d.g.j.h..X.X.X.X.X.X.X.X.X.X.X.X.X.X.X.X.X.X.X.X.X.X",
".X.X.X.X.X.X.X.X.X.X.X.X.X.X.X.X.X.X.X.X.X.X.X.X.Xh.h.h.g.g.g.d.g.d.9 & @ @ ; e d.d.p.d.d.d.d.d.d.d..X.X.X.X.X.X.X.X.X.X.X.X.X.X.X.X.X.X.X.X.X.X.X.X.X",
".X.X.X.X.X.X.X.X.X.X.X.X.X.X.X.X.X.X.X.X.X.X.X.X.X.X.X.Xg.g.g.g.d.9 * $ @ 1 e d.p.d.d.d.d.p.g..X.X.X.X.X.X.X.X.X.X.X.X.X.X.X.X.X.X.X.X.X.X.X.X.X.X.X.X"
};
