/* XPM */
static char *_3[] = {
/* columns rows colors chars-per-pixel */
"75 75 182 2 ",
"   c #322F33",
".  c #353536",
"X  c #39363A",
"o  c #3C3C3C",
"O  c #3F3D40",
"+  c #413D43",
"@  c #473F49",
"#  c #444344",
"$  c #474448",
"%  c #4B444C",
"&  c #4C4B4C",
"*  c #4F4650",
"=  c #4F4950",
"-  c #524B53",
";  c #564C59",
":  c #584F5B",
">  c #535353",
",  c #5A525C",
"<  c #5C5B5C",
"1  c #5E5460",
"2  c #615664",
"3  c #635B64",
"4  c #695E6B",
"5  c #675E69",
"6  c #656465",
"7  c #6C636E",
"8  c #6C6B6C",
"9  c #6E6271",
"0  c #726675",
"q  c #726B74",
"w  c #766A79",
"e  c #796D7C",
"r  c #747475",
"t  c #7B737D",
"y  c #7C7B7C",
"u  c #E90E0E",
"i  c #E61C1C",
"p  c #EB1D1D",
"a  c #EE1515",
"s  c #C9383C",
"d  c #DD3232",
"f  c #DA3B3B",
"g  c #E42323",
"h  c #EC2323",
"j  c #E12A2A",
"k  c #EB2A2A",
"l  c #E63F3F",
"z  c #EA3636",
"x  c #F23A3A",
"c  c #AF4148",
"v  c #B04148",
"b  c #BB464D",
"n  c #A54C57",
"m  c #BA4951",
"M  c #BD565B",
"N  c #AB5B64",
"B  c #9A626E",
"V  c #946C79",
"C  c #BD6A6E",
"Z  c #A06F79",
"A  c #AA7177",
"S  c #BE7979",
"D  c #C6454B",
"F  c #D44344",
"G  c #D84141",
"H  c #D84D4E",
"J  c #CF5757",
"K  c #CE5C5C",
"L  c #CE5258",
"P  c #D25255",
"I  c #D95254",
"U  c #D25B5B",
"Y  c #DC5C5C",
"T  c #E54747",
"R  c #EF4040",
"E  c #E54C4D",
"W  c #EC4D4D",
"Q  c #F34141",
"!  c #F14D4D",
"~  c #E35353",
"^  c #EB5353",
"/  c #E55D5E",
"(  c #EE595A",
")  c #E35759",
"_  c #F45454",
"`  c #F35C5C",
"'  c #D55F63",
"]  c #EB5F61",
"[  c #CD6363",
"{  c #C66D6E",
"}  c #C96A6B",
"|  c #D36363",
" . c #D96767",
".. c #D66869",
"X. c #DD696E",
"o. c #C57575",
"O. c #CB7373",
"+. c #C47778",
"@. c #C37C7C",
"#. c #D17878",
"$. c #E46565",
"%. c #E56B6D",
"&. c #ED6B6C",
"*. c #E0676B",
"=. c #F56565",
"-. c #F56B6B",
";. c #F86B6B",
":. c #E06D73",
">. c #E4767B",
",. c #E7787C",
"<. c #EA787B",
"1. c #F57575",
"2. c #F2797A",
"3. c #F97777",
"4. c #7F7282",
"5. c #817385",
"6. c #837B85",
"7. c #857789",
"8. c #87788A",
"9. c #8A7C8D",
"0. c #8E7383",
"q. c #927D8A",
"w. c #8D7F90",
"e. c #AD7B81",
"r. c #ED7E81",
"t. c #F17F81",
"y. c #848384",
"u. c #8B828E",
"i. c #8B8A8B",
"p. c #8E8291",
"a. c #8F8F90",
"s. c #918593",
"d. c #938B95",
"f. c #968D99",
"g. c #988F9B",
"h. c #9D8B95",
"j. c #949394",
"k. c #979298",
"l. c #9A939C",
"z. c #9C9A9D",
"x. c #AB878C",
"c. c #BB8384",
"v. c #BC8C8D",
"b. c #B18C8F",
"n. c #AD9B9D",
"m. c #A4989E",
"M. c #B49394",
"N. c #BB9393",
"B. c #B59B9C",
"V. c #BA9C9C",
"C. c #9D96A0",
"Z. c #9F9AA0",
"A. c #A29DA2",
"S. c #A5A5A6",
"D. c #ADA3A4",
"F. c #A7A3A8",
"G. c #A9A6A9",
"H. c #A7AEAE",
"J. c #AAAAAA",
"K. c #B4A4A4",
"L. c #B8A0A0",
"P. c #B2ACAC",
"I. c #AFAFB0",
"U. c #B0AFB0",
"Y. c #A7B0B0",
"T. c #AEB3B3",
"R. c #AEB9B9",
"E. c #B1B1B1",
"W. c #B8B8B8",
"Q. c #C18383",
"!. c #C18C8C",
"~. c #CD8181",
"^. c #F38384",
"/. c #F98484",
"(. c #F48A8B",
"). c #F98B8B",
"_. c #F58F90",
"`. c #F69596",
"'. c #F99393",
"]. c #F79B9C",
"[. c #FA9999",
"{. c None",
/* pixels */
"{.{.{.{.{.{.{.{.{.{.{.{.{.{.{.{.{.{.{.{.{.{.{.{.{.{.{.{.{.{.{.{.{.{.{.{.{.{.{.{.{.{.{.{.{.{.{.{.{.{.{.{.{.{.{.{.{.{.{.{.{.{.{.{.{.{.{.{.{.{.{.{.{.{.{.",
"{.{.{.{.{.{.{.{.{.{.{.{.{.{.{.{.{.{.{.{.{.{.{.{.{.{.{.{.{.{.{.{.{.{.E.E.E.E.E.E.{.{.{.{.{.{.{.{.{.{.{.{.{.{.{.{.{.{.{.{.{.{.{.{.{.{.{.{.{.{.{.{.{.{.{.",
"{.{.{.{.{.{.{.{.{.{.{.{.{.{.{.{.{.{.{.{.{.{.{.{.{.{.{.{.E.E.E.E.E.E.E.I.E.I.E.E.E.J.E.P.E.I.{.{.{.{.{.{.{.{.{.{.{.{.{.{.{.{.{.{.{.{.{.{.{.{.{.{.{.{.{.",
"{.{.{.{.{.{.{.{.{.{.{.{.{.{.{.{.{.{.{.{.{.{.{.{.{.E.E.T.H.P.E.J.E.E.E.E.E.E.E.E.E.E.H.H.H.I.J.r < < {.{.{.{.{.{.{.{.{.{.{.{.{.{.{.{.{.{.{.{.{.{.{.{.{.",
"{.{.{.{.{.{.{.{.{.{.{.{.{.{.{.{.{.{.{.{.{.{.E.E.E.I.E.I.P.H.E.E.E.I.E.P.I.E.E.I.E.H.P.P.J.J.S.r < < r S.S.{.{.{.{.{.{.{.{.{.{.{.{.{.{.{.{.{.{.{.{.{.{.",
"{.{.{.{.{.{.{.{.{.{.{.{.{.{.{.{.{.{.{.{.T.E.E.P.I.I.P.I.E.E.P.E.I.E.I.E.E.I.I.E.E.E.P.Y.J.J.J.i.< > < j.S.S.J.{.{.{.{.{.{.{.{.{.{.{.{.{.{.{.{.{.{.{.{.",
"{.{.{.{.{.{.{.{.{.{.{.{.{.{.{.{.{.{.E.E.E.E.E.E.I.I.I.I.I.P.E.H.E.P.I.E.E.I.E.E.E.P.Y.P.P.H.H.S.8 > & r z.S.S.S.{.{.{.{.{.{.{.{.{.{.{.{.{.{.{.{.{.{.{.",
"{.{.{.{.{.{.{.{.{.{.{.{.{.{.{.{.{.E.E.E.E.E.H.E.E.E.I.E.E.E.E.E.E.E.E.E.I.E.E.I.E.T.P.P.E.J.P.H.y.> & < j.S.S.S.J.J.{.{.{.{.{.{.{.{.{.{.{.{.{.{.{.{.{.",
"{.{.{.{.{.{.{.{.{.{.{.{.{.{.{.J.E.E.P.E.E.E.E.E.E.E.E.E.E.H.E.E.E.J.E.E.E.E.P.E.E.E.P.H.P.H.P.P.j.> # & y S.S.S.J.J.J.J.{.{.{.{.{.{.{.{.{.{.{.{.{.{.{.",
"{.{.{.{.{.{.{.{.{.{.{.{.{.{.U.J.E.E.H.E.E.E.P.E.E.E.H.P.E.E.E.H.E.E.E.E.E.E.H.E.E.E.E.P.J.H.J.H.z.< o o 8 j.S.S.S.J.S.J.{.{.{.{.{.{.{.{.{.{.{.{.{.{.{.",
"{.{.{.{.{.{.{.{.{.{.{.{.{.U.I.J.H.E.E.E.P.H.E.E.P.E.E.E.E.E.E.E.E.P.E.E.E.P.E.E.H.P.H.P.J.J.J.J.S.6 o o < a.S.J.S.J.S.J.J.J.{.{.{.{.{.{.{.{.{.{.{.{.{.",
"{.{.{.{.{.{.{.{.{.{.{.{.J.J.U.U.P.E.E.E.E.E.E.E.E.E.E.E.E.E.E.E.E.E.E.E.E.E.H.E.E.E.P.H.J.J.J.J.H.8 o . > i.S.J.J.J.J.J.J.G.G.{.{.{.{.{.{.{.{.{.{.{.{.",
"{.{.{.{.{.{.{.{.{.{.{.I.U.J.U.J.E.E.E.E.P.E.E.E.E.E.E.E.E.E.E.E.E.E.E.E.E.E.E.P.P.H.H.P.J.J.J.J.J.y . . & i.S.S.J.S.J.S.J.J.J.J.{.{.{.{.{.{.{.{.{.{.{.",
"{.{.{.{.{.{.{.{.{.{.j.z.G.E.E.E.E.E.H.E.H.E.E.E.E.E.E.E.E.E.E.E.E.E.E.E.E.E.E.E.H.P.J.P.P.J.J.J.J.y.# . & y.J.S.S.J.J.J.J.J.J.S.J.{.{.{.{.{.{.{.{.{.{.",
"{.{.{.{.{.{.{.{.{.i.y.6.y.i.z.J.E.E.E.E.E.E.E.E.E.E.E.E.E.E.E.E.E.E.E.E.E.E.E.H.P.J.H.H.H.P.J.J.J.j.o . # i.S.S.S.J.S.J.S.J.J.J.J.J.{.{.{.{.{.{.{.{.{.",
"{.{.{.{.{.{.{.{.j.i.y r 8 8 8 y i.D.E.W.E.E.E.E.E.E.E.E.E.E.E.E.E.E.E.E.E.H.P.J.H.P.P.J.J.J.J.J.H.a.# . # y J.S.J.J.J.J.J.J.J.S.J.J.{.{.{.{.{.{.{.{.{.",
"{.{.{.{.{.{.{.G.F.l.i.r 8 < < < < < 8 z.E.W.E.E.E.E.E.E.E.E.E.E.E.E.E.E.E.E.J.E.J.E.E.J.J.J.S.J.J.j.& . # y.P.S.J.J.J.J.S.J.S.J.J.S.J.{.{.{.{.{.{.{.{.",
"{.{.{.{.{.{.{.G.G.I.S.j.y 8 < > & & & > < i.J.W.E.E.E.E.E.E.E.E.E.E.E.E.E.E.E.J.J.J.J.J.J.J.J.J.J.z.& o # y.S.J.S.J.J.J.J.J.J.J.J.J.J.J.{.{.{.{.{.{.{.",
"{.{.{.{.{.{.G.G.G.J.J.T.G.j.y < > $ # # # # > r z.W.W.E.E.E.E.E.E.E.E.E.E.E.J.E.J.E.E.J.J.J.J.S.J.z.< o & y H.S.J.J.J.J.S.S.S.J.J.S.J.J.H.{.{.{.{.{.{.",
"{.{.{.{.{.C.G.G.G.J.U.I.P.E.T.z.y 6 > $ # # # & > 6 i.E.W.W.E.E.E.W.E.E.E.E.E.E.J.J.J.J.J.J.J.J.J.J.& # # i.J.J.S.J.J.J.J.S.J.J.J.J.S.J.J.{.{.{.{.{.{.",
"{.{.{.{.{.A.F.G.G.G.I.I.P.U.U.E.E.J.i.8 > & # o o # & < y S.E.W.E.E.E.E.E.E.E.E.E.E.J.J.J.J.J.S.J.j.& # > i.S.J.S.J.J.S.J.J.J.J.J.S.J.S.J.J.{.{.{.{.{.",
"{.{.{.{.C.A.F.G.G.G.G.I.I.U.U.U.E.E.T.P.j.8 < > # o # # & > r z.E.W.W.E.E.E.E.E.E.J.E.J.J.J.J.J.J.j.> o > i.H.S.J.J.J.J.J.S.J.S.J.J.J.J.J.H.{.{.{.{.{.",
"{.{.{.V A e.x.n.F.I.I.G.I.I.U.U.E.E.E.E.W.E.z.y.6 > # o . o # > 8 j.J.W.E.E.E.E.E.E.E.J.J.J.J.S.J.j.# o > z.J.J.J.J.J.J.J.J.J.J.S.J.S.J.J.J.J.{.{.{.{.",
"{.{.{.N D F P { c.M.D.I.I.I.J.U.E.E.E.E.E.E.W.T.E.a.8 < o . . . o > 8 y.S.E.E.J.E.E.E.J.J.J.J.J.J.y # o > j.J.S.S.J.J.S.J.J.S.J.J.J.J.J.S.J.J.{.{.{.{.",
"{.{.{.m L *.*.) ) ' o.v.B.U.T.I.P.E.E.E.E.E.E.E.E.W.E.z.8 # o . . . . & < y z.E.E.E.E.J.J.J.J.J.Y.6 # o < j.J.S.J.J.J.S.J.S.J.J.J.S.J.J.S.J.J.J.{.{.{.",
"{.{.n m L X.>.r.>.] E I O.e.V.P.T.E.E.E.E.E.E.E.E.E.E.E.W.S.r & o . . . . # 6 y j.J.E.H.J.J.J.J.z.< o # 6 S.S.J.J.S.J.J.J.J.S.J.J.J.J.J.J.J.S.J.{.{.{.",
"{.{.n v D ' :.>.r.^.r.&.^ E ' +.N.K.E.T.E.E.E.E.E.E.E.E.E.W.W.E.y.< o . . . . o < r i.S.J.J.E.J.j.> o # r H.J.S.J.J.J.S.J.J.J.J.S.J.S.J.J.J.J.J.{.{.{.",
"{.{.0.B c s I *.r.t.^.(.(.t.( z f { B.P.E.E.E.E.E.W.E.E.E.E.W.E.W.W.S.6 # o . . o # > r i.j.J.J.y.& # & j.J.S.S.J.S.J.J.S.J.S.J.J.J.J.J.S.J.S.J.H.{.{.",
"{.p.w.w.q.V M F I &.t.(._.`.`._.` j d } L.R.R.E.E.E.E.W.E.E.E.E.E.E.W.E.j.r & # # # o o & 6 y.y.8 & & < S.S.J.J.J.S.J.J.J.S.J.J.S.J.J.J.J.J.J.J.J.{.{.",
"{.p.8.w.s.s.h.x.C H W &.(.`.`.].`.).] z j J V.R.W.E.E.E.E.E.E.E.E.E.E.E.E.E.H.j.6 & # # # # & < & & < y.S.J.S.J.J.J.J.S.J.J.S.J.J.J.J.S.S.J.S.J.J.{.{.",
"{.9.8.w.w.s.g.A.A.b.{ I E &._.].[.[._./.=.x g G @.L.E.E.T.W.E.W.E.W.E.E.E.E.E.E.J.j.8 > # # & & # & 6 j.S.S.S.J.J.J.J.J.J.J.J.J.S.J.J.J.J.J.J.S.J.J.{.",
"{.8.8.8.w.s.f.l.A.A.n.c.} U ] -.(.[.[.[._.3.! k p d [ !.N.L.E.T.E.E.E.E.E.E.E.E.E.J.S.j.r < & > > < y z.J.S.J.J.J.S.J.S.J.J.S.J.J.J.S.J.S.J.J.J.J.J.{.",
"w.8.8.8.w.w.s.g.A.F.G.I.D.v.O...&.2.).[.[.[.).=.Q h p j G [ Q.V.J.E.E.E.E.E.E.H.E.J.H.J.S.j.j.r y y.j.S.S.J.S.S.J.J.J.J.J.J.J.J.S.J.J.S.J.J.S.J.S.S.{.",
"w.8.8.8.8.w.f.f.C.A.F.P.I.T.I.N.O.| %.t.).'.).)./.=.x h a g f U @.V.P.H.E.E.E.E.P.J.J.J.P.J.J.J.S.S.S.J.J.S.J.J.S.J.J.S.S.J.J.S.J.J.J.J.S.J.J.J.J.J.{.",
"w.8.8.8.8.w.d.f.C.A.F.G.G.I.U.I.E.B.o.Y $.2./.).)./.3.` x a u i f K N.R.R.E.P.E.H.J.J.J.J.J.J.J.J.S.J.J.J.S.S.J.J.S.J.J.J.J.J.J.S.J.J.S.J.S.J.S.J.S.{.",
"4.5.7.8.8.w.w.d.g.A.F.A.G.G.J.U.E.T.R.K.Q.| $.2./.)./.3.;.` Q h k j f [ V.P.E.H.J.J.J.J.J.J.J.J.J.J.J.J.J.S.J.J.J.J.J.J.J.J.S.J.J.J.J.J.J.J.J.J.J.H.Y.",
": 2 9 4.7.w.w.s.g.C.A.F.F.I.I.U.I.I.I.E.Y.E.V.#.$.-.3.3.;.-.=._ x k g f o.J.E.J.J.J.J.J.J.H.J.J.J.J.J.J.S.J.J.S.J.J.J.J.S.J.J.S.J.J.J.J.J.S.J.S.S.S.{.",
"; ; ; : 9 7.w.s.g.C.C.F.F.J.J.U.I.I.I.I.E.E.E.R.K.~./ ( -.;.;.=._ x h g J K.E.H.J.J.J.J.J.J.P.J.J.J.J.J.J.J.J.S.J.S.J.S.J.J.J.J.J.S.S.J.J.J.J.J.S.J.J.",
"1 ; * @ - : 9 8.f.C.C.A.A.G.J.J.E.I.I.I.E.I.E.P.E.Y.T.!. .~ ( ` ! R k g J R.J.J.J.J.J.P.J.P.H.J.J.J.J.J.S.J.J.J.S.J.J.J.J.J.J.S.J.J.J.J.J.J.J.S.J.J.S.",
"4.4 ; ; * * - : 4 8.g.F.G.G.J.I.J.I.I.I.E.H.P.E.T.E.E.R.T.V.#.Y ~ l k j Q.R.P.J.J.J.J.D.D.D.J.H.J.J.J.J.J.J.S.J.J.J.J.S.J.S.J.J.J.J.S.J.J.S.J.J.S.S.{.",
"7.4.0 4 ; @ @ ; - ; 3 4.z.G.G.G.E.J.I.I.I.J.E.E.E.E.E.E.P.Y.T.P.!.o.} o.E.H.J.J.J.H.N.@.[ o.M.Y.J.J.J.J.J.S.J.S.S.J.J.S.J.S.J.J.J.S.J.S.J.J.J.S.S.S.J.",
"8.8.7.5.0 4 ; ; $ # # - 6 y k.G.E.E.I.I.J.I.E.J.P.E.I.E.E.E.E.E.E.P.L.K.E.J.J.J.J.J.S ~ W T G S D.J.J.J.J.J.J.J.J.J.J.J.J.J.S.J.J.J.J.J.J.J.S.J.S.S.J.",
"w.8.8.8.8.7.e 4 - % + + # = 3 y j.J.P.I.J.J.J.E.E.H.P.E.E.E.E.J.J.E.Y.E.J.J.J.J.J.J.@.W ! ` _ J S.H.J.S.J.S.J.J.J.J.J.J.J.J.J.J.S.J.J.S.S.J.S.J.J.S.{.",
"w.8.8.8.8.w.w.w.e 3 - $ + O o $ 6 y.m.J.E.E.E.J.J.E.P.E.E.J.E.E.E.E.E.J.J.J.J.J.J.J.Q.^ _ -.( [ H.J.J.J.J.J.S.J.S.J.J.S.S.J.S.J.J.J.J.J.J.J.S.S.S.S.{.",
"w.8.8.8.8.w.w.w.s.s.7.3 & + o o . O < y.z.G.J.E.E.P.H.E.I.P.I.I.E.J.J.J.J.J.J.J.J.J.D.O./ =.Y M.H.J.D.H.S.J.J.J.S.J.S.J.J.S.H.J.J.J.J.J.J.J.S.J.S.S.{.",
"{.8.8.8.8.w.w.w.w.s.g.g.p.7 % o o X . . & r j.S.J.E.E.H.P.I.I.I.J.J.J.J.J.J.J.J.J.J.Y.J.v.Q.N.H.H.J.H.D.J.J.S.J.J.J.J.J.J.J.J.J.S.J.S.J.J.H.S.S.S.S.{.",
"{.9.8.8.7.w.w.p.s.s.d.f.l.C.g.4.& . . . . o & 6 j.S.P.H.E.H.I.J.E.J.E.J.J.J.J.J.J.P.J.P.Y.J.J.J.J.J.D.J.S.J.S.J.J.J.S.J.J.S.S.J.J.J.J.J.S.J.J.S.J.J.{.",
"{.w.8.8.7.9.w.p.w.s.s.d.d.l.l.A.G.i.< o . X X o o < i.A.S.P.I.I.J.J.J.J.J.J.J.J.J.J.H.J.J.J.J.J.J.J.J.J.J.J.J.J.J.S.J.J.J.J.J.J.S.H.S.S.J.S.S.S.S.{.{.",
"{.w.8.8.8.8.w.w.w.w.w.g.g.g.g.C.A.A.A.s.7 # o . . . o < y a.z.J.J.J.J.J.J.J.J.J.J.J.H.J.J.J.J.J.J.J.J.J.J.S.J.J.J.J.S.J.J.J.J.S.J.S.J.S.J.S.J.S.S.{.{.",
"{.{.8.8.8.8.9.w.w.s.w.f.g.g.g.g.g.C.A.A.l.i.8 & . . . o & < y j.J.J.J.J.J.J.J.J.J.J.J.J.J.J.J.J.J.S.S.J.J.J.J.S.J.S.J.J.S.J.J.J.J.H.S.J.J.S.S.S.S.{.{.",
"{.{.8.8.8.8.9.w.w.w.f.s.s.f.g.g.g.A.l.A.S.A.A.p.r > o . o O > 8 y.S.J.J.E.J.J.J.J.J.J.J.J.J.J.J.J.J.J.J.J.S.J.J.J.J.J.J.J.S.J.S.S.S.S.S.S.S.J.S.H.{.{.",
"{.{.w.8.8.8.8.w.s.s.w.s.s.f.g.g.l.g.g.A.A.A.S.G.A.y.6 & # + # # > y S.J.J.J.J.J.J.J.J.S.J.J.J.J.J.S.J.J.J.J.S.J.J.S.J.S.J.J.J.J.H.S.J.J.S.S.S.S.{.{.{.",
"{.{.{.9.8.8.8.9.w.s.s.s.s.s.f.f.g.g.l.A.A.A.A.A.S.J.G.i.6 > & $ & & < y.S.H.J.J.J.J.J.J.J.J.J.J.S.J.J.J.J.S.J.S.J.S.J.S.J.J.J.J.J.S.S.S.S.S.S.S.{.{.{.",
"{.{.{.w.8.8.8.8.w.w.s.s.s.f.w.f.f.g.l.l.A.A.A.A.S.G.G.U.J.a.8 & # # # & < y.S.J.J.J.J.J.J.J.J.S.J.J.H.S.J.J.J.J.J.J.J.J.J.S.S.J.J.S.S.S.S.S.S.J.{.{.{.",
"{.{.{.{.8.8.8.8.w.w.s.s.s.s.f.s.f.f.g.l.g.C.A.A.A.A.G.G.G.G.S.i.6 > # & > < r S.J.J.J.J.J.J.J.J.S.J.S.J.J.J.J.S.J.S.J.J.S.J.J.J.J.S.S.J.S.S.J.{.{.{.{.",
"{.{.{.{.8.8.8.8.9.w.w.s.s.s.s.w.s.f.g.g.l.g.C.Z.A.A.A.G.G.J.G.F.S.i.8 < # & < i.J.J.J.J.J.J.S.J.J.J.J.J.J.S.J.J.J.J.S.J.J.J.J.J.S.S.S.S.S.S.J.{.{.{.{.",
"{.{.{.{.w.8.9.8.8.9.w.w.w.w.s.s.s.s.d.g.l.l.C.C.m.A.A.A.S.S.G.S.J.S.S.y & # < j.S.H.D.J.J.J.J.S.J.S.J.J.S.J.J.J.J.S.S.J.J.S.J.S.S.S.S.S.S.S.{.{.{.{.{.",
"{.{.{.{.{.w.8.8.8.8.w.w.f.w.w.s.s.s.s.d.f.g.l.l.l.C.A.A.A.S.S.S.S.J.j.8 & > 6 j.D.S.J.S.J.S.J.J.J.J.J.S.J.J.S.J.J.J.J.J.J.J.J.J.J.S.S.S.S.{.{.{.{.{.{.",
"{.{.{.{.{.{.8.8.8.8.9.w.s.w.s.s.p.d.s.d.d.f.g.l.l.l.A.A.A.A.S.S.S.S.y & # & 8 j.S.S.S.S.S.S.J.J.J.J.J.J.J.J.J.S.S.J.J.J.J.J.S.S.S.S.S.S.S.{.{.{.{.{.{.",
"{.{.{.{.{.{.w.8.8.8.8.8.w.s.s.w.s.s.p.p.s.s.d.f.g.l.l.l.l.A.z.A.S.j.6 o # > y.J.S.S.S.S.S.S.S.S.S.S.J.J.S.J.J.J.H.J.S.J.S.J.J.S.S.S.S.S.{.{.{.{.{.{.{.",
"{.{.{.{.{.{.{.w.8.8.8.7.w.w.s.w.p.p.a.p.p.p.p.d.f.f.l.l.m.z.z.m.z.r # o # 8 j.J.S.S.S.S.S.S.S.S.S.S.J.J.J.J.J.S.J.S.J.S.J.J.S.S.J.S.S.J.{.{.{.{.{.{.{.",
"{.{.{.{.{.{.{.{.8.8.8.7.8.9.w.s.p.p.p.p.p.p.p.p.p.d.d.f.j.j.j.m.y.& . . & j.S.D.S.S.S.S.S.S.S.S.S.S.S.S.J.J.J.J.J.J.J.J.J.S.J.S.S.S.S.{.{.{.{.{.{.{.{.",
"{.{.{.{.{.{.{.{.{.8.8.8.8.8.w.w.p.p.p.p.p.p.p.p.p.p.s.d.x.a.j.j.< . . o 8 D.j.z.j.S.j.S.S.S.S.S.S.S.S.S.S.j.S.J.S.J.S.J.J.S.S.S.S.S.{.{.{.{.{.{.{.{.{.",
"{.{.{.{.{.{.{.{.{.{.8.8.8.8.8.w.p.p.p.p.p.p.p.p.p.p.p.p.i.j.a.8 . . o > a.j.j.z.S.j.S.S.D.j.S.S.S.J.j.S.S.S.S.J.j.S.S.S.S.S.S.S.S.{.{.{.{.{.{.{.{.{.{.",
"{.{.{.{.{.{.{.{.{.{.w.8.8.8.7.7.9.w.p.p.u.s.p.p.u.p.u.u.p.u.3 +   X = q k.k.k.k.l.l.m.l.C.C.A.A.S.A.S.A.S.S.S.S.S.Z.S.S.z.A.S.S.{.{.{.{.{.{.{.{.{.{.{.",
"{.{.{.{.{.{.{.{.{.{.{.{.8.8.7.7.7.8.w.p.s.u.9.s.p.u.u.u.8.7 X . X & q u.s.s.j.k.k.k.l.l.k.C.k.z.z.A.A.A.A.A.A.A.S.S.z.S.Z.z.z.{.{.{.{.{.{.{.{.{.{.{.{.",
"{.{.{.{.{.{.{.{.{.{.{.{.w.8.8.7.7.7.7.9.p.p.w.w.w.p.u.e ; X   X = 7 y.u.p.p.s.d.j.d.j.f.k.k.k.k.k.k.C.C.z.Z.A.A.A.Z.S.Z.z.z.{.{.{.{.{.{.{.{.{.{.{.{.{.",
"{.{.{.{.{.{.{.{.{.{.{.{.{.{.9.7.7.7.7.7.8.w.9.9.7.t 2 +   X + - 0 8.u.u.u.u.u.u.u.p.d.d.s.d.k.f.j.d.j.k.z.k.z.z.z.l.z.l.l.{.{.{.{.{.{.{.{.{.{.{.{.{.{.",
"{.{.{.{.{.{.{.{.{.{.{.{.{.{.{.w.7.7.7.7.5.7.7.e 2 @ X   X $ , w 8.9.8.9.u.u.9.9.u.9.u.u.s.s.p.a.d.j.d.d.j.k.k.l.l.l.j.d.{.{.{.{.{.{.{.{.{.{.{.{.{.{.{.",
"{.{.{.{.{.{.{.{.{.{.{.{.{.{.{.{.w.7.7.7.5.0 2 * + X X + ; 9 5.9.y.9.u.9.8.8.8.7.8.8.7.8.9.u.p.p.u.p.d.d.d.d.j.k.k.j.{.{.{.{.{.{.{.{.{.{.{.{.{.{.{.{.{.",
"{.{.{.{.{.{.{.{.{.{.{.{.{.{.{.{.{.{.t 9 1 - @ + + + * 3 t 6.8.8.9.9.8.8.9.9.7.7.8.6.5.5.V 4.y.p.u.u.u.p.p.d.d.d.u.{.{.{.{.{.{.{.{.{.{.{.{.{.{.{.{.{.{.",
"{.{.{.{.{.{.{.{.{.{.{.{.{.{.{.{.{.{.{.* % % @ * ; 4 0 5.7.5.8.6.8.6.8.6.7.6.5.5.5.5.5.5.4.4.4.4.7.9.u.u.p.p.8.{.{.{.{.{.{.{.{.{.{.{.{.{.{.{.{.{.{.{.{.",
"{.{.{.{.{.{.{.{.{.{.{.{.{.{.{.{.{.{.{.{.{.- 2 7 4.5.5.4.5.5.5.5.5.5.5.5.5.5.5.5.5.5.4.5.5.5.4.5.5.5.7.u.7.{.{.{.{.{.{.{.{.{.{.{.{.{.{.{.{.{.{.{.{.{.{.",
"{.{.{.{.{.{.{.{.{.{.{.{.{.{.{.{.{.{.{.{.{.{.{.5.4.5.5.5.5.4.5.5.e 5.5.5.5.5.5.5.4.5.5.5.5.5.5.5.5.7.8.{.{.{.{.{.{.{.{.{.{.{.{.{.{.{.{.{.{.{.{.{.{.{.{.",
"{.{.{.{.{.{.{.{.{.{.{.{.{.{.{.{.{.{.{.{.{.{.{.{.{.{.{.7.7.5.4.5.5.5.5.5.5.5.5.5.5.5.5.5.5.5.7.8.{.{.{.{.{.{.{.{.{.{.{.{.{.{.{.{.{.{.{.{.{.{.{.{.{.{.{."
};
