/* XPM */
static char *_4[] = {
/* columns rows colors chars-per-pixel */
"75 75 151 2 ",
"   c #2F2C30",
".  c #322F34",
"X  c #353435",
"o  c #373239",
"O  c #3A353B",
"+  c #3B3A3B",
"@  c #3F3C40",
"#  c #423D43",
"$  c #473F49",
"%  c #434343",
"&  c #464148",
"*  c #4A454B",
"=  c #4B4B4B",
"-  c #4E4650",
";  c #524D53",
":  c #535353",
">  c #575059",
",  c #5A555B",
"<  c #5C5B5C",
"1  c #5F5961",
"2  c #615663",
"3  c #625B64",
"4  c #665B69",
"5  c #695E6B",
"6  c #646364",
"7  c #666068",
"8  c #69656A",
"9  c #6B6B6B",
"0  c #6E6671",
"q  c #706672",
"w  c #736C75",
"e  c #766C79",
"r  c #7A6D7D",
"t  c #747374",
"y  c #7A737C",
"u  c #7B7B7B",
"i  c #E90E0E",
"p  c #E71515",
"a  c #EB1010",
"s  c #E71C1C",
"d  c #EA1C1C",
"f  c #DB3C3C",
"g  c #E52424",
"h  c #EC2424",
"j  c #E22A2A",
"k  c #EC2B2B",
"l  c #F02A2A",
"z  c #EE3737",
"x  c #E03E3E",
"c  c #EE3B3B",
"v  c #F13131",
"b  c #F33838",
"n  c #D74444",
"m  c #DF4949",
"M  c #CD5454",
"N  c #CF5C5C",
"B  c #D25252",
"V  c #DC5555",
"C  c #D65D5E",
"Z  c #DA5D5D",
"A  c #E54747",
"S  c #EB4141",
"D  c #E44949",
"F  c #EB4E4E",
"G  c #F24343",
"H  c #F24C4C",
"J  c #EC5252",
"K  c #E25B5B",
"L  c #EC5A5A",
"P  c #F35454",
"I  c #F45C5C",
"U  c #CC6363",
"Y  c #C66F6F",
"T  c #CB6A6A",
"R  c #D26363",
"E  c #DA6262",
"W  c #D26A6A",
"Q  c #DD6B6B",
"!  c #C57575",
"~  c #CB7373",
"^  c #C27D7D",
"/  c #D07070",
"(  c #E56262",
")  c #EE6666",
"_  c #E66B6B",
"`  c #E96C6C",
"'  c #F56262",
"]  c #F86363",
"[  c #F46A6A",
"{  c #F86C6C",
"}  c #EE7373",
"|  c #F27373",
" . c #F87070",
".. c #F47778",
"X. c #F37A7A",
"o. c #F97C7C",
"O. c #7D6F81",
"+. c #7F7182",
"@. c #817385",
"#. c #837A85",
"$. c #857789",
"%. c #87798A",
"&. c #897D8C",
"*. c #8C7F90",
"=. c #838383",
"-. c #8C828E",
";. c #8C8C8C",
":. c #8E8291",
">. c #8F8A91",
",. c #908693",
"<. c #938B95",
"1. c #968E99",
"2. c #988E9A",
"3. c #939394",
"4. c #979198",
"5. c #9A949B",
"6. c #9D9B9D",
"7. c #BC8282",
"8. c #B78B8B",
"9. c #BE8B8B",
"0. c #AE999C",
"q. c #B69393",
"w. c #BA9393",
"e. c #B49C9C",
"r. c #BA9D9D",
"t. c #9E97A0",
"y. c #9F9AA0",
"u. c #A19DA2",
"i. c #A5A5A5",
"p. c #ADA5A5",
"a. c #A7A5A8",
"s. c #A9A6A9",
"d. c #A7AFAF",
"f. c #AAAAAA",
"g. c #B4A3A3",
"h. c #B9A1A1",
"j. c #B1ACAC",
"k. c #AFAFB0",
"l. c #B0AFB0",
"z. c #A7B0B0",
"x. c #AEB5B5",
"c. c #AEB9B9",
"v. c #B1B1B1",
"b. c #C28080",
"n. c #F68282",
"m. c #FA8585",
"M. c #F68C8C",
"N. c #F98B8B",
"B. c #FA9494",
"V. c #FB9A9A",
"C. c None",
/* pixels */
"C.C.C.C.C.C.C.C.C.C.C.C.C.C.C.C.C.C.C.C.C.C.C.C.C.C.C.C.C.C.C.C.C.C.C.C.C.C.C.C.C.C.C.C.C.C.C.C.C.C.C.C.C.C.C.C.C.C.C.C.C.C.C.C.C.C.C.C.C.C.C.C.C.C.C.",
"C.C.C.C.C.C.C.C.C.C.C.C.C.C.C.C.C.C.C.C.C.C.C.C.C.C.C.C.C.C.C.C.C.C.f.f.v.v.f.v.C.C.C.C.C.C.C.C.C.C.C.C.C.C.C.C.C.C.C.C.C.C.C.C.C.C.C.C.C.C.C.C.C.C.C.",
"C.C.C.C.C.C.C.C.C.C.C.C.C.C.C.C.C.C.C.C.C.C.C.C.C.C.C.C.v.v.f.v.v.v.f.v.f.v.v.v.v.j.f.v.v.d.C.C.C.C.C.C.C.C.C.C.C.C.C.C.C.C.C.C.C.C.C.C.C.C.C.C.C.C.C.",
"C.C.C.C.C.C.C.C.C.C.C.C.C.C.C.C.C.C.C.C.C.C.C.C.C.v.v.x.v.v.v.v.v.v.v.v.v.v.v.f.d.j.v.v.v.k.v.k.v.C.C.C.C.C.C.C.C.C.C.C.C.C.C.C.C.C.C.C.C.C.C.C.C.C.C.",
"C.C.C.C.C.C.C.C.C.C.C.C.C.C.C.C.C.C.C.C.C.C.v.v.v.v.k.v.v.k.v.v.v.v.v.v.v.v.v.f.v.v.f.f.v.d.v.v.v.f.v.f.C.C.C.C.C.C.C.C.C.C.C.C.C.C.C.C.C.C.C.C.C.C.C.",
"C.C.C.C.C.C.C.C.C.C.C.C.C.C.C.C.C.C.C.C.3.;.6.v.v.v.v.v.k.v.f.v.v.f.v.v.v.f.v.v.v.f.v.v.v.j.v.v.v.v.v.v.v.v.C.C.C.C.C.C.C.C.C.C.C.C.C.C.C.C.C.C.C.C.C.",
"C.C.C.C.C.C.C.C.C.C.C.C.C.C.C.C.C.C.f.3.;.=.=.3.i.k.k.k.v.v.v.v.v.v.v.v.v.v.f.v.v.v.v.v.v.f.v.k.v.v.v.v.f.v.f.f.C.C.C.C.C.C.C.C.C.C.C.C.C.C.C.C.C.C.C.",
"C.C.C.C.C.C.C.C.C.C.C.C.C.C.C.C.C.v.d.i.;.u t t ;.i.k.k.v.v.v.v.v.v.v.f.v.v.v.v.v.f.v.v.v.j.k.v.v.v.v.f.v.v.v.f.f.C.C.C.C.C.C.C.C.C.C.C.C.C.C.C.C.C.C.",
"C.C.C.C.C.C.C.C.C.C.C.C.C.C.C.f.j.v.v.v.3.=.9 6 9 =.v.v.v.v.v.v.f.v.v.v.v.v.v.v.v.v.v.j.v.j.k.v.v.v.v.v.v.v.j.f.v.f.f.C.C.C.C.C.C.C.C.C.C.C.C.C.C.C.C.",
"C.C.C.C.C.C.C.C.C.C.C.C.C.C.l.f.v.v.v.v.v.3.t 6 < 6 u f.v.v.v.v.v.v.v.v.v.v.v.v.v.v.v.v.v.v.v.k.v.v.v.v.j.v.v.d.f.f.d.6.C.C.C.C.C.C.C.C.C.C.C.C.C.C.C.",
"C.C.C.C.C.C.C.C.C.C.C.C.h.h.l.k.j.v.v.v.v.d.;.9 < : < t f.v.v.v.v.v.v.v.v.v.v.v.v.v.v.v.f.v.k.v.v.d.d.j.d.j.j.f.v.f.i.u 6 < C.C.C.C.C.C.C.C.C.C.C.C.C.",
"C.C.C.C.C.C.C.C.C.C.C.! / *.e.j.d.v.v.v.v.v.i.=.6 : = = t i.v.v.v.v.v.v.v.v.v.v.k.v.v.j.v.v.v.v.v.j.j.v.v.v.v.f.f.f.6.t < < u C.C.C.C.C.C.C.C.C.C.C.C.",
"C.C.C.C.C.C.C.C.C.C.C Z ( Z ~ w.j.v.v.v.v.v.v.f.u < = = = t 6.v.v.v.v.v.v.v.v.v.v.v.v.v.v.v.v.k.v.v.j.d.j.d.f.f.d.f.i.t < < u 6.C.C.C.C.C.C.C.C.C.C.C.",
"C.C.C.C.C.C.C.C.C.T E )  ...L ~ w.v.v.v.v.v.v.v.v.=.< % % % 9 f.v.v.v.v.v.v.v.v.v.v.v.v.v.k.k.v.v.v.j.v.v.v.v.f.f.f.i.u : < u 3.6.C.C.C.C.C.C.C.C.C.C.",
"C.C.C.C.C.C.C.C.0.! V L ..n.X.L / w.v.v.v.v.v.v.v.v.=.: % % % 9 v.v.v.v.v.v.v.v.v.v.v.v.v.v.v.v.v.v.v.f.f.f.v.f.f.f.6.t : : u 6.i.i.C.C.C.C.C.C.C.C.C.",
"C.C.C.C.C.C.C.C.s.p.U D | n.m...J Q r.v.v.v.v.v.v.x.x.u : % % = 9 v.x.v.v.v.v.v.v.v.v.v.v.v.k.k.f.f.v.f.v.f.f.f.f.f.6.9 = = t 6.u.f.C.C.C.C.C.C.C.C.C.",
"C.C.C.C.C.C.C.a.s.j.w.R L } n.n.} ( / w.j.x.l.x.v.v.v.s.+.< = % = t 6.v.v.v.v.v.v.v.v.v.v.v.v.j.f.f.f.v.v.f.f.f.f.i.3.< % = t 6.i.i.i.C.C.C.C.C.C.C.C.",
"C.C.C.C.C.C.u.s.s.s.g.w.R L | n.n.| ( / 9.g.l.l.v.v.v.v.i.u : % % = t 6.v.v.v.v.v.v.v.v.v.v.d.j.v.f.f.f.f.f.f.f.f.i.=.: + % t 3.i.i.i.i.C.C.C.C.C.C.C.",
"C.C.C.C.C.C.f.f.s.k.k.k.0.Z L n.m.M.n.F W w.v.v.v.v.v.v.v.v.u : % + = 9 j.v.v.v.v.v.v.v.v.v.j.d.f.j.f.v.f.f.f.f.f.i.t % + : u 6.i.i.i.f.C.C.C.C.C.C.C.",
"C.C.C.C.C.u.f.f.s.s.k.k.l.e.Z L n.B.B.n.S C r.v.v.v.v.v.v.v.x.=.: % % % t v.v.v.v.v.v.v.v.j.j.f.d.f.f.f.f.f.i.f.i.6.6 + + : ;.i.i.i.f.i.f.C.C.C.C.C.C.",
"C.C.C.C.C.u.s.f.s.j.k.k.k.j.w.V L M.V.V.n.k N g.l.v.v.v.v.v.v.v.u : + + % t j.v.x.v.v.v.v.v.j.d.j.f.f.f.f.f.f.i.i.;.: + % 6 3.i.i.i.f.f.f.C.C.C.C.C.C.",
"C.C.C.C.<.u.a.f.s.f.s.l.f.x.g.b.Z ) M.V.B. .A T h.l.v.v.v.v.v.v.p.t = + + = u p.v.v.v.v.v.d.d.j.d.f.f.f.f.f.f.i.f.=.= + % u 6.i.f.i.i.f.f.d.C.C.C.C.C.",
"C.C.C.3 +.5.u.j.f.f.k.f.l.v.x.g.! V [ V.V.V.[ j / v.v.v.v.v.v.v.v.v.9 + + X = u v.c.v.v.v.v.j.d.j.v.f.f.f.f.i.f.6.6 + + : ;.i.f.i.f.f.f.f.i.i.C.C.C.C.",
"C.C.C.; 6 +.5.a.k.f.f.f.k.v.v.v.h.~ ( X.V.V.M.[ l b.c.v.v.v.v.v.v.x.v.9 + X X : =.v.c.v.j.v.v.j.f.f.f.f.f.i.f.i.3.: + % 9 3.i.i.i.i.f.i.f.f.f.C.C.C.C.",
"C.C.5 3 1 3 +.y.f.f.f.k.l.v.v.l.x.g.~ _ n.B.V.N.I g b.c.v.v.v.x.v.v.v.v.t + X X = u v.v.v.v.j.d.d.f.f.f.i.f.f.i.=.= % = =.i.i.i.i.f.f.f.f.f.f.i.C.C.C.",
"C.C.+.8 , 1 6 =.f.f.f.f.f.l.l.v.l.x.g./ ` m.V.V.m.J g ^ x.v.v.x.v.c.v.c.v.9 + X X = =.d.v.v.v.j.f.f.f.f.f.i.i.i.9 % = 6 ;.d.i.i.f.i.f.i.i.f.f.i.C.C.C.",
"C.C.*.@.7 , , 6 -.l.k.f.l.l.l.v.l.l.c.h.W } N.B.V. .z g ~ l.v.v.v.v.c.v.v.v.6 + X X : ;.j.v.v.v.f.f.f.i.f.i.f.=.: % = t 6.i.f.f.f.f.f.i.f.i.f.f.C.C.C.",
"C.*.:.&.y 7 , < 7 ;.l.k.f.k.k.v.l.l.l.c.h.R } B.B.B.' l g ~ l.l.v.v.v.v.v.v.j.6 + X X < ;.v.v.d.f.f.f.f.i.f.3.9 = % 6 ;.f.i.f.i.f.i.f.f.f.f.f.i.d.C.C.",
"C.*.*.*.%.y 7 , < 9 ;.v.f.l.k.l.v.v.v.v.c.r.K | N.N.m.I h j ~ h.v.c.v.v.v.v.c.j.< X X X < ;.d.f.f.f.i.f.f.i.=.= % : u 6.f.i.f.f.f.f.f.f.f.i.f.f.f.C.C.",
"C.%.%.*.,.:.y 3 , < 8 ;.v.l.l.v.v.v.v.v.v.c.r.( | m.m.m.H d g N 9.v.v.v.v.v.v.v.i.< + + % < 3.i.f.f.i.f.d.3.6 % % < 3.i.i.f.i.f.i.f.i.f.f.f.f.i.i.C.C.",
"C.%.%.*.*.,.:.y 1 ; : 6 ;.v.f.v.l.v.v.v.v.v.c.h.Q ..N.m.o.G d j ( w.v.v.v.v.v.v.v.f.6 % % % 6 ;.6.i.f.f.6.9 = % = u 6.i.f.i.f.f.i.f.i.f.f.i.f.f.f.C.C.",
":.%.%.%.*.,.2.1.t : = : 8 3.v.v.l.v.v.v.v.v.v.c.h.Q ..m.o.{ b a j E w.v.v.v.v.v.v.v.f.6 + % % 6 ;.i.f.6.u = % = < ;.i.f.i.f.i.f.f.f.f.f.f.f.f.i.f.f.C.",
"*.%.%.%.*.*.*.u.3.8 : = : 6 3.x.k.v.v.v.v.v.v.v.c.r.( | o. .] v h j T e.j.v.v.v.v.v.j.i.< % % % 9 ;.6.;.6 % % : u i.f.i.f.f.f.f.f.i.f.d.i.f.f.i.f.i.C.",
"%.%.%.%.%.*.2.2.u.4.3 = % = 8 3.v.v.k.v.v.v.v.v.j.c.h.K ]  .{ I v s f ! j.v.d.v.v.v.v.d.6.< % % = 6 t 6 = % = t 3.i.i.i.i.f.f.f.f.f.f.i.i.f.f.f.i.f.C.",
"%.%.%.$.%.*.,.2.t.a.4.6 = % & t 6.v.j.k.v.f.v.v.j.v.c.r.K )  .[ P k g f 9.c.v.v.v.v.d.j.f.3.< = = = : : = : 9 3.d.f.i.f.i.f.f.f.f.i.f.f.f.i.f.i.f.d.C.",
"%.*.%.$.$.*.*.2.5.u.a.5.: % + % t i.v.v.f.v.v.k.v.v.j.x.r.K I ] ' G k j B e.v.j.v.j.f.f.f.f.;.6 = = = = < t 3.i.i.i.f.i.f.f.f.i.f.f.i.f.f.f.f.f.f.d.C.",
"$.*.$.$.%.*.*.,.2.5.u.f.5.; @ + % =.i.k.v.v.v.v.v.v.v.d.x.e.K L P G l s n w.j.v.f.j.f.f.f.f.i.;.t < : < t 3.i.i.i.i.f.f.f.i.f.i.f.i.f.i.f.f.f.f.f.i.C.",
"%.$.$.$.%.*.*.*.2.t.u.u.s.5.= + + % =.i.j.f.f.k.v.v.v.j.v.x.r.Z J c k s n e.v.d.f.f.f.f.f.f.d.f.3.=.u =.;.i.i.i.f.f.i.i.f.i.f.f.f.f.f.f.f.i.f.i.f.f.C.",
"*.$.$.*.*.*.*.*.2.2.u.u.a.k.t.& X X + =.i.v.f.v.v.v.v.v.v.v.c.e.U x g j ! c.f.f.f.f.f.f.f.f.f.f.f.i.3.6.i.i.i.i.i.f.f.f.f.f.i.f.i.f.f.i.f.i.f.f.i.f.C.",
"$.$.$.$.*.*.*.*.*.2.t.u.u.a.k.2.% X + % =.i.v.v.f.v.v.v.v.v.k.v.e.^ U 7.c.j.j.f.f.f.f.f.f.f.f.f.f.f.f.i.i.i.i.f.i.f.f.i.f.i.f.f.f.f.f.f.f.f.f.f.f.i.C.",
"%.%.%.%.*.*.*.*.<.2.2.t.u.u.a.l.;.% X + % =.d.v.k.v.f.j.k.k.v.f.j.p.g.x.d.f.f.f.f.f.f.f.f.f.f.f.f.f.i.f.f.i.i.i.f.f.i.f.f.f.f.f.f.f.i.f.i.f.f.i.f.f.C.",
"%.%.%.%.$.*.*.*.*.2.2.2.u.u.u.s.f.=.% X + % ;.k.k.k.v.v.v.v.v.v.v.v.v.f.f.f.f.f.f.f.f.f.f.f.f.f.f.f.f.f.i.i.f.f.f.i.f.f.f.i.f.i.f.i.f.f.i.f.f.f.f.d.C.",
"%.$.$.%.*.*.*.*.,.2.1.2.t.u.u.a.f.i.u % X X % ;.f.v.k.k.f.v.f.f.j.f.f.f.f.f.f.d.f.8.7.e.f.f.f.f.f.f.f.i.f.i.f.i.f.f.f.f.i.f.f.f.f.f.f.f.f.i.f.f.i.i.C.",
"*.$.%.%.%.*.*.*.*.,.2.2.t.t.u.u.i.f.0.t + X + = ;.i.v.f.v.f.f.v.d.f.f.f.f.f.j.p.7.E V R e.d.f.f.f.f.f.f.f.f.i.f.f.i.f.i.d.f.f.i.f.i.f.i.f.f.f.i.i.f.C.",
"*.$.$.$.%.*.*.*.,.,.2.,.2.t.u.u.i.a.f.6.t + X + : ;.u.k.k.f.f.f.f.f.f.f.f.f.f.p.W H H A M p.f.f.f.f.f.f.i.f.i.i.i.d.p.i.f.f.f.i.f.f.i.f.f.i.f.f.f.f.C.",
"*.$.*.$.%.*.*.*.*.<.,.2.1.2.t.u.u.i.f.f.3.6 + X % < ;.i.f.f.d.f.f.f.f.f.f.f.f.p.R H ' I m 7.f.f.f.f.f.i.f.f.f.f.p.p.d.d.f.i.f.f.f.i.f.f.f.f.f.i.i.i.C.",
"*.$.$.$.$.*.*.*.*.*.,.<.1.1.5.t.u.u.i.a.d.;.: % + = 9 3.f.f.f.f.f.f.f.f.f.f.v.p.Y L [ ' m 8.f.f.f.f.f.f.f.i.d.p.d.p.d.p.d.i.f.i.f.f.f.f.i.f.f.i.f.f.C.",
"C.*.*.$.$.*.*.*.,.*.,.<.1.1.2.t.u.u.0.i.f.v.=.: % + : u 6.f.f.f.f.f.f.f.f.f.f.d.e.Q _ V ^ d.f.f.i.f.f.i.f.f.i.f.i.d.i.f.p.f.f.f.f.i.f.f.i.f.i.f.i.C.C.",
"C.*.*.*.$.%.*.*.*.*.,.<.1.2.1.2.t.u.u.u.u.s.l.#.: * % < ;.i.f.f.f.f.f.f.f.f.d.f.d.p.8.8.d.f.f.i.f.i.f.f.f.f.f.f.i.f.f.i.f.i.f.d.i.f.f.f.f.i.f.i.i.C.C.",
"C.*.%.$.%.$.*.*.,.*.*.,.2.<.1.2.2.t.u.u.u.a.s.k.u = = % 6 6.i.f.f.f.f.f.f.f.f.f.f.d.d.f.f.f.f.f.f.f.f.i.i.f.i.d.f.f.f.f.d.p.d.p.f.f.f.i.f.f.i.i.i.C.C.",
"C.C.$.$.$.$.%.*.*.*.:.,.,.1.2.2.5.t.5.u.u.u.a.s.u.t = % = 8 i.f.f.f.f.f.f.f.d.p.f.f.f.f.f.f.f.f.i.f.f.f.f.f.f.i.i.f.i.i.p.i.i.p.f.f.f.i.i.f.i.i.C.C.C.",
"C.C.*.$.$.$.$.*.*.,.*.,.,.,.1.1.2.5.5.y.u.u.u.s.i.5.9 % = % t f.f.f.f.f.f.f.p.d.p.f.f.f.f.f.i.f.f.f.f.i.i.f.f.f.f.f.f.f.d.d.p.d.i.f.f.f.f.i.i.i.C.C.C.",
"C.C.*.%.$.$.$.%.*.:.:.:.*.,.<.2.1.2.5.5.6.y.u.u.i.i.3.8 % = : =.f.d.i.f.d.p.d.p.f.f.f.f.f.f.i.f.f.f.f.f.f.i.f.f.f.f.f.f.p.f.p.d.f.f.i.f.f.i.i.i.C.C.C.",
"C.C.C.*.$.%.%.$.*.:.*.:.,.*.*.<.1.1.2.5.5.t.u.u.y.i.i.;.6 = = 8 3.p.d.p.i.f.p.d.f.f.i.f.f.i.f.f.f.i.i.f.f.f.i.f.f.p.f.f.d.i.f.i.i.f.f.i.i.i.i.C.C.C.C.",
"C.C.C.*.$.$.$.$.%.&.*.:.:.:.:.,.,.1.1.2.5.t.y.y.y.u.i.y.=.= % : =.i.i.i.i.f.i.f.f.f.f.f.f.f.f.i.f.f.f.f.f.f.f.f.i.f.f.i.i.f.f.f.f.f.i.f.i.i.i.C.C.C.C.",
"C.C.C.C.%.$.$.$.%.%.:.:.:.:.:.:.,.<.1.1.1.2.5.5.6.y.>.u < = = 6 ;.i.f.p.f.i.f.i.i.i.f.f.f.i.f.f.f.i.i.f.i.f.i.f.f.f.f.f.f.f.f.i.i.f.i.i.i.i.C.C.C.C.C.",
"C.C.C.C.&.$.$.$.%.%.:.:.:.&.,.,.:.,.,.<.1.1.4.5.6.<.y = % = : u i.i.f.i.f.f.i.i.i.i.f.f.f.f.f.f.i.f.f.i.f.f.f.f.i.f.d.i.d.d.p.i.f.i.f.i.i.i.C.C.C.C.C.",
"C.C.C.C.C.$.$.$.$.%.%.*.-.,.,.-.:.>.,.,.<.1.1.t.#.6 % + # = 9 ;.i.i.i.f.i.i.f.i.f.i.i.i.i.f.i.f.f.f.f.f.f.f.i.f.f.f.i.f.i.p.i.d.i.f.i.i.i.C.C.C.C.C.C.",
"C.C.C.C.C.&.$.$.$.$.$.%.:.:.&.&.-.-.-.-.>.>.-.w ; + O + ; 8 =.6.i.i.i.i.i.i.i.i.f.i.i.i.i.f.f.f.f.f.f.f.i.f.f.i.i.f.f.f.f.i.i.p.i.i.i.i.i.C.C.C.C.C.C.",
"C.C.C.C.C.C.%.$.@.$.@.$.&.&.&.:.&.-.-.%.+.0 , # o X O ; t ;.3.0.3.i.i.3.6.i.i.i.i.i.i.i.i.i.i.i.f.i.f.i.f.f.f.i.f.i.i.i.i.f.i.f.i.i.i.i.C.C.C.C.C.C.C.",
"C.C.C.C.C.C.C.%.@.O.@.@.r @.@.+.+.r w 4 ; @   . X + - #.5.5.5.5.6.6.6.p.i.i.i.6.p.i.i.i.i.i.i.i.i.i.i.f.f.f.f.f.f.i.i.i.f.i.i.i.i.i.i.C.C.C.C.C.C.C.C.",
"C.C.C.C.C.C.C.C.4 4 4 5 2 , > ; * $ O O . . O + * , #.4.;.;.<.5.3.6.3.6.3.i.6.i.6.i.i.i.i.i.i.i.i.i.i.i.i.i.i.f.i.f.i.i.i.i.i.f.i.i.C.C.C.C.C.C.C.C.C.",
"C.C.C.C.C.C.C.C.- $ $ $ # o O X . . O O @ $ ; 1 r #.>.-.;.8.3.3.3.3.6.6.3.i.6.6.i.6.i.i.i.i.i.i.i.i.i.i.i.i.i.i.i.i.i.i.i.i.i.i.i.i.C.C.C.C.C.C.C.C.C.",
"C.C.C.C.C.C.C.C.C.- - $ $ $ # # * * ; > 2 5 y +.#.&.&.-.;.;.;.;.3.3.3.3.3.3.3.6.6.6.6.3.i.i.i.3.i.i.i.i.i.i.i.i.3.i.i.i.i.i.i.i.i.C.C.C.C.C.C.C.C.C.C.",
"C.C.C.C.C.C.C.C.C.C.2 3 4 4 2 2 5 q e r +.#.&.&.&.&.&.-.&.-.-.-.-.<.>.<.1.4.4.5.5.6.5.5.5.0.6.u.i.u.i.i.y.i.y.u.i.y.i.u.u.6.i.6.C.C.C.C.C.C.C.C.C.C.C.",
"C.C.C.C.C.C.C.C.C.C.C.e r r r O.O.@.#.&.&.&.&.-.&.-.-.&.&.-.-.-.-.-.-.>.:.<.<.4.4.4.5.5.5.5.4.6.6.u.y.i.i.y.u.6.6.6.6.6.u.6.5.C.C.C.C.C.C.C.C.C.C.C.C.",
"C.C.C.C.C.C.C.C.C.C.C.C.@.@.+.O.@.@.@.%.&.&.&.&.&.&.&.-.-.&.-.-.-.-.-.-.:.:.>.<.<.<.<.4.4.5.4.4.3.4.5.5.6.6.6.6.6.6.6.6.6.6.C.C.C.C.C.C.C.C.C.C.C.C.C.",
"C.C.C.C.C.C.C.C.C.C.C.C.C.%.@.@.@.@.@.@.#.%.&.&.-.&.#.-.#.&.&.&.&.&.-.-.-.-.-.-.:.>.<.<.,.<.4.4.4.1.4.4.4.4.5.5.6.5.5.5.3.C.C.C.C.C.C.C.C.C.C.C.C.C.C.",
"C.C.C.C.C.C.C.C.C.C.C.C.C.C.C.$.@.@.@.@.@.@.$.$.&.&.&.&.-.-.&.&.&.#.&.&.&.&.&.&.-.&.-.:.:.>.:.>.<.1.<.<.3.3.4.4.4.4.<.C.C.C.C.C.C.C.C.C.C.C.C.C.C.C.C.",
"C.C.C.C.C.C.C.C.C.C.C.C.C.C.C.C.$.O.@.@.@.@.@.@.#.%.&.&.&.#.#.&.&.&.&.&.&.&.&.%.%.%.$.$.&.-.-.&.-.-.;.<.<.<.<.<.3.>.C.C.C.C.C.C.C.C.C.C.C.C.C.C.C.C.C.",
"C.C.C.C.C.C.C.C.C.C.C.C.C.C.C.C.C.%.@.@.O.@.@.@.+.#.@.$.%.%.&.&.&.&.&.&.#.%.$.$.#.$.@.@.+.#.%.&.%.-.-.-.>.>.>.-.%.C.C.C.C.C.C.C.C.C.C.C.C.C.C.C.C.C.C.",
"C.C.C.C.C.C.C.C.C.C.C.C.C.C.C.C.C.C.C.&.@.@.@.@.@.+.@.+.#.@.#.#.$.#.$.#.$.$.@.@.#.@.@.@.+.@.+.@.#.#.%.&.%.#.@.C.C.C.C.C.C.C.C.C.C.C.C.C.C.C.C.C.C.C.C.",
"C.C.C.C.C.C.C.C.C.C.C.C.C.C.C.C.C.C.C.C.C.%.@.@.@.@.@.@.@.@.@.@.@.@.@.@.@.@.@.@.@.@.@.@.@.@.@.+.+.+.@.@.#.C.C.C.C.C.C.C.C.C.C.C.C.C.C.C.C.C.C.C.C.C.C.",
"C.C.C.C.C.C.C.C.C.C.C.C.C.C.C.C.C.C.C.C.C.C.C.$.@.@.$.@.@.+.O.@.@.@.@.@.@.@.@.@.@.r @.O.r +.O.@.+.@.#.C.C.C.C.C.C.C.C.C.C.C.C.C.C.C.C.C.C.C.C.C.C.C.C.",
"C.C.C.C.C.C.C.C.C.C.C.C.C.C.C.C.C.C.C.C.C.C.C.C.C.C.C.%.@.@.@.@.@.@.@.@.@.O.@.@.O.@.@.@.@.@.$.C.C.C.C.C.C.C.C.C.C.C.C.C.C.C.C.C.C.C.C.C.C.C.C.C.C.C.C."
};
