/* XPM */
static char *_5[] = {
/* columns rows colors chars-per-pixel */
"75 75 158 2 ",
"   c #2B292E",
".  c #2D2B31",
"X  c #312E34",
"o  c #353536",
"O  c #36333A",
"+  c #39363D",
"@  c #3C3C3C",
"#  c #3C3841",
"$  c #403D44",
"%  c #443F4A",
"&  c #434343",
"*  c #46424B",
"=  c #48434D",
"-  c #4B4B4B",
";  c #4C4752",
":  c #4E4C52",
">  c #514E54",
",  c #524D59",
"<  c #535353",
"1  c #55505A",
"2  c #585758",
"3  c #5B5B5B",
"4  c #595361",
"5  c #5E5C62",
"6  c #615F64",
"7  c #655E6D",
"8  c #646464",
"9  c #66616D",
"0  c #686769",
"q  c #6C6C6C",
"w  c #6A6372",
"e  c #6F6C73",
"r  c #716F73",
"t  c #706779",
"y  c #746C7C",
"u  c #737374",
"i  c #767479",
"p  c #787778",
"a  c #7B7B7C",
"s  c #E81313",
"d  c #E41E1E",
"f  c #EC1D1D",
"g  c #DF2A2A",
"h  c #DC3434",
"j  c #DA3C3C",
"k  c #E72222",
"l  c #EB2525",
"z  c #E22B2B",
"x  c #ED2B2B",
"c  c #F12E2E",
"v  c #E23131",
"b  c #EC3232",
"n  c #F13434",
"m  c #F03939",
"M  c #BF7D7E",
"N  c #DB4444",
"B  c #D74A4A",
"V  c #DB4B4B",
"C  c #CC5C5C",
"Z  c #DE5353",
"A  c #DF5B5B",
"S  c #EA4141",
"D  c #E44848",
"F  c #ED4D4D",
"G  c #F24242",
"H  c #F24D4D",
"J  c #E25454",
"K  c #EC5454",
"L  c #E15D5D",
"P  c #EC5B5B",
"I  c #F55757",
"U  c #F45B5B",
"Y  c #D45F60",
"T  c #DF5F60",
"R  c #CB6666",
"E  c #C66C6C",
"W  c #CB6C6C",
"Q  c #D26161",
"!  c #DD6363",
"~  c #D56C6C",
"^  c #DA6F6F",
"/  c #C57474",
"(  c #C97474",
")  c #C57778",
"_  c #C27C7C",
"`  c #C87B7B",
"'  c #D37373",
"]  c #D87171",
"[  c #E26363",
"{  c #ED6465",
"}  c #E66B6B",
"|  c #EE6B6B",
" . c #F46363",
".. c #F36C6C",
"X. c #F86D6D",
"o. c #EA7676",
"O. c #EE7B7B",
"+. c #F27575",
"@. c #F97777",
"#. c #F57D7D",
"$. c #FA7C7C",
"%. c #776E80",
"&. c #786F81",
"*. c #777081",
"=. c #7C7485",
"-. c #7F7985",
";. c #7F7788",
":. c #7F7888",
">. c #807B86",
",. c #837D8C",
"<. c #848484",
"1. c #87808E",
"2. c #89848E",
"3. c #8B8A8B",
"4. c #8A8591",
"5. c #8E8A93",
"6. c #918D95",
"7. c #938E98",
"8. c #939394",
"9. c #96929A",
"0. c #99969C",
"q. c #9C9B9D",
"w. c #BC8585",
"e. c #B68C8C",
"r. c #BD8C8C",
"t. c #AD9396",
"y. c #AF9799",
"u. c #AE9A9B",
"i. c #B59393",
"p. c #BC9393",
"a. c #B39798",
"s. c #B59B9B",
"d. c #B89C9C",
"f. c #9E9CA1",
"g. c #A09FA2",
"h. c #A5A5A5",
"j. c #ACA4A5",
"k. c #A6A5A8",
"l. c #A8A7A9",
"z. c #A7A9A9",
"x. c #ACACAC",
"c. c #B4A4A4",
"v. c #B8A0A0",
"b. c #B2ADAD",
"n. c #AFAFB0",
"m. c #ADB4B4",
"M. c #AFB8B8",
"N. c #B1B1B1",
"B. c gray72",
"V. c #C38484",
"C. c #C38A8A",
"Z. c #F68282",
"A. c #F98585",
"S. c #F68B8B",
"D. c #F98C8C",
"F. c #F99494",
"G. c #F99898",
"H. c None",
/* pixels */
"H.H.H.H.H.H.H.H.H.H.H.H.H.H.H.H.H.H.H.H.H.H.H.H.H.H.H.H.H.H.H.H.H.N.N.N.N.N.b.N.N.N.H.H.H.H.H.H.H.H.H.H.H.H.H.H.H.H.H.H.H.H.H.H.H.H.H.H.H.H.H.H.H.H.H.",
"H.H.H.H.H.H.H.H.H.H.H.H.H.H.H.H.H.H.H.H.H.H.H.H.H.H.H.H.m.b.N.N.N.N.N.N.N.N.N.N.N.N.N.N.N.m.N.H.H.H.H.H.H.H.H.H.H.H.H.H.H.H.H.H.H.H.H.H.H.H.H.H.H.H.H.",
"H.H.H.H.H.H.H.H.H.H.H.H.H.H.H.H.H.H.H.H.H.H.H.H.H.N.m.N.N.N.N.N.N.N.N.N.N.N.N.N.N.N.N.N.N.N.N.N.N.n.H.H.H.H.H.H.H.H.H.H.H.H.H.H.H.H.H.H.H.H.H.H.H.H.H.",
"H.H.H.H.H.H.H.H.H.H.H.H.H.H.H.H.H.H.H.H.H.H.0 a 8.z.N.N.N.N.N.N.N.N.N.m.N.N.N.N.N.N.N.N.N.N.N.N.n.N.N.N.N.H.H.H.H.H.H.H.H.H.H.H.H.H.H.H.H.H.H.H.H.H.H.",
"H.H.H.H.H.H.H.H.H.H.H.H.H.H.H.H.H.H.H.H.8.a q u a 8.h.x.N.N.N.N.N.N.N.N.N.N.N.N.N.N.N.N.N.N.N.N.N.n.N.N.N.x.N.H.H.H.H.H.H.H.H.H.H.H.H.H.H.H.H.H.H.H.H.",
"H.H.H.H.H.H.H.H.H.H.H.H.H.H.H.H.H.H.M.N.z.8.a q q p 3.h.x.N.N.N.N.N.N.N.N.N.N.N.N.N.N.N.N.N.N.N.n.N.N.N.x.N.N.x.N.H.H.H.H.H.H.H.H.H.H.H.H.H.H.H.H.H.H.",
"H.H.H.H.H.H.H.H.H.H.H.H.H.H.H.H.H.m.N.N.b.z.8.u q 8 u <.g.N.N.N.N.N.N.N.N.N.N.N.N.N.N.N.N.N.N.x.N.N.n.x.N.N.x.N.n.x.H.H.H.H.H.H.H.H.H.H.H.H.H.H.H.H.H.",
"H.H.H.H.H.H.H.H.H.H.H.H.H.H.H.H.N.N.N.N.N.b.h.8.p q 8 q <.q.b.m.N.N.N.N.N.m.N.N.N.N.N.N.N.N.N.N.n.N.x.N.N.x.N.x.x.n.x.H.H.H.H.H.H.H.H.H.H.H.H.H.H.H.H.",
"H.H.H.H.H.H.H.H.H.H.H.H.H.H.N.n.N.N.N.N.N.N.N.z.8.a 8 8 0 a q.b.N.N.N.N.N.N.N.N.N.N.N.N.b.m.b.N.N.N.N.N.N.x.x.N.n.x.x.q.a H.H.H.H.H.H.H.H.H.H.H.H.H.H.",
"H.H.H.H.H.H.H.H.H.H.H.H.H.p.b.N.N.N.N.N.N.N.N.N.N.q.a 8 3 8 u 8.b.m.N.N.N.N.B.N.N.N.N.N.m.b.x.N.x.N.x.x.x.N.x.x.x.N.x.g.a 8 H.H.H.H.H.H.H.H.H.H.H.H.H.",
"H.H.H.H.H.H.H.H.H.H.H.Q Q W r.b.N.N.N.N.N.N.N.N.N.N.q.a 8 < 2 q 8.x.N.N.N.N.B.N.N.N.N.N.N.N.x.N.N.N.N.N.N.x.x.N.N.x.x.h.a 8 0 a H.H.H.H.H.H.H.H.H.H.H.",
"H.H.H.H.H.H.H.H.H.H.W A L J Q V.c.N.N.N.m.N.N.N.N.N.N.q.p 3 < 2 8 8.b.N.N.N.N.N.N.N.N.N.N.N.N.N.N.x.x.N.x.N.N.x.x.x.x.g.p 3 8 <.0.H.H.H.H.H.H.H.H.H.H.",
"H.H.H.H.H.H.H.H.H.H.W [ | | P ! C.c.N.N.N.N.N.N.N.N.N.N.q.p 3 - < 8 3.x.N.N.N.N.N.N.N.N.x.N.N.N.N.N.x.N.n.n.x.x.b.x.z.q.a 3 8 <.q.H.H.H.H.H.H.H.H.H.H.",
"H.H.H.H.H.H.H.H.H.t.E A +.+.+.{ ! V.c.N.N.N.N.N.N.N.N.N.N.q.p 2 & - 3 <.x.N.N.N.N.N.N.N.N.N.N.x.N.x.x.x.x.n.n.x.x.x.h.q.q 2 3 3.q.g.H.H.H.H.H.H.H.H.H.",
"H.H.H.H.H.H.H.H.h.g.w.Y | #.#.#.| [ C.c.N.N.N.B.N.B.m.N.N.N.q.p 2 & & < <.z.N.x.x.N.N.N.N.N.N.N.N.x.N.x.x.n.N.x.b.x.z.8.0 - 3 3.q.h.g.H.H.H.H.H.H.H.H.",
"H.H.H.H.H.H.H.H.l.l.u.M ! | #.Z.#.| [ ` d.b.N.N.N.N.N.N.N.N.B.h.p < @ & & <.B.N.N.N.N.x.N.x.N.N.N.N.N.N.n.n.x.N.x.x.x.g.3 & 3 8.h.h.h.H.H.H.H.H.H.H.H.",
"H.H.H.H.H.H.H.k.l.x.k.g.) [ ..#.A.#.| L ( p.N.N.N.N.N.N.N.N.N.N.h.a 3 @ @ - a z.z.N.N.N.N.N.N.N.N.N.x.N.x.x.N.N.x.x.z.8.3 & 3 3.f.g.g.g.H.H.H.H.H.H.H.",
"H.H.H.H.H.H.g.l.x.l.k.k.a.) T ..Z.D.Z.+.T W C.N.N.B.N.B.N.N.B.N.N.h.<.3 @ @ & u q.z.N.N.x.N.N.x.x.N.N.x.N.x.x.x.x.z.z.3.< - 8 3.u.h.h.g.h.H.H.H.H.H.H.",
"H.H.H.H.H.f.l.l.l.l.l.x.l.a.) T | A.S.S.+.[ ' p.N.N.N.N.m.B.N.N.N.N.b.8.< o @ @ q h.N.N.N.N.N.N.N.N.x.x.x.N.N.x.x.x.z.8.& - q 8.h.h.g.g.g.0.H.H.H.H.H.",
"H.H.H.H.H.9.g.l.x.l.l.l.x.l.a.` [ +.S.G.G.Z.o.' C.b.B.N.N.N.N.N.N.N.N.z.8.< o @ @ q 8.x.N.N.x.N.x.x.N.N.N.x.x.x.x.z.h.u & - q 8.h.g.h.g.h.0.H.H.H.H.H.",
"H.H.H.H.-.1.8.q.k.l.l.l.x.x.x.s.) A +.F.G.G.Z.o.' C.N.N.B.N.m.N.N.N.N.N.z.8.3 @ o @ 8 8.x.N.N.N.N.N.N.x.x.N.N.x.x.x.z.8 @ < p h.h.f.h.h.f.f.0.H.H.H.H.",
"H.H.H.H.a a a 3.f.x.x.n.l.x.x.x.a.( Z  .S.G.G.S.o.] C.N.N.N.N.N.N.N.N.N.b.z.3.3 @ o & 8 <.h.N.x.N.x.x.N.N.x.x.x.x.z.<.< & 3 <.q.h.h.h.g.g.u.q.H.H.H.H.",
"H.H.H.>.>.i u u <.0.l.x.x.x.x.n.b.d.W V { A.S.G.S.O.^ V.M.N.N.N.N.b.N.N.N.N.z.q.< o o o < p N.N.x.N.x.x.x.x.x.x.x.q.u & - 8 3.z.g.h.h.h.h.g.g.g.H.H.H.",
"H.H.H.8.5.a q 8 0 a q.x.x.x.x.n.n.b.d./ N P Z.S.G.D.O.L C.M.N.n.N.N.N.N.N.N.N.b.h.3 @ o @ - u z.N.N.x.N.x.x.x.x.b.3.< @ - p 8.j.h.h.h.k.h.h.h.h.H.H.H.",
"H.H.H.9.9.4.%.6 3 5 p 0.x.x.x.n.n.n.b.v._ V P #.D.F.D.Z.A C.M.N.N.N.N.N.N.x.N.N.x.q.3 @ @ @ - u z.b.b.x.x.x.z.z.8.8 @ @ 3 3.h.h.h.h.z.j.z.z.h.h.H.H.H.",
"H.H.,.9.0.f.4.e 3 < 2 u 0.x.x.n.n.n.N.N.c.w.V F ..S.D.A.Z.} C.M.N.x.N.x.N.N.x.N.N.z.8.q - & - - q 3.z.z.x.x.b.q.u & @ - u 8.h.h.h.h.h.h.h.h.h.h.h.H.H.",
"H.H.,.9.f.f.f.4.8 : - < u 8.x.x.n.N.N.N.N.b.e.Z S U #.A.D.Z.} C.m.N.N.N.N.N.N.N.b.N.z.8.q < & - - 8 8.z.b.b.z.3.< @ @ < <.z.h.h.z.z.z.z.z.h.h.h.h.H.H.",
"H.H.,.7.0.f.g.g.<.2 - & < r 0.n.n.N.N.N.N.b.b.r.B b H Z.A.A.A.P C.m.N.N.N.N.N.x.N.N.N.z.q.a 3 - - & 3 3.z.z.3.3 @ @ & a h.h.h.z.j.h.z.j.h.h.h.h.h.H.H.",
"H.,.,.7.f.f.f.k.g.a < * & - r 8.n.n.N.N.N.N.b.b.V.N x S @.A.Z.@.P V.m.N.N.N.N.z.N.N.b.N.z.h.<.q - - & 3 <.q.8 & & & u q.h.h.h.z.z.h.z.h.h.h.h.h.h.h.H.",
"H.;.,.4.7.9.f.k.z.h.a < & & - q 0.n.N.N.N.N.m.b.b.V.N f n X.@.@...P V.M.x.N.N.N.N.z.z.x.b.b.z.q.a - - - 3 8 < & - q q.z.h.h.h.j.z.z.h.h.l.h.h.h.h.h.H.",
"H.,.,.,.7.9.f.k.z.l.h.p < & & - e 0.b.N.N.N.N.n.b.b.V.j f c U X.X...J V.m.N.N.x.N.N.b.b.z.b.z.z.z.<.- - & & < < 8 <.h.h.h.z.z.z.h.j.h.z.h.h.h.h.h.h.H.",
"H.,.,.4.4.7.f.f.z.x.x.g.p < & $ - r q.b.N.N.N.B.N.b.c.) j k c H  ...U ! C.b.z.N.z.b.z.z.z.z.z.z.z.z.<.q 2 < 2 q <.q.j.h.h.h.z.h.z.z.h.z.j.h.h.h.h.h.H.",
"H.,.,.,.,.0.0.f.k.x.x.x.k.=., % & - q q.b.N.N.N.N.N.N.v.R h s f I  . .K J C.b.x.N.z.x.b.z.z.z.N.z.z.N.8.a q a 8.j.z.h.h.z.j.h.z.j.z.z.h.z.h.h.h.h.h.H.",
",.,.,.,.,.,.7.f.k.l.x.x.l.g.&., & & - q q.N.B.N.N.N.N.N.s.W j d c G H F D Q i.c.x.b.z.z.z.z.b.z.z.b.z.z.q.q.h.h.z.z.h.h.z.z.z.h.h.z.h.h.h.h.h.h.h.h.h.",
",.7.,.,.,.,.0.f.f.k.l.x.n.x.f.;.< & @ - q 8.B.N.N.N.M.N.N.v./ j l l m m b v _ b.N.z.z.b.b.z.x.z.z.z.b.z.b.z.z.j.j.h.z.j.z.h.h.z.z.h.h.z.h.h.j.h.h.h.h.",
",.,.,.0.,.,.,.f.f.k.x.x.x.x.n.f.p < & @ & 3 8.N.B.N.N.N.N.N.v.M B g l k f z _ b.b.z.z.z.z.b.z.b.N.b.b.z.z.z.z.z.z.h.z.h.h.z.z.j.z.j.h.h.h.h.z.h.h.h.h.",
",.,.,.,.,.,.7.7.0.g.k.n.k.n.n.n.h.a - @ o @ 3 8.N.N.N.B.N.N.b.v.w.C j h h C d.z.N.z.z.z.z.z.z.x.z.z.b.z.z.z.z.z.z.z.j.h.z.h.z.z.j.z.z.h.h.h.h.h.h.h.h.",
",.,.,.,.,.7.,.f.0.f.k.k.n.n.k.n.b.h.a < @ o @ 3 8.N.N.N.N.N.N.N.N.c./ R / m.m.N.z.x.z.z.x.c.x.x.b.z.z.z.c.z.z.z.h.j.z.z.j.z.z.h.h.h.h.h.h.h.h.h.h.h.h.",
",.;.,.,.,.,.,.7.7.0.f.k.n.k.k.n.N.x.j.<.2 @ o @ 3 8.N.N.N.N.m.N.b.m.b.b.N.x.z.z.z.z.x.z.x.x.z.x.b.z.b.z.z.z.c.z.h.z.z.h.h.z.h.z.h.z.j.h.h.h.h.h.h.h.g.",
";.;.,.,.,.,.,.,.7.0.f.k.k.k.n.n.x.x.z.h.<.3 @ o @ 3 8.B.N.N.N.N.N.N.m.N.x.b.b.z.z.x.x.x.x.x.x.x.z.z.z.z.z.z.z.z.z.h.h.z.z.h.z.j.h.z.z.h.h.h.h.h.h.h.h.",
",.;.;.;.;.,.,.,.7.f.f.f.k.n.k.n.x.x.x.x.z.<.3 @ o @ 2 3.h.b.N.N.N.N.N.x.z.z.b.z.b.j.e.w.w.i.c.x.z.z.z.z.h.z.j.h.h.z.z.z.j.z.h.j.z.h.h.h.h.j.h.h.h.h.h.",
";.;.;.;.,.,.,.,.,.0.0.0.f.k.n.k.x.b.x.N.x.z.3.3 & o o 2 3.z.x.N.b.x.x.z.b.z.z.z.j.e.W A A ~ e.z.j.z.z.j.z.h.z.z.z.j.h.z.z.h.h.z.h.z.h.h.h.z.h.h.h.g.h.",
"H.;.;.;.,.,.,.7.,.0.0.0.f.k.k.n.x.x.b.b.x.x.z.<.3 & o o - q.N.N.N.N.x.x.z.z.z.b.c._ J H U { ~ s.z.z.z.z.j.z.h.z.h.j.z.h.h.z.z.h.h.j.h.h.h.h.h.h.h.g.H.",
"H.;.;.;.,.,.,.,.,.,.7.f.0.k.k.k.x.b.x.x.x.x.x.z.3.8 & o o 2 q.x.x.x.x.x.b.z.z.x.z.M V H  ...! s.z.z.z.z.h.h.z.h.z.h.h.z.z.h.z.h.h.j.l.h.h.h.z.h.h.g.H.",
"H.;.;.;.;.;.,.,.,.,.0.f.9.f.g.k.x.x.x.x.x.x.x.x.h.8.8 @ @ & < 8.z.x.z.z.z.b.x.x.z.c.E N K F ~ z.z.z.z.z.h.z.z.h.z.z.z.z.j.h.z.h.h.h.l.l.h.h.h.h.g.g.H.",
"H.;.;.;.;.;.,.,.,.,.,.f.0.f.f.g.k.x.x.x.x.x.x.x.x.h.8.0 & & @ : 3.z.b.z.z.z.x.z.x.z.z./ C R z.z.j.z.z.j.z.h.j.z.h.j.h.h.z.h.h.h.h.l.h.h.h.h.h.h.h.g.H.",
"H.,.;.;.;.;.,.,.,.7.,.7.0.0.f.f.g.k.h.l.l.x.x.x.x.x.z.8.u & @ & < <.h.z.z.z.z.z.z.N.z.x.s.z.z.z.z.h.z.j.z.j.z.h.z.j.z.h.h.z.z.h.h.h.h.h.h.h.h.h.h.h.H.",
"H.H.;.;.;.;.;.,.,.,.,.,.7.0.7.f.f.g.h.z.z.z.j.j.x.x.x.x.8.u & & & - <.z.x.b.x.b.x.z.z.x.z.z.z.z.z.j.z.z.z.z.h.h.j.z.z.h.z.h.h.h.h.h.h.h.h.h.h.h.g.H.H.",
"H.H.;.;.=.;.=.;.;.;.,.,.7.f.0.0.9.f.g.h.k.z.z.k.z.z.z.k.h.3.r < & & 8 3.z.z.z.z.z.z.z.j.z.z.z.h.z.h.z.z.j.z.z.z.j.z.h.z.h.h.h.z.h.l.h.l.h.h.h.g.h.H.H.",
"H.H.,.;.=.;.;.=.;.;.,.,.,.0.0.7.9.0.f.g.h.k.k.k.k.k.k.k.z.h.8.u < - - 8 q.z.b.z.b.z.z.h.z.z.z.z.j.h.z.z.h.z.h.j.z.h.z.j.h.z.h.h.h.h.h.h.h.h.h.h.h.H.H.",
"H.H.H.;.;.=.=.;.;.;.,.7.,.,.7.7.9.9.0.f.f.h.h.h.h.k.k.k.h.h.x.8.q - - < <.z.z.z.z.z.z.z.h.z.z.h.h.z.j.h.z.h.z.h.h.h.h.h.h.z.h.h.l.h.h.h.h.j.h.h.H.H.H.",
"H.H.H.;.=.;.=.;.;.;.;.,.,.,.,.0.9.9.9.0.f.g.h.g.h.h.h.h.h.z.z.8.q - & < <.h.z.h.z.z.z.z.j.h.h.z.z.z.z.h.z.j.h.z.h.z.z.h.h.z.j.h.h.h.h.h.h.h.h.h.H.H.H.",
"H.H.H.,.;.;.;.;.;.;.;.;.7.,.,.7.9.9.9.9.9.f.f.g.h.h.h.h.k.k.3.u - - < q 3.z.z.j.j.j.z.j.h.z.h.h.h.z.h.j.z.z.h.h.z.h.h.h.h.h.h.h.h.h.h.h.h.h.h.h.H.H.H.",
"H.H.H.H.;.;.;.;.=.;.;.;.,.,.,.,.6.9.7.9.9.9.f.f.g.f.h.h.0.a 5 - & - 8 <.8.h.h.h.z.h.h.h.z.h.z.h.z.h.h.z.z.h.z.z.h.z.j.h.z.h.h.h.h.h.h.h.h.h.h.H.H.H.H.",
"H.H.H.H.;.;.;.;.=.=.;.;.;.,.,.,.2.9.9.9.7.7.7.0.f.f.q.f.q - @ @ & 3 8.h.h.q.h.h.h.q.q.h.h.z.z.z.h.j.z.z.h.j.z.h.h.h.z.h.h.h.h.j.h.h.h.h.h.h.h.H.H.H.H.",
"H.H.H.H.H.;.;.;.=.=.;.;.;.;.;.,.,.4.6.6.9.6.7.9.9.3.a 2 $ @ @ - 3 8.q.h.h.h.q.q.h.h.h.h.h.q.h.z.h.h.h.h.h.h.h.h.h.h.h.h.h.h.h.z.h.h.h.h.h.h.H.H.H.H.H.",
"H.H.H.H.H.;.;.;.=.%.%.%.%.=.;.;.:.1.5.5.7.5.4.<.i 3 - o @ @ - 8 8.h.h.q.h.h.q.h.h.h.h.z.h.h.h.q.h.h.h.h.h.h.h.h.h.h.h.h.h.q.z.h.h.h.h.h.h.h.H.H.H.H.H.",
"H.H.H.H.H.H.;.;.=.=.%.%.=.%.=.;.:.:.1.1.-.u 6 < & # @ @ & 6 p 0.h.h.q.h.q.h.h.h.q.h.h.q.h.h.h.h.h.h.q.h.h.h.h.h.h.h.h.h.h.h.h.h.g.h.h.h.h.H.H.H.H.H.H.",
"H.H.H.H.H.H.H.;.%.%.%.%.%.%.%.%.y e 9 4 - $ o + # & : 5 u 2.8.u.q.q.h.h.q.h.q.h.h.h.q.h.q.h.h.h.q.h.h.h.q.h.h.h.h.h.h.h.h.h.q.h.h.h.h.h.H.H.H.H.H.H.H.",
"H.H.H.H.H.H.H.H.%.%.4 %.7 %.4 , ; # + X . X @ & : 5 u >.5.8.0.q.q.q.q.q.h.h.q.h.q.h.z.h.h.h.q.h.q.h.h.q.h.h.h.h.h.h.q.h.h.q.h.q.g.g.g.H.H.H.H.H.H.H.H.",
"H.H.H.H.H.H.H.H.4 ; ; % # # # # .     . O & : 0 i <.4.8.6.8.8.0.q.q.g.g.q.q.h.h.q.h.h.h.h.q.h.h.h.h.h.q.h.q.z.j.h.q.h.h.h.h.h.q.f.f.g.H.H.H.H.H.H.H.H.",
"H.H.H.H.H.H.H.H.H.% # # # # .   . . O * 1 9 i ,.2.6.6.5.6.6.7.8.8.q.q.g.q.h.h.q.h.h.q.h.h.h.h.q.h.q.q.h.q.z.h.q.h.h.h.h.q.q.q.q.g.q.H.H.H.H.H.H.H.H.H.",
"H.H.H.H.H.H.H.H.H.H.# # # # # % = , 4 9 *.=.,.2.4.5.5.7.6.6.5.8.8.q.q.q.q.g.q.q.h.q.h.q.q.h.h.h.h.h.h.q.h.q.q.h.h.q.h.q.q.h.q.q.q.H.H.H.H.H.H.H.H.H.H.",
"H.H.H.H.H.H.H.H.H.H.%.4 %.%.4 %.w w t i *.-.-.1.4.4.5.5.6.5.8.5.8.8.8.8.q.q.q.h.q.h.q.h.q.q.q.q.q.q.q.h.q.u.q.q.h.q.q.q.q.8.q.8.5.H.H.H.H.H.H.H.H.H.H.",
"H.H.H.H.H.H.H.H.H.H.H.*.%.%.t y y %.%.%.=.=.=.>.1.2.4.5.6.6.6.6.6.6.7.7.8.0.0.q.q.q.g.q.q.f.q.g.q.f.f.q.q.f.q.q.f.q.q.0.0.7.6.2.H.H.H.H.H.H.H.H.H.H.H.",
"H.H.H.H.H.H.H.H.H.H.H.H.H.%.y %.%.%.%.%.y y =.=.-.1.2.2.2.5.6.6.6.6.6.6.6.7.7.8.0.q.q.q.q.q.q.q.q.q.0.0.0.0.0.0.0.0.9.8.7.4.H.H.H.H.H.H.H.H.H.H.H.H.H.",
"H.H.H.H.H.H.H.H.H.H.H.H.H.H.=.=.%.%.%.%.%.=.y =.-.-.,.2.,.2.2.5.6.6.6.6.6.6.6.6.6.6.0.0.0.q.0.0.q.q.0.0.0.0.0.0.8.7.6.2.>.H.H.H.H.H.H.H.H.H.H.H.H.H.H.",
"H.H.H.H.H.H.H.H.H.H.H.H.H.H.H.H.%.%.%.%.%.&.%.%.=.=.>.,.4.2.2.2.2.4.6.6.6.6.6.6.6.5.6.6.6.8.0.0.0.0.0.0.8.9.8.8.6.5.2.H.H.H.H.H.H.H.H.H.H.H.H.H.H.H.H.",
"H.H.H.H.H.H.H.H.H.H.H.H.H.H.H.H.H.=.%.y &.&.%.%.%.&.=.=.,.2.2.2.,.4.4.4.5.6.6.6.6.6.6.5.5.6.6.5.6.6.6.6.5.4.4.2.,.=.H.H.H.H.H.H.H.H.H.H.H.H.H.H.H.H.H.",
"H.H.H.H.H.H.H.H.H.H.H.H.H.H.H.H.H.H.=.=.%.%.%.%.%.y =.=.>.,.,.2.2.2.2.2.2.2.2.4.5.5.5.6.6.3.5.5.5.5.4.4.2.,.,.=.-.H.H.H.H.H.H.H.H.H.H.H.H.H.H.H.H.H.H.",
"H.H.H.H.H.H.H.H.H.H.H.H.H.H.H.H.H.H.H.H.=.*.*.y %.%.%.&.&.>.,.2.2.2.2.2.2.2.2.2.2.2.2.2.2.2.2.2.2.1.,.,.>.>.=.H.H.H.H.H.H.H.H.H.H.H.H.H.H.H.H.H.H.H.H.",
"H.H.H.H.H.H.H.H.H.H.H.H.H.H.H.H.H.H.H.H.H.H.=.=.&.%.%.%.%.&.=.>.2.,.2.2.,.2.2.2.1.1.1.2.2.1.1.1.,.>.>.=.=.H.H.H.H.H.H.H.H.H.H.H.H.H.H.H.H.H.H.H.H.H.H.",
"H.H.H.H.H.H.H.H.H.H.H.H.H.H.H.H.H.H.H.H.H.H.H.H.H.=.=.y %.y %.=.=.>.2.2.,.2.1.<.1.1.1.1.1.,.1.,.>.=.H.H.H.H.H.H.H.H.H.H.H.H.H.H.H.H.H.H.H.H.H.H.H.H.H.",
"H.H.H.H.H.H.H.H.H.H.H.H.H.H.H.H.H.H.H.H.H.H.H.H.H.H.H.H.=.=.=.%.=.=.>.,.,.1.1.1.1.1.,.,.>.-.=.H.H.H.H.H.H.H.H.H.H.H.H.H.H.H.H.H.H.H.H.H.H.H.H.H.H.H.H.",
"H.H.H.H.H.H.H.H.H.H.H.H.H.H.H.H.H.H.H.H.H.H.H.H.H.H.H.H.H.H.H.H.H.=.=.a =.=.=.=.=.=.H.H.H.H.H.H.H.H.H.H.H.H.H.H.H.H.H.H.H.H.H.H.H.H.H.H.H.H.H.H.H.H.H."
};
