/* XPM */
static char *_0[] = {
/* columns rows colors chars-per-pixel */
"35 35 188 2 ",
"   c #140416",
".  c #140417",
"X  c #150417",
"o  c #160518",
"O  c #18051B",
"+  c #19061D",
"@  c #1A061D",
"#  c #1A061E",
"$  c #1C061D",
"%  c #1C061E",
"&  c #1E0823",
"*  c #1E0824",
"=  c #200823",
"-  c #200825",
";  c #210826",
":  c #230927",
">  c #270B2C",
",  c #2A0B2F",
"<  c #2D0E34",
"1  c #3C0E3F",
"2  c #33103A",
"3  c #33113A",
"4  c #35113D",
"5  c #3E0F41",
"6  c #3B1041",
"7  c #3B1343",
"8  c #3C1344",
"9  c #3D1447",
"0  c #381A47",
"q  c #3C1E4D",
"w  c #35234E",
"e  c #35244E",
"r  c #2F3B5F",
"t  c #303459",
"y  c #421146",
"u  c #411247",
"i  c #45124A",
"p  c #46134B",
"a  c #47134C",
"s  c #46154E",
"d  c #491550",
"f  c #4A1550",
"g  c #4A1551",
"h  c #4C1653",
"j  c #4A1754",
"k  c #4D1654",
"l  c #4D1754",
"z  c #4D1755",
"x  c #451850",
"c  c #471E50",
"v  c #4F1857",
"b  c #501859",
"n  c #52195B",
"m  c #531A5C",
"M  c #5A1E59",
"N  c #561B60",
"B  c #561C61",
"V  c #571C61",
"C  c #571C62",
"Z  c #591D64",
"A  c #5B1E66",
"S  c #5B1E67",
"D  c #5D1F69",
"F  c #5C2067",
"G  c #5E2169",
"H  c #5E206A",
"J  c #5E206B",
"K  c #5F216B",
"L  c #5D216C",
"P  c #5F206C",
"I  c #60216D",
"U  c #60216E",
"Y  c #61226E",
"T  c #62236F",
"R  c #692868",
"E  c #6F2A6C",
"W  c #712C6F",
"Q  c #722C6F",
"!  c #632271",
"~  c #672476",
"^  c #672577",
"/  c #682578",
"(  c #6A267A",
")  c #6A267B",
"_  c #6B277C",
"`  c #6C277C",
"'  c #6C277D",
"]  c #6D287E",
"[  c #732C70",
"{  c #732D70",
"}  c #712F72",
"|  c #742E72",
" . c #712F7D",
".. c #722F7E",
"X. c #61347B",
"o. c #743276",
"O. c #783176",
"+. c #7C357C",
"@. c #2D4D6B",
"#. c #2A4E6C",
"$. c #285470",
"%. c #6C2C80",
"&. c #752F86",
"*. c #753283",
"=. c #763885",
"-. c #7B3985",
";. c #79328A",
":. c #7A3588",
">. c #7C3888",
",. c #356D84",
"<. c #634A8C",
"1. c #664A8F",
"2. c #654D90",
"3. c #654F91",
"4. c #635E99",
"5. c #51618C",
"6. c #813981",
"7. c #873F98",
"8. c #85428E",
"9. c #874192",
"0. c #8F4794",
"q. c #8D4798",
"w. c #8C449D",
"e. c #8E479F",
"r. c #934A99",
"t. c #944B9A",
"y. c #954C9B",
"u. c #924C9E",
"i. c #964D9C",
"p. c #944D9F",
"a. c #934AA5",
"s. c #994FA0",
"d. c #9750A3",
"f. c #9E54A6",
"g. c #9D55AB",
"h. c #9B52AD",
"j. c #9B52AE",
"k. c #A65CB0",
"l. c #A85EB5",
"z. c #A65CB8",
"x. c #AF64BC",
"c. c #B065BD",
"v. c #B266BF",
"b. c #B367C0",
"n. c #B065C2",
"m. c #B266C4",
"M. c #B267C5",
"N. c #B569C7",
"B. c #BC6FCF",
"V. c #BD70CF",
"C. c #BF72CF",
"Z. c #C175D4",
"A. c #C275D5",
"S. c #C376D6",
"D. c #C578D8",
"F. c #C678D8",
"G. c #C77ADA",
"H. c #C97BDB",
"J. c #C97CDC",
"K. c #CA7CDD",
"L. c #CB7DDE",
"P. c #CC7EDF",
"I. c #CD7FE0",
"U. c #39A5AB",
"Y. c #3BAFB2",
"T. c #3FBFBE",
"R. c #4A89A2",
"E. c #4C9FA9",
"W. c #52B6BA",
"Q. c #63ADB5",
"!. c #53B1C2",
"~. c #53B3C3",
"^. c #3FC1C0",
"/. c #41C9C5",
"(. c #50C7CD",
"). c #45DBD3",
"_. c #47E6DA",
"`. c #49EFE1",
"'. c #9EB3C0",
"]. c #B8BFCB",
"[. c #CE80E1",
"{. c #8FC4CB",
"}. c #A7C4CD",
"|. c #B8C2CD",
" X c #B7C6D1",
".X c #BBC6D1",
"XX c #BDC7D1",
"oX c None",
/* pixels */
"oXoXoXoXoXoXoXoXoXoXoXoXoXoXoXoXoXoXoXoXoXoXoXoXoXoXoXoXoXoXoXoXoXoXoX",
"oXoXoXoXoXoXoXoXoXoXN D _ oXoXoXoXoXoXoXoXoX] x oXoXoXoXoXoXoXoXoXoXoX",
"oXoXoXoXoXoXoXoXoXoX> P ` oXoXoXoXoXoXoXoXoX] L & oXoXoXoXoXoXoXoXoXoX",
"oXoXoXoXoXoXoXoXoXoX8 P ) oXV.oXoXoXoXoX[.oX] L & oXoXoXoXoXoXoXoXoXoX",
"oXoXoXoXoXoXoXoXoXoX8 P ( oXoXoXoXoXoXoXoXoX] ] * oXoXoXoXoXoXoXoXoXoX",
"oXoXoXoXoXoXoXoXoXoXY ..^ oXoXoX[.oXI.oXoXoX] ] < oXoXoXoXoXoXoXoXoXoX",
"oXoXoXoXoXoXoXoXoX& 9.l.:.oXoXoXoXoXoXoXoXoX] w.w.& oXoXoXoXoXoXoXoXoX",
"oXoXoXoXoXf.oXoXoX3 l.v.g.oXoXoXoXoXoXoXoXoXw.Z.Z.c oXoXoXI.oXoXoXoXoX",
"oXoXoXoX0.s.-.oX# 2 ..d.I oXL.oXoXoXoXoXJ.oXw.Z.Z.=.; oXG.[.P.oXoXoXoX",
"oXoXoXoXoXt.oXoX@ J J J P oXoXoXoXoXoXoXoXoX] w.w.] - oXoX[.oXoXoXoXoX",
"oXoXoXoXoXoXoXO 7 J J J J oXoXoXF.oXP.oXoXoX] ] ] ] L - oXoXoXoXoXoXoX",
"oXoXQ oXoXoXoX, D T q.J J oXoXoXoXoXoXoXoXoX] ] ] ;.;.9 oXoXoXoXI.oXoX",
"oX[ W M oX. o C G p.c.q.J oX&.n.] oX] A.7.oX] ] ;.M.M.;.< & oXm.[.K.oX",
"oXoXE oXoX  z N F u.c.q.J oXe.P.] oX] A.7.oX] ] h.J.J.h.] 4 oXoXA.oXoX",
"oXoXoXoXoX% u m C K q.J J oX*.[.] oX] S.z.oX] ] ] j.j.] ] x oXoXoXoXoX",
"oXoXoXoXoXoXoXoXoXoXoXoXoXoX .H.] oX] S.z.oXoXoXoXoXoXoXoXoXoXoXoXoXoX",
"oXoX1 oXoXoXd k s j S J oXoX>.C.' oX] [.N.oXoX] ] ] ] ] ] oXoXoX] oXoX",
"oX1 1 1 oX1 $ X = : O + J oX9.b./ oX] [.N.oX] < & < < < & ] oX%.1.] oX",
"oX1 #.t oXoX5 g k b V A oXoX>.x.U oX] D.n.oXoX] ] L L L ] oXoX2.!.] oX",
"oX1 $.e oXoXoXoXoXoXoXoXoXoX>.x.J oX/ B.a.oXoXoXoXoXoXoXoXoXoX1.~.] oX",
"oX1 1 1 oXoXoXoXoXoXoXoXoXoXoXoXoXoXoXoXoXoXoXoXoXoXoXoXoXoXoX] (.] oX",
"oX1 1 1 1 oXoXoXoXoXoXoXoXoXoXoX^.^.^.oXoXoXoXoXoXoXoXoXoXoX] ] `.] oX",
"oXoX1 1 1 1 1 1 5 a k oXoXoXoXT.{. X{.^.oXoXoXoXX.<.4.3.] ] ] ] ] oXoX",
"oXoXoX1 1 1 1 r #.@.,.k oXoXoXY.|.XX.X^.oXoXoXJ 5.R./.)._.] ] ] oXoXoX",
"oXoXoXoX1 1 1 6 w 0 q oXoXl oXU.'.].}.^.oXJ oXoXJ J J J I ! ~ oXoXoXoX",
"oXoXoXoXoXoXoXoXoXoXoXoXk k l oXE.Q.W.oXJ J J oXoXoXoXoXoXoXoXoXoXoXoX",
"oXoXoXoXoXoXoXoXoXoXoXoXi k k oXoXoXoXoXS H J oXoXoXoXoXoXoXoXoXoXoXoX",
"oXoXoXoXoXoXoXoXoXoXoXoX| o.h k oXoXoXm B Z S oXoXoXoXoXoXoXoXoXoXoXoX",
"oXoXoXoXoXoXoXoXoXoXoX[ [ | y oXoXk oXoXv n 8.k.oXoXoXoXoXoXoXoXoXoXoX",
"oXoXoXoXoXoXoXoXoXoX[ [ [ oXoXoXp f h oXoXoXr.y.i.oXoXoXoXoXoXoXoXoXoX",
"oXoXoXoXoXoXoXoXoX[ [ Q oXoXoXoXR +.} oXoXoXoX6.+.O.oXoXoXoXoXoXoXoXoX",
"oXoXoXoXoXoXoXoXoXoXQ oXoXoXoXoX[ [ [ oXoXoXoXoXQ oXoXoXoXoXoXoXoXoXoX",
"oXoXoXoXoXoXoXoXoXoXoXoXoXoXoXoX[ [ [ oXoXoXoXoXoXoXoXoXoXoXoXoXoXoXoX",
"oXoXoXoXoXoXoXoXoXoXoXoXoXoXoXoX[ [ [ oXoXoXoXoXoXoXoXoXoXoXoXoXoXoXoX",
"oXoXoXoXoXoXoXoXoXoXoXoXoXoXoXoXoX{ oXoXoXoXoXoXoXoXoXoXoXoXoXoXoXoXoX"
};
