/* XPM */
static char *_1[] = {
/* columns rows colors chars-per-pixel */
"35 35 145 2 ",
"   c #100014",
".  c #17051B",
"X  c #19051D",
"o  c #1B0720",
"O  c #1F0824",
"+  c #210925",
"@  c #240A29",
"#  c #280C2E",
"$  c #2E0E35",
"%  c #310F39",
"&  c #3C0D3E",
"*  c #35113C",
"=  c #3E0F41",
"-  c #3A1443",
";  c #3A1946",
":  c #3C1C4B",
">  c #36224D",
",  c #353158",
"<  c #303B5F",
"1  c #420D44",
"2  c #480C47",
"3  c #480D48",
"4  c #53084E",
"5  c #421146",
"6  c #44144B",
"7  c #4A144C",
"8  c #540D53",
"9  c #4C1653",
"0  c #401F50",
"q  c #4D1B57",
"w  c #4E1B5A",
"e  c #4D1559",
"r  c #59105A",
"t  c #521B5B",
"y  c #591E58",
"u  c #551C56",
"i  c #49275E",
"p  c #561C62",
"a  c #5A1D65",
"s  c #5D1F6A",
"d  c #5F1564",
"f  c #601967",
"g  c #621E72",
"h  c #472E62",
"j  c #592066",
"k  c #562768",
"l  c #5D226C",
"z  c #522B68",
"x  c #5F2B6B",
"c  c #5A2D70",
"v  c #593978",
"b  c #632767",
"n  c #60226E",
"m  c #6D296B",
"M  c #62306D",
"N  c #642374",
"B  c #6A267B",
"V  c #6D287E",
"C  c #742D71",
"Z  c #773176",
"A  c #783177",
"S  c #72317E",
"D  c #7C357C",
"F  c #7C387F",
"G  c #2D4264",
"H  c #2A4A6A",
"J  c #39496C",
"K  c #4F4679",
"L  c #57487F",
"P  c #6F2A80",
"I  c #722B83",
"U  c #7F3880",
"Y  c #773188",
"T  c #7A338B",
"R  c #356881",
"E  c #3D7F91",
"W  c #554E83",
"Q  c #555084",
"!  c #525A89",
"~  c #655394",
"^  c #615A95",
"/  c #48678A",
"(  c #50658F",
")  c #506991",
"_  c #477795",
"`  c #843C86",
"'  c #823E8C",
"]  c #823B93",
"[  c #863E98",
"{  c #8A428D",
"}  c #864092",
"|  c #8C4697",
" . c #8A4499",
".. c #924B9F",
"X. c #90529F",
"o. c #8F46A1",
"O. c #934AA5",
"+. c #964EA9",
"@. c #9A4FAB",
"#. c #9B52A5",
"$. c #9C53AD",
"%. c #A056A9",
"&. c #A259AF",
"*. c #A359B5",
"=. c #A65CB9",
"-. c #A95FBB",
";. c #AB61B7",
":. c #AD63BD",
">. c #B266BF",
",. c #AF64C2",
"<. c #B266C4",
"1. c #B468C5",
"2. c #B76BCA",
"3. c #BA6DCB",
"4. c #BC70CF",
"5. c #BF72D1",
"6. c #C174D5",
"7. c #C678D9",
"8. c #CA7CDD",
"9. c #CD7FE0",
"0. c #36ADB0",
"q. c #2EB3B3",
"w. c #3FB3B6",
"e. c #34B8B8",
"r. c #458899",
"t. c #43859C",
"y. c #469DAD",
"u. c #5195AF",
"i. c #6895A5",
"p. c #7194A5",
"a. c #4CA8B0",
"s. c #4EB0B5",
"d. c #3FC0BF",
"f. c #44C2C0",
"g. c #6EC4C6",
"h. c #73C1C5",
"j. c #8FA9B7",
"k. c #B3ACBD",
"l. c #B6B4C4",
"z. c #CE80E1",
"x. c #D182E4",
"c. c #8AC0C7",
"v. c #90C4CB",
"b. c #C0C4D0",
"n. c None",
/* pixels */
"n.n.n.n.n.n.n.n.n.n.n.n.n.n.n.n.n.l V n.n.n.n.n.n.n.n.n.n.n.n.n.n.n.n.",
"n.n.n.n.n.n.n.n.n.n.n.n.n.n.n.n.- B V n.n.n.n.n.n.n.n.n.n.n.n.n.n.n.n.",
"n.n.n.n.n.n.n.n.n.n.n.n.n.n.n.n.t V V n.n.n.n.n.n.n.n.n.n.n.n.n.n.n.n.",
"n.n.n.n.n.n.n.n.n.n.;.n.n.n.n.B V I n.n.5.n.n.n.n.n.n.n.n.n.n.n.n.n.n.",
"n.n.n.n.n.n.n.n.n.1.#.n.n.n.; @.+.V n.n.n.n.n.n.n.n.n.n.B n.n.n.n.n.n.",
"n.n.n.n.n.n.n.n.n.<.n.n.. $ X.x.,.T n.n.n.n.n.n.n.z.n.P N - n.n.n.n.n.",
"n.n.n.n.{ %.n.n.n.n.n.n.+ t [ 6.-.n.n.n.n.n.n.n.n.n.n.V l @ n.n.n.n.n.",
"n.n.n.n.n.#.' n.n.n.X $ w I V ] g n.n.n.n.n.n.n.n.n.n.I w X n.n.n.n.n.",
"n.n.n.n.n.n.n.n.X o 6 l l I V B n.n.n.n.n.n.n.n.n.n.B I % n.n.n.n.n.n.",
"n.n.n.n.n.n.n.. 6 j N S | $.B V n.n.n.n.n.n.n.n.n.n.Y ] q n.n.n.n.n.n.",
"n.n.n.n.n.n.n.@ t l l | <.:.T B n.n.n.7.n.n.n.8.n. .,.6.M   n.n.n.n.n.",
"n.n.= & 3 n.n.n.n.n.s S &...P n.I n.n.n.n.9.n.n.n.[ 6.8.x n.n.n.n.n.n.",
"n.n.; G : n.7 t s n.n.n.S l B n.+.2.B n.n.n.n.n.B I O.$.x . n.n.9.n.n.",
"n.2 < G J n.5 + + 5 w a n.n.n.Y 1.*.g n.T 5.n.n.V B I I - n.n.8.z.n.n.",
"n.& & ; n.n.n.t 6 * + * p n.n.] 9.T n.N =.*.] n.V V V P l O n.z.9.n.n.",
"n.= = = n.n.n.n.n.s p * 9 n.n.*.2.N n.I 7.$.n.P B I o.o.l # n.n.n.n.n.",
"n.6 & & n.n.n.n.n.n.n.n n.n.' 3.[ n.n.+.5.=.n.V V $.7.5.T = n.n.n.n.n.",
"n.n.& & & 6 n.n.n.n.n.n.n.n.} ;.N n.B 7.3.n.n.n.N ] 1.5.+.: O n.n.9.n.",
"n.n.6 & & - - 3 n.n.n.n.n.n.&.} e n.[ 9.2.n.n.I n.n.n.T I p $ n.2.9.n.",
"n.n.n.2 & > H J h 7 n.n.n.n.n.n.n.a *.2.n.n.s 0 N I n.n.n.q n.n.7.8.n.",
"n.n.n.n.n.6 > , R i n.n.n.n.n.q.n.n.#.} n.n.B 6 # - j P n.n.n.n.n.n.n.",
"n.n.n.n.n.n.n.n.: n.n.n.n.0.h.g.f.n.n.n.n.n.n.I l w * O l n.n.n.n.n.n.",
"n.n.n.n.n.n.n.n.n.n.6 2 n.a.l.b.v.w.n.n.n.n.n.n.n.n.N N I n.P P n.n.n.",
"n.n.n.n.n.n.n.n.n.& 9 9 n.i.k.l.c.e.n.n.n.n.n.n.n.n.n.n.n.n.~ ~ B n.n.",
"n.n.n.n.n.n.n.n.n.y 6 9 n.r.p.j.s.n.n.n.n.n.k n.n.n.n.n.n.v u.^ n.n.n.",
"n.n.n.n.n.n.{ Z C C 7 5 n.n.n.t.n.n.s n.d Q ! W v n.n.n.n.c t.a n.n.n.",
"n.n.n.n.n.C C C C ` = n.n.n.n.n.n.t t n.n.c ( f.y.L s l d _ / 8 n.n.n.",
"n.n.n.n.n.A D n.n.n.n.n.n.5 n.9 9 9 w n.n.n.r l ) y.d l a K z n.n.n.n.",
"n.n.n.n.n.n.n.n.n.n.n.u = & n.n.9 e 7 n.n.n.n.n.4 a a a t n.n.n.n.n.n.",
"n.n.n.n.n.n.n.n.n.n.n.m C u n.n.5 b F n.n.n.n.n.n.n.n.n.n.n.n.n.n.n.n.",
"n.n.n.n.n.n.n.n.n.n.{ C C D n.n.n.D ` n.n.n.n.n.n.n.n.n.n.n.n.n.n.n.n.",
"n.n.n.n.n.n.n.n.n.n.C C C n.n.n.n.n.C Z n.n.n.n.n.n.n.n.n.n.n.n.n.n.n.",
"n.n.n.n.n.n.n.n.n.n.` C C n.n.n.n.n.Z C n.n.n.n.n.n.n.n.n.n.n.n.n.n.n.",
"n.n.n.n.n.n.n.n.n.n.n.n.n.n.n.n.n.n.` n.n.n.n.n.n.n.n.n.n.n.n.n.n.n.n.",
"n.n.n.n.n.n.n.n.n.n.n.n.n.n.n.n.n.n.n.n.n.n.n.n.n.n.n.n.n.n.n.n.n.n.n."
};
