/* XPM */
static char *_2[] = {
/* columns rows colors chars-per-pixel */
"35 35 133 2 ",
"   c #1D0722",
".  c #210726",
"X  c #270A2D",
"o  c #280B2E",
"O  c #2C0D34",
"+  c #330F3A",
"@  c #3D0E3F",
"#  c #35103D",
"$  c #3E0F41",
"%  c #3C1345",
"&  c #3E1C4D",
"*  c #3D2051",
"=  c #362B54",
"-  c #3D2D5B",
";  c #3B335E",
":  c #323C60",
">  c #430940",
",  c #4A0B49",
"<  c #411045",
"1  c #44134B",
"2  c #49144E",
"3  c #441B4E",
"4  c #461651",
"5  c #4A1652",
"6  c #461B52",
"7  c #4B1954",
"8  c #4D1B59",
"9  c #531B54",
"0  c #52155C",
"q  c #511B5D",
"w  c #402151",
"e  c #442658",
"r  c #4B245D",
"t  c #51255B",
"y  c #5E215D",
"u  c #40305E",
"i  c #561D62",
"p  c #591D64",
"a  c #5D1F6A",
"s  c #621F72",
"d  c #4B2C63",
"f  c #532363",
"g  c #552769",
"h  c #5D226C",
"j  c #552E6D",
"k  c #453264",
"l  c #463B6A",
"z  c #54336F",
"x  c #672665",
"c  c #67296B",
"v  c #6E2A6C",
"b  c #712C6E",
"n  c #642473",
"m  c #632C70",
"M  c #6B267C",
"N  c #6D287E",
"B  c #742D71",
"V  c #763075",
"C  c #783277",
"Z  c #7C367D",
"A  c #3C5B7B",
"S  c #41466F",
"D  c #444470",
"F  c #464A76",
"G  c #4D4D7C",
"H  c #405176",
"J  c #43547A",
"K  c #80387F",
"L  c #6F2A80",
"P  c #722C82",
"I  c #763187",
"U  c #7F3880",
"Y  c #79338A",
"T  c #7E398D",
"R  c #3B6782",
"E  c #3A788E",
"W  c #4D5481",
"Q  c #455C81",
"!  c #7C408B",
"~  c #406786",
"^  c #436C8B",
"/  c #4A7B8F",
"(  c #833B83",
")  c #853D8A",
"_  c #883F8A",
"`  c #823B92",
"'  c #873E99",
"]  c #88408B",
"[  c #874394",
"{  c #8C449E",
"}  c #924A9C",
"|  c #9047A1",
" . c #924AA4",
".. c #974EA8",
"X. c #984FAA",
"o. c #9754A7",
"O. c #9A51AC",
"+. c #9F55B1",
"@. c #A257AB",
"#. c #A056B3",
"$. c #A55CB3",
"%. c #A65CB8",
"&. c #A85EBA",
"*. c #AD62BE",
"=. c #B266C4",
"-. c #B468C6",
";. c #B76BC9",
":. c #BB6ECD",
">. c #BC71CF",
",. c #BF73D2",
"<. c #C476D6",
"1. c #CB7DDE",
"2. c #34A5AB",
"3. c #39A5A9",
"4. c #438098",
"5. c #5D8397",
"6. c #568A9B",
"7. c #4495A0",
"8. c #6795A5",
"9. c #44A5AC",
"0. c #45ABB1",
"q. c #4EB2B6",
"w. c #48B7B9",
"e. c #77B1BA",
"r. c #5FC0C1",
"t. c #8B95A9",
"y. c #A3ABBA",
"u. c #B5ACBD",
"i. c #89BEC5",
"p. c #B4B4C3",
"a. c #D283E5",
"s. c #9BC3CA",
"d. c None",
/* pixels */
"d.d.d.d.d.d.d.d.d.d.d.d.d.d.d.d.d.d.d.d.d.d.d.d.d.d.d.d.d.d.d.d.d.d.d.",
"d.d.d.d.d.d.d.d.d.d.d.d.d.d.d.d.d.d.d.d.d.d.d.5 h d.d.d.d.d.d.d.d.d.d.",
"d.d.d.d.d.d.d.d.d.d.$.d.d.d.1.<.d.d.d.d.d.d.1 p L L d.d.d.d.d.d.d.d.d.",
"d.d.d.d.d.d.d.d.d.@.$.d.d.d.d.=.d.d.d.d.d.f h M L d.d.d.d.d.d.d.d.d.d.",
"d.d.d.d.d.d.d.d.d.d.d.d.d.d.d.d.d.. + t ` T P M d.d.d.d.d.d.d.d.d.d.d.",
"d.d.d.d.d.d.d.d.d.d.d.d.  d.d.O O % t O.:.O.I d.d.d.d.d.d.d.d.d.d.d.d.",
"d.d.d.d.d.8 g i d.d.d.o % 4 8 q f n P $.-.O.d.d.d.d.d.d.d.d.d.d.d.d.d.",
"d.d.d.d., Q / j d.d.d.% h M N Y Y P P ` ' d.d.d.d.d.d.d.d.d.d.d.d.d.d.",
"d.d.d.1 r Q ^ d.d.d.d.d.p L { %.#.Y N N d.d.d.d.d.d.d.d.d.d.d.d.d.d.d.",
"d.d.d.< 5 r d.d.d.1 5 q d.N X.:.&.Y M d.d.d.d.d.d.d.d.d.d.d.d.d.n d.d.",
"d.d.d.< 2 1 d.d.d.4 # 1 5 d. .O.{ P d.d.d.d.d.d.d.d.d.d.d.d.d.M a d.d.",
"d.d.d.< 1 1 d.d.d.i 5 # 1 i d.P P d.d.d.d.d.d.d.d.d.d.d.d.d.M n 4 d.d.",
"d.d.d.< $ 2 d.d.d.d.i 7 + 4 d.d.d.d.O.#.d.d.d.d.d.d.d.d.d.M M 8 O d.d.",
"d.d.d.1 $ 2 4 d.d.d.d.i 4 % d.d.d.X.=. .N d.d.d.d.d.d.d.` Y h O d.d.d.",
"d.d.d.d.< w S d d.d.d.d.d.d.d.d.O.=. .N d.N d.d.d.d.d. .*.+.m d.d.d.d.",
"d.d.d.d.d.* A A d d.d.d.d.d.d.+.=. .P d.P | &.d.d.d.L ..>.$.t d.d.d.d.",
"d.d.d.d.d.d.; A J d.d.d.d.d.[ :. .s d.P | =...d.d.M P ' ..! 3 d.d.d.d.",
"d.d.d.d.d.d.d.- u d.d.d.d.d. .) M d.P  .=.*.d.d.M N L P L 6 O d.d.d.d.",
"d.d.d.d.d.d.d.d.d.d.d.d.d.d.d.0 d.s | a.-.d.d.L N P Y P h # d.d.d.d.d.",
"d.d.d.d.d.d.d.d.1 1 d.d.9.q.3.d.i T *.;.d.d.d.L P  .+.{ h # d.1.1.d.d.",
"d.d.d.d.d.d.d.9 2 2 d.7.e.i.r.3.d.}  .d.d.d.d.d.Y %.,.+.h d.d.d.1.d.d.",
"d.d.( V B b V y 2 2 d.8.u.p.s.w.d.d.d.d.d.% p P d.+.%.| f d.d.d.d.d.d.",
"d.d.] ( ( ( Z 9 < d.d.5.t.y.e.0.d.d.d.d.d.5 + 5 h d.Y Y 5 X d.d.d.d.d.",
"d.d.d.d.d.d.d.1 d.d.d./ 6.8.3.d.d.d.d.d.d.x 4 X q a d.p 3 d.d.d.d.d.d.",
"d.d.d.d.d.d.d.d.d.d.d.d.d.d.d.d.d.d.d.d.d.d.7 1 + 7 d.d.d.d.d.<.1.d.d.",
"d.d.d.d.d.d.d.c 2 < d.d.d.2 2 2 d.d.d.d.d.d.d.7 4 $ d.d.d.d.d.} d.d.d.",
"d.d.d.d.d.d._ b x @ d.d.1 5 5 5 d.r G z d.d.d.d.d.d.d.d.d.d.d.d.d.d.d.",
"d.d.d.d.d._ B b b c d.d.@ 2 2 d.d.4 D ~ F d.d.d.d.d.d.j f d.d.d.d.d.d.",
"d.d.d.d.d.C b B _ d.d.d.7 9 d.d.d.d.5 R E t d.d.d.d.G W g d.d.d.d.d.d.",
"d.d.d.d.d.) K _ d.d.d.d.Z v d.d.d.d.d.e A S 5 4 5 k H l 5 d.d.d.d.d.d.",
"d.d.d.d.d.d.d.d.d.d.d.d.K V d.d.d.d.d.d.& 6 1 1 & ; = 1 d.d.d.d.d.d.d.",
"d.d.d.d.d.d.d.d.d.d.d.d.K b d.d.d.d.d.d.d.@ % % * = > d.d.d.d.d.d.d.d.",
"d.d.d.d.d.d.d.d.d.d.d.d.] ( d.d.d.d.d.d.d.d.d.d.d.d.d.d.d.d.d.d.d.d.d.",
"d.d.d.d.d.d.d.d.d.d.d.d.d.d.d.d.d.d.d.d.d.d.d.d.d.d.d.d.d.d.d.d.d.d.d.",
"d.d.d.d.d.d.d.d.d.d.d.d.d.d.d.d.d.d.d.d.d.d.d.d.d.d.d.d.d.d.d.d.d.d.d."
};
