/* XPM */
static char *_3[] = {
/* columns rows colors chars-per-pixel */
"35 35 146 2 ",
"   c #150219",
".  c #19061C",
"X  c #1C0721",
"o  c #1E0823",
"O  c #210927",
"+  c #240A2A",
"@  c #290C2F",
"#  c #2C0D32",
"$  c #300E36",
"%  c #310F38",
"&  c #3C0D3E",
"*  c #35123D",
"=  c #42093E",
"-  c #3E0F41",
";  c #3A1343",
":  c #3F1549",
">  c #352E56",
",  c #382853",
"<  c #33345B",
"1  c #490744",
"2  c #440C43",
"3  c #480A45",
"4  c #421146",
"5  c #44144B",
"6  c #49144E",
"7  c #44184E",
"8  c #5C0F5C",
"9  c #4C1653",
"0  c #461B51",
"q  c #4B1956",
"w  c #4E1559",
"e  c #4B1F59",
"r  c #521A5B",
"t  c #57185A",
"y  c #442257",
"u  c #4E2058",
"i  c #432A5B",
"p  c #61225F",
"a  c #5E1260",
"s  c #561C61",
"d  c #591D65",
"f  c #5D1F69",
"g  c #601968",
"h  c #631F74",
"j  c #6A1A72",
"k  c #582066",
"l  c #5E216C",
"z  c #5D296F",
"x  c #453364",
"c  c #443867",
"v  c #4C3168",
"b  c #5D2A70",
"n  c #573774",
"m  c #61216D",
"M  c #6E2A6C",
"N  c #652374",
"B  c #682577",
"V  c #6B267B",
"C  c #6D287E",
"Z  c #6A2C76",
"A  c #742D71",
"S  c #653371",
"D  c #763176",
"F  c #793277",
"G  c #7C367C",
"H  c #2D4465",
"J  c #374C6F",
"K  c #334265",
"L  c #43426D",
"P  c #4F4075",
"I  c #4F487A",
"U  c #6F2A80",
"Y  c #712B83",
"T  c #772C89",
"R  c #763087",
"E  c #793686",
"W  c #7E3980",
"Q  c #773188",
"!  c #7B348D",
"~  c #7D398C",
"^  c #3A6682",
"/  c #3B778B",
"(  c #524D80",
")  c #545C8B",
"_  c #51618D",
"`  c #4D6E93",
"'  c #467B96",
"]  c #843C85",
"[  c #803B8C",
"{  c #833C94",
"}  c #863F98",
"|  c #8A428C",
" . c #874294",
".. c #8A4597",
"X. c #8B439D",
"o. c #8F499E",
"O. c #914997",
"+. c #90479D",
"@. c #994F9F",
"#. c #934B9C",
"$. c #944BA5",
"%. c #974DA8",
"&. c #984EA9",
"*. c #9858A7",
"=. c #9B52AB",
"-. c #9A52A5",
";. c #9F54B1",
":. c #A55BB3",
">. c #A85DB2",
",. c #A65CB8",
"<. c #A95EBB",
"1. c #AC61BC",
"2. c #AE63C0",
"3. c #B266C2",
"4. c #B468C5",
"5. c #B76BC9",
"6. c #BE71CF",
"7. c #BE71D2",
"8. c #C275D5",
"9. c #C779D9",
"0. c #CA7CDD",
"q. c #CD7FE0",
"w. c #328191",
"e. c #36ADB0",
"r. c #2EB3B3",
"t. c #3FB3B6",
"y. c #33B4B5",
"u. c #458798",
"i. c #4B819D",
"p. c #6E8DA1",
"a. c #6793A4",
"s. c #4CA9B0",
"d. c #40B1B5",
"f. c #3FC0BF",
"g. c #73BFC4",
"h. c #44C2C0",
"j. c #6EC4C6",
"k. c #8BA1B1",
"l. c #B1A7BA",
"z. c #86B8C1",
"x. c #B4B2C2",
"c. c #BDBFCC",
"v. c #CE80E2",
"b. c #D080E4",
"n. c #90C4CA",
"m. c None",
/* pixels */
"m.m.m.m.m.m.m.m.m.m.m.m.m.m.m.m.m.m.m.m.m.m.m.m.m.m.m.m.m.m.m.m.m.m.m.",
"m.m.m.m.m.m.m.m.m.m.m.m.m.m.m.0.b.b.m.m.m.m.m.m.m.m.m.m.m.m.m.m.m.m.m.",
"m.m.m.m.m.m.m.m.m.m.m.m m.m.m.9.1.m.m.m.q.v.v.m.m.m.m.m.m.m.m.m.m.m.m.",
"m.m.m.m.m.m.m.m.d m ) n V m.m.m.m.m.m.m.0.1.m.m.m.m.m.m.m.m.m.m.m.m.m.",
"m.m.m.m.m.m.m.f g i.d._ j m.m.m.  o m.m.m.m.m.m.m.m.m.m.m.m.m.m.m.m.m.",
"m.m.m.m.m.m.m.l f z ( m.m.m.m.* q ; # O o m.X m.  m.m.7 * l m.m.m.m.m.",
"m.m.m.m.m.m.r f l m.m.m.N m m.m.V C C d 0 ; ; 0 S ! l l U Y U m.m.m.m.",
"m.m.m.m.m.m.s f l m.m.m.d # U m.C C Q Q V Y V ;.b.5.! U C C m.m.m.m.m.",
"m.m.m.m.m.m.s f f m.m.m.N # r m.m.! 4.4.$.V U 2.8.&.U m.m.m.m.m.m.m.m.",
"m.m.m.m.m.m.s d m m.m.m.m.s ; l m.&.0.8.{ V V V X.m.m.m.m.7.m.m.m.m.m.",
"m.m.m.m.m.m.9 n ` a m.m.m.N # N m.} o.&.Y C U m.m.m.m.m.m.m.m.m.m.m.m.",
"m.m.m.m.m.m.m.P d.z m.m.m.N : ; T m.C V m.m.m.m.q.m.m.m.m.m.m.m.m.m.m.",
"m.m.m.m.m.m.m.v ' _ 8 m.m.m.N s m.m.m.m.Q m.m.m.m.m.m.m.m.m.m.m.m.m.m.",
"m.m.m.m.m.m.m.m.I i.m.m.m.m.m.m.m.m.Q X.<.1.m.9.m.m.m.m.m.m.m.m.m.m.m.",
"m.m.m.m.m.m.m.m.m.t m.m.m.m.m.m.&.=.5.v.2.! m.m.m.m.m.m.m.m.m.v.m.m.m.",
"m.m.A F m.m.m.m.m.m.m.m.m.m.~ :.0.9.=.Y h m.m.m.q.m.m.m.m.m.m.m.m.m.m.",
"m.] D A A F W 6 r d m.m.m.m.:.:.} V m.m.m.h C m.m.m.m.m.m.m.m.m.U V k ",
"m.m.m.m.A D G r 9 m.m.y.d.m.m.s m.m.m.B Q =.8.m.m.m.m.m.m.V C Y N d ; ",
"m.m.m.m.m.D 6 6 m.m.s.z.n.h.m.m.w B } 2.8.5.X.{ m.m.m.{ $.X.T k * X m.",
"m.m.m.m.m.m.m.5 m./ k.x.c.j.y.m.[ ,.9.7.<.<.m.m.C C U =.0.7.~ o m.m.m.",
"m.m.m.m.m.m.m.m.m.m.p.l.x.j.m.m.=.-.-.m.m.m.C C C C Y $.7.*.; m.m.m.m.",
"m.m.m.m.G t & 4 m.m.u.a.s.e.m.m.m.m.m.m.m.m.N C U C V ! ~ u m.m.m.m.m.",
"m.m.D A A A ; m.m.m.m.m.m.m.m.m.m.m.m.q d m.s E X.X.Y l +   m.m.m.m.m.",
"m.m.A A A M t m.m.2 6 9 3 m.m.m.m.m.l ; & l m...3.=.Z 0 m.m.m.m.m.m.m.",
"m.m.] A | m.m.m.& & ; 9 5 m.m.m.m.m.m.r + l m. .>.+.q X m.m.8.9.m.m.m.",
"m.m.m.m.m.m.m.m.5 2 & 5 m.m.e 0 m.m.m.r # q m.m.Z Z @ m.m.1.>.m.m.m.m.",
"m.m.m.m.m.m.m.m.M p m.m.m.6 L x m.m.m.m.5 % m m.m q X m.m.m.m.m.m.m.m.",
"m.m.m.m.m.m.m.m.A D m.m.m.m.x ^ i m.m.m.r . r m.; $ m.m.m.m.m.m.m.m.m.",
"m.m.m.m.m.m.m.] A | m.m.m.m.5 w.c m.m.m.m.5 r m.m.m.m.#.m.m.m.m.m.m.m.",
"m.m.m.m.m.m.m.D A m.m.m.m.m.3 K J 1 m.m.m.m.m.m.m.m.m.O.@.m.m.m.m.m.m.",
"m.m.m.m.m.m.m.m.m.m.m.m.m.m.m.; , 2 m.m.m.y 7 6 m.m.m.m.G m.m.m.m.m.m.",
"m.m.m.m.m.m.m.m.m.m.m.m.m.m.m.2 & & & 2 : < < ; m.m.m.m.m.m.m.m.m.m.m.",
"m.m.m.m.m.m.m.m.m.m.m.m.m.m.m.m.5 & - H H > ; ; m.m.m.m.m.m.m.m.m.m.m.",
"m.m.m.m.m.m.m.m.m.m.m.m.m.m.m.m.m.m.2 > - 2 m.m.m.m.m.m.m.m.m.m.m.m.m.",
"m.m.m.m.m.m.m.m.m.m.m.m.m.m.m.m.m.m.m.m.m.m.m.m.m.m.m.m.m.m.m.m.m.m.m."
};
