/* XPM */
static char *_4[] = {
/* columns rows colors chars-per-pixel */
"35 35 192 2 ",
"   c #150417",
".  c #19061D",
"X  c #1A061D",
"o  c #1B061F",
"O  c #1C0620",
"+  c #1C0721",
"@  c #1D0722",
"#  c #1E0823",
"$  c #1E0824",
"%  c #200722",
"&  c #220925",
"*  c #230927",
"=  c #230A29",
"-  c #250928",
";  c #240A28",
":  c #270B2C",
">  c #290C2E",
",  c #2D0E34",
"<  c #300D35",
"1  c #340F3C",
"2  c #3C0E3F",
"3  c #3D0E3F",
"4  c #3C0F3F",
"5  c #35103D",
"6  c #3E0F41",
"7  c #3F0F42",
"8  c #3B1445",
"9  c #3B1644",
"0  c #391947",
"q  c #3D1844",
"w  c #381A48",
"e  c #391C49",
"r  c #3E2C5A",
"t  c #2E3D60",
"y  c #2E3F61",
"u  c #401044",
"i  c #421146",
"p  c #411247",
"a  c #431148",
"s  c #421349",
"d  c #441248",
"f  c #47134C",
"g  c #471550",
"h  c #4A1550",
"j  c #4C1653",
"k  c #4C1654",
"l  c #4D1654",
"z  c #4E1755",
"x  c #451850",
"c  c #4F1857",
"v  c #52195B",
"b  c #501A5C",
"n  c #531A5C",
"m  c #4A215A",
"M  c #472B5F",
"N  c #5E215D",
"B  c #561B60",
"V  c #561C61",
"C  c #571C62",
"Z  c #591D64",
"A  c #5A1E66",
"S  c #5B1E67",
"D  c #5D1F69",
"F  c #5E206A",
"G  c #5E206B",
"H  c #5D216C",
"J  c #5F206C",
"K  c #5D266F",
"L  c #573D79",
"P  c #652463",
"I  c #60216D",
"U  c #60216E",
"Y  c #6C286A",
"T  c #702B6E",
"R  c #722C6F",
"E  c #622270",
"W  c #652373",
"Q  c #652670",
"!  c #652374",
"~  c #652474",
"^  c #672577",
"/  c #662D71",
"(  c #692875",
")  c #6A267A",
"_  c #6A267B",
"`  c #6B277B",
"'  c #6C277C",
"]  c #6C277D",
"[  c #6D287E",
"{  c #732C70",
"}  c #732D70",
"|  c #732E71",
" . c #2C4566",
".. c #354C6D",
"X. c #28536F",
"o. c #285470",
"O. c #295471",
"+. c #42436D",
"@. c #702B81",
"#. c #712C82",
"$. c #712C83",
"%. c #763087",
"&. c #7A3785",
"*. c #7A3786",
"=. c #7B3888",
"-. c #7F3C89",
";. c #535285",
":. c #60689D",
">. c #823A83",
",. c #803B8C",
"<. c #823E8E",
"1. c #803991",
"2. c #833B94",
"3. c #853D95",
"4. c #873F98",
"5. c #89418C",
"6. c #874293",
"7. c #874294",
"8. c #8F4693",
"9. c #884198",
"0. c #8C449D",
"q. c #8F4998",
"w. c #904794",
"e. c #914896",
"r. c #924997",
"t. c #944B99",
"y. c #954C9B",
"u. c #974E9E",
"i. c #8F46A0",
"p. c #954EA3",
"a. c #944CA7",
"s. c #9951A5",
"d. c #9F55A7",
"f. c #9B53A8",
"g. c #9950AB",
"h. c #9D55A9",
"j. c #9B51AC",
"k. c #A55BAF",
"l. c #A057B1",
"z. c #A258B3",
"x. c #A65CB3",
"c. c #A75EB3",
"v. c #A258B4",
"b. c #A85EB5",
"n. c #AA5FBB",
"m. c #AB61B8",
"M. c #AC62BA",
"N. c #AE63BA",
"B. c #AF64BB",
"V. c #AE63C0",
"C. c #B065C2",
"Z. c #B569C2",
"A. c #B76CC8",
"S. c #BD70CF",
"D. c #C073D2",
"F. c #C175D4",
"G. c #C275D5",
"H. c #C376D6",
"J. c #C577D7",
"K. c #C578D6",
"L. c #C678D8",
"P. c #C779D9",
"I. c #C97CDC",
"U. c #CA7CDD",
"Y. c #CB7DDE",
"T. c #CC7EDF",
"R. c #CD7FE0",
"E. c #389EA6",
"W. c #3BABB0",
"Q. c #3DB9BA",
"!. c #3FBFBE",
"~. c #4989A2",
"^. c #4994A1",
"/. c #5895B4",
"(. c #44A4AF",
"). c #4FABB1",
"_. c #41B5B9",
"`. c #61A7B1",
"'. c #3FC1C0",
"]. c #4BE0D9",
"[. c #49EFE1",
"{. c #9AACBB",
"}. c #A2BBC6",
"|. c #B1B4C3",
" X c #B3B9C7",
".X c #CE80E1",
"XX c #8FC4CA",
"oX c #8FC4CB",
"OX c #BAC3CF",
"+X c #B7C6D1",
"@X c #BBC6D1",
"#X c None",
/* pixels */
"#X#X#X#X#X#X#X#X#X#X#X#X#X#X#X#X#X#X#X#X#X#X#X#X#X#X#X#X#X#X#X#X#X#X#X",
"#X#X#X#X#X#X#X#X#X#X#X#X#X[ [ [ [ [ #X#X#X#X.X#X#X#X#X#X#X#X#X#X#X#X#X",
"#X#X#X#X#X#X#X#X#X#X#X#X' [ [ [.].[ [ #X#XP.Y.R.#X#X#X#X#X#X#X#X#X#X#X",
"#X#X#X#X#X#X#X#X#X#X#XJ _ [ [ :./.[ #X#X#X#Xv.#X#X#X#X#X#X#X#X#X#X#X#X",
"#X#X#X#X#X#X#X#X#X#XG J ) [ #X#X#X#X#X#X#X#X#X#X#X#XT.#X#X#X#X#X#X#X#X",
"#X#X#X#X#X#X#X#X#X#XG G ^ #X#X#X#X[ #X#X, # # #X#XT.Y.R.#X#X#X#X#X#X#X",
"#X#X#X#X#X#X#X#X#X#XG G ~ #X#X#X[ , [ #XH [ # #X#X#Xg.#X#X#X#X#X#X#X#X",
"#X#X#X#X#X#X#X#X#X#XK ~.E #X#X#X[ # [ #X[ [ [ 5 # #X#X#X#X#X#X#X#X#X#X",
"#X#X#X#X#X#X#X#X#X#X;._.I #X#X#X[ , H #X[ #.#.[ x # $ #X#X#X#X#X#X#X#X",
"#X#X#X#X8.#X#X#X#X#XL (.J #X#X#X[ , H #X$.n.n.#.[ [ 8 9 = #X#X#X#X#X#X",
"#X#X#X} 5.r.#X#X#X#XL (.G #X#X#X[ # [ #Xz.Y.Y.z.[ [ 2.F.j.@.x x , #X#X",
"#X#X#X#X>.e.d.#X#X#X#XG #X#X#X#X[ # [ #X[ z.z.[ [ [ V.R.F.2.[ [ [ [ #X",
"#X#X#X#X#Xw.u.k.A G #X#X#X#X#X#X#X[ #X#X[ [ [ [ [ [ [ V.2.[ [ [ [ [ #X",
"#X#X#X#X#X#Xr.q.Z F G #X#X#X#X#X#X#X#X#X#X#X#X#X#X#X#X#X#X#X#X#X#X#X#X",
"#X#X#X#X#X#Xl n C S #X#X#X#X#Xi.i.j.i.1.1.a.%.#X#X#XY.#X#X#X#XS.#X#X#X",
"#X#X#X#X#X#X#Xz #X#X!.'.'.#X#XJ.U.R..X.X.XT.C.#X#X#X#X#X#X#X#X#X#X#X#X",
"#X{ { { P 2 #X#X#X).}.@XoX'.#X! ] [ [ [ [ [ [ #XL.#X#X#X#X.X#X#X#X#X#X",
"} { { { { 2 a #X#X`.|.OX+X'.#X#X#X#X#X#X#X#X#X#X#X#X#X#X#X#X#X#X#X#X#X",
"#X{ { { P 2 #X#X#X^.{. XXX'.#XG U ) [ [ [ [ [ #XT.#X#X#X#XR.#X#X#X#X#X",
"#X#X#X#X#X#X#Xd #X#XE.W.Q.#X#Xx.m.Z.K.D.H.G.G.#X#X#X#X#X#X#X#X#X#X#X#X",
"#X#X#X#X#X#X2 7 h l #X#X#X#X#X,.s.h.h.p.l.3.4.#X#X#XI.#X#X#X#X.X#X#X#X",
"#X#X#X#X#X#X2 2 i j l #X#X#X#X#X#X#X#X#X#X#X#X#X#X#X#X#X#X#X#X#X#X#X#X",
"#X#X#X#X#X{ N 2 6 f #X#X#X#X#X#X#XG #X#XG G G I W ` 0.0.[ [ [ [ [ [ #X",
"#X#X#X#X{ { { #X#X#X#Xl #X#X#X#XD : G #XG G G G G *.M.A.9.[ [ H H x #X",
"#X#X#XR { { #X#X#X#Xu +.m #X#X#XZ . G #XG 6.( G G &.b.b.=.> + @ # #X#X",
"#X#X#X#X{ #X#X#X#X#X3 ..M #X#X#Xg ; S #X7.B.f.( G G / q X #X#X#X#X#X#X",
"#X#X#X#X#X#X#X#X#X#X2 O.r #X#X#Xs & B #X<.N.f.( b o O #X#X#X#X#X#X#X#X",
"#X#X#X#X#X#X#X#X#X#X2 X.e #X#X#Xp % c #XV -.Q 1 o #X#X#X#X#X#X#X#X#X#X",
"#X#X#X#X#X#X#X#X#X#X2 o.2 #X#X#Xk   l #Xc v * #X#X#Xc.#X#X#X#X#X#X#X#X",
"#X#X#X#X#X#X#X#X#X#X2 2 2 #X#X#X#Xh #X#X< -   #X#Xy.t.t.#X#X#X#X#X#X#X",
"#X#X#X#X#X#X#X#X#X#X2 2 2 2 #X#X#X#X#X#X#X#X#X#X#X#X| #X#X#X#X#X#X#X#X",
"#X#X#X#X#X#X#X#X#X#X#X2 2 2 2 0 w 4 #X#X#X#XP #X#X#X#X#X#X#X#X#X#X#X#X",
"#X#X#X#X#X#X#X#X#X#X#X#X2 o. .y t 0 2 #X#XY { R #X#X#X#X#X#X#X#X#X#X#X",
"#X#X#X#X#X#X#X#X#X#X#X#X#X2 2 2 2 2 #X#X#X#XT #X#X#X#X#X#X#X#X#X#X#X#X",
"#X#X#X#X#X#X#X#X#X#X#X#X#X#X#X#X#X#X#X#X#X#X#X#X#X#X#X#X#X#X#X#X#X#X#X"
};
