/* XPM */
static char *_5[] = {
/* columns rows colors chars-per-pixel */
"35 35 139 2 ",
"   c #0A000C",
".  c #120313",
"X  c #1A061D",
"o  c #1D0720",
"O  c #1E0823",
"+  c #220826",
"@  c #240A29",
"#  c #2A0B2E",
"$  c #2B0C32",
"%  c #350E39",
"&  c #3C0D3E",
"*  c #35113D",
"=  c #3E0F42",
"-  c #3C1344",
";  c #3B1844",
":  c #371F4B",
">  c #3B1D4B",
",  c #36224D",
"<  c #3C2351",
"1  c #342E56",
"2  c #323258",
"3  c #30395D",
"4  c #3E3661",
"5  c #4C0746",
"6  c #420D43",
"7  c #490A46",
"8  c #431347",
"9  c #43134A",
"0  c #49134D",
"q  c #4D1654",
"w  c #451A50",
"e  c #4C1A56",
"r  c #4E1B5A",
"t  c #521A52",
"y  c #5B135E",
"u  c #521A5B",
"i  c #4C2052",
"p  c #502357",
"a  c #561C62",
"s  c #5A1D65",
"d  c #5D1F69",
"f  c #5F1C70",
"g  c #621E72",
"h  c #6F1E79",
"j  c #701876",
"k  c #701C79",
"l  c #5A2061",
"z  c #5E206B",
"x  c #443766",
"c  c #672564",
"v  c #62236E",
"b  c #672A6C",
"n  c #692868",
"m  c #652474",
"M  c #672871",
"N  c #6D2C75",
"B  c #6B257C",
"V  c #6D287E",
"C  c #742D71",
"Z  c #783177",
"A  c #73317F",
"S  c #7C367D",
"D  c #2D4264",
"F  c #28536F",
"G  c #6F2A81",
"H  c #722A83",
"J  c #762C89",
"K  c #6A3685",
"L  c #6A3986",
"P  c #773483",
"I  c #7F3980",
"U  c #7A338A",
"Y  c #7F3B8C",
"T  c #65448A",
"R  c #68448C",
"E  c #674B8F",
"W  c #655293",
"Q  c #625F99",
"!  c #60679D",
"~  c #843C85",
"^  c #823D8C",
"/  c #823B94",
"(  c #873F99",
")  c #8B438F",
"_  c #894493",
"`  c #8C459C",
"'  c #904794",
"]  c #90529F",
"[  c #944DA2",
"{  c #974EA9",
"}  c #994FAB",
"|  c #9B52A6",
" . c #9A50AC",
".. c #9F56B1",
"X. c #A359AE",
"o. c #A157B2",
"O. c #A359B3",
"+. c #A95EB5",
"@. c #A95EBB",
"#. c #AB61B6",
"$. c #AE63BA",
"%. c #B165BE",
"&. c #AF64C2",
"*. c #B367C2",
"=. c #B569C1",
"-. c #B76BCA",
";. c #BB6ECD",
":. c #BF72D1",
">. c #C376D6",
",. c #C678D8",
"<. c #C97BDC",
"1. c #CD7FE0",
"2. c #2FB9B7",
"3. c #33B4B5",
"4. c #3FB3B6",
"5. c #5B82AA",
"6. c #5B88AE",
"7. c #46A3AB",
"8. c #56A9BE",
"9. c #50B8BA",
"0. c #3AC0BE",
"q. c #52B9C6",
"w. c #44C2C0",
"e. c #4FC6CB",
"r. c #55C3C3",
"t. c #50C2CB",
"y. c #4DD3D3",
"u. c #6EC4C6",
"i. c #74C4C7",
"p. c #7AC4C8",
"a. c #CE80E2",
"s. c #D181E4",
"d. c #86C4CA",
"f. c #8CC4CA",
"g. c #90C4CB",
"h. c #9CC3CB",
"j. c #BDC6D1",
"k. c #C4C7D2",
"l. c None",
/* pixels */
"l.l.l.l.l.l.l.l.l.l.l.l.l.l.l.l.l.l.l.l.l.l.l.l.l.l.l.l.l.l.l.l.l.l.l.",
"l.l.l.l.l.l.l.l.l.l.l.l.l.l.l.l.l.l.V V V h l.l.l.l.l.l.l.l.l.l.l.l.l.",
"l.l.l.l.l.l.l.l.l.l.l.l.l.l.l.l.V V V V G 8.E B l.l.l.l.l.l.l.l.l.l.l.",
"l.l.l.l.l.l.l.l.l.l.l.l.l.l.l.V V V V V R t.q.h l.l.l.l.l.l.l.l.l.l.l.",
"l.l.l.l.l.l.l.l.l.l.l.l.l.l.l.B B V l.l.l.6.E k l.l.l.l.a.l.l.l.l.l.l.",
"l.l.l.l.l.l.l.%.=.l.l.l.l.l.B ! P V l.l.l.l.l.l.l.l.l.<.a.l.l.l.l.l.l.",
"l.l.l.l.l.l.l.#.=.X.l.l.l.l.! y.K l.l.l.l.m G l.l.l.l.O.l.l.l.l.l.l.l.",
"l.l.l.l.l.l.l.l.=.%.l.l.l.l.5.8.j l.l.l.G $ m l.% O l.l.l.l.l.l.l.l.l.",
"l.l.l.l.l.l.l.l.*.%.l.l.l.T t.W l.l.l.l.l $ J l.z r O l.l.l.l.l.l.l.l.",
"l.l.l.l.l.l.l.l.+.=.` s l.l.R B l.l.l.H - e l.l.G m @ l.l.1.a.l.l.l.l.",
"l.l.~ C ) l.l.l.f P b d s l.l.l.l.l.l.m $ z l.B V H e O l.l.*.a.l.l.l.",
"l.l.C C ~ _ b l.l.d d d y l.l.l.l.l.J - > G l.( o.( V * l.l.l.l.l.l.l.",
"l.l.C C Z ' u l.l.l.l.l.l.l.l.l.l.l.l.a m l.` ;.a...B a @ o l.l.l.l.l.",
"l.l.l.l.S b 0 u l.l.r.p.r.0.l.l.l.l.l.l.l.l.B O.-...J H a $ l.l.l.l.l.",
"l.l.l.l.l.l.l.l.l.l.d.k.j.i.l.l.;. .{ l.l.l.B V U B B G / ] ; l.l.l.l.",
"l.l.l.l.l.l.l.q l.7.h.k.k.u.2.l.} >.<.@.Y U l.l.V V B ( :.s. .B l.l.l.",
"l.l.l.l.l.6 0 q l.l.9.f.g.w.l.l.f B ( -.1.*.} G l.l.l.g @.&.} V r - l.",
"l.l.l.l.C e 8 q q l.l.3.9.l.l.a l.l.l.m U O.-.l.l.l.l.l.l.U V G V B v ",
"l.~ C C C n = q q u l.l.l.l.| [ P B l.l.l.g V l.l.l.l.l.l.l.l.l.B G V ",
"l.l.C Z l.l.l.l.l.l.l.l.l.l.Y X.*.$.` H m l.l.l.,.l.l.l.l.l.l.l.l.l.l.",
"l.l.l.l.l.l.l.l.l.0 l.l.l.l.l.l.| ..O.%.o.Y l.l.l.l.l.l.l.l.l.:.l.l.l.",
"l.l.l.l.l.l.l.l.9 x l.l.l.l.l.l.l.l._ _ ` +.l.<.l.l.l.l.l.l.l.l.l.l.l.",
"l.l.l.l.l.l.l.7 2 4 w l.l.l.u e l.l.l.l.M l.l.l.l.l.l.l.l.l.l.l.l.l.l.",
"l.l.l.l.l.l.l.& F < l.l.l.q * % s l.z d l.l.l.l.#.l.l.l.l.l.l.l.l.l.l.",
"l.l.l.l.l.l.5 1 D i l.l.l.8 o u l.u f d d v a l.l.l.l.l.l.l.l.l.l.l.l.",
"l.l.l.l.l.l.8 D , l.l.l.l.% # q l.M ^ b d s m A A l.l.l.l.+.l.l.l.l.l.",
"l.l.l.l.l.l.& & 6 l.l.l.- @ 8 l.l._ | A s v ^ +.| m d l.l.l.l.l.l.l.l.",
"l.l.l.l.l.l.& & 6 l.l.l.% . q l.u ~ _ N a d ^ $.+.A m d s u l.l.l.l.l.",
"l.l.l.l.l.l.9 & & l.l.l.0 & l.l.u b l 8 9 $ e i p ; $ - e u u l.l.l.l.",
"l.l.l.l.l.l.l., 3 - > l.l.l.l.# % # @ X . l.. l.  l.l.. X # l.l.l.l.l.",
"l.l.l.l.l.l.l.w 2 D 3 > 0 l.l.l.o . l.l.l.l.l.l.l.l.l.l.l.l.l.l.l.l.l.",
"l.l.l.l.l.l.l.l.7 & : , & l.l.l.l.l.l.l.Z C l.l.l.l.l.l.l.l.l.l.l.l.l.",
"l.l.l.l.l.l.l.l.l.l.l.8 l.l.l.S c l.l.l.~ C ~ l.l.l.l.l.l.l.l.l.l.l.l.",
"l.l.l.l.l.l.l.l.l.l.l.l.l.l.l.~ C S l.l.l.l.l.l.l.l.l.l.l.l.l.l.l.l.l.",
"l.l.l.l.l.l.l.l.l.l.l.l.l.l.l.l.l.l.l.l.l.l.l.l.l.l.l.l.l.l.l.l.l.l.l."
};
