/* XPM */
static char *_6[] = {
/* columns rows colors chars-per-pixel */
"35 35 139 2 ",
"   c #1A051C",
".  c #1F0621",
"X  c #220725",
"o  c #200825",
"O  c #270829",
"+  c #2A0A2C",
"@  c #2C0C32",
"#  c #310D34",
"$  c #350E39",
"%  c #3D0D3F",
"&  c #321034",
"*  c #32103A",
"=  c #3C0F41",
"-  c #3C1344",
";  c #381946",
":  c #3F1C4D",
">  c #36254E",
",  c #3B214E",
"<  c #342750",
"1  c #3B2553",
"2  c #332C53",
"3  c #382853",
"4  c #392E58",
"5  c #2F385D",
"6  c #313056",
"7  c #30365B",
"8  c #411145",
"9  c #43144B",
"0  c #4C174F",
"q  c #441A4E",
"w  c #461751",
"e  c #4C1654",
"r  c #451C53",
"t  c #4F1955",
"y  c #4C1959",
"u  c #501656",
"i  c #501957",
"p  c #531B5C",
"a  c #412C5C",
"s  c #54245B",
"d  c #561D62",
"f  c #591D64",
"g  c #5E1E6D",
"h  c #542360",
"j  c #5D2263",
"k  c #5E216C",
"l  c #433E6A",
"z  c #62246A",
"x  c #692A6E",
"c  c #652473",
"v  c #682577",
"b  c #6C2D74",
"n  c #672578",
"m  c #6B267C",
"M  c #6D287E",
"N  c #752F75",
"B  c #733176",
"V  c #75347C",
"C  c #7C357C",
"Z  c #2D4465",
"A  c #354769",
"S  c #40406B",
"D  c #6D2C80",
"F  c #712B82",
"G  c #693283",
"H  c #683E89",
"J  c #763187",
"K  c #7B3981",
"L  c #783289",
"P  c #7D398A",
"I  c #66438B",
"U  c #66498D",
"Y  c #644C90",
"T  c #605E97",
"R  c #605F98",
"E  c #5D6D9F",
"W  c #5C7AA6",
"Q  c #823B84",
"!  c #813D8E",
"~  c #823C93",
"^  c #873E99",
"/  c #86418B",
"(  c #88408B",
")  c #8E4591",
"_  c #8C459C",
"`  c #8F499B",
"'  c #934997",
"]  c #924B9E",
"[  c #994F9E",
"{  c #934BA5",
"}  c #974EA8",
"|  c #984EA9",
" . c #9754A7",
".. c #9A51AB",
"X. c #9F55B0",
"o. c #A054A7",
"O. c #A057AC",
"+. c #A45AAE",
"@. c #A55BB5",
"#. c #A95FB5",
"$. c #A75DB9",
"%. c #A85EBA",
"&. c #AF64BB",
"*. c #B065BD",
"=. c #B165C4",
"-. c #B669C6",
";. c #BB6ECD",
":. c #BF72D0",
">. c #C476D6",
",. c #C578D8",
"<. c #CB7CDD",
"1. c #CD7FE0",
"2. c #3AABAE",
"3. c #5986AB",
"4. c #598AAE",
"5. c #5797B4",
"6. c #5895B4",
"7. c #559DB7",
"8. c #57A5AC",
"9. c #46AEB3",
"0. c #54A1B9",
"q. c #4EB3B6",
"w. c #4DB6B9",
"e. c #75BFC4",
"r. c #7EC3C7",
"t. c #7BCBCD",
"y. c #64D2CF",
"u. c #48EFDF",
"i. c #56EFE2",
"p. c #5CEFE2",
"a. c #5FF0E4",
"s. c #8BC2C9",
"d. c #A4C4CD",
"f. c #B2C5CE",
"g. c #B4C5D0",
"h. c #B5CAD1",
"j. c #9AE3E1",
"k. c #90F0E9",
"l. c None",
/* pixels */
"l.l.l.l.l.l.l.l.l.l.l.l.l.l.l.l.l.l.l.l.l.l.l.l.l.l.l.l.l.l.l.l.l.l.l.",
"l.l.l.l.l.l.l.l.l.l.l.l.l.l.l.l.l.l.l.l.l.l.l.l.l.l.l.l.l.l.l.l.l.l.l.",
"l.l.l.l.l.l.l.l.l.l.l.l.<.<.l.l.l.l.l.l.l.l.l.l.l.l.l.l.l.l.l.l.l.l.l.",
"l.l.l.l.l.l.l.l.l.l.l.l.,.<.l.l.l.l.l.l.l.m m m m M m l.l.l.l.l.l.l.l.",
"l.l.l.l.l.l.l.l.l.l.l.l.>.1.l.l.l.l.l.l.M M m D m m H G l.l.l.l.l.l.l.",
"l.l.l.l.l.' o.+.l.l.l.l.:.1.l.l.l.l.l.U U M m m m I 6.W D l.l.l.l.l.l.",
"l.l.l.l.l.[ @.*.o.l.l.l.-.<.l.l.l.l.E 0.W G l.l.l.l.7.4.G l.l.l.l.l.l.",
"l.l.l.l.l.( +.&.&.P l.l._ $.^ l.l.R 0.5.U l.l.l.l.l.l.I M l.l.l.l.l.l.",
"l.l.l.l.l.l.' @.] b l.l.c J m m l.T 3.U l.l.l.l.l.l.l.l.l.l.l.l.l.l.l.",
"l.l.l.l.l.l.l.C b f l.l.l.v m m l.l.l.l.l.l.l.m f y l.l.l.l.l.<.l.l.l.",
"l.l.l.l.l.l.l.l.l.l.l.l.l.l.l.l.l.l.l.l.l.l.m d - d l.l.l.l.l.>.<.l.l.",
"l.l.l.l.l.l.l.l.l.l.l.8.e.t.p.l.l.l.l.l.l.m f : y n l.y $ l.l.l.l.l.l.",
"l.l.( Q Q C z p f l.l.e.d.h.k.i.l.l.l.l.l.p - y g l.m n 9 . l.l.l.l.l.",
"l.l.Q C N Q z f f f l.e.f.g.j.a.l.l.l.l.l.w p n l.F D v w l.l.l.l.l.l.",
"l.l.l.l.l.l.l.i f f l.w.r.s.y.u.l.=.X.l.l.l.l.l.{ | _ D y l.l.l.<.l.l.",
"l.l.l.l.l.l.l.l.t p l.l.9.q.2.l.D { =.@.l.l.l.D ..;.$.L d @ l.-.,.l.l.",
"l.l.l.l.l.l.l.l.l.l.l.l.l.l.l.z l.F { -.| l.l.F { $.O.J f @ l.l.l.l.l.",
"l.l.l.l.l.l.l.q r l.l.l.l.l.` P v l.F { =.| l.l.F L L F n - X l.l.l.l.",
"l.l.l.l.l.l.% S S l.l.l.l.l.] &.~ g l.F { =...l.l.m D F F h * l.l.l.l.",
"l.l.l.l.l.1 5 A a l.l.l.l.l.l.+.+.! v l.D { O.l.l.l.m ~ $. .h l.l.l.l.",
"l.l.l.l.% Z Z , l.l.l.l.l.l.l.l... .P z l.m l.l.l.l.l.^ -.;.P l.l.l.l.",
"l.l.l.8 - 2 1 l.l.l.l.9 9 - l.l.l.] { P f l.l.l.l.l.l.l.....P k l.l.l.",
"l.l.l.8 % 8 l.l.l.l.= $ @ 9 l.l.l.l.~ ] l.l.l.l.l.l.l.l.l.F D k w l.l.",
"l.l.l.% = 8 l.l.l.8 $ X 8 i l.p f l.l.l.l.l.l.l.l.l.l.l.l.l.D D f e l.",
"l.l.l.q ; 8 l.l.l.+ O = 9 l.i j f f l.l.l.l.l.l.l.l.l.l.l.l.l.m m l.l.",
"l.l.l.4 7 , l.l.l.+ @ 9 l.x V x p f d l.l.l.l.l.l.l.l.l.l.l.l.l.p l.l.",
"l.l.l.q > 6 3 l.l.l.l.l.0 C Q B p p d f l.l.l.l.l.l.l.l.l.l.l.l.l.l.l.",
"l.l.l.l.9 > < : l.l.l.% 8 z B z i i k V B l.l.l.l.l.l.l.l.l.l.l.l.l.l.",
"l.l.l.l.l.9 ; q l.l.l.+ + # $ - 9 i x / K j l.l.l.l.l.l.l.l.l.l.l.l.l.",
"l.l.l.l.l.l.l.l.l.l.l.l.  l.l.. X # s B B p e l.l.l.l.l.l.l.l.l.l.l.l.",
"l.l.l.l.l.l.l.l.l.l.l.l.l.l.l.l.l.  @ & 8 % 9 8 l.l.l.l.l.l.l.l.l.l.l.",
"l.l.l.l.l.l.l.l.l.Q B l.l.l.l./ l.l.l.l.l.  + $ 8 l.l.l.l.l.l.l.l.l.l.",
"l.l.l.l.l.l.l.l.l.l.Q l.l.l.Q C l.l.l.l.l.l.  O $ 9 l.l.l.l.l.l.l.l.l.",
"l.l.l.l.l.l.l.l.l.l.l.l.l.l.l.l.l.l.l.l.l.l.l.l.l.l.l.l.l.l.l.l.l.l.l.",
"l.l.l.l.l.l.l.l.l.l.l.l.l.l.l.l.l.l.l.l.l.l.l.l.l.l.l.l.l.l.l.l.l.l.l."
};
