/* XPM */
static char *_7[] = {
/* columns rows colors chars-per-pixel */
"35 35 143 2 ",
"   c #0D000F",
".  c #120314",
"X  c #150418",
"o  c #1C061E",
"O  c #1E081F",
"+  c #1C0720",
"@  c #1E0823",
"#  c #230926",
"$  c #260929",
"%  c #2C0C2F",
"&  c #220724",
"*  c #2C0C31",
"=  c #320B34",
"-  c #350E39",
";  c #3C0D3E",
":  c #35113D",
">  c #42093E",
",  c #3E0E40",
"<  c #3A1343",
"1  c #3F1549",
"2  c #36244F",
"3  c #342E56",
"4  c #30355A",
"5  c #30385D",
"6  c #490744",
"7  c #460B45",
"8  c #480843",
"9  c #431145",
"0  c #45134B",
"q  c #48144C",
"w  c #451C4E",
"e  c #4D1653",
"r  c #451850",
"t  c #4C1855",
"y  c #4F1659",
"u  c #4F1A59",
"i  c #561F54",
"p  c #531A5B",
"a  c #5C195D",
"s  c #442257",
"d  c #4F225F",
"f  c #432A5B",
"g  c #561C62",
"h  c #5A1D64",
"j  c #5E1F6A",
"k  c #601C71",
"l  c #6F1C78",
"z  c #701876",
"x  c #711575",
"c  c #5E206B",
"v  c #59296D",
"b  c #592A62",
"n  c #463868",
"m  c #4E3D72",
"M  c #62246A",
"N  c #682A6D",
"B  c #642462",
"V  c #702B6E",
"C  c #642373",
"Z  c #6C2D73",
"A  c #6B257B",
"S  c #6D287D",
"D  c #732D71",
"F  c #743177",
"G  c #7D377E",
"H  c #73317E",
"J  c #2D4465",
"K  c #324063",
"L  c #4C537F",
"P  c #6E2A80",
"I  c #722B84",
"U  c #772C89",
"Y  c #6B3484",
"T  c #693D88",
"R  c #763384",
"E  c #7A3786",
"W  c #773288",
"Q  c #7A338C",
"!  c #3B6884",
"~  c #654D90",
"^  c #635A97",
"/  c #645393",
"(  c #61649B",
")  c #5F75A5",
"_  c #5E78A6",
"`  c #616DA0",
"'  c #833B84",
"]  c #843F8C",
"[  c #823B93",
"{  c #863F98",
"}  c #8A438D",
"|  c #884393",
" . c #8A439B",
".. c #8E4898",
"X. c #904895",
"o. c #924B9B",
"O. c #8F46A0",
"+. c #954CA5",
"@. c #984EA9",
"#. c #9650A2",
"$. c #9C52A5",
"%. c #9C53AA",
"&. c #A55AAE",
"*. c #A75DB4",
"=. c #A95EB4",
"-. c #A65CB8",
";. c #AA5FBD",
":. c #AA60B6",
">. c #AD62BA",
",. c #AF64C1",
"<. c #B467C3",
"1. c #B568C2",
"2. c #B76BC9",
"3. c #BF72D2",
"4. c #C477D6",
"5. c #C679D9",
"6. c #CA7CDD",
"7. c #CD7FE0",
"8. c #338796",
"9. c #5A89AE",
"0. c #589FB9",
"q. c #56A3BA",
"w. c #3AC0BE",
"e. c #3EEEE0",
"r. c #3AFFE8",
"t. c #54C7C6",
"y. c #5EDED7",
"u. c #7FD0D1",
"i. c #4BE1D9",
"p. c #49EDE0",
"a. c #4EF0E2",
"s. c #5BF4E6",
"d. c #60F0E4",
"f. c #7FF2E9",
"g. c #CE80E1",
"h. c #D284E5",
"j. c #81E4E0",
"k. c #9AF3ED",
"l. c #A4F3EE",
"z. c #B5F4F0",
"x. c #DCF5F6",
"c. c #E3F6F7",
"v. c None",
/* pixels */
"v.v.v.v.v.v.v.v.v.v.v.v.v.v.v.v.v.v.v.v.v.v.v.v.v.v.v.v.v.v.v.v.v.v.v.",
"v.v.v.v.v.v.v.v.v.v.o.v.v.v.v.v.v.v.g.v.v.v.v.v.v.v.v.v.v.v.v.v.v.v.v.",
"v.v.v.v.v.v.v.v.v.v.=.1.7.v.v.v.v.v.g.g.v.v.v.v.v.v.v.v.v.v.v.v.v.v.v.",
"v.v.v.v.v.v.v.v.v.v.>.1.6.v.v.v.v.v.g.g.v.v.v.v.v.v.v.v.v.v.v.v.v.v.v.",
"v.v.v.v.v.v.v.v.v.v.&.1.5.5.v.v.v.g.7.v.v.v.v.v.v.v.v.v.v.v.v.v.v.v.v.",
"v.v.v.v.v.v.v.v.v.v.v.:.4.%.v.v.<.h.h.v.v.v.v.v.v.v.v.v.v.v.v.v.v.v.v.",
"v.v.v.v.v.v.v.v.v.v.v.H A C v.v.[ 5.3.v.v.v.v.v.S S P S P v.v.v.v.v.v.",
"v.v.v.v.v.$.$.v.v.v.v.v.v.P v.S A W A v.v.v.~ ^ / l S S S S S v.v.v.v.",
"v.v.v.v.v.$.&.>.>.g j v.v.v.v.v.v.S S v.v.( q.i.9.P S P S S l S v.v.v.",
"v.v.v.v.v.v.o.:.#.N j c v.v.v.s.v.v.S v.l q._ Y z v.v.v.v.Y 0.P v.v.v.",
"v.v.v.v.v.v.v.v.v.j c j v.y.k.z.d.v.v.v.v.v.x v.v.v.v.v.v.( p.` v.v.v.",
"v.v.v.v.v.v.v.v.v.j M j v.u.c.c.l.e.v.v.v.v.v.v.v.v.v.v.v.v.) T S v.v.",
"v.v.v.v.v.v.v.v.v.v.h a v.t.x.x.l.a.v.v.v.v.v.v.v.v.I C P v.l A v.v.v.",
"v.v.v.v.v.v.v.v.p v.v.v.v.w.j.f.a.v.v.v.v.v.v.U P h * * C v.v.v.v.v.v.",
"v.v.v.v.v.8 t m ! v v.v.v.v.v.r.v.v.6.O.v.v.C 1 * < p P v.v.v.v.v.v.v.",
"v.v.v.9 < K 8.! v b v.v.v.v.v.v.v.C <.-.v.v.g < C v v.v.v.: v.v.6.6.v.",
"v.v.0 ; 2 5 n f v.v.v.v.v.v.%. .k v.{ 7.@.v.v.U v.v.v.P P r X v.;.g.v.",
"v.v.; ; ; 8 v.v.v.v.v.v.v.v.$.*.C v.A 5.%.v.v.v.[ @.Q A P < @ v.v.g.v.",
"v.8 ; ; v.v.v.v.v.v.v.h v.v.$.1.W v.v.%.2.W v.S +.6.<.W P * v.v.v.v.v.",
"v.3 J > v.v.v.v.v.9 e : t v.v.*.%.h v.P g. .v.A +.4.<.Q g $ v.v.v.v.v.",
"v.< J < v.v.v.; - $ + - p v.v.o.-.C v.g -.-.Q v.W Q +.A r @ v.6.7.v.v.",
"v.7 3 3 s v.; . & < e e v.v.v.| &.| y v.Z +.v.v.S S A I < v.v.>.g.v.v.",
"v.v.< 5 < v.q - 9 v.v.v.q g p v.E *.c v.v.v.v.v.c A P S < + v.v.7.v.v.",
"v.v.< < q v.v.v.v.v.N F M y g v.Z v.v.v.v.*.v.v.v.v %.+.r v.v.v.v.v.v.",
"v.v.v.v.v.v.v.= ; 9 D X.Z i e e v.v.v.>.v.v.v.>.v.R :.1.b . v.v.v.v.v.",
"v.v.v.v.v.v.v.& = 9 B V M e e p v.v.v.v.v.v.v.v.v.v.[ %.Z v.v.v.v.v.v.",
"v.v.v.v.v.v.v.v.. O = 9 0 e e e v.v.v.v.v.v.v.v.v.v.c Z p v.v.v.v.v.v.",
"v.v.v.v.v.V B v.v.v.X $ = e N Z a v.v.v.v.v.v.v.v.v.v.c u - v.v.v.v.v.",
"v.v.v.v.G D v.v.v.v.v.v.. q F } N v.v.v.v.v.v.v.v.v.v.h h % v.v.v.v.v.",
"v.v.v.v.v.v.v.v.v.V v.v.  % i F i 0 v.v.v.v.v.v.v.} v.q p 0 v.v.v.v.v.",
"v.v.v.v.v.v.v.v.v.D F v.v.v.@ 9 9 7 v.v.v.v.v.v.v.v.v.v.9 v.v.v.v.v.v.",
"v.v.v.v.v.v.v.v.v.v.' v.v.v.v.. = < v.v.' v.v.v.v.v.v.v.v.v.v.v.v.v.v.",
"v.v.v.v.v.v.v.v.v.v.v.v.v.v.v.v.o ; 9 v.v.v.v.v.v.v.v.v.v.v.v.v.v.v.v.",
"v.v.v.v.v.v.v.v.v.v.v.v.v.v.v.v.  = ; v.v.v.v.v.v.v.v.v.v.v.v.v.v.v.v.",
"v.v.v.v.v.v.v.v.v.v.v.v.v.v.v.v.v.$ - v.v.v.v.v.v.v.v.v.v.v.v.v.v.v.v."
};
