/* XPM */
static char *_8[] = {
/* columns rows colors chars-per-pixel */
"35 35 191 2 ",
"   c #100311",
".  c #120313",
"X  c #130314",
"o  c #150417",
"O  c #19041A",
"+  c #18051B",
"@  c #19061C",
"#  c #19061D",
"$  c #1B061F",
"%  c #1C061D",
"&  c #1D051E",
"*  c #1C0620",
"=  c #1E0823",
"-  c #210622",
";  c #210821",
":  c #200823",
">  c #210824",
",  c #230927",
"<  c #260828",
"1  c #2A0A2E",
"2  c #2D0E34",
"3  c #330B35",
"4  c #3C0E3F",
"5  c #3D0E3F",
"6  c #35113D",
"7  c #3D0E40",
"8  c #3E0F40",
"9  c #3E0F41",
"0  c #3F0F42",
"q  c #391243",
"w  c #3D1844",
"e  c #35244E",
"r  c #303459",
"t  c #411043",
"y  c #401044",
"u  c #411044",
"i  c #421146",
"p  c #411247",
"a  c #441248",
"s  c #451248",
"d  c #441249",
"f  c #45124A",
"g  c #46134B",
"h  c #44144C",
"j  c #49144A",
"k  c #48144E",
"l  c #491550",
"z  c #4A1550",
"x  c #4A1551",
"c  c #4C1653",
"v  c #4D1654",
"b  c #4D1754",
"n  c #4E1755",
"m  c #451850",
"M  c #4F1857",
"N  c #501957",
"B  c #551C55",
"V  c #561C56",
"C  c #501858",
"Z  c #52195B",
"A  c #501A5C",
"S  c #541A5D",
"D  c #551B5F",
"F  c #5A1E59",
"G  c #561B60",
"H  c #561C61",
"J  c #571C61",
"K  c #571C62",
"L  c #591D64",
"P  c #5A1E66",
"I  c #5B1E66",
"U  c #5B1E67",
"Y  c #572266",
"T  c #5E206B",
"R  c #5D216C",
"E  c #5F206C",
"W  c #573D79",
"Q  c #612360",
"!  c #622361",
"~  c #692766",
"^  c #60236B",
"/  c #60216D",
"(  c #60216E",
")  c #6B2869",
"_  c #6F2A6C",
"`  c #712C6F",
"'  c #722C6F",
"]  c #672576",
"[  c #662D71",
"{  c #6F2E71",
"}  c #6F2F73",
"|  c #6A2876",
" . c #682578",
".. c #6A267A",
"X. c #6C277C",
"o. c #6C277D",
"O. c #6C2A79",
"+. c #6F2E7B",
"@. c #6D287E",
"#. c #732C70",
"$. c #702C7E",
"%. c #723277",
"&. c #773075",
"*. c #71307A",
"=. c #743379",
"-. c #77357B",
";. c #73327D",
":. c #77357D",
">. c #2A4E6C",
",. c #285470",
"<. c #6C2C80",
"1. c #693B87",
"2. c #753380",
"3. c #753281",
"4. c #763382",
"5. c #7A3785",
"6. c #79328A",
"7. c #7C3888",
"8. c #7E3A8A",
"9. c #7F3C8D",
"0. c #535185",
"q. c #664A8F",
"w. c #654C8F",
"e. c #654D90",
"r. c #654F91",
"t. c #635E99",
"y. c #437994",
"u. c #5E78A5",
"i. c #843C86",
"p. c #874192",
"a. c #8F4793",
"s. c #8F4794",
"d. c #934AA5",
"f. c #9850A4",
"g. c #9B52AD",
"h. c #9B52AE",
"j. c #A257AB",
"k. c #A45AAE",
"l. c #A65BAF",
"z. c #A057B1",
"x. c #A65DB3",
"c. c #A95EB4",
"v. c #A95FB4",
"b. c #A85EB5",
"n. c #A95EB5",
"m. c #A95FB5",
"M. c #A65CB8",
"N. c #A95FBB",
"B. c #AD62B8",
"V. c #B165BD",
"C. c #B065BE",
"Z. c #B166BE",
"A. c #B266BF",
"S. c #B367BF",
"D. c #AF64C1",
"F. c #B367C0",
"G. c #B065C2",
"H. c #B266C4",
"J. c #B267C5",
"K. c #B469C6",
"L. c #B569C7",
"P. c #B56AC8",
"I. c #BA6EC9",
"U. c #BB6FCB",
"Y. c #BF72D2",
"T. c #C073CF",
"R. c #C073D2",
"E. c #C275D5",
"W. c #C477D5",
"Q. c #C577D7",
"!. c #C578D8",
"~. c #C97CDC",
"^. c #CA7CDD",
"/. c #CD7FE0",
"(. c #44A4AF",
"). c #55A8BD",
"_. c #40B0B5",
"`. c #53B1C2",
"'. c #53B3C3",
"]. c #50C7CD",
"[. c #49EDE0",
"{. c #49EFE1",
"}. c #63EFE4",
"|. c #7BF1E8",
" X c #CE80E1",
".X c #A5F3EE",
"XX c #C1F4F2",
"oX c #D3F5F5",
"OX c #D7F5F5",
"+X c #D9F6F6",
"@X c None",
/* pixels */
"@X@X@X@X@X@X@X@X@X@X@X@X@X@X@X@X@X/.@X@X@X@X@X@X@X@X@X@X@X@X@X@X@X@X@X",
"@X@X@X@X@X@X@X@X@X@X@X@X@X@X@X@X X X X@X@X@X@X@X@X@X@X@X@X@X@X@X@X@X@X",
"@X@X@X@X@X@X@X@X@X@X@X@X@X@X@X@X X X X@X@X@X@X@X@X@X@X@X@X@X@X@X@X@X@X",
"@X@X@X@X@X@X@X@X@X@XA.@X@X@X@X@X X X X@X@X@X@X@X/.@X@X@X@X@X@X@X@X@X@X",
"@X@X@X@X@X@X@X@X@XF.F.S.@X@X@X@XP. XP.@X@X@X@X X X X@X@X@X@X@X@X@X@X@X",
"@X@X@X@X@X@X@X@X@X@XF.F.W.@X@X@X@.@.@.@X@X@X X X X@X@X@X@X@X@X@X@X@X@X",
"@X@X@X@X@X@X@X@X@X@X@XF.T. X@.@X@X@.@X@X@.@.N. X@X@X@X@X@X@X@X@X@X@X@X",
"@X@X@X@X@X@X@X@X@X@X@X@XI.K.@.@.@X@X@X@.@.@.@.@X@X@X@X@X@X@X@X@X@X@X@X",
"@X@X@X@X@X@X@X@X@X@X@X@X/ o.@.@X@X@X@X@X@.@.@.@X@X@X@X@X@X@X@X@X@X@X@X",
"@X@X@X@X@X@X@X@X@X@X@X@XE ..@.@X}.|.}.@X@.@.@.@X@X@X@X@X@X@X@X@X@X@X@X",
"@X@X@X@Xk b H Y 0.W W @X@X] @X{.XX+XXX{.@X@.@X@X@.@.@.@.@.@.@.@X@X@X@X",
"@X@X@X4 f v S y._.(.(.T @X@X@X{.OX+XOX{.@X@X@X@.u.).{.[.{.@.@.@.@X@X@X",
"@X@X4 4 0 c C K P T T @X@X@X@X{..XoX.X{.@X@X@X@X1.w.t.r.@.@.@.@.@.@X@X",
"@X4 4 4 7 @X@X@X@X@X@X@X@X@X@X@X{.{.{.@X@X@X@X@X@X@X@X@X@X@X@.@.{.@.@X",
"@X4 4 4 @X@X@X@X@X@X@X@X@X@X@X@X@X@X@X@X@X@X@X@X@X@X@X@X@X@X@X@.].@.@X",
"@X4 ,.e @X@X@X@X@X@X@X@X@X@X8.Q.@.@X@.Y.d.@X@X@X@X@X@X@X@X@X@Xq.'.@.@X",
"@X4 >.r @X@Xl v Z K U T @X@X7.U.o.@X@.!.G.@X@X@.@.R R R @.@X@Xe.`.@.@X",
"@X4 4 4 @X4 % o : , + # T @Xp.F. .@X@. XL.@X@.2 = 2 2 2 = @.@X<.q.@.@X",
"@X@X4 @X@X@X9 x p h J I @X@X7.F.( @X@. XL.@X@X@.@.@.@.@.@.@X@X@X@.@X@X",
"@X@X@X@X@X@X@X@X@X@X@X@X@X@X+.F.T @X .R.M.@X@X@X@X@X@X@X@X@X@X@X@X@X@X",
"@X@X@X@X@XO 3 0 z N =.D L @X+.F.T @XT C.z.@X@.@.@.h.h.@.@.m @X@X@X@X@X",
"@X@X_ @X@X  4 4 s -.s.:.H @X9.Z.T @XT n.4.@X] X.g.~.~.g.@.6 @X@XE.@X@X",
"@X#.` F @X    4 t { s.%.C @X^ f.T @XT n.3.@XT / $.D.J.6.2 = @XH. X^.@X",
"@X@X' @X@X@X@X& 4 u } v b @X@X@X@X@X@X@X@X@XT T T | O.q @X@X@X@X/.@X@X",
"@X@X@X@X@X@X@X  < 5 y c v @X@X@Xj.@XV.@X@X@XT T T T A $ @X@X@X@X@X@X@X",
"@X@X@X@X@X` @X@X  4 5 d v @X@X@X@X@X@X@X@X@XT 5.5.T $ @X@XB.@X@X@X@X@X",
"@X@X@X@X` ` B @X  - j Q f @Xs.@X@X@X@X@Xv.@X5.b.b.[ * @Xm.c.k.@X@X@X@X",
"@X@X@X@X@X' @X@X@X; ) ' ! @X@X@X@X@X@X@X@X@X2.x.b.w @X@X@Xl.@X@X@X@X@X",
"@X@X@X@X@X@X@X@X@XX V ) j @X@X@X@X@X@X@X@X@XG *.;.@ @X@X@X@X@X@X@X@X@X",
"@X@X@X@X@X@X@X@X@X@X8 j 4 @X@X@Xi.@Xa.@X@X@Xn M > @X@X@X@X@X@X@X@X@X@X",
"@X@X@X@X@X@X@X@X@X@X< 4 4 @X@X@X@X@X@X@X@X@Xg a . @X@X@X@X@X@X@X@X@X@X",
"@X@X@X@X@X@X@X@X@X@X< 4 4 @X~ @X@X@X@X@X&.@X7 3   @X@X@X@X@X@X@X@X@X@X",
"@X@X@X@X@X@X@X@X@X@XO 4 4 @X@X@X@X@X@X@X@X@X4 3   @X@X@X@X@X@X@X@X@X@X",
"@X@X@X@X@X@X@X@X@X@X@Xi 4 @X@X@X@X@X@X@X@X@X4 1 @X@X@X@X@X@X@X@X@X@X@X",
"@X@X@X@X@X@X@X@X@X@X@X@X@X@X@X@X@X@X@X@X@X@X@X@X@X@X@X@X@X@X@X@X@X@X@X"
};
