/* XPM */
static char *_9[] = {
/* columns rows colors chars-per-pixel */
"35 35 135 2 ",
"   c #0D000F",
".  c #120313",
"X  c #1D051E",
"o  c #1E0721",
"O  c #1F0824",
"+  c #220926",
"@  c #260928",
"#  c #290A2C",
"$  c #2C0C31",
"%  c #320B35",
"&  c #3C0E3E",
"*  c #35113C",
"=  c #381238",
"-  c #3E0E41",
";  c #3B1444",
":  c #362650",
">  c #3C3660",
",  c #400E42",
"<  c #480D48",
"1  c #411045",
"2  c #44134A",
"3  c #49144E",
"4  c #5C0F5C",
"5  c #4B1652",
"6  c #4D1955",
"7  c #4F1659",
"8  c #4E1C5A",
"9  c #531B55",
"0  c #52175B",
"q  c #551B5D",
"w  c #591E5B",
"e  c #5F215E",
"r  c #61225F",
"t  c #5E1260",
"y  c #571C62",
"u  c #5A1E64",
"i  c #5D1F69",
"p  c #601C6A",
"a  c #611D72",
"s  c #6F1E79",
"d  c #711373",
"f  c #701977",
"g  c #5C2264",
"h  c #5E206B",
"j  c #5D296F",
"k  c #413462",
"l  c #583E7B",
"z  c #62236D",
"x  c #6A296C",
"c  c #652464",
"v  c #702D6F",
"b  c #6B326F",
"n  c #652474",
"m  c #6A2A76",
"M  c #6C257C",
"N  c #6D297E",
"B  c #742D71",
"V  c #783176",
"C  c #74347D",
"Z  c #7B357B",
"A  c #3C5778",
"S  c #57437D",
"D  c #6D2D81",
"F  c #732B84",
"G  c #6B3484",
"H  c #693D89",
"J  c #773584",
"K  c #7A3786",
"L  c #7E3B83",
"P  c #78328A",
"I  c #30798B",
"U  c #564880",
"Y  c #67438C",
"T  c #68428B",
"R  c #655192",
"E  c #635A96",
"W  c #52628E",
"Q  c #4E6F94",
"!  c #61639A",
"~  c #616A9F",
"^  c #5F75A4",
"/  c #5E7BA7",
"(  c #823A83",
")  c #853E8C",
"_  c #843D96",
"`  c #863F98",
"'  c #8A428D",
"]  c #874292",
"[  c #8B4594",
"{  c #89419B",
"}  c #90479D",
"|  c #944C9D",
" . c #8F46A0",
".. c #954DA4",
"X. c #9C52A3",
"o. c #9D55AB",
"O. c #A55AAE",
"+. c #A55BB3",
"@. c #A85EB9",
"#. c #AA60B7",
"$. c #AD63BD",
"%. c #AF64C1",
"&. c #B367C3",
"*. c #B468C6",
"=. c #BB6ECA",
"-. c #BE72D1",
";. c #C477D7",
":. c #C679D9",
">. c #CA7DDE",
",. c #4B88A2",
"<. c #5C84AC",
"1. c #5898B6",
"2. c #539CB4",
"3. c #57A3BB",
"4. c #41B6B9",
"5. c #52BDC8",
"6. c #53B3C3",
"7. c #3EEEE0",
"8. c #3AFFE8",
"9. c #50C6CD",
"0. c #43F0E1",
"q. c #4CF0E2",
"w. c #5BF4E6",
"e. c #61F0E5",
"r. c #7FF2E9",
"t. c #CE80E1",
"y. c #D182E4",
"u. c #86F2EA",
"i. c #8DF2EB",
"p. c #9AF3ED",
"a. c #A4F3EE",
"s. c #B5F4F0",
"d. c #DCF6F6",
"f. c #E3F6F7",
"g. c None",
/* pixels */
"g.g.g.g.g.g.g.g.g.g.g.g.g.g.g.g.g.g.g.g.g.g.g.g.g.g.g.g.g.g.g.g.g.g.g.",
"g.g.g.g.g.g.g.g.g.g.g.g.g.g.g.g.t.g.g.g.g.g.g.g.g.g.g.g.g.g.g.g.g.g.g.",
"g.g.g.g.g.g.g.g.g.g.g.g.g.g.g.t.t.g.g.g.g.g.>.y.y.g.g.g.g.g.g.g.g.g.g.",
"g.g.g.g.g.g.g.g.g.g.g.g.g.g.g.y.t.g.g.g.g.g.y.>.>.g.g.g.g.g.g.g.g.g.g.",
"g.g.g.g.g.g.g.g.g.g.g.g.g.g.g.g.t.t.g.g.g.:.t.y.y.g.g.g.g.g.g.g.g.g.g.",
"g.g.g.g.g.g.g.g.g.g.g.g.g.g.g.g.y.y.%.g.g.o.t.;.g.g.g.g.g.g.g.g.g.g.g.",
"g.g.g.g.g.g.0 h p h q g.g.g.g.g.;.:._ g.g.n F { g.g.g.g.g.g.g.g.g.g.g.",
"g.g.g.g.5 q y i i p S U l g.g.g.n P M M g.N g.g.g.g.g.g.y.y.g.g.g.g.g.",
"g.g.g.2 5 0 y u h z Q 4.,.! g.g.N N g.g.g.g.g.g.N M :.t.t.t.g.g.g.g.g.",
"g.g.g.- A 8 g.g.g.g.t j W 2.s g.M g.g.w.g.g.g.F N F $.y.t.g.g.g.g.g.g.",
"g.g.g.: I k g.g.g.g.g.g.4 g.g.g.g.g.e.s.p.e.g.M N M g.g.g.g.g.g.g.g.g.",
"g.g.2 ; > g.g.g.g.g.g.g.g.g.g.g.g.7.a.f.f.i.g.N N D g.g.g.g.g.g.g.g.g.",
"g.g.g.& < g.3 7 i g.g.g.g.g.g.g.g.q.a.f.d.w.g.f N g.g.g.g.g.g.g.g.g.g.",
"g.g.g.g.g.g.1 + + 6 h h g.g.g.g.g.g.q.r.u.0.g.g.g.g.M g.g.g.g.g.g.g.g.",
"g.g.g.g.g.g.g.q 2 $ @ * y g.g. .>.g.g.8.g.g.g.g.g.G ^ E D d g.g.g.g.g.",
"g.( ( g.g.o g.g.g.5 y * 5 g.g.+.*.n g.g.g.g.g.g.g.G E 6.q.3.H N g.g.g.",
"g.B r g.  @ 3 5 g.g.g.i g.g.) =.` g.a ..*.g.g.g.g.g.g.R ! 3.~ s N g.g.",
"g.Z g.g.. o 2 5 y J x g.g.g.] $.n g.M -.*.g.g.g.g.g.g.g.g.d N M N g.g.",
"g.g.g.g.g.X & 9 ( | C u g.z O.] g.g.` t.*.g.g.F g.g.g.g.g.g.g.M D f g.",
"g.g.g.g.g.. % 3 L ' C 0 g.K $.n g.y @.-.g.g.h 2 n j g.g.g.g.g.f 5./ g.",
"g.g.( B g.. @ & x e 0 g.w } ..q g.n #...g.g.M 2 # ; 8 n g.g.g.H 9.G g.",
"g.g.B r g.g.+ , ; 5 5 g.g.[ m g.7 [ o.[ g.g.g.F D y ; O z g.Y <.<.f g.",
"g.g.( g.g.. X & - 2 3 g.g.g.g.g.h @.K g.u h y g.g.g.F z F g.G 1.T g.g.",
"g.g.g.g.g.g.@ w r - g.g.g.) g.g.g.g.m g.h h J [ ] g.g.g.g.g.D H M g.g.",
"g.g.g.g.g.  = B x w g.' g.g.g.X.g.g.g.y i z [ $.+.m h ; g.g.g.g.g.g.g.",
"g.g.g.g.g.g.2 c 9 g.g.g.g.g.g.g.g.g.g.i h h K o.} m 6 % g.g.g.g.g.g.g.",
"g.g.g.g.g.g.% 2 1 g.g.g.g.g.g.g.g.g.g.u h i n m 6 # O g.g.g.g.g.g.g.g.",
"g.g.g.g.g.# % - g.g.g.g.g.g.g.g.g.g.e C C z 8 ; O g.g.g.| O.g.g.g.g.g.",
"g.g.g.g.g.o - & g.g.g.g.g.g.g.g.g.g.x [ [ c o g.g.g.g.g.g.O.X.g.g.g.g.",
"g.g.g.g.g.- - 2 g.v g.g.g.g.g.g.g.2 g ' b =   g.g.| g.g.g.g.g.g.g.g.g.",
"g.g.g.g.g.g., g.g.g.g.g.g.g.g.g.g.1 3 6 + g.g.g.Z V g.g.g.g.g.g.g.g.g.",
"g.g.g.g.g.g.g.g.g.g.g.g.g.g.) g.g.& % . g.g.g.g.( g.g.g.g.g.g.g.g.g.g.",
"g.g.g.g.g.g.g.g.g.g.g.g.g.g.g.g., & X g.g.g.g.g.g.g.g.g.g.g.g.g.g.g.g.",
"g.g.g.g.g.g.g.g.g.g.g.g.g.g.g.g.& %   g.g.g.g.g.g.g.g.g.g.g.g.g.g.g.g.",
"g.g.g.g.g.g.g.g.g.g.g.g.g.g.g.g.% # g.g.g.g.g.g.g.g.g.g.g.g.g.g.g.g.g."
};
