/* XPM */
static char *_0[] = {
/* columns rows colors chars-per-pixel */
"35 35 124 2 ",
"   c #0F0211",
".  c #150416",
"X  c #19051C",
"o  c #1F0621",
"O  c #200723",
"+  c #230826",
"@  c #27092A",
"#  c #2B0B2D",
"$  c #2F0D32",
"%  c #320C35",
"&  c #340E39",
"*  c #3A0E3D",
"=  c #37103E",
"-  c #39103A",
";  c #3E0E40",
":  c #3C1243",
">  c #431146",
",  c #44144B",
"<  c #49154D",
"1  c #461650",
"2  c #4A1653",
"3  c #4E1A55",
"4  c #4F1D5D",
"5  c #521B55",
"6  c #53165C",
"7  c #521A5C",
"8  c #5B1F5B",
"9  c #4F205D",
"0  c #561C61",
"q  c #5A1D65",
"w  c #5E1F6A",
"e  c #641F75",
"r  c #532364",
"t  c #5F2363",
"y  c #562669",
"u  c #5E206A",
"i  c #552E6D",
"p  c #593375",
"a  c #612563",
"s  c #682666",
"d  c #61236D",
"f  c #6D2C6D",
"g  c #662573",
"h  c #6A2B72",
"j  c #6B267C",
"k  c #6D287E",
"l  c #742F74",
"z  c #733176",
"x  c #733279",
"c  c #7D357C",
"v  c #4E477A",
"b  c #4B4E7C",
"n  c #514177",
"m  c #54477E",
"M  c #6E2A80",
"N  c #712B83",
"B  c #6A3484",
"V  c #673E88",
"C  c #693C88",
"Z  c #773581",
"A  c #783680",
"S  c #7C3A86",
"D  c #773188",
"F  c #7C368E",
"G  c #7D3A89",
"H  c #5F4385",
"J  c #4E5582",
"K  c #65458B",
"L  c #664A8E",
"P  c #644C90",
"I  c #615795",
"U  c #605E97",
"Y  c #605F98",
"T  c #4C648C",
"R  c #4C6D92",
"E  c #5F649A",
"W  c #5D6D9F",
"Q  c #477190",
"!  c #4B7A99",
"~  c #5E73A2",
"^  c #5D7BA6",
"/  c #843C86",
"(  c #813D8E",
")  c #843E94",
"_  c #84418E",
"`  c #8A418D",
"'  c #864191",
"]  c #8C4593",
"[  c #884099",
"{  c #8E499C",
"}  c #8F47A1",
"|  c #944BA4",
" . c #9951A4",
".. c #9B52AA",
"X. c #9E54B0",
"o. c #A95FB6",
"O. c #A95EBC",
"+. c #AE63B9",
"@. c #B165C2",
"#. c #B468C4",
"$. c #B76BC9",
"%. c #BF72CF",
"&. c #C376D6",
"*. c #CB7DDE",
"=. c #CD7EE0",
"-. c #5986AB",
";. c #5797B4",
":. c #559DB7",
">. c #559FB8",
",. c #55A2BA",
"<. c #52B3C2",
"1. c #48EFE1",
"2. c #56EFE3",
"3. c #5CEFE3",
"4. c #5FF1E4",
"5. c #6FF1E6",
"6. c #CE80E1",
"7. c #86F0E9",
"8. c #8AF0E9",
"9. c #91F1EA",
"0. c #A0F1EC",
"q. c #BDF3F1",
"w. c #CEF4F3",
"e. c None",
/* pixels */
"e.e.e.e.e.e.e.e.e.e.e.e.e.e.e.e.e.e.e.e.e.e.e.e.e.e.e.e.e.e.e.e.e.e.e.",
"e.e.e.e.e.e.e.e.e.e.e.e.e.e.e.e.e.e.e.e.e.e.e.e.e.e.e.e.e.e.e.e.e.e.e.",
"e.e.e.e.e.e.e.e.e.e.e.e.e.e.e.e.e.e.e.e.e.*.6.e.e.e.e.e.e.e.e.e.e.e.e.",
"e.e.e.e.e.e.e.e.q w q w j j e.e.e.e.e.e.e.*.=.e.e.e.e.e.e.e.e.e.e.e.e.",
"e.e.e.e.e.e.e.y p u u u j k j e.e.e.e.e.e.=.=.e.e.e.e.e.e.e.e.e.e.e.e.",
"e.e.e.e.e.e.7 T ! p q q g k L L e.e.e.e.e.=.=.e.e.e.e.=.=.=.e.e.e.e.e.",
"e.e.e.e.e.e.y R ! e.e.e.e.M ^ ,.W e.e.e.e.=.*.e.e.e.*.6.6.6.e.e.e.e.e.",
"e.e.e.e.e.e.0 i e.e.e.e.e.e.L ;.:.Y e.e.) O...e.e.X.&.6.6.6.e.e.e.e.e.",
"e.e.e.e.e.e.e.e.e.e.e.e.e.e.e.K -.U e.j k D N e.e.F O.&.*.e.e.e.e.e.e.",
"e.e.e./ e.e.e.e.e., 2 0 e.e.e.e.e.e.e.j j k e.e.e.j F X.e.e.e.e.e.e.e.",
"e.e./ l e.e.e.e.e.2 & 2 0 e.e.e.e.e.e.e.e.e.e.e.e.e.e.e.e.e.e.e.e.e.e.",
"e.e.e.e.e.e.+ : e.7 , = 2 u e.e.e.e.e.e.4.8.7.5.e.e.e.e.e.e.e.e.e.e.e.",
"e.e.e.e.e.. % 0 7 e.2 , & 1 e.e.e.e.e.2.9.w.q.7.e.e.j j [ &.=.=.=.e.e.",
"e.e.e.e.e.e.$ 7 q u e.0 1 : e.e.e.e.e.4.0.w.w.8.e.j k N } &.6.=.*.e.e.",
"e.e./ e.e.e.& 0 x G S e.e.e.e.e.X.@.e.1.5.9.9.3.e.j k j e.e.e.e.e.e.e.",
"e.e.l z e.X * 8 '  ._ q e.e.e.X.@.| M e.1.5.2.e.e.j j e.e.e.e.e.e.e.e.",
"e.e.e.e.e.X * 5 A _ Z d e.e.' %.| e e.M e.e.e.e.e.e.e.e.e.e.e.e.e.e.e.",
"e.e.e.e.. O : 6 8 u q e.e.(  .( j e.N } O.e.e.e.e.e.C C e.e.e.e.e.e.e.",
"e.e.e.e.O % > < 2 3 e.e.) +.( 6 e.w } *.O.e.e.e.e.e.E ~ K e.e.e.e.e.e.",
"e.e.e.e.$ 5 8 5 < e.e.e._ ( u e.w ( #.$.e.e.e.e.e.e.I >.,.L e.e.e.e.e.",
"e.e.e.e.< s s 5 e.e.e.e.e.0 e.q G ....e.e.e.e.e.e.e.e.~ <.,.K e.e.e.e.",
"e.e.e.& > 5 a e.e.e.e./ e.e.6 G +.| e.e.e.: q N e.e.e.e.I ^ C j e.e.e.",
"e.e.# % : < e.e.e.e.e.e.e.e.e.{ ( e.e.e.e.2 & , 7 e.e.e.e.k j j e.e.e.",
"e.@ $ > ; e.e.e.e.e.e.e.e.` e.e.e.e.u w e.d 4 @ , 7 e.e.e.j N j e.e.e.",
"e.e.; > e.e.e.e.e.e.e.e.e.e.e.e.e.q u g g e.0 2 : , e.e.e.w H K e.e.e.",
"e.e.< e.e.e.e.e.e.e.e.e.e.e.e.e.4 q u G { ' e.0 1 : e.e.e.n Q b e.e.e.",
"e.e.e.e.e.e.e.e.e.c e.e.e.e.e.3 3 6 0 ] +. .w e.e.e.e.e.m T b 4 e.e.e.",
"e.e.e.e.e.e.e.e.e.e.e.e.e.e.a h t 3 7 h G Z d 3 e.e.e.i J v 4 e.e.e.e.",
"e.e.e.e.e.e.e.e.e.e.e.e.e.> f ` x 5 < < : = : & e.e.e.r y 6 e.e.e.e.e.",
"e.e.e.e.e.e.e.e.e.e.e.e.> > 8 a 5 % o o e.e.X e.e.e.e.e.e.e.e.e.e.e.e.",
"e.e.e.e.e.e.e.e.e.e.e.> - & - $ # X e.e.e.e.e.e.e.e.e.e.e.e.e.e.e.e.e.",
"e.e.e.e.e.e.e.e.e.e.* * @ . e.e.e.e.` S c e.e.e.l / e.e.e.e.e.e.e.e.e.",
"e.e.e.e.e.e.e.e.e.> & @ X e.e.e.e.e.e.c / e.e.e./ e.e.e.e.e.e.e.e.e.e.",
"e.e.e.e.e.e.e.e.e.e.e.e.e.e.e.e.e.e.e.e.` e.e.e.e.e.e.e.e.e.e.e.e.e.e.",
"e.e.e.e.e.e.e.e.e.e.e.e.e.e.e.e.e.e.e.e.e.e.e.e.e.e.e.e.e.e.e.e.e.e.e."
};
