/* XPM */
static char *_1[] = {
/* columns rows colors chars-per-pixel */
"35 35 145 2 ",
"   c #0C010E",
".  c #0F0111",
"X  c #130314",
"o  c #170419",
"O  c #1A061D",
"+  c #1C0720",
"@  c #200622",
"#  c #220825",
"$  c #250828",
"%  c #2A0A2E",
"&  c #2B0C31",
"*  c #340D35",
"=  c #3B0E3D",
"-  c #361036",
";  c #34103A",
":  c #38103E",
">  c #3E0F41",
",  c #3B1243",
"<  c #371F4B",
"1  c #3C1C4A",
"2  c #3F2555",
"3  c #33345A",
"4  c #410E46",
"5  c #490A46",
"6  c #421145",
"7  c #44154C",
"8  c #4A154C",
"9  c #5C0A58",
"0  c #4D1653",
"q  c #4D1855",
"w  c #4F1559",
"e  c #551C56",
"r  c #521A5B",
"t  c #4A255D",
"y  c #5A255C",
"u  c #5D1461",
"i  c #561B61",
"p  c #591D64",
"a  c #5E1E69",
"s  c #611967",
"d  c #611F6D",
"f  c #611D71",
"g  c #6F1C78",
"h  c #701776",
"j  c #701977",
"k  c #5C2162",
"l  c #5E216B",
"z  c #463A6A",
"x  c #5E2E74",
"c  c #553975",
"v  c #642462",
"b  c #63246C",
"n  c #66296C",
"m  c #6C296A",
"M  c #702C6E",
"N  c #652374",
"B  c #682775",
"V  c #672871",
"C  c #6B2B77",
"Z  c #6C257C",
"A  c #662B79",
"S  c #6D287E",
"D  c #742E72",
"F  c #712F7D",
"G  c #723276",
"H  c #73317C",
"J  c #7B357B",
"K  c #344467",
"L  c #304768",
"P  c #3E5F7F",
"I  c #57487F",
"U  c #6E2A80",
"Y  c #722C83",
"T  c #762C89",
"R  c #6A3685",
"E  c #6A3986",
"W  c #783680",
"Q  c #7F3980",
"!  c #554F84",
"~  c #65468B",
"^  c #68448C",
"/  c #664A8D",
"(  c #625F99",
")  c #655293",
"_  c #506991",
"`  c #5D6D9E",
"'  c #61659C",
"]  c #5D7DA8",
"[  c #823B84",
"{  c #833E8C",
"}  c #843F93",
"|  c #863E98",
" . c #87418C",
".. c #8A428D",
"X. c #8B4595",
"o. c #8B4499",
"O. c #8D489A",
"+. c #924997",
"@. c #934B9C",
"#. c #934BA5",
"$. c #974DA8",
"%. c #994FAB",
"&. c #9A51A4",
"*. c #9C53AB",
"=. c #9F55B1",
"-. c #A157AA",
";. c #A259AF",
":. c #A55BB3",
">. c #A95FB6",
",. c #AC61BB",
"<. c #B266BF",
"1. c #B367C0",
"2. c #B569C7",
"3. c #B76CC9",
"4. c #BA6DCC",
"5. c #BF72D2",
"6. c #C477D7",
"7. c #C679D7",
"8. c #C679D9",
"9. c #CA7CDD",
"0. c #5B88AE",
"q. c #5B82AA",
"w. c #469DAD",
"e. c #56A9BE",
"r. c #50B3C1",
"t. c #3EEEE0",
"y. c #3AFFE8",
"u. c #41C8C4",
"i. c #4FC6CB",
"p. c #50C2CB",
"a. c #4DD3D3",
"s. c #43F0E1",
"d. c #4EF0E2",
"f. c #5BF4E6",
"g. c #61F0E5",
"h. c #7FF2E9",
"j. c #CE80E1",
"k. c #D082E4",
"l. c #8AF2EB",
"z. c #9AF3ED",
"x. c #A4F3EE",
"c. c #B5F4F0",
"v. c #DCF6F6",
"b. c #E3F6F7",
"n. c None",
/* pixels */
"n.n.n.n.n.n.n.n.n.n.n.n.n.n.n.n.n.n.n.n.n.n.n.n.n.n.n.n.n.n.n.n.n.n.n.",
"n.n.n.n.n.n.n.n.n.n.n.n.n.g S S S n.n.n.n.n.n.n.n.n.n.n.n.n.n.n.n.n.n.",
"n.n.n.n.n.n.n.n.n.n.n.a / e.U Z S S S n.n.n.n.n.n.n.n.n.n.n.n.n.n.n.n.",
"n.n.n.n.n.n.n.n.n.n.n.s r.p.^ Z S S S S n.n.n.n.n.n.n.n.n.n.n.n.n.n.n.",
"n.n.n.n.n.n.-.n.n.n.n.u / 0.n.n.n.S Z Z n.n.n.n.n.n.n.n.n.n.n.n.n.n.n.",
"n.n.n.n.n.n.:.,.n.n.n.n.n.n.n.n.n.S E ( Z n.n.n.n.n.j.j.n.n.n.n.n.n.n.",
"n.n.n.n.n.n.n.X.n.n.n.n.N N n.n.n.n.R a.' n.n.n.n.j.j.j.n.n.n.n.n.n.n.",
"n.n.n.n.n.n.n.n.n.O % n.p % U n.n.n.j e.q.n.n.n.n.j.j.n.n.n.n.n.n.n.n.",
"n.n.n.n.n.n.n.n.O 7 r n.N & k n.n.n.n.) p.^ n.n.n.j.j.n.n.n.n.n.n.n.n.",
"n.n.n.n.+.@.n.n.+ p l n.n.q , U n.n.n.Z / n.n.N ;.k.j.n.n.n.n.n.n.n.n.",
"n.n.n.[ H n.n.O 6 N l l n.p & N n.n.n.n.n.n.U Z Y o.U n.n.n.k.j.9.n.n.",
"n.n.n.n.n.n.n.& a F X.R n.d 1 , T n.n.n.n.n.j U U Z n.n.o.6.k.j.k.n.n.",
"n.n.n.n.n.X O 7 p X.1.;.H n.N i n.n.n.n.n.n.n.n.n.n.n.n.Y 9.k.j.k.n.n.",
"n.n.n.n.n.O = p b O.*.X.a n.n.n.n.n.n.n.n.t.g.l.g.n.n.U N %.8.n.n.n.n.",
"n.n.n.n.@ y v r i p B N p n.n.n.$.*.4.n.n.l.v.b.z.n.n.n.n.n.n.n.n.n.n.",
"n.n.n., e J  .k r p r n.n.b F :.9.6.%.n.y.l.v.b.c.f.n.U n.n.n.n.n.n.n.",
"n.@ % = e v G 4 n.n.n.k } *.2.>.| Z f n.n.d.x.x.g.n.n.S Z f n.n.n.n.n.",
"= = 4 = = e n.n.n.n.n.n.*.O.N i n.n.n.N n.n.d.t.n.n.S S U #.j.n.n.n.n.",
"> = 6 n.n.n.n.n.n.n.n.n.l w n.n.n.N | 1.5.n.n.n.n.S S S B 2.j.j.k.9.n.",
"n.n.n.n.n.n.n.n.n.n.+.n.n.n.r b } ,.6.2.#.n.n.n.n.n.n.n.n.n.n.j.k.n.n.",
"n.n.n.J n.n.n.n.n.n.n.n.n.C @.>.:.;.&.n.n.n.n.n.n.Z n.n.n.n.n.n.n.n.n.",
"n.n.n.n.n.n.n.n.n.n.n...n.&.O.o.X.n.n.n.n.n.n.n.n.' R n.n.n.n.n.n.n.n.",
"n.n.n.n.n.n.n.n.n.n.n.n.n.n.k n.n.n.n.q p n.n.n.A ` ] h n.n.n.n.n.n.n.",
"n.n.n.n.n.n.n.n.n.n.{ n.n.n.n.i a n.a , , l n.n.n.! u.A n.n.n.n.n.n.n.",
"n.n.n.n.n.n.n.n.n.n.n.n.8 0 w r p r n.i + r n.n.n.c w._ 9 n.n.n.n.n.n.",
"n.n.n.n.n.J n.n.n.n.e e r 0 0 e W V n.l ; 7 n.n.n.n.I w.a n.n.n.n.n.n.",
"n.n.n.n.n.n.n.n.6 6 v m y 0 0 n X.X.n.n.q & i n.n.n.a a a n.n.n.n.n.n.",
"n.n.n.n.n.6 = 4 = 8 m M e 0 0 b  .{ k n.p + r n.n.n.a l p n.n.n.n.n.n.",
"n.n.n.n.6 = * % O % * * * @ : 6 y n w n.n.7 w n.n.n.u k r n.n.n.n.n.n.",
"n.n.n.n.n.$ X   n.n.  n.X n.X o $ % > * n.n.n.n.t t P z n.n.n.n.n.n.n.",
"n.n.n.n.n.n.n.n.n.n.n.n.n.n.n.n.n.X + n.n.n.6 2 K L 3 7 n.n.n.n.n.n.n.",
"n.n.n.n.n.n.n.n.n.n.n.n.n.M D n.n.n.n.n.n.n.> < < > 5 n.n.n.n.n.n.n.n.",
"n.n.n.n.n.n.n.n.n.n.n.n.[ D [ n.n.n.m J n.n.n.6 n.n.n.n.n.n.n.n.n.n.n.",
"n.n.n.n.n.n.n.n.n.n.n.n.n.n.n.n.n.J M Q n.n.n.n.n.n.n.n.n.n.n.n.n.n.n.",
"n.n.n.n.n.n.n.n.n.n.n.n.n.n.n.n.n.n.n.n.n.n.n.n.n.n.n.n.n.n.n.n.n.n.n."
};
