/* XPM */
static char *_2[] = {
/* columns rows colors chars-per-pixel */
"35 35 186 2 ",
"   c #100311",
".  c #120312",
"X  c #120313",
"o  c #150417",
"O  c #19041A",
"+  c #19061D",
"@  c #1A061D",
"#  c #1A061E",
"$  c #1D051E",
"%  c #1B0720",
"&  c #1C0720",
"*  c #1C0721",
"=  c #1E0823",
"-  c #200722",
";  c #210623",
":  c #220925",
">  c #260828",
",  c #240A28",
"<  c #270A28",
"1  c #270B2C",
"2  c #2A0A2E",
"3  c #2D0C32",
"4  c #2E0C34",
"5  c #2D0E34",
"6  c #330B35",
"7  c #3C0E3F",
"8  c #3D0E3F",
"9  c #3C0F3F",
"0  c #311036",
"q  c #33103A",
"w  c #3D0E40",
"e  c #3F0F42",
"r  c #3C1344",
"t  c #391947",
"y  c #381A48",
"u  c #3A1A48",
"i  c #2E3D60",
"p  c #2E3F61",
"a  c #411342",
"s  c #401044",
"d  c #411045",
"f  c #421146",
"g  c #441245",
"h  c #441246",
"j  c #43134A",
"k  c #441248",
"l  c #45124A",
"z  c #46134B",
"x  c #47134C",
"c  c #4E184E",
"v  c #4A1550",
"b  c #4A1551",
"n  c #491652",
"m  c #4C1750",
"M  c #4C1653",
"N  c #4C1654",
"B  c #4D1654",
"V  c #4D1754",
"C  c #4E1755",
"Z  c #4F1856",
"A  c #4F1857",
"S  c #4D1958",
"D  c #501950",
"F  c #511A51",
"G  c #501858",
"H  c #541A5D",
"J  c #551C5C",
"K  c #561B60",
"L  c #561C61",
"P  c #591D64",
"I  c #5A1E66",
"U  c #5D1F69",
"Y  c #5C2162",
"T  c #5E206B",
"R  c #5D216C",
"E  c #5B2F73",
"W  c #543C76",
"Q  c #573D79",
"!  c #632361",
"~  c #602467",
"^  c #632766",
"/  c #692766",
"(  c #60216D",
")  c #60216E",
"_  c #62236F",
"`  c #6B2869",
"'  c #6C286A",
"]  c #6F2B6D",
"[  c #702B6E",
"{  c #712C6F",
"}  c #722C6F",
"|  c #622270",
" . c #642471",
".. c #662673",
"X. c #652374",
"o. c #6D2E74",
"O. c #6E2F74",
"+. c #6A267A",
"@. c #6B277B",
"#. c #6C277D",
"$. c #6E2E78",
"%. c #6D287E",
"&. c #732C70",
"*. c #712F7D",
"=. c #713074",
"-. c #74317F",
";. c #2C4566",
":. c #285470",
">. c #702B81",
",. c #712C83",
"<. c #6B3082",
"1. c #753283",
"2. c #7E3A83",
"3. c #7B3884",
"4. c #564C82",
"5. c #654C8F",
"6. c #51618C",
"7. c #60669D",
"8. c #60689D",
"9. c #813D8E",
"0. c #803991",
"q. c #843F92",
"w. c #88418C",
"e. c #854091",
"r. c #8E4692",
"t. c #8B4695",
"y. c #8D4798",
"u. c #904A9D",
"i. c #924B9F",
"p. c #954E9D",
"a. c #8F46A0",
"s. c #954DA0",
"d. c #944EA0",
"f. c #9951A5",
"g. c #9D54A7",
"h. c #9D55A9",
"j. c #9B51AC",
"k. c #9E55AF",
"l. c #A359AC",
"z. c #A55AAE",
"x. c #A258B3",
"c. c #A45AB0",
"v. c #A65BB1",
"b. c #A55BB5",
"n. c #A85DB2",
"m. c #A95EB5",
"M. c #A95FB6",
"N. c #A95FBB",
"B. c #B065BD",
"V. c #B166BD",
"C. c #B166BE",
"Z. c #B367C0",
"A. c #B569C2",
"S. c #B66AC3",
"D. c #B56AC8",
"F. c #BB6FCA",
"G. c #BC6FCF",
"H. c #BC70CD",
"J. c #C073D1",
"K. c #C275D3",
"L. c #C779D9",
"P. c #C87BDA",
"I. c #C97BDB",
"U. c #C97BDC",
"Y. c #CA7CDC",
"T. c #CA7CDD",
"R. c #CB7DDD",
"E. c #CD7FE0",
"W. c #3BABB0",
"Q. c #3FBDBD",
"!. c #4988A1",
"~. c #5895B4",
"^. c #54AABE",
"/. c #3FC1C0",
"(. c #4ECBCE",
"). c #4BE0D9",
"_. c #49EFE1",
"`. c #63EFE4",
"'. c #7BF1E8",
"]. c #CE80E1",
"[. c #A5F3EE",
"{. c #C1F4F2",
"}. c #D3F5F5",
"|. c #D7F5F5",
" X c #D9F6F6",
".X c None",
/* pixels */
".X.X.X.X.X.X.X.X.X.X.X.X.X.X.X.X.X.X.X.X.X.X.X.X.X.X.X.X.X.X.X.X.X.X.X",
".X.X.X.X.X.X.X.X.X.X.X.XR..X.X.X.X%.%.%.%.%..X.X.X.X.X.X.X.X.X.X.X.X.X",
".X.X.X.X.X.X.X.X.X.X.XZ.U.L..X.X%.%.)._.%.%.%..X.X.X.X.X.X.X.X.X.X.X.X",
".X.X.X.X.X.X.X.X.X.X.X.Xk..X.X.X.X%.~.8.%.%.%.%..X.X.X.X.X.X.X.X.X.X.X",
".X.X.X.X.X.X.X.XC..X.X.X.X.X.X.X.X.X.X.X.X%.%.%.%..X.X.X.X.X.X.X.X.X.X",
".X.X.X.X.X.X.XV.B.C..X.X* = 5 .X.X%..X.X.X.X%.%.%..X.X.X.X.X.X.X.X.X.X",
".X.X.X.X.X.X.X.Xe..X.X.X% %.R .X%.5 %..X.X.X%.%.%..X.X.X.X.X.X.X.X.X.X",
".X.X.X.X.X.X.X.X.X.X@ 4 | #.%..X%.= %..X.X.X%.^.<..X.X.X.X.X.X.X.X.X.X",
".X.X.X.X.X.X.X.X# @ r T  .>.%..XR 5 %..X.X.X%.).7..X.X.X.X.X.X.X.X.X.X",
".X.X.X.X.X.X& 0 q T T _ s.b.,..XR 5 %..X.X.X%.(.5..X.X.X.X.X]..X.X.X.X",
".X.XO > 3 Z 3.g.*.T T y.B.J.x..X%.= %..X.X.X%.(.5..X.X.X.X].].E..X.X.X",
".Xf 7 7 l Y p.z.d.T T T y.i.%..X%.= %..X.X.X.X%..X.X.X.X].].E..X.X.X.X",
".X7 7 7 e M ~ t.I T T T T ( #..X.X%..X.X.X.X.X.X.X%.%.].].]..X.X.X.X.X",
".X.X.X.X.X.X.X.X.X.X.X.X.X.X.X.X.X.X.X.X.X.X.X.X%.%.%.D.]..X.X.X.X.X.X",
".X.X.X/ .X.X.X.Xl..X.X.X..9.1.0.a.j.a.a..X.X.X.X.X%.%.%.%..X.X.X.X.X.X",
".X.X.X.X.X.X.X.X.X.X.X.Xf.C.S.I.].E.T.T..X.X_._._..X.X%..X.X.X.X.X.X.X",
".X.X.X.X.X&..X.X.X.Xv..XT T T X.#.%.%.%..X_.[.|.{.`..X.X.X%.D.].].]..X",
".X.X.X.X.X.X.X.X.X.X.X.X.X.X.X.X.X.X.X.X.X_.}. X X'..X.X%.%.].].].].E.",
".X.X.X.X.X} .X.X.X.Xl..XT T T T ) +.%.%..X_.[.|.{.`..X.X.X%.D.].].]..X",
".X.X.X.X.X.X.X.X.X.X.X.Xc.m.M.M.Z.A.H.G..X.X_._._..X.X%..X.X.X.X.X.X.X",
".X.X.X&..X.X.X.Xw..X.X.X$.-.u.u.h.h.f.q..X.X.X.X.X%.%.%.%..X.X.X.X.X.X",
".X.X.X.X.X.X.X.X.X.X.X.X.X.X.X.X.X.X.X.X.X.X.X.X%.%.%.%.%..X.X.X.X.X.X",
".X7 7 7 7 7 7 c D x B B G L P .X.XT .X.X.X.X.X.X.X@.%.%.N.]..X.X.X.X.X",
".X2 6 6 7 7 c ` ` F b B V G L .XU 1 T .X.X.X.XT .X.X.X.XP.].]..X.X.X.X",
".X.X      O c ` ` c s M J O.G .XP + T .X.X.XE 6.T .X.X.X.XF.K.Y..X.X.X",
".X.X.X.X.X.X  < a 7 8 m 2.r.O..XH , S .X.X.XQ !.T .X.X.X.X.Xn..X.X.X.X",
".X.X.X.X.X.X.X.XX . 6 g =.r.o..XC : n .X.X.X4./.T .X.X.X.X.X.X.X.X.X.X",
".X.X.X.X.X.X.X.X.X.X. ; h ^ M .XB - j .X.X.XW Q.T .X.X.X.X.X.X.X.X.X.X",
".X.X.X.X.X.X.X.X] .X.X.XO w f .XN o B .X.X.XK W.P .X.X.X.X.X.X.X.X.X.X",
".X.X.X.X.X.X.X} &.&..X.X  $ > .X.Xv .X.X.X.XC A A .X.X.X.X.X.X.X.X.X.X",
".X.X.X.X.X.X.X.X{ .X.X.X.X.X.X.X.X.X.X.X.Xx z k d .X.X.X.X.X.X.X.X.X.X",
".X.X.X.X.X.X.X.X.X.X.X.X! .X.X.X.X9 y u e e w 7 .X.X.X.X.X.X.X.X.X.X.X",
".X.X.X.X.X.X.X.X.X.X.X} &.' .X.X7 t i p ;.:.7 .X.X.X.X.X.X.X.X.X.X.X.X",
".X.X.X.X.X.X.X.X.X.X.X.X[ .X.X.X.X7 7 7 7 7 .X.X.X.X.X.X.X.X.X.X.X.X.X",
".X.X.X.X.X.X.X.X.X.X.X.X.X.X.X.X.X.X.X.X.X.X.X.X.X.X.X.X.X.X.X.X.X.X.X"
};
