/* XPM */
static char *_3[] = {
/* columns rows colors chars-per-pixel */
"35 35 144 2 ",
"   c #0D000F",
".  c #130314",
"X  c #150418",
"o  c #1B051D",
"O  c #1E081F",
"+  c #1E0721",
"@  c #1E0823",
"#  c #230926",
"$  c #260929",
"%  c #2B0B2E",
"&  c #2C0C31",
"*  c #320B34",
"=  c #350E3A",
"-  c #3C0D3E",
";  c #35113D",
":  c #38113E",
">  c #42093E",
",  c #3E0E40",
"<  c #3A1343",
"1  c #3D1845",
"2  c #3F1549",
"3  c #342E56",
"4  c #3C2F5B",
"5  c #30355A",
"6  c #490744",
"7  c #460B45",
"8  c #480844",
"9  c #431145",
"0  c #45134B",
"q  c #49144D",
"w  c #4D1654",
"e  c #441B51",
"r  c #4B1955",
"t  c #4F1659",
"y  c #4F1958",
"u  c #551C55",
"i  c #521A5C",
"p  c #5C195D",
"a  c #442257",
"s  c #452C5F",
"d  c #5B215F",
"f  c #561C62",
"g  c #591C63",
"h  c #5D1E6A",
"j  c #6F1C78",
"k  c #611D72",
"l  c #701876",
"z  c #711575",
"x  c #552767",
"c  c #572960",
"v  c #5E206B",
"b  c #5F2462",
"n  c #443867",
"m  c #5D2B71",
"M  c #632565",
"N  c #62236F",
"B  c #6A2768",
"V  c #6C296A",
"C  c #702C6E",
"Z  c #652474",
"A  c #672871",
"S  c #6C2D74",
"D  c #6B247B",
"F  c #6D287E",
"G  c #732D71",
"H  c #703076",
"J  c #7D377E",
"K  c #2D4465",
"L  c #3D5C7C",
"P  c #4E4074",
"I  c #504076",
"U  c #6E2A80",
"Y  c #722B83",
"T  c #772C89",
"R  c #6B3484",
"E  c #693D88",
"W  c #763384",
"Q  c #773288",
"!  c #7A338C",
"~  c #7A3686",
"^  c #3F748E",
"/  c #4F5986",
"(  c #654D90",
")  c #635A97",
"_  c #645393",
"`  c #61649B",
"'  c #5F75A5",
"]  c #5E78A6",
"[  c #616DA0",
"{  c #833B84",
"}  c #843F8C",
"|  c #833C94",
" . c #863F98",
".. c #8A4494",
"X. c #8C459E",
"o. c #924997",
"O. c #924A9C",
"+. c #8F46A0",
"@. c #944BA5",
"#. c #984EA9",
"$. c #9750A3",
"%. c #9B52A5",
"&. c #9C53AB",
"*. c #A459AD",
"=. c #A55BB4",
"-. c #A95EB5",
";. c #A75CB9",
":. c #AA5FBD",
">. c #AA60B7",
",. c #AD61B9",
"<. c #AF64C1",
"1. c #B467C3",
"2. c #B468C2",
"3. c #B76BC9",
"4. c #BB6ECA",
"5. c #BF72D2",
"6. c #C477D7",
"7. c #C679D9",
"8. c #CA7CDD",
"9. c #CE7FE1",
"0. c #338897",
"q. c #5A89AE",
"w. c #589FB9",
"e. c #56A3BA",
"r. c #3BCAC5",
"t. c #3EEEE0",
"y. c #3AFFE8",
"u. c #5BDFD8",
"i. c #4BE1D9",
"p. c #49EDE0",
"a. c #4EF0E2",
"s. c #5BF4E6",
"d. c #62F0E5",
"f. c #7FF2E9",
"g. c #CE80E1",
"h. c #D183E4",
"j. c #8BEFE9",
"k. c #84EDE6",
"l. c #9AF3ED",
"z. c #A4F3EE",
"x. c #B5F4F0",
"c. c #DCF6F6",
"v. c #E3F6F7",
"b. c None",
/* pixels */
"b.b.b.b.b.b.b.b.b.b.b.b.b.b.b.b.b.b.b.b.b.b.b.b.b.b.b.b.b.b.b.b.b.b.b.",
"b.b.b.b.b.b.b.b.b.b.b.b.b.b.b.b.b.g.g.8.b.b.b.b.b.b.b.b.b.b.b.b.b.b.b.",
"b.b.b.b.b.b.b.b.b.b.b.b.8.g.g.b.b.b.:.7.b.b.b.U b.b.b.b.b.b.b.b.b.b.b.",
"b.b.b.b.b.b.b.b.b.b.b.b.b.,.9.b.b.b.b.b.b.b.D E [ U F b.b.b.b.b.b.b.b.",
"b.b.b.b.b.b.b.b.b.b.b.b.b.b.b.b.b.# X b.b.b.j ] p.w.j F b.b.b.b.b.b.b.",
"b.b.b.b.b.q & : b.b.. b.@ b.@ @ & < r ; b.b.b.b.` R F F b.b.b.b.b.b.b.",
"b.b.b.b.w f g i i F x 1 = < e f F F D b.b.v U b.b.b.F F U b.b.b.b.b.b.",
"b.b.b.b.b.w f v S &.1.X.v U D ! Q F F b.Y % Z b.b.b.F F F b.b.b.b.b.b.",
"b.b.b.b.b.b.b.b.v } -.$.Z D @.1.3.! b.b.f & Y b.b.b.F F U b.b.b.b.b.b.",
"b.b.b.b.b...b.b.b.b.W h h S ! 7.9.#.b.v < g b.b.b.b.U D F b.b.b.b.b.b.",
"b.b.b.b.b.b.b.b.b.b.b.b.g Z Y @.+. .b.Z % F b.b.b.l q._ D b.b.b.b.b.b.",
"b.b.b.b.b.b.b.b.b.b.,.b.b.b.b.D F b.T < 1 T b.b.b.R i.) b.b.b.b.b.b.b.",
"b.b.b.b.b.b.b.b.b.b.b.b.b.b.T b.b.b.b.f Z b.b.b.z ] e.( b.b.b.b.b.b.b.",
"b.b.b.b.b.b.b.b.b.b.b.*.b.O.=.+.Q b.b.b.b.b.b.b.b.e.` b.b.b.b.b.b.b.b.",
"b.b.b.{ b.b.b.b.b.b.b.b.b.S &.9.3.&.#.b.b.b.b.b.b.j b.b.b.b.b.b.b.b.b.",
"b.b.b.b.b.b.b.b.b.b.,.b.b.b.f U &.7.8.;.+.b.b.b.b.b.b.b.b.b.b.h.g.b.b.",
"= = 9 b.b.b.b.b.b.b.b.b.v t b.b.b.D  .1.9.b.b.b.b.F F Z 5.h.g.g.g.g.b.",
"$ * - : - 0 b.b.b.b.b.b.=...Z f b.b.b.D b.b.a.t.b.b.F ! 7.h.g.b.b.b.b.",
"b.. o * 9 q u u b.b.b.A ~ *.>.%.~ Z k b.b.p.z.z.d.b.b.D | <.b.b.b.b.b.",
"b.b.b.X 9 B C M w w q b.b...O.-.2.=.X.b.y.f.c.v.x.s.b.F b.b.b.b.b.b.b.",
"b.b.b.b.# u B u w w w p i b.b.b.%.&.&.b.b.k.c.v.l.b.b.b.b.b.b.b.b.b.b.",
"b.b.b.b.b.% 9 9 < w w y g b.b.b.b.b.b.b.b.r.u.j.d.b.b.U D #.7.b.b.b.b.",
"b.b.b.b.b.  . * 9 b S M 0 b.i r b.b.b.b.b.b.b.b.b.b.b.b.Y g.g.g.g.b.b.",
"b.b.b.b.b.b.b.$ 9 B ..H b.w = ; h b.b.b.b.b.p h v v b.b.| 7.g.g.g.b.b.",
"b.b.b.{ G b.b.X * p C H b.r # w b.b.b.b.b.b.g v v v N b.b.b.4.8.g.b.b.",
"b.b.b.b.C G b.b.O 9 9 b.b.< # 0 b.b.b.x m b.b.v h Z g b.b.b.b.b.b.b.b.",
"b.b.b.b.b.b.b.b.. * - b.0 % = b.b.b.b.I / g b.b.b.$.,.b.b.b.b.b.b.b.b.",
"b.b.b.b.b.b.b.b.b.# & b.= . q b.b.b.s ^ P b.b.b.b.2.,.b.b.b.b.b.b.b.b.",
"b.b.b.b.b.b.b.M b.b.b.b.q < b.b.b.b.n 0.u b.b.b.b.%.,.*.b.b.b.b.b.b.b.",
"b.b.b.b.b.b.G C b.b.b.b.b.b.b.b.b.8 L L 8 b.b.b.b.b.O.o.b.b.b.b.b.b.b.",
"b.b.b.b.b.b.J b.b.b.b.0 < a b.b.b.7 4 e b.b.b.b.b.b.b.b.b.b.b.b.b.b.b.",
"b.b.b.b.b.b.b.b.b.b.b.< 5 3 < > - , - 9 b.b.b.b.b.b.b.b.b.b.b.b.b.b.b.",
"b.b.b.b.b.b.b.b.b.b.b.7 1 3 K K , - 0 b.b.b.b.b.b.b.b.b.b.b.b.b.b.b.b.",
"b.b.b.b.b.b.b.b.b.b.b.b.b.7 < 3 7 b.b.b.b.b.b.b.b.b.b.b.b.b.b.b.b.b.b.",
"b.b.b.b.b.b.b.b.b.b.b.b.b.b.b.b.b.b.b.b.b.b.b.b.b.b.b.b.b.b.b.b.b.b.b."
};
