/* XPM */
static char *_4[] = {
/* columns rows colors chars-per-pixel */
"35 35 140 2 ",
"   c #160416",
".  c #1A051C",
"X  c #1F0621",
"o  c #220725",
"O  c #200825",
"+  c #270829",
"@  c #2A0A2C",
"#  c #2D0B32",
"$  c #330C35",
"%  c #350D38",
"&  c #3A0E3E",
"*  c #32103A",
"=  c #39103D",
"-  c #3D0E41",
";  c #3B1344",
":  c #381946",
">  c #3E1B4C",
",  c #36254E",
"<  c #3C214F",
"1  c #342750",
"2  c #3B2553",
"3  c #332C53",
"4  c #382853",
"5  c #382E58",
"6  c #2F3B5F",
"7  c #313056",
"8  c #30365B",
"9  c #3E3A64",
"0  c #421145",
"q  c #43144B",
"w  c #4A164F",
"e  c #451651",
"r  c #4C1653",
"t  c #451951",
"y  c #4C1957",
"u  c #4D1A59",
"i  c #511955",
"p  c #541B5D",
"a  c #442255",
"s  c #49235B",
"d  c #412C5C",
"f  c #51255C",
"g  c #5F245F",
"h  c #551D62",
"j  c #5A1E65",
"k  c #5C1E69",
"l  c #601E70",
"z  c #542360",
"x  c #5E2365",
"c  c #5D206A",
"v  c #433966",
"b  c #642666",
"n  c #672A6D",
"m  c #68296D",
"M  c #662474",
"N  c #6A2B73",
"B  c #672578",
"V  c #6B267C",
"C  c #6D287E",
"Z  c #752F75",
"A  c #733176",
"S  c #76357C",
"D  c #7B347B",
"F  c #324D6C",
"G  c #3A5677",
"H  c #3C5A7A",
"J  c #42406C",
"K  c #6D2B80",
"L  c #712B82",
"P  c #693283",
"I  c #683E89",
"U  c #763187",
"Y  c #7A3780",
"T  c #773188",
"R  c #783289",
"E  c #7E3A8A",
"W  c #66438B",
"Q  c #66498D",
"!  c #644C90",
"~  c #605E97",
"^  c #605F98",
"/  c #5D6D9F",
"(  c #5C7AA6",
")  c #833B84",
"_  c #833E8D",
"`  c #823C93",
"'  c #873E99",
"]  c #844089",
"[  c #8A428D",
"{  c #8C4490",
"}  c #8D459E",
"|  c #8F499B",
" . c #904894",
".. c #934B9D",
"X. c #944BA5",
"o. c #984EA9",
"O. c #9754A7",
"+. c #9C53A5",
"@. c #9B52AB",
"#. c #9F55B0",
"$. c #A057AC",
"%. c #A55BB4",
"&. c #A95FB5",
"*. c #A75DB9",
"=. c #A85EBB",
"-. c #AF64BB",
";. c #B165C4",
":. c #B569C5",
">. c #BB6ECD",
",. c #C476D6",
"<. c #CB7CDE",
"1. c #CD7EE0",
"2. c #3CB5B7",
"3. c #5986AB",
"4. c #598AAE",
"5. c #5797B4",
"6. c #5895B4",
"7. c #559DB7",
"8. c #57A5AD",
"9. c #46AEB3",
"0. c #54A1B9",
"q. c #4EB3B6",
"w. c #4DB6B9",
"e. c #75BFC4",
"r. c #7EC3C7",
"t. c #75C4C8",
"y. c #6AE3DD",
"u. c #48EFE1",
"i. c #56EFE2",
"p. c #5CEFE2",
"a. c #5FF0E4",
"s. c #8CC4CA",
"d. c #A4C4CD",
"f. c #B2C5CE",
"g. c #B9CFD7",
"h. c #88EDE6",
"j. c #9EECE8",
"k. c #91F1EA",
"l. c #C2E2E4",
"z. c None",
/* pixels */
"z.z.z.z.z.z.z.z.z.z.z.z.z.z.z.z.z.z.z.z.z.z.z.z.z.z.z.z.z.z.z.z.z.z.z.",
"z.z.z.z.z.z.z.z.z.z.z.& z.z.z.z.z.z.z.z.z.z.z.z.z.z.z.z.z.z.z.z.z.z.z.",
"z.z.z.z.z.z.z.z.z.h k u e z.z.z.z.z.z.,.1.z.z.z.1.z.z.z.z.z.z.z.z.z.z.",
"z.z.z.z.z.z.z.z.z.z.k k c h z.z.z.z.z.:.z.z.z.z.,.<.z.z.z.z.z.z.z.z.z.",
"z.z.z.z.z.z.z.z.z.z.z.k C E ` f * O z.z.z.z.z.z.z.z.z.z.z.z.z.z.z.z.z.",
"z.z.z.z.z.z.z.z.z.z.z.z.C @.>.O.z ; # # z.z.X z.z.z.z.z.z.z.z.z.z.z.z.",
"z.z.z.z.z.z.z.z.z.z.z.z.z.@.;.%.L B c p u t q * z.z.z.V P K z.z.z.z.z.",
"z.z.z.z.z.z.z.z.z.z.z.z.z.z.' ` K L U U L V B u z.z.z.W 4.( P z.z.z.z.",
"z.z.z.z.z.z.z.z.z.z.z.z.z.z.z.C K R $.=.} K V z.z.z.z.z.7.6.I C z.z.z.",
"z.z.q z.z.z.z.z.z.z.z.z.z.z.z.z.V R =.>.o.L z.B h u z.z.z.W C C z.z.z.",
"z.z.% 0 z.z.z.z.z.z.z.z.z.z.z.z.z.U } o.X.z.k u ; h z.z.z.V C V z.z.z.",
"z.z.+ % 0 z.z.z.z.z.z.z.z.z.z.z.z.z.L L z.B u > h C z.z.z.V C V z.z.z.",
"z.z.. @ 0 w z.z.z.z.z.z.z.z.z.#.o.z.z.z.z.h ; h C z.z.z.z.C C V z.z.z.",
"z.z.z.. % i f z.z.z.z.z.z.z.M X.;.o.z.z.z.t u C z.z.z.z.P C K V z.z.z.",
"z.z.z.z.% b D N z.z.z.z.z.j z.L X.;.@.z.z.z.z.z.z.z.z.W ( Q V z.z.z.z.",
"z.z.z.z.@ g ] N p z.z.z...) k z.K o.;.*.z.z.z.z.z.z.W 5.0.! z.z.z.z.z.",
"z.z.z.z.@ 0 n b p p z.z.] X.E M z.L X.;.@.z.z.z.z.z.3.7./ z.z.z.z.z.z.",
"z.z.z.z.. @ 0 i r h p z.z...+._ B z.K X.;.z.z.z.z.z.~ ^ z.z.z.z.z.z.z.",
"z.z.z.[ z.  & w i p p j z.z.@.:.` l z.K z.z.z.z.z.z.z.z.z.z.z.z.z.z.z.",
"z.z.D ] z.o $ p Z m j p z.z.z.$.@.E M z.u.a.i.z.z.C C z.z.z.z.z.z.z.z.",
"z.[ ) D z.z.# b { Y e z.z.z.z.z.....z.2.y.j.k.p.z.C C ' z.z.z.z.z.z.z.",
"z.z.z.z.z.z.$ i b m z.q q ; z.z.z.z.z.q.s.g.l.h.z.V T =.<.1.1.1.<.z.z.",
"z.z.z.z.z.. @ 0 w z.w - # q z.z.z.z.z.9.r.f.d.t.z.z.L @.<.1.<.1.1.z.z.",
"z.z.) z.z.z.o & z.r ; X = r z.z.z.z.z.z.w.e.e.8.z.z.z.z.z.z.z.z.z.z.z.",
"z.z._ A z.z.z.z.z.# + % - z.z.z.z.z.z.z.z.z.z.z.z.z.z.z.z.z.z.z.z.z.z.",
"z.z.z.) z.z.z.z.z.@ @ - z.z.z.z.z.z.z.p k j z.z.z.j N E z.z.z.z.z.z.z.",
"z.z.z.z.z.z.z.z.z.z.z.z.z.z.z.d v s z.p j c k z.z.N X.&.+.z.z.z.z.z.z.",
"z.z.z.z.z.z.q q z.z.z.z.z.z.9 H J t z.z.p k k z.z.E &.-.-...z.z.z.z.z.",
"z.z.z.z.z.z.> 1 4 z.z.z.z.2 F G a z.z.z.z.N m z.z.z.+.&.$.$.z.z.z.z.z.",
"z.z.z.z.z.z.q , 7 , q 0 ; 3 6 a z.z.z.z.z.[ ) z.z.z.z._  .[ z.z.z.z.z.",
"z.z.z.z.z.z.z.q 1 8 ; & & ; > z.z.z.z.z.z.) ) z.z.z.z.z.z.z.z.z.z.z.z.",
"z.z.z.z.z.z.z.z.q 5 > 0 0 0 z.z.z.z.z.z.z.Z ) z.z.z.z.z.z.z.z.z.z.z.z.",
"z.z.z.z.z.z.z.z.z.z.z.z.z.z.z.z.z.z.z.z.z.) [ z.z.z.z.z.z.z.z.z.z.z.z.",
"z.z.z.z.z.z.z.z.z.z.z.z.z.z.z.z.z.z.z.z.z.z.z.z.z.z.z.z.z.z.z.z.z.z.z.",
"z.z.z.z.z.z.z.z.z.z.z.z.z.z.z.z.z.z.z.z.z.z.z.z.z.z.z.z.z.z.z.z.z.z.z."
};
