/* XPM */
static char *_5[] = {
/* columns rows colors chars-per-pixel */
"35 35 146 2 ",
"   c #0A000C",
".  c #0F0010",
"X  c #120313",
"o  c #170419",
"O  c #1B061F",
"+  c #1F0721",
"@  c #1E0823",
"#  c #240725",
"$  c #220826",
"%  c #250A2B",
"&  c #2A0B2E",
"*  c #2B0D32",
"=  c #300A31",
"-  c #340E39",
";  c #3C0D3E",
":  c #36113D",
">  c #3F0F43",
",  c #3C1344",
"<  c #3B1844",
"1  c #371F4B",
"2  c #3B1D4B",
"3  c #36224D",
"4  c #3F2151",
"5  c #3D2C59",
"6  c #332D55",
"7  c #323258",
"8  c #30395D",
"9  c #3B3A62",
"0  c #4C0746",
"q  c #410D43",
"w  c #490A46",
"e  c #421246",
"r  c #45144C",
"t  c #49124D",
"y  c #46194B",
"u  c #481E4E",
"i  c #4D1654",
"p  c #451A50",
"a  c #4D1956",
"s  c #4F1658",
"d  c #4C1C5A",
"f  c #531B5C",
"g  c #4E2153",
"h  c #5A205D",
"j  c #5D1361",
"k  c #561C62",
"l  c #5A1E65",
"z  c #5D1F69",
"x  c #611D72",
"c  c #6F1E79",
"v  c #701876",
"b  c #701C79",
"n  c #5E206B",
"m  c #453867",
"M  c #433F6B",
"N  c #652666",
"B  c #62236E",
"V  c #66286D",
"C  c #702B6E",
"Z  c #642473",
"A  c #6B2D73",
"S  c #6B257C",
"D  c #6D287E",
"F  c #742D71",
"G  c #773075",
"H  c #783177",
"J  c #72317D",
"K  c #7C367D",
"L  c #2D4264",
"P  c #295470",
"I  c #6F2A81",
"U  c #722A84",
"Y  c #762C89",
"T  c #6A3685",
"R  c #6A3986",
"E  c #773483",
"W  c #7A3784",
"Q  c #7D3984",
"!  c #793289",
"~  c #7F3B8C",
"^  c #66458C",
"/  c #68448C",
"(  c #674B8F",
")  c #655293",
"_  c #625F99",
"`  c #60679D",
"'  c #823B84",
"]  c #853F89",
"[  c #823B94",
"{  c #873F99",
"}  c #87418C",
"|  c #8B438E",
" . c #8B4595",
".. c #8B449A",
"X. c #944C9B",
"o. c #90529F",
"O. c #974EA9",
"+. c #994FAB",
"@. c #944DA2",
"#. c #9B52A6",
"$. c #9951AA",
"%. c #9F56B1",
"&. c #A359AD",
"*. c #A157B2",
"=. c #A359B3",
"-. c #AA5EB4",
";. c #A95EBB",
":. c #AB61B7",
">. c #AD62BA",
",. c #B265BE",
"<. c #AF64C2",
"1. c #B367C2",
"2. c #B569C1",
"3. c #B76BCA",
"4. c #BB6ECD",
"5. c #BF72D1",
"6. c #C376D6",
"7. c #C678D8",
"8. c #C97BDC",
"9. c #CD7FE0",
"0. c #3FB3B6",
"q. c #34B8B8",
"w. c #5B88AE",
"e. c #5B82AA",
"r. c #56A9BE",
"t. c #4BB4B7",
"y. c #30C4BF",
"u. c #52B9C6",
"i. c #3BCAC5",
"p. c #44C2C0",
"a. c #4FC6CB",
"s. c #54C2C2",
"d. c #50C2CB",
"f. c #4DD3D3",
"g. c #6EC4C6",
"h. c #75C5C9",
"j. c #7AC4C8",
"k. c #CE80E2",
"l. c #D181E4",
"z. c #86C4CA",
"x. c #8CC4CA",
"c. c #90C4CB",
"v. c #9DC5CC",
"b. c #BDC6D1",
"n. c #C4C7D2",
"m. c None",
/* pixels */
"m.m.m.m.m.m.m.m.m.m.m.m.m.m.m.m.D n m.m.m.m.m.m.m.m.m.m.m.m.m.m.m.m.m.",
"m.m.m.m.m.m.m.m.m.m.m.m.m.m.m.m.D S , m.m.m.m.m.m.m.m.m.m.m.m.m.m.m.m.",
"m.m.m.m.m.m.m.m.m.m.m.m.m.m.m.m.D I d m.m.m.m.m.m.m.m.m.m.m.m.m.m.m.m.",
"m.m.m.m.m.m.m.m.m.m.m.m.m.m.5.m.m.D D S m.m.m.m.k.m.m.m.m.m.m.m.m.m.m.",
"m.m.m.m.m.m.f m.m.m.m.m.m.m.m.m.m.D +.+., m.m.m.1.k.m.m.m.m.m.m.m.m.m.",
"m.m.m.m.m.& f l m.,.m.m.m.m.m.m.m.! <.k.@.* O m.m.9.m.m.m.m.m.m.m.m.m.",
"m.m.m.m.m.O a z m.m.m.m.m.m.m.m.m.m.>.5...f % m.m.m.m.m.m.k.k.m.m.m.m.",
"m.m.m.m.m.X , B m.m.m.m.m.m.m.m.m.m.x [ I I n : $ m.m.m.*.8.m.m.m.m.m.",
"m.m.m.m.m.m.% B z m.m.m.m.m.m.m.m.m.m.D D Y D D d $ @ m.m.m.m.m.m.m.m.",
"m.m.m.m.m.m.< A Z m.m.m.m.m.m.m.m.m.m.D Z *.%.[ U Z d @ m.m.m.m.m.m.m.",
"m.m.m.m.m.  g #.#.J m.>.m.m.m.7.m.m.m.D ! 3.9.*.I D n - m.m.m.m.m.m.m.",
"m.m.m.m.m.m.p &.=.J m.m.m.1.m.m.m.m.U m.U *.4.[ D m.m.m.m.m.b b D m.m.",
"m.m.' m.m.X y Q Q Z k m.m.m.m.m.D 4.O.m.S D ..m.m.m.U Z I m.( u.( m.m.",
"m.m.F C m.m.& l l l n m.m.&.! m.x *.1.! m.m.m.U n a * * Z m.w.d.r.c m.",
"m.m.' F m.X e f l l n m.Z ..#.Z m.! 9.[ m.m.Z 2 * , l I m.m.m./ I D m.",
"m.m.m.m.m.o e V J n l n m. .>.D m.x 3.;.m.m.k , Z U m.m.m.m.m.D D D m.",
"m.m.m.m.m.# f } X.~ l n m. .=...m.m.{ 9.O.m.m.Y m.m.m.m.m.m.m.D D D m.",
"m.K m.m.X # h ] ' V s m.m.m.&.>.Z m.S 6.$.m.m.m.m.m.m.m.m.D I D D m.m.",
"m.F N m.O = e f m.m.m.l m.m.#.2.E m.x +.4.m.m.m.m.m.m.v T T S D U m.m.",
"m.' K m.m.& m.m.m.i i : a m.m.&.@.k m.m.m.m.m.m.m.S ) r.f._ S D m.m.m.",
"m.m.m.m.m.m.m.e , & O - f m.m.~ #.m.m.i.m.m.m.m.m.^ d.e.` D m.m.m.m.m.",
"m.m.m.m.m.m.; X + - e i m.m.m.m.m.m.p.g.h.i.m.m.m.m.^ m.m.m.m.m.m.m.m.",
"m.m.m.; r m.t - ; m.m.m.m.m.m.m.m.0.c.n.b.s.m.j Z m.m.m.m.m.m.m.m.m.m.",
"m.m.e 2 2 m.m.m.m.m.m.m.m.m.m.m.m.q.x.n.n.j.m.z z l m.m.m.m.m.m.m.m.m.",
"m.m.m.3 8 y m.m.m.m.m.m.p m.m.m.m.m.s.v.z.s.m.z Z  .m.m.m.m.m.m.m.m.m.",
"m.m.m.; L < m.m.m.m.4 5 M m t m.f m.m.t.m.m.m.z W 2.2.,.&.m.m.m.m.m.m.",
"m.m.m.w 7 8 ; q q 1 L P 9 d m.m.s f m.m.m.m.m.m.B -.,.2.,.-.m.m.m.m.m.",
"m.m.m.m.2 3 ; ; ; L 6 , w m.m.m.i i s f m.f m.m.m.m.m.m.&.&.m.m.m.m.m.",
"m.m.m.m.m.m.t > ; q 0 m.m.m.m.m.t a i m.m.i l A m.m.m.m.m.m.m.m.m.m.m.",
"m.m.m.m.m.m.m.m.m.m.m.m.m.m.m.m.F N q m.m.A X. .m.m.m.m.m.m.m.m.m.m.m.",
"m.m.m.m.m.m.m.m.m.m.m.m.m.m.m.m.H K m.m.m.K ' ' | m.m.m.m.m.m.m.m.m.m.",
"m.m.m.m.m.m.m.m.m.m.m.m.m.m.m.H F m.m.m.m.m.F F F m.m.m.m.m.m.m.m.m.m.",
"m.m.m.m.m.m.m.m.m.m.m.m.m.m.m.F F m.m.m.m.m.F F ' m.m.m.m.m.m.m.m.m.m.",
"m.m.m.m.m.m.m.m.m.m.m.m.m.m.m.m.] m.m.m.m.m.m.m.m.m.m.m.m.m.m.m.m.m.m.",
"m.m.m.m.m.m.m.m.m.m.m.m.m.m.m.m.m.m.m.m.m.m.m.m.m.m.m.m.m.m.m.m.m.m.m."
};
